<?xml version="1.0" standalone="no"?>
<!DOCTYPE svg PUBLIC "-//W3C//DTD SVG 1.1//EN" "http://www.w3.org/Graphics/SVG/1.1/DTD/svg11.dtd" >
<svg xmlns="http://www.w3.org/2000/svg" xmlns:xlink="http://www.w3.org/1999/xlink" version="1.1">
<metadata>
Created by FontForge 20201107 at Wed Sep 11 11:37:28 2024
 By 
(c) 2015-2022 Pangram Pangram All rights reserved.
</metadata>
<defs>
<font id="PPFragment-TextRegular" horiz-adv-x="0" >
  <font-face 
    font-family="PP Fragment Text"
    font-weight="400"
    font-stretch="normal"
    units-per-em="2048"
    panose-1="0 0 0 0 0 0 0 0 0 0"
    ascent="1638"
    descent="-410"
    x-height="1001"
    cap-height="1550"
    bbox="-481 -860.087 4129 2048"
    underline-thickness="122"
    underline-position="-224"
    unicode-range="U+0021-1F449"
  />
<missing-glyph horiz-adv-x="1044" 
d="M856 1597v-2089h-661v2089h661zM348 -348h348v69h-213l146 99h67v69h-348v-69h148l-148 -99v-69zM348 -63h348v235h-348v-235zM348 299h348v236h-209v-117h70v47h70v-98h-209v168h-70v-236zM348 580h348v208h-69v-137h-279v-71zM348 698h209v148h139v67h-348v-67h139v-78
h-139v-70zM348 971h348v71h-139v146h-209v-217zM348 1243h348v68h-139v78h139v69h-346v-69h137v-78h-139v-68zM418 6v98h209v-98h-209zM418 1042v74h69v-74h-69z" />
    <glyph glyph-name="fl" unicode="fl" horiz-adv-x="1286" 
d="M795 0v10q69 29 89.5 84t20.5 180v646h-465v-639q0 -129 22 -184.5t97 -86.5v-10h-432v10q66 29 85 83.5t19 180.5v646h-217v81h217v160q0 118 32 207.5t89 143t128.5 80t156.5 26.5q203 0 315 -152l146 148l22 -4q-8 -120 -8 -316v-1020q0 -125 20.5 -179.5t88.5 -84.5
v-10h-426zM430 1235q0 -74 8 -234h467v283q-58 254 -254 254q-106 0 -163.5 -74.5t-57.5 -228.5z" />
    <glyph glyph-name="T_h" unicode="Th" horiz-adv-x="2416" 
d="M1239 0v10q68 30 88.5 84.5t20.5 179.5v1119q-318 80 -514 80h-37v-1199q0 -126 21.5 -180.5t94.5 -83.5v-10h-460v10q72 30 94 84.5t22 179.5v1199h-37q-61 0 -145.5 -17.5t-139 -33.5t-212.5 -64v192h1542l10 -10q-19 -41 -26 -86t-7 -168v-516q49 117 149 191.5
t239 74.5q317 0 317 -370v-392q0 -126 18.5 -180.5t81.5 -83.5v-10h-405v10q60 29 78 83.5t18 180.5v381q0 267 -205 267q-109 0 -184 -74.5t-107 -190.5v-383q0 -125 20.5 -179.5t86.5 -84.5v-10h-422z" />
    <glyph glyph-name="f_f" unicode="ff" horiz-adv-x="1447" 
d="M88 0v10q66 29 85.5 83.5t19.5 180.5v646h-218v81h218v121q0 118 32 207t86.5 140.5t121 76.5t142.5 25q218 0 332 -172q46 110 136.5 164.5t207.5 54.5q121 0 213 -56.5t138 -148.5l-138 -108q-63 231 -225 231q-182 0 -182 -274q0 -85 12 -261h379v-81h-375v-639
q0 -129 24.5 -185.5t108.5 -85.5v-10h-446v10q65 29 84.5 84t19.5 180v646h-463v-639q0 -129 22 -184.5t97 -86.5v-10h-432zM387 1202q0 -84 10 -201h467v152q0 26 4 76q-30 128 -98 196t-174 68q-209 0 -209 -291z" />
    <glyph glyph-name="f_f_i" unicode="ffi" horiz-adv-x="1890" 
d="M88 0v10q66 29 85.5 83.5t19.5 180.5v646h-218v81h218v121q0 118 32 207t86.5 140.5t121 76.5t142.5 25q222 0 336 -180q52 115 149 169t224 54q177 0 290.5 -97.5t143.5 -265.5h-190q-18 130 -83 207.5t-169 77.5q-225 0 -225 -317q0 -103 14 -218h672v-727
q0 -126 19 -180.5t85 -85.5v-8h-411v10q61 29 79.5 83.5t20.5 180.5v646h-459v-639q0 -129 22.5 -185.5t96.5 -85.5v-10h-432v10q66 29 85 83.5t19 180.5v646h-461v-639q0 -129 22 -184.5t97 -86.5v-10h-432zM387 1202q0 -84 10 -201h465v123q0 54 6 103q-61 266 -272 266
q-209 0 -209 -291z" />
    <glyph glyph-name="f_f_l" unicode="ffl" horiz-adv-x="1918" 
d="M88 0v10q66 29 85.5 83.5t19.5 180.5v646h-218v81h218v121q0 118 32 207t86.5 140.5t121 76.5t142.5 25q218 0 332 -172q49 111 144 165t217 54q203 0 315 -152l146 148l22 -4q-8 -120 -8 -316v-1020q0 -125 20.5 -180t87.5 -84v-10h-426v10q69 29 90 84t21 180v646h-465
v-639q0 -129 22 -184.5t97 -86.5v-10h-432v10q66 29 85 83.5t19 180.5v646h-461v-639q0 -129 22 -184.5t97 -86.5v-10h-432zM387 1202q0 -84 10 -201h465v160q0 28 4 74q-64 258 -270 258q-209 0 -209 -291zM1061 1235q0 -74 8 -234h467v283q-58 254 -254 254
q-106 0 -163.5 -74.5t-57.5 -228.5z" />
    <glyph glyph-name="f_i" unicode="fi" horiz-adv-x="1259" 
d="M127 0v10q66 29 85 83.5t19 180.5v646h-215v81h215v123q0 129 33 226t92 153.5t133 83.5t164 27q177 0 290.5 -97.5t143.5 -265.5h-190q-18 130 -83 207.5t-169 77.5q-225 0 -225 -317q0 -103 14 -218h672v-727q0 -126 19 -180.5t85 -85.5v-8h-411v10q61 29 79.5 83.5
t20.5 180.5v646h-459v-639q0 -129 22.5 -185.5t96.5 -85.5v-10h-432z" />
    <glyph glyph-name="g_t" unicode="gt" horiz-adv-x="1959" 
d="M1632 -20q-286 0 -286 337v959l200 151h6v-426h326v-83h-326v-594q0 -122 42 -171t120 -49q145 0 219 164l25 -57q-49 -110 -134.5 -170.5t-191.5 -60.5zM80 96q0 77 60.5 140.5t168.5 109.5q-149 107 -149 297q0 119 62.5 208.5t166.5 134t232 44.5q115 0 211.5 -36.5
t160.5 -104.5q26 81 93 133.5t167 56.5v-161q-164 0 -217 -89q49 -84 49 -186q0 -180 -130.5 -282.5t-331.5 -102.5q-142 0 -254 53q-140 -61 -140 -155q0 -98 166 -95q86 0 299.5 35t294.5 35q121 0 187.5 -49.5t66.5 -144.5q0 -98 -66.5 -185t-173.5 -145t-240.5 -91.5
t-268.5 -33.5q-107 0 -188.5 20t-133 66.5t-51.5 116.5q0 139 254 217h-23q-125 0 -198.5 51t-73.5 143zM270 -291q0 -143 246 -143q132 0 258.5 37t211.5 107.5t85 154.5q0 53 -35 76.5t-112 23.5q-157 0 -394 -63q-134 -35 -197 -80t-63 -113zM369 643q0 -145 67.5 -229
t184.5 -84q120 0 188 84t68 229t-68 228t-188 83q-117 0 -184.5 -83t-67.5 -228z" />
    <glyph glyph-name=".notdef" horiz-adv-x="1044" 
d="M856 1597v-2089h-661v2089h661zM348 -348h348v69h-213l146 99h67v69h-348v-69h148l-148 -99v-69zM348 -63h348v235h-348v-235zM348 299h348v236h-209v-117h70v47h70v-98h-209v168h-70v-236zM348 580h348v208h-69v-137h-279v-71zM348 698h209v148h139v67h-348v-67h139v-78
h-139v-70zM348 971h348v71h-139v146h-209v-217zM348 1243h348v68h-139v78h139v69h-346v-69h137v-78h-139v-68zM418 6v98h209v-98h-209zM418 1042v74h69v-74h-69z" />
    <glyph glyph-name=".null" 
 />
    <glyph glyph-name="nonmarkingreturn" horiz-adv-x="682" 
 />
    <glyph glyph-name="space" unicode="&#xa0;" horiz-adv-x="548" 
 />
    <glyph glyph-name="space" unicode=" " horiz-adv-x="548" 
 />
    <glyph glyph-name="exclam" unicode="!" horiz-adv-x="555" 
d="M233 446l-75 1104h239l-75 -1104h-89zM174 0v242h207v-242h-207z" />
    <glyph glyph-name="quotedbl" unicode="&#x22;" horiz-adv-x="686" 
d="M152 999l-60 551h189l-60 -551h-69zM403 1550h189l-60 -551h-69z" />
    <glyph glyph-name="numbersign" unicode="#" horiz-adv-x="1286" 
d="M252 -20l133 598h-309v69h323l58 258h-336v70h352l131 596h82l-131 -596h264l133 596h82l-131 -596h307v-70h-323l-58 -258h336v-69h-350l-133 -598h-84l133 598h-264l-133 -598h-82zM481 647h267l57 258h-266z" />
    <glyph glyph-name="dollar" unicode="$" horiz-adv-x="1366" 
d="M674 -348v328q-223 15 -368 151t-169 369h209q12 -117 49 -207t108.5 -152.5t170.5 -77.5v639l-37 21q-61 34 -100.5 57.5t-88.5 56t-80 59t-63.5 62t-50.5 70.5t-29.5 78t-11.5 90q0 176 129 276.5t332 100.5v305h69v-307q192 -19 319.5 -131.5t160.5 -304.5h-205
q-18 143 -87.5 236t-187.5 116v-578l39 -20q59 -33 94.5 -53.5t84 -51t77.5 -54t63.5 -54.5t54 -61t37.5 -66t26 -76.5t8 -85.5q0 -186 -133.5 -296.5t-350.5 -113.5v-325h-69zM406 1264q0 -98 65 -168t207 -150v547q-127 1 -199.5 -61t-72.5 -168zM739 59q132 2 212.5 73
t80.5 192q0 54 -17 98.5t-57.5 85.5t-89.5 76t-129 82v-607z" />
    <glyph glyph-name="percent" unicode="%" horiz-adv-x="1536" 
d="M131 0l1174 1550h104l-1176 -1550h-102zM66 1245q0 147 95 237.5t247 90.5t248 -90.5t96 -237.5q0 -144 -96.5 -235.5t-247.5 -91.5t-246.5 91t-95.5 236zM215 1245q0 -129 50 -197.5t143 -68.5q91 0 141.5 69t50.5 197t-50.5 197t-141.5 69q-93 0 -143 -68.5t-50 -197.5
zM786 303q0 147 95 237.5t247 90.5t248.5 -90.5t96.5 -237.5q0 -144 -97 -236t-248 -92t-246.5 91.5t-95.5 236.5zM936 303q0 -129 50 -197.5t142 -68.5q91 0 142 69t51 197t-51 197t-142 69q-92 0 -142 -68.5t-50 -197.5z" />
    <glyph glyph-name="ampersand" unicode="&#x26;" horiz-adv-x="1718" 
d="M668 -27q-145 0 -258 47t-179.5 141t-66.5 222q0 79 25 145.5t76 123t117.5 103t160.5 95.5q-127 132 -178.5 216.5t-51.5 180.5q0 154 117 244t297 90q167 0 277 -85.5t110 -229.5q0 -125 -91 -219.5t-265 -172.5l424 -432q53 118 78 248l196 -2q-95 -215 -178 -344
l319 -324v-20h-229l-197 203q-207 -230 -503 -230zM377 422q0 -145 96 -235t262 -89q216 0 357 187l-494 508q-115 -85 -168 -173.5t-53 -197.5zM508 1276q0 -84 43 -158.5t149 -185.5q119 75 174.5 155.5t55.5 184.5q0 110 -56 168.5t-147 58.5q-99 0 -159 -59t-60 -164z
" />
    <glyph glyph-name="quotesingle" unicode="'" horiz-adv-x="372" 
d="M152 999l-60 551h189l-60 -551h-69z" />
    <glyph glyph-name="parenleft" unicode="(" horiz-adv-x="823" 
d="M756 -289q-145 49 -269 142.5t-215 219t-142.5 287t-51.5 338.5q0 173 53.5 330.5t147.5 278.5t217 210.5t266 139.5v-86q-214 -111 -343.5 -347.5t-129.5 -525.5q0 -301 125 -547.5t342 -355.5v-84z" />
    <glyph glyph-name="parenright" unicode=")" horiz-adv-x="823" 
d="M68 -205q217 109 342 355.5t125 547.5q0 289 -130 525.5t-344 347.5v86q143 -50 266 -139.5t217 -210.5t147.5 -278.5t53.5 -330.5q0 -235 -89 -438.5t-241 -343t-347 -205.5v84z" />
    <glyph glyph-name="asterisk" unicode="*" horiz-adv-x="1105" 
d="M485 639l47 405l-249 -321l-97 94l320 256l-404 -47v133l404 -43l-320 254l97 96l249 -323l-47 407h133l-47 -407l254 323l95 -96l-320 -254l406 43v-133l-406 47l320 -256l-95 -94l-254 321l47 -405h-133z" />
    <glyph glyph-name="plus" unicode="+" horiz-adv-x="1175" 
d="M539 41v444h-412v90h414v447h96v-447h412v-88h-414v-446h-96z" />
    <glyph glyph-name="comma" unicode="," horiz-adv-x="440" 
d="M61 -205q92 14 146.5 65t64.5 140h-151v242h205v-211q0 -138 -67 -229t-198 -126v119z" />
    <glyph glyph-name="hyphen" unicode="-" horiz-adv-x="952" 
d="M90 588q386 -25 770 0v-113q-384 25 -770 0v113z" />
    <glyph glyph-name="period" unicode="." horiz-adv-x="434" 
d="M115 0v242h204v-242h-204z" />
    <glyph glyph-name="slash" unicode="/" horiz-adv-x="1026" 
d="M18 -244l891 1997h97l-887 -1997h-101z" />
    <glyph glyph-name="zero" unicode="0" horiz-adv-x="1380" 
d="M688 -33q-276 0 -432 212.5t-156 592.5q0 382 156 594.5t432 212.5q279 0 435.5 -212t156.5 -595q0 -381 -156.5 -593t-435.5 -212zM328 772q0 -362 92.5 -543.5t267.5 -181.5q177 0 271 181.5t94 543.5q0 365 -93.5 546t-271.5 181q-176 0 -268 -181t-92 -546z" />
    <glyph glyph-name="one" unicode="1" horiz-adv-x="868" 
d="M262 0v10q90 29 117 85.5t27 185.5v991q-40 -82 -133.5 -153t-204.5 -79v142q170 25 289 133t155 235h121v-1276q0 -126 24.5 -180.5t106.5 -83.5v-10h-502z" />
    <glyph glyph-name="two" unicode="2" horiz-adv-x="1296" 
d="M96 29q0 75 34 139.5t119 149t261 231.5q205 171 272 239q125 127 158 249q16 59 16 128q0 156 -76.5 242t-213.5 86q-175 0 -272 -131t-95 -348h-207q15 263 176.5 415t427.5 152q223 0 355.5 -109.5t132.5 -312.5q0 -80 -23.5 -151.5t-59.5 -126.5t-101.5 -117
t-124.5 -107.5t-154 -111.5q-354 -238 -461 -365h936l2 -180h-1102v29z" />
    <glyph glyph-name="three" unicode="3" horiz-adv-x="1337" 
d="M686 -35q-268 0 -429 155t-175 425h100q10 -220 132 -343.5t317 -123.5q184 0 282.5 98t98.5 258q0 162 -110.5 254t-319.5 92h-148v84h160q179 0 281 90.5t102 247.5q0 128 -75.5 210.5t-227.5 82.5q-167 0 -267.5 -103.5t-117.5 -291.5h-197q28 218 192.5 348.5
t417.5 130.5q231 0 362.5 -105t131.5 -272q0 -151 -107 -248.5t-292 -122.5q206 -22 326 -126.5t120 -282.5q0 -196 -152.5 -326.5t-404.5 -130.5z" />
    <glyph glyph-name="four" unicode="4" horiz-adv-x="1423" 
d="M754 0v10q72 29 93 83.5t21 180.5v115h-829v109l893 1056h155v-1001h291v-164h-291v-115q0 -125 21.5 -180t93.5 -84v-10h-448zM190 553h678l2 809z" />
    <glyph glyph-name="five" unicode="5" horiz-adv-x="1302" 
d="M643 -35q-249 0 -403 141.5t-166 387.5h96q9 -195 126.5 -305.5t291.5 -110.5q186 0 290.5 113t104.5 305q0 198 -105.5 299.5t-281.5 101.5q-108 0 -206.5 -40t-164.5 -120l-82 35l109 778h907v-174h-840l-73 -540q78 81 195.5 124.5t248.5 43.5q246 0 386.5 -134
t140.5 -372q0 -245 -156.5 -389t-417.5 -144z" />
    <glyph glyph-name="six" unicode="6" horiz-adv-x="1404" 
d="M715 -35q-303 0 -460 196.5t-157 538.5q0 184 46 343.5t130.5 278.5t214 187t287.5 68q223 0 366.5 -127t172.5 -356h-101q-21 171 -126 273.5t-269 102.5q-104 0 -187.5 -43t-139.5 -116t-93.5 -174t-54 -212.5t-16.5 -236.5q0 -53 2 -78q36 170 168.5 273.5
t306.5 103.5q136 0 246 -57.5t176.5 -171.5t66.5 -266q0 -125 -46.5 -226.5t-126 -166.5t-183.5 -99.5t-223 -34.5zM350 422q67 -369 361 -369q157 0 255.5 114.5t98.5 307.5q0 195 -95 299.5t-243 104.5q-169 0 -276.5 -130.5t-100.5 -326.5z" />
    <glyph glyph-name="seven" unicode="7" horiz-adv-x="1110" 
d="M166 0l758 1370h-901v180h1056v-57l-669 -1493h-244z" />
    <glyph glyph-name="eight" unicode="8" horiz-adv-x="1470" 
d="M735 -35q-184 0 -330.5 52t-233.5 156t-87 245q0 92 37.5 168t103 127.5t149.5 84t183 44.5q-179 25 -280 121t-101 237q0 169 148 274t411 105t411 -104.5t148 -272.5q0 -141 -101.5 -238.5t-281.5 -121.5q135 -15 240 -66t170 -143.5t65 -214.5q0 -141 -87 -245
t-233.5 -156t-330.5 -52zM324 424q0 -170 114.5 -272.5t296.5 -102.5t297 103t115 272q0 168 -111 270.5t-301 102.5t-300.5 -102.5t-110.5 -270.5zM397 1198q0 -62 19.5 -118t58.5 -103t106 -75t154 -28t154.5 28t107 75t59 103t19.5 118q0 132 -87 219.5t-253 87.5
t-252 -87.5t-86 -219.5z" />
    <glyph glyph-name="nine" unicode="9" horiz-adv-x="1404" 
d="M692 1581q201 0 340 -94t206 -261.5t67 -398.5q0 -180 -42 -334.5t-122 -272t-206.5 -184.5t-285.5 -67q-222 0 -364.5 127.5t-173.5 356.5h100q22 -172 127 -274.5t268 -102.5q105 0 187.5 43.5t135 115.5t86.5 173.5t48 209.5t14 232q0 61 -2 92q-35 -172 -167 -276.5
t-314 -104.5q-208 0 -346.5 133t-138.5 359q0 126 46.5 228t126.5 166.5t185 99t225 34.5zM338 1069q0 -192 95 -295.5t243 -103.5q171 0 278.5 131.5t98.5 328.5q-73 363 -355 363q-163 0 -261.5 -114.5t-98.5 -309.5z" />
    <glyph glyph-name="colon" unicode=":" horiz-adv-x="475" 
d="M135 616v242h205v-242h-205zM135 0v242h205v-242h-205z" />
    <glyph glyph-name="semicolon" unicode=";" horiz-adv-x="481" 
d="M135 616v242h205v-242h-205zM82 -324v119q92 14 146.5 65t64.5 140h-152v242h205v-211q0 -138 -66.5 -229t-197.5 -126z" />
    <glyph glyph-name="less" unicode="&#x3c;" horiz-adv-x="1175" 
d="M1036 162l-923 332v73l923 332v-96l-786 -273l786 -272v-96z" />
    <glyph glyph-name="equal" unicode="=" horiz-adv-x="1175" 
d="M127 659v91h922v-88zM127 311v88h922v-86z" />
    <glyph glyph-name="greater" unicode="&#x3e;" horiz-adv-x="1175" 
d="M139 162v96l787 272l-787 273v96l924 -332v-73z" />
    <glyph glyph-name="question" unicode="?" horiz-adv-x="1052" 
d="M360 446q-43 100 -43 170q0 57 26 107t68 88.5t92.5 75.5t101 75t92.5 78.5t68 94.5t26 116q0 100 -60.5 165t-171.5 65q-144 0 -224.5 -104.5t-86.5 -293.5h-197q13 232 159.5 362t375.5 130q196 0 311 -91t115 -239q0 -73 -31.5 -133.5t-82.5 -101.5t-112 -77t-122 -68
t-112 -65t-82.5 -77.5t-31.5 -97.5q0 -67 86 -179h-164zM356 0v242h207v-242h-207z" />
    <glyph glyph-name="at" unicode="@" horiz-adv-x="2121" 
d="M956 -336q-405 0 -637.5 210t-232.5 599q0 176 47.5 340t142.5 303.5t227.5 243t314 162.5t390.5 59q202 0 360 -56t258.5 -156.5t152 -235t51.5 -295.5q0 -190 -68.5 -353.5t-198.5 -265.5t-295 -102q-147 0 -220.5 78t-67.5 211q-69 -132 -167 -210.5t-218 -78.5
q-127 0 -196 90t-69 244q0 123 42.5 247.5t112.5 223.5t169 161t205 62q121 0 183.5 -77.5t64.5 -195.5l75 238l195 43l-191 -604q-60 -191 -28.5 -280t155.5 -89q129 0 234.5 93.5t163 244t57.5 322.5q0 153 -47.5 278t-140.5 217t-239 142.5t-333 50.5q-201 0 -374 -57
t-297.5 -156.5t-213.5 -233.5t-132.5 -289t-43.5 -321q0 -368 216.5 -560t594.5 -192t662 213l-6 -61q-276 -207 -658 -207zM731 455q0 -105 37 -168.5t115 -63.5q57 0 112.5 36.5t99 96.5t77.5 128.5t57 142.5l18 61q20 65 23.5 126t-10 110.5t-49.5 81t-91 34.5
q-76 4 -149.5 -50.5t-125 -140.5t-83 -191.5t-31.5 -202.5z" />
    <glyph glyph-name="A" unicode="A" horiz-adv-x="1536" 
d="M2 8q69 32 116 83.5t83 150.5l430 1167q30 82 -6 141h241l494 -1317q36 -96 74 -146t100 -77v-10h-508v8q80 29 98 81t-14 142l-92 269h-612l-95 -264q-35 -101 -20.5 -151t86.5 -79v-6h-375v8zM436 582h553l-272 782z" />
    <glyph glyph-name="B" unicode="B" horiz-adv-x="1404" 
d="M102 0v10q72 30 94.5 85t22.5 179v1002q0 130 -22 182t-95 82v10h555q131 0 236.5 -19.5t187 -60t126 -109t44.5 -161.5q0 -151 -117.5 -239t-324.5 -107v-8q110 -9 202.5 -37t166 -77t114.5 -124.5t41 -171.5q0 -114 -48.5 -199t-138 -136t-207.5 -76t-265 -25h-572z
M440 82h213q441 0 441 358q0 181 -120.5 274t-332.5 93h-201v-725zM440 885h197q174 0 281.5 78.5t107.5 224.5q0 280 -391 280h-195v-583z" />
    <glyph glyph-name="C" unicode="C" horiz-adv-x="1701" 
d="M866 -29q-181 0 -330 62t-248 169.5t-152.5 253t-53.5 312.5q0 178 60 328t165.5 254t254.5 162.5t323 58.5q280 0 477.5 -142.5t263.5 -412.5h-225q-45 217 -179.5 343t-334.5 126q-128 0 -234.5 -54t-177.5 -146.5t-110 -216.5t-39 -265q0 -145 38 -268.5t110.5 -218
t187 -148t258.5 -53.5q252 0 412 147.5t204 403.5h102q-47 -320 -249.5 -507.5t-522.5 -187.5z" />
    <glyph glyph-name="D" unicode="D" horiz-adv-x="1705" 
d="M102 0v10q72 30 94.5 85t22.5 179v1002q0 130 -22 182t-95 82v10h617q419 0 661 -203t242 -573q0 -361 -242 -567.5t-661 -206.5h-617zM446 82h259q307 0 491 183.5t184 508.5q0 335 -182.5 514.5t-492.5 179.5h-259v-1386z" />
    <glyph glyph-name="E" unicode="E" horiz-adv-x="1226" 
d="M102 0v10q72 30 94.5 85t22.5 179v1002q0 130 -22 182t-95 82v10h1028v-190q-189 58 -299.5 83t-203.5 25h-181v-618h115q135 0 463 16v-110q-262 16 -463 16h-115v-690l226 2q110 1 227.5 31t276.5 90v-205h-1074z" />
    <glyph glyph-name="F" unicode="F" horiz-adv-x="1198" 
d="M1155 1360q-178 57 -297 82.5t-233 25.5h-179v-581h146q122 0 446 16v-110q-324 16 -446 16h-146v-535q0 -125 23.5 -180t101.5 -84v-10h-469v10q72 30 94.5 85t22.5 179v1002q0 130 -22 182t-95 82v10h1053v-190z" />
    <glyph glyph-name="G" unicode="G" horiz-adv-x="1796" 
d="M834 -29q-174 0 -317 61t-237.5 167.5t-146 249t-51.5 307.5q0 246 107 433.5t296 287.5t430 100q277 0 473.5 -134.5t256.5 -369.5h-224q-46 197 -179 307.5t-331 110.5q-176 0 -310.5 -90.5t-205.5 -247.5t-71 -356q0 -146 37.5 -270t108.5 -218t183 -147t254 -53
q241 0 388.5 159.5t174.5 433.5h-718v84h917v-802h-80l-100 465q-63 -220 -233 -349t-422 -129z" />
    <glyph glyph-name="H" unicode="H" horiz-adv-x="1640" 
d="M100 0v10q74 30 96.5 85t22.5 179v1002q0 130 -22 182t-97 82v10h463v-10q-74 -30 -95.5 -81.5t-21.5 -182.5v-424h748v424q0 131 -21.5 182.5t-95.5 81.5v10h461v-10q-74 -30 -95.5 -81.5t-21.5 -182.5v-1002q0 -125 22 -180t95 -84v-10h-461v10q73 29 95 84t22 180v494
h-748v-494q0 -125 22 -180t95 -84v-10h-463z" />
    <glyph glyph-name="I" unicode="I" horiz-adv-x="665" 
d="M100 0v10q74 30 96.5 85t22.5 179v1002q0 130 -22 182t-97 82v10h463v-10q-74 -30 -95.5 -81.5t-21.5 -182.5v-1002q0 -125 22 -180t95 -84v-10h-463z" />
    <glyph glyph-name="J" unicode="J" horiz-adv-x="679" 
d="M23 -225q127 29 173 120.5t46 305.5v1075q0 131 -21.5 182.5t-95.5 81.5v10h461v-10q-74 -30 -95.5 -81.5t-21.5 -182.5v-1071q0 -238 -111.5 -361.5t-334.5 -144.5v76z" />
    <glyph glyph-name="K" unicode="K" horiz-adv-x="1423" 
d="M100 0v10q74 30 96.5 85t22.5 179v1002q0 130 -22 182t-97 82v10h463v-10q-74 -30 -95.5 -81.5t-21.5 -182.5v-506l543 578q94 99 152 202h268v-18q-81 -22 -135.5 -52.5t-108.5 -86.5l-456 -469l729 -912v-12h-273l-587 791l-132 -136v-381q0 -125 22 -180t95 -84v-10
h-463z" />
    <glyph glyph-name="L" unicode="L" horiz-adv-x="1200" 
d="M102 0v10q72 30 94.5 85t22.5 179v1002q0 130 -22 182t-95 82v10h461v-10q-74 -30 -95.5 -81.5t-21.5 -182.5v-1190h201q114 0 233 30t283 93v-209h-1061z" />
    <glyph glyph-name="M" unicode="M" horiz-adv-x="1951" 
d="M891 -20l-567 1359v-1065q0 -126 23.5 -180.5t103.5 -83.5v-10h-355v10q78 29 100.5 83.5t22.5 180.5v1002q0 131 -21 182.5t-94 81.5v10h363l516 -1255l504 1255h360v-10q-71 -30 -91.5 -81.5t-20.5 -182.5v-1002q0 -126 21.5 -180.5t94.5 -83.5v-10h-460v10
q76 29 99 84t23 180v1098l-563 -1392h-59z" />
    <glyph glyph-name="N" unicode="N" horiz-adv-x="1546" 
d="M1143 0l-832 1298v-1011q0 -131 25.5 -188.5t109.5 -88.5v-10h-346v10q67 31 87 88t20 189v989q0 130 -12.5 182t-55.5 82v10h262l834 -1300v1014q0 132 -23.5 188.5t-103.5 87.5v10h340v-10q-68 -31 -88.5 -88t-20.5 -188v-1264h-196z" />
    <glyph glyph-name="O" unicode="O" horiz-adv-x="1826" 
d="M915 -35q-244 0 -434 101t-294.5 284.5t-104.5 421.5q0 177 61 326.5t170 254t264 162.5t338 58q181 0 335.5 -58t263.5 -162.5t170 -254.5t61 -328q0 -237 -105 -420.5t-294 -284t-431 -100.5zM326 770q0 -210 69.5 -372t204 -254.5t315.5 -92.5q179 0 313 92.5
t203.5 255t69.5 373.5q0 209 -69.5 371t-203.5 254t-313 92q-181 0 -315.5 -92.5t-204 -254.5t-69.5 -372z" />
    <glyph glyph-name="P" unicode="P" horiz-adv-x="1312" 
d="M102 0v10q72 30 94.5 85t22.5 179v1002q0 130 -22 182t-95 82v10h553q144 0 254 -21t193.5 -66.5t127.5 -123t44 -184.5q0 -88 -33 -158.5t-92 -117.5t-143 -78.5t-182 -45.5t-214 -14h-164v-467q0 -125 23.5 -180t101.5 -84v-10h-469zM446 821h146q100 0 179.5 18.5
t141 57.5t94.5 104.5t33 153.5q0 313 -405 313h-189v-647z" />
    <glyph glyph-name="Q" unicode="Q" horiz-adv-x="1826" 
d="M915 -35q-244 0 -434 101t-294.5 284.5t-104.5 421.5q0 177 61 326.5t170 254t264 162.5t338 58q181 0 335.5 -58t263.5 -162.5t170 -254.5t61 -328q0 -217 -92.5 -389t-257.5 -277l282 -354v-20h-186l-213 309q-160 -74 -363 -74zM326 770q0 -210 69.5 -372t204 -254.5
t315.5 -92.5q165 0 299 78l-401 582h100l400 -502q188 194 188 563q0 209 -69.5 371t-203.5 254t-313 92q-181 0 -315.5 -92.5t-204 -254.5t-69.5 -372z" />
    <glyph glyph-name="R" unicode="R" horiz-adv-x="1388" 
d="M1116 0l-514 766h-156v-492q0 -125 23.5 -180t101.5 -84v-10h-469v10q72 30 94.5 85t22.5 179v1002q0 130 -22 182t-95 82v10h574q592 0 592 -376q0 -120 -61 -206.5t-163 -131t-241 -56.5l583 -768v-12h-270zM446 846h154q78 0 143 10.5t120.5 35t94 61.5t60.5 92.5
t22 125.5q0 297 -407 297h-187v-622z" />
    <glyph glyph-name="S" unicode="S" horiz-adv-x="1249" 
d="M659 -33q-252 0 -417.5 138t-192.5 389h215q10 -96 38.5 -175.5t76 -140.5t120.5 -95t165 -34q137 0 220 71t83 195q0 37 -9.5 70t-23 59.5t-43.5 56t-56 51t-76.5 53t-89 53.5t-108.5 61q-88 48 -142 80.5t-116 79.5t-96 90t-57 101t-23 124q0 177 133 279t342 102
q222 0 372.5 -115t188.5 -327h-211q-19 164 -108.5 262.5t-239.5 99.5q-130 1 -204 -62t-74 -169q0 -36 9 -67.5t23 -57.5t42.5 -54t54.5 -48.5t73 -49t83.5 -49t99.5 -53.5q59 -32 96.5 -53.5t86.5 -51.5t79 -54t65 -55t55.5 -61.5t39 -67t26.5 -77t8 -86.5
q0 -190 -140.5 -301t-367.5 -111z" />
    <glyph glyph-name="T" unicode="T" horiz-adv-x="1294" 
d="M35 1358v192h1225v-192q-145 46 -202.5 63.5t-138 34.5t-139.5 17h-18v-1199q0 -125 22 -180t95 -84v-10h-461v10q72 30 94.5 85t22.5 179v1199h-17q-56 0 -131 -15.5t-126 -30t-187 -57.5z" />
    <glyph glyph-name="U" unicode="U" horiz-adv-x="1540" 
d="M782 -33q-138 0 -241.5 34t-184 111.5t-122 212.5t-41.5 326v625q0 131 -21.5 182.5t-95.5 81.5v10h461v-10q-74 -30 -95.5 -81.5t-21.5 -182.5v-627q0 -305 95.5 -441t305.5 -136q212 0 316 136.5t104 440.5v627q0 131 -21.5 182.5t-95.5 81.5v10h340v-10
q-74 -30 -95 -81.5t-21 -182.5v-625q0 -358 -141.5 -521t-424.5 -163z" />
    <glyph glyph-name="V" unicode="V" horiz-adv-x="1398" 
d="M131 1327q-38 101 -67 145t-82 68v10h471v-10q-79 -21 -91.5 -70t21.5 -139l379 -1124l389 1122q24 68 26.5 108t-16.5 64t-65 39v10h321v-10q-53 -21 -82.5 -64.5t-68.5 -148.5l-437 -1210q-21 -61 -18 -117h-197z" />
    <glyph glyph-name="W" unicode="W" horiz-adv-x="2080" 
d="M145 1325q-33 98 -64.5 145t-82.5 70v10h461v-10q-69 -21 -81 -70t19 -139l305 -1020l345 1166h114l355 -1176l307 1030q31 96 20 143.5t-74 65.5v10h316v-10q-52 -19 -85.5 -66t-62.5 -143l-372 -1210q-21 -68 -21 -121h-145l-352 1147l-312 -1030q-20 -67 -20 -117
h-146z" />
    <glyph glyph-name="X" unicode="X" horiz-adv-x="1361" 
d="M891 10q56 18 65.5 69t-26.5 111l-307 504l-316 -495q-41 -64 -32 -116t71 -73v-10h-364v10q108 40 211 193l378 577l-362 596q-40 70 -83 107.5t-101 56.5v10h485l2 -10q-123 -34 -49 -160l289 -477l305 471q39 55 35 101.5t-60 64.5v10h334v-10q-57 -19 -102 -57.5
t-88 -104.5l-371 -561l381 -629q81 -135 194 -178v-10h-489v10z" />
    <glyph glyph-name="Y" unicode="Y" horiz-adv-x="1323" 
d="M172 1384q-40 72 -72.5 105t-87.5 51v10h459v-10q-111 -30 -45 -162l311 -577l301 577q16 31 23 54.5t5 46t-18.5 38t-48.5 23.5v10h314v-10q-49 -18 -86 -54t-74 -106l-360 -675v-431q0 -126 21.5 -180.5t94.5 -83.5v-10h-465v10q73 29 95 84t22 180v426z" />
    <glyph glyph-name="Z" unicode="Z" horiz-adv-x="1224" 
d="M51 0v86l852 1382h-325q-116 0 -227 -25t-300 -91v198h1110v-82l-854 -1386h328q121 0 246.5 30.5t300.5 94.5v-207h-1131z" />
    <glyph glyph-name="bracketleft" unicode="[" horiz-adv-x="794" 
d="M170 -270v1933h522v-78h-313v-1778h313v-77h-522z" />
    <glyph glyph-name="backslash" unicode="\" horiz-adv-x="1032" 
d="M1012 -244h-101l-886 1997h96z" />
    <glyph glyph-name="bracketright" unicode="]" horiz-adv-x="794" 
d="M625 -270h-523v77h314v1778h-314v78h523v-1933z" />
    <glyph glyph-name="asciicircum" unicode="^" horiz-adv-x="1175" 
d="M236 780l307 822h92l305 -822h-106l-246 711l-246 -711h-106z" />
    <glyph glyph-name="underscore" unicode="_" horiz-adv-x="1443" 
d="M0 -176v100h1444v-100h-1444z" />
    <glyph glyph-name="grave" unicode="`" horiz-adv-x="589" 
d="M434 1186l-332 362h183l200 -362h-51z" />
    <glyph glyph-name="a" unicode="a" horiz-adv-x="1132" 
d="M367 -27q-133 0 -214 68t-81 195q0 55 18.5 99.5t49 76.5t83 59.5t109 47.5t137.5 42q52 15 77 22.5t62.5 21t55 23.5t40 26.5t31.5 34t16 41t7 52.5q3 84 -47.5 131.5t-145.5 47.5q-110 0 -187 -70.5t-77 -214.5h-190q5 88 47 158.5t109.5 113.5t148.5 65.5t170 22.5
q82 0 148 -18t118.5 -56.5t81.5 -105.5t29 -158v-456q0 -154 92 -154q45 0 78 29v-62q-70 -73 -172 -73q-92 0 -147.5 62t-55.5 189v48q-42 -137 -142.5 -222.5t-248.5 -85.5zM272 266q0 -82 47 -124t119 -42q143 0 231.5 117.5t88.5 306.5v107q-8 -20 -24.5 -37t-32 -27.5
t-51.5 -25t-56 -21.5t-72 -24q-133 -42 -191.5 -90.5t-58.5 -139.5z" />
    <glyph glyph-name="b" unicode="b" horiz-adv-x="1257" 
d="M61 0v10q69 29 90 84t21 180v1047q0 109 -17 156.5t-73 74.5v7l307 45l8 -9q-16 -65 -16 -274v-565q47 128 143.5 203t239.5 75q193 0 304.5 -145.5t111.5 -374.5q0 -235 -121.5 -384.5t-319.5 -149.5q-116 0 -209 54t-147 152q0 -100 18 -186h-340zM381 279
q40 -96 116 -150.5t171 -54.5q138 0 215.5 118t77.5 322q0 119 -28.5 211.5t-91.5 150.5t-155 58q-132 0 -212.5 -107.5t-92.5 -283.5v-250v-14z" />
    <glyph glyph-name="c" unicode="c" horiz-adv-x="1136" 
d="M580 -35q-222 0 -362 144.5t-140 388.5q0 249 146.5 393.5t373.5 144.5q199 0 324.5 -107t146.5 -272h-184q-48 301 -283 301q-151 0 -232 -114.5t-81 -304.5q0 -97 20.5 -178t62 -144.5t109.5 -99t158 -35.5q142 0 230 88.5t122 243.5h86q-32 -202 -160 -325.5
t-337 -123.5z" />
    <glyph glyph-name="d" unicode="d" horiz-adv-x="1251" 
d="M860 0q17 125 17 268q-47 -133 -142 -209.5t-237 -76.5q-131 0 -227 68.5t-144.5 184.5t-48.5 263q0 237 121.5 385.5t322.5 148.5q117 0 209.5 -52t145.5 -146v489q0 108 -17.5 155t-73.5 74v7l308 45l10 -7q-19 -69 -19 -274v-1049q0 -126 19 -180.5t84 -83.5v-10h-328
zM299 498q0 -120 27.5 -211t90.5 -148t156 -57q132 0 212 107t92 280v272q-37 90 -115 145.5t-170 55.5q-138 0 -215.5 -119.5t-77.5 -324.5z" />
    <glyph glyph-name="e" unicode="e" horiz-adv-x="1150" 
d="M582 -35q-225 0 -364.5 143t-139.5 388q0 162 68.5 286t184 189t259.5 65q216 0 346 -127t135 -331h-786q-2 -14 -2 -41q0 -130 36.5 -229.5t117.5 -160.5t198 -61q142 0 230 82.5t124 224.5h88q-39 -194 -164.5 -311t-330.5 -117zM291 651h579q-9 137 -82 223.5
t-198 86.5q-120 0 -197.5 -83.5t-101.5 -226.5z" />
    <glyph glyph-name="f" unicode="f" horiz-adv-x="817" 
d="M129 0v10q65 29 84.5 84t19.5 180v646h-217v81h217v152q0 119 30 210t83.5 146t122.5 82t152 27q121 0 212.5 -56.5t137.5 -148.5l-137 -108q-63 231 -226 231q-182 0 -182 -274q0 -85 12 -261h379v-81h-375v-639q0 -129 24.5 -185.5t108.5 -85.5v-10h-446z" />
    <glyph glyph-name="g" unicode="g" horiz-adv-x="1253" 
d="M494 -518q-107 0 -188.5 20t-133 66.5t-51.5 116.5q0 139 254 217h-23q-125 0 -198.5 51t-73.5 143q0 77 60.5 140.5t168.5 109.5q-149 107 -149 297q0 119 62.5 208.5t166.5 134t232 44.5q214 0 346 -117q12 127 84.5 206.5t179.5 80.5v-176q-97 0 -152.5 -40
t-66.5 -116q73 -95 73 -225q0 -180 -130.5 -282.5t-331.5 -102.5q-142 0 -254 53q-140 -61 -140 -155q0 -98 166 -95q86 0 299.5 35t294.5 35q121 0 187.5 -49.5t66.5 -144.5q0 -98 -66.5 -185t-173.5 -145t-240.5 -91.5t-268.5 -33.5zM270 -291q0 -143 246 -143
q132 0 258.5 37t211.5 107.5t85 154.5q0 53 -35 76.5t-112 23.5q-157 0 -394 -63q-134 -35 -197 -80t-63 -113zM369 643q0 -145 67.5 -229t184.5 -84q120 0 188 84t68 229t-68 228t-188 83q-117 0 -184.5 -83t-67.5 -228z" />
    <glyph glyph-name="h" unicode="h" horiz-adv-x="1241" 
d="M61 0v10q69 29 90 84t21 180v1049q0 104 -19.5 151t-78.5 76v9l313 45l10 -9q-18 -77 -18 -272v-549q51 117 150 189.5t237 72.5q315 0 315 -370v-392q0 -126 19 -180.5t84 -83.5v-10h-406v10q60 29 77 83t17 181v381q0 138 -50 202.5t-152 64.5q-109 0 -185.5 -75
t-105.5 -190v-383q0 -125 20 -180t86 -84v-10h-424z" />
    <glyph glyph-name="i" unicode="i" horiz-adv-x="522" 
d="M51 0v10q66 30 86.5 84.5t20.5 179.5v457q0 131 -19 182.5t-86 81.5v11l164 2l150 8v-742q0 -126 19 -180.5t85 -83.5v-10h-420zM152 1253v232h213v-232h-213z" />
    <glyph glyph-name="j" unicode="j" horiz-adv-x="524" 
d="M-41 -438q122 14 167.5 87.5t45.5 227.5v854q0 130 -19 182t-85 82v11l163 2l148 8v-1094q0 -194 -107.5 -305.5t-312.5 -118.5v64zM152 1253v232h213v-232h-213z" />
    <glyph glyph-name="k" unicode="k" horiz-adv-x="1105" 
d="M850 0l-471 535v-261q0 -125 20 -180t86 -84v-10h-424v10q69 29 90 84t21 180v1049q0 107 -17.5 153.5t-74.5 73.5v9l307 45l10 -9q-18 -73 -18 -272v-733l303 252q38 32 60.5 63.5t24.5 53.5t-9 36v6h291v-14q-61 -19 -110.5 -47.5t-117.5 -85.5l-295 -242l568 -598v-14
h-244z" />
    <glyph glyph-name="l" unicode="l" horiz-adv-x="548" 
d="M61 0v10q69 29 90 84t21 180v1049q0 104 -19.5 151t-78.5 76v9l313 45l10 -9q-18 -77 -18 -272v-1049q0 -125 20 -180t86 -84v-10h-424z" />
    <glyph glyph-name="m" unicode="m" horiz-adv-x="1910" 
d="M68 0v10q65 29 83.5 83t18.5 181v453q0 133 -17.5 183.5t-82.5 80.5v10h346q-22 -31 -31 -79.5t-10 -149.5q49 117 147.5 190.5t233.5 73.5q265 0 303 -274q50 122 147.5 198t237.5 76q309 0 309 -370v-392q0 -126 18.5 -180.5t81.5 -83.5v-10h-397v10q58 29 75 83
t17 181v381q0 138 -48.5 202.5t-149.5 64.5q-107 0 -182 -74.5t-103 -188.5v-385q0 -126 18.5 -180.5t81.5 -83.5v-10h-397v10q58 29 75 83t17 181v381q0 138 -49 202.5t-149 64.5q-109 0 -185 -77t-102 -194v-377q0 -126 18 -180.5t80 -83.5v-10h-405z" />
    <glyph glyph-name="n" unicode="n" horiz-adv-x="1243" 
d="M68 0v10q66 29 85 83.5t19 180.5v453q0 131 -18.5 182.5t-83.5 81.5v10h352q-23 -30 -31 -78.5t-10 -152.5q51 118 150.5 192t238.5 74q315 0 315 -370v-392q0 -126 19 -180.5t84 -83.5v-10h-406v10q60 29 77.5 83.5t17.5 180.5v381q0 138 -50.5 202.5t-152.5 64.5
q-110 0 -187.5 -78t-105.5 -195v-375q0 -126 18.5 -180.5t81.5 -83.5v-10h-413z" />
    <glyph glyph-name="o" unicode="o" horiz-adv-x="1212" 
d="M606 -35q-238 0 -383 147.5t-145 389.5q0 241 145 387.5t383 146.5q239 0 384 -146t145 -388t-145 -389.5t-384 -147.5zM291 502q0 -217 83 -338t234 -121q149 0 232.5 121.5t83.5 337.5q0 215 -83.5 335.5t-232.5 120.5q-152 0 -234.5 -120t-82.5 -336z" />
    <glyph glyph-name="p" unicode="p" horiz-adv-x="1241" 
d="M51 -492v9q65 27 85 76.5t20 160.5v1002q0 116 -19.5 163t-85.5 74v8h350q-23 -30 -29.5 -79t-6.5 -166q47 128 143.5 203t239.5 75q193 0 304 -145.5t111 -374.5q0 -235 -121 -384.5t-319 -149.5q-116 0 -210 54.5t-148 153.5v-434q0 -113 19 -162t85 -75v-9h-418z
M365 279q40 -96 115.5 -150.5t170.5 -54.5q138 0 215.5 118t77.5 322q0 120 -28 212t-91 150t-155 58q-132 0 -212.5 -107.5t-92.5 -283.5v-264z" />
    <glyph glyph-name="q" unicode="q" horiz-adv-x="1251" 
d="M772 -492v9q66 26 85.5 75.5t19.5 161.5v514q-47 -133 -142 -209.5t-237 -76.5q-131 0 -227 68.5t-144.5 184.5t-48.5 263q0 237 121.5 385.5t322.5 148.5q116 0 207.5 -51.5t144.5 -144.5q-3 118 -28 165h342v-8q-65 -27 -84 -73.5t-19 -163.5v-1002q0 -112 19.5 -161
t83.5 -76v-9h-416zM299 498q0 -120 27.5 -211t90.5 -148t156 -57q132 0 212 107t92 280v268v4q-37 90 -115 145.5t-170 55.5q-138 0 -215.5 -119.5t-77.5 -324.5z" />
    <glyph glyph-name="r" unicode="r" horiz-adv-x="831" 
d="M70 0v10q65 29 84.5 84t19.5 180v453q0 130 -19 182t-85 82v10h352q-24 -33 -31.5 -88.5t-7.5 -185.5v-47q13 60 45.5 116.5t83 106t126 80t163.5 31.5v-176q-212 8 -314 -78.5t-104 -231.5v-266q0 -120 22 -172.5t97 -81.5v-8h-432z" />
    <glyph glyph-name="s" unicode="s" horiz-adv-x="1007" 
d="M539 -35q-200 0 -328 100.5t-148 270.5h189q12 -138 86 -216.5t203 -78.5q96 0 154.5 42.5t58.5 115.5q0 32 -12.5 59t-35.5 48t-59 41.5t-78.5 39.5t-98.5 43l-15 6q-50 21 -78 33.5t-70 33.5t-65.5 37.5t-51.5 41.5t-42.5 50.5t-24.5 58.5t-10 71q0 128 105 201t276 73
q176 0 289.5 -82.5t142.5 -230.5h-189q-14 110 -77.5 175t-172.5 65q-89 0 -141.5 -39t-52.5 -105q0 -74 64 -120.5t221 -108.5q90 -36 145.5 -63.5t109 -67.5t78.5 -90.5t25 -114.5q0 -138 -111.5 -213.5t-285.5 -75.5z" />
    <glyph glyph-name="t" unicode="t" horiz-adv-x="827" 
d="M506 -20q-289 0 -289 337v603h-207v81h207v275l203 151h6v-426h334v-81h-334v-598q0 -122 41 -171t119 -49q141 0 217 164l22 -57q-47 -110 -130.5 -169.5t-188.5 -59.5z" />
    <glyph glyph-name="u" unicode="u" horiz-adv-x="1245" 
d="M475 -33q-315 0 -315 371v389q0 124 -19.5 179t-83.5 85v10h404v-10q-58 -29 -75 -83t-17 -181v-373q0 -141 48.5 -204.5t151.5 -63.5q114 0 191.5 85.5t101.5 221.5v334q0 126 -18 180.5t-78 83.5v10h410v-10q-66 -29 -85.5 -83.5t-19.5 -180.5v-453q0 -131 19 -182.5
t86 -81.5v-10h-345q18 32 24.5 85.5t6.5 170.5q-48 -126 -148 -207.5t-239 -81.5z" />
    <glyph glyph-name="v" unicode="v" horiz-adv-x="1085" 
d="M174 748q-44 116 -74.5 167.5t-81.5 75.5v10h385v-10q-55 -22 -55.5 -76.5t41.5 -160.5l207 -572l209 572q42 103 41 159.5t-55 77.5v10h274v-10q-46 -20 -81.5 -74t-78.5 -163l-217 -559q-57 -138 -57 -195h-164z" />
    <glyph glyph-name="w" unicode="w" horiz-adv-x="1591" 
d="M162 788q-37 100 -66.5 145t-77.5 58v10h402v-10q-42 -9 -58 -31.5t-13 -58t24 -96.5l194 -572l234 725h108l240 -731l190 572q33 87 25 133t-70 59v10h279v-10q-46 -22 -75.5 -63.5t-59.5 -128.5l-246 -695q-24 -77 -27 -104h-129l-239 729l-197 -618q-24 -67 -29 -111
h-129z" />
    <glyph glyph-name="x" unicode="x" horiz-adv-x="1075" 
d="M670 10q42 19 41 59.5t-49 108.5l-175 242l-170 -240q-91 -131 -20 -170v-10h-285v10q104 43 203 174l223 303l-239 330q-57 80 -94 116.5t-89 57.5v10h392v-10q-42 -19 -41 -59.5t49 -108.5l164 -225l161 223q92 129 21 170v10h282v-10q-105 -46 -202 -174l-215 -287
l252 -346q54 -77 93.5 -115t90.5 -59v-10h-393v10z" />
    <glyph glyph-name="y" unicode="y" horiz-adv-x="1075" 
d="M154 -500q-78 0 -134 29v170q65 -37 156 -37q114 0 197 78.5t157 259.5h-65l-291 748q-46 117 -76 168t-80 75v10h383v-10q-24 -9 -36.5 -23.5t-17 -30.5t1 -46.5t14 -58t26.5 -78.5l209 -580l211 580q41 103 40 159.5t-58 77.5v10h274v-10q-44 -19 -80 -75.5t-78 -161.5
l-291 -754q-106 -269 -209 -384.5t-253 -115.5z" />
    <glyph glyph-name="z" unicode="z" horiz-adv-x="966" 
d="M59 0v61l609 865h-224q-159 0 -385 -80v155h838v-61l-606 -864h231q186 0 385 90v-166h-848z" />
    <glyph glyph-name="braceleft" unicode="{" horiz-adv-x="747" 
d="M676 -281q-282 0 -386.5 122t-62.5 382q19 108 19 186.5t-14.5 124.5t-46.5 73.5t-68 36.5t-86 9v74q50 0 86 9.5t68 37t46.5 74.5t14.5 126t-19 187q-42 259 62.5 380.5t386.5 121.5v-76q-136 0 -198 -44.5t-66.5 -137t20.5 -234.5q14 -81 15 -148.5t-9 -115t-30.5 -85
t-45 -60.5t-56.5 -38t-62 -21.5t-64 -8.5v-2q34 -2 63.5 -8.5t61.5 -22t57 -38.5t45.5 -60.5t30.5 -85.5t9.5 -116t-15.5 -150q-25 -142 -20.5 -234.5t66.5 -137t198 -44.5v-76z" />
    <glyph glyph-name="bar" unicode="|" horiz-adv-x="464" 
d="M190 -244v1997h84v-1997h-84z" />
    <glyph glyph-name="braceright" unicode="}" horiz-adv-x="747" 
d="M72 -205q136 0 197.5 44.5t66 137t-20.5 234.5q-15 82 -15.5 150t9.5 116t30.5 85.5t45.5 60.5t57 38.5t61.5 22t63.5 8.5v2q-34 2 -64 8.5t-62 21.5t-56.5 38t-45 60.5t-30.5 85t-9 115t15 148.5q25 142 20.5 234.5t-66 137t-197.5 44.5v76q281 0 385.5 -121.5
t62.5 -380.5q-19 -108 -19 -187t15 -126t46.5 -74.5t68 -37t86.5 -9.5v-74q-50 0 -86.5 -9t-68 -36.5t-46.5 -73.5t-15 -124.5t19 -186.5q42 -261 -62 -382.5t-386 -121.5v76z" />
    <glyph glyph-name="asciitilde" unicode="~" horiz-adv-x="1185" 
d="M111 383q0 143 68 220t183 77q59 0 110.5 -21t90.5 -51t77 -59.5t85.5 -50.5t99.5 -21q82 0 120 56t38 147h92q0 -144 -67.5 -220.5t-182.5 -76.5q-61 0 -114 20.5t-91.5 50.5t-76 59.5t-83.5 50t-98 20.5q-84 0 -121.5 -55t-37.5 -146h-92z" />
    <glyph glyph-name="exclamdown" unicode="&#xa1;" horiz-adv-x="555" 
d="M233 575h89l75 -1103h-239zM174 780v242h207v-242h-207z" />
    <glyph glyph-name="cent" unicode="&#xa2;" horiz-adv-x="1200" 
d="M401 -330l66 316q-166 41 -265.5 177.5t-99.5 338.5q0 166 69 289.5t186.5 186t265.5 62.5q25 0 65 -4l66 316h61l-67 -324q147 -31 237.5 -130.5t108.5 -235.5h-185q-35 226 -180 282l-176 -842q53 -16 111 -16q142 0 230 88.5t122 243.5h86q-32 -202 -160.5 -325.5
t-337.5 -123.5q-28 0 -78 4l-63 -303h-62zM313 543q0 -144 46.5 -254t138.5 -162l174 834q-7 0 -22 1t-23 1q-151 0 -232.5 -115t-81.5 -305z" />
    <glyph glyph-name="sterling" unicode="&#xa3;" horiz-adv-x="1470" 
d="M283 -31q-106 0 -167 52t-61 139q0 84 56 136t153 52q71 0 130 -24t128 -72q21 67 21 151q0 133 -66 279h-356v61h325q-7 14 -33.5 64.5t-36 69.5t-28.5 64t-27 74.5t-15 71t-7 82.5q0 185 130.5 294.5t346.5 109.5q223 0 367 -124.5t176 -352.5h-199q-38 401 -327 401
q-130 0 -200.5 -71.5t-70.5 -206.5q0 -73 19 -147t57 -175.5t53 -153.5h740v-61h-721q26 -110 26 -217q0 -167 -67 -289q138 -86 268 -86q297 0 297 424h197q0 -269 -123.5 -405t-331.5 -136q-175 0 -356 131q-116 -135 -297 -135zM121 158q0 -58 39 -88.5t108 -30.5
q73 0 129.5 36t91.5 99q-66 49 -118.5 73.5t-114.5 24.5q-66 0 -100.5 -30t-34.5 -84z" />
    <glyph glyph-name="currency" unicode="&#xa4;" horiz-adv-x="1144" 
d="M573 319q-144 0 -251 80l-168 -170l-50 52l166 165q-90 107 -90 256q0 151 92 254l-168 166l50 49l168 -167q105 79 251 79q148 0 250 -79l168 167l51 -49l-168 -166q91 -105 91 -254q0 -148 -91 -253l168 -168l-51 -52l-168 170q-107 -80 -250 -80zM264 702
q0 -134 86.5 -221.5t222.5 -87.5q133 0 220.5 87.5t87.5 221.5t-87.5 221t-220.5 87q-136 0 -222.5 -87t-86.5 -221z" />
    <glyph glyph-name="yen" unicode="&#xa5;" horiz-adv-x="1443" 
d="M111 690v62h473l-361 632q-40 72 -72.5 105t-87.5 51v10h459v-10q-111 -30 -45 -162l311 -577l302 577q16 31 23 54.5t5 46t-18.5 38t-48.5 23.5v10h313v-10q-49 -18 -86 -54t-74 -106l-336 -628h480v-62h-504v-155h504v-62h-504v-199q0 -125 22 -180t95 -84v-10h-465v10
q73 29 94.5 83.5t21.5 180.5v199h-501v62h501v155h-501z" />
    <glyph glyph-name="brokenbar" unicode="&#xa6;" horiz-adv-x="464" 
d="M190 -244v791h84v-791h-84zM190 969v784h84v-784h-84z" />
    <glyph glyph-name="section" unicode="&#xa7;" horiz-adv-x="1267" 
d="M623 -354q-193 0 -328.5 104t-175.5 307h174q10 -69 34.5 -128.5t64.5 -108t101 -76t136 -27.5q104 0 165.5 54t61.5 145q0 49 -20.5 91.5t-68.5 87t-103.5 84.5t-147.5 103q-13 9 -20 13q-115 78 -183 130.5t-122.5 109.5t-76.5 111t-22 118q0 110 66 183.5t176 107.5
q-76 94 -76 209q0 144 103 225.5t272 81.5q174 0 296.5 -98.5t162.5 -288.5h-170q-21 139 -94.5 228t-202.5 89q-102 0 -159.5 -51.5t-57.5 -136.5q0 -27 5 -51t20 -49t28 -44t43 -46t50 -44t64 -49t69.5 -49.5t82.5 -56.5q93 -64 148.5 -105t111 -89.5t83.5 -88.5
t45.5 -87.5t17.5 -100.5q0 -109 -66.5 -182.5t-175.5 -108.5q70 -91 70 -199q0 -147 -105.5 -232t-275.5 -85zM248 811q0 -90 75.5 -167t286.5 -218q195 -133 269 -205q66 24 102.5 71.5t36.5 113.5q0 91 -75.5 167.5t-285.5 217.5q-194 132 -270 204q-66 -22 -102.5 -69
t-36.5 -115z" />
    <glyph glyph-name="dieresis" unicode="&#xa8;" horiz-adv-x="724" 
d="M444 1247v223h179v-223h-179zM102 1247v223h181v-223h-181z" />
    <glyph glyph-name="copyright" unicode="&#xa9;" horiz-adv-x="1712" 
d="M856 -27q-223 0 -391.5 96t-261 278t-92.5 427q0 370 203 586.5t542 216.5t541 -216.5t202 -586.5t-202 -585.5t-541 -215.5zM176 774q0 -344 185.5 -544.5t494.5 -200.5t493.5 200.5t184.5 544.5t-184.5 546t-493.5 202t-494.5 -202t-185.5 -546zM535 778
q0 190 91.5 301t241.5 111q113 0 194 -71.5t105 -211.5h-112q-13 107 -63 168.5t-122 61.5q-97 0 -152.5 -93.5t-55.5 -246.5t58 -247.5t171 -94.5q97 0 158 73.5t79 204.5h54q-21 -169 -106.5 -268.5t-219.5 -99.5q-152 0 -236.5 113.5t-84.5 299.5z" />
    <glyph glyph-name="ordfeminine" unicode="&#xaa;" horiz-adv-x="917" 
d="M307 897q-90 0 -144 44t-54 124q0 31 9 56t29.5 44.5t41 33t58 27t65 21.5t75.5 21q101 25 141.5 50.5t40.5 82.5q0 53 -31 80.5t-89 27.5q-69 0 -118 -45.5t-50 -136.5h-142q3 78 50.5 133.5t118 81t153.5 25.5q117 0 187.5 -52.5t70.5 -166.5v-271q0 -106 61 -106
q27 0 51 18l3 -39q-53 -47 -121 -47q-63 0 -103.5 41t-40.5 129v10q-33 -84 -99.5 -135t-162.5 -51zM135 731v62h658v-62h-658zM256 1085q0 -47 31.5 -70.5t81.5 -23.5q90 0 145 73t55 187v54q-16 -25 -50.5 -42.5t-100.5 -39.5q-85 -27 -123.5 -55t-38.5 -83z" />
    <glyph glyph-name="guillemotleft" unicode="&#xab;" horiz-adv-x="1038" 
d="M559 88l-475 363v79l475 365v-84l-323 -317v-7l323 -317v-82zM453 451v79l475 365v-84l-324 -317v-7l324 -317v-82z" />
    <glyph glyph-name="logicalnot" unicode="&#xac;" horiz-adv-x="1167" 
d="M934 152v440h-823v88l921 2v-530h-98z" />
    <glyph glyph-name="registered" unicode="&#xae;" horiz-adv-x="815" 
d="M510 1075l-113 148h-32v-80q0 -31 8 -43.5t37 -18.5v-6h-144v6q25 6 32 18.5t7 43.5v182q0 38 -6.5 51.5t-32.5 22.5v6h146q69 0 103 -20.5t34 -71.5q0 -72 -96 -88l137 -144v-6h-80zM88 1239q0 139 90 227t230 88t229.5 -88t89.5 -227t-89.5 -227t-229.5 -88t-230 88
t-90 227zM137 1239q0 -123 73 -197.5t198 -74.5q124 0 197 75t73 197t-73 197t-197 75q-125 0 -198 -74.5t-73 -197.5zM360 1247h48q81 0 81 68q0 63 -81 63h-48v-131z" />
    <glyph glyph-name="macron" unicode="&#xaf;" horiz-adv-x="854" 
d="M102 1251v84h650v-84h-650z" />
    <glyph glyph-name="degree" unicode="&#xb0;" horiz-adv-x="815" 
d="M408 926q-151 0 -246.5 91t-95.5 236q0 147 95 237.5t247 90.5t248 -90.5t96 -237.5q0 -144 -96.5 -235.5t-247.5 -91.5zM215 1253q0 -129 50 -197.5t143 -68.5q91 0 141.5 69t50.5 197t-50.5 197.5t-141.5 69.5q-92 0 -142.5 -69t-50.5 -198z" />
    <glyph glyph-name="plusminus" unicode="&#xb1;" horiz-adv-x="1185" 
d="M131 0v86h412v399h-412v90h414v443h96v-443h412v-88h-414v-401h416v-86h-924z" />
    <glyph glyph-name="uni00B2" unicode="&#xb2;" horiz-adv-x="882" 
d="M72 944q0 63 23 118t67.5 100t89 77.5t106.5 67.5q71 40 113 68.5t81 64.5t56 76.5t17 89.5q0 82 -47.5 129t-131.5 47q-113 0 -173 -80t-58 -215h-152q8 155 115.5 257.5t286.5 102.5q147 0 237.5 -66t90.5 -186q0 -36 -11 -68t-26 -56.5t-45 -50t-53 -42t-66.5 -39
t-68.5 -34t-75 -33.5q-12 -5 -18 -8q-110 -52 -177 -103.5t-79 -113.5h647v-125h-749v22z" />
    <glyph glyph-name="uni00B3" unicode="&#xb3;" horiz-adv-x="880" 
d="M444 901q-176 0 -276 88.5t-109 241.5h74q6 -120 80.5 -185t194.5 -65q118 0 181.5 58t63.5 147q0 184 -256 184h-80v53h80q111 0 171.5 54.5t60.5 140.5q0 72 -47.5 117t-139.5 45q-100 0 -162 -57.5t-69 -161.5h-148q15 132 124 209t274 77q155 0 243.5 -63t88.5 -164
q0 -91 -73.5 -148t-199.5 -69q146 -9 227.5 -66.5t81.5 -160.5q0 -117 -106 -196t-279 -79z" />
    <glyph glyph-name="acute" unicode="&#xb4;" horiz-adv-x="589" 
d="M102 1186l203 362h182l-331 -362h-54z" />
    <glyph glyph-name="uni00B5" unicode="&#xb5;" horiz-adv-x="1234" 
d="M311 -412q-170 137 -170 398v741q0 126 -18 180.5t-78 83.5v10h397v-10q-59 -29 -76.5 -84t-17.5 -180v-373q0 -141 49.5 -205.5t153.5 -64.5q113 0 190 91.5t103 232.5v319q0 126 -18 180.5t-78 83.5v10h399v-10q-60 -29 -78 -83.5t-18 -180.5v-479q0 -164 96 -164
q47 0 88 35l2 -58q-85 -75 -190 -75q-88 0 -144.5 62.5t-56.5 184.5v31q-42 -128 -132 -212.5t-216 -84.5q-102 0 -168 56v-82q0 -127 16.5 -207.5t54.5 -145.5h-90z" />
    <glyph glyph-name="paragraph" unicode="&#xb6;" horiz-adv-x="1382" 
d="M561 668q-85 0 -158.5 14t-139.5 46.5t-113 82.5t-74 125.5t-27 171.5t27 172.5t74 126t113 82.5t139.5 47t158.5 14h770v-73h-244v-1760h-81v1760h-242v-1760h-82v951h-121z" />
    <glyph glyph-name="periodcentered" unicode="&#xb7;" horiz-adv-x="444" 
d="M119 406v241h205v-241h-205z" />
    <glyph glyph-name="cedilla" unicode="&#xb8;" horiz-adv-x="720" 
d="M373 -498q-87 0 -159 32t-112 93l41 41q29 -46 81 -73t120 -27q64 0 104.5 25.5t40.5 80.5q0 52 -38 80.5t-103 28.5q-53 0 -94 -16l-33 34l150 201h80l-105 -139q32 4 57 4q96 0 155.5 -47.5t59.5 -128.5q0 -64 -38.5 -108.5t-91.5 -62.5t-115 -18z" />
    <glyph glyph-name="uni00B9" unicode="&#xb9;" horiz-adv-x="628" 
d="M152 922v6q69 24 89.5 66t20.5 139v487q-27 -46 -89 -89t-142 -50v100q113 7 197 82t98 172h106v-702q0 -98 18.5 -139.5t81.5 -65.5v-6h-380z" />
    <glyph glyph-name="ordmasculine" unicode="&#xba;" horiz-adv-x="888" 
d="M444 891q-156 0 -252 92t-96 248q0 152 96 244t252 92q155 0 252 -92.5t97 -243.5q0 -154 -97 -247t-252 -93zM139 731v62h613v-62h-613zM246 1231q0 -131 52 -206t146 -75t146.5 75.5t52.5 205.5q0 127 -52.5 201.5t-146.5 74.5t-146 -74t-52 -202z" />
    <glyph glyph-name="guillemotright" unicode="&#xbb;" horiz-adv-x="1038" 
d="M479 88v82l324 317v7l-324 317v84l475 -365v-79zM113 88v82l323 317v7l-323 317v84l475 -365v-79z" />
    <glyph glyph-name="onequarter" unicode="&#xbc;" horiz-adv-x="1765" 
d="M152 653v6q69 24 89.5 66t20.5 139v488q-27 -46 -89 -89.5t-142 -50.5v101q113 7 197 82t98 172h106v-703q0 -98 18.5 -139.5t81.5 -65.5v-6h-380zM147 0l1176 1550h104l-1175 -1550h-105zM862 217v78l545 614h131v-583h191v-109h-191v-59q0 -64 16.5 -96.5t67.5 -53.5
v-10h-338v10q51 21 67.5 53.5t16.5 98.5v57h-506zM971 326h397v452z" />
    <glyph glyph-name="onehalf" unicode="&#xbd;" horiz-adv-x="1828" 
d="M152 653v6q69 24 89.5 66t20.5 139v488q-27 -46 -89 -89.5t-142 -50.5v101q113 7 197 82t98 172h106v-703q0 -98 18.5 -139.5t81.5 -65.5v-6h-380zM147 0l1176 1550h104l-1175 -1550h-105zM1010 565q8 155 115.5 258t285.5 103q147 0 237.5 -66t90.5 -186
q0 -61 -25 -109.5t-87.5 -90.5t-102.5 -63t-133 -62q-10 -5 -15 -7q-110 -52 -177 -103.5t-79 -113.5h647v-125h-749v23q0 63 23.5 118t68 99.5t89 76.5t106.5 68q142 80 204 142.5t62 156.5q0 82 -47 129t-131 47q-113 0 -173.5 -80t-58.5 -215h-151z" />
    <glyph glyph-name="threequarters" unicode="&#xbe;" horiz-adv-x="2017" 
d="M444 633q-176 0 -276 88.5t-109 241.5h74q6 -120 80.5 -185t194.5 -65q118 0 181.5 58t63.5 147q0 184 -256 184h-80v53h80q111 0 171.5 54.5t60.5 140.5q0 72 -47 116.5t-140 44.5q-100 0 -162 -57.5t-69 -161.5h-148q15 132 124 209.5t274 77.5q155 0 243.5 -63
t88.5 -164q0 -91 -73.5 -148t-199.5 -69q146 -9 227.5 -67t81.5 -161q0 -117 -106 -195.5t-279 -78.5zM399 0l1176 1550h104l-1175 -1550h-105zM1114 217v78l545 614h131v-583h190v-109h-190v-59q0 -64 16.5 -96.5t67.5 -53.5v-10h-338v10q51 21 67.5 53.5t16.5 98.5v57
h-506zM1223 326h397v452z" />
    <glyph glyph-name="questiondown" unicode="&#xbf;" horiz-adv-x="1052" 
d="M692 575q43 -100 43 -169q0 -57 -26 -107t-68 -88.5t-92.5 -75.5t-100.5 -75t-92 -78.5t-68 -94.5t-26 -116q0 -100 60.5 -165t171.5 -65q144 0 224.5 104.5t86.5 293.5h196q-13 -232 -159 -362t-375 -130q-196 0 -311 91t-115 239q0 73 31.5 133.5t82 101.5t111.5 77
t122.5 68t112 65t82 77.5t31.5 97.5q0 40 -22 82t-64 96h164zM489 780v242h207v-242h-207z" />
    <glyph glyph-name="Agrave" unicode="&#xc0;" horiz-adv-x="1536" 
d="M2 8q69 32 116 83.5t83 150.5l430 1167q30 82 -6 141h241l494 -1317q36 -96 74 -146t100 -77v-10h-508v8q80 29 98 81t-14 142l-92 269h-612l-95 -264q-35 -101 -20.5 -151t86.5 -79v-6h-375v8zM393 1980h203l188 -288h-71zM436 582h553l-272 782z" />
    <glyph glyph-name="Aacute" unicode="&#xc1;" horiz-adv-x="1536" 
d="M2 8q69 32 116 83.5t83 150.5l430 1167q30 82 -6 141h241l494 -1317q36 -96 74 -146t100 -77v-10h-508v8q80 29 98 81t-14 142l-92 269h-612l-95 -264q-35 -101 -20.5 -151t86.5 -79v-6h-375v8zM436 582h553l-272 782zM713 1692l188 288h203l-320 -288h-71z" />
    <glyph glyph-name="Acircumflex" unicode="&#xc2;" horiz-adv-x="1536" 
d="M2 8q69 32 116 83.5t83 150.5l430 1167q30 82 -6 141h241l494 -1317q36 -96 74 -146t100 -77v-10h-508v8q80 29 98 81t-14 142l-92 269h-612l-95 -264q-35 -101 -20.5 -151t86.5 -79v-6h-375v8zM434 1692l266 288h101l266 -288h-88l-227 184l-230 -184h-88zM436 582h553
l-272 782z" />
    <glyph glyph-name="Atilde" unicode="&#xc3;" horiz-adv-x="1536" 
d="M2 8q69 32 116 83.5t83 150.5l430 1167q30 82 -6 141h241l494 -1317q36 -96 74 -146t100 -77v-10h-508v8q80 29 98 81t-14 142l-92 269h-612l-95 -264q-35 -101 -20.5 -151t86.5 -79v-6h-375v8zM432 1706q0 141 48 211t134 70q44 0 79.5 -18t58.5 -44.5t44.5 -52.5
t50 -44t62.5 -18q51 0 71.5 37.5t23.5 122.5h63q0 -280 -176 -280q-46 0 -83 18.5t-60.5 44.5t-45 52t-49 44.5t-61.5 18.5q-52 0 -73 -41t-23 -121h-64zM436 582h553l-272 782z" />
    <glyph glyph-name="Adieresis" unicode="&#xc4;" horiz-adv-x="1536" 
d="M2 8q69 32 116 83.5t83 150.5l430 1167q30 82 -6 141h241l494 -1317q36 -96 74 -146t100 -77v-10h-508v8q80 29 98 81t-14 142l-92 269h-612l-95 -264q-35 -101 -20.5 -151t86.5 -79v-6h-375v8zM436 582h553l-272 782zM473 1724v215h174v-215h-174zM852 1724v215h174
v-215h-174z" />
    <glyph glyph-name="Aring" unicode="&#xc5;" horiz-adv-x="1536" 
d="M2 8q69 32 116 83.5t83 150.5l430 1167q30 82 -6 141h241l494 -1317q36 -96 74 -146t100 -77v-10h-508v8q80 29 98 81t-14 142l-92 269h-612l-95 -264q-35 -101 -20.5 -151t86.5 -79v-6h-375v8zM436 582h553l-272 782zM541 1855q0 86 58 139.5t153 53.5q94 0 152.5 -53.5
t58.5 -139.5t-58.5 -138t-152.5 -52q-95 0 -153 52t-58 138zM606 1855q0 -61 40.5 -99t105.5 -38q64 0 103.5 37.5t39.5 99.5q0 63 -39.5 101.5t-103.5 38.5q-65 0 -105.5 -38.5t-40.5 -101.5z" />
    <glyph glyph-name="AE" unicode="&#xc6;" horiz-adv-x="1941" 
d="M-100 10q66 30 115.5 88t109.5 170l706 1266l-14 6v10h1028v-190q-188 58 -299.5 83t-204.5 25h-180v-618h115q135 0 463 16v-110q-262 16 -463 16h-115v-690l225 2q110 1 227.5 31t276.5 90v-205h-1073v10q72 30 94.5 85t22.5 179v246h-547l-137 -252
q-61 -115 -64.5 -171t52.5 -87v-10h-338v10zM432 604h502v672q0 123 -19 176h-22z" />
    <glyph glyph-name="Ccedilla" unicode="&#xc7;" horiz-adv-x="1701" 
d="M874 -500q-87 0 -158.5 32t-111.5 93l41 41q29 -46 81 -73t120 -27q64 0 104.5 25.5t40.5 80.5q0 52 -38 80.5t-103 28.5q-50 0 -94 -17l-33 35l129 172q-178 3 -324.5 66t-243 170t-149.5 251t-53 310q0 178 60 328t165.5 254t254.5 162.5t323 58.5q280 0 477.5 -142.5
t263.5 -412.5h-225q-45 217 -179.5 343t-334.5 126q-128 0 -234.5 -54t-177.5 -146.5t-110 -216.5t-39 -265q0 -145 38 -268.5t110.5 -218t187 -148t258.5 -53.5q252 0 412 147.5t204 403.5h102q-43 -302 -228 -487.5t-478 -205.5l-84 -112q32 4 57 4q96 0 155.5 -47.5
t59.5 -128.5q0 -64 -38.5 -108.5t-92 -62.5t-115.5 -18z" />
    <glyph glyph-name="Egrave" unicode="&#xc8;" horiz-adv-x="1226" 
d="M102 0v10q72 30 94.5 85t22.5 179v1002q0 130 -22 182t-95 82v10h1028v-190q-189 58 -299.5 83t-203.5 25h-181v-618h115q135 0 463 16v-110q-262 16 -463 16h-115v-690l226 2q110 1 227.5 31t276.5 90v-205h-1074zM289 1980h203l188 -288h-72z" />
    <glyph glyph-name="Eacute" unicode="&#xc9;" horiz-adv-x="1226" 
d="M102 0v10q72 30 94.5 85t22.5 179v1002q0 130 -22 182t-95 82v10h1028v-190q-189 58 -299.5 83t-203.5 25h-181v-618h115q135 0 463 16v-110q-262 16 -463 16h-115v-690l226 2q110 1 227.5 31t276.5 90v-205h-1074zM608 1692l189 288h202l-319 -288h-72z" />
    <glyph glyph-name="Ecircumflex" unicode="&#xca;" horiz-adv-x="1226" 
d="M102 0v10q72 30 94.5 85t22.5 179v1002q0 130 -22 182t-95 82v10h1028v-190q-189 58 -299.5 83t-203.5 25h-181v-618h115q135 0 463 16v-110q-262 16 -463 16h-115v-690l226 2q110 1 227.5 31t276.5 90v-205h-1074zM330 1692l266 288h100l267 -288h-89l-227 184
l-229 -184h-88z" />
    <glyph glyph-name="Edieresis" unicode="&#xcb;" horiz-adv-x="1226" 
d="M102 0v10q72 30 94.5 85t22.5 179v1002q0 130 -22 182t-95 82v10h1028v-190q-189 58 -299.5 83t-203.5 25h-181v-618h115q135 0 463 16v-110q-262 16 -463 16h-115v-690l226 2q110 1 227.5 31t276.5 90v-205h-1074zM369 1724v215h174v-215h-174zM748 1724v215h174v-215
h-174z" />
    <glyph glyph-name="Igrave" unicode="&#xcc;" horiz-adv-x="665" 
d="M100 0v10q74 30 96.5 85t22.5 179v1002q0 130 -22 182t-97 82v10h463v-10q-74 -30 -95.5 -81.5t-21.5 -182.5v-1002q0 -125 22 -180t95 -84v-10h-463zM-25 1970h203l189 -289h-72z" />
    <glyph glyph-name="Iacute" unicode="&#xcd;" horiz-adv-x="665" 
d="M100 0v10q74 30 96.5 85t22.5 179v1002q0 130 -22 182t-97 82v10h463v-10q-74 -30 -95.5 -81.5t-21.5 -182.5v-1002q0 -125 22 -180t95 -84v-10h-463zM295 1681l188 289h203l-319 -289h-72z" />
    <glyph glyph-name="Icircumflex" unicode="&#xce;" horiz-adv-x="665" 
d="M100 0v10q74 30 96.5 85t22.5 179v1002q0 130 -22 182t-97 82v10h463v-10q-74 -30 -95.5 -81.5t-21.5 -182.5v-1002q0 -125 22 -180t95 -84v-10h-463zM16 1681l267 289h100l266 -289h-88l-227 185l-230 -185h-88z" />
    <glyph glyph-name="Idieresis" unicode="&#xcf;" horiz-adv-x="665" 
d="M100 0v10q74 30 96.5 85t22.5 179v1002q0 130 -22 182t-97 82v10h463v-10q-74 -30 -95.5 -81.5t-21.5 -182.5v-1002q0 -125 22 -180t95 -84v-10h-463zM55 1714v215h174v-215h-174zM434 1714v215h174v-215h-174z" />
    <glyph glyph-name="Eth" unicode="&#xd0;" horiz-adv-x="1705" 
d="M102 0v10q72 30 94.5 85t22.5 179v492h-178v76h178v434q0 130 -22 182t-95 82v10h617q419 0 661 -203t242 -573q0 -361 -242 -567.5t-661 -206.5h-617zM446 82h259q307 0 491 183.5t184 508.5q0 335 -182.5 514.5t-492.5 179.5h-259v-626h494v-76h-494v-684z" />
    <glyph glyph-name="Ntilde" unicode="&#xd1;" horiz-adv-x="1546" 
d="M1143 0l-832 1298v-1011q0 -131 25.5 -188.5t109.5 -88.5v-10h-346v10q67 31 87 88t20 189v989q0 130 -12.5 182t-55.5 82v10h262l834 -1300v1014q0 132 -23.5 188.5t-103.5 87.5v10h340v-10q-68 -31 -88.5 -88t-20.5 -188v-1264h-196zM467 1706q0 141 48 211t134 70
q44 0 79.5 -18t58.5 -44.5t44.5 -52.5t50 -44t62.5 -18q51 0 71 37t23 123h64q0 -280 -176 -280q-46 0 -83 18.5t-60.5 44.5t-45 52t-49 44.5t-61.5 18.5q-52 0 -73.5 -41t-23.5 -121h-63z" />
    <glyph glyph-name="Ograve" unicode="&#xd2;" horiz-adv-x="1826" 
d="M915 -35q-244 0 -434 101t-294.5 284.5t-104.5 421.5q0 177 61 326.5t170 254t264 162.5t338 58q181 0 335.5 -58t263.5 -162.5t170 -254.5t61 -328q0 -237 -105 -420.5t-294 -284t-431 -100.5zM326 770q0 -210 69.5 -372t204 -254.5t315.5 -92.5q179 0 313 92.5
t203.5 255t69.5 373.5q0 209 -69.5 371t-203.5 254t-313 92q-181 0 -315.5 -92.5t-204 -254.5t-69.5 -372zM557 1980h203l188 -288h-71z" />
    <glyph glyph-name="Oacute" unicode="&#xd3;" horiz-adv-x="1826" 
d="M915 -35q-244 0 -434 101t-294.5 284.5t-104.5 421.5q0 177 61 326.5t170 254t264 162.5t338 58q181 0 335.5 -58t263.5 -162.5t170 -254.5t61 -328q0 -237 -105 -420.5t-294 -284t-431 -100.5zM326 770q0 -210 69.5 -372t204 -254.5t315.5 -92.5q179 0 313 92.5
t203.5 255t69.5 373.5q0 209 -69.5 371t-203.5 254t-313 92q-181 0 -315.5 -92.5t-204 -254.5t-69.5 -372zM877 1692l188 288h203l-320 -288h-71z" />
    <glyph glyph-name="Ocircumflex" unicode="&#xd4;" horiz-adv-x="1826" 
d="M915 -35q-244 0 -434 101t-294.5 284.5t-104.5 421.5q0 177 61 326.5t170 254t264 162.5t338 58q181 0 335.5 -58t263.5 -162.5t170 -254.5t61 -328q0 -237 -105 -420.5t-294 -284t-431 -100.5zM326 770q0 -210 69.5 -372t204 -254.5t315.5 -92.5q179 0 313 92.5
t203.5 255t69.5 373.5q0 209 -69.5 371t-203.5 254t-313 92q-181 0 -315.5 -92.5t-204 -254.5t-69.5 -372zM598 1692l266 288h101l266 -288h-88l-228 184l-229 -184h-88z" />
    <glyph glyph-name="Otilde" unicode="&#xd5;" horiz-adv-x="1826" 
d="M915 -35q-244 0 -434 101t-294.5 284.5t-104.5 421.5q0 177 61 326.5t170 254t264 162.5t338 58q181 0 335.5 -58t263.5 -162.5t170 -254.5t61 -328q0 -237 -105 -420.5t-294 -284t-431 -100.5zM326 770q0 -210 69.5 -372t204 -254.5t315.5 -92.5q179 0 313 92.5
t203.5 255t69.5 373.5q0 209 -69.5 371t-203.5 254t-313 92q-181 0 -315.5 -92.5t-204 -254.5t-69.5 -372zM596 1706q0 141 48 211t134 70q44 0 79.5 -18t58.5 -44.5t44.5 -52.5t50 -44t62.5 -18q51 0 71 37t23 123h64q0 -280 -176 -280q-46 0 -83 18.5t-60.5 44.5t-45 52
t-49 44.5t-61.5 18.5q-52 0 -73.5 -41t-23.5 -121h-63z" />
    <glyph glyph-name="Odieresis" unicode="&#xd6;" horiz-adv-x="1826" 
d="M915 -35q-244 0 -434 101t-294.5 284.5t-104.5 421.5q0 177 61 326.5t170 254t264 162.5t338 58q181 0 335.5 -58t263.5 -162.5t170 -254.5t61 -328q0 -237 -105 -420.5t-294 -284t-431 -100.5zM326 770q0 -210 69.5 -372t204 -254.5t315.5 -92.5q179 0 313 92.5
t203.5 255t69.5 373.5q0 209 -69.5 371t-203.5 254t-313 92q-181 0 -315.5 -92.5t-204 -254.5t-69.5 -372zM637 1724v215h174v-215h-174zM1016 1724v215h174v-215h-174z" />
    <glyph glyph-name="multiply" unicode="&#xd7;" horiz-adv-x="1175" 
d="M279 172l-64 64l309 309l-309 307l64 66l311 -310l307 310l64 -66l-308 -307l308 -309l-64 -64l-307 307z" />
    <glyph glyph-name="Oslash" unicode="&#xd8;" horiz-adv-x="1826" 
d="M514 -340l-74 23l140 342q-232 87 -365 284t-133 465q0 177 61 326.5t170 254t264 162.5t338 58q151 0 275 -37l137 340l76 -23l-139 -344q224 -87 352.5 -281t128.5 -458q0 -237 -105 -420.5t-294 -284t-431 -100.5q-139 0 -264 35zM326 772q0 -220 77.5 -387.5
t219.5 -253.5l528 1311q-104 49 -236 49q-181 0 -315.5 -92.5t-204 -254.5t-69.5 -372zM690 96q101 -43 225 -43q179 0 313 92.5t203.5 255t69.5 373.5q0 212 -73 377t-207 254z" />
    <glyph glyph-name="Ugrave" unicode="&#xd9;" horiz-adv-x="1540" 
d="M782 -33q-138 0 -241.5 34t-184 111.5t-122 212.5t-41.5 326v625q0 131 -21.5 182.5t-95.5 81.5v10h461v-10q-74 -30 -95.5 -81.5t-21.5 -182.5v-627q0 -305 95.5 -441t305.5 -136q212 0 316 136.5t104 440.5v627q0 131 -21.5 182.5t-95.5 81.5v10h340v-10
q-74 -30 -95 -81.5t-21 -182.5v-625q0 -358 -141.5 -521t-424.5 -163zM473 1980h203l188 -288h-71z" />
    <glyph glyph-name="Uacute" unicode="&#xda;" horiz-adv-x="1540" 
d="M782 -33q-138 0 -241.5 34t-184 111.5t-122 212.5t-41.5 326v625q0 131 -21.5 182.5t-95.5 81.5v10h461v-10q-74 -30 -95.5 -81.5t-21.5 -182.5v-627q0 -305 95.5 -441t305.5 -136q212 0 316 136.5t104 440.5v627q0 131 -21.5 182.5t-95.5 81.5v10h340v-10
q-74 -30 -95 -81.5t-21 -182.5v-625q0 -358 -141.5 -521t-424.5 -163zM793 1692l188 288h203l-320 -288h-71z" />
    <glyph glyph-name="Ucircumflex" unicode="&#xdb;" horiz-adv-x="1540" 
d="M782 -33q-138 0 -241.5 34t-184 111.5t-122 212.5t-41.5 326v625q0 131 -21.5 182.5t-95.5 81.5v10h461v-10q-74 -30 -95.5 -81.5t-21.5 -182.5v-627q0 -305 95.5 -441t305.5 -136q212 0 316 136.5t104 440.5v627q0 131 -21.5 182.5t-95.5 81.5v10h340v-10
q-74 -30 -95 -81.5t-21 -182.5v-625q0 -358 -141.5 -521t-424.5 -163zM512 1692l266 288h101l266 -288h-88l-228 184l-229 -184h-88z" />
    <glyph glyph-name="Udieresis" unicode="&#xdc;" horiz-adv-x="1540" 
d="M782 -33q-138 0 -241.5 34t-184 111.5t-122 212.5t-41.5 326v625q0 131 -21.5 182.5t-95.5 81.5v10h461v-10q-74 -30 -95.5 -81.5t-21.5 -182.5v-627q0 -305 95.5 -441t305.5 -136q212 0 316 136.5t104 440.5v627q0 131 -21.5 182.5t-95.5 81.5v10h340v-10
q-74 -30 -95 -81.5t-21 -182.5v-625q0 -358 -141.5 -521t-424.5 -163zM553 1724v215h174v-215h-174zM932 1724v215h174v-215h-174z" />
    <glyph glyph-name="Yacute" unicode="&#xdd;" horiz-adv-x="1323" 
d="M172 1384q-40 72 -72.5 105t-87.5 51v10h459v-10q-111 -30 -45 -162l311 -577l301 577q16 31 23 54.5t5 46t-18.5 38t-48.5 23.5v10h314v-10q-49 -18 -86 -54t-74 -106l-360 -675v-431q0 -126 21.5 -180.5t94.5 -83.5v-10h-465v10q73 29 95 84t22 180v426zM682 1692
l188 288h203l-319 -288h-72z" />
    <glyph glyph-name="Thorn" unicode="&#xde;" horiz-adv-x="1329" 
d="M102 0v10q73 29 95 84t22 180v1002q0 131 -21.5 182.5t-95.5 81.5v10h463v-10q-74 -30 -95 -81.5t-21 -182.5v-62h198q617 0 617 -393q0 -88 -33 -158.5t-91.5 -118t-142.5 -79t-182.5 -45.5t-214.5 -14h-151v-132q0 -126 21.5 -180.5t94.5 -83.5v-10h-463zM449 487h135
q135 0 231.5 31.5t155.5 108t59 194.5q0 312 -403 312h-178v-646z" />
    <glyph glyph-name="germandbls" unicode="&#xdf;" horiz-adv-x="1275" 
d="M807 -18q-189 0 -283 120v99q85 -129 248 -129q101 0 160 50t59 138q0 68 -44 132.5t-152 164.5q-112 102 -160.5 165t-48.5 126q0 27 8.5 52t18.5 42t35.5 42t39.5 37t51 42q86 74 112 106q58 71 58 158q0 89 -60 147t-173 58q-151 0 -228 -110.5t-77 -311.5v-836
q0 -126 15 -180.5t65 -83.5v-10h-383v10q60 29 78 83.5t18 180.5v781q0 258 137.5 407.5t388.5 149.5q179 0 289.5 -77.5t110.5 -205.5q0 -42 -14.5 -79t-33 -61.5t-54 -51t-58 -39.5t-64.5 -35q-75 -40 -108 -70.5t-33 -72.5q0 -28 15.5 -57.5t51 -64.5t57.5 -54t71 -58
q65 -52 104.5 -87.5t81 -84.5t61 -101.5t19.5 -111.5q0 -141 -106.5 -230t-272.5 -89z" />
    <glyph glyph-name="agrave" unicode="&#xe0;" horiz-adv-x="1132" 
d="M367 -27q-133 0 -214 68t-81 195q0 55 18.5 99.5t49 76.5t83 59.5t109 47.5t137.5 42q52 15 77 22.5t62.5 21t55 23.5t40 26.5t31.5 34t16 41t7 52.5q3 84 -47.5 131.5t-145.5 47.5q-110 0 -187 -70.5t-77 -214.5h-190q5 88 47 158.5t109.5 113.5t148.5 65.5t170 22.5
q82 0 148 -18t118.5 -56.5t81.5 -105.5t29 -158v-456q0 -154 92 -154q45 0 78 29v-62q-70 -73 -172 -73q-92 0 -147.5 62t-55.5 189v48q-42 -137 -142.5 -222.5t-248.5 -85.5zM217 1548h182l201 -362h-51zM272 266q0 -82 47 -124t119 -42q143 0 231.5 117.5t88.5 306.5v107
q-8 -20 -24.5 -37t-32 -27.5t-51.5 -25t-56 -21.5t-72 -24q-133 -42 -191.5 -90.5t-58.5 -139.5z" />
    <glyph glyph-name="aacute" unicode="&#xe1;" horiz-adv-x="1132" 
d="M367 -27q-133 0 -214 68t-81 195q0 55 18.5 99.5t49 76.5t83 59.5t109 47.5t137.5 42q52 15 77 22.5t62.5 21t55 23.5t40 26.5t31.5 34t16 41t7 52.5q3 84 -47.5 131.5t-145.5 47.5q-110 0 -187 -70.5t-77 -214.5h-190q5 88 47 158.5t109.5 113.5t148.5 65.5t170 22.5
q82 0 148 -18t118.5 -56.5t81.5 -105.5t29 -158v-456q0 -154 92 -154q45 0 78 29v-62q-70 -73 -172 -73q-92 0 -147.5 62t-55.5 189v48q-42 -137 -142.5 -222.5t-248.5 -85.5zM272 266q0 -82 47 -124t119 -42q143 0 231.5 117.5t88.5 306.5v107q-8 -20 -24.5 -37t-32 -27.5
t-51.5 -25t-56 -21.5t-72 -24q-133 -42 -191.5 -90.5t-58.5 -139.5zM541 1186l202 362h183l-332 -362h-53z" />
    <glyph glyph-name="acircumflex" unicode="&#xe2;" horiz-adv-x="1132" 
d="M367 -27q-133 0 -214 68t-81 195q0 55 18.5 99.5t49 76.5t83 59.5t109 47.5t137.5 42q52 15 77 22.5t62.5 21t55 23.5t40 26.5t31.5 34t16 41t7 52.5q3 84 -47.5 131.5t-145.5 47.5q-110 0 -187 -70.5t-77 -214.5h-190q5 88 47 158.5t109.5 113.5t148.5 65.5t170 22.5
q82 0 148 -18t118.5 -56.5t81.5 -105.5t29 -158v-456q0 -154 92 -154q45 0 78 29v-62q-70 -73 -172 -73q-92 0 -147.5 62t-55.5 189v48q-42 -137 -142.5 -222.5t-248.5 -85.5zM272 266q0 -82 47 -124t119 -42q143 0 231.5 117.5t88.5 306.5v107q-8 -20 -24.5 -37t-32 -27.5
t-51.5 -25t-56 -21.5t-72 -24q-133 -42 -191.5 -90.5t-58.5 -139.5zM283 1186l245 334h90l246 -334h-80l-211 215l-208 -215h-82z" />
    <glyph glyph-name="atilde" unicode="&#xe3;" horiz-adv-x="1132" 
d="M367 -27q-133 0 -214 68t-81 195q0 55 18.5 99.5t49 76.5t83 59.5t109 47.5t137.5 42q52 15 77 22.5t62.5 21t55 23.5t40 26.5t31.5 34t16 41t7 52.5q3 84 -47.5 131.5t-145.5 47.5q-110 0 -187 -70.5t-77 -214.5h-190q5 88 47 158.5t109.5 113.5t148.5 65.5t170 22.5
q82 0 148 -18t118.5 -56.5t81.5 -105.5t29 -158v-456q0 -154 92 -154q45 0 78 29v-62q-70 -73 -172 -73q-92 0 -147.5 62t-55.5 189v48q-42 -137 -142.5 -222.5t-248.5 -85.5zM256 1198q-3 161 44.5 242.5t129.5 81.5q46 0 82 -21.5t59.5 -53t45.5 -62.5t51 -52.5t65 -21.5
q52 0 73.5 48.5t18.5 149.5h56q5 -325 -166 -325q-48 0 -85 21t-61 50.5t-45.5 59t-50 50.5t-63.5 21q-104 0 -97 -188h-57zM272 266q0 -82 47 -124t119 -42q143 0 231.5 117.5t88.5 306.5v107q-8 -20 -24.5 -37t-32 -27.5t-51.5 -25t-56 -21.5t-72 -24
q-133 -42 -191.5 -90.5t-58.5 -139.5z" />
    <glyph glyph-name="adieresis" unicode="&#xe4;" horiz-adv-x="1132" 
d="M367 -27q-133 0 -214 68t-81 195q0 55 18.5 99.5t49 76.5t83 59.5t109 47.5t137.5 42q52 15 77 22.5t62.5 21t55 23.5t40 26.5t31.5 34t16 41t7 52.5q3 84 -47.5 131.5t-145.5 47.5q-110 0 -187 -70.5t-77 -214.5h-190q5 88 47 158.5t109.5 113.5t148.5 65.5t170 22.5
q82 0 148 -18t118.5 -56.5t81.5 -105.5t29 -158v-456q0 -154 92 -154q45 0 78 29v-62q-70 -73 -172 -73q-92 0 -147.5 62t-55.5 189v48q-42 -137 -142.5 -222.5t-248.5 -85.5zM272 266q0 -82 47 -124t119 -42q143 0 231.5 117.5t88.5 306.5v107q-8 -20 -24.5 -37t-32 -27.5
t-51.5 -25t-56 -21.5t-72 -24q-133 -42 -191.5 -90.5t-58.5 -139.5zM311 1247v223h181v-223h-181zM653 1247v223h178v-223h-178z" />
    <glyph glyph-name="aring" unicode="&#xe5;" horiz-adv-x="1132" 
d="M367 -27q-133 0 -214 68t-81 195q0 55 18.5 99.5t49 76.5t83 59.5t109 47.5t137.5 42q52 15 77 22.5t62.5 21t55 23.5t40 26.5t31.5 34t16 41t7 52.5q3 84 -47.5 131.5t-145.5 47.5q-110 0 -187 -70.5t-77 -214.5h-190q5 88 47 158.5t109.5 113.5t148.5 65.5t170 22.5
q82 0 148 -18t118.5 -56.5t81.5 -105.5t29 -158v-456q0 -154 92 -154q45 0 78 29v-62q-70 -73 -172 -73q-92 0 -147.5 62t-55.5 189v48q-42 -137 -142.5 -222.5t-248.5 -85.5zM272 266q0 -82 47 -124t119 -42q143 0 231.5 117.5t88.5 306.5v107q-8 -20 -24.5 -37t-32 -27.5
t-51.5 -25t-56 -21.5t-72 -24q-133 -42 -191.5 -90.5t-58.5 -139.5zM360 1384q0 88 58.5 143.5t152.5 55.5q95 0 155 -55.5t60 -143.5t-60 -143t-155 -55q-94 0 -152.5 55t-58.5 143zM428 1384q0 -64 39 -103.5t104 -39.5q66 0 105 39t39 104t-39 104.5t-105 39.5
q-64 0 -103.5 -39.5t-39.5 -104.5z" />
    <glyph glyph-name="ae" unicode="&#xe6;" horiz-adv-x="1814" 
d="M1270 -35q-173 0 -297 103t-162 284q-32 -167 -148.5 -273t-291.5 -106q-134 -2 -216.5 66t-82.5 194q0 55 18 99.5t48.5 76.5t83 60t108 48t137.5 44q50 13 78 21t64.5 20.5t55.5 23t41 26.5t32.5 34t18 41.5t7.5 52.5q2 84 -51 132.5t-150 48.5q-51 0 -97 -16t-84 -49
t-60.5 -89.5t-22.5 -130.5h-188q5 88 47 158.5t107 113.5t143 65.5t161 22.5q248 3 338 -176q65 85 160 130.5t207 45.5q211 0 334.5 -126.5t128.5 -331.5h-758q-2 -14 -2 -43q0 -199 87 -324t257 -125q138 0 224 82.5t120 224.5h80q-37 -194 -158.5 -311t-316.5 -117z
M266 264q0 -81 48.5 -122.5t125.5 -41.5q145 0 234.5 117.5t89.5 306.5l2 109q-19 -47 -73.5 -75t-170.5 -64q-136 -45 -196 -92t-60 -138zM985 647h553q-8 138 -77 226t-187 88q-116 0 -191.5 -85t-97.5 -229z" />
    <glyph glyph-name="ccedilla" unicode="&#xe7;" horiz-adv-x="1136" 
d="M569 -502q-87 0 -158.5 32t-111.5 93l41 41q29 -46 81 -73t120 -27q64 0 104.5 25.5t40.5 80.5q0 52 -38 80.5t-103 28.5q-50 0 -94 -17l-33 35l125 170q-206 11 -335.5 154.5t-129.5 376.5q0 249 146.5 393.5t373.5 144.5q199 0 324.5 -107t146.5 -272h-184
q-48 301 -283 301q-151 0 -232 -114.5t-81 -304.5q0 -97 20.5 -178t62 -144.5t109.5 -99t158 -35.5q142 0 230 88.5t122 243.5h86q-30 -191 -146.5 -312.5t-305.5 -134.5l-82 -108q32 4 57 4q96 0 155.5 -47.5t59.5 -128.5q0 -64 -38.5 -108.5t-92 -62.5t-115.5 -18z" />
    <glyph glyph-name="egrave" unicode="&#xe8;" horiz-adv-x="1150" 
d="M582 -35q-225 0 -364.5 143t-139.5 388q0 162 68.5 286t184 189t259.5 65q216 0 346 -127t135 -331h-786q-2 -14 -2 -41q0 -130 36.5 -229.5t117.5 -160.5t198 -61q142 0 230 82.5t124 224.5h88q-39 -194 -164.5 -311t-330.5 -117zM223 1548h183l200 -362h-51zM291 651
h579q-9 137 -82 223.5t-198 86.5q-120 0 -197.5 -83.5t-101.5 -226.5z" />
    <glyph glyph-name="eacute" unicode="&#xe9;" horiz-adv-x="1150" 
d="M582 -35q-225 0 -364.5 143t-139.5 388q0 162 68.5 286t184 189t259.5 65q216 0 346 -127t135 -331h-786q-2 -14 -2 -41q0 -130 36.5 -229.5t117.5 -160.5t198 -61q142 0 230 82.5t124 224.5h88q-39 -194 -164.5 -311t-330.5 -117zM291 651h579q-9 137 -82 223.5
t-198 86.5q-120 0 -197.5 -83.5t-101.5 -226.5zM545 1186l203 362h182l-332 -362h-53z" />
    <glyph glyph-name="ecircumflex" unicode="&#xea;" horiz-adv-x="1150" 
d="M582 -35q-225 0 -364.5 143t-139.5 388q0 162 68.5 286t184 189t259.5 65q216 0 346 -127t135 -331h-786q-2 -14 -2 -41q0 -130 36.5 -229.5t117.5 -160.5t198 -61q142 0 230 82.5t124 224.5h88q-39 -194 -164.5 -311t-330.5 -117zM287 1186l245 334h91l245 -334h-80
l-210 215l-209 -215h-82zM291 651h579q-9 137 -82 223.5t-198 86.5q-120 0 -197.5 -83.5t-101.5 -226.5z" />
    <glyph glyph-name="edieresis" unicode="&#xeb;" horiz-adv-x="1150" 
d="M582 -35q-225 0 -364.5 143t-139.5 388q0 162 68.5 286t184 189t259.5 65q216 0 346 -127t135 -331h-786q-2 -14 -2 -41q0 -130 36.5 -229.5t117.5 -160.5t198 -61q142 0 230 82.5t124 224.5h88q-39 -194 -164.5 -311t-330.5 -117zM291 651h579q-9 137 -82 223.5
t-198 86.5q-120 0 -197.5 -83.5t-101.5 -226.5zM317 1247v223h181v-223h-181zM659 1247v223h179v-223h-179z" />
    <glyph glyph-name="igrave" unicode="&#xec;" horiz-adv-x="522" 
d="M51 0v10q66 30 86.5 84.5t20.5 179.5v457q0 131 -19 182.5t-86 81.5v11l164 2l150 8v-742q0 -126 19 -180.5t85 -83.5v-10h-420zM-96 1548h182l201 -362h-51z" />
    <glyph glyph-name="iacute" unicode="&#xed;" horiz-adv-x="522" 
d="M51 0v10q66 30 86.5 84.5t20.5 179.5v457q0 131 -19 182.5t-86 81.5v11l164 2l150 8v-742q0 -126 19 -180.5t85 -83.5v-10h-420zM225 1186l203 362h182l-331 -362h-54z" />
    <glyph glyph-name="icircumflex" unicode="&#xee;" horiz-adv-x="522" 
d="M51 0v10q66 30 86.5 84.5t20.5 179.5v457q0 131 -19 182.5t-86 81.5v11l164 2l150 8v-742q0 -126 19 -180.5t85 -83.5v-10h-420zM-33 1186l246 334h90l246 -334h-80l-211 215l-209 -215h-82z" />
    <glyph glyph-name="idieresis" unicode="&#xef;" horiz-adv-x="522" 
d="M51 0v10q66 30 86.5 84.5t20.5 179.5v457q0 131 -19 182.5t-86 81.5v11l164 2l150 8v-742q0 -126 19 -180.5t85 -83.5v-10h-420zM-4 1247v223h180v-223h-180zM338 1247v223h178v-223h-178z" />
    <glyph glyph-name="eth" unicode="&#xf0;" horiz-adv-x="1202" 
d="M596 -35q-228 0 -374 148.5t-146 388.5q0 229 144.5 372.5t357.5 143.5q226 0 333 -197q-54 346 -247 539l-439 -260v76l387 229q-156 128 -393 180l64 33q232 -28 422 -158l337 199v-74l-282 -168q167 -133 262.5 -336.5t95.5 -462.5q0 -317 -141 -485t-381 -168z
M287 502q0 -213 82.5 -337t226.5 -124q150 0 232.5 129t82.5 344q0 210 -82.5 322t-226.5 112q-151 0 -233 -119t-82 -327z" />
    <glyph glyph-name="ntilde" unicode="&#xf1;" horiz-adv-x="1243" 
d="M68 0v10q66 29 85 83.5t19 180.5v453q0 131 -18.5 182.5t-83.5 81.5v10h352q-23 -30 -31 -78.5t-10 -152.5q51 118 150.5 192t238.5 74q315 0 315 -370v-392q0 -126 19 -180.5t84 -83.5v-10h-406v10q60 29 77.5 83.5t17.5 180.5v381q0 138 -50.5 202.5t-152.5 64.5
q-110 0 -187.5 -78t-105.5 -195v-375q0 -126 18.5 -180.5t81.5 -83.5v-10h-413zM315 1198q-3 161 44.5 242.5t129.5 81.5q39 0 71 -15.5t52.5 -39t41.5 -51t38.5 -51t44 -39t56.5 -15.5q52 0 73.5 48.5t18.5 149.5h55q5 -325 -166 -325q-48 0 -85 21t-61 50.5t-45.5 59
t-50 50.5t-63.5 21q-103 0 -96 -188h-58z" />
    <glyph glyph-name="ograve" unicode="&#xf2;" horiz-adv-x="1212" 
d="M606 -35q-238 0 -383 147.5t-145 389.5q0 241 145 387.5t383 146.5q239 0 384 -146t145 -388t-145 -389.5t-384 -147.5zM252 1548h182l201 -362h-51zM291 502q0 -217 83 -338t234 -121q149 0 232.5 121.5t83.5 337.5q0 215 -83.5 335.5t-232.5 120.5q-152 0 -234.5 -120
t-82.5 -336z" />
    <glyph glyph-name="oacute" unicode="&#xf3;" horiz-adv-x="1212" 
d="M606 -35q-238 0 -383 147.5t-145 389.5q0 241 145 387.5t383 146.5q239 0 384 -146t145 -388t-145 -389.5t-384 -147.5zM291 502q0 -217 83 -338t234 -121q149 0 232.5 121.5t83.5 337.5q0 215 -83.5 335.5t-232.5 120.5q-152 0 -234.5 -120t-82.5 -336zM573 1186
l203 362h182l-331 -362h-54z" />
    <glyph glyph-name="ocircumflex" unicode="&#xf4;" horiz-adv-x="1212" 
d="M606 -35q-238 0 -383 147.5t-145 389.5q0 241 145 387.5t383 146.5q239 0 384 -146t145 -388t-145 -389.5t-384 -147.5zM291 502q0 -217 83 -338t234 -121q149 0 232.5 121.5t83.5 337.5q0 215 -83.5 335.5t-232.5 120.5q-152 0 -234.5 -120t-82.5 -336zM315 1186
l246 334h90l246 -334h-80l-211 215l-209 -215h-82z" />
    <glyph glyph-name="otilde" unicode="&#xf5;" horiz-adv-x="1212" 
d="M606 -35q-238 0 -383 147.5t-145 389.5q0 241 145 387.5t383 146.5q239 0 384 -146t145 -388t-145 -389.5t-384 -147.5zM291 502q0 -217 83 -338t234 -121q149 0 232.5 121.5t83.5 337.5q0 215 -83.5 335.5t-232.5 120.5q-152 0 -234.5 -120t-82.5 -336zM291 1198
q-3 161 44.5 242.5t129.5 81.5q46 0 82 -21.5t59.5 -53t45.5 -62.5t51 -52.5t65 -21.5q52 0 73.5 48.5t18.5 149.5h55q3 -173 -40 -249t-125 -76q-48 0 -85 21t-61 50.5t-46 59t-50.5 50.5t-63.5 21q-103 0 -96 -188h-57z" />
    <glyph glyph-name="odieresis" unicode="&#xf6;" horiz-adv-x="1212" 
d="M606 -35q-238 0 -383 147.5t-145 389.5q0 241 145 387.5t383 146.5q239 0 384 -146t145 -388t-145 -389.5t-384 -147.5zM291 502q0 -217 83 -338t234 -121q149 0 232.5 121.5t83.5 337.5q0 215 -83.5 335.5t-232.5 120.5q-152 0 -234.5 -120t-82.5 -336zM344 1247v223
h180v-223h-180zM686 1247v223h178v-223h-178z" />
    <glyph glyph-name="divide" unicode="&#xf7;" horiz-adv-x="1175" 
d="M127 487v88h922v-88h-922zM516 70v190h143v-190h-143zM516 803v190h143v-190h-143z" />
    <glyph glyph-name="oslash" unicode="&#xf8;" horiz-adv-x="1214" 
d="M350 -250l-63 23l92 237q-141 59 -221 188t-80 306q0 241 145 387.5t383 146.5q91 0 164 -20l92 239l64 -20l-92 -240q141 -59 221 -188t80 -305q0 -242 -145 -389.5t-384 -147.5q-75 0 -164 21zM291 504q0 -272 129 -389l315 817q-60 29 -127 29q-152 0 -234.5 -120.5
t-82.5 -336.5zM475 76q60 -31 133 -31q149 0 232.5 121.5t83.5 337.5q0 274 -131 389z" />
    <glyph glyph-name="ugrave" unicode="&#xf9;" horiz-adv-x="1245" 
d="M475 -33q-315 0 -315 371v389q0 124 -19.5 179t-83.5 85v10h404v-10q-58 -29 -75 -83t-17 -181v-373q0 -141 48.5 -204.5t151.5 -63.5q114 0 191.5 85.5t101.5 221.5v334q0 126 -18 180.5t-78 83.5v10h410v-10q-66 -29 -85.5 -83.5t-19.5 -180.5v-453q0 -131 19 -182.5
t86 -81.5v-10h-345q18 32 24.5 85.5t6.5 170.5q-48 -126 -148 -207.5t-239 -81.5zM268 1548h183l200 -362h-51z" />
    <glyph glyph-name="uacute" unicode="&#xfa;" horiz-adv-x="1245" 
d="M475 -33q-315 0 -315 371v389q0 124 -19.5 179t-83.5 85v10h404v-10q-58 -29 -75 -83t-17 -181v-373q0 -141 48.5 -204.5t151.5 -63.5q114 0 191.5 85.5t101.5 221.5v334q0 126 -18 180.5t-78 83.5v10h410v-10q-66 -29 -85.5 -83.5t-19.5 -180.5v-453q0 -131 19 -182.5
t86 -81.5v-10h-345q18 32 24.5 85.5t6.5 170.5q-48 -126 -148 -207.5t-239 -81.5zM590 1186l203 362h182l-332 -362h-53z" />
    <glyph glyph-name="ucircumflex" unicode="&#xfb;" horiz-adv-x="1245" 
d="M475 -33q-315 0 -315 371v389q0 124 -19.5 179t-83.5 85v10h404v-10q-58 -29 -75 -83t-17 -181v-373q0 -141 48.5 -204.5t151.5 -63.5q114 0 191.5 85.5t101.5 221.5v334q0 126 -18 180.5t-78 83.5v10h410v-10q-66 -29 -85.5 -83.5t-19.5 -180.5v-453q0 -131 19 -182.5
t86 -81.5v-10h-345q18 32 24.5 85.5t6.5 170.5q-48 -126 -148 -207.5t-239 -81.5zM334 1186l246 334h90l245 -334h-79l-211 215l-209 -215h-82z" />
    <glyph glyph-name="udieresis" unicode="&#xfc;" horiz-adv-x="1245" 
d="M475 -33q-315 0 -315 371v389q0 124 -19.5 179t-83.5 85v10h404v-10q-58 -29 -75 -83t-17 -181v-373q0 -141 48.5 -204.5t151.5 -63.5q114 0 191.5 85.5t101.5 221.5v334q0 126 -18 180.5t-78 83.5v10h410v-10q-66 -29 -85.5 -83.5t-19.5 -180.5v-453q0 -131 19 -182.5
t86 -81.5v-10h-345q18 32 24.5 85.5t6.5 170.5q-48 -126 -148 -207.5t-239 -81.5zM362 1247v223h181v-223h-181zM705 1247v223h178v-223h-178z" />
    <glyph glyph-name="yacute" unicode="&#xfd;" horiz-adv-x="1075" 
d="M154 -500q-78 0 -134 29v170q65 -37 156 -37q114 0 197 78.5t157 259.5h-65l-291 748q-46 117 -76 168t-80 75v10h383v-10q-24 -9 -36.5 -23.5t-17 -30.5t1 -46.5t14 -58t26.5 -78.5l209 -580l211 580q41 103 40 159.5t-58 77.5v10h274v-10q-44 -19 -80 -75.5t-78 -161.5
l-291 -754q-106 -269 -209 -384.5t-253 -115.5zM557 1186l203 362h182l-332 -362h-53z" />
    <glyph glyph-name="thorn" unicode="&#xfe;" horiz-adv-x="1220" 
d="M37 -492v9q66 26 85 75t19 162v1567q0 113 -16 157.5t-74 71.5v9l307 45l11 -9q-19 -61 -19 -274v-580q45 135 142 214t241 79q189 0 299.5 -146t110.5 -374q0 -235 -120 -384.5t-314 -149.5q-116 0 -210.5 53t-148.5 149v-428q0 -112 21 -161t90 -76v-9h-424zM350 272
q40 -93 114.5 -145.5t166.5 -52.5q139 0 216 117.5t77 322.5q0 119 -28 211.5t-90.5 150.5t-152.5 58q-144 0 -223.5 -125t-79.5 -326v-211z" />
    <glyph glyph-name="ydieresis" unicode="&#xff;" horiz-adv-x="1075" 
d="M154 -500q-78 0 -134 29v170q65 -37 156 -37q114 0 197 78.5t157 259.5h-65l-291 748q-46 117 -76 168t-80 75v10h383v-10q-24 -9 -36.5 -23.5t-17 -30.5t1 -46.5t14 -58t26.5 -78.5l209 -580l211 580q41 103 40 159.5t-58 77.5v10h274v-10q-44 -19 -80 -75.5t-78 -161.5
l-291 -754q-106 -269 -209 -384.5t-253 -115.5zM330 1247v223h180v-223h-180zM672 1247v223h178v-223h-178z" />
    <glyph glyph-name="Amacron" unicode="&#x100;" horiz-adv-x="1536" 
d="M2 8q69 32 116 83.5t83 150.5l430 1167q30 82 -6 141h241l494 -1317q36 -96 74 -146t100 -77v-10h-508v8q80 29 98 81t-14 142l-92 269h-612l-95 -264q-35 -101 -20.5 -151t86.5 -79v-6h-375v8zM401 1780v80h703v-80h-703zM436 582h553l-272 782z" />
    <glyph glyph-name="amacron" unicode="&#x101;" horiz-adv-x="1132" 
d="M367 -27q-133 0 -214 68t-81 195q0 55 18.5 99.5t49 76.5t83 59.5t109 47.5t137.5 42q52 15 77 22.5t62.5 21t55 23.5t40 26.5t31.5 34t16 41t7 52.5q3 84 -47.5 131.5t-145.5 47.5q-110 0 -187 -70.5t-77 -214.5h-190q5 88 47 158.5t109.5 113.5t148.5 65.5t170 22.5
q82 0 148 -18t118.5 -56.5t81.5 -105.5t29 -158v-456q0 -154 92 -154q45 0 78 29v-62q-70 -73 -172 -73q-92 0 -147.5 62t-55.5 189v48q-42 -137 -142.5 -222.5t-248.5 -85.5zM248 1251v84h649v-84h-649zM272 266q0 -82 47 -124t119 -42q143 0 231.5 117.5t88.5 306.5v107
q-8 -20 -24.5 -37t-32 -27.5t-51.5 -25t-56 -21.5t-72 -24q-133 -42 -191.5 -90.5t-58.5 -139.5z" />
    <glyph glyph-name="Abreve" unicode="&#x102;" horiz-adv-x="1536" 
d="M2 8q69 32 116 83.5t83 150.5l430 1167q30 82 -6 141h241l494 -1317q36 -96 74 -146t100 -77v-10h-508v8q80 29 98 81t-14 142l-92 269h-612l-95 -264q-35 -101 -20.5 -151t86.5 -79v-6h-375v8zM436 582h553l-272 782zM444 1980h80q0 -87 57 -138.5t171 -51.5t170.5 51.5
t56.5 138.5h78q0 -145 -82 -222t-223 -77q-142 0 -225 77.5t-83 221.5z" />
    <glyph glyph-name="abreve" unicode="&#x103;" horiz-adv-x="1132" 
d="M367 -27q-133 0 -214 68t-81 195q0 55 18.5 99.5t49 76.5t83 59.5t109 47.5t137.5 42q52 15 77 22.5t62.5 21t55 23.5t40 26.5t31.5 34t16 41t7 52.5q3 84 -47.5 131.5t-145.5 47.5q-110 0 -187 -70.5t-77 -214.5h-190q5 88 47 158.5t109.5 113.5t148.5 65.5t170 22.5
q82 0 148 -18t118.5 -56.5t81.5 -105.5t29 -158v-456q0 -154 92 -154q45 0 78 29v-62q-70 -73 -172 -73q-92 0 -147.5 62t-55.5 189v48q-42 -137 -142.5 -222.5t-248.5 -85.5zM272 266q0 -82 47 -124t119 -42q143 0 231.5 117.5t88.5 306.5v107q-8 -20 -24.5 -37t-32 -27.5
t-51.5 -25t-56 -21.5t-72 -24q-133 -42 -191.5 -90.5t-58.5 -139.5zM297 1516h74q0 -107 50 -165.5t152 -58.5q103 0 153 58.5t50 165.5h76q0 -156 -75.5 -243t-203.5 -87q-126 0 -201 87t-75 243z" />
    <glyph glyph-name="Aogonek" unicode="&#x104;" horiz-adv-x="1536" 
d="M2 8q69 32 116 83.5t83 150.5l430 1167q30 82 -6 141h241l494 -1317q36 -96 74 -146t100 -77v-10h-180q-68 -45 -117 -114t-49 -158q0 -61 32 -95t85 -34q38 0 72.5 23t56.5 63v-60q-62 -108 -183 -108q-78 0 -132 47t-54 137q0 98 63 174t154 125h-256v8q80 29 98 81
t-14 142l-92 269h-612l-95 -264q-35 -101 -20.5 -151t86.5 -79v-6h-375v8zM436 582h553l-272 782z" />
    <glyph glyph-name="aogonek" unicode="&#x105;" horiz-adv-x="1132" 
d="M367 -27q-133 0 -214 68t-81 195q0 55 18.5 99.5t49 76.5t83 59.5t109 47.5t137.5 42q52 15 77 22.5t62.5 21t55 23.5t40 26.5t31.5 34t16 41t7 52.5q3 84 -47.5 131.5t-145.5 47.5q-110 0 -187 -70.5t-77 -214.5h-190q5 88 47 158.5t109.5 113.5t148.5 65.5t170 22.5
q82 0 148 -18t118.5 -56.5t81.5 -105.5t29 -158v-456q0 -154 92 -154q45 0 78 29v-62q-25 -25 -52 -43q-68 -45 -117 -114t-49 -158q0 -61 32 -95t85 -34q38 0 72.5 23t56.5 63v-59q-63 -109 -182 -109q-78 0 -132 47t-54 137q0 154 168 269q-92 0 -147.5 62t-55.5 189v48
q-42 -137 -142.5 -222.5t-248.5 -85.5zM272 266q0 -82 47 -124t119 -42q143 0 231.5 117.5t88.5 306.5v107q-8 -20 -24.5 -37t-32 -27.5t-51.5 -25t-56 -21.5t-72 -24q-133 -42 -191.5 -90.5t-58.5 -139.5z" />
    <glyph glyph-name="Cacute" unicode="&#x106;" horiz-adv-x="1701" 
d="M866 -29q-181 0 -330 62t-248 169.5t-152.5 253t-53.5 312.5q0 178 60 328t165.5 254t254.5 162.5t323 58.5q280 0 477.5 -142.5t263.5 -412.5h-225q-45 217 -179.5 343t-334.5 126q-128 0 -234.5 -54t-177.5 -146.5t-110 -216.5t-39 -265q0 -145 38 -268.5t110.5 -218
t187 -148t258.5 -53.5q252 0 412 147.5t204 403.5h102q-47 -320 -249.5 -507.5t-522.5 -187.5zM825 1688l189 288h203l-320 -288h-72z" />
    <glyph glyph-name="cacute" unicode="&#x107;" horiz-adv-x="1136" 
d="M580 -35q-222 0 -362 144.5t-140 388.5q0 249 146.5 393.5t373.5 144.5q199 0 324.5 -107t146.5 -272h-184q-48 301 -283 301q-151 0 -232 -114.5t-81 -304.5q0 -97 20.5 -178t62 -144.5t109.5 -99t158 -35.5q142 0 230 88.5t122 243.5h86q-32 -202 -160 -325.5
t-337 -123.5zM545 1186l203 362h182l-332 -362h-53z" />
    <glyph glyph-name="Ccircumflex" unicode="&#x108;" horiz-adv-x="1701" 
d="M866 -29q-181 0 -330 62t-248 169.5t-152.5 253t-53.5 312.5q0 178 60 328t165.5 254t254.5 162.5t323 58.5q280 0 477.5 -142.5t263.5 -412.5h-225q-45 217 -179.5 343t-334.5 126q-128 0 -234.5 -54t-177.5 -146.5t-110 -216.5t-39 -265q0 -145 38 -268.5t110.5 -218
t187 -148t258.5 -53.5q252 0 412 147.5t204 403.5h102q-47 -320 -249.5 -507.5t-522.5 -187.5zM547 1688l266 288h100l267 -288h-88l-228 184l-229 -184h-88z" />
    <glyph glyph-name="ccircumflex" unicode="&#x109;" horiz-adv-x="1136" 
d="M580 -35q-222 0 -362 144.5t-140 388.5q0 249 146.5 393.5t373.5 144.5q199 0 324.5 -107t146.5 -272h-184q-48 301 -283 301q-151 0 -232 -114.5t-81 -304.5q0 -97 20.5 -178t62 -144.5t109.5 -99t158 -35.5q142 0 230 88.5t122 243.5h86q-32 -202 -160 -325.5
t-337 -123.5zM287 1186l245 334h91l245 -334h-80l-210 215l-209 -215h-82z" />
    <glyph glyph-name="Cdotaccent" unicode="&#x10a;" horiz-adv-x="1701" 
d="M866 -29q-181 0 -330 62t-248 169.5t-152.5 253t-53.5 312.5q0 178 60 328t165.5 254t254.5 162.5t323 58.5q280 0 477.5 -142.5t263.5 -412.5h-225q-45 217 -179.5 343t-334.5 126q-128 0 -234.5 -54t-177.5 -146.5t-110 -216.5t-39 -265q0 -145 38 -268.5t110.5 -218
t187 -148t258.5 -53.5q252 0 412 147.5t204 403.5h102q-47 -320 -249.5 -507.5t-522.5 -187.5zM774 1720v215h174v-215h-174z" />
    <glyph glyph-name="cdotaccent" unicode="&#x10b;" horiz-adv-x="1136" 
d="M580 -35q-222 0 -362 144.5t-140 388.5q0 249 146.5 393.5t373.5 144.5q199 0 324.5 -107t146.5 -272h-184q-48 301 -283 301q-151 0 -232 -114.5t-81 -304.5q0 -97 20.5 -178t62 -144.5t109.5 -99t158 -35.5q142 0 230 88.5t122 243.5h86q-32 -202 -160 -325.5
t-337 -123.5zM481 1253v213h193v-213h-193z" />
    <glyph glyph-name="Ccaron" unicode="&#x10c;" horiz-adv-x="1701" 
d="M866 -29q-181 0 -330 62t-248 169.5t-152.5 253t-53.5 312.5q0 178 60 328t165.5 254t254.5 162.5t323 58.5q280 0 477.5 -142.5t263.5 -412.5h-225q-45 217 -179.5 343t-334.5 126q-128 0 -234.5 -54t-177.5 -146.5t-110 -216.5t-39 -265q0 -145 38 -268.5t110.5 -218
t187 -148t258.5 -53.5q252 0 412 147.5t204 403.5h102q-47 -320 -249.5 -507.5t-522.5 -187.5zM537 1976h88l239 -182l238 182h90l-281 -288h-96z" />
    <glyph glyph-name="ccaron" unicode="&#x10d;" horiz-adv-x="1136" 
d="M580 -35q-222 0 -362 144.5t-140 388.5q0 249 146.5 393.5t373.5 144.5q199 0 324.5 -107t146.5 -272h-184q-48 301 -283 301q-151 0 -232 -114.5t-81 -304.5q0 -97 20.5 -178t62 -144.5t109.5 -99t158 -35.5q142 0 230 88.5t122 243.5h86q-32 -202 -160 -325.5
t-337 -123.5zM268 1544h80l227 -237l228 237h82l-260 -358h-99z" />
    <glyph glyph-name="Dcaron" unicode="&#x10e;" horiz-adv-x="1705" 
d="M102 0v10q72 30 94.5 85t22.5 179v1002q0 130 -22 182t-95 82v10h617q419 0 661 -203t242 -573q0 -361 -242 -567.5t-661 -206.5h-617zM446 82h259q307 0 491 183.5t184 508.5q0 335 -182.5 514.5t-492.5 179.5h-259v-1386zM451 1980h88l239 -182l238 182h90l-281 -288
h-96z" />
    <glyph glyph-name="dcaron" unicode="&#x10f;" horiz-adv-x="1251" 
d="M860 0q17 125 17 268q-47 -133 -142 -209.5t-237 -76.5q-131 0 -227 68.5t-144.5 184.5t-48.5 263q0 237 121.5 385.5t322.5 148.5q117 0 209.5 -52t145.5 -146v489q0 108 -17.5 155t-73.5 74v7l308 45l10 -7q-19 -69 -19 -274v-1049q0 -126 19 -180.5t84 -83.5v-10h-328
zM299 498q0 -120 27.5 -211t90.5 -148t156 -57q132 0 212 107t92 280v272q-37 90 -115 145.5t-170 55.5q-138 0 -215.5 -119.5t-77.5 -324.5zM1239 1116l80 481h162l-187 -481h-55z" />
    <glyph glyph-name="Dcroat" unicode="&#x110;" horiz-adv-x="1705" 
d="M102 0v10q72 30 94.5 85t22.5 179v492h-178v76h178v434q0 130 -22 182t-95 82v10h617q419 0 661 -203t242 -573q0 -361 -242 -567.5t-661 -206.5h-617zM446 82h259q307 0 491 183.5t184 508.5q0 335 -182.5 514.5t-492.5 179.5h-259v-626h494v-76h-494v-684z" />
    <glyph glyph-name="dcroat" unicode="&#x111;" horiz-adv-x="1251" 
d="M860 0q17 125 17 268q-47 -133 -142 -209.5t-237 -76.5q-131 0 -227 68.5t-144.5 184.5t-48.5 263q0 237 121.5 385.5t322.5 148.5q117 0 209.5 -52t145.5 -146v389h-447v63h447v37q0 108 -17.5 155t-73.5 74v7l308 45l10 -7q-19 -69 -19 -274v-37h207v-63h-207v-949
q0 -126 19 -180.5t84 -83.5v-10h-328zM299 498q0 -120 27.5 -211t90.5 -148t156 -57q132 0 212 107t92 280v272q-37 90 -115 145.5t-170 55.5q-138 0 -215.5 -119.5t-77.5 -324.5z" />
    <glyph glyph-name="Emacron" unicode="&#x112;" horiz-adv-x="1226" 
d="M102 0v10q72 30 94.5 85t22.5 179v1002q0 130 -22 182t-95 82v10h1028v-190q-189 58 -299.5 83t-203.5 25h-181v-618h115q135 0 463 16v-110q-262 16 -463 16h-115v-690l226 2q110 1 227.5 31t276.5 90v-205h-1074zM297 1780v80h702v-80h-702z" />
    <glyph glyph-name="emacron" unicode="&#x113;" horiz-adv-x="1150" 
d="M582 -35q-225 0 -364.5 143t-139.5 388q0 162 68.5 286t184 189t259.5 65q216 0 346 -127t135 -331h-786q-2 -14 -2 -41q0 -130 36.5 -229.5t117.5 -160.5t198 -61q142 0 230 82.5t124 224.5h88q-39 -194 -164.5 -311t-330.5 -117zM252 1251v84h649v-84h-649zM291 651
h579q-9 137 -82 223.5t-198 86.5q-120 0 -197.5 -83.5t-101.5 -226.5z" />
    <glyph glyph-name="Edotaccent" unicode="&#x116;" horiz-adv-x="1226" 
d="M102 0v10q72 30 94.5 85t22.5 179v1002q0 130 -22 182t-95 82v10h1028v-190q-189 58 -299.5 83t-203.5 25h-181v-618h115q135 0 463 16v-110q-262 16 -463 16h-115v-690l226 2q110 1 227.5 31t276.5 90v-205h-1074zM559 1724v215h174v-215h-174z" />
    <glyph glyph-name="edotaccent" unicode="&#x117;" horiz-adv-x="1150" 
d="M582 -35q-225 0 -364.5 143t-139.5 388q0 162 68.5 286t184 189t259.5 65q216 0 346 -127t135 -331h-786q-2 -14 -2 -41q0 -130 36.5 -229.5t117.5 -160.5t198 -61q142 0 230 82.5t124 224.5h88q-39 -194 -164.5 -311t-330.5 -117zM291 651h579q-9 137 -82 223.5
t-198 86.5q-120 0 -197.5 -83.5t-101.5 -226.5zM481 1253v213h193v-213h-193z" />
    <glyph glyph-name="Eogonek" unicode="&#x118;" horiz-adv-x="1226" 
d="M102 0v10q72 30 94.5 85t22.5 179v1002q0 130 -22 182t-95 82v10h1028v-190q-189 58 -299.5 83t-203.5 25h-181v-618h115q135 0 463 16v-110q-262 16 -463 16h-115v-690l226 2q110 1 227.5 31t276.5 90v-205h-54q-68 -45 -117 -114t-49 -158q0 -61 32 -95t85 -34
q38 0 72.5 23t56.5 63v-60q-62 -108 -182 -108q-78 0 -132 47t-54 137q0 98 63 174t154 125h-949z" />
    <glyph glyph-name="eogonek" unicode="&#x119;" horiz-adv-x="1150" 
d="M582 -35q-225 0 -364.5 143t-139.5 388q0 162 68.5 286t184 189t259.5 65q216 0 346 -127t135 -331h-786q-2 -14 -2 -41q0 -130 36.5 -229.5t117.5 -160.5t198 -61q142 0 230 82.5t124 224.5h88q-27 -138 -99 -238.5t-187 -150.5q-60 -45 -101 -109.5t-41 -144.5
q0 -61 32 -95t85 -34q38 0 72.5 23t56.5 63v-59q-63 -109 -182 -109q-78 0 -132.5 47.5t-54.5 137.5q0 137 138 247q-38 -6 -82 -6zM291 651h579q-9 137 -82 223.5t-198 86.5q-120 0 -197.5 -83.5t-101.5 -226.5z" />
    <glyph glyph-name="Ecaron" unicode="&#x11a;" horiz-adv-x="1226" 
d="M102 0v10q72 30 94.5 85t22.5 179v1002q0 130 -22 182t-95 82v10h1028v-190q-189 58 -299.5 83t-203.5 25h-181v-618h115q135 0 463 16v-110q-262 16 -463 16h-115v-690l226 2q110 1 227.5 31t276.5 90v-205h-1074zM319 1980h89l239 -182l238 182h90l-281 -288h-96z" />
    <glyph glyph-name="ecaron" unicode="&#x11b;" horiz-adv-x="1150" 
d="M582 -35q-225 0 -364.5 143t-139.5 388q0 162 68.5 286t184 189t259.5 65q216 0 346 -127t135 -331h-786q-2 -14 -2 -41q0 -130 36.5 -229.5t117.5 -160.5t198 -61q142 0 230 82.5t124 224.5h88q-39 -194 -164.5 -311t-330.5 -117zM270 1544h80l228 -237l227 237h82
l-260 -358h-99zM291 651h579q-9 137 -82 223.5t-198 86.5q-120 0 -197.5 -83.5t-101.5 -226.5z" />
    <glyph glyph-name="Gcircumflex" unicode="&#x11c;" horiz-adv-x="1796" 
d="M834 -29q-174 0 -317 61t-237.5 167.5t-146 249t-51.5 307.5q0 246 107 433.5t296 287.5t430 100q277 0 473.5 -134.5t256.5 -369.5h-224q-46 197 -179 307.5t-331 110.5q-176 0 -310.5 -90.5t-205.5 -247.5t-71 -356q0 -146 37.5 -270t108.5 -218t183 -147t254 -53
q241 0 388.5 159.5t174.5 433.5h-718v84h917v-802h-80l-100 465q-63 -220 -233 -349t-422 -129zM600 1688l266 288h101l266 -288h-88l-227 184l-230 -184h-88z" />
    <glyph glyph-name="gcircumflex" unicode="&#x11d;" horiz-adv-x="1253" 
d="M494 -518q-107 0 -188.5 20t-133 66.5t-51.5 116.5q0 139 254 217h-23q-125 0 -198.5 51t-73.5 143q0 77 60.5 140.5t168.5 109.5q-149 107 -149 297q0 119 62.5 208.5t166.5 134t232 44.5q214 0 346 -117q12 127 84.5 206.5t179.5 80.5v-176q-97 0 -152.5 -40
t-66.5 -116q73 -95 73 -225q0 -180 -130.5 -282.5t-331.5 -102.5q-142 0 -254 53q-140 -61 -140 -155q0 -98 166 -95q86 0 299.5 35t294.5 35q121 0 187.5 -49.5t66.5 -144.5q0 -98 -66.5 -185t-173.5 -145t-240.5 -91.5t-268.5 -33.5zM270 -291q0 -143 246 -143
q132 0 258.5 37t211.5 107.5t85 154.5q0 53 -35 76.5t-112 23.5q-157 0 -394 -63q-134 -35 -197 -80t-63 -113zM330 1186l245 334h91l245 -334h-80l-210 215l-209 -215h-82zM369 643q0 -145 67.5 -229t184.5 -84q120 0 188 84t68 229t-68 228t-188 83q-117 0 -184.5 -83
t-67.5 -228z" />
    <glyph glyph-name="Gbreve" unicode="&#x11e;" horiz-adv-x="1796" 
d="M834 -29q-174 0 -317 61t-237.5 167.5t-146 249t-51.5 307.5q0 246 107 433.5t296 287.5t430 100q277 0 473.5 -134.5t256.5 -369.5h-224q-46 197 -179 307.5t-331 110.5q-176 0 -310.5 -90.5t-205.5 -247.5t-71 -356q0 -146 37.5 -270t108.5 -218t183 -147t254 -53
q241 0 388.5 159.5t174.5 433.5h-718v84h917v-802h-80l-100 465q-63 -220 -233 -349t-422 -129zM610 1976h80q0 -87 57 -138.5t171 -51.5t170.5 51.5t56.5 138.5h78q0 -145 -82 -222t-223 -77q-142 0 -225 77.5t-83 221.5z" />
    <glyph glyph-name="gbreve" unicode="&#x11f;" horiz-adv-x="1253" 
d="M494 -518q-107 0 -188.5 20t-133 66.5t-51.5 116.5q0 139 254 217h-23q-125 0 -198.5 51t-73.5 143q0 77 60.5 140.5t168.5 109.5q-149 107 -149 297q0 119 62.5 208.5t166.5 134t232 44.5q214 0 346 -117q12 127 84.5 206.5t179.5 80.5v-176q-97 0 -152.5 -40
t-66.5 -116q73 -95 73 -225q0 -180 -130.5 -282.5t-331.5 -102.5q-142 0 -254 53q-140 -61 -140 -155q0 -98 166 -95q86 0 299.5 35t294.5 35q121 0 187.5 -49.5t66.5 -144.5q0 -98 -66.5 -185t-173.5 -145t-240.5 -91.5t-268.5 -33.5zM270 -291q0 -143 246 -143
q132 0 258.5 37t211.5 107.5t85 154.5q0 53 -35 76.5t-112 23.5q-157 0 -394 -63q-134 -35 -197 -80t-63 -113zM344 1516h74q0 -107 50.5 -165.5t152.5 -58.5q202 0 202 224h76q0 -156 -75 -243t-203 -87q-127 0 -202 87t-75 243zM369 643q0 -145 67.5 -229t184.5 -84
q120 0 188 84t68 229t-68 228t-188 83q-117 0 -184.5 -83t-67.5 -228z" />
    <glyph glyph-name="Gdotaccent" unicode="&#x120;" horiz-adv-x="1796" 
d="M834 -29q-174 0 -317 61t-237.5 167.5t-146 249t-51.5 307.5q0 246 107 433.5t296 287.5t430 100q277 0 473.5 -134.5t256.5 -369.5h-224q-46 197 -179 307.5t-331 110.5q-176 0 -310.5 -90.5t-205.5 -247.5t-71 -356q0 -146 37.5 -270t108.5 -218t183 -147t254 -53
q241 0 388.5 159.5t174.5 433.5h-718v84h917v-802h-80l-100 465q-63 -220 -233 -349t-422 -129zM827 1720v215h174v-215h-174z" />
    <glyph glyph-name="gdotaccent" unicode="&#x121;" horiz-adv-x="1253" 
d="M494 -518q-107 0 -188.5 20t-133 66.5t-51.5 116.5q0 139 254 217h-23q-125 0 -198.5 51t-73.5 143q0 77 60.5 140.5t168.5 109.5q-149 107 -149 297q0 119 62.5 208.5t166.5 134t232 44.5q214 0 346 -117q12 127 84.5 206.5t179.5 80.5v-176q-97 0 -152.5 -40
t-66.5 -116q73 -95 73 -225q0 -180 -130.5 -282.5t-331.5 -102.5q-142 0 -254 53q-140 -61 -140 -155q0 -98 166 -95q86 0 299.5 35t294.5 35q121 0 187.5 -49.5t66.5 -144.5q0 -98 -66.5 -185t-173.5 -145t-240.5 -91.5t-268.5 -33.5zM270 -291q0 -143 246 -143
q132 0 258.5 37t211.5 107.5t85 154.5q0 53 -35 76.5t-112 23.5q-157 0 -394 -63q-134 -35 -197 -80t-63 -113zM369 643q0 -145 67.5 -229t184.5 -84q120 0 188 84t68 229t-68 228t-188 83q-117 0 -184.5 -83t-67.5 -228zM524 1253v213h193v-213h-193z" />
    <glyph glyph-name="uni0122" unicode="&#x122;" horiz-adv-x="1796" 
d="M834 -29q-174 0 -317 61t-237.5 167.5t-146 249t-51.5 307.5q0 246 107 433.5t296 287.5t430 100q277 0 473.5 -134.5t256.5 -369.5h-224q-46 197 -179 307.5t-331 110.5q-176 0 -310.5 -90.5t-205.5 -247.5t-71 -356q0 -146 37.5 -270t108.5 -218t183 -147t254 -53
q241 0 388.5 159.5t174.5 433.5h-718v84h917v-802h-80l-100 465q-63 -220 -233 -349t-422 -129zM635 -487l125 360h178l-262 -377z" />
    <glyph glyph-name="uni0123" unicode="&#x123;" horiz-adv-x="1253" 
d="M494 -518q-107 0 -188.5 20t-133 66.5t-51.5 116.5q0 139 254 217h-23q-125 0 -198.5 51t-73.5 143q0 77 60.5 140.5t168.5 109.5q-149 107 -149 297q0 119 62.5 208.5t166.5 134t232 44.5q214 0 346 -117q12 127 84.5 206.5t179.5 80.5v-176q-97 0 -152.5 -40
t-66.5 -116q73 -95 73 -225q0 -180 -130.5 -282.5t-331.5 -102.5q-142 0 -254 53q-140 -61 -140 -155q0 -98 166 -95q86 0 299.5 35t294.5 35q121 0 187.5 -49.5t66.5 -144.5q0 -98 -66.5 -185t-173.5 -145t-240.5 -91.5t-268.5 -33.5zM270 -291q0 -143 246 -143
q132 0 258.5 37t211.5 107.5t85 154.5q0 53 -35 76.5t-112 23.5q-157 0 -394 -63q-134 -35 -197 -80t-63 -113zM369 643q0 -145 67.5 -229t184.5 -84q120 0 188 84t68 229t-68 228t-188 83q-117 0 -184.5 -83t-67.5 -228zM543 1190l209 371h47l-88 -371h-168z" />
    <glyph glyph-name="Hcircumflex" unicode="&#x124;" horiz-adv-x="1640" 
d="M100 0v10q74 30 96.5 85t22.5 179v1002q0 130 -22 182t-97 82v10h463v-10q-74 -30 -95.5 -81.5t-21.5 -182.5v-424h748v424q0 131 -21.5 182.5t-95.5 81.5v10h461v-10q-74 -30 -95.5 -81.5t-21.5 -182.5v-1002q0 -125 22 -180t95 -84v-10h-461v10q73 29 95 84t22 180v494
h-748v-494q0 -125 22 -180t95 -84v-10h-463zM504 1692l266 288h100l267 -288h-88l-228 184l-229 -184h-88z" />
    <glyph glyph-name="hcircumflex" unicode="&#x125;" horiz-adv-x="1241" 
d="M61 0v10q69 29 90 84t21 180v1049q0 104 -19.5 151t-78.5 76v9l313 45l10 -9q-18 -77 -18 -272v-549q51 117 150 189.5t237 72.5q315 0 315 -370v-392q0 -126 19 -180.5t84 -83.5v-10h-406v10q60 29 77 83t17 181v381q0 138 -50 202.5t-152 64.5q-109 0 -185.5 -75
t-105.5 -190v-383q0 -125 20 -180t86 -84v-10h-424zM133 1739l266 289h101l266 -289h-88l-227 184l-230 -184h-88z" />
    <glyph glyph-name="Hbar" unicode="&#x126;" horiz-adv-x="1640" 
d="M-2 1200v76h221q0 130 -22 182t-97 82v10h463v-10q-74 -30 -95.5 -81.5t-21.5 -182.5h748q0 131 -21.5 182.5t-95.5 81.5v10h461v-10q-74 -30 -95.5 -81.5t-21.5 -182.5h221v-76h-221v-926q0 -125 22 -180t95 -84v-10h-461v10q73 29 95 84t22 180v494h-748v-494
q0 -125 22 -180t95 -84v-10h-463v10q74 30 96.5 85t22.5 179v926h-221zM446 852h748v348h-748v-348z" />
    <glyph glyph-name="hbar" unicode="&#x127;" horiz-adv-x="1241" 
d="M61 0v10q69 29 90 84t21 180v949h-231v63h231v37q0 104 -19.5 151t-78.5 76v9l313 45l10 -9q-18 -77 -18 -272v-37h424v-63h-424v-449q51 117 150 189.5t237 72.5q315 0 315 -370v-392q0 -126 19 -180.5t84 -83.5v-10h-406v10q60 29 77 83t17 181v381q0 138 -50 202.5
t-152 64.5q-109 0 -185.5 -75t-105.5 -190v-383q0 -125 20 -180t86 -84v-10h-424z" />
    <glyph glyph-name="Itilde" unicode="&#x128;" horiz-adv-x="665" 
d="M100 0v10q74 30 96.5 85t22.5 179v1002q0 130 -22 182t-97 82v10h463v-10q-74 -30 -95.5 -81.5t-21.5 -182.5v-1002q0 -125 22 -180t95 -84v-10h-463zM14 1696q0 141 48.5 210.5t134.5 69.5q44 0 79.5 -18t58.5 -44t44.5 -52t50 -44t62.5 -18q51 0 71 37t23 123h63
q0 -281 -176 -281q-46 0 -83 18.5t-60.5 44.5t-45 52.5t-49 45t-61.5 18.5q-52 0 -73 -41t-23 -121h-64z" />
    <glyph glyph-name="itilde" unicode="&#x129;" horiz-adv-x="522" 
d="M51 0v10q66 30 86.5 84.5t20.5 179.5v457q0 131 -19 182.5t-86 81.5v11l164 2l150 8v-742q0 -126 19 -180.5t85 -83.5v-10h-420zM-57 1198q-3 161 44.5 242.5t129.5 81.5q46 0 82 -21.5t59.5 -53t45.5 -62.5t51 -52.5t65 -21.5q52 0 73.5 48.5t18.5 149.5h55
q5 -325 -166 -325q-48 0 -85 21t-61 50.5t-45.5 59t-50 50.5t-63.5 21q-103 0 -96 -188h-57z" />
    <glyph glyph-name="Imacron" unicode="&#x12a;" horiz-adv-x="665" 
d="M100 0v10q74 30 96.5 85t22.5 179v1002q0 130 -22 182t-97 82v10h463v-10q-74 -30 -95.5 -81.5t-21.5 -182.5v-1002q0 -125 22 -180t95 -84v-10h-463zM-16 1769v80h702v-80h-702z" />
    <glyph glyph-name="imacron" unicode="&#x12b;" horiz-adv-x="522" 
d="M51 0v10q66 30 86.5 84.5t20.5 179.5v457q0 131 -19 182.5t-86 81.5v11l164 2l150 8v-742q0 -126 19 -180.5t85 -83.5v-10h-420zM-68 1251v84h650v-84h-650z" />
    <glyph glyph-name="Iogonek" unicode="&#x12e;" horiz-adv-x="665" 
d="M100 0v10q74 30 96.5 85t22.5 179v1002q0 130 -22 182t-97 82v10h463v-10q-74 -30 -95.5 -81.5t-21.5 -182.5v-1002q0 -125 22 -180t95 -84v-10h-123q-68 -45 -117 -114t-49 -158q0 -61 32 -95t85 -34q38 0 72.5 23t56.5 63v-60q-62 -108 -182 -108q-78 0 -132 47
t-54 137q0 98 63 174t154 125h-269z" />
    <glyph glyph-name="iogonek" unicode="&#x12f;" horiz-adv-x="522" 
d="M51 0v10q66 30 86.5 84.5t20.5 179.5v457q0 131 -19 182.5t-86 81.5v11l164 2l150 8v-742q0 -126 19 -180.5t85 -83.5v-10h-84q-68 -45 -117 -114t-49 -158q0 -61 32 -95t85 -34q38 0 72.5 23t56.5 63v-60q-62 -108 -182 -108q-78 0 -132.5 47t-54.5 137q0 98 63 174
t154 125h-264zM152 1253v232h213v-232h-213z" />
    <glyph glyph-name="Idotaccent" unicode="&#x130;" horiz-adv-x="665" 
d="M100 0v10q74 30 96.5 85t22.5 179v1002q0 130 -22 182t-97 82v10h463v-10q-74 -30 -95.5 -81.5t-21.5 -182.5v-1002q0 -125 22 -180t95 -84v-10h-463zM215 1714v215h238v-215h-238z" />
    <glyph glyph-name="dotlessi" unicode="&#x131;" horiz-adv-x="522" 
d="M51 0v10q66 30 86.5 84.5t20.5 179.5v457q0 131 -19 182.5t-86 81.5v11l164 2l150 8v-742q0 -126 19 -180.5t85 -83.5v-10h-420z" />
    <glyph glyph-name="IJ" unicode="&#x132;" horiz-adv-x="1345" 
d="M100 0v10q74 30 96.5 85t22.5 179v1002q0 130 -22 182t-97 82v10h463v-10q-74 -30 -95.5 -81.5t-21.5 -182.5v-1002q0 -125 22 -180t95 -84v-10h-463zM688 -301v76q127 29 173 120.5t46 305.5v1075q0 131 -21 182.5t-95 81.5v10h460v-10q-74 -30 -95 -81.5t-21 -182.5
v-1071q0 -238 -112 -361.5t-335 -144.5z" />
    <glyph glyph-name="ij" unicode="&#x133;" horiz-adv-x="1042" 
d="M51 0v10q66 30 86.5 84.5t20.5 179.5v457q0 131 -19 182.5t-86 81.5v11l164 2l150 8v-742q0 -126 19 -180.5t85 -83.5v-10h-420zM152 1253v232h213v-232h-213zM477 -502v64q122 14 167.5 87.5t45.5 227.5v854q0 130 -19 182t-85 82v11l164 2l147 8v-1094
q0 -194 -107.5 -305.5t-312.5 -118.5zM668 1253v232h213v-232h-213z" />
    <glyph glyph-name="Jcircumflex" unicode="&#x134;" horiz-adv-x="679" 
d="M23 -225q127 29 173 120.5t46 305.5v1075q0 131 -21.5 182.5t-95.5 81.5v10h461v-10q-74 -30 -95.5 -81.5t-21.5 -182.5v-1071q0 -238 -111.5 -361.5t-334.5 -144.5v76zM35 1692l266 288h100l267 -288h-88l-228 184l-229 -184h-88z" />
    <glyph glyph-name="jcircumflex" unicode="&#x135;" horiz-adv-x="524" 
d="M-41 -438q122 14 167.5 87.5t45.5 227.5v854q0 130 -19 182t-85 82v11l163 2l148 8v-1094q0 -194 -107.5 -305.5t-312.5 -118.5v64zM-35 1186l246 334h90l246 -334h-80l-211 215l-209 -215h-82z" />
    <glyph glyph-name="uni0136" unicode="&#x136;" horiz-adv-x="1423" 
d="M100 0v10q74 30 96.5 85t22.5 179v1002q0 130 -22 182t-97 82v10h463v-10q-74 -30 -95.5 -81.5t-21.5 -182.5v-506l543 578q94 99 152 202h268v-18q-81 -22 -135.5 -52.5t-108.5 -86.5l-456 -469l729 -912v-12h-273l-587 791l-132 -136v-381q0 -125 22 -180t95 -84v-10
h-463zM590 -483l125 360h178l-262 -377z" />
    <glyph glyph-name="uni0137" unicode="&#x137;" horiz-adv-x="1105" 
d="M850 0l-471 535v-261q0 -125 20 -180t86 -84v-10h-424v10q69 29 90 84t21 180v1049q0 107 -17.5 153.5t-74.5 73.5v9l307 45l10 -9q-18 -73 -18 -272v-733l303 252q38 32 60.5 63.5t24.5 53.5t-9 36v6h291v-14q-61 -19 -110.5 -47.5t-117.5 -85.5l-295 -242l568 -598v-14
h-244zM399 -483l125 360h178l-262 -377z" />
    <glyph glyph-name="Lacute" unicode="&#x139;" horiz-adv-x="1200" 
d="M102 0v10q72 30 94.5 85t22.5 179v1002q0 130 -22 182t-95 82v10h461v-10q-74 -30 -95.5 -81.5t-21.5 -182.5v-1190h201q114 0 233 30t283 93v-209h-1061zM279 1692l188 288h203l-320 -288h-71z" />
    <glyph glyph-name="lacute" unicode="&#x13a;" horiz-adv-x="548" 
d="M61 0v10q69 29 90 84t21 180v1049q0 104 -19.5 151t-78.5 76v9l313 45l10 -9q-18 -77 -18 -272v-1049q0 -125 20 -180t86 -84v-10h-424zM238 1739l188 289h203l-320 -289h-71z" />
    <glyph glyph-name="uni013B" unicode="&#x13b;" horiz-adv-x="1200" 
d="M102 0v10q72 30 94.5 85t22.5 179v1002q0 130 -22 182t-95 82v10h461v-10q-74 -30 -95.5 -81.5t-21.5 -182.5v-1190h201q114 0 233 30t283 93v-209h-1061zM440 -483l125 360h178l-262 -377z" />
    <glyph glyph-name="uni013C" unicode="&#x13c;" horiz-adv-x="548" 
d="M61 0v10q69 29 90 84t21 180v1049q0 104 -19.5 151t-78.5 76v9l313 45l10 -9q-18 -77 -18 -272v-1049q0 -125 20 -180t86 -84v-10h-424zM59 -483l125 360h178l-262 -377z" />
    <glyph glyph-name="Lcaron" unicode="&#x13d;" horiz-adv-x="1200" 
d="M102 0v10q72 30 94.5 85t22.5 179v1002q0 130 -22 182t-95 82v10h461v-10q-74 -30 -95.5 -81.5t-21.5 -182.5v-1190h201q114 0 233 30t283 93v-209h-1061zM715 1069l80 481h161l-186 -481h-55z" />
    <glyph glyph-name="lcaron" unicode="&#x13e;" horiz-adv-x="548" 
d="M61 0v10q69 29 90 84t21 180v1049q0 104 -19.5 151t-78.5 76v9l313 45l10 -9q-18 -77 -18 -272v-1049q0 -125 20 -180t86 -84v-10h-424zM510 1116l80 481h162l-187 -481h-55z" />
    <glyph glyph-name="Ldot" unicode="&#x13f;" horiz-adv-x="1200" 
d="M102 0v10q72 30 94.5 85t22.5 179v1002q0 130 -22 182t-95 82v10h461v-10q-74 -30 -95.5 -81.5t-21.5 -182.5v-1190h201q114 0 233 30t283 93v-209h-1061zM807 678v215h174v-215h-174z" />
    <glyph glyph-name="ldot" unicode="&#x140;" horiz-adv-x="729" 
d="M61 0v10q69 29 90 84t21 180v1049q0 104 -19.5 151t-78.5 76v9l313 45l10 -9q-18 -77 -18 -272v-1049q0 -125 20 -180t86 -84v-10h-424zM537 709v241h204v-241h-204z" />
    <glyph glyph-name="Lslash" unicode="&#x141;" horiz-adv-x="1200" 
d="M102 0v10q72 30 94.5 85t22.5 179v365l-258 -141v80l258 141v557q0 130 -22 182t-95 82v10h461v-10q-74 -30 -95.5 -81.5t-21.5 -182.5v-432l404 221v-80l-404 -221v-678h201q114 0 233 30t283 93v-209h-1061z" />
    <glyph glyph-name="lslash" unicode="&#x142;" horiz-adv-x="548" 
d="M61 0v10q69 29 90 84t21 180v455l-182 -98v71l182 97v524q0 104 -19.5 151t-78.5 76v9l313 45l10 -9q-18 -77 -18 -272v-414l190 103v-70l-190 -102v-566q0 -125 20 -180t86 -84v-10h-424z" />
    <glyph glyph-name="Nacute" unicode="&#x143;" horiz-adv-x="1546" 
d="M1143 0l-832 1298v-1011q0 -131 25.5 -188.5t109.5 -88.5v-10h-346v10q67 31 87 88t20 189v989q0 130 -12.5 182t-55.5 82v10h262l834 -1300v1014q0 132 -23.5 188.5t-103.5 87.5v10h340v-10q-68 -31 -88.5 -88t-20.5 -188v-1264h-196zM748 1692l188 288h203l-320 -288
h-71z" />
    <glyph glyph-name="nacute" unicode="&#x144;" horiz-adv-x="1243" 
d="M68 0v10q66 29 85 83.5t19 180.5v453q0 131 -18.5 182.5t-83.5 81.5v10h352q-23 -30 -31 -78.5t-10 -152.5q51 118 150.5 192t238.5 74q315 0 315 -370v-392q0 -126 19 -180.5t84 -83.5v-10h-406v10q60 29 77.5 83.5t17.5 180.5v381q0 138 -50.5 202.5t-152.5 64.5
q-110 0 -187.5 -78t-105.5 -195v-375q0 -126 18.5 -180.5t81.5 -83.5v-10h-413zM598 1186l203 362h182l-332 -362h-53z" />
    <glyph glyph-name="uni0145" unicode="&#x145;" horiz-adv-x="1546" 
d="M1143 0l-832 1298v-1011q0 -131 25.5 -188.5t109.5 -88.5v-10h-346v10q67 31 87 88t20 189v989q0 130 -12.5 182t-55.5 82v10h262l834 -1300v1014q0 132 -23.5 188.5t-103.5 87.5v10h340v-10q-68 -31 -88.5 -88t-20.5 -188v-1264h-196zM553 -483l125 360h178l-262 -377z
" />
    <glyph glyph-name="uni0146" unicode="&#x146;" horiz-adv-x="1243" 
d="M68 0v10q66 29 85 83.5t19 180.5v453q0 131 -18.5 182.5t-83.5 81.5v10h352q-23 -30 -31 -78.5t-10 -152.5q51 118 150.5 192t238.5 74q315 0 315 -370v-392q0 -126 19 -180.5t84 -83.5v-10h-406v10q60 29 77.5 83.5t17.5 180.5v381q0 138 -50.5 202.5t-152.5 64.5
q-110 0 -187.5 -78t-105.5 -195v-375q0 -126 18.5 -180.5t81.5 -83.5v-10h-413zM416 -483l125 360h178l-262 -377z" />
    <glyph glyph-name="Ncaron" unicode="&#x147;" horiz-adv-x="1546" 
d="M1143 0l-832 1298v-1011q0 -131 25.5 -188.5t109.5 -88.5v-10h-346v10q67 31 87 88t20 189v989q0 130 -12.5 182t-55.5 82v10h262l834 -1300v1014q0 132 -23.5 188.5t-103.5 87.5v10h340v-10q-68 -31 -88.5 -88t-20.5 -188v-1264h-196zM459 1980h88l239 -182l238 182h90
l-280 -288h-97z" />
    <glyph glyph-name="ncaron" unicode="&#x148;" horiz-adv-x="1243" 
d="M68 0v10q66 29 85 83.5t19 180.5v453q0 131 -18.5 182.5t-83.5 81.5v10h352q-23 -30 -31 -78.5t-10 -152.5q51 118 150.5 192t238.5 74q315 0 315 -370v-392q0 -126 19 -180.5t84 -83.5v-10h-406v10q60 29 77.5 83.5t17.5 180.5v381q0 138 -50.5 202.5t-152.5 64.5
q-110 0 -187.5 -78t-105.5 -195v-375q0 -126 18.5 -180.5t81.5 -83.5v-10h-413zM324 1544h79l228 -237l227 237h82l-260 -358h-98z" />
    <glyph glyph-name="Eng" unicode="&#x14a;" horiz-adv-x="1544" 
d="M1147 0l-842 1298v-1011q0 -132 24.5 -189t108.5 -88v-10h-338v10q67 31 87 88t20 189v989q0 130 -12.5 182t-55.5 82v10h254l846 -1300v1014q0 132 -23.5 188.5t-103.5 87.5v10h332v-10q-66 -31 -86.5 -88t-20.5 -188v-1225q0 -224 -96.5 -332.5t-294.5 -130.5v70
q149 25 220 110t71 244h-90z" />
    <glyph glyph-name="eng" unicode="&#x14b;" horiz-adv-x="1226" 
d="M707 -389q98 52 134 126t36 218v700q0 138 -51 202.5t-154 64.5q-108 0 -183 -74.5t-106 -192.5v-381q0 -126 18.5 -180.5t81.5 -83.5v-10h-413v10q65 29 84.5 84t19.5 180v453q0 130 -19 182t-85 82v10h354q-24 -32 -32.5 -82t-8.5 -159q49 123 148 199.5t239 76.5
q315 0 315 -370v-711q0 -84 -26.5 -149t-78.5 -111t-111 -77.5t-142 -61.5z" />
    <glyph glyph-name="Omacron" unicode="&#x14c;" horiz-adv-x="1826" 
d="M915 -35q-244 0 -434 101t-294.5 284.5t-104.5 421.5q0 177 61 326.5t170 254t264 162.5t338 58q181 0 335.5 -58t263.5 -162.5t170 -254.5t61 -328q0 -237 -105 -420.5t-294 -284t-431 -100.5zM326 770q0 -210 69.5 -372t204 -254.5t315.5 -92.5q179 0 313 92.5
t203.5 255t69.5 373.5q0 209 -69.5 371t-203.5 254t-313 92q-181 0 -315.5 -92.5t-204 -254.5t-69.5 -372zM565 1780v80h703v-80h-703z" />
    <glyph glyph-name="omacron" unicode="&#x14d;" horiz-adv-x="1212" 
d="M606 -35q-238 0 -383 147.5t-145 389.5q0 241 145 387.5t383 146.5q239 0 384 -146t145 -388t-145 -389.5t-384 -147.5zM281 1251v84h649v-84h-649zM291 502q0 -217 83 -338t234 -121q149 0 232.5 121.5t83.5 337.5q0 215 -83.5 335.5t-232.5 120.5q-152 0 -234.5 -120
t-82.5 -336z" />
    <glyph glyph-name="Ohungarumlaut" unicode="&#x150;" horiz-adv-x="1826" 
d="M915 -35q-244 0 -434 101t-294.5 284.5t-104.5 421.5q0 177 61 326.5t170 254t264 162.5t338 58q181 0 335.5 -58t263.5 -162.5t170 -254.5t61 -328q0 -237 -105 -420.5t-294 -284t-431 -100.5zM326 770q0 -210 69.5 -372t204 -254.5t315.5 -92.5q179 0 313 92.5
t203.5 255t69.5 373.5q0 209 -69.5 371t-203.5 254t-313 92q-181 0 -315.5 -92.5t-204 -254.5t-69.5 -372zM750 1692l168 286h165l-276 -286h-57zM1024 1692l193 286h167l-301 -286h-59z" />
    <glyph glyph-name="ohungarumlaut" unicode="&#x151;" horiz-adv-x="1212" 
d="M606 -35q-238 0 -383 147.5t-145 389.5q0 241 145 387.5t383 146.5q239 0 384 -146t145 -388t-145 -389.5t-384 -147.5zM291 502q0 -217 83 -338t234 -121q149 0 232.5 121.5t83.5 337.5q0 215 -83.5 335.5t-232.5 120.5q-152 0 -234.5 -120t-82.5 -336zM432 1186
l172 362h166l-278 -362h-60zM723 1186l176 362h168l-285 -362h-59z" />
    <glyph glyph-name="OE" unicode="&#x152;" horiz-adv-x="2193" 
d="M981 0q-265 0 -468 93t-317 269.5t-114 413.5q0 238 114 414.5t316.5 268t468.5 91.5h1114v-180q-283 98 -502 98h-180v-618h146q274 0 432 4v-90q-158 6 -432 6h-146v-688h205q146 0 261.5 19t262.5 85v-186h-1161zM326 776q0 -326 180.5 -510t499.5 -184h180v1386h-180
q-320 0 -500 -182.5t-180 -509.5z" />
    <glyph glyph-name="oe" unicode="&#x153;" horiz-adv-x="1945" 
d="M580 -35q-226 0 -364 148t-138 389t138 387.5t364 146.5q141 0 250.5 -59.5t173.5 -167.5q64 109 170 168t235 59q205 0 329.5 -127.5t129.5 -330.5h-750v-41q0 -200 85 -325.5t249 -125.5q135 0 219.5 83t118.5 224h82q-35 -194 -154.5 -311t-314.5 -117
q-132 0 -237 57.5t-167 163.5q-65 -105 -173 -163t-246 -58zM281 502q0 -217 78.5 -338t222.5 -121q141 0 220 121.5t79 337.5q0 215 -79 335.5t-220 120.5q-144 0 -222.5 -120t-78.5 -336zM1126 651h549q-9 137 -77.5 223.5t-188.5 86.5q-113 0 -187 -83.5t-96 -226.5z" />
    <glyph glyph-name="Racute" unicode="&#x154;" horiz-adv-x="1388" 
d="M1116 0l-514 766h-156v-492q0 -125 23.5 -180t101.5 -84v-10h-469v10q72 30 94.5 85t22.5 179v1002q0 130 -22 182t-95 82v10h574q592 0 592 -376q0 -120 -61 -206.5t-163 -131t-241 -56.5l583 -768v-12h-270zM446 846h154q78 0 143 10.5t120.5 35t94 61.5t60.5 92.5
t22 125.5q0 297 -407 297h-187v-622zM662 1692l188 288h203l-320 -288h-71z" />
    <glyph glyph-name="racute" unicode="&#x155;" horiz-adv-x="831" 
d="M70 0v10q65 29 84.5 84t19.5 180v453q0 130 -19 182t-85 82v10h352q-24 -33 -31.5 -88.5t-7.5 -185.5v-47q13 60 45.5 116.5t83 106t126 80t163.5 31.5v-176q-212 8 -314 -78.5t-104 -231.5v-266q0 -120 22 -172.5t97 -81.5v-8h-432zM420 1186l203 362h182l-332 -362h-53
z" />
    <glyph glyph-name="uni0156" unicode="&#x156;" horiz-adv-x="1388" 
d="M1116 0l-514 766h-156v-492q0 -125 23.5 -180t101.5 -84v-10h-469v10q72 30 94.5 85t22.5 179v1002q0 130 -22 182t-95 82v10h574q592 0 592 -376q0 -120 -61 -206.5t-163 -131t-241 -56.5l583 -768v-12h-270zM446 846h154q78 0 143 10.5t120.5 35t94 61.5t60.5 92.5
t22 125.5q0 297 -407 297h-187v-622zM596 -483l125 360h178l-262 -377z" />
    <glyph glyph-name="uni0157" unicode="&#x157;" horiz-adv-x="831" 
d="M70 0v10q65 29 84.5 84t19.5 180v453q0 130 -19 182t-85 82v10h352q-24 -33 -31.5 -88.5t-7.5 -185.5v-47q13 60 45.5 116.5t83 106t126 80t163.5 31.5v-176q-212 8 -314 -78.5t-104 -231.5v-266q0 -120 22 -172.5t97 -81.5v-8h-432zM66 -483l124 360h179l-263 -377z" />
    <glyph glyph-name="Rcaron" unicode="&#x158;" horiz-adv-x="1388" 
d="M1116 0l-514 766h-156v-492q0 -125 23.5 -180t101.5 -84v-10h-469v10q72 30 94.5 85t22.5 179v1002q0 130 -22 182t-95 82v10h574q592 0 592 -376q0 -120 -61 -206.5t-163 -131t-241 -56.5l583 -768v-12h-270zM373 1980h88l239 -182l238 182h90l-280 -288h-97zM446 846
h154q78 0 143 10.5t120.5 35t94 61.5t60.5 92.5t22 125.5q0 297 -407 297h-187v-622z" />
    <glyph glyph-name="rcaron" unicode="&#x159;" horiz-adv-x="831" 
d="M70 0v10q65 29 84.5 84t19.5 180v453q0 130 -19 182t-85 82v10h352q-24 -33 -31.5 -88.5t-7.5 -185.5v-47q13 60 45.5 116.5t83 106t126 80t163.5 31.5v-176q-212 8 -314 -78.5t-104 -231.5v-266q0 -120 22 -172.5t97 -81.5v-8h-432zM143 1544h80l228 -237l227 237h82
l-260 -358h-99z" />
    <glyph glyph-name="Sacute" unicode="&#x15a;" horiz-adv-x="1249" 
d="M659 -33q-252 0 -417.5 138t-192.5 389h215q10 -96 38.5 -175.5t76 -140.5t120.5 -95t165 -34q137 0 220 71t83 195q0 37 -9.5 70t-23 59.5t-43.5 56t-56 51t-76.5 53t-89 53.5t-108.5 61q-88 48 -142 80.5t-116 79.5t-96 90t-57 101t-23 124q0 177 133 279t342 102
q222 0 372.5 -115t188.5 -327h-211q-19 164 -108.5 262.5t-239.5 99.5q-130 1 -204 -62t-74 -169q0 -36 9 -67.5t23 -57.5t42.5 -54t54.5 -48.5t73 -49t83.5 -49t99.5 -53.5q59 -32 96.5 -53.5t86.5 -51.5t79 -54t65 -55t55.5 -61.5t39 -67t26.5 -77t8 -86.5
q0 -190 -140.5 -301t-367.5 -111zM565 1690l189 288h202l-319 -288h-72z" />
    <glyph glyph-name="sacute" unicode="&#x15b;" horiz-adv-x="1007" 
d="M539 -35q-200 0 -328 100.5t-148 270.5h189q12 -138 86 -216.5t203 -78.5q96 0 154.5 42.5t58.5 115.5q0 32 -12.5 59t-35.5 48t-59 41.5t-78.5 39.5t-98.5 43l-15 6q-50 21 -78 33.5t-70 33.5t-65.5 37.5t-51.5 41.5t-42.5 50.5t-24.5 58.5t-10 71q0 128 105 201t276 73
q176 0 289.5 -82.5t142.5 -230.5h-189q-14 110 -77.5 175t-172.5 65q-89 0 -141.5 -39t-52.5 -105q0 -74 64 -120.5t221 -108.5q90 -36 145.5 -63.5t109 -67.5t78.5 -90.5t25 -114.5q0 -138 -111.5 -213.5t-285.5 -75.5zM463 1186l203 362h182l-332 -362h-53z" />
    <glyph glyph-name="Scircumflex" unicode="&#x15c;" horiz-adv-x="1249" 
d="M659 -33q-252 0 -417.5 138t-192.5 389h215q10 -96 38.5 -175.5t76 -140.5t120.5 -95t165 -34q137 0 220 71t83 195q0 37 -9.5 70t-23 59.5t-43.5 56t-56 51t-76.5 53t-89 53.5t-108.5 61q-88 48 -142 80.5t-116 79.5t-96 90t-57 101t-23 124q0 177 133 279t342 102
q222 0 372.5 -115t188.5 -327h-211q-19 164 -108.5 262.5t-239.5 99.5q-130 1 -204 -62t-74 -169q0 -36 9 -67.5t23 -57.5t42.5 -54t54.5 -48.5t73 -49t83.5 -49t99.5 -53.5q59 -32 96.5 -53.5t86.5 -51.5t79 -54t65 -55t55.5 -61.5t39 -67t26.5 -77t8 -86.5
q0 -190 -140.5 -301t-367.5 -111zM287 1690l266 288h100l267 -288h-89l-227 184l-229 -184h-88z" />
    <glyph glyph-name="scircumflex" unicode="&#x15d;" horiz-adv-x="1007" 
d="M539 -35q-200 0 -328 100.5t-148 270.5h189q12 -138 86 -216.5t203 -78.5q96 0 154.5 42.5t58.5 115.5q0 32 -12.5 59t-35.5 48t-59 41.5t-78.5 39.5t-98.5 43l-15 6q-50 21 -78 33.5t-70 33.5t-65.5 37.5t-51.5 41.5t-42.5 50.5t-24.5 58.5t-10 71q0 128 105 201t276 73
q176 0 289.5 -82.5t142.5 -230.5h-189q-14 110 -77.5 175t-172.5 65q-89 0 -141.5 -39t-52.5 -105q0 -74 64 -120.5t221 -108.5q90 -36 145.5 -63.5t109 -67.5t78.5 -90.5t25 -114.5q0 -138 -111.5 -213.5t-285.5 -75.5zM207 1186l246 334h90l245 -334h-79l-211 215
l-209 -215h-82z" />
    <glyph glyph-name="Scedilla" unicode="&#x15e;" horiz-adv-x="1249" 
d="M647 -506q-87 0 -158.5 32t-111.5 93l41 41q63 -100 200 -100q64 0 105 25.5t41 80.5q0 52 -38 80.5t-103 28.5q-51 0 -95 -17l-32 35l131 174q-239 9 -395.5 147t-182.5 380h215q10 -96 38.5 -175.5t76 -140.5t120.5 -95t165 -34q137 0 220 71t83 195q0 37 -9.5 70
t-23 59.5t-43.5 56t-56 51t-76.5 53t-89 53.5t-108.5 61q-88 48 -142 80.5t-116 79.5t-96 90t-57 101t-23 124q0 177 133 279t342 102q222 0 372.5 -115t188.5 -327h-211q-19 164 -108.5 262.5t-239.5 99.5q-130 1 -204 -62t-74 -169q0 -36 9 -67.5t23 -57.5t42.5 -54
t54.5 -48.5t73 -49t83.5 -49t99.5 -53.5q59 -32 96.5 -53.5t86.5 -51.5t79 -54t65 -55t55.5 -61.5t39 -67t26.5 -77t8 -86.5q0 -180 -126.5 -289.5t-333.5 -120.5l-86 -114q32 4 57 4q96 0 155.5 -47.5t59.5 -128.5q0 -64 -38.5 -108.5t-92 -62.5t-115.5 -18z" />
    <glyph glyph-name="scedilla" unicode="&#x15f;" horiz-adv-x="1007" 
d="M510 -504q-87 0 -158.5 32t-111.5 93l41 41q63 -100 200 -100q64 0 105 25.5t41 80.5q0 52 -38.5 80.5t-103.5 28.5q-50 0 -94 -17l-33 35l129 172q-180 13 -292.5 111.5t-131.5 257.5h189q12 -138 86 -216.5t203 -78.5q96 0 154.5 42.5t58.5 115.5q0 32 -12.5 59
t-35.5 48t-59 41.5t-78.5 39.5t-98.5 43l-15 6q-50 21 -78 33.5t-70 33.5t-65.5 37.5t-51.5 41.5t-42.5 50.5t-24.5 58.5t-10 71q0 128 105 201t276 73q176 0 289.5 -82.5t142.5 -230.5h-189q-14 110 -77.5 175t-172.5 65q-89 0 -141.5 -39t-52.5 -105q0 -74 64 -120.5
t221 -108.5q90 -36 145.5 -63.5t109 -67.5t78.5 -90.5t25 -114.5q0 -132 -103 -207.5t-268 -81.5l-82 -108q32 4 58 4q96 0 155.5 -47.5t59.5 -128.5q0 -64 -38.5 -108.5t-92 -62.5t-115.5 -18z" />
    <glyph glyph-name="Scaron" unicode="&#x160;" horiz-adv-x="1249" 
d="M659 -33q-252 0 -417.5 138t-192.5 389h215q10 -96 38.5 -175.5t76 -140.5t120.5 -95t165 -34q137 0 220 71t83 195q0 37 -9.5 70t-23 59.5t-43.5 56t-56 51t-76.5 53t-89 53.5t-108.5 61q-88 48 -142 80.5t-116 79.5t-96 90t-57 101t-23 124q0 177 133 279t342 102
q222 0 372.5 -115t188.5 -327h-211q-19 164 -108.5 262.5t-239.5 99.5q-130 1 -204 -62t-74 -169q0 -36 9 -67.5t23 -57.5t42.5 -54t54.5 -48.5t73 -49t83.5 -49t99.5 -53.5q59 -32 96.5 -53.5t86.5 -51.5t79 -54t65 -55t55.5 -61.5t39 -67t26.5 -77t8 -86.5
q0 -190 -140.5 -301t-367.5 -111zM276 1978h89l239 -182l238 182h90l-281 -288h-96z" />
    <glyph glyph-name="scaron" unicode="&#x161;" horiz-adv-x="1007" 
d="M539 -35q-200 0 -328 100.5t-148 270.5h189q12 -138 86 -216.5t203 -78.5q96 0 154.5 42.5t58.5 115.5q0 32 -12.5 59t-35.5 48t-59 41.5t-78.5 39.5t-98.5 43l-15 6q-50 21 -78 33.5t-70 33.5t-65.5 37.5t-51.5 41.5t-42.5 50.5t-24.5 58.5t-10 71q0 128 105 201t276 73
q176 0 289.5 -82.5t142.5 -230.5h-189q-14 110 -77.5 175t-172.5 65q-89 0 -141.5 -39t-52.5 -105q0 -74 64 -120.5t221 -108.5q90 -36 145.5 -63.5t109 -67.5t78.5 -90.5t25 -114.5q0 -138 -111.5 -213.5t-285.5 -75.5zM188 1544h80l228 -237l227 237h82l-260 -358h-99z
" />
    <glyph glyph-name="uni0162" unicode="&#x162;" horiz-adv-x="1294" 
d="M35 1358v192h1225v-192q-145 46 -202.5 63.5t-138 34.5t-139.5 17h-18v-1199q0 -125 22 -180t95 -84v-10h-185l-100 -135q32 4 57 4q96 0 155.5 -47.5t59.5 -128.5q0 -64 -38.5 -108.5t-91.5 -62.5t-115 -18q-87 0 -159 32t-112 93l41 41q29 -46 81 -73t120 -27
q64 0 104.5 25.5t40.5 80.5q0 52 -38 80.5t-103 28.5q-53 0 -94 -16l-33 34l147 197h-198v10q72 30 94.5 85t22.5 179v1199h-17q-56 0 -131 -15.5t-126 -30t-187 -57.5z" />
    <glyph glyph-name="uni0163" unicode="&#x163;" horiz-adv-x="827" 
d="M10 920v81h207v275l203 151h6v-426h334v-81h-334v-598q0 -122 41 -171t119 -49q141 0 217 164l22 -57q-44 -103 -121 -162t-172 -65l-86 -117q32 4 58 4q96 0 155.5 -47.5t59.5 -128.5q0 -64 -38.5 -108.5t-92 -62.5t-115.5 -18q-87 0 -158.5 32t-111.5 93l41 41
q63 -100 200 -100q64 0 105 25.5t41 80.5q0 52 -38 80.5t-103 28.5q-54 0 -95 -16l-32 34l133 179q-238 32 -238 335v603h-207z" />
    <glyph glyph-name="Tcaron" unicode="&#x164;" horiz-adv-x="1294" 
d="M35 1358v192h1225v-192q-145 46 -202.5 63.5t-138 34.5t-139.5 17h-18v-1199q0 -125 22 -180t95 -84v-10h-461v10q72 30 94.5 85t22.5 179v1199h-17q-56 0 -131 -15.5t-126 -30t-187 -57.5zM319 1980h89l239 -182l238 182h90l-281 -288h-96z" />
    <glyph glyph-name="tcaron" unicode="&#x165;" horiz-adv-x="831" 
d="M506 -20q-289 0 -289 337v603h-207v81h207v275l203 151h6v-426h334v-81h-334v-598q0 -122 41 -171t119 -49q141 0 217 164l22 -57q-47 -110 -130.5 -169.5t-188.5 -59.5zM578 1202l77 404h162l-184 -404h-55z" />
    <glyph glyph-name="Tbar" unicode="&#x166;" horiz-adv-x="1294" 
d="M35 1358v192h1225v-192q-145 46 -202.5 63.5t-138 34.5t-139.5 17h-18v-644h336v-75h-336v-480q0 -125 22 -180t95 -84v-10h-461v10q72 30 94.5 85t22.5 179v480h-336v75h336v644h-17q-56 0 -131 -15.5t-126 -30t-187 -57.5z" />
    <glyph glyph-name="tbar" unicode="&#x167;" horiz-adv-x="831" 
d="M12 604v66h209v250h-207v81h207v275l203 151h6v-426h334v-81h-334v-250h346v-66h-346v-282q0 -122 41 -171t119 -49q141 0 217 164l22 -57q-47 -110 -130.5 -169.5t-188.5 -59.5q-289 0 -289 337v287h-209z" />
    <glyph glyph-name="Utilde" unicode="&#x168;" horiz-adv-x="1540" 
d="M782 -33q-138 0 -241.5 34t-184 111.5t-122 212.5t-41.5 326v625q0 131 -21.5 182.5t-95.5 81.5v10h461v-10q-74 -30 -95.5 -81.5t-21.5 -182.5v-627q0 -305 95.5 -441t305.5 -136q212 0 316 136.5t104 440.5v627q0 131 -21.5 182.5t-95.5 81.5v10h340v-10
q-74 -30 -95 -81.5t-21 -182.5v-625q0 -358 -141.5 -521t-424.5 -163zM512 1706q0 141 48 211t134 70q44 0 79.5 -18t58.5 -44.5t44.5 -52.5t50 -44t62.5 -18q51 0 71 37t23 123h64q0 -280 -176 -280q-46 0 -83 18.5t-60.5 44.5t-45 52t-49 44.5t-61.5 18.5q-52 0 -73.5 -41
t-23.5 -121h-63z" />
    <glyph glyph-name="utilde" unicode="&#x169;" horiz-adv-x="1245" 
d="M475 -33q-315 0 -315 371v389q0 124 -19.5 179t-83.5 85v10h404v-10q-58 -29 -75 -83t-17 -181v-373q0 -141 48.5 -204.5t151.5 -63.5q114 0 191.5 85.5t101.5 221.5v334q0 126 -18 180.5t-78 83.5v10h410v-10q-66 -29 -85.5 -83.5t-19.5 -180.5v-453q0 -131 19 -182.5
t86 -81.5v-10h-345q18 32 24.5 85.5t6.5 170.5q-48 -126 -148 -207.5t-239 -81.5zM307 1198q-3 161 44.5 242.5t129.5 81.5q46 0 82 -21.5t59.5 -53t45.5 -62.5t51 -52.5t65 -21.5q52 0 74 48.5t19 149.5h55q5 -325 -166 -325q-48 0 -85 21t-61 50.5t-45.5 59t-50 50.5
t-63.5 21q-103 0 -96 -188h-58z" />
    <glyph glyph-name="Umacron" unicode="&#x16a;" horiz-adv-x="1540" 
d="M782 -33q-138 0 -241.5 34t-184 111.5t-122 212.5t-41.5 326v625q0 131 -21.5 182.5t-95.5 81.5v10h461v-10q-74 -30 -95.5 -81.5t-21.5 -182.5v-627q0 -305 95.5 -441t305.5 -136q212 0 316 136.5t104 440.5v627q0 131 -21.5 182.5t-95.5 81.5v10h340v-10
q-74 -30 -95 -81.5t-21 -182.5v-625q0 -358 -141.5 -521t-424.5 -163zM479 1780v80h703v-80h-703z" />
    <glyph glyph-name="umacron" unicode="&#x16b;" horiz-adv-x="1245" 
d="M475 -33q-315 0 -315 371v389q0 124 -19.5 179t-83.5 85v10h404v-10q-58 -29 -75 -83t-17 -181v-373q0 -141 48.5 -204.5t151.5 -63.5q114 0 191.5 85.5t101.5 221.5v334q0 126 -18 180.5t-78 83.5v10h410v-10q-66 -29 -85.5 -83.5t-19.5 -180.5v-453q0 -131 19 -182.5
t86 -81.5v-10h-345q18 32 24.5 85.5t6.5 170.5q-48 -126 -148 -207.5t-239 -81.5zM299 1251v84h649v-84h-649z" />
    <glyph glyph-name="Ubreve" unicode="&#x16c;" horiz-adv-x="1540" 
d="M782 -33q-138 0 -241.5 34t-184 111.5t-122 212.5t-41.5 326v625q0 131 -21.5 182.5t-95.5 81.5v10h461v-10q-74 -30 -95.5 -81.5t-21.5 -182.5v-627q0 -305 95.5 -441t305.5 -136q212 0 316 136.5t104 440.5v627q0 131 -21.5 182.5t-95.5 81.5v10h340v-10
q-74 -30 -95 -81.5t-21 -182.5v-625q0 -358 -141.5 -521t-424.5 -163zM522 1980h80q0 -87 56.5 -138.5t170.5 -51.5t171 51.5t57 138.5h78q0 -145 -82.5 -222t-223.5 -77t-224 77t-83 222z" />
    <glyph glyph-name="ubreve" unicode="&#x16d;" horiz-adv-x="1245" 
d="M475 -33q-315 0 -315 371v389q0 124 -19.5 179t-83.5 85v10h404v-10q-58 -29 -75 -83t-17 -181v-373q0 -141 48.5 -204.5t151.5 -63.5q114 0 191.5 85.5t101.5 221.5v334q0 126 -18 180.5t-78 83.5v10h410v-10q-66 -29 -85.5 -83.5t-19.5 -180.5v-453q0 -131 19 -182.5
t86 -81.5v-10h-345q18 32 24.5 85.5t6.5 170.5q-48 -126 -148 -207.5t-239 -81.5zM348 1516h74q0 -107 50.5 -165.5t152.5 -58.5q202 0 202 224h76q0 -156 -75 -243t-203 -87q-127 0 -202 87t-75 243z" />
    <glyph glyph-name="Uring" unicode="&#x16e;" horiz-adv-x="1540" 
d="M782 -33q-138 0 -241.5 34t-184 111.5t-122 212.5t-41.5 326v625q0 131 -21.5 182.5t-95.5 81.5v10h461v-10q-74 -30 -95.5 -81.5t-21.5 -182.5v-627q0 -305 95.5 -441t305.5 -136q212 0 316 136.5t104 440.5v627q0 131 -21.5 182.5t-95.5 81.5v10h340v-10
q-74 -30 -95 -81.5t-21 -182.5v-625q0 -358 -141.5 -521t-424.5 -163zM618 1855q0 86 58 139.5t153 53.5q94 0 152.5 -53.5t58.5 -139.5t-58.5 -138t-152.5 -52q-95 0 -153 52t-58 138zM684 1855q0 -61 40 -99t105 -38t104.5 38t39.5 99q0 63 -39.5 101.5t-104.5 38.5
t-105 -38.5t-40 -101.5z" />
    <glyph glyph-name="uring" unicode="&#x16f;" horiz-adv-x="1245" 
d="M475 -33q-315 0 -315 371v389q0 124 -19.5 179t-83.5 85v10h404v-10q-58 -29 -75 -83t-17 -181v-373q0 -141 48.5 -204.5t151.5 -63.5q114 0 191.5 85.5t101.5 221.5v334q0 126 -18 180.5t-78 83.5v10h410v-10q-66 -29 -85.5 -83.5t-19.5 -180.5v-453q0 -131 19 -182.5
t86 -81.5v-10h-345q18 32 24.5 85.5t6.5 170.5q-48 -126 -148 -207.5t-239 -81.5zM412 1384q0 88 58.5 143.5t152.5 55.5q95 0 155 -55.5t60 -143.5t-60 -143t-155 -55q-94 0 -152.5 55t-58.5 143zM479 1384q0 -64 39.5 -103.5t104.5 -39.5q66 0 104.5 39t38.5 104
t-38.5 104.5t-104.5 39.5q-65 0 -104.5 -40t-39.5 -104z" />
    <glyph glyph-name="Uhungarumlaut" unicode="&#x170;" horiz-adv-x="1540" 
d="M782 -33q-138 0 -241.5 34t-184 111.5t-122 212.5t-41.5 326v625q0 131 -21.5 182.5t-95.5 81.5v10h461v-10q-74 -30 -95.5 -81.5t-21.5 -182.5v-627q0 -305 95.5 -441t305.5 -136q212 0 316 136.5t104 440.5v627q0 131 -21.5 182.5t-95.5 81.5v10h340v-10
q-74 -30 -95 -81.5t-21 -182.5v-625q0 -358 -141.5 -521t-424.5 -163zM664 1692l167 286h166l-276 -286h-57zM938 1692l192 286h168l-301 -286h-59z" />
    <glyph glyph-name="uhungarumlaut" unicode="&#x171;" horiz-adv-x="1245" 
d="M475 -33q-315 0 -315 371v389q0 124 -19.5 179t-83.5 85v10h404v-10q-58 -29 -75 -83t-17 -181v-373q0 -141 48.5 -204.5t151.5 -63.5q114 0 191.5 85.5t101.5 221.5v334q0 126 -18 180.5t-78 83.5v10h410v-10q-66 -29 -85.5 -83.5t-19.5 -180.5v-453q0 -131 19 -182.5
t86 -81.5v-10h-345q18 32 24.5 85.5t6.5 170.5q-48 -126 -148 -207.5t-239 -81.5zM449 1186l172 362h165l-278 -362h-59zM739 1186l176 362h168l-284 -362h-60z" />
    <glyph glyph-name="Uogonek" unicode="&#x172;" horiz-adv-x="1540" 
d="M782 -33q-138 0 -241.5 34t-184 111.5t-122 212.5t-41.5 326v625q0 131 -21.5 182.5t-95.5 81.5v10h461v-10q-74 -30 -95.5 -81.5t-21.5 -182.5v-627q0 -305 95.5 -441t305.5 -136q212 0 316 136.5t104 440.5v627q0 131 -21.5 182.5t-95.5 81.5v10h340v-10
q-74 -30 -95 -81.5t-21 -182.5v-625q0 -280 -87 -440t-260 -213q-139 -108 -139 -254q0 -61 32 -95t85 -34q38 0 72.5 23t56.5 63v-59q-63 -109 -182 -109q-78 0 -132.5 47t-54.5 137q0 145 150 256q-50 -6 -107 -6z" />
    <glyph glyph-name="uogonek" unicode="&#x173;" horiz-adv-x="1245" 
d="M475 -33q-315 0 -315 371v389q0 124 -19.5 179t-83.5 85v10h404v-10q-58 -29 -75 -83t-17 -181v-373q0 -141 48.5 -204.5t151.5 -63.5q114 0 191.5 85.5t101.5 221.5v334q0 126 -18 180.5t-78 83.5v10h410v-10q-66 -29 -85.5 -83.5t-19.5 -180.5v-453q0 -131 19 -182.5
t86 -81.5v-10h-197q-68 -45 -117 -114t-49 -158q0 -61 32 -95t85 -34q38 0 72.5 23t56.5 63v-60q-62 -108 -182 -108q-78 0 -132.5 47t-54.5 137q0 98 63 174t154 125h-76q18 32 24.5 85.5t6.5 170.5q-48 -126 -148 -207.5t-239 -81.5z" />
    <glyph glyph-name="Wcircumflex" unicode="&#x174;" horiz-adv-x="2080" 
d="M145 1325q-33 98 -64.5 145t-82.5 70v10h461v-10q-69 -21 -81 -70t19 -139l305 -1020l345 1166h114l355 -1176l307 1030q31 96 20 143.5t-74 65.5v10h316v-10q-52 -19 -85.5 -66t-62.5 -143l-372 -1210q-21 -68 -21 -121h-145l-352 1147l-312 -1030q-20 -67 -20 -117
h-146zM791 1692l266 288h100l266 -288h-88l-227 184l-229 -184h-88z" />
    <glyph glyph-name="wcircumflex" unicode="&#x175;" horiz-adv-x="1591" 
d="M162 788q-37 100 -66.5 145t-77.5 58v10h402v-10q-42 -9 -58 -31.5t-13 -58t24 -96.5l194 -572l234 725h108l240 -731l190 572q33 87 25 133t-70 59v10h279v-10q-46 -22 -75.5 -63.5t-59.5 -128.5l-246 -695q-24 -77 -27 -104h-129l-239 729l-197 -618q-24 -67 -29 -111
h-129zM563 1186l246 334h90l246 -334h-80l-211 215l-209 -215h-82z" />
    <glyph glyph-name="Ycircumflex" unicode="&#x176;" horiz-adv-x="1323" 
d="M172 1384q-40 72 -72.5 105t-87.5 51v10h459v-10q-111 -30 -45 -162l311 -577l301 577q16 31 23 54.5t5 46t-18.5 38t-48.5 23.5v10h314v-10q-49 -18 -86 -54t-74 -106l-360 -675v-431q0 -126 21.5 -180.5t94.5 -83.5v-10h-465v10q73 29 95 84t22 180v426zM403 1692
l267 288h100l266 -288h-88l-227 184l-229 -184h-89z" />
    <glyph glyph-name="ycircumflex" unicode="&#x177;" horiz-adv-x="1075" 
d="M154 -500q-78 0 -134 29v170q65 -37 156 -37q114 0 197 78.5t157 259.5h-65l-291 748q-46 117 -76 168t-80 75v10h383v-10q-24 -9 -36.5 -23.5t-17 -30.5t1 -46.5t14 -58t26.5 -78.5l209 -580l211 580q41 103 40 159.5t-58 77.5v10h274v-10q-44 -19 -80 -75.5t-78 -161.5
l-291 -754q-106 -269 -209 -384.5t-253 -115.5zM301 1186l246 334h90l246 -334h-80l-211 215l-209 -215h-82z" />
    <glyph glyph-name="Ydieresis" unicode="&#x178;" horiz-adv-x="1323" 
d="M172 1384q-40 72 -72.5 105t-87.5 51v10h459v-10q-111 -30 -45 -162l311 -577l301 577q16 31 23 54.5t5 46t-18.5 38t-48.5 23.5v10h314v-10q-49 -18 -86 -54t-74 -106l-360 -675v-431q0 -126 21.5 -180.5t94.5 -83.5v-10h-465v10q73 29 95 84t22 180v426zM442 1724v215
h174v-215h-174zM821 1724v215h174v-215h-174z" />
    <glyph glyph-name="Zacute" unicode="&#x179;" horiz-adv-x="1224" 
d="M51 0v86l852 1382h-325q-116 0 -227 -25t-300 -91v198h1110v-82l-854 -1386h328q121 0 246.5 30.5t300.5 94.5v-207h-1131zM582 1692l188 288h203l-320 -288h-71z" />
    <glyph glyph-name="zacute" unicode="&#x17a;" horiz-adv-x="966" 
d="M59 0v61l609 865h-224q-159 0 -385 -80v155h838v-61l-606 -864h231q186 0 385 90v-166h-848zM453 1186l202 362h183l-332 -362h-53z" />
    <glyph glyph-name="Zdotaccent" unicode="&#x17b;" horiz-adv-x="1224" 
d="M51 0v86l852 1382h-325q-116 0 -227 -25t-300 -91v198h1110v-82l-854 -1386h328q121 0 246.5 30.5t300.5 94.5v-207h-1131zM532 1724v215h175v-215h-175z" />
    <glyph glyph-name="zdotaccent" unicode="&#x17c;" horiz-adv-x="966" 
d="M59 0v61l609 865h-224q-159 0 -385 -80v155h838v-61l-606 -864h231q186 0 385 90v-166h-848zM389 1253v213h193v-213h-193z" />
    <glyph glyph-name="Zcaron" unicode="&#x17d;" horiz-adv-x="1224" 
d="M51 0v86l852 1382h-325q-116 0 -227 -25t-300 -91v198h1110v-82l-854 -1386h328q121 0 246.5 30.5t300.5 94.5v-207h-1131zM293 1980h88l240 -182l237 182h90l-280 -288h-97z" />
    <glyph glyph-name="zcaron" unicode="&#x17e;" horiz-adv-x="966" 
d="M59 0v61l609 865h-224q-159 0 -385 -80v155h838v-61l-606 -864h231q186 0 385 90v-166h-848zM178 1544h80l227 -237l228 237h82l-260 -358h-99z" />
    <glyph glyph-name="uni018F" unicode="&#x18f;" horiz-adv-x="1658" 
d="M807 -33q-167 0 -304.5 53.5t-228 145.5t-140.5 212.5t-52 256.5h1251q6 58 6 119q0 150 -36 274t-105 216t-178 143t-248 51q-118 0 -219 -38t-174 -105.5t-123 -156t-74 -192.5h-100q58 282 254.5 451.5t488.5 169.5q336 0 544 -218.5t208 -578.5q0 -183 -56.5 -333.5
t-157.5 -253.5t-243.5 -159.5t-312.5 -56.5zM324 553q8 -142 66.5 -252.5t167.5 -176t255 -65.5q205 0 337 132.5t173 361.5h-999z" />
    <glyph glyph-name="florin" unicode="&#x192;" horiz-adv-x="1374" 
d="M61 -248q93 0 161 23.5t113.5 64.5t77 112.5t49 152t32.5 198.5l63 471h-496v60h502l35 256q29 231 142.5 350t301.5 119q175 0 267 -111l-84 -143q-29 84 -70 127t-113 43q-112 0 -175 -95t-87 -290l-32 -256h559v-60h-568l-63 -483q-15 -115 -41.5 -206.5t-74 -172.5
t-114 -134.5t-164 -84.5t-221.5 -31v90z" />
    <glyph glyph-name="Gcaron" unicode="&#x1e6;" horiz-adv-x="1796" 
d="M834 -29q-174 0 -317 61t-237.5 167.5t-146 249t-51.5 307.5q0 246 107 433.5t296 287.5t430 100q277 0 473.5 -134.5t256.5 -369.5h-224q-46 197 -179 307.5t-331 110.5q-176 0 -310.5 -90.5t-205.5 -247.5t-71 -356q0 -146 37.5 -270t108.5 -218t183 -147t254 -53
q241 0 388.5 159.5t174.5 433.5h-718v84h917v-802h-80l-100 465q-63 -220 -233 -349t-422 -129zM590 1976h88l240 -182l237 182h90l-280 -288h-97z" />
    <glyph glyph-name="gcaron" unicode="&#x1e7;" horiz-adv-x="1253" 
d="M494 -518q-107 0 -188.5 20t-133 66.5t-51.5 116.5q0 139 254 217h-23q-125 0 -198.5 51t-73.5 143q0 77 60.5 140.5t168.5 109.5q-149 107 -149 297q0 119 62.5 208.5t166.5 134t232 44.5q214 0 346 -117q12 127 84.5 206.5t179.5 80.5v-176q-97 0 -152.5 -40
t-66.5 -116q73 -95 73 -225q0 -180 -130.5 -282.5t-331.5 -102.5q-142 0 -254 53q-140 -61 -140 -155q0 -98 166 -95q86 0 299.5 35t294.5 35q121 0 187.5 -49.5t66.5 -144.5q0 -98 -66.5 -185t-173.5 -145t-240.5 -91.5t-268.5 -33.5zM270 -291q0 -143 246 -143
q132 0 258.5 37t211.5 107.5t85 154.5q0 53 -35 76.5t-112 23.5q-157 0 -394 -63q-134 -35 -197 -80t-63 -113zM313 1544h80l228 -237l227 237h82l-260 -358h-99zM369 643q0 -145 67.5 -229t184.5 -84q120 0 188 84t68 229t-68 228t-188 83q-117 0 -184.5 -83t-67.5 -228z
" />
    <glyph glyph-name="AEacute" unicode="&#x1fc;" horiz-adv-x="1941" 
d="M-100 10q66 30 115.5 88t109.5 170l706 1266l-14 6v10h1028v-190q-188 58 -299.5 83t-204.5 25h-180v-618h115q135 0 463 16v-110q-262 16 -463 16h-115v-690l225 2q110 1 227.5 31t276.5 90v-205h-1073v10q72 30 94.5 85t22.5 179v246h-547l-137 -252
q-61 -115 -64.5 -171t52.5 -87v-10h-338v10zM432 604h502v672q0 123 -19 176h-22zM969 1692l188 288h203l-320 -288h-71z" />
    <glyph glyph-name="aeacute" unicode="&#x1fd;" horiz-adv-x="1814" 
d="M1270 -35q-173 0 -297 103t-162 284q-32 -167 -148.5 -273t-291.5 -106q-134 -2 -216.5 66t-82.5 194q0 55 18 99.5t48.5 76.5t83 60t108 48t137.5 44q50 13 78 21t64.5 20.5t55.5 23t41 26.5t32.5 34t18 41.5t7.5 52.5q2 84 -51 132.5t-150 48.5q-51 0 -97 -16t-84 -49
t-60.5 -89.5t-22.5 -130.5h-188q5 88 47 158.5t107 113.5t143 65.5t161 22.5q248 3 338 -176q65 85 160 130.5t207 45.5q211 0 334.5 -126.5t128.5 -331.5h-758q-2 -14 -2 -43q0 -199 87 -324t257 -125q138 0 224 82.5t120 224.5h80q-37 -194 -158.5 -311t-316.5 -117z
M266 264q0 -81 48.5 -122.5t125.5 -41.5q145 0 234.5 117.5t89.5 306.5l2 109q-19 -47 -73.5 -75t-170.5 -64q-136 -45 -196 -92t-60 -138zM879 1186l202 362h183l-332 -362h-53zM985 647h553q-8 138 -77 226t-187 88q-116 0 -191.5 -85t-97.5 -229z" />
    <glyph glyph-name="Oslashacute" unicode="&#x1fe;" horiz-adv-x="1826" 
d="M514 -340l-74 23l140 342q-232 87 -365 284t-133 465q0 177 61 326.5t170 254t264 162.5t338 58q151 0 275 -37l137 340l76 -23l-139 -344q224 -87 352.5 -281t128.5 -458q0 -237 -105 -420.5t-294 -284t-431 -100.5q-139 0 -264 35zM326 772q0 -220 77.5 -387.5
t219.5 -253.5l528 1311q-104 49 -236 49q-181 0 -315.5 -92.5t-204 -254.5t-69.5 -372zM690 96q101 -43 225 -43q179 0 313 92.5t203.5 255t69.5 373.5q0 212 -73 377t-207 254zM877 1694l188 288h203l-320 -288h-71z" />
    <glyph glyph-name="oslashacute" unicode="&#x1ff;" horiz-adv-x="1214" 
d="M350 -250l-63 23l92 237q-141 59 -221 188t-80 306q0 241 145 387.5t383 146.5q91 0 164 -20l92 239l64 -20l-92 -240q141 -59 221 -188t80 -305q0 -242 -145 -389.5t-384 -147.5q-75 0 -164 21zM291 504q0 -272 129 -389l315 817q-60 29 -127 29q-152 0 -234.5 -120.5
t-82.5 -336.5zM475 76q60 -31 133 -31q149 0 232.5 121.5t83.5 337.5q0 274 -131 389zM573 1188l203 362h182l-331 -362h-54z" />
    <glyph glyph-name="uni0218" unicode="&#x218;" horiz-adv-x="1249" 
d="M659 -33q-252 0 -417.5 138t-192.5 389h215q10 -96 38.5 -175.5t76 -140.5t120.5 -95t165 -34q137 0 220 71t83 195q0 37 -9.5 70t-23 59.5t-43.5 56t-56 51t-76.5 53t-89 53.5t-108.5 61q-88 48 -142 80.5t-116 79.5t-96 90t-57 101t-23 124q0 177 133 279t342 102
q222 0 372.5 -115t188.5 -327h-211q-19 164 -108.5 262.5t-239.5 99.5q-130 1 -204 -62t-74 -169q0 -36 9 -67.5t23 -57.5t42.5 -54t54.5 -48.5t73 -49t83.5 -49t99.5 -53.5q59 -32 96.5 -53.5t86.5 -51.5t79 -54t65 -55t55.5 -61.5t39 -67t26.5 -77t8 -86.5
q0 -190 -140.5 -301t-367.5 -111zM459 -494l125 361h178l-262 -377z" />
    <glyph glyph-name="uni0219" unicode="&#x219;" horiz-adv-x="1007" 
d="M539 -35q-200 0 -328 100.5t-148 270.5h189q12 -138 86 -216.5t203 -78.5q96 0 154.5 42.5t58.5 115.5q0 32 -12.5 59t-35.5 48t-59 41.5t-78.5 39.5t-98.5 43l-15 6q-50 21 -78 33.5t-70 33.5t-65.5 37.5t-51.5 41.5t-42.5 50.5t-24.5 58.5t-10 71q0 128 105 201t276 73
q176 0 289.5 -82.5t142.5 -230.5h-189q-14 110 -77.5 175t-172.5 65q-89 0 -141.5 -39t-52.5 -105q0 -74 64 -120.5t221 -108.5q90 -36 145.5 -63.5t109 -67.5t78.5 -90.5t25 -114.5q0 -138 -111.5 -213.5t-285.5 -75.5zM322 -489l124 360h179l-263 -377z" />
    <glyph glyph-name="uni021A" unicode="&#x21a;" horiz-adv-x="1294" 
d="M35 1358v192h1225v-192q-145 46 -202.5 63.5t-138 34.5t-139.5 17h-18v-1199q0 -125 22 -180t95 -84v-10h-461v10q72 30 94.5 85t22.5 179v1199h-17q-56 0 -131 -15.5t-126 -30t-187 -57.5zM430 -483l125 360h178l-262 -377z" />
    <glyph glyph-name="uni021B" unicode="&#x21b;" horiz-adv-x="827" 
d="M506 -20q-289 0 -289 337v603h-207v81h207v275l203 151h6v-426h334v-81h-334v-598q0 -122 41 -171t119 -49q141 0 217 164l22 -57q-47 -110 -130.5 -169.5t-188.5 -59.5zM285 -483l125 360h178l-262 -377z" />
    <glyph glyph-name="uni0237" unicode="&#x237;" horiz-adv-x="524" 
d="M-41 -438q122 14 167.5 87.5t45.5 227.5v854q0 130 -19 182t-85 82v11l163 2l148 8v-1094q0 -194 -107.5 -305.5t-312.5 -118.5v64z" />
    <glyph glyph-name="uni0259" unicode="&#x259;" horiz-adv-x="1150" 
d="M569 1036q225 0 364.5 -142.5t139.5 -387.5q0 -244 -146 -392.5t-366 -148.5q-215 0 -345.5 127.5t-135.5 331.5h786q2 14 2 41q0 130 -36.5 229t-117.5 160t-198 61q-142 0 -230 -82.5t-124 -224.5h-88q39 194 164.5 311t330.5 117zM281 350q9 -137 81.5 -223t198.5 -86
q120 0 197.5 83t101.5 226h-579z" />
    <glyph glyph-name="circumflex" unicode="&#x2c6;" horiz-adv-x="786" 
d="M102 1186l246 334h90l246 -334h-80l-211 215l-209 -215h-82z" />
    <glyph glyph-name="caron" unicode="&#x2c7;" horiz-adv-x="821" 
d="M362 1186l-258 358h80l228 -237l227 237h82l-260 -358h-99z" />
    <glyph glyph-name="breve" unicode="&#x2d8;" horiz-adv-x="759" 
d="M379 1186q-127 0 -202 87t-75 243h74q0 -107 50.5 -165.5t152.5 -58.5q103 0 153 58.5t50 165.5h75q0 -156 -75 -243t-203 -87z" />
    <glyph glyph-name="dotaccent" unicode="&#x2d9;" horiz-adv-x="419" 
d="M102 1253v232h213v-232h-213z" />
    <glyph glyph-name="ring" unicode="&#x2da;" horiz-adv-x="628" 
d="M313 1186q-94 0 -152.5 55t-58.5 143t58.5 143.5t152.5 55.5q95 0 155 -55.5t60 -143.5t-60 -143t-155 -55zM170 1384q0 -64 39 -103.5t104 -39.5q66 0 105 39t39 104t-39 104.5t-105 39.5q-64 0 -103.5 -39.5t-39.5 -104.5z" />
    <glyph glyph-name="ogonek" unicode="&#x2db;" horiz-adv-x="573" 
d="M289 -483q-78 0 -132.5 47t-54.5 137q0 59 25 112.5t66.5 93t83.5 67.5t88 49l26 -23q-68 -45 -117 -114t-49 -158q0 -61 32 -95t85 -34q38 0 72.5 23t56.5 63v-60q-62 -108 -182 -108z" />
    <glyph glyph-name="tilde" unicode="&#x2dc;" horiz-adv-x="831" 
d="M102 1198q-3 161 44.5 242.5t129.5 81.5q39 0 71 -15.5t52.5 -39t41.5 -51t38.5 -51t44 -39t56.5 -15.5q52 0 73.5 48.5t18.5 149.5h55q5 -325 -166 -325q-48 0 -85 21t-61 50.5t-45.5 59t-50 50.5t-63.5 21q-103 0 -96 -188h-58z" />
    <glyph glyph-name="hungarumlaut" unicode="&#x2dd;" horiz-adv-x="839" 
d="M393 1186l176 362h168l-284 -362h-60zM102 1186l172 362h166l-278 -362h-60z" />
    <glyph glyph-name="gravecomb" unicode="&#x300;" 
d="M436 1186l-332 362h183l200 -362h-51z" />
    <glyph glyph-name="acutecomb" unicode="&#x301;" 
d="M102 1186l203 362h182l-331 -362h-54z" />
    <glyph glyph-name="uni0302" unicode="&#x302;" 
d="M100 1186l246 334h90l246 -334h-80l-211 215l-209 -215h-82z" />
    <glyph glyph-name="tildecomb" unicode="&#x303;" 
d="M115 1198q-3 161 44.5 242.5t129.5 81.5q46 0 82 -21.5t59.5 -53t45.5 -62.5t51 -52.5t65 -21.5q52 0 73.5 48.5t18.5 149.5h55q5 -325 -166 -325q-48 0 -85 21t-61 50.5t-45.5 59t-50 50.5t-63.5 21q-103 0 -96 -188h-57z" />
    <glyph glyph-name="uni0304" unicode="&#x304;" 
d="M102 1251v84h650v-84h-650z" />
    <glyph glyph-name="uni0306" unicode="&#x306;" 
d="M406 1186q-127 0 -202 87t-75 243h74q0 -107 50.5 -165.5t152.5 -58.5q202 0 202 224h76q0 -156 -75 -243t-203 -87z" />
    <glyph glyph-name="uni0307" unicode="&#x307;" 
d="M102 1253v232h213v-232h-213z" />
    <glyph glyph-name="uni0308" unicode="&#x308;" 
d="M442 1247v223h179v-223h-179zM100 1247v223h181v-223h-181z" />
    <glyph glyph-name="uni030A" unicode="&#x30a;" 
d="M313 1186q-94 0 -152.5 55t-58.5 143t58.5 143.5t152.5 55.5q95 0 155 -55.5t60 -143.5t-60 -143t-155 -55zM170 1384q0 -64 39 -103.5t104 -39.5q66 0 105 39t39 104t-39 104.5t-105 39.5q-64 0 -103.5 -39.5t-39.5 -104.5z" />
    <glyph glyph-name="uni030B" unicode="&#x30b;" 
d="M383 1186l176 362h168l-285 -362h-59zM92 1186l172 362h166l-278 -362h-60z" />
    <glyph glyph-name="uni030C" unicode="&#x30c;" 
d="M369 1186l-258 358h79l228 -237l227 237h82l-260 -358h-98z" />
    <glyph glyph-name="uni0312" unicode="&#x312;" 
d="M102 1190l209 371h47l-88 -371h-168z" />
    <glyph glyph-name="uni0326" unicode="&#x326;" 
d="M125 -500l-41 17l125 360h178z" />
    <glyph glyph-name="uni0327" unicode="&#x327;" 
d="M416 -498q-87 0 -159 32t-112 93l41 41q29 -46 81 -73t120 -27q64 0 104.5 25.5t40.5 80.5q0 52 -38 80.5t-103 28.5q-53 0 -94 -16l-33 34l150 201h80l-105 -139q32 4 57 4q96 0 156 -47.5t60 -128.5q0 -64 -38.5 -108.5t-92 -62.5t-115.5 -18z" />
    <glyph glyph-name="uni0328" unicode="&#x328;" 
d="M369 -483q-78 0 -132.5 47t-54.5 137q0 59 25 112.5t66 93t83 67.5t88 49l27 -23q-68 -45 -117 -114t-49 -158q0 -61 32 -95t85 -34q38 0 72.5 23t56.5 63v-60q-62 -108 -182 -108z" />
    <glyph glyph-name="uni0394" unicode="&#x394;" horiz-adv-x="1310" 
d="M2 0v53l555 1497h188l566 -1497v-53h-1309zM123 86h930l-457 1309z" />
    <glyph glyph-name="uni03A9" unicode="&#x3a9;" horiz-adv-x="1703" 
d="M98 0v170h564v41q-133 29 -243.5 87.5t-193 143.5t-128.5 200.5t-46 250.5q0 202 100.5 357t282.5 240t418 85t418 -85t282.5 -240t100.5 -357q0 -134 -46.5 -250t-129 -201t-193 -143.5t-242.5 -87.5v-41h562v-170h-643v266q213 63 331.5 213.5t118.5 392.5
q0 267 -156 436t-403 169q-248 0 -403.5 -168.5t-155.5 -436.5q0 -242 118.5 -392.5t331.5 -213.5v-266h-645z" />
    <glyph glyph-name="uni03BC" unicode="&#x3bc;" horiz-adv-x="1234" 
d="M311 -412q-170 137 -170 398v741q0 126 -18 180.5t-78 83.5v10h397v-10q-59 -29 -76.5 -84t-17.5 -180v-373q0 -141 49.5 -205.5t153.5 -64.5q113 0 190 91.5t103 232.5v319q0 126 -18 180.5t-78 83.5v10h399v-10q-60 -29 -78 -83.5t-18 -180.5v-479q0 -164 96 -164
q47 0 88 35l2 -58q-85 -75 -190 -75q-88 0 -144.5 62.5t-56.5 184.5v31q-42 -128 -132 -212.5t-216 -84.5q-102 0 -168 56v-82q0 -127 16.5 -207.5t54.5 -145.5h-90z" />
    <glyph glyph-name="pi" unicode="&#x3c0;" horiz-adv-x="1398" 
d="M1102 -16q-119 0 -187.5 75t-68.5 254v607h-357l-20 -920h-201l21 920h-279v81h1325v-81h-288v-590q0 -125 36.5 -175.5t106.5 -50.5q111 0 182 138l25 -49q-46 -99 -122.5 -154t-172.5 -55z" />
    <glyph glyph-name="Wgrave" unicode="&#x1e80;" horiz-adv-x="2080" 
d="M145 1325q-33 98 -64.5 145t-82.5 70v10h461v-10q-69 -21 -81 -70t19 -139l305 -1020l345 1166h114l355 -1176l307 1030q31 96 20 143.5t-74 65.5v10h316v-10q-52 -19 -85.5 -66t-62.5 -143l-372 -1210q-21 -68 -21 -121h-145l-352 1147l-312 -1030q-20 -67 -20 -117
h-146zM750 1980h202l189 -288h-72z" />
    <glyph glyph-name="wgrave" unicode="&#x1e81;" horiz-adv-x="1591" 
d="M162 788q-37 100 -66.5 145t-77.5 58v10h402v-10q-42 -9 -58 -31.5t-13 -58t24 -96.5l194 -572l234 725h108l240 -731l190 572q33 87 25 133t-70 59v10h279v-10q-46 -22 -75.5 -63.5t-59.5 -128.5l-246 -695q-24 -77 -27 -104h-129l-239 729l-197 -618q-24 -67 -29 -111
h-129zM500 1548h182l201 -362h-52z" />
    <glyph glyph-name="Wacute" unicode="&#x1e82;" horiz-adv-x="2080" 
d="M145 1325q-33 98 -64.5 145t-82.5 70v10h461v-10q-69 -21 -81 -70t19 -139l305 -1020l345 1166h114l355 -1176l307 1030q31 96 20 143.5t-74 65.5v10h316v-10q-52 -19 -85.5 -66t-62.5 -143l-372 -1210q-21 -68 -21 -121h-145l-352 1147l-312 -1030q-20 -67 -20 -117
h-146zM1069 1692l188 288h203l-319 -288h-72z" />
    <glyph glyph-name="wacute" unicode="&#x1e83;" horiz-adv-x="1591" 
d="M162 788q-37 100 -66.5 145t-77.5 58v10h402v-10q-42 -9 -58 -31.5t-13 -58t24 -96.5l194 -572l234 725h108l240 -731l190 572q33 87 25 133t-70 59v10h279v-10q-46 -22 -75.5 -63.5t-59.5 -128.5l-246 -695q-24 -77 -27 -104h-129l-239 729l-197 -618q-24 -67 -29 -111
h-129zM821 1186l203 362h182l-332 -362h-53z" />
    <glyph glyph-name="Wdieresis" unicode="&#x1e84;" horiz-adv-x="2080" 
d="M145 1325q-33 98 -64.5 145t-82.5 70v10h461v-10q-69 -21 -81 -70t19 -139l305 -1020l345 1166h114l355 -1176l307 1030q31 96 20 143.5t-74 65.5v10h316v-10q-52 -19 -85.5 -66t-62.5 -143l-372 -1210q-21 -68 -21 -121h-145l-352 1147l-312 -1030q-20 -67 -20 -117
h-146zM829 1724v215h175v-215h-175zM1208 1724v215h174v-215h-174z" />
    <glyph glyph-name="wdieresis" unicode="&#x1e85;" horiz-adv-x="1591" 
d="M162 788q-37 100 -66.5 145t-77.5 58v10h402v-10q-42 -9 -58 -31.5t-13 -58t24 -96.5l194 -572l234 725h108l240 -731l190 572q33 87 25 133t-70 59v10h279v-10q-46 -22 -75.5 -63.5t-59.5 -128.5l-246 -695q-24 -77 -27 -104h-129l-239 729l-197 -618q-24 -67 -29 -111
h-129zM594 1247v223h180v-223h-180zM936 1247v223h178v-223h-178z" />
    <glyph glyph-name="uni1E9E" unicode="&#x1e9e;" horiz-adv-x="1515" 
d="M977 -29q-124 0 -214.5 39.5t-146.5 100.5l7 170q43 -89 129 -148t209 -59q133 0 208.5 72t75.5 202q0 109 -50.5 182.5t-182.5 167.5q-59 41 -96 72.5t-76.5 77.5t-58.5 101t-19 120q0 140 84.5 242t232.5 145h-174q-244 0 -367.5 -136t-123.5 -435v-611
q0 -125 19.5 -180t84.5 -84v-10h-442v10q73 29 95 84t22 180v586q0 153 32.5 271.5t90.5 197t143.5 128.5t184.5 71.5t220 21.5h520l-2 -127q-52 17 -108 17q-88 0 -164.5 -33.5t-126 -103t-49.5 -162.5q0 -51 14.5 -91.5t49.5 -79t70 -66.5t99 -73q67 -48 111.5 -89t83 -94
t56.5 -116t18 -141q0 -196 -124.5 -309t-334.5 -111z" />
    <glyph glyph-name="uni1EBC" unicode="&#x1ebc;" horiz-adv-x="1226" 
d="M102 0v10q72 30 94.5 85t22.5 179v1002q0 130 -22 182t-95 82v10h1028v-190q-189 58 -299.5 83t-203.5 25h-181v-618h115q135 0 463 16v-110q-262 16 -463 16h-115v-690l226 2q110 1 227.5 31t276.5 90v-205h-1074zM328 1706q0 141 48 211t134 70q44 0 79.5 -18
t58.5 -44.5t44.5 -52.5t50 -44t62.5 -18q51 0 71 37t23 123h64q0 -280 -177 -280q-46 0 -83 18.5t-60.5 44.5t-45 52t-49 44.5t-61.5 18.5q-52 0 -73 -41t-23 -121h-63z" />
    <glyph glyph-name="uni1EBD" unicode="&#x1ebd;" horiz-adv-x="1150" 
d="M582 -35q-225 0 -364.5 143t-139.5 388q0 162 68.5 286t184 189t259.5 65q216 0 346 -127t135 -331h-786q-2 -14 -2 -41q0 -130 36.5 -229.5t117.5 -160.5t198 -61q142 0 230 82.5t124 224.5h88q-39 -194 -164.5 -311t-330.5 -117zM262 1198q-3 161 44.5 242.5
t129.5 81.5q46 0 82 -21.5t59.5 -53t45.5 -62.5t51 -52.5t65 -21.5q52 0 73.5 48.5t18.5 149.5h56q5 -325 -166 -325q-48 0 -85 21t-61 50.5t-45.5 59t-50 50.5t-63.5 21q-104 0 -97 -188h-57zM291 651h579q-9 137 -82 223.5t-198 86.5q-120 0 -197.5 -83.5t-101.5 -226.5z
" />
    <glyph glyph-name="Ygrave" unicode="&#x1ef2;" horiz-adv-x="1323" 
d="M172 1384q-40 72 -72.5 105t-87.5 51v10h459v-10q-111 -30 -45 -162l311 -577l301 577q16 31 23 54.5t5 46t-18.5 38t-48.5 23.5v10h314v-10q-49 -18 -86 -54t-74 -106l-360 -675v-431q0 -126 21.5 -180.5t94.5 -83.5v-10h-465v10q73 29 95 84t22 180v426zM362 1980h203
l189 -288h-72z" />
    <glyph glyph-name="ygrave" unicode="&#x1ef3;" horiz-adv-x="1075" 
d="M154 -500q-78 0 -134 29v170q65 -37 156 -37q114 0 197 78.5t157 259.5h-65l-291 748q-46 117 -76 168t-80 75v10h383v-10q-24 -9 -36.5 -23.5t-17 -30.5t1 -46.5t14 -58t26.5 -78.5l209 -580l211 580q41 103 40 159.5t-58 77.5v10h274v-10q-44 -19 -80 -75.5t-78 -161.5
l-291 -754q-106 -269 -209 -384.5t-253 -115.5zM236 1548h182l200 -362h-51z" />
    <glyph glyph-name="uni1EF8" unicode="&#x1ef8;" horiz-adv-x="1323" 
d="M172 1384q-40 72 -72.5 105t-87.5 51v10h459v-10q-111 -30 -45 -162l311 -577l301 577q16 31 23 54.5t5 46t-18.5 38t-48.5 23.5v10h314v-10q-49 -18 -86 -54t-74 -106l-360 -675v-431q0 -126 21.5 -180.5t94.5 -83.5v-10h-465v10q73 29 95 84t22 180v426zM401 1706
q0 141 48.5 211t134.5 70q44 0 79.5 -18t58.5 -44.5t44.5 -52.5t50 -44t62.5 -18q51 0 71 37t23 123h63q0 -280 -176 -280q-46 0 -83 18.5t-60.5 44.5t-45 52t-49 44.5t-61.5 18.5q-52 0 -73 -41t-23 -121h-64z" />
    <glyph glyph-name="uni1EF9" unicode="&#x1ef9;" horiz-adv-x="1075" 
d="M154 -500q-78 0 -134 29v170q65 -37 156 -37q114 0 197 78.5t157 259.5h-65l-291 748q-46 117 -76 168t-80 75v10h383v-10q-24 -9 -36.5 -23.5t-17 -30.5t1 -46.5t14 -58t26.5 -78.5l209 -580l211 580q41 103 40 159.5t-58 77.5v10h274v-10q-44 -19 -80 -75.5t-78 -161.5
l-291 -754q-106 -269 -209 -384.5t-253 -115.5zM274 1198q-3 161 45 242.5t130 81.5q46 0 82 -21.5t59.5 -53t45.5 -62.5t51 -52.5t65 -21.5q52 0 73.5 48.5t18.5 149.5h55q5 -325 -166 -325q-48 0 -85 21t-61 50.5t-45.5 59t-50 50.5t-63.5 21q-103 0 -96 -188h-58z" />
    <glyph glyph-name="endash" unicode="&#x2013;" horiz-adv-x="1884" 
d="M90 481v99h1704v-99h-1704z" />
    <glyph glyph-name="emdash" unicode="&#x2014;" horiz-adv-x="2557" 
d="M90 481v99h2378v-99h-2378z" />
    <glyph glyph-name="quoteleft" unicode="&#x2018;" horiz-adv-x="428" 
d="M362 1458q-190 -32 -210 -209h151v-241h-205v211q0 287 264 358v-119z" />
    <glyph glyph-name="quoteright" unicode="&#x2019;" horiz-adv-x="428" 
d="M66 1110q190 32 210 209h-151v242h205v-211q0 -141 -66.5 -232.5t-197.5 -126.5v119z" />
    <glyph glyph-name="quotesinglbase" unicode="&#x201a;" horiz-adv-x="440" 
d="M61 -205q92 14 146.5 65t64.5 140h-151v242h205v-211q0 -138 -67 -229t-198 -126v119z" />
    <glyph glyph-name="quotedblleft" unicode="&#x201c;" horiz-adv-x="759" 
d="M362 1458q-190 -32 -210 -209h151v-241h-205v211q0 287 264 358v-119zM430 1008v211q0 287 264 358v-119q-191 -32 -211 -209h152v-241h-205z" />
    <glyph glyph-name="quotedblright" unicode="&#x201d;" horiz-adv-x="761" 
d="M399 1110q191 32 211 209h-151v242h205v-211q0 -141 -67 -232.5t-198 -126.5v119zM66 991v119q190 32 210 209h-151v242h205v-211q0 -141 -66.5 -232.5t-197.5 -126.5z" />
    <glyph glyph-name="quotedblbase" unicode="&#x201e;" horiz-adv-x="774" 
d="M395 -205q92 14 146.5 65t64.5 140h-151v242h204v-211q0 -138 -66.5 -229t-197.5 -126v119zM61 -324v119q92 14 146.5 65t64.5 140h-151v242h205v-211q0 -138 -67 -229t-198 -126z" />
    <glyph glyph-name="dagger" unicode="&#x2020;" horiz-adv-x="993" 
d="M414 82l32 954l-407 -30v153l407 -37l-34 475h170l-37 -475l407 37v-153l-409 30l32 -954h-161z" />
    <glyph glyph-name="daggerdbl" unicode="&#x2021;" horiz-adv-x="991" 
d="M412 82l32 475l-405 -39v154l405 -31l-24 203l22 194l-403 -28v153l407 -39l-34 473h170l-37 -473l407 39v-153l-405 28l24 -194l-24 -203l405 31v-154l-407 39l37 -475h-170z" />
    <glyph glyph-name="bullet" unicode="&#x2022;" horiz-adv-x="679" 
d="M205 399v265h270v-265h-270z" />
    <glyph glyph-name="ellipsis" unicode="&#x2026;" horiz-adv-x="1378" 
d="M1047 0v242h204v-242h-204zM127 0v242h205v-242h-205zM588 0v242h205v-242h-205z" />
    <glyph glyph-name="perthousand" unicode="&#x2030;" horiz-adv-x="2326" 
d="M131 0l1174 1550h104l-1176 -1550h-102zM66 1245q0 147 95 237.5t247 90.5t248 -90.5t96 -237.5q0 -144 -96.5 -235.5t-247.5 -91.5t-246.5 91t-95.5 236zM215 1245q0 -129 50 -197.5t143 -68.5q91 0 141.5 69t50.5 197t-50.5 197t-141.5 69q-93 0 -143 -68.5t-50 -197.5
zM786 303q0 147 95 237.5t247 90.5t248.5 -90.5t96.5 -237.5q0 -144 -97 -236t-248 -92t-246.5 91.5t-95.5 236.5zM936 303q0 -129 50 -197.5t142 -68.5q91 0 142 69t51 197t-51 197t-142 69q-92 0 -142 -68.5t-50 -197.5zM1575 305q0 147 95 237.5t247 90.5t248 -90.5
t96 -237.5q0 -145 -96.5 -236.5t-247.5 -91.5t-246.5 91.5t-95.5 236.5zM1724 305q0 -129 50 -197.5t143 -68.5q91 0 141.5 69t50.5 197t-50.5 197t-141.5 69q-93 0 -143 -68.5t-50 -197.5z" />
    <glyph glyph-name="minute" unicode="&#x2032;" horiz-adv-x="405" 
d="M45 940l100 610h172l-208 -610h-64z" />
    <glyph glyph-name="second" unicode="&#x2033;" horiz-adv-x="741" 
d="M45 940l100 610h172l-208 -610h-64zM381 940l100 610h172l-209 -610h-63z" />
    <glyph glyph-name="guilsinglleft" unicode="&#x2039;" horiz-adv-x="669" 
d="M559 90l-475 363v79l475 365v-84l-323 -317v-7l323 -317v-82z" />
    <glyph glyph-name="guilsinglright" unicode="&#x203a;" horiz-adv-x="669" 
d="M113 90v82l323 317v7l-323 317v84l475 -365v-79z" />
    <glyph glyph-name="uni203D" unicode="&#x203d;" horiz-adv-x="1093" 
d="M434 0v242h205v-242h-205zM51 1083q15 232 165.5 362t385.5 130q208 0 329.5 -94.5t121.5 -247.5q0 -71 -22.5 -130.5t-59 -101.5t-81.5 -78.5t-92.5 -70t-89 -67t-74 -77.5t-44.5 -94l-8 -168h-93l-40 764h174l-25 -446q24 37 76.5 93t90 98.5t68.5 112t31 146.5
q0 120 -76.5 194.5t-214.5 74.5q-160 0 -251 -105.5t-97 -294.5h-174z" />
    <glyph glyph-name="fraction" unicode="&#x2044;" horiz-adv-x="317" 
d="M-481 0l1175 1550h105l-1176 -1550h-104z" />
    <glyph glyph-name="uni2070" unicode="&#x2070;" horiz-adv-x="991" 
d="M496 901q-197 0 -313.5 129.5t-116.5 341.5q0 214 116.5 344.5t313.5 130.5q198 0 314 -130.5t116 -344.5q0 -213 -116 -342t-314 -129zM236 1372q0 -194 68 -300.5t192 -106.5q126 0 194 106.5t68 300.5q0 196 -68 304t-194 108q-124 0 -192 -108t-68 -304z" />
    <glyph glyph-name="uni2074" unicode="&#x2074;" horiz-adv-x="903" 
d="M422 930q51 21 67.5 53t16.5 98v58h-506v78l545 614h131v-584h190v-108h-190v-60q0 -64 16.5 -96t67.5 -53v-10h-338v10zM109 1247h397v453z" />
    <glyph glyph-name="uni2075" unicode="&#x2075;" horiz-adv-x="874" 
d="M440 897q-169 0 -271 84t-114 233h68q10 -115 83.5 -178t190.5 -63q114 0 179 63t65 170q0 113 -65.5 173.5t-172.5 60.5q-163 0 -247 -109l-56 23l76 473h590v-119h-543l-51 -315q53 61 135 93t176 32q153 0 242.5 -82t89.5 -224q0 -145 -103 -230t-272 -85z" />
    <glyph glyph-name="uni2076" unicode="&#x2076;" horiz-adv-x="927" 
d="M481 901q-195 0 -303 122t-108 329q0 221 114 358t312 137q145 0 239.5 -78.5t116.5 -209.5h-72q-15 99 -83.5 156.5t-170.5 56.5q-137 0 -211 -103.5t-77 -290.5q-2 -49 8 -110q21 106 108.5 169.5t198.5 63.5q129 0 217 -78.5t88 -210.5q0 -143 -105 -227t-272 -84z
M252 1192q44 -234 227 -234q95 0 154 63.5t59 176.5q0 111 -57 171.5t-146 60.5q-94 0 -162 -64t-75 -174z" />
    <glyph glyph-name="uni2077" unicode="&#x2077;" horiz-adv-x="759" 
d="M78 922l549 774h-594v131h717l2 -45l-484 -860h-190z" />
    <glyph glyph-name="uni2078" unicode="&#x2078;" horiz-adv-x="956" 
d="M479 901q-196 0 -304.5 69t-108.5 195q0 99 79.5 163.5t200.5 80.5q-114 15 -175.5 69t-61.5 142q0 106 98 166.5t272 60.5t272.5 -60.5t98.5 -166.5q0 -89 -60 -142.5t-176 -68.5q122 -16 199.5 -80.5t77.5 -163.5q0 -126 -108.5 -195t-303.5 -69zM236 1171
q0 -102 60.5 -158.5t182.5 -56.5t183 56.5t61 158.5q0 95 -63.5 150t-180.5 55t-180 -55t-63 -150zM268 1618q0 -87 49 -134.5t162 -47.5t162 47.5t49 134.5q0 81 -53 128.5t-158 47.5t-158 -47.5t-53 -128.5z" />
    <glyph glyph-name="uni2079" unicode="&#x2079;" horiz-adv-x="927" 
d="M446 1849q196 0 304 -122t108 -332q0 -220 -113.5 -356t-312.5 -136q-145 0 -239.5 79t-116.5 210h71q15 -100 83 -157.5t171 -57.5q136 0 211 104t80 291q0 67 -10 111q-21 -106 -108 -170t-199 -64q-129 0 -217 78t-88 209q0 144 105 228.5t271 84.5zM236 1552
q0 -112 56.5 -171.5t145.5 -59.5q95 0 163 63t75 172q-44 236 -227 236q-94 0 -153.5 -64t-59.5 -176z" />
    <glyph glyph-name="uni2080" unicode="&#x2080;" horiz-adv-x="991" 
d="M496 -225q-197 0 -313.5 129.5t-116.5 341.5q0 214 116.5 344.5t313.5 130.5q198 0 314 -130.5t116 -344.5q0 -213 -116 -342t-314 -129zM236 246q0 -194 68 -301t192 -107q126 0 194 107t68 301q0 196 -68 303.5t-194 107.5q-124 0 -192 -108t-68 -303z" />
    <glyph glyph-name="uni2081" unicode="&#x2081;" horiz-adv-x="628" 
d="M152 -205v6q69 24 89.5 66t20.5 139v488q-27 -46 -89 -89.5t-142 -50.5v101q113 7 197 82t98 172h106v-703q0 -98 18.5 -139.5t81.5 -65.5v-6h-380z" />
    <glyph glyph-name="uni2082" unicode="&#x2082;" horiz-adv-x="882" 
d="M72 -182q0 63 23 118t67.5 99.5t89 76.5t106.5 68q71 40 113 68.5t81 64.5t56 76.5t17 89.5q0 82 -47.5 129t-131.5 47q-113 0 -173 -80t-58 -215h-152q8 155 115.5 258t286.5 103q147 0 237.5 -66t90.5 -186q0 -61 -25 -109.5t-87.5 -90.5t-102.5 -63t-133 -62
q-10 -5 -15 -7q-110 -52 -177 -103.5t-79 -113.5h647v-125h-749v23z" />
    <glyph glyph-name="uni2083" unicode="&#x2083;" horiz-adv-x="880" 
d="M444 -225q-176 0 -276 88t-109 241h74q6 -120 80.5 -184.5t194.5 -64.5q118 0 181.5 57.5t63.5 146.5q0 185 -256 185h-80v53h80q111 0 171.5 54.5t60.5 140.5q0 72 -47 116.5t-140 44.5q-100 0 -162 -57.5t-69 -161.5h-148q15 132 124 209.5t274 77.5q155 0 243.5 -63
t88.5 -164q0 -91 -73.5 -148.5t-199.5 -69.5q146 -9 227.5 -66.5t81.5 -160.5q0 -117 -106 -195.5t-279 -78.5z" />
    <glyph glyph-name="uni2084" unicode="&#x2084;" horiz-adv-x="903" 
d="M422 -197q51 21 67.5 53.5t16.5 98.5v57h-506v78l545 615h131v-584h190v-109h-190v-59q0 -65 16.5 -97t67.5 -53v-10h-338v10zM109 121h397v452z" />
    <glyph glyph-name="uni2085" unicode="&#x2085;" horiz-adv-x="874" 
d="M440 -229q-169 0 -271 84t-114 233h68q10 -116 83.5 -179t190.5 -63q114 0 179 63.5t65 170.5q0 113 -65.5 173t-172.5 60q-164 0 -247 -108l-56 22l76 473h590v-118h-543l-51 -316q53 61 135 93t176 32q153 0 242.5 -81.5t89.5 -223.5q0 -145 -103 -230t-272 -85z" />
    <glyph glyph-name="uni2086" unicode="&#x2086;" horiz-adv-x="927" 
d="M481 -225q-195 0 -303 121.5t-108 328.5q0 221 114 358.5t312 137.5q145 0 239.5 -79t116.5 -210h-72q-15 99 -83.5 156.5t-170.5 56.5q-137 0 -211 -103t-77 -290q-3 -50 8 -111q21 106 108.5 170t198.5 64q129 0 217 -78.5t88 -210.5q0 -143 -105 -227t-272 -84z
M252 66q44 -234 227 -234q95 0 154 63.5t59 176.5q0 111 -57 171t-146 60q-95 0 -162.5 -63.5t-74.5 -173.5z" />
    <glyph glyph-name="uni2087" unicode="&#x2087;" horiz-adv-x="759" 
d="M78 -205l549 774h-594v131h717l2 -45l-484 -860h-190z" />
    <glyph glyph-name="uni2088" unicode="&#x2088;" horiz-adv-x="956" 
d="M479 -225q-196 0 -304.5 69t-108.5 195q0 99 79.5 163.5t200.5 80.5q-114 15 -175.5 69t-61.5 142q0 106 98 166.5t272 60.5t272.5 -60.5t98.5 -166.5q0 -89 -60 -142.5t-176 -68.5q122 -16 199.5 -80.5t77.5 -163.5q0 -126 -108.5 -195t-303.5 -69zM236 45
q0 -102 60.5 -158.5t182.5 -56.5t183 56.5t61 158.5q0 95 -63.5 150t-180.5 55t-180 -55t-63 -150zM268 492q0 -183 211 -183t211 183q0 81 -53 128.5t-158 47.5t-158 -47.5t-53 -128.5z" />
    <glyph glyph-name="uni2089" unicode="&#x2089;" horiz-adv-x="927" 
d="M446 723q195 0 303.5 -122.5t108.5 -332.5q0 -220 -113.5 -355.5t-312.5 -135.5q-145 0 -239.5 79t-116.5 210h71q15 -100 83 -158t171 -58q136 0 211 104.5t80 291.5q0 66 -10 110q-21 -106 -108 -169.5t-199 -63.5q-129 0 -217 78t-88 209q0 144 105 228.5t271 84.5z
M236 426q0 -112 56.5 -171.5t145.5 -59.5q95 0 163 63t75 172q-44 236 -227 236q-94 0 -153.5 -64t-59.5 -176z" />
    <glyph glyph-name="Euro" unicode="&#x20ac;" horiz-adv-x="1779" 
d="M82 844v61h203q38 302 233 484t481 182q252 0 429.5 -143t236.5 -412h-203q-41 217 -161 343t-300 126q-140 0 -249 -77t-172 -207t-80 -296h719v-61h-723v-41q0 -65 6 -123h717v-59h-709q19 -111 61 -202.5t106 -160t154 -106t199 -37.5q226 0 371 148t184 403h92
q-42 -320 -224.5 -507.5t-469.5 -187.5q-192 0 -342.5 85t-239 230.5t-114.5 334.5h-205v59h199q-5 72 -5 88q0 38 3 76h-197z" />
    <glyph glyph-name="uni20B9" unicode="&#x20b9;" horiz-adv-x="1337" 
d="M786 0l-688 815v72h232q399 0 418 264h-650v63h650q-19 263 -404 263h-246v73h1211l-13 -61h-559q101 -33 161 -102.5t67 -172.5h272l-12 -63h-260q-9 -110 -83.5 -185t-188 -108t-259.5 -33h-143l764 -813v-12h-269z" />
    <glyph glyph-name="uni20BA" unicode="&#x20ba;" horiz-adv-x="1525" 
d="M197 0v10q73 29 94.5 83.5t21.5 180.5v230l-229 -105v66l229 104v162l-229 -104v67l229 105v477q0 131 -21 182.5t-95 81.5v10h460v-10q-74 -30 -95 -81.5t-21 -182.5v-375l557 254v-68l-557 -253v-162l557 254v-68l-557 -252v-518l235 -2q261 0 377.5 136.5t116.5 412.5
h205q0 -312 -183 -473.5t-516 -161.5h-579z" />
    <glyph glyph-name="uni20BF" unicode="&#x20bf;" horiz-adv-x="1357" 
d="M477 -348v348h-368v10q68 30 89 85t21 179v1002q0 130 -20.5 182t-89.5 82v10h368v348h64v-348h90q41 0 61 -2v350h66v-354q201 -18 316.5 -102.5t115.5 -241.5q0 -151 -111 -239t-307 -107v-8q104 -9 191 -37t156 -77t108 -124.5t39 -171.5q0 -102 -36.5 -181
t-105 -130.5t-159.5 -81t-207 -39.5v-352h-66v348h-47h-104v-348h-64zM426 82h201q413 0 413 358q0 181 -113.5 274t-312.5 93h-188v-725zM426 885h184q164 0 265.5 78.5t101.5 224.5q0 280 -367 280h-184v-583z" />
    <glyph glyph-name="uni2113" unicode="&#x2113;" horiz-adv-x="1003" 
d="M618 1581q109 0 164.5 -70.5t55.5 -193.5q0 -161 -88 -318t-258 -294v-406q0 -123 23.5 -181.5t74.5 -58.5q73 0 133.5 121.5t93.5 351.5l64 -12q-44 -288 -125 -417.5t-215 -129.5q-69 0 -118 28t-74 77t-35.5 101.5t-10.5 115.5v280q-96 -57 -237 -118l-25 59
q143 62 262 135v484q0 222 90.5 334t224.5 112zM492 799q230 221 233 512q0 202 -107 202q-126 0 -126 -362v-352z" />
    <glyph glyph-name="uni2116" unicode="&#x2116;" horiz-adv-x="1945" 
d="M997 0l-714 1296v-1009q0 -132 21 -189t93 -88v-10h-297v10q59 31 76 88t17 189v989q0 129 -11.5 181.5t-48.5 82.5v10h225l717 -1298v1012q0 133 -19.5 189t-88.5 87v10h293v-10q-59 -31 -77 -88t-18 -188v-1264h-168zM1348 1305q0 118 75.5 190t196.5 72q122 0 199 -72
t77 -190q0 -116 -77.5 -189.5t-198.5 -73.5q-120 0 -196 73.5t-76 189.5zM1466 1305q0 -102 40 -157.5t114 -55.5q73 0 113.5 55.5t40.5 157.5t-40.5 157.5t-113.5 55.5q-74 0 -114 -55.5t-40 -157.5z" />
    <glyph glyph-name="uni2117" unicode="&#x2117;" horiz-adv-x="815" 
d="M274 1081q26 4 33.5 18t7.5 46v180q0 39 -7 53t-34 21v6h144q70 0 105.5 -21t35.5 -71q0 -94 -143 -94h-43v-74q0 -32 8.5 -46t36.5 -18v-6h-144v6zM88 1239q0 139 90 227t230 88t229.5 -88t89.5 -227t-89.5 -227t-229.5 -88t-230 88t-90 227zM137 1239q0 -123 73 -197.5
t198 -74.5q124 0 197 75t73 197t-73 197t-197 75q-125 0 -198 -74.5t-73 -197.5zM373 1247h41q84 0 84 68q0 63 -84 63h-41v-131z" />
    <glyph glyph-name="trademark" unicode="&#x2122;" horiz-adv-x="1542" 
d="M1010 952l-211 492v-277q0 -95 13 -136.5t58 -65.5v-7h-198v7q45 24 58 65.5t13 136.5v170q0 103 -12.5 143t-58.5 62v8h196l189 -436l180 436h199v-8q-46 -24 -59 -64t-13 -143v-168q0 -95 13.5 -136.5t58.5 -65.5v-7h-262v7q45 24 58 65.5t13 136.5v273l-205 -488h-30z
M57 1458v92h545v-92q-123 45 -203 45h-8v-336q0 -95 13.5 -136.5t58.5 -65.5v-7h-266v7q45 24 58 65.5t13 136.5v336h-10q-78 0 -201 -45z" />
    <glyph glyph-name="estimated" unicode="&#x212e;" horiz-adv-x="1656" 
d="M852 -33q-209 0 -384 90t-280.5 257.5t-105.5 377.5q0 158 62 293.5t167 227t245.5 143t295.5 51.5q200 0 361 -87.5t257 -250.5t105 -375h-1213v-508q208 -180 492 -180q371 0 588 293h55q-106 -158 -274 -245t-371 -87zM362 735h930v471q-184 166 -440 166
q-292 0 -490 -176v-461z" />
    <glyph glyph-name="oneeighth" unicode="&#x215b;" horiz-adv-x="1902" 
d="M152 653v6q69 24 89.5 66t20.5 139v488q-27 -46 -89 -89.5t-142 -50.5v101q113 7 197 82t98 172h106v-703q0 -98 18.5 -139.5t81.5 -65.5v-6h-380zM147 0l1176 1550h104l-1175 -1550h-105zM1012 244q0 99 79.5 163t200.5 80q-114 15 -175.5 69t-61.5 142q0 106 98 167
t272 61t272.5 -61t98.5 -167q0 -180 -235 -211q122 -16 199 -80t77 -163q0 -126 -108.5 -195t-303.5 -69q-196 0 -304.5 69t-108.5 195zM1182 250q0 -102 60.5 -158.5t182.5 -56.5t183 56.5t61 158.5q0 95 -63.5 150t-180.5 55t-180 -55t-63 -150zM1214 696q0 -87 49 -134.5
t162 -47.5t162 47.5t49 134.5q0 81 -53 128.5t-158 47.5t-158 -47.5t-53 -128.5z" />
    <glyph glyph-name="threeeighths" unicode="&#x215c;" horiz-adv-x="2154" 
d="M444 633q-176 0 -276 88.5t-109 241.5h74q6 -120 80.5 -185t194.5 -65q118 0 181.5 58t63.5 147q0 184 -256 184h-80v53h80q111 0 171.5 54.5t60.5 140.5q0 72 -47 116.5t-140 44.5q-100 0 -162 -57.5t-69 -161.5h-148q15 132 124 209.5t274 77.5q155 0 243.5 -63
t88.5 -164q0 -91 -73.5 -148t-199.5 -69q146 -9 227.5 -67t81.5 -161q0 -117 -106 -195.5t-279 -78.5zM399 0l1176 1550h104l-1175 -1550h-105zM1264 244q0 99 79.5 163t200.5 80q-114 15 -175.5 69t-61.5 142q0 106 98 167t272 61t272.5 -61t98.5 -167q0 -89 -60 -142.5
t-176 -68.5q122 -16 199.5 -80t77.5 -163q0 -126 -108.5 -195t-303.5 -69q-196 0 -304.5 69t-108.5 195zM1434 250q0 -102 60.5 -158.5t182.5 -56.5t183 56.5t61 158.5q0 95 -63.5 150t-180.5 55t-180 -55t-63 -150zM1466 696q0 -87 49 -134.5t162 -47.5t162 47.5t49 134.5
q0 81 -53 128.5t-158 47.5t-158 -47.5t-53 -128.5z" />
    <glyph glyph-name="fiveeighths" unicode="&#x215d;" horiz-adv-x="2148" 
d="M440 631q-169 0 -271 84t-114 233h68q10 -115 83.5 -178t190.5 -63q114 0 179 63t65 170q0 113 -65.5 173.5t-172.5 60.5q-163 0 -247 -109l-56 22l76 474h590v-119h-543l-51 -316q53 61 135 93t176 32q153 0 242.5 -81.5t89.5 -223.5q0 -145 -103 -230t-272 -85zM393 0
l1176 1550h104l-1175 -1550h-105zM1257 244q0 99 79.5 163t201.5 80q-114 15 -176 69t-62 142q0 106 98.5 167t272.5 61t272.5 -61t98.5 -167q0 -89 -60 -142.5t-176 -68.5q122 -16 199.5 -80t77.5 -163q0 -126 -108.5 -195t-303.5 -69q-196 0 -305 69t-109 195zM1427 250
q0 -102 61 -158.5t183 -56.5t183 56.5t61 158.5q0 95 -63.5 150t-180.5 55t-180.5 -55t-63.5 -150zM1460 696q0 -87 49 -134.5t162 -47.5t162 47.5t49 134.5q0 81 -53 128.5t-158 47.5t-158 -47.5t-53 -128.5z" />
    <glyph glyph-name="seveneighths" unicode="&#x215e;" horiz-adv-x="1949" 
d="M78 655l549 775h-594v131h717l2 -45l-484 -861h-190zM195 0l1175 1550h105l-1176 -1550h-104zM1059 244q0 99 79.5 163t200.5 80q-114 15 -175.5 69t-61.5 142q0 106 98.5 167t272.5 61t272 -61t98 -167q0 -180 -235 -211q122 -16 199 -80t77 -163q0 -126 -108 -195
t-303 -69q-196 0 -305 69t-109 195zM1229 250q0 -102 61 -158.5t183 -56.5t182.5 56.5t60.5 158.5q0 95 -63 150t-180 55t-180.5 -55t-63.5 -150zM1262 696q0 -87 49 -134.5t162 -47.5t161.5 47.5t48.5 134.5q0 81 -52.5 128.5t-157.5 47.5t-158 -47.5t-53 -128.5z" />
    <glyph glyph-name="arrowleft" unicode="&#x2190;" horiz-adv-x="1476" 
d="M721 68l-633 464l633 463l59 -80l-561 -354l1161 23v-105l-1155 21l555 -353z" />
    <glyph glyph-name="arrowup" unicode="&#x2191;" horiz-adv-x="1105" 
d="M1018 633l-80 -60l-352 555l20 -1155h-104l22 1162l-354 -562l-80 60l463 633z" />
    <glyph glyph-name="arrowright" unicode="&#x2192;" horiz-adv-x="1476" 
d="M756 68l-60 79l555 353l-1155 -21v105l1161 -23l-561 354l60 80l633 -463z" />
    <glyph glyph-name="arrowdown" unicode="&#x2193;" horiz-adv-x="1099" 
d="M1014 604l-465 -633l-463 633l80 60l354 -562l-22 1162h104l-20 -1155l352 555z" />
    <glyph glyph-name="arrowboth" unicode="&#x2194;" horiz-adv-x="1673" 
d="M688 68l-602 464l602 463l53 -84l-516 -344h1223l-516 344l53 84l602 -463l-602 -464l-53 82l514 344h-1221l516 -344z" />
    <glyph glyph-name="arrowupdn" unicode="&#x2195;" horiz-adv-x="1126" 
d="M100 895l465 602l463 -602l-84 -53l-344 516v-1223l344 516l84 -53l-463 -602l-465 602l82 53l344 -514v1221l-344 -516z" />
    <glyph glyph-name="uni2196" unicode="&#x2196;" horiz-adv-x="1073" 
d="M197 190l-119 777l774 -119l-14 -100l-648 147l838 -805l-74 -74l-800 832l141 -643z" />
    <glyph glyph-name="uni2197" unicode="&#x2197;" horiz-adv-x="1071" 
d="M870 190l-98 15l146 645l-803 -834l-74 74l838 805l-650 -147l-14 100l774 119z" />
    <glyph glyph-name="uni2198" unicode="&#x2198;" horiz-adv-x="1075" 
d="M879 797l118 -777l-774 119l15 101l647 -148l-838 805l74 74l801 -832l-142 643z" />
    <glyph glyph-name="uni2199" unicode="&#x2199;" horiz-adv-x="1073" 
d="M199 793l98 -15l-143 -639l800 830l74 -74l-840 -805l652 146l14 -99l-774 -121z" />
    <glyph glyph-name="partialdiff" unicode="&#x2202;" horiz-adv-x="1325" 
d="M590 -31q-222 0 -356 127t-134 346q0 129 42 235t114 175t166.5 106t200.5 37q143 0 245 -72.5t142 -195.5q-8 339 -171.5 538t-488.5 232l17 78q208 -14 373 -85t270.5 -186t161 -265t55.5 -326q0 -119 -26 -228.5t-79 -203.5t-127.5 -163.5t-178.5 -109t-226 -39.5z
M315 412q0 -164 72.5 -261.5t208.5 -97.5q157 0 259 123.5t138 321.5q17 171 -69 282t-232 111q-167 0 -272 -131.5t-105 -347.5z" />
    <glyph glyph-name="uni2206" unicode="&#x2206;" horiz-adv-x="1310" 
d="M2 0v53l555 1497h188l566 -1497v-53h-1309zM123 86h930l-457 1309z" />
    <glyph glyph-name="product" unicode="&#x220f;" horiz-adv-x="1511" 
d="M330 1321q-25 86 -77 113t-192 36v80h1389v-80q-136 -9 -187.5 -36t-76.5 -113v-1659h-201v1788h-455v-1788h-200v1659z" />
    <glyph glyph-name="summation" unicode="&#x2211;" horiz-adv-x="1224" 
d="M51 -211v115l647 774l-612 752v120h1065v-184q-167 60 -275 83.5t-212 23.5h-406l586 -721v-47l-621 -742h951v-174h-1123z" />
    <glyph glyph-name="minus" unicode="&#x2212;" horiz-adv-x="1175" 
d="M127 485v90h922v-88z" />
    <glyph glyph-name="uni2219" unicode="&#x2219;" horiz-adv-x="1198" 
d="M600 582q-89 0 -150 61t-61 150q0 88 61 148t150 60q88 0 148.5 -60t60.5 -148q0 -89 -60.5 -150t-148.5 -61z" />
    <glyph glyph-name="radical" unicode="&#x221a;" horiz-adv-x="1200" 
d="M549 -340l-332 987h-199v94h322l295 -923l631 1921h88l-699 -2079h-106z" />
    <glyph glyph-name="infinity" unicode="&#x221e;" horiz-adv-x="2050" 
d="M1556 123q-133 0 -248 74t-282 262q-169 -188 -284.5 -262t-247.5 -74q-72 0 -133.5 24t-111 71.5t-78 129t-28.5 187.5t28.5 187t78 129.5t111.5 72.5t135 24q129 0 240.5 -75t287.5 -269q177 194 289 269t243 75q72 0 133.5 -24t111 -72.5t78 -129.5t28.5 -187
t-28.5 -187.5t-78 -129t-111 -71.5t-133.5 -24zM236 535q0 -88 22 -153.5t59.5 -102t82 -53.5t96.5 -17q100 0 193 63t241 228l31 32l-31 35q-147 165 -240 228t-194 63q-111 0 -185.5 -77t-74.5 -246zM1092 532l28 -32q146 -163 240 -227t194 -64q53 0 97.5 17t82.5 53.5
t59.5 102t21.5 153.5t-21.5 153t-59.5 101t-82.5 52.5t-97.5 16.5q-101 0 -194.5 -64t-237.5 -227z" />
    <glyph glyph-name="integral" unicode="&#x222b;" horiz-adv-x="778" 
d="M-82 -379v94h105q137 0 202.5 73.5t77.5 256.5l82 1190q14 222 101 323t266 101h108v-92h-94q-137 0 -202.5 -73t-78.5 -259l-82 -1190q-14 -222 -99.5 -323t-262.5 -101h-123z" />
    <glyph glyph-name="approxequal" unicode="&#x2248;" horiz-adv-x="1185" 
d="M111 551q0 143 68 220t183 77q59 0 110.5 -21t90.5 -51t77 -59.5t85.5 -50.5t99.5 -21q82 0 120 56t38 147h92q0 -144 -67.5 -220.5t-182.5 -76.5q-61 0 -114 20.5t-91.5 50.5t-76 59.5t-83.5 50t-98 20.5q-84 0 -121.5 -55t-37.5 -146h-92zM111 164q0 143 68 220t183 77
q59 0 110.5 -21t90.5 -50.5t77 -59.5t85.5 -51t99.5 -21q82 0 120 56t38 147h92q0 -144 -67.5 -220.5t-182.5 -76.5q-61 0 -114 20.5t-91.5 50t-76 59.5t-83.5 50.5t-98 20.5q-84 0 -121.5 -55t-37.5 -146h-92z" />
    <glyph glyph-name="notequal" unicode="&#x2260;" horiz-adv-x="1175" 
d="M264 -45l-47 25l193 331h-283v88h334l149 263l-483 -3v91h535l206 356l50 -25l-193 -331h324v-88h-375l-152 -263h527v-86l-578 -2z" />
    <glyph glyph-name="lessequal" unicode="&#x2264;" horiz-adv-x="1175" 
d="M1036 205l-923 330v69l923 328v-92l-788 -271l788 -272v-92zM113 0v84h923v-84h-923z" />
    <glyph glyph-name="greaterequal" unicode="&#x2265;" horiz-adv-x="1175" 
d="M139 205v92l789 272l-789 271v92l924 -328v-69zM139 0v84h924v-84h-924z" />
    <glyph glyph-name="uni2460" unicode="&#x2460;" horiz-adv-x="1882" 
d="M942 -20q-244 0 -434.5 102.5t-296 287t-105.5 421.5q0 235 105.5 418.5t296 285.5t434.5 102t434.5 -102t296 -285.5t105.5 -418.5q0 -237 -105.5 -421.5t-296 -287t-434.5 -102.5zM170 791q0 -219 97 -390t273 -266.5t402 -95.5q225 0 400.5 95.5t272.5 266.5t97 390
q0 218 -97 388t-272.5 264.5t-400.5 94.5q-169 0 -313 -55t-245 -153t-157.5 -237t-56.5 -302zM651 901v100q113 7 197 82t98 172h107v-702q0 -98 18.5 -139.5t81.5 -65.5v-6h-381v6q69 24 90 66t21 139v487q-27 -46 -89.5 -89t-142.5 -50z" />
    <glyph glyph-name="uni2461" unicode="&#x2461;" horiz-adv-x="1882" 
d="M942 -20q-244 0 -434.5 102.5t-296 287t-105.5 421.5q0 235 105.5 418.5t296 285.5t434.5 102t434.5 -102t296 -285.5t105.5 -418.5q0 -237 -105.5 -421.5t-296 -287t-434.5 -102.5zM170 791q0 -219 97 -390t273 -266.5t402 -95.5q225 0 400.5 95.5t272.5 266.5t97 390
q0 218 -97 388t-272.5 264.5t-400.5 94.5q-169 0 -313 -55t-245 -153t-157.5 -237t-56.5 -302zM561 909q8 155 115.5 258t286.5 103q147 0 237 -66t90 -186q0 -50 -21 -93t-49.5 -73t-80.5 -61.5t-92 -50.5t-105 -48q-9 -4 -14 -6q-110 -52 -177 -103.5t-79 -113.5h647v-125
h-750v23q0 63 23.5 118t68 99.5t89 76.5t106.5 68q142 80 204 142.5t62 156.5q0 82 -47 129t-131 47q-113 0 -173 -80t-58 -215h-152z" />
    <glyph glyph-name="uni2462" unicode="&#x2462;" horiz-adv-x="1882" 
d="M942 -20q-244 0 -434.5 102.5t-296 287t-105.5 421.5q0 235 105.5 418.5t296 285.5t434.5 102t434.5 -102t296 -285.5t105.5 -418.5q0 -237 -105.5 -421.5t-296 -287t-434.5 -102.5zM170 791q0 -219 97 -390t273 -266.5t402 -95.5q225 0 400.5 95.5t272.5 266.5t97 390
q0 218 -97 388t-272.5 264.5t-400.5 94.5q-169 0 -313 -55t-245 -153t-157.5 -237t-56.5 -302zM557 651h74q6 -120 80 -185t194 -65q118 0 182 58t64 147q0 185 -256 185h-80v53h80q111 0 171 54t60 140q0 72 -47 117t-139 45q-100 0 -162 -57.5t-69 -161.5h-148
q15 132 124 209.5t273 77.5q155 0 243.5 -63.5t88.5 -164.5q0 -91 -73 -148t-199 -69q146 -9 227.5 -66.5t81.5 -160.5q0 -117 -106 -195.5t-279 -78.5q-176 0 -276 88t-109 241z" />
    <glyph glyph-name="uni2463" unicode="&#x2463;" horiz-adv-x="1882" 
d="M942 -20q-244 0 -434.5 102.5t-296 287t-105.5 421.5q0 235 105.5 418.5t296 285.5t434.5 102t434.5 -102t296 -285.5t105.5 -418.5q0 -237 -105.5 -421.5t-296 -287t-434.5 -102.5zM170 791q0 -219 97 -390t273 -266.5t402 -95.5q225 0 400.5 95.5t272.5 266.5t97 390
q0 218 -97 388t-272.5 264.5t-400.5 94.5q-169 0 -313 -55t-245 -153t-157.5 -237t-56.5 -302zM465 569v78l545 615h131v-584h190v-109h-190v-59q0 -64 16.5 -96.5t67.5 -53.5v-10h-338v10q51 21 67.5 53.5t16.5 98.5v57h-506zM573 678h398v452z" />
    <glyph glyph-name="uni2464" unicode="&#x2464;" horiz-adv-x="1882" 
d="M942 -20q-244 0 -434.5 102.5t-296 287t-105.5 421.5q0 235 105.5 418.5t296 285.5t434.5 102t434.5 -102t296 -285.5t105.5 -418.5q0 -237 -105.5 -421.5t-296 -287t-434.5 -102.5zM170 791q0 -219 97 -390t273 -266.5t402 -95.5q225 0 400.5 95.5t272.5 266.5t97 390
q0 218 -97 388t-272.5 264.5t-400.5 94.5q-169 0 -313 -55t-245 -153t-157.5 -237t-56.5 -302zM557 637h68q10 -116 83.5 -179t190.5 -63q114 0 179 63.5t65 170.5q0 113 -65.5 173t-172.5 60q-165 0 -248 -108l-55 22l76 473h590v-119h-543l-51 -315q53 61 135 93t176 32
q153 0 242.5 -81.5t89.5 -223.5q0 -145 -103 -230.5t-272 -85.5t-271 84.5t-114 233.5z" />
    <glyph glyph-name="uni2465" unicode="&#x2465;" horiz-adv-x="1882" 
d="M942 -20q-244 0 -434.5 102.5t-296 287t-105.5 421.5q0 235 105.5 418.5t296 285.5t434.5 102t434.5 -102t296 -285.5t105.5 -418.5q0 -237 -105.5 -421.5t-296 -287t-434.5 -102.5zM170 791q0 -219 97 -390t273 -266.5t402 -95.5q225 0 400.5 95.5t272.5 266.5t97 390
q0 218 -97 388t-272.5 264.5t-400.5 94.5q-169 0 -313 -55t-245 -153t-157.5 -237t-56.5 -302zM543 774q0 221 114 358.5t312 137.5q145 0 239.5 -79t116.5 -210h-72q-15 99 -83.5 156.5t-170.5 56.5q-137 0 -211 -103t-77 -290q-3 -50 8 -111q21 106 108.5 170t198.5 64
q129 0 217 -78.5t88 -210.5q0 -143 -105 -227t-272 -84q-195 0 -303 121.5t-108 328.5zM725 614q44 -233 227 -233q95 0 154 63.5t59 176.5q0 111 -56.5 171t-145.5 60q-95 0 -163 -64t-75 -174z" />
    <glyph glyph-name="uni2466" unicode="&#x2466;" horiz-adv-x="1882" 
d="M942 -20q-244 0 -434.5 102.5t-296 287t-105.5 421.5q0 235 105.5 418.5t296 285.5t434.5 102t434.5 -102t296 -285.5t105.5 -418.5q0 -237 -105.5 -421.5t-296 -287t-434.5 -102.5zM170 791q0 -219 97 -390t273 -266.5t402 -95.5q225 0 400.5 95.5t272.5 266.5t97 390
q0 218 -97 388t-272.5 264.5t-400.5 94.5q-169 0 -313 -55t-245 -153t-157.5 -237t-56.5 -302zM600 1096v131h717l2 -45l-483 -860h-191l549 774h-594z" />
    <glyph glyph-name="uni2467" unicode="&#x2467;" horiz-adv-x="1882" 
d="M942 -20q-244 0 -434.5 102.5t-296 287t-105.5 421.5q0 235 105.5 418.5t296 285.5t434.5 102t434.5 -102t296 -285.5t105.5 -418.5q0 -237 -105.5 -421.5t-296 -287t-434.5 -102.5zM170 791q0 -219 97 -390t273 -266.5t402 -95.5q225 0 400.5 95.5t272.5 266.5t97 390
q0 218 -97 388t-272.5 264.5t-400.5 94.5q-169 0 -313 -55t-245 -153t-157.5 -237t-56.5 -302zM524 586q0 99 79.5 163t201.5 80q-114 15 -176 69t-62 142q0 106 98.5 167t272.5 61t272.5 -61t98.5 -167q0 -89 -60 -142.5t-176 -68.5q122 -16 199.5 -80t77.5 -163
q0 -126 -108.5 -195t-303.5 -69q-196 0 -305 69t-109 195zM694 592q0 -102 61 -158.5t183 -56.5t183 56.5t61 158.5q0 95 -63.5 150t-180.5 55t-180.5 -55t-63.5 -150zM727 1038q0 -87 49 -134.5t162 -47.5t162 47.5t49 134.5q0 81 -53 128.5t-158 47.5t-158 -47.5
t-53 -128.5z" />
    <glyph glyph-name="uni2468" unicode="&#x2468;" horiz-adv-x="1882" 
d="M942 -20q-244 0 -434.5 102.5t-296 287t-105.5 421.5q0 235 105.5 418.5t296 285.5t434.5 102t434.5 -102t296 -285.5t105.5 -418.5q0 -237 -105.5 -421.5t-296 -287t-434.5 -102.5zM170 791q0 -219 97 -390t273 -266.5t402 -95.5q225 0 400.5 95.5t272.5 266.5t97 390
q0 218 -97 388t-272.5 264.5t-400.5 94.5q-169 0 -313 -55t-245 -153t-157.5 -237t-56.5 -302zM549 948q0 144 105.5 229t271.5 85q195 0 303 -122.5t108 -332.5q0 -220 -113.5 -356t-312.5 -136q-145 0 -239.5 79t-116.5 210h72q15 -100 83 -157.5t171 -57.5
q136 0 210.5 104t79.5 291q0 67 -10 111q-21 -106 -108 -169.5t-199 -63.5q-129 0 -217 77.5t-88 208.5zM715 965q0 -112 57 -172t146 -60q94 0 162 63.5t75 172.5q-44 235 -227 235q-95 0 -154 -63.5t-59 -175.5z" />
    <glyph glyph-name="uni24EA" unicode="&#x24ea;" horiz-adv-x="1882" 
d="M942 -20q-244 0 -434.5 102.5t-296 287t-105.5 421.5q0 235 105.5 418.5t296 285.5t434.5 102t434.5 -102t296 -285.5t105.5 -418.5q0 -237 -105.5 -421.5t-296 -287t-434.5 -102.5zM170 791q0 -219 97 -390t273 -266.5t402 -95.5q225 0 400.5 95.5t272.5 266.5t97 390
q0 218 -97 388t-272.5 264.5t-400.5 94.5q-169 0 -313 -55t-245 -153t-157.5 -237t-56.5 -302zM512 795q0 214 116.5 344.5t313.5 130.5q198 0 314 -130.5t116 -344.5q0 -213 -116 -342t-314 -129q-197 0 -313.5 129.5t-116.5 341.5zM682 795q0 -194 68 -301t192 -107
q126 0 194 107t68 301q0 196 -68 303.5t-194 107.5q-124 0 -192 -108t-68 -303z" />
    <glyph glyph-name="uni24FF" unicode="&#x24ff;" horiz-adv-x="1882" 
d="M942 -20q244 0 434.5 102.5t296 287t105.5 421.5q0 235 -105.5 418.5t-296 285.5t-434.5 102t-434.5 -102t-296 -285.5t-105.5 -418.5q0 -237 105.5 -421.5t296 -287t434.5 -102.5zM512 797q0 214 116.5 344.5t313.5 130.5q198 0 314 -130.5t116 -344.5q0 -213 -116 -342
t-314 -129q-197 0 -313.5 129.5t-116.5 341.5zM682 797q0 -194 68 -301t192 -107q126 0 194 107t68 301q0 196 -68 303.5t-194 107.5q-124 0 -192 -108t-68 -303z" />
    <glyph glyph-name="lozenge" unicode="&#x25ca;" horiz-adv-x="1142" 
d="M547 0l-445 776l447 776h47l444 -776l-446 -776h-47zM201 821l397 -692l344 600l-397 694z" />
    <glyph glyph-name="circle" unicode="&#x25cb;" horiz-adv-x="1882" 
d="M942 -20q-244 0 -434.5 102.5t-296 287t-105.5 421.5q0 235 105.5 418.5t296 285.5t434.5 102t434.5 -102t296 -285.5t105.5 -418.5q0 -237 -105.5 -421.5t-296 -287t-434.5 -102.5zM170 791q0 -219 97 -390t273 -266.5t402 -95.5q225 0 400.5 95.5t272.5 266.5t97 390
q0 218 -97 388t-272.5 264.5t-400.5 94.5q-169 0 -313 -55t-245 -153t-157.5 -237t-56.5 -302z" />
    <glyph glyph-name="uni25CF" unicode="&#x25cf;" horiz-adv-x="1882" 
d="M942 -20q244 0 434.5 102.5t296 287t105.5 421.5q0 235 -105.5 418.5t-296 285.5t-434.5 102t-434.5 -102t-296 -285.5t-105.5 -418.5q0 -237 105.5 -421.5t296 -287t434.5 -102.5z" />
    <glyph glyph-name="uni2733" unicode="&#x2733;" horiz-adv-x="1581" 
d="M356 207l-139 139l512 404l-647 -74v198l647 -75l-512 407l139 137l412 -516l-76 656h197l-74 -654l410 514l139 -137l-512 -407l647 75v-198l-647 74l512 -404l-139 -139l-410 516l74 -655h-197l76 657z" />
    <glyph glyph-name="uni2776" unicode="&#x2776;" horiz-adv-x="1882" 
d="M942 -20q244 0 434.5 102.5t296 287t105.5 421.5q0 235 -105.5 418.5t-296 285.5t-434.5 102t-434.5 -102t-296 -285.5t-105.5 -418.5q0 -237 105.5 -421.5t296 -287t434.5 -102.5zM649 903v101q113 7 197 81.5t98 171.5h107v-702q0 -98 18.5 -139.5t81.5 -65.5v-6h-381
v6q69 24 90 66t21 139v487q-27 -46 -89.5 -89t-142.5 -50z" />
    <glyph glyph-name="uni2777" unicode="&#x2777;" horiz-adv-x="1882" 
d="M942 -20q244 0 434.5 102.5t296 287t105.5 421.5q0 235 -105.5 418.5t-296 285.5t-434.5 102t-434.5 -102t-296 -285.5t-105.5 -418.5q0 -237 105.5 -421.5t296 -287t434.5 -102.5zM571 909q8 155 115.5 258t286.5 103q147 0 237 -66t90 -186q0 -50 -21 -93t-49.5 -73
t-80.5 -61.5t-92 -50.5t-105 -48q-9 -4 -14 -6q-110 -52 -177 -103.5t-79 -113.5h647v-125h-749v23q0 63 23 118t67.5 99.5t89 76.5t106.5 68q71 40 113 68.5t81 64.5t56 76.5t17 89.5q0 82 -47.5 129t-131.5 47q-113 0 -173 -80t-58 -215h-152z" />
    <glyph glyph-name="uni2778" unicode="&#x2778;" horiz-adv-x="1882" 
d="M942 -20q244 0 434.5 102.5t296 287t105.5 421.5q0 235 -105.5 418.5t-296 285.5t-434.5 102t-434.5 -102t-296 -285.5t-105.5 -418.5q0 -237 105.5 -421.5t296 -287t434.5 -102.5zM557 645h74q6 -120 80 -185t194 -65q118 0 182 58t64 147q0 184 -256 184h-80v54h80
q111 0 171 54t60 140q0 72 -47 117t-139 45q-100 0 -162 -57.5t-69 -161.5h-148q15 132 124 209.5t273 77.5q155 0 243.5 -63.5t88.5 -164.5q0 -91 -73 -148t-199 -69q146 -9 227.5 -66.5t81.5 -160.5q0 -117 -106 -196t-279 -79q-176 0 -276 88.5t-109 241.5z" />
    <glyph glyph-name="uni2779" unicode="&#x2779;" horiz-adv-x="1882" 
d="M942 -20q244 0 434.5 102.5t296 287t105.5 421.5q0 235 -105.5 418.5t-296 285.5t-434.5 102t-434.5 -102t-296 -285.5t-105.5 -418.5q0 -237 105.5 -421.5t296 -287t434.5 -102.5zM453 569v78l544 615h131v-584h191v-109h-191v-59q0 -64 16.5 -96.5t67.5 -53.5v-10h-338
v10q51 21 67.5 53.5t16.5 98.5v57h-505zM561 678h397v452z" />
    <glyph glyph-name="uni277A" unicode="&#x277a;" horiz-adv-x="1882" 
d="M942 -20q244 0 434.5 102.5t296 287t105.5 421.5q0 235 -105.5 418.5t-296 285.5t-434.5 102t-434.5 -102t-296 -285.5t-105.5 -418.5q0 -237 105.5 -421.5t296 -287t434.5 -102.5zM563 637h68q10 -116 83.5 -179t190.5 -63q114 0 179 63.5t65 170.5q0 113 -65.5 173
t-172.5 60q-164 0 -247 -108l-56 22l76 473h590v-119h-543l-51 -315q53 61 135 93t176 32q153 0 242.5 -81.5t89.5 -223.5q0 -145 -103 -230.5t-272 -85.5t-271 84.5t-114 233.5z" />
    <glyph glyph-name="uni277B" unicode="&#x277b;" horiz-adv-x="1882" 
d="M942 -20q244 0 434.5 102.5t296 287t105.5 421.5q0 235 -105.5 418.5t-296 285.5t-434.5 102t-434.5 -102t-296 -285.5t-105.5 -418.5q0 -237 105.5 -421.5t296 -287t434.5 -102.5zM545 768q0 221 114 358.5t312 137.5q145 0 239.5 -79t116.5 -210h-72
q-15 99 -83.5 156.5t-170.5 56.5q-137 0 -211 -103t-77 -290q-3 -50 8 -111q21 106 108.5 170t198.5 64q129 0 217 -78.5t88 -210.5q0 -143 -105 -227.5t-272 -84.5q-195 0 -303 122t-108 329zM727 608q44 -233 227 -233q95 0 154 63t59 176q0 111 -56.5 171.5t-145.5 60.5
q-95 0 -163 -64t-75 -174z" />
    <glyph glyph-name="uni277C" unicode="&#x277c;" horiz-adv-x="1882" 
d="M942 -20q244 0 434.5 102.5t296 287t105.5 421.5q0 235 -105.5 418.5t-296 285.5t-434.5 102t-434.5 -102t-296 -285.5t-105.5 -418.5q0 -237 105.5 -421.5t296 -287t434.5 -102.5zM602 1092v131h717l2 -45l-483 -861h-191l549 775h-594z" />
    <glyph glyph-name="uni277D" unicode="&#x277d;" horiz-adv-x="1882" 
d="M942 -20q244 0 434.5 102.5t296 287t105.5 421.5q0 235 -105.5 418.5t-296 285.5t-434.5 102t-434.5 -102t-296 -285.5t-105.5 -418.5q0 -237 105.5 -421.5t296 -287t434.5 -102.5zM528 573q0 99 80 163.5t201 80.5q-114 15 -176 69t-62 142q0 106 98.5 166.5t272.5 60.5
t272.5 -60.5t98.5 -166.5q0 -89 -60 -142.5t-176 -68.5q122 -16 199.5 -80.5t77.5 -163.5q0 -126 -108.5 -195t-303.5 -69q-196 0 -305 69t-109 195zM698 580q0 -102 61 -158.5t183 -56.5t183 56.5t61 158.5q0 95 -63.5 149.5t-180.5 54.5t-180.5 -54.5t-63.5 -149.5z
M731 1026q0 -87 49 -134.5t162 -47.5t162 47.5t49 134.5q0 81 -53 128.5t-158 47.5t-158 -47.5t-53 -128.5z" />
    <glyph glyph-name="uni277E" unicode="&#x277e;" horiz-adv-x="1882" 
d="M942 -20q244 0 434.5 102.5t296 287t105.5 421.5q0 235 -105.5 418.5t-296 285.5t-434.5 102t-434.5 -102t-296 -285.5t-105.5 -418.5q0 -237 105.5 -421.5t296 -287t434.5 -102.5zM555 944q0 144 105.5 228.5t271.5 84.5q195 0 303 -122t108 -332q0 -220 -113 -356
t-312 -136q-145 0 -240 79t-117 210h72q15 -100 83 -157.5t171 -57.5q136 0 211 104t80 291q0 63 -11 111q-21 -106 -108 -170t-199 -64q-129 0 -217 78t-88 209zM721 961q0 -112 57 -172t146 -60q94 0 162 63.5t75 172.5q-44 235 -227 235q-95 0 -154 -63.5t-59 -175.5z
" />
    <glyph glyph-name="uni3010" unicode="&#x3010;" horiz-adv-x="784" 
d="M170 -270v1933h553q-469 -351 -469 -967q0 -612 469 -966h-553z" />
    <glyph glyph-name="uni3011" unicode="&#x3011;" horiz-adv-x="784" 
d="M614 1663v-1933h-553q237 177 353 416t116 550q0 613 -469 967h553z" />
    <glyph glyph-name="uni3016" unicode="&#x3016;" horiz-adv-x="925" 
d="M170 -270v1933h694q-229 -177 -340.5 -416t-111.5 -551q0 -621 452 -966h-694zM242 -213h467q-367 339 -367 909q0 571 365 908h-465v-1817z" />
    <glyph glyph-name="uni3017" unicode="&#x3017;" horiz-adv-x="925" 
d="M61 -270q453 346 453 966q0 312 -112 551t-341 416h695v-1933h-695zM217 -213h467v1817h-465q365 -337 365 -908q0 -570 -367 -909z" />
    <glyph glyph-name="fi" unicode="&#xfb01;" horiz-adv-x="1259" 
d="M127 0v10q66 29 85 83.5t19 180.5v646h-215v81h215v123q0 129 33 226t92 153.5t133 83.5t164 27q177 0 290.5 -97.5t143.5 -265.5h-190q-18 130 -83 207.5t-169 77.5q-225 0 -225 -317q0 -103 14 -218h672v-727q0 -126 19 -180.5t85 -85.5v-8h-411v10q61 29 79.5 83.5
t20.5 180.5v646h-459v-639q0 -129 22.5 -185.5t96.5 -85.5v-10h-432z" />
    <glyph glyph-name="u1F150" unicode="&#x1f150;" horiz-adv-x="1165" 
d="M584 727q-180 0 -303 122t-123 304q0 183 123 304.5t303 121.5q179 0 302.5 -121.5t123.5 -304.5q0 -182 -124 -304t-302 -122z" />
    <glyph glyph-name="u1F446" unicode="&#x1f446;" horiz-adv-x="1894" 
d="M205 565q-7 82 39 133q25 28 57.5 46t44.5 30q4 12 -1 43t-3 51q10 72 71.5 117t127.5 6q-14 68 28 129.5t109 71.5q68 11 124 -35.5t93 -120.5q3 84 3.5 170.5t-0.5 205t-1 167.5q0 125 4 186q0 50 29 97q1 16 5 31.5t14 34t31.5 29t51.5 9.5q21 -1 35.5 -7.5t25 -22
t14 -24t11.5 -30.5q40 -40 49 -135q4 -50 13 -215q10 -206 49 -606q29 113 96 180q63 63 178 86q71 13 117 0q12 19 27.5 28.5t28 4t14.5 -28.5q3 -51 -30 -128t-71 -138q-30 -47 -45 -78q-18 -48 -31 -125q-23 -128 -28 -227q-11 -148 -36.5 -244t-84.5 -195
q-23 -39 -58 -84.5t-59 -83t-37 -79.5q-33 -112 -43 -162q55 -1 70.5 -33t9.5 -117q-4 -38 -6 -80.5t-3.5 -94.5t-2.5 -81q-28 -27 -65 -46t-81 -29t-75.5 -14.5t-75.5 -8.5q-224 -15 -346 10q-33 7 -55 12.5t-55 16.5t-56 23t-46.5 31.5t-37.5 43.5q-10 16 -14 31t-4 22.5
t2.5 29t3.5 30.5l8 108q2 33 12 74l8 33q3 6 8.5 18.5t11 22t11.5 14.5q10 13 25 17q-8 43 -20 84t-33.5 103.5t-28.5 84.5q-57 172 -70 319q-2 21 -3 75t-7 81q-4 25 -24.5 67t-22.5 66zM240 590q0 -55 39 -127q79 -159 196 -172q-3 19 28 56t60 40q0 6 -4 10
q-89 93 -119 172q-5 14 -15.5 44t-17.5 48t-20 41.5t-29 40.5q-52 -31 -59 -38q-59 -59 -59 -115zM287 387q3 -107 18 -188q6 -30 51 -217q10 -43 39 -119t45.5 -141.5t12.5 -127.5q164 -58 356 -65q204 -8 340 57q-1 20 -1.5 34.5t0 30t0.5 23.5t3 24t3.5 21t6 25t7.5 25.5
t10.5 32.5t11.5 38q14 45 38.5 84.5t57 80t43.5 58.5q36 55 64 134q50 143 59 319q5 82 27 207q15 110 47 176q4 7 18 29t17 33q-20 25 -14 64.5t22 73.5t37 62q-31 4 -70 0q-86 -8 -154 -53t-100 -117q-34 -73 -63 -178q-4 -15 -15.5 -83t-27.5 -101l-37 -99h-11
q3 27 19 67.5t20 55.5q9 35 9 68q0 20 4 41.5t11.5 52t10.5 43.5q-6 109 -23 296.5t-22 260.5q-18 238 -18 240q-2 118 -23.5 167t-79.5 50q-53 2 -80.5 -38t-27.5 -122v-428q0 -257 -6 -342q0 -10 -2 -39.5t-2 -43t2 -36t8 -41.5q6 -21 31.5 -62t33.5 -67
q10 -32 15.5 -66.5t2.5 -69t-18 -48.5q-27 -27 -76.5 -21t-70.5 37q-23 -62 -34.5 -99.5t-21.5 -94.5t-6 -107q5 -75 35 -138.5t86 -92.5v-12q-63 29 -98 94t-43 143q-11 129 47 318l-37 22q5 -76 -49 -127t-127 -18q9 -42 -16 -78q-32 -29 -79.5 -35t-82.5 10
q-75 33 -133 117zM373 846q0 -11 5 -36t3 -40q34 -37 64 -119.5t51 -111.5q5 -7 18.5 -27.5t21.5 -31.5t20.5 -27t25.5 -27t26 -18q-7 20 4 38q15 23 101 48q22 7 26 2q7 39 -6 57q-47 62 -84 182t-63 164q-50 82 -115 76q-42 -6 -70 -40t-28 -89zM575 1067q-4 -12 -6 -23
t0.5 -23.5t3.5 -19t9 -21.5t9.5 -18t12.5 -21t12 -19q23 -36 39.5 -88.5t25.5 -94t31 -89.5t56 -81q38 -38 66 -45q-7 12 -3 29.5t17 24.5l63 36q38 21 58 19q-13 33 -25 45q-54 64 -70 131q-15 56 -22 152h16q11 -58 17 -84q0 27 10 135q-124 204 -248 139q-49 -25 -72 -84
z" />
    <glyph glyph-name="u1F447" unicode="&#x1f447;" horiz-adv-x="1894" 
d="M205 541q2 24 22.5 66t24.5 67q6 27 7 80.5t3 74.5q13 149 70 320q7 22 28.5 84.5t33.5 103.5t20 84q-15 4 -25 17q-6 5 -11.5 14.5t-11 22t-8.5 18.5l-8 33q-10 42 -12 73l-8 109q-1 10 -3 25.5t-2.5 23t0.5 19t5 22t12 23.5q14 24 37.5 43.5t46.5 31.5t56 23t55 16.5
t55 12.5q122 25 346 10q44 -4 75.5 -8.5t75.5 -14.5t81 -29t65 -46q1 -29 2.5 -81t3.5 -94.5t6 -80.5q6 -85 -9.5 -117t-70.5 -33q10 -50 43 -162q17 -56 76.5 -137t77.5 -111q59 -99 84.5 -195t36.5 -243q5 -99 28 -227q13 -77 31 -125q15 -31 45 -78q38 -61 71 -138
t30 -128q-2 -23 -14.5 -28.5t-28 4t-27.5 28.5q-46 -13 -117 0q-115 23 -178 86q-67 67 -96 180q-39 -400 -49 -606q-9 -165 -13 -215q-9 -95 -49 -135q-8 -22 -11.5 -30.5t-14 -24t-25 -22t-35.5 -7.5q-30 -1 -51.5 9.5t-31.5 29t-14 34t-5 31.5q-29 47 -29 97
q-4 61 -4 186q0 49 1 167.5t0.5 205t-3.5 170.5q-37 -74 -93 -120.5t-124 -35.5q-67 10 -109 71.5t-28 129.5q-66 -39 -127.5 6t-71.5 117q-2 20 3 51t1 43q-12 12 -44.5 30t-57.5 46q-46 51 -39 133zM240 516q0 -56 59 -115q9 -9 59 -39q16 17 29 41t20 42t17 48t16 44
q30 79 119 172q4 4 4 10q-29 3 -60 40t-28 56q-117 -13 -196 -172q-39 -72 -39 -127zM287 719q58 84 133 117q35 16 82.5 10t79.5 -35q25 -36 16 -78q73 33 127 -18t49 -127l37 22q-58 189 -47 318q8 78 43 143t98 94v-12q-56 -29 -86 -92.5t-35 -138.5q-4 -50 6 -107
t21.5 -94.5t34.5 -99.5q21 31 70.5 37t76.5 -21q15 -14 18 -48.5t-2.5 -69t-15.5 -66.5q-8 -26 -33.5 -67t-31.5 -62q-6 -19 -8 -41.5t-2 -36t2 -43t2 -39.5q6 -85 6 -342v-428q0 -82 27.5 -122t80.5 -38q58 1 79.5 50t23.5 167q0 2 18 240q5 73 22 260.5t23 296.5
q-3 13 -10.5 43.5t-11.5 52t-4 41.5q0 33 -9 68q-4 15 -20 55.5t-19 66.5h11l37 -98q16 -33 27.5 -101t15.5 -83q29 -105 63 -178q32 -72 100 -117t154 -53q39 -4 70 0q-21 28 -37 62t-22 73.5t14 64.5q-3 11 -17 33t-18 29q-32 66 -47 176q-22 125 -27 207q-9 176 -59 319
q-27 77 -64 133q-11 18 -43.5 58.5t-57 80.5t-38.5 85q-3 11 -11.5 38t-10.5 32.5t-7.5 25.5t-6 25t-3.5 21t-3 24t-0.5 23.5t0 30t1.5 34.5q-136 65 -340 57q-189 -7 -356 -66q4 -62 -12.5 -127t-45.5 -141t-39 -119q-45 -187 -51 -217q-15 -81 -18 -188zM373 260
q0 -55 28 -89t70 -40q65 -6 115 76q26 44 63 164t84 182q13 18 6 57q-4 -5 -26 2q-1 0 -18 5t-25 7.5t-21.5 8t-22.5 12t-14 14.5q-11 19 -4 39q-13 -7 -26 -18t-25.5 -27t-20.5 -27t-21.5 -31.5t-18.5 -27.5q-21 -29 -51 -111.5t-64 -119.5q2 -15 -3 -40t-5 -36zM575 39
q23 -59 72 -84q124 -65 248 139q-10 107 -10 135q-6 -26 -17 -84h-16q7 96 22 152q16 67 70 131q12 12 25 45q-20 -2 -58 19l-63 36q-13 7 -17 24.5t3 29.5q-28 -7 -66 -45q-34 -33 -56 -81t-31 -89.5t-25.5 -94t-39.5 -88.5q-2 -4 -10.5 -17t-11 -17.5t-9 -16.5t-8.5 -18
t-5 -17t-3 -19t1 -19t5 -21z" />
    <glyph glyph-name="u1F448" unicode="&#x1f448;" horiz-adv-x="3233" 
d="M1606 55q-82 -7 -133 39q-28 25 -46 58t-30 45q-12 4 -43 -1t-51 -3q-72 10 -117 71t-6 127q-68 -14 -129.5 28t-71.5 109q-11 68 35.5 124t120.5 93q-93 3 -543 3q-125 0 -186 4q-52 0 -97 28q-16 1 -31.5 5t-34 14.5t-29 32t-9.5 51.5q1 21 7.5 35.5t22 25t24 14
t30.5 11.5q40 40 135 49q14 1 215 12q206 10 606 49q-112 29 -180 97q-63 63 -86 178q-13 71 0 116q-19 12 -28.5 27.5t-4 28t28.5 14.5q52 3 129 -30t137 -70q47 -30 78 -45q48 -18 125 -31q135 -24 227 -29q147 -11 243 -36.5t195 -84.5q29 -17 110.5 -76.5t137.5 -76.5
q112 -33 162 -43q1 55 33 70.5t117 9.5q23 -2 256 -13q27 -28 46 -65t29 -81t14.5 -75.5t8.5 -75.5q15 -224 -10 -346q-9 -41 -16.5 -70t-22 -67t-37 -66.5t-51.5 -45.5q-13 -8 -23.5 -12t-22 -5t-18.5 -1t-23.5 2t-25.5 3l-109 8q-26 2 -73 13l-33 8q-6 3 -18.5 8.5t-22 11
t-14.5 11.5q-14 10 -17 24q-43 -8 -84 -20t-103.5 -33.5t-84.5 -28.5q-167 -55 -320 -69q-20 -2 -74 -3.5t-81 -7.5q-25 -4 -67 -24.5t-66 -22.5zM299 887q-2 -53 38 -81t122 -28h428q257 0 342 -6q10 0 39.5 -2t43 -2t36 2t41.5 8q21 6 62 32t67 34q32 10 66.5 15.5t69 2.5
t48.5 -18q27 -27 21 -77t-37 -71q61 -22 99.5 -34t95 -21.5t106.5 -5.5q75 5 138.5 35t92.5 86h12q-29 -63 -94.5 -98.5t-142.5 -43.5q-127 -11 -318 48l-22 -37q76 5 127 -49t18 -127q41 9 78 -17q29 -32 35 -79.5t-10 -82.5q-33 -75 -117 -133q100 3 188 19q30 6 217 51
q43 10 119 39t141 45t127 12q59 167 66 356q8 204 -57 340q-20 -1 -34.5 -1.5t-30 0t-23.5 0.5t-24 3t-21 3.5t-25 6t-25.5 7.5t-32.5 10.5t-38 11.5q-45 14 -85 39t-80.5 57t-58.5 44q-53 35 -133 63q-146 51 -319 60q-91 6 -207 26q-110 15 -176 47q-7 4 -29 18t-33 17
q-25 -20 -64.5 -14t-73.5 22t-62 37q-4 -31 0 -70q7 -86 52.5 -153.5t117.5 -99.5q78 -37 178 -64q15 -4 83 -15.5t101 -27.5l98 -37v-10q-26 3 -66.5 19t-55.5 20q-31 8 -68 8q-20 0 -42 4t-51.5 12t-43.5 11q-109 -6 -296.5 -23t-260.5 -22q-33 -3 -117 -10.5t-123 -8.5
q-118 -2 -167 -23t-50 -79zM1020 498q25 -49 84 -72q12 -4 23 -6t23.5 0.5t19 3.5t21.5 9t18 9.5t21 12.5t19 12q36 23 88.5 39t94 25t89.5 31t81 56q38 38 45 66q-12 -7 -29.5 -3t-24.5 17l-37 64q-20 36 -18 57q-35 -14 -45 -24q-64 -54 -131 -70q-62 -16 -152 -23v17
q8 2 38 7.5t46 8.5q-28 0 -135 10q-203 -124 -139 -247zM1196 322q6 -42 40.5 -70.5t88.5 -28.5q11 0 36 5t40 3q37 34 119.5 64t111.5 51q6 4 27.5 18.5t31.5 22t26.5 20.5t27.5 26t18 26q-20 -7 -39 4q-6 4 -12 12t-10 15.5t-8.5 19.5t-6.5 18.5t-5.5 19t-4.5 15.5
q-8 23 -2 27q-39 7 -57 -6q-62 -47 -182 -84.5t-164 -63.5q-82 -50 -76 -114zM1427 209q30 -50 39 -59q60 -60 115 -60t127 39q159 79 172 197q-19 -3 -56 28t-40 60q-6 0 -10 -4q-93 -89 -172 -119q-14 -6 -44 -16t-48 -17t-42 -20t-41 -29z" />
    <glyph glyph-name="u1F449" unicode="&#x1f449;" horiz-adv-x="3233" 
d="M1628 55q-24 2 -66 22.5t-67 24.5q-27 6 -81.5 7.5t-74.5 3.5q-151 14 -319 69q-22 7 -84.5 28.5t-103.5 33.5t-84 20q-3 -14 -17 -24q-5 -6 -14.5 -11.5t-22 -11t-18.5 -8.5l-33 -8q-47 -11 -74 -13l-108 -8q-9 -1 -25.5 -3t-23.5 -2t-18.5 1t-22 5t-23.5 12
q-29 17 -51.5 45.5t-37 66.5t-22 67t-16.5 70q-25 122 -10 346q4 44 8.5 75.5t14.5 75.5t29 81t46 65q233 11 256 13q85 6 117 -9.5t33 -70.5q50 10 162 43q56 17 136.5 76t110.5 77q99 59 195 84.5t244 36.5q92 5 227 29q77 13 125 31q31 15 78 45q60 37 137 70t129 30
q23 -2 28.5 -14.5t-4 -28t-28.5 -27.5q13 -45 0 -116q-23 -115 -86 -178q-68 -68 -180 -97q400 -39 606 -49q201 -11 215 -12q95 -9 135 -49q22 -8 30.5 -11.5t24 -14t22 -25t7.5 -35.5q1 -30 -9.5 -51.5t-29 -32t-34 -14.5t-31.5 -5q-45 -28 -97 -28q-61 -4 -186 -4
q-450 0 -543 -3q74 -37 120.5 -93t35.5 -124q-10 -67 -71.5 -109t-129.5 -28q39 -66 -6 -127t-117 -71q-20 -2 -51 3t-43 1q-12 -12 -30 -45t-46 -58q-51 -46 -133 -39zM592 659q7 -192 65 -356q62 4 127 -12t141 -45t119 -39q184 -45 218 -51q88 -16 188 -19
q-84 58 -117 133q-16 35 -10 82.5t35 79.5q37 26 78 17q-33 73 18 127t127 49l-22 37q-191 -59 -318 -48q-77 8 -142.5 43.5t-94.5 98.5h12q29 -56 92.5 -86t138.5 -35q50 -4 106.5 5.5t95 21.5t99.5 34q-31 21 -37 71t21 77q14 15 48.5 18t69 -2.5t66.5 -15.5q26 -8 67 -34
t62 -32q19 -6 41.5 -8t36 -2t43 2t39.5 2q85 6 342 6h428q82 0 122 28t38 81q-1 58 -50 79t-167 23q-39 1 -123 8.5t-117 10.5q-73 5 -260.5 22t-296.5 23q-14 -3 -43.5 -11t-51.5 -12t-42 -4q-37 0 -68 -8q-15 -4 -55.5 -20t-67.5 -19v10l99 37q33 16 101 27.5t83 15.5
q100 27 178 64q72 32 117.5 99.5t52.5 153.5q4 39 0 70q-28 -21 -62 -37t-74 -22t-65 14q-11 -3 -32 -17t-29 -18q-66 -32 -176 -47q-116 -20 -207 -26q-173 -9 -319 -60q-82 -29 -134 -63q-18 -12 -58.5 -44t-80 -57t-84.5 -39q-11 -3 -38 -11.5t-32.5 -10.5t-25.5 -7.5
t-25 -6t-21 -3.5t-24 -3t-23.5 -0.5t-30 0t-34.5 1.5q-65 -136 -57 -340zM1354 326q13 -118 172 -197q72 -39 127 -39q54 0 114 60q9 9 39 59q-17 16 -40.5 29t-41.5 20t-48 17.5t-44 15.5q-79 30 -172 119q-4 4 -10 4q-3 -29 -40 -60t-56 -28zM1470 459q7 -13 18 -26
t27 -26t27 -21t32 -21.5t28 -18.5q29 -21 111.5 -51t119.5 -64q15 2 40 -3t36 -5q54 0 88.5 28.5t40.5 70.5q6 64 -76 114q-44 26 -164 63.5t-182 84.5q-18 13 -57 6q5 -4 -3 -27q-1 -3 -4.5 -15.5t-5.5 -19t-6.5 -18.5t-8.5 -19.5t-10 -15.5t-12 -12q-19 -11 -39 -4z
M1587 684q7 -28 45 -66q33 -34 81 -56t89.5 -31t94 -25t88.5 -39q4 -2 17 -10.5t17.5 -11t16.5 -9t18 -8.5t17 -5t19 -3t19 1t21 5q59 23 84 72q64 123 -139 247q-107 -10 -136 -10q16 -3 46 -9t38 -7v-17q-89 6 -151 23q-67 16 -131 70q-10 10 -45 24q2 -19 -19 -57
l-37 -64q-7 -13 -24 -17t-29 3z" />
    <glyph glyph-name="uni004A0301" horiz-adv-x="679" 
d="M23 -225q127 29 173 120.5t46 305.5v1075q0 131 -21.5 182.5t-95.5 81.5v10h461v-10q-74 -30 -95.5 -81.5t-21.5 -182.5v-1071q0 -238 -111.5 -361.5t-334.5 -144.5v76zM313 1692l189 288h203l-320 -288h-72z" />
    <glyph glyph-name="L.ss01" horiz-adv-x="1759" 
d="M102 0v10q72 30 94.5 85t22.5 179v1002q0 130 -22 182t-95 82v10h461v-10q-74 -30 -95.5 -81.5t-21.5 -182.5v-1192h308q186 0 464.5 41.5t505.5 110.5v-236h-1622z" />
    <glyph glyph-name="Q.ss01" horiz-adv-x="1847" 
d="M2001 -311q-91 0 -167 20t-133 54.5t-107.5 90.5t-88.5 117t-78 144q-214 -150 -512 -150q-244 0 -434 101t-294.5 284.5t-104.5 421.5q0 177 61 326.5t170 254t264 162.5t338 58q181 0 335.5 -58t263.5 -162.5t170 -254.5t61 -328q0 -190 -67.5 -345.5t-192.5 -262.5
q53 -89 117 -147.5t164.5 -94t234.5 -35.5v-196zM326 770q0 -258 102 -436h6q14 221 136 358t319 137q60 0 113 -15t94 -37.5t80 -62t67 -76.5t59 -93t51 -99.5t48 -107.5q100 177 100 434q0 209 -69.5 371t-203.5 254t-313 92q-181 0 -315.5 -92.5t-204 -254.5t-69.5 -372z
M473 264q163 -213 442 -213q140 0 252.5 57t190.5 162q-25 55 -44.5 94.5t-47.5 87t-54.5 80t-62 65.5t-73.5 52.5t-86.5 32t-102.5 12.5q-175 0 -286 -112.5t-128 -317.5z" />
    <glyph glyph-name="R.ss01" horiz-adv-x="1392" 
d="M1286 -12q-502 235 -840 786v-500q0 -125 23.5 -180t101.5 -84v-10h-469v10q72 30 94.5 85t22.5 179v1002q0 130 -22 182t-95 82v10h590q582 0 582 -381q0 -128 -62.5 -219t-163.5 -132.5t-229 -41.5q-182 0 -350 96v-14q127 -188 369.5 -376t486.5 -273v-221h-39z
M446 958q113 -84 279 -84q149 0 237.5 74.5t88.5 220.5q0 155 -98.5 227t-301.5 72h-205v-510z" />
    <glyph glyph-name="Q.ss02" horiz-adv-x="1837" 
d="M1784 -266q-237 97 -453 158t-440 75q-373 22 -591 237t-218 568q0 177 61 326.5t170 254t264 162.5t338 58q181 0 335.5 -58t263.5 -162.5t170 -254.5t61 -328q0 -291 -154 -495t-415 -269q224 -12 608 -72v-200zM326 770q0 -210 69.5 -372t204 -254.5t315.5 -92.5
q179 0 313 92.5t203.5 255t69.5 373.5q0 209 -69.5 371t-203.5 254t-313 92q-181 0 -315.5 -92.5t-204 -254.5t-69.5 -372z" />
    <glyph glyph-name="R.ss02" horiz-adv-x="1486" 
d="M1540 -4q-134 0 -223.5 17.5t-161.5 63.5t-123.5 113.5t-109.5 180.5q-59 119 -99 186.5t-90.5 119.5t-106 71.5t-134.5 19.5h-48v-494q0 -125 23.5 -180t101.5 -84v-10h-467v10q72 30 94.5 85t22.5 179v1002q0 130 -22 182t-95 82v10h578q580 0 580 -379
q0 -177 -133 -273t-353 -112q103 -26 188 -108t171 -250q106 -201 191.5 -276.5t215.5 -75.5v-80zM444 846h152q94 0 171.5 18t137.5 55t93.5 99t33.5 145q0 157 -103 231t-280 74h-205v-622z" />
    <glyph glyph-name="C_O" horiz-adv-x="2752" 
d="M866 -29q-181 0 -330 62t-248 169.5t-152.5 253t-53.5 312.5q0 178 60 328t165.5 254t254.5 162.5t323 58.5q280 0 477.5 -142.5t263.5 -412.5h-225q-45 217 -179.5 343t-334.5 126q-128 0 -234.5 -54t-177.5 -146.5t-110 -216.5t-39 -265q0 -145 38 -268.5t110.5 -218
t187 -148t258.5 -53.5q252 0 412 147.5t204 403.5h102q-47 -320 -249.5 -507.5t-522.5 -187.5zM1763 1116q0 206 131.5 331.5t341.5 125.5q212 0 345 -125.5t133 -331.5t-133 -331.5t-345 -125.5t-342.5 125.5t-130.5 331.5zM1950 1116q0 -168 75.5 -275.5t210.5 -107.5
q136 0 213.5 108t77.5 275q0 168 -77.5 275.5t-213.5 107.5q-135 0 -210.5 -107.5t-75.5 -275.5zM2136 0v242h205v-242h-205z" />
    <glyph glyph-name="L_T_D" horiz-adv-x="2656" 
d="M102 0v10q72 30 94.5 85t22.5 179v1002q0 130 -22 182t-95 82v10h461v-10q-74 -30 -95.5 -81.5t-21.5 -182.5v-1192h308q186 0 464.5 41.5t505.5 110.5v-236h-1622zM784 1397v153h781v-151q-21 6 -67 21t-67.5 21.5t-55.5 15.5t-60 12.5t-51 3.5v-535q0 -120 19 -172
t85 -80v-10h-387v10q66 28 85 80t19 172v535q-17 0 -35 -2t-40.5 -6.5t-39 -8.5t-45 -13t-43 -13.5t-50 -16.5t-48.5 -16zM1712 676v10q66 29 85.5 83.5t19.5 180.5v326q0 131 -19 182.5t-86 81.5v10h387q241 0 378.5 -113t137.5 -323q0 -207 -137 -322.5t-379 -115.5h-387z
M1972 0v242h205v-242h-205zM1995 748h92q157 0 249.5 95.5t92.5 270.5q0 179 -91.5 272t-250.5 93h-92v-731z" />
    <glyph glyph-name="O_e" horiz-adv-x="2709" 
d="M915 -35q-244 0 -434 101t-294.5 284.5t-104.5 421.5q0 177 61 326.5t170 254t264 162.5t338 58q349 0 576 -200.5t252 -530.5q69 93 174.5 143.5t230.5 50.5q216 0 346.5 -127t135.5 -331h-787q-2 -14 -2 -41q0 -130 36.5 -229.5t117.5 -160.5t198 -61q143 0 231 82.5
t124 224.5h88q-39 -194 -165 -311t-331 -117q-192 0 -324 106t-167 294q-102 -188 -294 -294t-440 -106zM326 770q0 -210 69.5 -372t204 -254.5t315.5 -92.5q179 0 313 92.5t203.5 255t69.5 373.5q0 209 -69.5 371t-203.5 254t-313 92q-181 0 -315.5 -92.5t-204 -254.5
t-69.5 -372zM1849 651h580q-9 137 -82 223.5t-199 86.5q-120 0 -197.5 -83.5t-101.5 -226.5z" />
    <glyph glyph-name="S_T" horiz-adv-x="2027" 
d="M659 -33q-252 0 -417.5 138t-192.5 389h215q10 -96 38.5 -175.5t76 -140.5t120.5 -95t165 -34q137 0 220 71t83 195q0 37 -9.5 70t-23 59.5t-43.5 56t-56 51t-76.5 53t-89 53.5t-108.5 61q-88 48 -142 80.5t-116 79.5t-96 90t-57 101t-23 124q0 177 133 279t342 102
q222 0 372.5 -115t188.5 -327h-211q-19 164 -108.5 262.5t-239.5 99.5q-130 1 -204 -62t-74 -169q0 -36 9 -67.5t23 -57.5t42.5 -54t54.5 -48.5t73 -49t83.5 -49t99.5 -53.5q59 -32 96.5 -53.5t86.5 -51.5t79 -54t65 -55t55.5 -61.5t39 -67t26.5 -77t8 -86.5
q0 -190 -140.5 -301t-367.5 -111zM1229 1397v153h780v-151q-21 6 -67 21t-67.5 21.5t-55.5 15.5t-60 12.5t-51 3.5v-535q0 -120 19 -172t85 -80v-10h-387v10q66 28 85.5 80t19.5 172v535q-17 0 -35 -2t-40.5 -6.5t-39 -8.5t-45 -13t-43 -13.5t-50 -16.5t-48.5 -16zM1518 0
v242h204v-242h-204z" />
    <glyph glyph-name="i.loclTRK" horiz-adv-x="522" 
d="M51 0v10q66 30 86.5 84.5t20.5 179.5v457q0 131 -19 182.5t-86 81.5v11l164 2l150 8v-742q0 -126 19 -180.5t85 -83.5v-10h-420zM152 1253v232h213v-232h-213z" />
    <glyph glyph-name="uni006A0301" horiz-adv-x="524" 
d="M-41 -438q122 14 167.5 87.5t45.5 227.5v854q0 130 -19 182t-85 82v11l163 2l148 8v-1094q0 -194 -107.5 -305.5t-312.5 -118.5v64zM223 1186l203 362h182l-332 -362h-53z" />
    <glyph glyph-name="g.ss01" horiz-adv-x="1206" 
d="M129 -319q151 -29 254 -29q235 0 351 110.5t116 350.5v170q-45 -126 -137.5 -200.5t-227.5 -74.5q-127 0 -220 67t-140 180.5t-47 258.5q0 151 54.5 268t157.5 183t240 67q101 0 184 -41.5t136 -116.5v127h289v-10q-52 -29 -67 -83.5t-15 -180.5v-522
q0 -344 -246.5 -529.5t-681.5 -185.5v191zM297 514q0 -117 27 -205.5t88 -144t151 -55.5q135 0 211 119.5t76 310.5v243q-42 72 -109.5 115t-144.5 43q-142 0 -220.5 -113.5t-78.5 -312.5z" />
    <glyph glyph-name="y.ss01" horiz-adv-x="1224" 
d="M137 -322q149 -28 258 -28q463 0 463 463v174q-47 -132 -147 -215.5t-240 -83.5q-313 0 -313 372v367q0 126 -19 180.5t-84 83.5v10h404v-10q-59 -29 -76.5 -84t-17.5 -180v-350q0 -141 49.5 -206t150.5 -65q110 0 187 84t106 218v319q0 126 -18 180.5t-78 83.5v10h391
v-10q-54 -29 -70 -83.5t-16 -180.5v-520q0 -230 -115 -392t-323 -243t-492 -82v188z" />
    <glyph glyph-name="f.ss02" horiz-adv-x="800" 
d="M53 0v10q66 29 85.5 83.5t19.5 180.5v363q0 140 38 221t130 105q-66 7 -124 28t-106.5 58t-77 95.5t-28.5 133.5q0 162 118 251t302 89q190 0 309.5 -98t144.5 -277h-186q-17 141 -82 216t-174 75q-112 0 -176 -70t-64 -186q0 -141 91 -209t284 -68h221v-77h-190
q-59 0 -99 -13t-64 -35t-37 -63t-17 -85t-4 -112v-342q0 -125 25.5 -180t109.5 -84v-10h-449z" />
    <glyph glyph-name="t.ss02" horiz-adv-x="849" 
d="M481 -23q-129 0 -195.5 81t-66.5 259v605h-221v79h156q71 0 107.5 32t52.5 111.5t16 231.5h98v-375h338v-79h-338v-609q0 -116 29 -163.5t92 -47.5q153 0 194 361h76q-50 -486 -338 -486z" />
    <glyph glyph-name="c_t" horiz-adv-x="1912" 
d="M588 -35q-222 0 -362 144.5t-140 388.5q0 249 146.5 393.5t373.5 144.5q82 0 152 -18q-39 85 -39 180q0 84 30.5 152t82.5 110t115.5 64t133.5 22q173 0 282.5 -117.5t109.5 -347.5v-80h346v-81h-346v-598q0 -222 159 -222q151 0 226 172l22 -59q-49 -114 -134 -173.5
t-198 -59.5q-61 0 -109.5 17t-88.5 55t-62 105t-22 160v773q0 100 -20.5 174t-56.5 115.5t-79 61t-94 19.5q-93 0 -152 -56t-59 -165q0 -145 104 -293q146 -109 168 -289h-184q-48 301 -283 301q-151 0 -232 -114.5t-81 -304.5q0 -97 20.5 -178t62 -144.5t109.5 -99
t158 -35.5q142 0 230 88.5t122 243.5h86q-32 -202 -160 -325.5t-337 -123.5z" />
    <glyph glyph-name="f_b" horiz-adv-x="1990" 
d="M127 0v10q66 29 85 83.5t19 180.5v646h-217v81h217v160q0 118 32 207.5t89 143t128.5 80t156.5 26.5q206 0 317 -154l156 146h10q-6 -90 -6 -314v-540q47 128 143.5 203t239.5 75q193 0 304.5 -145.5t111.5 -374.5q0 -235 -121 -384.5t-319 -149.5q-116 0 -209.5 54
t-147.5 152q0 -96 19 -186h-340v10q69 29 89.5 84t20.5 180v646h-465v-639q0 -129 22 -184.5t97 -86.5v-10h-432zM430 1235q0 -74 8 -234h467v283q-58 254 -254 254q-106 0 -163.5 -74.5t-57.5 -228.5zM1114 279q40 -96 116 -150.5t171 -54.5q138 0 215.5 118t77.5 322
q0 119 -28.5 211.5t-91.5 150.5t-155 58q-132 0 -212.5 -107.5t-92.5 -283.5v-250v-14z" />
    <glyph glyph-name="f_h" horiz-adv-x="1974" 
d="M127 0v10q66 29 85 83.5t19 180.5v646h-217v81h217v160q0 118 32 207.5t89 143t128.5 80t156.5 26.5q206 0 317 -154l156 146h10q-6 -90 -6 -314v-522q51 117 150 189.5t237 72.5q316 0 316 -370v-392q0 -126 19 -180.5t83 -83.5v-10h-406v10q60 29 77.5 83.5t17.5 180.5
v381q0 138 -50.5 202.5t-152.5 64.5q-109 0 -185.5 -75t-105.5 -190v-364q0 -195 21 -293h-340v10q69 29 89.5 84t20.5 180v646h-465v-639q0 -129 22 -184.5t97 -86.5v-10h-432zM430 1235q0 -74 8 -234h467v283q-58 254 -254 254q-106 0 -163.5 -74.5t-57.5 -228.5z" />
    <glyph glyph-name="f_t" horiz-adv-x="1466" 
d="M88 0v10q66 29 85.5 83.5t19.5 180.5v646h-218v81h218v121q0 118 32 207t86.5 140.5t121 76.5t142.5 25q128 0 221 -61.5t144 -170.5l117 88h6v-426h334v-81h-334v-598q0 -122 41 -171t119 -49q141 0 217 164l22 -57q-47 -110 -130.5 -169.5t-188.5 -59.5
q-289 0 -289 337v603h-453v-639q0 -129 22 -184.5t97 -86.5v-10h-432zM387 1202q0 -84 10 -201h457v275q-67 217 -258 217q-209 0 -209 -291z" />
    <glyph glyph-name="s_s" horiz-adv-x="1945" 
d="M526 -35q-194 0 -320 97.5t-143 263.5h177q11 -136 86.5 -211.5t203.5 -75.5q101 0 159.5 45t58.5 121q0 40 -15.5 70.5t-61 60t-78.5 45.5t-118 53q-12 5 -18 8q-49 21 -79.5 35t-71 35t-65 39t-51.5 43t-41.5 50.5t-24 58t-9.5 69.5q0 123 98.5 193.5t257.5 70.5
q105 0 188.5 -34t139 -91t100 -131t78.5 -156t66.5 -163.5t71.5 -155.5t86.5 -131t118.5 -91t161 -34q100 0 157.5 43.5t57.5 116.5q0 21 -4 39.5t-15.5 35.5t-22 29.5t-33 27.5t-39 25t-50 25.5t-55 25t-64.5 27.5q-52 22 -86.5 38t-76.5 39.5t-68.5 47.5t-51 54.5t-36 68
t-11.5 80.5q0 125 100 194.5t259 69.5q169 0 283.5 -81.5t144.5 -229.5h-174q-16 112 -79 176t-177 64q-92 0 -145.5 -41t-53.5 -109q0 -32 13.5 -59.5t35 -48.5t63 -44.5t81 -41.5t106.5 -46q71 -30 113.5 -50.5t90 -51t72.5 -60t41.5 -70.5t16.5 -91q0 -137 -104 -212
t-271 -75q-100 0 -179.5 34t-132.5 91t-96.5 131.5t-77 156t-66.5 163.5t-74 156.5t-91 131.5t-124.5 91t-168.5 34t-147 -39t-53 -104q0 -33 15.5 -62t36.5 -49.5t65 -45t78 -39.5t98 -42q66 -28 110 -49.5t88 -50.5t69 -59.5t40.5 -71.5t15.5 -90q0 -138 -105 -212.5
t-274 -74.5z" />
    <glyph glyph-name="s_t" horiz-adv-x="1734" 
d="M1401 -20q-61 0 -110 17t-89 55t-62 105t-22 160v773q0 100 -20 174t-55.5 115.5t-78 61t-92.5 19.5q-90 0 -149 -56t-59 -163q0 -140 106 -278q125 -81 156 -238h-189q-14 110 -77.5 174t-172.5 64q-89 0 -141.5 -40t-52.5 -108q0 -38 16.5 -67.5t58 -57t86 -48
t124.5 -52.5q90 -36 145.5 -63.5t109 -67.5t78.5 -90.5t25 -114.5q0 -138 -111.5 -213.5t-285.5 -75.5q-200 0 -328 100.5t-148 270.5h189q12 -138 86 -216.5t203 -78.5q96 0 154.5 42.5t58.5 115.5q0 17 -2.5 31.5t-11 28.5t-15 25t-23.5 24t-26.5 21t-34.5 21t-38 20
t-45.5 21.5t-48 21t-54.5 23.5q-50 21 -78 33.5t-70 33.5t-65.5 37.5t-51.5 41.5t-42.5 50.5t-24.5 58.5t-10 71q0 128 103 201t273 73q67 0 129 -12q-40 84 -40 178q0 108 53 188t133.5 118t175.5 38q170 0 277.5 -117.5t107.5 -347.5v-80h346v-81h-346v-598
q0 -120 41.5 -171t116.5 -51q149 0 227 172l21 -59q-50 -114 -134 -173.5t-196 -59.5z" />
    <glyph glyph-name="w_w_w" horiz-adv-x="4147" 
d="M162 788q-37 100 -66.5 145t-77.5 58v10h402v-10q-42 -9 -58 -31.5t-13 -58t24 -96.5l194 -572l234 725h108l240 -731l190 572q41 113 17 155q-20 22 -51 35q-2 0 -5.5 1t-5.5 1v10h404v-10q-42 -9 -58 -31.5t-13 -58t24 -96.5l194 -572l234 725h108l240 -731l190 572
q41 113 17 155q-20 22 -51 35q-2 0 -5.5 1t-5.5 1v10h404v-10q-42 -9 -58 -31.5t-13 -58t24 -96.5l194 -572l234 725h108l240 -731l190 572q33 87 25 133t-70 59v10h279v-10q-46 -22 -75.5 -63.5t-59.5 -128.5l-246 -695q-24 -77 -27 -104h-129l-239 729l-197 -618
q-24 -67 -29 -111h-129l-280 788l-2 9l-246 -693q-24 -77 -27 -104h-129l-239 729l-197 -618q-24 -67 -29 -111h-129l-280 788l-2 9l-246 -693q-24 -77 -27 -104h-129l-239 729l-197 -618q-24 -67 -29 -111h-129z" />
    <glyph glyph-name="g_t.ss01" horiz-adv-x="1947" 
d="M1614 -20q-61 0 -110 17t-89 55t-62 105t-22 160v770q0 192 -64 278.5t-175 86.5q-103 0 -166.5 -61.5t-63.5 -169.5q0 -167 119 -308q115 -105 115 -270q0 -180 -130 -282.5t-329 -102.5q-144 0 -258 57q-150 -63 -150 -159q0 -48 39.5 -72t130.5 -23q85 0 297 35
t293 35q119 0 185.5 -49.5t66.5 -144.5q0 -98 -66.5 -185t-173 -145t-239 -91.5t-266.5 -33.5q-165 0 -267 50t-102 153q0 140 252 217h-23q-128 0 -202 49t-74 139q0 159 237 262q-141 108 -141 291q0 119 62.5 208.5t166 134t230.5 44.5q101 0 180 -26q-41 83 -41 178
q0 161 112 257.5t273 96.5q181 0 280 -116t99 -333v-86h346v-81h-346v-598q0 -120 41.5 -171t116.5 -51q149 0 227 172l21 -59q-47 -114 -132 -173.5t-198 -59.5zM274 -291q0 -143 244 -143q131 0 256 37t209 107.5t84 154.5q0 54 -33.5 77t-111.5 23q-153 0 -390 -63
q-132 -36 -195 -81.5t-63 -111.5zM385 643q0 -145 66.5 -229t183.5 -84q120 0 187 83t67 230q0 146 -67 228.5t-187 82.5q-117 0 -183.5 -83t-66.5 -228z" />
    <glyph glyph-name="zero.osf" horiz-adv-x="1290" 
d="M645 -29q-118 0 -220.5 38t-178 106.5t-119 170.5t-43.5 224t43.5 224t119 170.5t178 106.5t220.5 38t220.5 -38t178 -106.5t119 -170.5t43.5 -224t-43.5 -224t-119 -170.5t-178 -106.5t-220.5 -38zM287 510q0 -213 95 -337t263 -124t263.5 124t95.5 337
q0 214 -95.5 338.5t-263.5 124.5t-263 -124.5t-95 -338.5z" />
    </font>
</defs>
</svg>
