<?xml version="1.0" standalone="no"?>
<!DOCTYPE svg PUBLIC "-//W3C//DTD SVG 1.1//EN" "http://www.w3.org/Graphics/SVG/1.1/DTD/svg11.dtd" >
<svg xmlns="http://www.w3.org/2000/svg" xmlns:xlink="http://www.w3.org/1999/xlink" version="1.1">
<metadata>
Created by FontForge 20201107 at Wed Sep 11 11:37:27 2024
 By 
(c) 2015-2022 Pangram Pangram All rights reserved.
</metadata>
<defs>
<font id="PPFragment-GlareLight" horiz-adv-x="0" >
  <font-face 
    font-family="PP Fragment Glare Light"
    font-weight="300"
    font-stretch="normal"
    units-per-em="2048"
    panose-1="0 0 0 0 0 0 0 0 0 0"
    ascent="1638"
    descent="-410"
    x-height="997"
    cap-height="1550"
    bbox="-463 -860.087 4004 2040"
    underline-thickness="96"
    underline-position="-210"
    unicode-range="U+0021-1F449"
  />
<missing-glyph horiz-adv-x="1044" 
d="M856 1597v-2089h-661v2089h661zM348 -348h348v69h-213l146 99h67v69h-348v-69h148l-148 -99v-69zM348 -63h348v235h-348v-235zM348 299h348v236h-209v-117h70v47h70v-98h-209v168h-70v-236zM348 580h348v208h-69v-137h-279v-71zM348 698h209v148h139v67h-348v-67h139v-78
h-139v-70zM348 971h348v71h-139v146h-209v-217zM348 1243h348v68h-139v78h139v69h-346v-69h137v-78h-139v-68zM418 6v98h209v-98h-209zM418 1042v74h69v-74h-69z" />
    <glyph glyph-name="fl" unicode="fl" horiz-adv-x="1224" 
d="M803 0v6q54 35 70 88t16 166v658h-488v-654q0 -114 18 -168.5t77 -89.5v-6h-340v6q51 35 66.5 88t15.5 166v658h-220v79h220v183q0 113 29.5 198.5t82.5 136.5t120 76t148 25q192 0 302 -148l114 144l25 -2q-6 -135 -6 -307v-1043q0 -115 15 -167t69 -87v-6h-334z
M397 1227q0 -74 4 -230h488v310q-29 108 -94.5 170.5t-165.5 62.5q-110 0 -171 -76.5t-61 -236.5z" />
    <glyph glyph-name="T_h" unicode="Th" horiz-adv-x="2340" 
d="M1241 0v6q54 35 70 88t16 166v1155q-280 55 -502 55h-71v-1210q0 -115 15.5 -167t72.5 -87v-6h-359v6q57 35 73.5 87.5t16.5 166.5v1210h-57q-147 0 -481 -73v153h1468l10 -6q-1 -5 -4.5 -18.5t-4 -18t-3 -16.5t-3.5 -19t-2.5 -20.5t-2 -26t-1.5 -30.5t-1 -39v-47v-545
q49 116 147 191t238 75q309 0 309 -368v-402q0 -115 14.5 -167t65.5 -87v-6h-321v6q48 35 61.5 87t13.5 167v391q0 143 -54 210t-163 67q-118 0 -197 -77t-114 -198v-393q0 -113 15.5 -166t68.5 -88v-6h-334z" />
    <glyph glyph-name="f_f" unicode="ff" horiz-adv-x="1404" 
d="M117 0v6q51 35 66.5 88t15.5 166v658h-219v79h219v144q0 113 29.5 198.5t81 134.5t114 73t135.5 24q107 0 190 -46t134 -128q42 112 128 166.5t199 54.5q114 0 197.5 -53t128.5 -142l-104 -94q-67 207 -226 207q-200 0 -200 -289q0 -124 6 -250h389v-79h-387v-654
q0 -116 18 -169.5t80 -88.5v-6h-346v6q52 35 67 87t15 167v658h-486v-654q0 -114 18 -168.5t77 -89.5v-6h-340zM354 1190q0 -88 6 -193h488v181q0 46 2 69q-63 248 -275 248q-221 0 -221 -305z" />
    <glyph glyph-name="f_f_i" unicode="ffi" horiz-adv-x="1812" 
d="M117 0v6q51 35 66.5 88t15.5 166v658h-219v79h219v144q0 113 29.5 198.5t81 134.5t114 73t135.5 24q111 0 195 -48t133 -134q47 116 140 170.5t216 54.5q167 0 272.5 -96t129.5 -258h-154q-16 126 -80.5 201t-171.5 75q-238 0 -238 -334q0 -68 7 -205h651l-2 -737
q0 -115 15 -167t67 -87v-6h-326v6q51 35 65.5 87t14.5 167v658h-481v-654q0 -116 17 -169.5t77 -88.5v-6h-342v6q52 35 67 87t15 167v658h-484v-654q0 -114 18 -168.5t77 -89.5v-6h-340zM354 1190q0 -88 6 -193h486v146q0 53 6 100q-30 120 -99.5 186t-177.5 66
q-221 0 -221 -305z" />
    <glyph glyph-name="f_f_l" unicode="ffl" horiz-adv-x="1835" 
d="M117 0v6q51 35 66.5 88t15.5 166v658h-219v79h219v144q0 113 29.5 198.5t81 134.5t114 73t135.5 24q219 0 326 -176q44 112 134 166.5t210 54.5q191 0 301 -148l115 144l24 -2q-6 -135 -6 -307v-1043q0 -115 15 -167t69 -87v-6h-334v6q54 35 70 88t16 166v658h-487v-654
q0 -115 17.5 -169t76.5 -89v-6h-340v6q51 35 66.5 88t15.5 166v658h-486v-654q0 -114 18 -168.5t77 -89.5v-6h-340zM354 1190q0 -88 6 -193h488v183q0 44 2 67q-63 248 -275 248q-221 0 -221 -305zM1008 1227q0 -74 4 -230h487v310q-29 108 -94.5 170.5t-165.5 62.5
q-110 0 -170.5 -76.5t-60.5 -236.5z" />
    <glyph glyph-name="f_i" unicode="fi" horiz-adv-x="1202" 
d="M154 0v6q52 35 67 87t15 167v658h-218v79h218v146q0 125 31 218t86.5 147t125.5 80t154 26q167 0 272 -96t129 -258h-153q-16 126 -80.5 201t-171.5 75q-238 0 -238 -334q0 -88 6 -205h652l-2 -737q0 -115 14.5 -167t66.5 -87v-6h-325v6q51 35 65.5 87t14.5 167v658h-482
v-654q0 -115 17.5 -169t77.5 -89v-6h-342z" />
    <glyph glyph-name="g_t" unicode="gt" horiz-adv-x="1886" 
d="M1581 -18q-272 0 -272 329v979l157 127h7v-420h331v-82h-331v-600q0 -127 43 -176t122 -49q146 0 220 154l22 -62q-45 -94 -123 -147t-176 -53zM80 96q0 149 223 244q-139 110 -139 295q0 178 124.5 282.5t313.5 104.5q108 0 199 -36t151 -103q25 71 89 117t163 47v-134
q-161 0 -211 -86q49 -87 49 -192q0 -180 -124 -283.5t-314 -103.5q-138 0 -246 57q-151 -68 -151 -166q0 -51 38 -75.5t128 -24.5q85 1 294 38.5t296 37.5q113 0 178 -48t65 -141q0 -95 -64 -179.5t-167.5 -141t-232 -89t-257.5 -32.5q-77 0 -140.5 11.5t-115 35t-80 64.5
t-28.5 96q0 146 235 221h-24q-115 0 -183.5 48t-68.5 136zM248 -287q0 -149 252 -149q134 0 262.5 39.5t213.5 112.5t85 159q0 57 -35 82t-117 25q-147 0 -399 -68q-134 -36 -198 -84t-64 -117zM328 635q0 -143 74 -227t200 -84q129 0 203 84t74 227q0 141 -75 225t-202 84
q-126 0 -200 -84t-74 -225z" />
    <glyph glyph-name=".notdef" horiz-adv-x="1044" 
d="M856 1597v-2089h-661v2089h661zM348 -348h348v69h-213l146 99h67v69h-348v-69h148l-148 -99v-69zM348 -63h348v235h-348v-235zM348 299h348v236h-209v-117h70v47h70v-98h-209v168h-70v-236zM348 580h348v208h-69v-137h-279v-71zM348 698h209v148h139v67h-348v-67h139v-78
h-139v-70zM348 971h348v71h-139v146h-209v-217zM348 1243h348v68h-139v78h139v69h-346v-69h137v-78h-139v-68zM418 6v98h209v-98h-209zM418 1042v74h69v-74h-69z" />
    <glyph glyph-name=".null" 
 />
    <glyph glyph-name="nonmarkingreturn" horiz-adv-x="682" 
 />
    <glyph glyph-name="space" unicode="&#xa0;" horiz-adv-x="552" 
 />
    <glyph glyph-name="space" unicode=" " horiz-adv-x="552" 
 />
    <glyph glyph-name="exclam" unicode="!" horiz-adv-x="542" 
d="M229 436l-53 1114h191l-52 -1114h-86zM184 0v223h174v-223h-174z" />
    <glyph glyph-name="quotedbl" unicode="&#x22;" horiz-adv-x="636" 
d="M145 1014l-45 536h156l-45 -536h-66zM381 1550h156l-45 -536h-66z" />
    <glyph glyph-name="numbersign" unicode="#" horiz-adv-x="1288" 
d="M254 -18l135 602h-311v67h325l58 254h-340v70h354l133 596h80l-133 -596h266l133 596h80l-133 -596h309v-70h-323l-58 -254h338v-67h-352l-135 -602h-82l135 602h-264l-135 -602h-80zM483 651h265l57 254h-264z" />
    <glyph glyph-name="dollar" unicode="$" horiz-adv-x="1339" 
d="M662 -348v332q-218 18 -358 153.5t-163 368.5h172q16 -181 104.5 -298.5t244.5 -137.5v665l-27 15q-86 46 -139.5 77.5t-113 76.5t-92 86.5t-54 97t-21.5 118.5q0 168 124.5 266.5t322.5 98.5v307h67v-309q189 -19 310.5 -132.5t150.5 -301.5h-168q-18 143 -92 236
t-201 114v-598l25 -13q59 -32 96 -53t85 -50.5t77 -52.5t63 -53.5t53.5 -59.5t37 -64t25 -74.5t7.5 -83.5q0 -184 -129 -291t-340 -110v-330h-67zM375 1247q0 -102 66.5 -169.5t224.5 -155.5v567h-2q-137 1 -213 -65t-76 -177zM725 66q142 2 226.5 76t84.5 202
q0 59 -17.5 104.5t-59.5 88t-94.5 77.5t-139.5 84v-632z" />
    <glyph glyph-name="percent" unicode="%" horiz-adv-x="1529" 
d="M133 0l1163 1550h105l-1165 -1550h-103zM72 1245q0 145 92.5 235.5t238.5 90.5q145 0 238.5 -91t93.5 -235q0 -141 -93.5 -232t-238.5 -91q-146 0 -238.5 91t-92.5 232zM197 1245q0 -121 54 -189.5t152 -68.5q97 0 152 69t55 189q0 122 -55 191t-152 69q-98 0 -152 -69
t-54 -191zM795 303q0 145 92.5 235.5t238.5 90.5q145 0 238.5 -91t93.5 -235q0 -141 -93.5 -232t-238.5 -91q-146 0 -238.5 91t-92.5 232zM920 303q0 -121 54 -189.5t152 -68.5q97 0 152 69t55 189q0 122 -55 191t-152 69q-98 0 -152 -69t-54 -191z" />
    <glyph glyph-name="ampersand" unicode="&#x26;" horiz-adv-x="1683" 
d="M662 -27q-220 0 -359 109.5t-139 304.5q0 148 93.5 258t283.5 213q-123 129 -173.5 215t-50.5 182q0 149 109 236.5t279 87.5q160 0 264 -84.5t104 -228.5q0 -122 -87.5 -217t-260.5 -183l442 -450q59 127 86 264l164 -2q-78 -206 -166 -348l303 -310v-20h-182l-207 213
q-200 -240 -503 -240zM336 414q0 -152 98.5 -243t267.5 -91q235 0 390 209l-496 514q-135 -90 -197.5 -182.5t-62.5 -206.5zM473 1270q0 -83 44 -158.5t151 -187.5q132 78 193 159t61 185q0 113 -60.5 173t-156.5 60q-104 0 -168 -61.5t-64 -169.5z" />
    <glyph glyph-name="quotesingle" unicode="'" horiz-adv-x="356" 
d="M145 1014l-45 536h156l-45 -536h-66z" />
    <glyph glyph-name="parenleft" unicode="(" horiz-adv-x="815" 
d="M737 -291q-187 64 -334.5 202t-235 342t-87.5 439q0 176 51.5 334.5t142 280t210 210.5t257.5 138v-88q-220 -106 -356.5 -340.5t-136.5 -534.5q0 -306 134.5 -549.5t354.5 -347.5v-86z" />
    <glyph glyph-name="parenright" unicode=")" horiz-adv-x="815" 
d="M78 -205q220 104 354.5 347.5t134.5 549.5q0 300 -136.5 534.5t-356.5 340.5v88q138 -49 257.5 -138t210 -210.5t142 -280t51.5 -334.5q0 -235 -87.5 -439t-235 -342t-334.5 -202v86z" />
    <glyph glyph-name="asterisk" unicode="*" horiz-adv-x="1093" 
d="M489 657l39 398l-254 -310l-79 80l305 256l-398 -34v112l398 -35l-305 258l79 80l254 -311l-39 399h113l-37 -399l256 311l78 -80l-307 -258l399 35v-112l-399 34l307 -256l-78 -80l-256 310l37 -398h-113z" />
    <glyph glyph-name="plus" unicode="+" horiz-adv-x="1175" 
d="M539 43v442h-410v90h412v445h96v-445h407v-88h-409v-444h-96z" />
    <glyph glyph-name="comma" unicode="," horiz-adv-x="415" 
d="M53 -211q178 36 189 211h-119v223h174v-194q0 -273 -244 -336v96z" />
    <glyph glyph-name="hyphen" unicode="-" horiz-adv-x="948" 
d="M92 580q384 -17 764 0v-97q-380 17 -764 0v97z" />
    <glyph glyph-name="period" unicode="." horiz-adv-x="411" 
d="M119 0v223h174v-223h-174z" />
    <glyph glyph-name="slash" unicode="/" horiz-adv-x="1026" 
d="M18 -244l891 1997h99l-891 -1997h-99z" />
    <glyph glyph-name="zero" unicode="0" horiz-adv-x="1345" 
d="M672 -33q-267 0 -417.5 212.5t-150.5 594.5q0 383 150.5 594t417.5 211q268 0 418.5 -211.5t150.5 -595.5q0 -382 -150.5 -593.5t-418.5 -211.5zM287 772q0 -359 99.5 -541t285.5 -182q187 0 288 182t101 541q0 361 -100.5 543t-288.5 182q-186 0 -285.5 -182t-99.5 -543
z" />
    <glyph glyph-name="one" unicode="1" horiz-adv-x="819" 
d="M311 0v6q66 35 85.5 89t19.5 169v1028q-41 -89 -133.5 -164.5t-214.5 -87.5v123q85 12 161 52.5t128 96t86 117t46 121.5h107v-1290q0 -114 18 -166.5t80 -87.5v-6h-383z" />
    <glyph glyph-name="two" unicode="2" horiz-adv-x="1271" 
d="M102 27q0 74 33 139t121.5 155.5t261.5 233.5q199 164 261 224q134 131 171 254q19 62 19 134q0 155 -80.5 239.5t-226.5 84.5q-186 0 -287 -130.5t-103 -342.5h-168q12 257 166 410t414 153q214 0 341.5 -109t127.5 -307q0 -76 -21.5 -145t-56.5 -125t-96 -117
t-121 -109.5t-151 -115.5q-182 -131 -294 -229t-165 -179h919l2 -145h-1067v27z" />
    <glyph glyph-name="three" unicode="3" horiz-adv-x="1320" 
d="M680 -35q-262 0 -420.5 152t-173.5 418h102q12 -219 136.5 -342t324.5 -123q189 0 290 101t101 259q0 164 -116.5 257t-337.5 93h-142v84h158q184 0 290.5 93t106.5 243q0 60 -18 111t-55 93t-101.5 66.5t-150.5 24.5q-180 0 -287 -102t-129 -287h-162q27 215 187 344
t411 129q227 0 354.5 -105.5t127.5 -269.5q0 -148 -106.5 -247t-283.5 -126q198 -23 317.5 -129t119.5 -282q0 -93 -37.5 -175t-105.5 -144.5t-171.5 -99t-228.5 -36.5z" />
    <glyph glyph-name="four" unicode="4" horiz-adv-x="1390" 
d="M791 -2v6q55 35 71.5 87.5t16.5 166.5v139h-836v95l889 1064h121v-1026h297v-133h-297v-139q0 -115 15.5 -167t72.5 -87v-6h-350zM180 530h699l2 842z" />
    <glyph glyph-name="five" unicode="5" horiz-adv-x="1286" 
d="M635 -37q-244 0 -394.5 139t-162.5 381h96q12 -196 130 -305.5t298 -109.5q196 0 304 116t108 310q0 202 -108.5 305.5t-289.5 103.5q-114 0 -216.5 -41.5t-172.5 -128.5l-84 35l107 782h895v-141h-821l-78 -575q76 80 191 122.5t243 42.5q239 0 378.5 -133t139.5 -370
q0 -240 -152 -386.5t-411 -146.5z" />
    <glyph glyph-name="six" unicode="6" horiz-adv-x="1378" 
d="M700 -35q-149 0 -264 52.5t-187.5 149.5t-109.5 229.5t-37 297.5q0 143 26 273t80.5 241.5t131.5 193.5t185.5 128.5t236.5 46.5q218 0 355 -125.5t165 -349.5h-102q-22 172 -127 274.5t-269 102.5q-108 0 -195 -45.5t-143 -120.5t-93.5 -178.5t-53.5 -214t-16 -232.5
q0 -59 2 -88q37 174 172 280.5t313 106.5q137 0 248.5 -57.5t178.5 -171.5t67 -266q0 -123 -44.5 -223.5t-121 -166.5t-179 -101.5t-219.5 -35.5zM307 424q36 -179 133 -275t256 -96q168 0 275.5 115t107.5 313q0 197 -101.5 303.5t-260.5 106.5q-179 0 -296.5 -133.5
t-113.5 -333.5z" />
    <glyph glyph-name="seven" unicode="7" horiz-adv-x="1093" 
d="M168 0l747 1407h-892v143h1036v-57l-699 -1493h-192z" />
    <glyph glyph-name="eight" unicode="8" horiz-adv-x="1437" 
d="M721 -35q-179 0 -321.5 52.5t-227 156t-84.5 242.5q0 91 36 166.5t100 126.5t145.5 83.5t177.5 45.5q-171 28 -268 124.5t-97 235.5q0 167 141.5 274t395.5 107q256 0 397 -105.5t141 -271.5q0 -140 -97.5 -238t-268.5 -126q77 -10 145 -32.5t126 -58.5t100 -83.5
t66 -111t24 -136.5q0 -139 -84.5 -242.5t-226.5 -156t-320 -52.5zM279 424q0 -170 124.5 -271.5t317.5 -101.5q192 0 316 101.5t124 271.5q0 167 -119.5 268t-320.5 101q-203 0 -322.5 -101t-119.5 -268zM358 1196q0 -63 21.5 -119.5t64 -103t114 -74t163.5 -27.5
q91 0 162 27.5t113 74t63.5 103t21.5 119.5q0 132 -93.5 220.5t-266.5 88.5q-175 0 -269 -88.5t-94 -220.5z" />
    <glyph glyph-name="nine" unicode="9" horiz-adv-x="1378" 
d="M680 1579q197 0 332.5 -94t199.5 -260t64 -396q0 -139 -23 -264t-72.5 -235t-122.5 -190t-179 -126.5t-236 -46.5q-217 0 -355 126t-167 351h102q22 -173 127 -274.5t271 -101.5q110 0 194.5 46t136.5 119.5t85.5 177.5t46 208.5t12.5 222.5q0 69 -2 100
q-37 -171 -172.5 -277t-317.5 -106q-137 0 -247 57.5t-176 171.5t-66 265q0 164 76 285t203 181t286 60zM297 1063q0 -195 102 -300.5t260 -105.5q179 0 297 131t115 328q-76 375 -387 375q-171 0 -279 -114t-108 -314z" />
    <glyph glyph-name="colon" unicode=":" horiz-adv-x="452" 
d="M139 627v223h174v-223h-174zM139 0v223h174v-223h-174z" />
    <glyph glyph-name="semicolon" unicode=";" horiz-adv-x="456" 
d="M139 627v223h174v-223h-174zM74 -307v96q177 35 188 211h-119v223h174v-194q0 -273 -243 -336z" />
    <glyph glyph-name="less" unicode="&#x3c;" horiz-adv-x="1175" 
d="M1032 164l-915 332v71l915 330v-94l-780 -271l780 -272v-96z" />
    <glyph glyph-name="equal" unicode="=" horiz-adv-x="1175" 
d="M129 659v89h915v-86zM129 313v88h915v-86z" />
    <glyph glyph-name="greater" unicode="&#x3e;" horiz-adv-x="1175" 
d="M143 164v96l781 272l-781 271v94l916 -330v-71z" />
    <glyph glyph-name="question" unicode="?" horiz-adv-x="1026" 
d="M360 440q-38 96 -38 166q0 58 26.5 109.5t68.5 90.5t93 76.5t102.5 75.5t93.5 79t68.5 95t26.5 115q0 103 -66 170.5t-186 67.5q-152 0 -238 -104t-94 -289h-160q12 226 151 353.5t357 127.5q187 0 298.5 -91t111.5 -239q0 -72 -30 -132.5t-78 -102.5t-105.5 -79.5
t-115.5 -71t-106 -68t-78 -81t-30 -100.5q0 -65 66 -168h-138zM360 0v223h175v-223h-175z" />
    <glyph glyph-name="at" unicode="@" horiz-adv-x="2101" 
d="M942 -332q-405 0 -630.5 210t-225.5 595q0 176 47.5 339.5t142.5 302.5t226.5 242t310.5 161.5t385 58.5q198 0 353 -55t253.5 -154.5t149.5 -232.5t51 -293q1 -187 -66 -351t-196 -268t-291 -104q-140 0 -210.5 77.5t-61.5 211.5q-71 -132 -169 -210.5t-216 -78.5
q-126 0 -193 89t-67 236q0 95 26.5 195t76 188.5t114 159.5t146.5 112.5t167 41.5q116 0 177.5 -73.5t66.5 -188.5l73 231l160 37l-192 -598q-119 -371 135 -371q131 0 238 95.5t165 247.5t58 323q0 151 -47 275t-138.5 214.5t-235 140.5t-327.5 50q-198 0 -369 -57
t-294.5 -156.5t-212 -233t-132 -288t-43.5 -320.5q0 -362 211 -553.5t588 -191.5q184 0 343.5 50t312.5 163l-7 -62q-279 -207 -653 -207zM696 446q0 -107 40.5 -172t123.5 -65q61 0 120 37.5t106 99t83 133.5t60 148l20 63q26 96 23.5 176t-46.5 132.5t-120 54.5
q-108 2 -205 -95t-151 -237.5t-54 -274.5z" />
    <glyph glyph-name="A" unicode="A" horiz-adv-x="1456" 
d="M6 6q58 36 97.5 86.5t70.5 136.5l438 1190q24 65 4 131h189l495 -1327q32 -88 65 -137t85 -80v-6h-391v6q55 31 64.5 82.5t-19.5 132.5l-98 277h-621l-98 -273q-33 -89 -26.5 -139t56.5 -80v-6h-311v6zM414 580h563l-281 794z" />
    <glyph glyph-name="B" unicode="B" horiz-adv-x="1349" 
d="M125 0v6q57 35 73.5 87.5t16.5 166.5v1030q0 119 -16 169t-74 85v6h506q170 0 294 -36t196.5 -115t72.5 -197q0 -149 -111.5 -238t-304.5 -110v-8q105 -9 193.5 -38t157 -78.5t107 -124.5t38.5 -169q0 -147 -80.5 -246t-219.5 -144.5t-331 -45.5h-518zM391 82h242
q102 0 182.5 19.5t142.5 61t95.5 111.5t33.5 166q0 179 -124.5 272t-348.5 93h-223v-723zM391 885h219q184 0 296 79.5t112 225.5q0 144 -107 211t-295 67h-225v-583z" />
    <glyph glyph-name="C" unicode="C" horiz-adv-x="1691" 
d="M864 -29q-181 0 -330 63t-246 172t-149.5 253.5t-52.5 310.5q0 176 58.5 325.5t162 254.5t252 164t322.5 59q181 0 329 -61t255.5 -188t150.5 -308h-180q-53 219 -199 343t-358 124q-182 0 -320.5 -93t-210.5 -249t-72 -348q0 -143 39.5 -268t114.5 -222.5t195.5 -154
t271.5 -56.5q255 0 419 150t208 405h106q-48 -314 -249 -495t-517 -181z" />
    <glyph glyph-name="D" unicode="D" horiz-adv-x="1667" 
d="M125 0v6q57 35 73.5 87.5t16.5 166.5v1030q0 119 -16 169t-74 85v6h559q272 0 474 -91.5t312.5 -267.5t110.5 -417q0 -357 -241.5 -565.5t-653.5 -208.5h-561zM395 84h281q323 0 519 185t196 505q0 218 -90 375.5t-250 237t-375 79.5h-281v-1382z" />
    <glyph glyph-name="E" unicode="E" horiz-adv-x="1179" 
d="M125 0v6q57 35 73.5 87.5t16.5 166.5v1030q0 119 -16 169t-74 85v6h965v-153q-308 69 -484 69h-211v-614h152q33 0 438 10v-100q-270 10 -438 10h-152v-688h252q186 0 479 78v-162h-1001z" />
    <glyph glyph-name="F" unicode="F" horiz-adv-x="1150" 
d="M1108 1397q-298 69 -514 69h-199v-573h158q27 0 442 10v-100q-277 10 -442 10h-158v-553q0 -114 17 -166.5t77 -87.5v-6h-364v6q57 35 73.5 87.5t16.5 166.5v1030q0 119 -16 169t-74 85v6h983v-153z" />
    <glyph glyph-name="G" unicode="G" horiz-adv-x="1775" 
d="M842 -31q-142 0 -264.5 40.5t-212 113.5t-153 172t-95 218t-31.5 249q0 240 103 425.5t289 286.5t425 101q272 0 465.5 -131.5t251.5 -362.5h-178q-51 192 -193.5 299t-349.5 107q-142 0 -260 -53.5t-197.5 -147.5t-123.5 -223t-44 -279q0 -144 39 -268.5t113.5 -220.5
t193.5 -151.5t269 -55.5q257 0 413.5 163.5t184.5 446.5h-748l-2 84h910v-790h-80l-62 463q-63 -225 -236 -355.5t-427 -130.5z" />
    <glyph glyph-name="H" unicode="H" horiz-adv-x="1576" 
d="M125 0v6q57 35 73.5 87.5t16.5 166.5v1030q0 119 -16 169t-74 85v6h360v-6q-58 -35 -74 -85t-16 -169v-436h787v436q0 120 -15.5 169.5t-74.5 84.5v6h360v-6q-58 -35 -74 -85t-16 -169v-1030q0 -114 16.5 -166.5t73.5 -87.5v-6h-360v6q58 35 74 87t16 167v508h-787v-508
q0 -114 16.5 -166.5t73.5 -87.5v-6h-360z" />
    <glyph glyph-name="I" unicode="I" horiz-adv-x="610" 
d="M125 0v6q57 35 73.5 87.5t16.5 166.5v1030q0 119 -16 169t-74 85v6h360v-6q-58 -35 -74 -85t-16 -169v-1030q0 -114 16.5 -166.5t73.5 -87.5v-6h-360z" />
    <glyph glyph-name="J" unicode="J" horiz-adv-x="638" 
d="M18 -207q131 25 182.5 118.5t51.5 301.5v1077q0 119 -16 169t-74 85v6h358v-6q-58 -35 -74 -85t-16 -169v-1073q0 -240 -102.5 -362.5t-309.5 -143.5v82z" />
    <glyph glyph-name="K" unicode="K" horiz-adv-x="1347" 
d="M125 0v6q57 35 73.5 87.5t16.5 166.5v1030q0 119 -16 169t-74 85v6h360v-6q-58 -35 -74 -85t-16 -169v-522l572 598q93 100 145 184h225v-18q-65 -21 -110 -50t-92 -77l-488 -500l713 -893v-12h-213l-604 799l-148 -150v-389q0 -114 16.5 -166.5t73.5 -87.5v-6h-360z" />
    <glyph glyph-name="L" unicode="L" horiz-adv-x="1155" 
d="M125 0v6q57 35 73.5 87.5t16.5 166.5v1030q0 119 -16 169t-74 85v6h360v-6q-58 -35 -74 -85t-16 -169v-1204h232q208 0 493 82v-168h-995z" />
    <glyph glyph-name="M" unicode="M" horiz-adv-x="1910" 
d="M895 -18l-576 1372v-1094q0 -114 17.5 -166.5t77.5 -87.5v-6h-291v6q58 35 75 87.5t17 166.5v1030q0 118 -16 168.5t-72 85.5v6h289l545 -1310l532 1310h293v-6q-58 -35 -74 -85t-16 -169v-1030q0 -114 16.5 -166.5t73.5 -87.5v-6h-356v6q58 35 75 87.5t17 166.5v1120
l-572 -1398h-55z" />
    <glyph glyph-name="N" unicode="N" horiz-adv-x="1519" 
d="M1151 0l-840 1331v-1063q0 -117 18 -171.5t79 -90.5v-6h-285v6q52 36 67 90t15 172v1022q0 118 -10.5 168.5t-47.5 85.5v6h218l841 -1331v1063q0 119 -16 172.5t-74 89.5v6h279v-6q-51 -36 -65.5 -90t-14.5 -172v-1282h-164z" />
    <glyph glyph-name="O" unicode="O" horiz-adv-x="1806" 
d="M903 -33q-179 0 -331 59t-259 164t-167 255t-60 327q0 176 60 325t167 254t259 163.5t331 58.5t331 -59t259 -163.5t167 -254t60 -326.5q0 -176 -60 -325.5t-167 -254.5t-259 -164t-331 -59zM276 770q0 -208 75.5 -370t219 -254.5t332.5 -92.5t332.5 92.5t219 255
t75.5 371.5q0 207 -75.5 368t-219 253t-332.5 92t-332.5 -92t-219 -254t-75.5 -369z" />
    <glyph glyph-name="P" unicode="P" horiz-adv-x="1261" 
d="M125 0v6q57 35 73.5 87.5t16.5 166.5v1030q0 119 -16 169t-74 85v6h498q591 0 591 -393q0 -141 -81.5 -234.5t-220.5 -135.5t-332 -42h-185v-485q0 -114 17 -166.5t77 -87.5v-6h-364zM395 827h174q217 0 339 80t122 250q0 311 -418 311h-217v-641z" />
    <glyph glyph-name="Q" unicode="Q" horiz-adv-x="1806" 
d="M903 -33q-179 0 -331 59t-259 164t-167 255t-60 327q0 176 60 325t167 254t259 163.5t331 58.5t331 -59t259 -163.5t167 -254t60 -326.5q0 -213 -90 -384.5t-250 -279.5l283 -356v-20h-156l-229 319q-163 -82 -375 -82zM276 770q0 -208 75.5 -370t219 -254.5t332.5 -92.5
q179 0 314 78l-412 571h106l400 -505q106 96 162.5 243.5t56.5 331.5q0 207 -75.5 368t-219 253t-332.5 92t-332.5 -92t-219 -254t-75.5 -369z" />
    <glyph glyph-name="R" unicode="R" horiz-adv-x="1323" 
d="M1102 0l-522 768h-185v-508q0 -114 17 -166.5t77 -87.5v-6h-364v6q57 35 73.5 87.5t16.5 166.5v1030q0 119 -16 169t-74 85v6h514q131 0 233.5 -21t178.5 -65.5t116.5 -117.5t40.5 -172q0 -179 -127.5 -278.5t-339.5 -115.5l572 -768v-12h-211zM395 848h183q210 0 330 78
t120 243q0 299 -418 299h-215v-620z" />
    <glyph glyph-name="S" unicode="S" horiz-adv-x="1212" 
d="M641 -33q-246 0 -405 139.5t-183 391.5h174q20 -202 125 -324.5t291 -122.5q147 0 234.5 76t87.5 207q0 38 -9 71.5t-22 60.5t-43 56.5t-55.5 51t-77 53t-91 54t-112.5 62.5q-72 38 -119.5 65.5t-101.5 64t-87 70t-62.5 74.5t-42.5 88t-13 101q0 170 126.5 269.5
t330.5 99.5q217 0 359.5 -117.5t174.5 -324.5h-170q-21 163 -114 260.5t-250 97.5q-140 1 -217.5 -65.5t-77.5 -178.5q0 -42 10 -76.5t35 -67t51.5 -57.5t78 -57t93.5 -55.5t117 -63.5q81 -44 129.5 -72t107.5 -67.5t92.5 -74t64.5 -79t44.5 -95t13.5 -109.5
q0 -188 -134.5 -297t-352.5 -109z" />
    <glyph glyph-name="T" unicode="T" horiz-adv-x="1232" 
d="M35 1397v153h1163v-153q-328 73 -471 73h-20v-1210q0 -114 16.5 -166.5t73.5 -87.5v-6h-361v6q57 35 73.5 87.5t16.5 166.5v1210h-18q-145 0 -473 -73z" />
    <glyph glyph-name="U" unicode="U" horiz-adv-x="1505" 
d="M760 -33q-135 0 -236.5 34.5t-178 111.5t-116 210t-39.5 320v647q0 119 -16 169t-74 85v6h359v-6q-57 -35 -72.5 -84.5t-15.5 -169.5v-651q0 -303 98 -438t313 -135q216 0 320 135.5t104 437.5v651q0 119 -16 169t-74 85v6h289v-6q-58 -35 -74 -85t-16 -169v-647
q0 -354 -139 -515t-416 -161z" />
    <glyph glyph-name="V" unicode="V" horiz-adv-x="1341" 
d="M117 1350q-31 86 -56 126.5t-69 67.5v6h362v-6q-58 -26 -63.5 -71.5t24.5 -120.5l394 -1170l399 1170q30 83 24 124.5t-55 67.5v6h273v-6q-44 -27 -69 -67.5t-56 -126.5l-443 -1246q-18 -53 -18 -104h-164z" />
    <glyph glyph-name="W" unicode="W" horiz-adv-x="2031" 
d="M127 1348q-25 81 -52 125.5t-69 70.5v6h356v-6q-51 -23 -57.5 -70t19.5 -122l327 -1090l348 1217h109l356 -1221l328 1094q25 79 18.5 124.5t-51.5 67.5v6h266v-6q-39 -21 -67 -66t-53 -126l-381 -1243q-17 -55 -17 -109h-129l-358 1217l-324 -1111q-19 -63 -16 -106
h-127z" />
    <glyph glyph-name="X" unicode="X" horiz-adv-x="1300" 
d="M934 6q36 26 34.5 75t-36.5 105l-318 514l-321 -505q-38 -60 -39 -109.5t39 -79.5v-6h-307v6q92 48 190 193l385 587l-368 600q-66 112 -162 158v6h377v-8q-82 -40 -17 -149l305 -496l320 489q76 116 4 158v6h280v-6q-92 -43 -165 -153l-385 -580l385 -623
q77 -125 178 -182v-6h-379v6z" />
    <glyph glyph-name="Y" unicode="Y" horiz-adv-x="1267" 
d="M162 1395q-36 63 -65.5 95t-76.5 54v6h355v-6q-42 -20 -43 -62t28 -93l324 -586l311 586q14 28 21.5 49.5t9 42.5t-9 36.5t-33.5 26.5v6h264v-6q-79 -44 -137 -153l-373 -682v-449q0 -114 16.5 -166.5t73.5 -87.5v-6h-360v6q57 35 73.5 87.5t16.5 166.5v447z" />
    <glyph glyph-name="Z" unicode="Z" horiz-adv-x="1181" 
d="M49 0v80l862 1386h-354q-116 0 -226.5 -16t-281.5 -59v159h1069v-75l-864 -1391h326q230 0 563 82v-166h-1094z" />
    <glyph glyph-name="bracketleft" unicode="[" horiz-adv-x="768" 
d="M174 -270v1935h488v-82h-322v-1773h322v-80h-488z" />
    <glyph glyph-name="backslash" unicode="\" horiz-adv-x="1030" 
d="M1010 -244h-99l-891 1997h99z" />
    <glyph glyph-name="bracketright" unicode="]" horiz-adv-x="768" 
d="M594 -270h-488v80h322v1773h-322v82h488v-1935z" />
    <glyph glyph-name="asciicircum" unicode="^" horiz-adv-x="1175" 
d="M242 780l303 822h86l303 -822h-105l-241 709l-242 -709h-104z" />
    <glyph glyph-name="underscore" unicode="_" horiz-adv-x="1439" 
d="M0 -164v86h1442v-86h-1442z" />
    <glyph glyph-name="grave" unicode="`" horiz-adv-x="565" 
d="M408 1188l-306 360h152l207 -360h-53z" />
    <glyph glyph-name="a" unicode="a" horiz-adv-x="1091" 
d="M367 -27q-131 0 -212 68.5t-81 194.5q0 67 24.5 116.5t79.5 86.5t119.5 62t167.5 54q151 44 199 70q80 44 90 125q2 12 2 26q2 84 -52 131t-155 47q-56 0 -105 -16.5t-89 -49t-64 -89t-25 -129.5h-155q7 116 72.5 200t163.5 123t216 39q162 0 258.5 -76.5t96.5 -240.5
v-473q0 -166 96 -166q46 0 78 28l2 -61q-59 -59 -148 -59q-87 0 -139.5 61t-52.5 182v43q-45 -131 -143.5 -214t-243.5 -83zM233 254q0 -86 51 -130t130 -44q150 0 245 122.5t95 315.5v107q-21 -47 -77 -74.5t-173 -63.5q-58 -18 -95.5 -32.5t-74 -34.5t-57 -42.5
t-32.5 -53.5t-12 -70z" />
    <glyph glyph-name="b" unicode="b" horiz-adv-x="1210" 
d="M84 0v6q54 35 70 88t16 166v1075q0 102 -13.5 151t-58.5 81v4l242 31l10 -5q-14 -71 -14 -262v-581q48 128 144 202t237 74q128 0 222 -69.5t141.5 -186t47.5 -264.5q0 -231 -119 -380.5t-315 -149.5q-115 0 -209.5 55t-148.5 153q3 -116 16 -188h-268zM336 283
q43 -101 125.5 -160.5t183.5 -59.5q146 0 227.5 121.5t81.5 323.5q0 122 -30 217t-98 155t-167 60q-103 0 -177.5 -62.5t-110 -164t-35.5 -230.5v-188v-12z" />
    <glyph glyph-name="c" unicode="c" horiz-adv-x="1116" 
d="M569 -35q-216 0 -351.5 144.5t-135.5 386.5q0 246 140.5 390t361.5 144q194 0 315.5 -106t144.5 -265h-151q-9 57 -29.5 105.5t-55 92.5t-91 69.5t-129.5 25.5q-164 0 -252 -119.5t-88 -312.5q0 -94 21.5 -174.5t64 -143.5t112.5 -98.5t160 -35.5q148 0 238 91t119 242
h90q-13 -94 -50.5 -172.5t-97 -137.5t-146 -92.5t-190.5 -33.5z" />
    <glyph glyph-name="d" unicode="d" horiz-adv-x="1204" 
d="M862 0q12 132 12 264q-46 -131 -141.5 -206.5t-234.5 -75.5q-129 0 -225 69t-143.5 185t-47.5 262q0 231 119.5 379.5t320.5 148.5q116 0 208 -52.5t144 -144.5v506q0 104 -13 152t-56 80v4l239 31l11 -5q-15 -89 -15 -262v-1075q0 -113 15.5 -166t66.5 -88v-6h-260z
M256 498q0 -121 29.5 -215t98.5 -153.5t169 -59.5q143 0 225.5 110.5t95.5 284.5v274q-44 93 -125.5 149t-179.5 56q-148 0 -230.5 -122t-82.5 -324z" />
    <glyph glyph-name="e" unicode="e" horiz-adv-x="1122" 
d="M569 -35q-218 0 -352.5 144t-134.5 387q0 241 139.5 387.5t353.5 146.5q207 0 333.5 -126t129.5 -329h-792q-2 -18 -2 -55q0 -127 37.5 -226.5t119.5 -160.5t199 -61q144 0 232.5 84t121.5 221h90q-34 -182 -156.5 -297t-318.5 -115zM256 649h618q-11 133 -88 218
t-208 85q-127 0 -211 -82t-111 -221z" />
    <glyph glyph-name="f" unicode="f" horiz-adv-x="794" 
d="M156 0v6q52 35 67 87t15 167v658h-220v79h220v181q0 222 100.5 331t261.5 109q114 0 197.5 -53t128.5 -142l-105 -94q-67 207 -225 207q-201 0 -201 -289q0 -124 6 -250h390v-79h-388v-654q0 -116 18.5 -169.5t80.5 -88.5v-6h-346z" />
    <glyph glyph-name="g" unicode="g" horiz-adv-x="1214" 
d="M485 -516q-77 0 -140.5 11.5t-115 35t-80 64.5t-28.5 96q0 146 235 221h-24q-115 0 -183.5 48t-68.5 136q0 149 223 244q-139 110 -139 295q0 178 124.5 282.5t313.5 104.5q204 0 328 -115q12 114 86 187.5t180 74.5v-141q-96 0 -154.5 -44.5t-68.5 -125.5
q69 -90 69 -223q0 -180 -124 -283.5t-314 -103.5q-138 0 -246 57q-151 -68 -151 -166q0 -51 38 -75.5t128 -24.5q85 1 294 38.5t296 37.5q113 0 178 -48t65 -141q0 -95 -64 -179.5t-167.5 -141t-232 -89t-257.5 -32.5zM248 -287q0 -149 252 -149q134 0 262.5 39.5
t213.5 112.5t85 159q0 57 -35 82t-117 25q-147 0 -399 -68q-134 -36 -198 -84t-64 -117zM328 635q0 -143 74 -227t200 -84q129 0 203 84t74 227q0 141 -75 225t-202 84q-126 0 -200 -84t-74 -225z" />
    <glyph glyph-name="h" unicode="h" horiz-adv-x="1185" 
d="M84 0v6q54 35 70 88t16 166v1075q0 98 -15.5 147.5t-60.5 82.5v6l244 31l12 -7q-16 -79 -16 -260v-565q50 115 147.5 187.5t237.5 72.5q309 0 309 -368v-402q0 -113 15 -166t65 -88v-6h-322v6q48 35 62 87.5t14 166.5v391q0 143 -53.5 210t-163.5 67q-120 0 -201.5 -79.5
t-109.5 -201.5v-387q0 -113 15.5 -166t68.5 -88v-6h-334z" />
    <glyph glyph-name="i" unicode="i" horiz-adv-x="481" 
d="M76 0v6q52 35 67 87t15 167v479q0 119 -14.5 169t-67.5 85v6l131 2l117 7v-748q0 -115 15 -167t67 -87v-6h-330zM150 1257v218h176v-218h-176z" />
    <glyph glyph-name="j" unicode="j" horiz-adv-x="491" 
d="M-31 -432q115 10 161 81t46 214v876q0 119 -14.5 169t-67.5 85v6l129 2l117 7v-1117q0 -180 -92 -282.5t-279 -108.5v68zM158 1257v218h176v-218h-176z" />
    <glyph glyph-name="k" unicode="k" horiz-adv-x="1030" 
d="M827 0l-493 535v-275q0 -113 15.5 -166t68.5 -88v-6h-334v6q54 35 70 88t16 166v1075q0 101 -14 149t-58 79v8l240 31l12 -5q-16 -81 -16 -262v-747l315 266q48 38 69.5 76.5t16.5 60.5v6h240v-14q-91 -36 -203 -129l-315 -262l565 -578v-14h-195z" />
    <glyph glyph-name="l" unicode="l" horiz-adv-x="503" 
d="M84 0v6q54 35 70 88t16 166v1075q0 98 -15.5 147.5t-60.5 82.5v6l244 31l12 -7q-16 -79 -16 -260v-1075q0 -113 15.5 -166t68.5 -88v-6h-334z" />
    <glyph glyph-name="m" unicode="m" horiz-adv-x="1847" 
d="M88 0v6q51 35 65.5 87t14.5 167v477q0 119 -14 169t-66 85v6h277q-18 -34 -24.5 -81.5t-8.5 -145.5q48 115 143.5 187.5t233.5 72.5q262 0 297 -272q47 119 144 195.5t239 76.5q303 0 303 -368v-402q0 -113 14.5 -166t62.5 -88v-6h-315v6q48 35 61 86.5t13 167.5v391
q0 143 -52 210t-159 67q-119 0 -199 -79.5t-106 -199.5v-389q0 -113 14.5 -166t63.5 -88v-6h-316v6q48 35 62 87.5t14 166.5v391q0 143 -53 210t-160 67q-119 0 -199 -79.5t-106 -199.5v-389q0 -113 14.5 -166t63.5 -88v-6h-322z" />
    <glyph glyph-name="n" unicode="n" horiz-adv-x="1187" 
d="M88 0v6q52 35 67 87t15 167v477q0 119 -14.5 169t-67.5 85v6h281q-18 -34 -24.5 -82t-8.5 -145q50 115 147.5 187.5t237.5 72.5q309 0 309 -368v-402q0 -113 15 -166t65 -88v-6h-322v6q48 35 62 87.5t14 166.5v391q0 143 -53.5 210t-163.5 67q-120 0 -201.5 -79.5
t-109.5 -201.5v-387q0 -113 15 -166t65 -88v-6h-328z" />
    <glyph glyph-name="o" unicode="o" horiz-adv-x="1177" 
d="M590 -33q-230 0 -369 147.5t-139 385.5q0 236 139 383t369 147t369 -147t139 -383q0 -238 -139 -385.5t-369 -147.5zM250 500q0 -213 90.5 -334t249.5 -121q158 0 249 121.5t91 333.5t-90.5 332t-249.5 120q-160 0 -250 -120t-90 -332z" />
    <glyph glyph-name="p" unicode="p" horiz-adv-x="1196" 
d="M74 -492v7q51 31 66.5 78t15.5 147v1026q0 104 -15 149t-67 76v6h276q-18 -34 -23 -80t-5 -151v-12q48 128 144 202t236 74q128 0 222.5 -69.5t142 -186t47.5 -264.5q0 -231 -119 -380.5t-315 -149.5q-115 0 -210 56t-148 154v-450q0 -102 14.5 -148.5t66.5 -76.5v-7
h-329zM322 283q43 -101 125.5 -160.5t183.5 -59.5q146 0 227.5 121.5t81.5 323.5q0 122 -30 217t-98 155t-167 60q-103 0 -177.5 -62.5t-110 -164t-35.5 -230.5v-200z" />
    <glyph glyph-name="q" unicode="q" horiz-adv-x="1204" 
d="M793 -492v7q52 30 66.5 76.5t14.5 148.5v524q-46 -131 -141.5 -206.5t-234.5 -75.5q-129 0 -225 69t-143.5 185t-47.5 262q0 231 119.5 379.5t320.5 148.5q115 0 207 -52.5t145 -144.5q-3 116 -24 168h272v-6q-53 -31 -67.5 -75.5t-14.5 -149.5v-1026q0 -102 15 -148.5
t67 -76.5v-7h-329zM256 498q0 -121 29.5 -215t98.5 -153.5t169 -59.5q143 0 225.5 110.5t95.5 284.5v274q-44 93 -125.5 149t-179.5 56q-148 0 -230.5 -122t-82.5 -324z" />
    <glyph glyph-name="r" unicode="r" horiz-adv-x="778" 
d="M88 0v6q52 35 67 87t15 167v475q0 120 -14.5 170t-67.5 84v8h279q-18 -39 -24.5 -93.5t-6.5 -168.5v-53q12 56 42.5 110.5t79.5 104t125 80t165 31.5v-144q-104 4 -184 -20t-129 -71t-73.5 -110t-25.5 -139v-272q0 -111 16.5 -162t73.5 -84v-6h-338z" />
    <glyph glyph-name="s" unicode="s" horiz-adv-x="972" 
d="M522 -35q-191 0 -313 99.5t-141 269.5h153q14 -138 91.5 -215.5t211.5 -77.5q100 0 163 45t63 123q0 54 -41.5 97.5t-88.5 67.5t-163 74q-7 3 -11 5q-48 20 -76 32.5t-68 32.5t-62.5 36.5t-49.5 40.5t-40.5 48t-23 56t-9.5 69q0 124 98.5 194t259.5 70q173 0 281 -82.5
t133 -230.5h-156q-12 109 -78.5 173t-181.5 64q-97 0 -154 -40.5t-57 -112.5q0 -40 17 -71t58 -59t84.5 -49t121.5 -53q74 -30 120.5 -51t96 -51t76 -60t44 -71.5t17.5 -91.5q0 -133 -105 -207t-270 -74z" />
    <glyph glyph-name="t" unicode="t" horiz-adv-x="792" 
d="M496 -18q-273 0 -273 329v607h-215v79h215v293l158 127h6v-420h338v-79h-338v-605q0 -126 43.5 -175.5t122.5 -49.5q138 0 213 154l20 -62q-40 -94 -116 -146t-174 -52z" />
    <glyph glyph-name="u" unicode="u" horiz-adv-x="1185" 
d="M469 -33q-311 0 -311 369v399q0 115 -15 168t-67 86v8h321v-8q-48 -33 -60.5 -85t-12.5 -169v-385q0 -145 52.5 -211.5t162.5 -66.5q120 0 200.5 85t110.5 218v360q0 115 -14 168t-64 86v8h326v-8q-52 -33 -67 -86t-15 -168v-475q0 -119 14.5 -169t67.5 -85v-6h-275
q17 35 22 87t5 163q-47 -121 -145.5 -202t-235.5 -81z" />
    <glyph glyph-name="v" unicode="v" horiz-adv-x="1038" 
d="M162 758q-40 105 -66.5 154.5t-68.5 76.5v8h299v-8q-26 -18 -31.5 -49t3.5 -70t34 -108l219 -608l221 608q24 66 33 106.5t3.5 71.5t-30.5 49v8h234v-8q-40 -26 -73 -79t-69 -148l-229 -604q-44 -107 -47 -158h-139z" />
    <glyph glyph-name="w" unicode="w" horiz-adv-x="1533" 
d="M145 805q-29 84 -53.5 125t-64.5 59v8h309v-8q-44 -17 -47.5 -58.5t24.5 -115.5l207 -620l234 757h98l240 -757l202 618q29 74 26 117t-46 59v8h233v-8q-37 -22 -63.5 -62t-50.5 -114l-246 -711q-23 -72 -27 -102h-112l-240 762l-199 -647q-21 -61 -28 -115h-115z" />
    <glyph glyph-name="x" unicode="x" horiz-adv-x="1017" 
d="M692 6q48 50 -37 168l-182 252l-174 -252q-84 -120 -41 -168v-6h-240v6q90 50 181 172l227 314l-236 325q-49 71 -85 108.5t-82 63.5v8h305v-8q-49 -49 37 -166l167 -233l166 231q84 121 43 168v8h240v-8q-97 -59 -180 -172l-219 -295l249 -344q47 -67 85 -106.5
t85 -65.5v-6h-309v6z" />
    <glyph glyph-name="y" unicode="y" horiz-adv-x="1030" 
d="M135 -498q-79 0 -125 27v137q57 -33 140 -33q109 0 190 83.5t162 283.5h-47l-291 758q-42 105 -68.5 154t-68.5 77v8h299v-8q-27 -18 -32.5 -49.5t4 -69.5t34.5 -108l223 -619l221 619q25 66 34 106t3 71.5t-33 49.5v8h234v-8q-67 -44 -137 -227l-291 -762
q-104 -270 -205.5 -384t-245.5 -114z" />
    <glyph glyph-name="z" unicode="z" horiz-adv-x="935" 
d="M61 0v61l619 859h-238q-149 0 -381 -54v131h803v-63l-616 -858h256q183 0 373 61v-137h-816z" />
    <glyph glyph-name="braceleft" unicode="{" horiz-adv-x="733" 
d="M651 -281q-265 0 -359.5 120.5t-49.5 377.5q17 91 19 162t-9.5 118t-31 78.5t-50.5 48t-62.5 23t-72.5 6.5v74q41 0 72.5 6.5t62.5 23.5t50.5 49t31 78.5t9.5 118t-19 162.5q-45 257 49.5 378.5t359.5 121.5v-78q-137 0 -200.5 -44.5t-69.5 -137.5t20 -236
q14 -78 16 -143.5t-6 -113t-25 -85t-39.5 -61t-51 -40t-57 -24t-60.5 -10.5q38 -3 70.5 -13.5t65.5 -31.5t55 -57t36.5 -86t13.5 -124t-18 -165q-26 -143 -20 -236t69.5 -137.5t200.5 -44.5v-78z" />
    <glyph glyph-name="bar" unicode="|" horiz-adv-x="464" 
d="M190 -244v1997h84v-1997h-84z" />
    <glyph glyph-name="braceright" unicode="}" horiz-adv-x="733" 
d="M82 -203q137 0 200.5 44.5t69.5 137.5t-20 236q-17 91 -18 165t13.5 124t36.5 86t55 57t65.5 31.5t70.5 13.5q-32 3 -60.5 10.5t-57 24t-51 40t-39.5 61t-25 85t-6 113t16 143.5q26 143 20 236t-69.5 137.5t-200.5 44.5v78q265 0 360 -121.5t50 -378.5
q-17 -91 -19.5 -162.5t9.5 -118t31 -78.5t50 -49t62.5 -23.5t72.5 -6.5v-74q-41 0 -72.5 -6.5t-62.5 -23t-50 -48t-31 -78.5t-9.5 -118t19.5 -162q45 -257 -50 -377.5t-360 -120.5v78z" />
    <glyph glyph-name="asciitilde" unicode="~" horiz-adv-x="1187" 
d="M113 385q0 141 66 218t183 77q59 0 110.5 -21t90 -51t76.5 -59.5t85.5 -50.5t100.5 -21q84 0 123 55.5t39 147.5h88q0 -141 -67 -218t-185 -77q-60 0 -112.5 21t-91 50.5t-75.5 59.5t-83.5 51t-98.5 21q-85 0 -123 -55.5t-38 -147.5h-88z" />
    <glyph glyph-name="exclamdown" unicode="&#xa1;" horiz-adv-x="542" 
d="M229 584h86l52 -1114h-191zM184 797v223h174v-223h-174z" />
    <glyph glyph-name="cent" unicode="&#xa2;" horiz-adv-x="1171" 
d="M391 -328l66 314q-161 42 -256 178t-95 336q0 246 140.5 390t361.5 144q24 0 70 -4l65 311h60l-68 -321q141 -31 227.5 -128.5t106.5 -227.5h-151q-15 96 -63.5 171t-135.5 105l-180 -858q48 -10 92 -10q148 0 237 91t119 243h90q-28 -194 -153 -315.5t-330 -121.5
q-40 0 -78 6l-63 -303h-62zM272 524q0 -149 52.5 -261.5t156.5 -160.5l181 850q-32 4 -50 4q-164 0 -252 -119.5t-88 -312.5z" />
    <glyph glyph-name="sterling" unicode="&#xa3;" horiz-adv-x="1441" 
d="M272 -31q-103 0 -162 49.5t-59 133.5q0 80 54.5 130t150.5 50q70 0 126.5 -25t131.5 -78q29 85 29 181q0 127 -58 268h-362v59h336q-12 25 -41 82.5t-43 89t-33 81t-27 95.5t-8 95q0 181 124.5 287t334.5 106q214 0 352.5 -122.5t167.5 -346.5h-160q-19 186 -106 289.5
t-242 103.5q-141 0 -216 -74.5t-75 -214.5q0 -73 19.5 -146.5t57.5 -172.5t54 -152h740v-59h-721q29 -123 29 -225q0 -166 -66 -283q150 -96 289 -96q311 0 311 430h158q0 -266 -119 -399.5t-324 -133.5q-99 0 -183 34t-175 99q-110 -135 -285 -135zM121 150q0 -57 37.5 -86
t105.5 -29q145 0 217 125q-67 53 -117.5 77.5t-111.5 24.5q-64 0 -97.5 -29t-33.5 -83z" />
    <glyph glyph-name="currency" unicode="&#xa4;" horiz-adv-x="1134" 
d="M567 324q-148 0 -250 79l-165 -165l-50 47l166 166q-88 101 -88 251q0 149 88 250l-166 166l50 47l165 -166q104 80 250 80t250 -80l166 166l49 -47l-166 -166q90 -99 90 -250q0 -147 -90 -251l166 -166l-49 -47l-166 165q-102 -79 -250 -79zM262 702q0 -134 86 -220.5
t219 -86.5t219 86.5t86 220.5q0 132 -86 218t-219 86t-219 -86t-86 -218z" />
    <glyph glyph-name="yen" unicode="&#xa5;" horiz-adv-x="1386" 
d="M111 696v60h473l-367 639q-36 63 -65 95t-76 54v6h354v-6q-41 -20 -42 -62t28 -93l323 -586l312 586q14 28 21.5 49.5t8.5 42.5t-9.5 36.5t-33.5 26.5v6h265v-6q-80 -45 -138 -153l-348 -635h481v-60h-505v-155h505v-60h-505v-221q0 -114 16.5 -166.5t73.5 -87.5v-6h-361
v6q57 35 73.5 87.5t16.5 166.5v221h-501v60h501v155h-501z" />
    <glyph glyph-name="brokenbar" unicode="&#xa6;" horiz-adv-x="464" 
d="M190 -244v791h84v-791h-84zM190 969v784h84v-784h-84z" />
    <glyph glyph-name="section" unicode="&#xa7;" horiz-adv-x="1234" 
d="M604 -356q-192 0 -323 106.5t-164 306.5h143q19 -148 108 -245t240 -97q111 0 177.5 59.5t66.5 155.5q0 35 -8.5 65t-33.5 62.5t-47 55.5t-73 61t-86 62.5t-110 74.5q-116 79 -184 131.5t-121.5 109t-75 109t-21.5 115.5q0 108 63.5 180.5t170.5 106.5q-78 96 -78 211
q0 139 99 219t263 80q174 0 292.5 -99.5t156.5 -285.5h-141q-24 139 -101.5 226t-210.5 87q-110 0 -170.5 -53.5t-60.5 -142.5q0 -43 17.5 -84t43 -74t78.5 -77t97.5 -76.5t127.5 -88.5q93 -64 148 -104.5t111 -88.5t84 -87.5t45.5 -86t17.5 -98.5q0 -109 -64 -180.5
t-172 -105.5q68 -89 68 -195q0 -145 -102.5 -230t-270.5 -85zM219 809q0 -40 15.5 -77t40 -69t76 -74.5t101 -78.5t138.5 -96q189 -126 268 -205q75 26 116.5 76t41.5 123q0 50 -19.5 92.5t-71.5 92t-111 93t-169 117.5q-187 126 -268 203q-74 -24 -116 -74.5t-42 -122.5z
" />
    <glyph glyph-name="dieresis" unicode="&#xa8;" horiz-adv-x="681" 
d="M426 1253v207h154v-207h-154zM102 1253v207h154v-207h-154z" />
    <glyph glyph-name="copyright" unicode="&#xa9;" horiz-adv-x="1708" 
d="M856 -25q-337 0 -539 215.5t-202 583.5t202.5 584.5t538.5 216.5q335 0 536 -216.5t201 -584.5t-201 -583.5t-536 -215.5zM178 774q0 -344 184.5 -544.5t493.5 -200.5q307 0 490.5 200.5t183.5 544.5t-184 545t-490 201q-309 0 -493.5 -201t-184.5 -545zM535 778
q0 188 91 300t238 112q112 0 193.5 -71.5t103.5 -211.5h-94q-15 107 -69 167.5t-132 60.5q-104 0 -165.5 -95.5t-61.5 -248.5t61 -250t177 -97q99 0 162.5 74.5t78.5 204.5h58q-21 -165 -105 -260.5t-217 -95.5q-151 0 -235 114t-84 297z" />
    <glyph glyph-name="ordfeminine" unicode="&#xaa;" horiz-adv-x="892" 
d="M309 905q-88 0 -142 42.5t-54 121.5q0 43 18 75t57 55t81.5 38.5t109.5 32.5q104 25 147 50.5t43 82.5q0 52 -34.5 80t-96.5 28q-75 0 -128 -44t-54 -132h-115q3 112 91.5 173t216.5 61q111 0 176 -49t65 -156v-285q0 -108 64 -108q29 0 51 16v-39q-40 -37 -103 -37
q-57 0 -95 39.5t-38 122.5v14q-33 -81 -98.5 -131.5t-161.5 -50.5zM135 737v60h635v-60h-635zM231 1085q0 -51 34 -76.5t87 -25.5q97 0 157 77.5t60 194.5v54q-16 -26 -53 -43.5t-110 -40.5q-92 -27 -133.5 -55.5t-41.5 -84.5z" />
    <glyph glyph-name="guillemotleft" unicode="&#xab;" horiz-adv-x="1007" 
d="M543 100l-459 359v65l459 361v-86l-332 -303v-7l332 -305v-84zM432 459v65l459 361v-86l-332 -303v-7l332 -305v-84z" />
    <glyph glyph-name="logicalnot" unicode="&#xac;" horiz-adv-x="1165" 
d="M932 150v442h-819v88l915 2v-532h-96z" />
    <glyph glyph-name="registered" unicode="&#xae;" horiz-adv-x="808" 
d="M508 1079l-113 146h-39v-86q0 -26 5.5 -37.5t27.5 -18.5v-4h-117v4q20 7 25.5 18.5t5.5 37.5v194q0 31 -6 44t-25 22v8h138q66 0 99.5 -21.5t33.5 -72.5q0 -73 -99 -86l131 -144v-4h-67zM92 1243q0 135 87.5 223t223.5 88t225 -88t89 -223q0 -138 -88.5 -225.5
t-225.5 -87.5t-224 87.5t-87 225.5zM139 1243q0 -120 71.5 -195t192.5 -75q123 0 195 75t72 195q0 119 -72 193.5t-195 74.5q-121 0 -192.5 -74.5t-71.5 -193.5zM352 1251h54q83 0 83 64q0 59 -83 59h-54v-123z" />
    <glyph glyph-name="macron" unicode="&#xaf;" horiz-adv-x="833" 
d="M102 1247v78h627v-78h-627z" />
    <glyph glyph-name="degree" unicode="&#xb0;" horiz-adv-x="798" 
d="M399 930q-146 0 -238.5 91t-92.5 232q0 145 92.5 235.5t238.5 90.5q145 0 238.5 -91t93.5 -235q0 -141 -93.5 -232t-238.5 -91zM193 1253q0 -121 54 -189.5t152 -68.5q97 0 152 69t55 189q0 122 -55 191t-152 69q-98 0 -152 -69t-54 -191z" />
    <glyph glyph-name="plusminus" unicode="&#xb1;" horiz-adv-x="1185" 
d="M135 0v84h410v401h-410v88h412v441h96v-441h408v-86h-410v-403h410v-84h-916z" />
    <glyph glyph-name="uni00B2" unicode="&#xb2;" horiz-adv-x="860" 
d="M74 942q0 64 24.5 120.5t70 101.5t91.5 77.5t109 67.5q70 39 113 67.5t81 63.5t55 74t17 85q0 84 -51.5 131.5t-141.5 47.5q-120 0 -185.5 -80t-63.5 -211h-125q6 152 108.5 254t278.5 102q141 0 227 -65.5t86 -184.5q0 -40 -11.5 -74.5t-37 -65t-50.5 -53t-69.5 -48.5
t-75 -42t-84.5 -42q-57 -29 -97.5 -53.5t-80.5 -55t-63 -64.5t-29 -71h631v-102h-727v20z" />
    <glyph glyph-name="uni00B3" unicode="&#xb3;" horiz-adv-x="862" 
d="M436 901q-169 0 -266.5 86t-108.5 236h76q9 -120 83.5 -185t193.5 -65q122 0 188 60t66 149q0 190 -271 190h-78v53h78q115 0 178.5 53.5t63.5 135.5q0 72 -50 118t-153 46q-106 0 -172.5 -57t-75.5 -158h-120q13 130 117.5 205t265.5 75q151 0 236 -62.5t85 -162.5
q0 -87 -68.5 -143.5t-187.5 -71.5q137 -9 214 -66.5t77 -162.5q0 -114 -101.5 -193.5t-269.5 -79.5z" />
    <glyph glyph-name="acute" unicode="&#xb4;" horiz-adv-x="565" 
d="M102 1188l209 360h152l-305 -360h-56z" />
    <glyph glyph-name="uni00B5" unicode="&#xb5;" horiz-adv-x="1193" 
d="M276 -412q-126 147 -126 392v755q0 115 -14.5 168t-65.5 86v8h319v-8q-48 -33 -62 -86t-14 -168v-385q0 -146 53.5 -213t163.5 -67q121 0 202.5 93.5t109.5 235.5v336q0 115 -14 168t-64 86v8h321v-8q-51 -33 -65 -85.5t-14 -168.5v-489q0 -174 102 -174q44 0 84 32
l4 -57q-71 -61 -162 -61q-87 0 -138.5 62t-51.5 181v41q-42 -129 -134 -216t-223 -87q-119 0 -190 74v-94q0 -122 15 -205.5t50 -153.5h-86z" />
    <glyph glyph-name="paragraph" unicode="&#xb6;" horiz-adv-x="1366" 
d="M557 680q-85 0 -158.5 14t-138.5 46.5t-111 81.5t-73 123.5t-27 168.5q0 95 27 169.5t73 124t111 82t138.5 46.5t158.5 14h766v-73h-246v-1760h-80v1760h-241v-1760h-82v963h-117z" />
    <glyph glyph-name="periodcentered" unicode="&#xb7;" horiz-adv-x="419" 
d="M123 416v223h174v-223h-174z" />
    <glyph glyph-name="cedilla" unicode="&#xb8;" horiz-adv-x="706" 
d="M365 -498q-86 0 -155 32t-108 93l43 43q63 -104 201 -104q65 0 106.5 27.5t41.5 82.5q0 52 -38.5 80.5t-103.5 28.5q-56 0 -96 -18l-35 34l152 199h76l-113 -145q30 6 61 6q92 0 149.5 -47.5t57.5 -126.5q0 -62 -37 -105.5t-89.5 -61.5t-112.5 -18z" />
    <glyph glyph-name="uni00B9" unicode="&#xb9;" horiz-adv-x="591" 
d="M178 922v6q54 28 69 70t15 137v491q-28 -50 -89.5 -94t-143.5 -51v88q108 9 188.5 83.5t93.5 178.5h86v-696q0 -95 14.5 -137t65.5 -70v-6h-299z" />
    <glyph glyph-name="ordmasculine" unicode="&#xba;" horiz-adv-x="870" 
d="M436 899q-151 0 -244.5 92t-93.5 244q0 150 93.5 242t244.5 92t243.5 -91.5t92.5 -242.5t-92.5 -243.5t-243.5 -92.5zM141 737v60h594v-60h-594zM219 1235q0 -124 58.5 -199t158.5 -75t157.5 75t57.5 199t-57.5 198t-157.5 74q-101 0 -159 -74t-58 -198z" />
    <glyph glyph-name="guillemotright" unicode="&#xbb;" horiz-adv-x="1007" 
d="M465 100v84l332 305v7l-332 303v86l459 -361v-65zM117 100v84l332 305v7l-332 303v86l458 -361v-65z" />
    <glyph glyph-name="onequarter" unicode="&#xbc;" horiz-adv-x="1714" 
d="M178 653v6q54 28 69 70t15 137v492q-29 -51 -90 -95t-143 -51v88q107 9 188 84t94 179h86v-697q0 -95 14.5 -137t65.5 -70v-6h-299zM129 0l1165 1550h103l-1166 -1550h-102zM844 217v70l538 618h109v-596h192v-92h-192v-53q0 -63 12.5 -98.5t50.5 -61.5v-8h-262v8
q39 26 52.5 62t13.5 98v53h-514zM946 309h412v477z" />
    <glyph glyph-name="onehalf" unicode="&#xbd;" horiz-adv-x="1792" 
d="M178 653v6q54 28 69 70t15 137v492q-29 -51 -90 -95t-143 -51v88q107 9 188 84t94 179h86v-697q0 -95 14.5 -137t65.5 -70v-6h-299zM129 0l1165 1550h103l-1166 -1550h-102zM1001 565q6 152 109 254.5t279 102.5q141 0 227 -65.5t86 -184.5q0 -40 -11.5 -75t-37 -65
t-50.5 -53t-69 -49t-75.5 -42t-84.5 -42q-57 -29 -97.5 -53.5t-80.5 -55t-63 -64.5t-29 -71h631v-102h-727v20q0 64 24.5 120.5t70 101.5t91.5 77.5t109 67.5q69 38 112.5 67t81.5 64.5t55 74.5t17 85q0 84 -51.5 131t-141.5 47q-120 0 -186 -80t-64 -211h-125z" />
    <glyph glyph-name="threequarters" unicode="&#xbe;" horiz-adv-x="1984" 
d="M436 633q-169 0 -266.5 85.5t-108.5 235.5h76q9 -119 83.5 -184t193.5 -65q122 0 188 59.5t66 148.5q0 91 -66.5 141t-204.5 50h-78v53h78q115 0 178.5 53.5t63.5 135.5q0 72 -50 117.5t-153 45.5q-106 0 -172.5 -57t-75.5 -158h-120q13 130 117.5 205.5t265.5 75.5
q151 0 236 -62.5t85 -162.5q0 -87 -68.5 -143.5t-187.5 -71.5q137 -9 214 -67t77 -163q0 -114 -101.5 -193t-269.5 -79zM399 0l1166 1550h102l-1165 -1550h-103zM1114 217v70l539 618h108v-596h193v-92h-193v-53q0 -62 13 -98t51 -62v-8h-262v8q39 26 52 61.5t13 98.5v53
h-514zM1217 309h411v477z" />
    <glyph glyph-name="questiondown" unicode="&#xbf;" horiz-adv-x="1026" 
d="M666 580q39 -98 39 -166q0 -58 -26.5 -109.5t-69 -90.5t-93.5 -76.5t-102 -75.5t-93.5 -79t-69 -95t-26.5 -115q0 -103 66 -170.5t186 -67.5q152 0 238 104t94 289h160q-12 -226 -151 -353.5t-357 -127.5q-187 0 -298.5 91t-111.5 239q0 72 30 132.5t78 102.5t105.5 79.5
t115.5 71t106 68t78 81t30 100.5q0 65 -66 168h138zM492 797v223h174v-223h-174z" />
    <glyph glyph-name="Agrave" unicode="&#xc0;" horiz-adv-x="1456" 
d="M6 6q58 36 97.5 86.5t70.5 136.5l438 1190q24 65 4 131h189l495 -1327q32 -88 65 -137t85 -80v-6h-391v6q55 31 64.5 82.5t-19.5 132.5l-98 277h-621l-98 -273q-33 -89 -26.5 -139t56.5 -80v-6h-311v6zM389 1974h168l193 -282h-72zM414 580h563l-281 794z" />
    <glyph glyph-name="Aacute" unicode="&#xc1;" horiz-adv-x="1456" 
d="M6 6q58 36 97.5 86.5t70.5 136.5l438 1190q24 65 4 131h189l495 -1327q32 -88 65 -137t85 -80v-6h-391v6q55 31 64.5 82.5t-19.5 132.5l-98 277h-621l-98 -273q-33 -89 -26.5 -139t56.5 -80v-6h-311v6zM414 580h563l-281 794zM680 1692l192 282h168l-288 -282h-72z" />
    <glyph glyph-name="Acircumflex" unicode="&#xc2;" horiz-adv-x="1456" 
d="M6 6q58 36 97.5 86.5t70.5 136.5l438 1190q24 65 4 131h189l495 -1327q32 -88 65 -137t85 -80v-6h-391v6q55 31 64.5 82.5t-19.5 132.5l-98 277h-621l-98 -273q-33 -89 -26.5 -139t56.5 -80v-6h-311v6zM412 1692l262 282h84l262 -282h-92l-211 190l-213 -190h-92z
M414 580h563l-281 794z" />
    <glyph glyph-name="Atilde" unicode="&#xc3;" horiz-adv-x="1456" 
d="M6 6q58 36 97.5 86.5t70.5 136.5l438 1190q24 65 4 131h189l495 -1327q32 -88 65 -137t85 -80v-6h-391v6q55 31 64.5 82.5t-19.5 132.5l-98 277h-621l-98 -273q-33 -89 -26.5 -139t56.5 -80v-6h-311v6zM412 1704q0 135 44.5 204.5t127.5 69.5q44 0 77.5 -19.5t55 -47
t41 -55t47 -47t61.5 -19.5q52 0 71 40.5t21 135.5h64q0 -144 -42.5 -209t-123.5 -65q-45 0 -80.5 19.5t-57.5 47t-42 55t-47 47t-60 19.5q-52 0 -72 -45t-22 -131h-63zM414 580h563l-281 794z" />
    <glyph glyph-name="Adieresis" unicode="&#xc4;" horiz-adv-x="1456" 
d="M6 6q58 36 97.5 86.5t70.5 136.5l438 1190q24 65 4 131h189l495 -1327q32 -88 65 -137t85 -80v-6h-391v6q55 31 64.5 82.5t-19.5 132.5l-98 277h-621l-98 -273q-33 -89 -26.5 -139t56.5 -80v-6h-311v6zM414 580h563l-281 794zM461 1729v200h147v-200h-147zM825 1729v200
h148v-200h-148z" />
    <glyph glyph-name="Aring" unicode="&#xc5;" horiz-adv-x="1456" 
d="M6 6q58 36 97.5 86.5t70.5 136.5l438 1190q24 65 4 131h189l495 -1327q32 -88 65 -137t85 -80v-6h-391v6q55 31 64.5 82.5t-19.5 132.5l-98 277h-621l-98 -273q-33 -89 -26.5 -139t56.5 -80v-6h-311v6zM414 580h563l-281 794zM512 1853q0 83 56.5 135t148.5 52t149.5 -52
t57.5 -135q0 -84 -57 -135t-150 -51t-149 50.5t-56 135.5zM573 1853q0 -61 40.5 -99t103.5 -38q64 0 103.5 37.5t39.5 99.5q0 60 -39.5 98t-103.5 38q-63 0 -103.5 -38t-40.5 -98z" />
    <glyph glyph-name="AE" unicode="&#xc6;" horiz-adv-x="1884" 
d="M-82 6q56 38 102 98t101 162l710 1284h965v-153q-308 69 -483 69h-211v-614h151q34 0 439 10v-100q-270 10 -439 10h-151v-688h252q186 0 479 78v-162h-1002v6q57 35 74 88t17 166v258h-539l-137 -254q-56 -103 -66.5 -160t21.5 -98v-6h-283v6zM428 604h494v686
q0 113 -15 162h-22z" />
    <glyph glyph-name="Ccedilla" unicode="&#xc7;" horiz-adv-x="1691" 
d="M858 -500q-86 0 -154.5 32t-107.5 93l43 43q63 -104 201 -104q65 0 106 27.5t41 82.5q0 52 -38 80.5t-103 28.5q-54 0 -96 -19l-35 35l131 172q-142 2 -264 44t-212.5 115.5t-154.5 173t-96.5 218t-32.5 248.5q0 176 58.5 325.5t162 254.5t252 164t322.5 59
q181 0 329 -61t255.5 -188t150.5 -308h-180q-53 219 -199 343t-358 124q-182 0 -320.5 -93t-210.5 -249t-72 -348q0 -143 39.5 -268t114.5 -222.5t195.5 -154t271.5 -56.5q255 0 419 150t208 405h106q-46 -299 -230.5 -478t-475.5 -196l-95 -120q30 6 62 6q92 0 149.5 -47.5
t57.5 -126.5q0 -62 -37.5 -105.5t-90 -61.5t-112.5 -18z" />
    <glyph glyph-name="Egrave" unicode="&#xc8;" horiz-adv-x="1179" 
d="M125 0v6q57 35 73.5 87.5t16.5 166.5v1030q0 119 -16 169t-74 85v6h965v-153q-308 69 -484 69h-211v-614h152q33 0 438 10v-100q-270 10 -438 10h-152v-688h252q186 0 479 78v-162h-1001zM301 1974h168l193 -282h-72z" />
    <glyph glyph-name="Eacute" unicode="&#xc9;" horiz-adv-x="1179" 
d="M125 0v6q57 35 73.5 87.5t16.5 166.5v1030q0 119 -16 169t-74 85v6h965v-153q-308 69 -484 69h-211v-614h152q33 0 438 10v-100q-270 10 -438 10h-152v-688h252q186 0 479 78v-162h-1001zM590 1692l192 282h168l-288 -282h-72z" />
    <glyph glyph-name="Ecircumflex" unicode="&#xca;" horiz-adv-x="1179" 
d="M125 0v6q57 35 73.5 87.5t16.5 166.5v1030q0 119 -16 169t-74 85v6h965v-153q-308 69 -484 69h-211v-614h152q33 0 438 10v-100q-270 10 -438 10h-152v-688h252q186 0 479 78v-162h-1001zM324 1692l262 282h84l262 -282h-92l-211 190l-213 -190h-92z" />
    <glyph glyph-name="Edieresis" unicode="&#xcb;" horiz-adv-x="1179" 
d="M125 0v6q57 35 73.5 87.5t16.5 166.5v1030q0 119 -16 169t-74 85v6h965v-153q-308 69 -484 69h-211v-614h152q33 0 438 10v-100q-270 10 -438 10h-152v-688h252q186 0 479 78v-162h-1001zM371 1729v200h147v-200h-147zM735 1729v200h148v-200h-148z" />
    <glyph glyph-name="Igrave" unicode="&#xcc;" horiz-adv-x="610" 
d="M125 0v6q57 35 73.5 87.5t16.5 166.5v1030q0 119 -16 169t-74 85v6h360v-6q-58 -35 -74 -85t-16 -169v-1030q0 -114 16.5 -166.5t73.5 -87.5v-6h-360zM-23 1968h168l193 -282h-72z" />
    <glyph glyph-name="Iacute" unicode="&#xcd;" horiz-adv-x="610" 
d="M125 0v6q57 35 73.5 87.5t16.5 166.5v1030q0 119 -16 169t-74 85v6h360v-6q-58 -35 -74 -85t-16 -169v-1030q0 -114 16.5 -166.5t73.5 -87.5v-6h-360zM268 1686l193 282h168l-289 -282h-72z" />
    <glyph glyph-name="Icircumflex" unicode="&#xce;" horiz-adv-x="610" 
d="M125 0v6q57 35 73.5 87.5t16.5 166.5v1030q0 119 -16 169t-74 85v6h360v-6q-58 -35 -74 -85t-16 -169v-1030q0 -114 16.5 -166.5t73.5 -87.5v-6h-360zM2 1686l262 282h84l262 -282h-92l-211 190l-213 -190h-92z" />
    <glyph glyph-name="Idieresis" unicode="&#xcf;" horiz-adv-x="610" 
d="M125 0v6q57 35 73.5 87.5t16.5 166.5v1030q0 119 -16 169t-74 85v6h360v-6q-58 -35 -74 -85t-16 -169v-1030q0 -114 16.5 -166.5t73.5 -87.5v-6h-360zM49 1722v201h148v-201h-148zM414 1722v201h147v-201h-147z" />
    <glyph glyph-name="Eth" unicode="&#xd0;" horiz-adv-x="1667" 
d="M125 0v6q57 35 73.5 87.5t16.5 166.5v508h-178v76h178v446q0 119 -16 169t-74 85v6h559q272 0 474 -91.5t312.5 -267.5t110.5 -417q0 -357 -241.5 -565.5t-653.5 -208.5h-561zM395 84h281q323 0 519 185t196 505q0 218 -90 375.5t-250 237t-375 79.5h-281v-622h516v-76
h-516v-684z" />
    <glyph glyph-name="Ntilde" unicode="&#xd1;" horiz-adv-x="1519" 
d="M1151 0l-840 1331v-1063q0 -117 18 -171.5t79 -90.5v-6h-285v6q52 36 67 90t15 172v1022q0 118 -10.5 168.5t-47.5 85.5v6h218l841 -1331v1063q0 119 -16 172.5t-74 89.5v6h279v-6q-51 -36 -65.5 -90t-14.5 -172v-1282h-164zM459 1704q0 135 44.5 204.5t127.5 69.5
q44 0 77.5 -19.5t55 -47t41 -55t47 -47t61.5 -19.5q52 0 71.5 40.5t21.5 135.5h63q0 -144 -42.5 -209t-123.5 -65q-45 0 -80.5 19.5t-57.5 47t-42 55t-47 47t-60 19.5q-52 0 -72 -45t-22 -131h-63z" />
    <glyph glyph-name="Ograve" unicode="&#xd2;" horiz-adv-x="1806" 
d="M903 -33q-179 0 -331 59t-259 164t-167 255t-60 327q0 176 60 325t167 254t259 163.5t331 58.5t331 -59t259 -163.5t167 -254t60 -326.5q0 -176 -60 -325.5t-167 -254.5t-259 -164t-331 -59zM276 770q0 -208 75.5 -370t219 -254.5t332.5 -92.5t332.5 92.5t219 255
t75.5 371.5q0 207 -75.5 368t-219 253t-332.5 92t-332.5 -92t-219 -254t-75.5 -369zM575 1974h168l193 -282h-72z" />
    <glyph glyph-name="Oacute" unicode="&#xd3;" horiz-adv-x="1806" 
d="M903 -33q-179 0 -331 59t-259 164t-167 255t-60 327q0 176 60 325t167 254t259 163.5t331 58.5t331 -59t259 -163.5t167 -254t60 -326.5q0 -176 -60 -325.5t-167 -254.5t-259 -164t-331 -59zM276 770q0 -208 75.5 -370t219 -254.5t332.5 -92.5t332.5 92.5t219 255
t75.5 371.5q0 207 -75.5 368t-219 253t-332.5 92t-332.5 -92t-219 -254t-75.5 -369zM866 1692l193 282h168l-289 -282h-72z" />
    <glyph glyph-name="Ocircumflex" unicode="&#xd4;" horiz-adv-x="1806" 
d="M903 -33q-179 0 -331 59t-259 164t-167 255t-60 327q0 176 60 325t167 254t259 163.5t331 58.5t331 -59t259 -163.5t167 -254t60 -326.5q0 -176 -60 -325.5t-167 -254.5t-259 -164t-331 -59zM276 770q0 -208 75.5 -370t219 -254.5t332.5 -92.5t332.5 92.5t219 255
t75.5 371.5q0 207 -75.5 368t-219 253t-332.5 92t-332.5 -92t-219 -254t-75.5 -369zM600 1692l262 282h84l262 -282h-92l-211 190l-213 -190h-92z" />
    <glyph glyph-name="Otilde" unicode="&#xd5;" horiz-adv-x="1806" 
d="M903 -33q-179 0 -331 59t-259 164t-167 255t-60 327q0 176 60 325t167 254t259 163.5t331 58.5t331 -59t259 -163.5t167 -254t60 -326.5q0 -176 -60 -325.5t-167 -254.5t-259 -164t-331 -59zM276 770q0 -208 75.5 -370t219 -254.5t332.5 -92.5t332.5 92.5t219 255
t75.5 371.5q0 207 -75.5 368t-219 253t-332.5 92t-332.5 -92t-219 -254t-75.5 -369zM598 1704q0 135 44.5 204.5t127.5 69.5q44 0 77.5 -19.5t55 -47t41.5 -55t47.5 -47t61.5 -19.5q52 0 71 40.5t21 135.5h63q0 -144 -42.5 -209t-123.5 -65q-45 0 -80 19.5t-57 47t-42.5 55
t-47 47t-59.5 19.5q-52 0 -72 -45t-22 -131h-64z" />
    <glyph glyph-name="Odieresis" unicode="&#xd6;" horiz-adv-x="1806" 
d="M903 -33q-179 0 -331 59t-259 164t-167 255t-60 327q0 176 60 325t167 254t259 163.5t331 58.5t331 -59t259 -163.5t167 -254t60 -326.5q0 -176 -60 -325.5t-167 -254.5t-259 -164t-331 -59zM276 770q0 -208 75.5 -370t219 -254.5t332.5 -92.5t332.5 92.5t219 255
t75.5 371.5q0 207 -75.5 368t-219 253t-332.5 92t-332.5 -92t-219 -254t-75.5 -369zM647 1729v200h148v-200h-148zM1012 1729v200h147v-200h-147z" />
    <glyph glyph-name="multiply" unicode="&#xd7;" horiz-adv-x="1175" 
d="M281 170l-62 63l307 308l-307 305l62 63l309 -307l305 307l61 -63l-305 -305l307 -308l-63 -63l-305 307z" />
    <glyph glyph-name="Oslash" unicode="&#xd8;" horiz-adv-x="1806" 
d="M510 -344l-74 22l137 349q-227 87 -357 284t-130 463q0 176 60 325t167 254t259 163.5t331 58.5q147 0 271 -37l135 340l75 -20l-137 -347q221 -89 347 -283.5t126 -455.5q0 -176 -60 -325.5t-167 -254.5t-259 -164t-331 -59q-124 0 -256 33zM276 772q0 -223 88.5 -393.5
t247.5 -255.5l525 1321q-104 43 -234 43q-189 0 -332.5 -92t-219 -254t-75.5 -369zM684 92q98 -37 219 -37q189 0 332.5 92.5t219 255t75.5 371.5q0 218 -84.5 385t-237.5 252z" />
    <glyph glyph-name="Ugrave" unicode="&#xd9;" horiz-adv-x="1505" 
d="M760 -33q-135 0 -236.5 34.5t-178 111.5t-116 210t-39.5 320v647q0 119 -16 169t-74 85v6h359v-6q-57 -35 -72.5 -84.5t-15.5 -169.5v-651q0 -303 98 -438t313 -135q216 0 320 135.5t104 437.5v651q0 119 -16 169t-74 85v6h289v-6q-58 -35 -74 -85t-16 -169v-647
q0 -354 -139 -515t-416 -161zM461 1974h168l192 -282h-71z" />
    <glyph glyph-name="Uacute" unicode="&#xda;" horiz-adv-x="1505" 
d="M760 -33q-135 0 -236.5 34.5t-178 111.5t-116 210t-39.5 320v647q0 119 -16 169t-74 85v6h359v-6q-57 -35 -72.5 -84.5t-15.5 -169.5v-651q0 -303 98 -438t313 -135q216 0 320 135.5t104 437.5v651q0 119 -16 169t-74 85v6h289v-6q-58 -35 -74 -85t-16 -169v-647
q0 -354 -139 -515t-416 -161zM750 1692l192 282h168l-289 -282h-71z" />
    <glyph glyph-name="Ucircumflex" unicode="&#xdb;" horiz-adv-x="1505" 
d="M760 -33q-135 0 -236.5 34.5t-178 111.5t-116 210t-39.5 320v647q0 119 -16 169t-74 85v6h359v-6q-57 -35 -72.5 -84.5t-15.5 -169.5v-651q0 -303 98 -438t313 -135q216 0 320 135.5t104 437.5v651q0 119 -16 169t-74 85v6h289v-6q-58 -35 -74 -85t-16 -169v-647
q0 -354 -139 -515t-416 -161zM483 1692l262 282h84l263 -282h-93l-211 190l-213 -190h-92z" />
    <glyph glyph-name="Udieresis" unicode="&#xdc;" horiz-adv-x="1505" 
d="M760 -33q-135 0 -236.5 34.5t-178 111.5t-116 210t-39.5 320v647q0 119 -16 169t-74 85v6h359v-6q-57 -35 -72.5 -84.5t-15.5 -169.5v-651q0 -303 98 -438t313 -135q216 0 320 135.5t104 437.5v651q0 119 -16 169t-74 85v6h289v-6q-58 -35 -74 -85t-16 -169v-647
q0 -354 -139 -515t-416 -161zM530 1729v200h148v-200h-148zM895 1729v200h147v-200h-147z" />
    <glyph glyph-name="Yacute" unicode="&#xdd;" horiz-adv-x="1267" 
d="M162 1395q-36 63 -65.5 95t-76.5 54v6h355v-6q-42 -20 -43 -62t28 -93l324 -586l311 586q14 28 21.5 49.5t9 42.5t-9 36.5t-33.5 26.5v6h264v-6q-79 -44 -137 -153l-373 -682v-449q0 -114 16.5 -166.5t73.5 -87.5v-6h-360v6q57 35 73.5 87.5t16.5 166.5v447zM633 1692
l192 282h168l-288 -282h-72z" />
    <glyph glyph-name="Thorn" unicode="&#xde;" horiz-adv-x="1267" 
d="M127 0v6q57 35 73.5 87.5t16.5 166.5v1030q0 119 -16 169t-74 85v6h360v-6q-59 -35 -74.5 -84.5t-15.5 -169.5v-78h211q592 0 592 -391q0 -141 -82 -235t-221 -136t-332 -42h-168v-148q0 -115 16 -167t74 -87v-6h-360zM397 489h158q217 0 339 81t122 251q0 309 -418 309
h-201v-641z" />
    <glyph glyph-name="germandbls" unicode="&#xdf;" horiz-adv-x="1230" 
d="M762 -20q-179 0 -275 110v98q91 -125 254 -125q107 0 169.5 53.5t62.5 145.5q0 74 -45 138t-156 167q-113 102 -161 162t-48 123q0 40 21.5 77.5t43 58t73.5 63.5q9 8 14 12q89 71 117 105q61 70 61 157q0 92 -64.5 151.5t-181.5 59.5q-160 0 -239.5 -114t-79.5 -312
v-850q0 -115 11.5 -167t51.5 -87v-6h-301v6q47 35 60.5 87.5t13.5 166.5v815q0 244 128 390.5t365 146.5q171 0 275 -77t104 -206q0 -42 -12.5 -78t-31 -61.5t-48 -50.5t-54.5 -41.5t-59 -37.5q-8 -5 -12 -7q-72 -42 -104.5 -74t-32.5 -74q0 -24 13 -51t28 -47t47.5 -50
t49.5 -44.5t57 -46.5q62 -50 101.5 -87t77.5 -84t56 -97.5t18 -106.5q0 -137 -103 -224t-265 -87z" />
    <glyph glyph-name="agrave" unicode="&#xe0;" horiz-adv-x="1091" 
d="M367 -27q-131 0 -212 68.5t-81 194.5q0 67 24.5 116.5t79.5 86.5t119.5 62t167.5 54q151 44 199 70q80 44 90 125q2 12 2 26q2 84 -52 131t-155 47q-56 0 -105 -16.5t-89 -49t-64 -89t-25 -129.5h-155q7 116 72.5 200t163.5 123t216 39q162 0 258.5 -76.5t96.5 -240.5
v-473q0 -166 96 -166q46 0 78 28l2 -61q-59 -59 -148 -59q-87 0 -139.5 61t-52.5 182v43q-45 -131 -143.5 -214t-243.5 -83zM221 1548h152l207 -360h-54zM233 254q0 -86 51 -130t130 -44q150 0 245 122.5t95 315.5v107q-21 -47 -77 -74.5t-173 -63.5q-58 -18 -95.5 -32.5
t-74 -34.5t-57 -42.5t-32.5 -53.5t-12 -70z" />
    <glyph glyph-name="aacute" unicode="&#xe1;" horiz-adv-x="1091" 
d="M367 -27q-131 0 -212 68.5t-81 194.5q0 67 24.5 116.5t79.5 86.5t119.5 62t167.5 54q151 44 199 70q80 44 90 125q2 12 2 26q2 84 -52 131t-155 47q-56 0 -105 -16.5t-89 -49t-64 -89t-25 -129.5h-155q7 116 72.5 200t163.5 123t216 39q162 0 258.5 -76.5t96.5 -240.5
v-473q0 -166 96 -166q46 0 78 28l2 -61q-59 -59 -148 -59q-87 0 -139.5 61t-52.5 182v43q-45 -131 -143.5 -214t-243.5 -83zM233 254q0 -86 51 -130t130 -44q150 0 245 122.5t95 315.5v107q-21 -47 -77 -74.5t-173 -63.5q-58 -18 -95.5 -32.5t-74 -34.5t-57 -42.5
t-32.5 -53.5t-12 -70zM518 1188l209 360h152l-306 -360h-55z" />
    <glyph glyph-name="acircumflex" unicode="&#xe2;" horiz-adv-x="1091" 
d="M367 -27q-131 0 -212 68.5t-81 194.5q0 67 24.5 116.5t79.5 86.5t119.5 62t167.5 54q151 44 199 70q80 44 90 125q2 12 2 26q2 84 -52 131t-155 47q-56 0 -105 -16.5t-89 -49t-64 -89t-25 -129.5h-155q7 116 72.5 200t163.5 123t216 39q162 0 258.5 -76.5t96.5 -240.5
v-473q0 -166 96 -166q46 0 78 28l2 -61q-59 -59 -148 -59q-87 0 -139.5 61t-52.5 182v43q-45 -131 -143.5 -214t-243.5 -83zM233 254q0 -86 51 -130t130 -44q150 0 245 122.5t95 315.5v107q-21 -47 -77 -74.5t-173 -63.5q-58 -18 -95.5 -32.5t-74 -34.5t-57 -42.5
t-32.5 -53.5t-12 -70zM268 1188l244 332h80l244 -332h-84l-199 227l-201 -227h-84z" />
    <glyph glyph-name="atilde" unicode="&#xe3;" horiz-adv-x="1091" 
d="M367 -27q-131 0 -212 68.5t-81 194.5q0 67 24.5 116.5t79.5 86.5t119.5 62t167.5 54q151 44 199 70q80 44 90 125q2 12 2 26q2 84 -52 131t-155 47q-56 0 -105 -16.5t-89 -49t-64 -89t-25 -129.5h-155q7 116 72.5 200t163.5 123t216 39q162 0 258.5 -76.5t96.5 -240.5
v-473q0 -166 96 -166q46 0 78 28l2 -61q-59 -59 -148 -59q-87 0 -139.5 61t-52.5 182v43q-45 -131 -143.5 -214t-243.5 -83zM233 254q0 -86 51 -130t130 -44q150 0 245 122.5t95 315.5v107q-21 -47 -77 -74.5t-173 -63.5q-58 -18 -95.5 -32.5t-74 -34.5t-57 -42.5
t-32.5 -53.5t-12 -70zM246 1196q-3 154 42 235.5t126 81.5q45 0 79.5 -23t56 -55.5t42 -65.5t49 -56t64.5 -23q50 0 71.5 52.5t18.5 160.5h57q6 -317 -160 -317q-47 0 -83 22.5t-58.5 54t-43 63.5t-47.5 54.5t-61 22.5q-103 0 -96 -207h-57z" />
    <glyph glyph-name="adieresis" unicode="&#xe4;" horiz-adv-x="1091" 
d="M367 -27q-131 0 -212 68.5t-81 194.5q0 67 24.5 116.5t79.5 86.5t119.5 62t167.5 54q151 44 199 70q80 44 90 125q2 12 2 26q2 84 -52 131t-155 47q-56 0 -105 -16.5t-89 -49t-64 -89t-25 -129.5h-155q7 116 72.5 200t163.5 123t216 39q162 0 258.5 -76.5t96.5 -240.5
v-473q0 -166 96 -166q46 0 78 28l2 -61q-59 -59 -148 -59q-87 0 -139.5 61t-52.5 182v43q-45 -131 -143.5 -214t-243.5 -83zM233 254q0 -86 51 -130t130 -44q150 0 245 122.5t95 315.5v107q-21 -47 -77 -74.5t-173 -63.5q-58 -18 -95.5 -32.5t-74 -34.5t-57 -42.5
t-32.5 -53.5t-12 -70zM311 1253v207h154v-207h-154zM635 1253v207h153v-207h-153z" />
    <glyph glyph-name="aring" unicode="&#xe5;" horiz-adv-x="1091" 
d="M367 -27q-131 0 -212 68.5t-81 194.5q0 67 24.5 116.5t79.5 86.5t119.5 62t167.5 54q151 44 199 70q80 44 90 125q2 12 2 26q2 84 -52 131t-155 47q-56 0 -105 -16.5t-89 -49t-64 -89t-25 -129.5h-155q7 116 72.5 200t163.5 123t216 39q162 0 258.5 -76.5t96.5 -240.5
v-473q0 -166 96 -166q46 0 78 28l2 -61q-59 -59 -148 -59q-87 0 -139.5 61t-52.5 182v43q-45 -131 -143.5 -214t-243.5 -83zM233 254q0 -86 51 -130t130 -44q150 0 245 122.5t95 315.5v107q-21 -47 -77 -74.5t-173 -63.5q-58 -18 -95.5 -32.5t-74 -34.5t-57 -42.5
t-32.5 -53.5t-12 -70zM344 1382q0 88 57.5 142.5t149.5 54.5q94 0 152.5 -54.5t58.5 -142.5t-58.5 -142t-152.5 -54q-92 0 -149.5 54t-57.5 142zM408 1382q0 -64 40 -104.5t103 -40.5q64 0 103.5 40t39.5 105t-39.5 104.5t-103.5 39.5q-63 0 -103 -40t-40 -104z" />
    <glyph glyph-name="ae" unicode="&#xe6;" horiz-adv-x="1783" 
d="M1251 -35q-170 0 -288.5 102t-155.5 281q-17 -78 -53.5 -144.5t-90 -118t-129 -81.5t-163.5 -31q-134 0 -215.5 67.5t-81.5 192.5q0 67 24.5 116.5t78 87t118.5 63.5t166 55q47 13 68 19t57 17t52.5 19t41 21t35.5 26t23.5 30.5t17 38.5t4.5 46q2 86 -53 134t-160 48
q-56 0 -105 -16.5t-90 -49.5t-65 -89t-25 -129h-153q5 88 44 158t101 113.5t138 66.5t159 24q261 0 334 -198q63 94 159 145t211 51q202 0 321 -125.5t122 -329.5h-760q-2 -18 -2 -57q0 -127 36.5 -225.5t116.5 -159.5t195 -61q139 0 223.5 84t116.5 221h84
q-34 -182 -151.5 -297t-305.5 -115zM231 252q0 -85 52.5 -128.5t132.5 -43.5q154 0 250 122t96 316v111q-21 -48 -79 -76.5t-181 -67.5q-57 -18 -93.5 -32t-73.5 -34t-57.5 -42t-33.5 -53.5t-13 -71.5zM946 647h592q-11 135 -84.5 221t-198.5 86q-121 0 -201.5 -83
t-107.5 -224z" />
    <glyph glyph-name="ccedilla" unicode="&#xe7;" horiz-adv-x="1116" 
d="M551 -502q-86 0 -154.5 32t-107.5 93l43 43q63 -104 200 -104q65 0 106.5 27.5t41.5 82.5q0 52 -38 80.5t-103 28.5q-55 0 -97 -19l-34 35l129 168q-204 12 -329.5 155.5t-125.5 375.5q0 246 140.5 390t361.5 144q194 0 315.5 -106t144.5 -265h-151q-9 57 -29.5 105.5
t-55 92.5t-91 69.5t-129.5 25.5q-164 0 -252 -119.5t-88 -312.5q0 -94 21.5 -174.5t64 -143.5t112.5 -98.5t160 -35.5q148 0 238 91t119 242h90q-26 -182 -140 -301.5t-301 -132.5l-90 -117q35 7 62 7q92 0 149.5 -47.5t57.5 -126.5q0 -62 -37.5 -105.5t-90 -61.5
t-112.5 -18z" />
    <glyph glyph-name="egrave" unicode="&#xe8;" horiz-adv-x="1122" 
d="M569 -35q-218 0 -352.5 144t-134.5 387q0 241 139.5 387.5t353.5 146.5q207 0 333.5 -126t129.5 -329h-792q-2 -18 -2 -55q0 -127 37.5 -226.5t119.5 -160.5t199 -61q144 0 232.5 84t121.5 221h90q-34 -182 -156.5 -297t-318.5 -115zM236 1548h151l207 -360h-53zM256 649
h618q-11 133 -88 218t-208 85q-127 0 -211 -82t-111 -221z" />
    <glyph glyph-name="eacute" unicode="&#xe9;" horiz-adv-x="1122" 
d="M569 -35q-218 0 -352.5 144t-134.5 387q0 241 139.5 387.5t353.5 146.5q207 0 333.5 -126t129.5 -329h-792q-2 -18 -2 -55q0 -127 37.5 -226.5t119.5 -160.5t199 -61q144 0 232.5 84t121.5 221h90q-34 -182 -156.5 -297t-318.5 -115zM256 649h618q-11 133 -88 218
t-208 85q-127 0 -211 -82t-111 -221zM532 1188l209 360h152l-305 -360h-56z" />
    <glyph glyph-name="ecircumflex" unicode="&#xea;" horiz-adv-x="1122" 
d="M569 -35q-218 0 -352.5 144t-134.5 387q0 241 139.5 387.5t353.5 146.5q207 0 333.5 -126t129.5 -329h-792q-2 -18 -2 -55q0 -127 37.5 -226.5t119.5 -160.5t199 -61q144 0 232.5 84t121.5 221h90q-34 -182 -156.5 -297t-318.5 -115zM256 649h618q-11 133 -88 218
t-208 85q-127 0 -211 -82t-111 -221zM283 1188l243 332h80l244 -332h-84l-199 227l-200 -227h-84z" />
    <glyph glyph-name="edieresis" unicode="&#xeb;" horiz-adv-x="1122" 
d="M569 -35q-218 0 -352.5 144t-134.5 387q0 241 139.5 387.5t353.5 146.5q207 0 333.5 -126t129.5 -329h-792q-2 -18 -2 -55q0 -127 37.5 -226.5t119.5 -160.5t199 -61q144 0 232.5 84t121.5 221h90q-34 -182 -156.5 -297t-318.5 -115zM256 649h618q-11 133 -88 218
t-208 85q-127 0 -211 -82t-111 -221zM326 1253v207h153v-207h-153zM649 1253v207h154v-207h-154z" />
    <glyph glyph-name="igrave" unicode="&#xec;" horiz-adv-x="481" 
d="M76 0v6q52 35 67 87t15 167v479q0 119 -14.5 169t-67.5 85v6l131 2l117 7v-748q0 -115 15 -167t67 -87v-6h-330zM-92 1548h151l207 -360h-53z" />
    <glyph glyph-name="iacute" unicode="&#xed;" horiz-adv-x="481" 
d="M76 0v6q52 35 67 87t15 167v479q0 119 -14.5 169t-67.5 85v6l131 2l117 7v-748q0 -115 15 -167t67 -87v-6h-330zM205 1188l209 360h151l-305 -360h-55z" />
    <glyph glyph-name="icircumflex" unicode="&#xee;" horiz-adv-x="481" 
d="M76 0v6q52 35 67 87t15 167v479q0 119 -14.5 169t-67.5 85v6l131 2l117 7v-748q0 -115 15 -167t67 -87v-6h-330zM-47 1188l244 332h79l244 -332h-84l-198 227l-201 -227h-84z" />
    <glyph glyph-name="idieresis" unicode="&#xef;" horiz-adv-x="481" 
d="M76 0v6q52 35 67 87t15 167v479q0 119 -14.5 169t-67.5 85v6l131 2l117 7v-748q0 -115 15 -167t67 -87v-6h-330zM-2 1253v207h154v-207h-154zM322 1253v207h153v-207h-153z" />
    <glyph glyph-name="eth" unicode="&#xf0;" horiz-adv-x="1165" 
d="M573 -33q-218 0 -355.5 149t-137.5 382q0 226 137 372t344 146q123 0 213.5 -62t138.5 -172q-47 371 -258 582l-434 -260v74l383 229q-161 130 -395 178l61 33q228 -28 414 -164l342 205v-74l-289 -172q157 -132 246.5 -331t89.5 -457q0 -317 -134 -487.5t-366 -170.5z
M246 500q0 -206 89 -331.5t238 -125.5q156 0 246 131.5t90 339.5q0 206 -89.5 318t-239.5 112q-156 0 -245 -120t-89 -324z" />
    <glyph glyph-name="ntilde" unicode="&#xf1;" horiz-adv-x="1187" 
d="M88 0v6q52 35 67 87t15 167v477q0 119 -14.5 169t-67.5 85v6h281q-18 -34 -24.5 -82t-8.5 -145q50 115 147.5 187.5t237.5 72.5q309 0 309 -368v-402q0 -113 15 -166t65 -88v-6h-322v6q48 35 62 87.5t14 166.5v391q0 143 -53.5 210t-163.5 67q-120 0 -201.5 -79.5
t-109.5 -201.5v-387q0 -113 15 -166t65 -88v-6h-328zM299 1196q-3 154 42 235.5t126 81.5q45 0 79.5 -23t56 -55.5t42 -65.5t49 -56t64.5 -23q50 0 71.5 52.5t18.5 160.5h57q6 -317 -160 -317q-47 0 -83 22.5t-58.5 54t-43 63.5t-47 54.5t-60.5 22.5q-104 0 -97 -207h-57z
" />
    <glyph glyph-name="ograve" unicode="&#xf2;" horiz-adv-x="1177" 
d="M590 -33q-230 0 -369 147.5t-139 385.5q0 236 139 383t369 147t369 -147t139 -383q0 -238 -139 -385.5t-369 -147.5zM250 500q0 -213 90.5 -334t249.5 -121q158 0 249 121.5t91 333.5t-90.5 332t-249.5 120q-160 0 -250 -120t-90 -332zM258 1548h152l206 -360h-53z" />
    <glyph glyph-name="oacute" unicode="&#xf3;" horiz-adv-x="1177" 
d="M590 -33q-230 0 -369 147.5t-139 385.5q0 236 139 383t369 147t369 -147t139 -383q0 -238 -139 -385.5t-369 -147.5zM250 500q0 -213 90.5 -334t249.5 -121q158 0 249 121.5t91 333.5t-90.5 332t-249.5 120q-160 0 -250 -120t-90 -332zM555 1188l209 360h151l-305 -360
h-55z" />
    <glyph glyph-name="ocircumflex" unicode="&#xf4;" horiz-adv-x="1177" 
d="M590 -33q-230 0 -369 147.5t-139 385.5q0 236 139 383t369 147t369 -147t139 -383q0 -238 -139 -385.5t-369 -147.5zM250 500q0 -213 90.5 -334t249.5 -121q158 0 249 121.5t91 333.5t-90.5 332t-249.5 120q-160 0 -250 -120t-90 -332zM305 1188l244 332h80l243 -332h-84
l-198 227l-201 -227h-84z" />
    <glyph glyph-name="otilde" unicode="&#xf5;" horiz-adv-x="1177" 
d="M590 -33q-230 0 -369 147.5t-139 385.5q0 236 139 383t369 147t369 -147t139 -383q0 -238 -139 -385.5t-369 -147.5zM250 500q0 -213 90.5 -334t249.5 -121q158 0 249 121.5t91 333.5t-90.5 332t-249.5 120q-160 0 -250 -120t-90 -332zM283 1196q-3 154 42 235.5
t126 81.5q45 0 79 -23t56 -55.5t42.5 -65.5t48.5 -56t64 -23q50 0 71.5 52.5t18.5 160.5h58q6 -317 -160 -317q-47 0 -83 22.5t-58.5 54t-43 63.5t-47.5 54.5t-61 22.5q-103 0 -96 -207h-57z" />
    <glyph glyph-name="odieresis" unicode="&#xf6;" horiz-adv-x="1177" 
d="M590 -33q-230 0 -369 147.5t-139 385.5q0 236 139 383t369 147t369 -147t139 -383q0 -238 -139 -385.5t-369 -147.5zM250 500q0 -213 90.5 -334t249.5 -121q158 0 249 121.5t91 333.5t-90.5 332t-249.5 120q-160 0 -250 -120t-90 -332zM348 1253v207h154v-207h-154z
M672 1253v207h153v-207h-153z" />
    <glyph glyph-name="divide" unicode="&#xf7;" horiz-adv-x="1175" 
d="M129 487v88h915v-86zM520 76v182h135v-182h-135zM520 805v182h135v-182h-135z" />
    <glyph glyph-name="oslash" unicode="&#xf8;" horiz-adv-x="1177" 
d="M336 -248l-64 23l93 239q-133 60 -208 188.5t-75 299.5q0 236 139 383t369 147q82 0 162 -22l90 235l61 -20l-92 -238q135 -59 211 -186.5t76 -298.5q0 -238 -139 -385.5t-369 -147.5q-82 0 -162 23zM250 502q0 -282 151 -396l318 824q-59 24 -129 24q-160 0 -250 -120
t-90 -332zM459 72q61 -25 131 -25q158 0 249 121.5t91 333.5q0 137 -40 238t-114 157z" />
    <glyph glyph-name="ugrave" unicode="&#xf9;" horiz-adv-x="1185" 
d="M469 -33q-311 0 -311 369v399q0 115 -15 168t-67 86v8h321v-8q-48 -33 -60.5 -85t-12.5 -169v-385q0 -145 52.5 -211.5t162.5 -66.5q120 0 200.5 85t110.5 218v360q0 115 -14 168t-64 86v8h326v-8q-52 -33 -67 -86t-15 -168v-475q0 -119 14.5 -169t67.5 -85v-6h-275
q17 35 22 87t5 163q-47 -121 -145.5 -202t-235.5 -81zM262 1548h152l207 -360h-54z" />
    <glyph glyph-name="uacute" unicode="&#xfa;" horiz-adv-x="1185" 
d="M469 -33q-311 0 -311 369v399q0 115 -15 168t-67 86v8h321v-8q-48 -33 -60.5 -85t-12.5 -169v-385q0 -145 52.5 -211.5t162.5 -66.5q120 0 200.5 85t110.5 218v360q0 115 -14 168t-64 86v8h326v-8q-52 -33 -67 -86t-15 -168v-475q0 -119 14.5 -169t67.5 -85v-6h-275
q17 35 22 87t5 163q-47 -121 -145.5 -202t-235.5 -81zM559 1188l209 360h152l-306 -360h-55z" />
    <glyph glyph-name="ucircumflex" unicode="&#xfb;" horiz-adv-x="1185" 
d="M469 -33q-311 0 -311 369v399q0 115 -15 168t-67 86v8h321v-8q-48 -33 -60.5 -85t-12.5 -169v-385q0 -145 52.5 -211.5t162.5 -66.5q120 0 200.5 85t110.5 218v360q0 115 -14 168t-64 86v8h326v-8q-52 -33 -67 -86t-15 -168v-475q0 -119 14.5 -169t67.5 -85v-6h-275
q17 35 22 87t5 163q-47 -121 -145.5 -202t-235.5 -81zM309 1188l244 332h80l244 -332h-84l-199 227l-201 -227h-84z" />
    <glyph glyph-name="udieresis" unicode="&#xfc;" horiz-adv-x="1185" 
d="M469 -33q-311 0 -311 369v399q0 115 -15 168t-67 86v8h321v-8q-48 -33 -60.5 -85t-12.5 -169v-385q0 -145 52.5 -211.5t162.5 -66.5q120 0 200.5 85t110.5 218v360q0 115 -14 168t-64 86v8h326v-8q-52 -33 -67 -86t-15 -168v-475q0 -119 14.5 -169t67.5 -85v-6h-275
q17 35 22 87t5 163q-47 -121 -145.5 -202t-235.5 -81zM354 1253v207h154v-207h-154zM678 1253v207h153v-207h-153z" />
    <glyph glyph-name="yacute" unicode="&#xfd;" horiz-adv-x="1030" 
d="M135 -498q-79 0 -125 27v137q57 -33 140 -33q109 0 190 83.5t162 283.5h-47l-291 758q-42 105 -68.5 154t-68.5 77v8h299v-8q-27 -18 -32.5 -49.5t4 -69.5t34.5 -108l223 -619l221 619q25 66 34 106t3 71.5t-33 49.5v8h234v-8q-67 -44 -137 -227l-291 -762
q-104 -270 -205.5 -384t-245.5 -114zM514 1188l209 360h151l-305 -360h-55z" />
    <glyph glyph-name="thorn" unicode="&#xfe;" horiz-adv-x="1179" 
d="M66 -492v7q52 30 66.5 76.5t14.5 148.5v1595q0 107 -12.5 152t-56.5 76v8l237 31l13 -5q-15 -80 -15 -262v-590q46 131 143 208t236 77q187 0 297.5 -147t110.5 -373q0 -152 -52 -272t-150 -189t-226 -69q-115 0 -210 53.5t-149 148.5v-442q0 -102 15.5 -148.5
t70.5 -76.5v-7h-333zM313 274q45 -98 124.5 -154.5t176.5 -56.5q148 0 230 121.5t82 323.5q0 122 -30 217t-97 155t-164 60q-142 0 -225.5 -111t-96.5 -286v-269z" />
    <glyph glyph-name="ydieresis" unicode="&#xff;" horiz-adv-x="1030" 
d="M135 -498q-79 0 -125 27v137q57 -33 140 -33q109 0 190 83.5t162 283.5h-47l-291 758q-42 105 -68.5 154t-68.5 77v8h299v-8q-27 -18 -32.5 -49.5t4 -69.5t34.5 -108l223 -619l221 619q25 66 34 106t3 71.5t-33 49.5v8h234v-8q-67 -44 -137 -227l-291 -762
q-104 -270 -205.5 -384t-245.5 -114zM307 1253v207h154v-207h-154zM631 1253v207h153v-207h-153z" />
    <glyph glyph-name="Amacron" unicode="&#x100;" horiz-adv-x="1456" 
d="M6 6q58 36 97.5 86.5t70.5 136.5l438 1190q24 65 4 131h189l495 -1327q32 -88 65 -137t85 -80v-6h-391v6q55 31 64.5 82.5t-19.5 132.5l-98 277h-621l-98 -273q-33 -89 -26.5 -139t56.5 -80v-6h-311v6zM377 1782v76h684v-76h-684zM414 580h563l-281 794z" />
    <glyph glyph-name="amacron" unicode="&#x101;" horiz-adv-x="1091" 
d="M367 -27q-131 0 -212 68.5t-81 194.5q0 67 24.5 116.5t79.5 86.5t119.5 62t167.5 54q151 44 199 70q80 44 90 125q2 12 2 26q2 84 -52 131t-155 47q-56 0 -105 -16.5t-89 -49t-64 -89t-25 -129.5h-155q7 116 72.5 200t163.5 123t216 39q162 0 258.5 -76.5t96.5 -240.5
v-473q0 -166 96 -166q46 0 78 28l2 -61q-59 -59 -148 -59q-87 0 -139.5 61t-52.5 182v43q-45 -131 -143.5 -214t-243.5 -83zM233 254q0 -86 51 -130t130 -44q150 0 245 122.5t95 315.5v107q-21 -47 -77 -74.5t-173 -63.5q-58 -18 -95.5 -32.5t-74 -34.5t-57 -42.5
t-32.5 -53.5t-12 -70zM238 1247v78h626v-78h-626z" />
    <glyph glyph-name="Abreve" unicode="&#x102;" horiz-adv-x="1456" 
d="M6 6q58 36 97.5 86.5t70.5 136.5l438 1190q24 65 4 131h189l495 -1327q32 -88 65 -137t85 -80v-6h-391v6q55 31 64.5 82.5t-19.5 132.5l-98 277h-621l-98 -273q-33 -89 -26.5 -139t56.5 -80v-6h-311v6zM414 580h563l-281 794zM418 1974h78q0 -91 55.5 -143.5t165.5 -52.5
q112 0 166.5 51.5t54.5 144.5h78q0 -141 -79.5 -217t-219.5 -76t-219.5 76t-79.5 217z" />
    <glyph glyph-name="abreve" unicode="&#x103;" horiz-adv-x="1091" 
d="M367 -27q-131 0 -212 68.5t-81 194.5q0 67 24.5 116.5t79.5 86.5t119.5 62t167.5 54q151 44 199 70q80 44 90 125q2 12 2 26q2 84 -52 131t-155 47q-56 0 -105 -16.5t-89 -49t-64 -89t-25 -129.5h-155q7 116 72.5 200t163.5 123t216 39q162 0 258.5 -76.5t96.5 -240.5
v-473q0 -166 96 -166q46 0 78 28l2 -61q-59 -59 -148 -59q-87 0 -139.5 61t-52.5 182v43q-45 -131 -143.5 -214t-243.5 -83zM233 254q0 -86 51 -130t130 -44q150 0 245 122.5t95 315.5v107q-21 -47 -77 -74.5t-173 -63.5q-58 -18 -95.5 -32.5t-74 -34.5t-57 -42.5
t-32.5 -53.5t-12 -70zM281 1509h73q0 -110 49 -170.5t148 -60.5q199 0 199 231h73q0 -153 -72.5 -237t-199.5 -84t-198.5 84t-71.5 237z" />
    <glyph glyph-name="Aogonek" unicode="&#x104;" horiz-adv-x="1456" 
d="M6 6q58 36 97.5 86.5t70.5 136.5l438 1190q24 65 4 131h189l495 -1327q32 -88 65 -137t85 -80v-6h-143q-177 -125 -177 -281q0 -60 31 -92.5t82 -32.5q80 0 129 82v-61q-59 -96 -168 -96q-75 0 -126.5 46.5t-51.5 133.5q0 174 211 301h-178v6q55 31 64.5 82.5
t-19.5 132.5l-98 277h-621l-98 -273q-33 -89 -26.5 -139t56.5 -80v-6h-311v6zM414 580h563l-281 794z" />
    <glyph glyph-name="aogonek" unicode="&#x105;" horiz-adv-x="1091" 
d="M367 -27q-131 0 -212 68.5t-81 194.5q0 67 24.5 116.5t79.5 86.5t119.5 62t167.5 54q151 44 199 70q80 44 90 125q2 12 2 26q2 84 -52 131t-155 47q-56 0 -105 -16.5t-89 -49t-64 -89t-25 -129.5h-155q7 116 72.5 200t163.5 123t216 39q162 0 258.5 -76.5t96.5 -240.5
v-473q0 -166 96 -166q46 0 78 28l2 -61q-23 -23 -43 -33q-172 -124 -172 -278q0 -60 30.5 -92.5t81.5 -32.5q80 0 129 82v-62q-59 -96 -168 -96q-75 0 -126.5 46.5t-51.5 133.5q0 156 166 273q-84 2 -135 63t-51 180v43q-45 -131 -143.5 -214t-243.5 -83zM233 254
q0 -86 51 -130t130 -44q150 0 245 122.5t95 315.5v107q-21 -47 -77 -74.5t-173 -63.5q-58 -18 -95.5 -32.5t-74 -34.5t-57 -42.5t-32.5 -53.5t-12 -70z" />
    <glyph glyph-name="Cacute" unicode="&#x106;" horiz-adv-x="1691" 
d="M864 -29q-181 0 -330 63t-246 172t-149.5 253.5t-52.5 310.5q0 176 58.5 325.5t162 254.5t252 164t322.5 59q181 0 329 -61t255.5 -188t150.5 -308h-180q-53 219 -199 343t-358 124q-182 0 -320.5 -93t-210.5 -249t-72 -348q0 -143 39.5 -268t114.5 -222.5t195.5 -154
t271.5 -56.5q255 0 419 150t208 405h106q-48 -314 -249 -495t-517 -181zM825 1688l193 282h168l-289 -282h-72z" />
    <glyph glyph-name="cacute" unicode="&#x107;" horiz-adv-x="1116" 
d="M569 -35q-216 0 -351.5 144.5t-135.5 386.5q0 246 140.5 390t361.5 144q194 0 315.5 -106t144.5 -265h-151q-9 57 -29.5 105.5t-55 92.5t-91 69.5t-129.5 25.5q-164 0 -252 -119.5t-88 -312.5q0 -94 21.5 -174.5t64 -143.5t112.5 -98.5t160 -35.5q148 0 238 91t119 242
h90q-13 -94 -50.5 -172.5t-97 -137.5t-146 -92.5t-190.5 -33.5zM532 1188l209 360h152l-305 -360h-56z" />
    <glyph glyph-name="Ccircumflex" unicode="&#x108;" horiz-adv-x="1691" 
d="M864 -29q-181 0 -330 63t-246 172t-149.5 253.5t-52.5 310.5q0 176 58.5 325.5t162 254.5t252 164t322.5 59q181 0 329 -61t255.5 -188t150.5 -308h-180q-53 219 -199 343t-358 124q-182 0 -320.5 -93t-210.5 -249t-72 -348q0 -143 39.5 -268t114.5 -222.5t195.5 -154
t271.5 -56.5q255 0 419 150t208 405h106q-48 -314 -249 -495t-517 -181zM559 1688l262 282h84l262 -282h-92l-211 190l-213 -190h-92z" />
    <glyph glyph-name="ccircumflex" unicode="&#x109;" horiz-adv-x="1116" 
d="M569 -35q-216 0 -351.5 144.5t-135.5 386.5q0 246 140.5 390t361.5 144q194 0 315.5 -106t144.5 -265h-151q-9 57 -29.5 105.5t-55 92.5t-91 69.5t-129.5 25.5q-164 0 -252 -119.5t-88 -312.5q0 -94 21.5 -174.5t64 -143.5t112.5 -98.5t160 -35.5q148 0 238 91t119 242
h90q-13 -94 -50.5 -172.5t-97 -137.5t-146 -92.5t-190.5 -33.5zM283 1188l243 332h80l244 -332h-84l-199 227l-200 -227h-84z" />
    <glyph glyph-name="Cdotaccent" unicode="&#x10a;" horiz-adv-x="1691" 
d="M864 -29q-181 0 -330 63t-246 172t-149.5 253.5t-52.5 310.5q0 176 58.5 325.5t162 254.5t252 164t322.5 59q181 0 329 -61t255.5 -188t150.5 -308h-180q-53 219 -199 343t-358 124q-182 0 -320.5 -93t-210.5 -249t-72 -348q0 -143 39.5 -268t114.5 -222.5t195.5 -154
t271.5 -56.5q255 0 419 150t208 405h106q-48 -314 -249 -495t-517 -181zM788 1724v201h150v-201h-150z" />
    <glyph glyph-name="cdotaccent" unicode="&#x10b;" horiz-adv-x="1116" 
d="M569 -35q-216 0 -351.5 144.5t-135.5 386.5q0 246 140.5 390t361.5 144q194 0 315.5 -106t144.5 -265h-151q-9 57 -29.5 105.5t-55 92.5t-91 69.5t-129.5 25.5q-164 0 -252 -119.5t-88 -312.5q0 -94 21.5 -174.5t64 -143.5t112.5 -98.5t160 -35.5q148 0 238 91t119 242
h90q-13 -94 -50.5 -172.5t-97 -137.5t-146 -92.5t-190.5 -33.5zM485 1257v201h160v-201h-160z" />
    <glyph glyph-name="Ccaron" unicode="&#x10c;" horiz-adv-x="1691" 
d="M864 -29q-181 0 -330 63t-246 172t-149.5 253.5t-52.5 310.5q0 176 58.5 325.5t162 254.5t252 164t322.5 59q181 0 329 -61t255.5 -188t150.5 -308h-180q-53 219 -199 343t-358 124q-182 0 -320.5 -93t-210.5 -249t-72 -348q0 -143 39.5 -268t114.5 -222.5t195.5 -154
t271.5 -56.5q255 0 419 150t208 405h106q-48 -314 -249 -495t-517 -181zM549 1970h92l223 -190l223 190h93l-275 -282h-84z" />
    <glyph glyph-name="ccaron" unicode="&#x10d;" horiz-adv-x="1116" 
d="M569 -35q-216 0 -351.5 144.5t-135.5 386.5q0 246 140.5 390t361.5 144q194 0 315.5 -106t144.5 -265h-151q-9 57 -29.5 105.5t-55 92.5t-91 69.5t-129.5 25.5q-164 0 -252 -119.5t-88 -312.5q0 -94 21.5 -174.5t64 -143.5t112.5 -98.5t160 -35.5q148 0 238 91t119 242
h90q-13 -94 -50.5 -172.5t-97 -137.5t-146 -92.5t-190.5 -33.5zM268 1540h84l213 -248l213 248h82l-254 -352h-84z" />
    <glyph glyph-name="Dcaron" unicode="&#x10e;" horiz-adv-x="1667" 
d="M125 0v6q57 35 73.5 87.5t16.5 166.5v1030q0 119 -16 169t-74 85v6h559q272 0 474 -91.5t312.5 -267.5t110.5 -417q0 -357 -241.5 -565.5t-653.5 -208.5h-561zM395 84h281q323 0 519 185t196 505q0 218 -90 375.5t-250 237t-375 79.5h-281v-1382zM438 1974h92l224 -190
l223 190h92l-274 -282h-84z" />
    <glyph glyph-name="dcaron" unicode="&#x10f;" horiz-adv-x="1204" 
d="M862 0q12 132 12 264q-46 -131 -141.5 -206.5t-234.5 -75.5q-129 0 -225 69t-143.5 185t-47.5 262q0 231 119.5 379.5t320.5 148.5q116 0 208 -52.5t144 -144.5v506q0 104 -13 152t-56 80v4l239 31l11 -5q-15 -89 -15 -262v-1075q0 -113 15.5 -166t66.5 -88v-6h-260z
M256 498q0 -121 29.5 -215t98.5 -153.5t169 -59.5q143 0 225.5 110.5t95.5 284.5v274q-44 93 -125.5 149t-179.5 56q-148 0 -230.5 -122t-82.5 -324zM1180 1116l80 481h139l-164 -481h-55z" />
    <glyph glyph-name="Dcroat" unicode="&#x110;" horiz-adv-x="1667" 
d="M125 0v6q57 35 73.5 87.5t16.5 166.5v508h-178v76h178v446q0 119 -16 169t-74 85v6h559q272 0 474 -91.5t312.5 -267.5t110.5 -417q0 -357 -241.5 -565.5t-653.5 -208.5h-561zM395 84h281q323 0 519 185t196 505q0 218 -90 375.5t-250 237t-375 79.5h-281v-622h516v-76
h-516v-684z" />
    <glyph glyph-name="dcroat" unicode="&#x111;" horiz-adv-x="1204" 
d="M862 0q12 132 12 264q-46 -131 -141.5 -206.5t-234.5 -75.5q-129 0 -225 69t-143.5 185t-47.5 262q0 231 119.5 379.5t320.5 148.5q116 0 208 -52.5t144 -144.5v398h-468v63h468v45q0 104 -13 152t-56 80v4l239 31l11 -5q-15 -89 -15 -262v-45h199v-63h-199v-967
q0 -113 15.5 -166t66.5 -88v-6h-260zM256 498q0 -121 29.5 -215t98.5 -153.5t169 -59.5q143 0 225.5 110.5t95.5 284.5v274q-44 93 -125.5 149t-179.5 56q-148 0 -230.5 -122t-82.5 -324z" />
    <glyph glyph-name="Emacron" unicode="&#x112;" horiz-adv-x="1179" 
d="M125 0v6q57 35 73.5 87.5t16.5 166.5v1030q0 119 -16 169t-74 85v6h965v-153q-308 69 -484 69h-211v-614h152q33 0 438 10v-100q-270 10 -438 10h-152v-688h252q186 0 479 78v-162h-1001zM287 1782v76h684v-76h-684z" />
    <glyph glyph-name="emacron" unicode="&#x113;" horiz-adv-x="1122" 
d="M569 -35q-218 0 -352.5 144t-134.5 387q0 241 139.5 387.5t353.5 146.5q207 0 333.5 -126t129.5 -329h-792q-2 -18 -2 -55q0 -127 37.5 -226.5t119.5 -160.5t199 -61q144 0 232.5 84t121.5 221h90q-34 -182 -156.5 -297t-318.5 -115zM252 1247v78h627v-78h-627zM256 649
h618q-11 133 -88 218t-208 85q-127 0 -211 -82t-111 -221z" />
    <glyph glyph-name="Edotaccent" unicode="&#x116;" horiz-adv-x="1179" 
d="M125 0v6q57 35 73.5 87.5t16.5 166.5v1030q0 119 -16 169t-74 85v6h965v-153q-308 69 -484 69h-211v-614h152q33 0 438 10v-100q-270 10 -438 10h-152v-688h252q186 0 479 78v-162h-1001zM553 1729v200h149v-200h-149z" />
    <glyph glyph-name="edotaccent" unicode="&#x117;" horiz-adv-x="1122" 
d="M569 -35q-218 0 -352.5 144t-134.5 387q0 241 139.5 387.5t353.5 146.5q207 0 333.5 -126t129.5 -329h-792q-2 -18 -2 -55q0 -127 37.5 -226.5t119.5 -160.5t199 -61q144 0 232.5 84t121.5 221h90q-34 -182 -156.5 -297t-318.5 -115zM256 649h618q-11 133 -88 218
t-208 85q-127 0 -211 -82t-111 -221zM485 1257v201h160v-201h-160z" />
    <glyph glyph-name="Eogonek" unicode="&#x118;" horiz-adv-x="1179" 
d="M125 0v6q57 35 73.5 87.5t16.5 166.5v1030q0 119 -16 169t-74 85v6h965v-153q-308 69 -484 69h-211v-614h152q33 0 438 10v-100q-270 10 -438 10h-152v-688h252q186 0 479 78v-162h-43q-176 -124 -176 -281q0 -60 31 -92.5t82 -32.5q80 0 129 82v-61q-59 -96 -168 -96
q-75 0 -126.5 46.5t-51.5 133.5q0 174 211 301h-889z" />
    <glyph glyph-name="eogonek" unicode="&#x119;" horiz-adv-x="1122" 
d="M569 -35q-218 0 -352.5 144t-134.5 387q0 241 139.5 387.5t353.5 146.5q207 0 333.5 -126t129.5 -329h-792q-2 -18 -2 -55q0 -127 37.5 -226.5t119.5 -160.5t199 -61q144 0 232.5 84t121.5 221h90q-24 -128 -92.5 -225.5t-177.5 -145.5q-153 -118 -153 -264
q0 -60 30.5 -92.5t81.5 -32.5q80 0 129 82v-61q-60 -97 -168 -97q-75 0 -126.5 46.5t-51.5 133.5q0 141 137 250q-41 -6 -84 -6zM256 649h618q-11 133 -88 218t-208 85q-127 0 -211 -82t-111 -221z" />
    <glyph glyph-name="Ecaron" unicode="&#x11a;" horiz-adv-x="1179" 
d="M125 0v6q57 35 73.5 87.5t16.5 166.5v1030q0 119 -16 169t-74 85v6h965v-153q-308 69 -484 69h-211v-614h152q33 0 438 10v-100q-270 10 -438 10h-152v-688h252q186 0 479 78v-162h-1001zM313 1974h93l223 -190l223 190h92l-274 -282h-84z" />
    <glyph glyph-name="ecaron" unicode="&#x11b;" horiz-adv-x="1122" 
d="M569 -35q-218 0 -352.5 144t-134.5 387q0 241 139.5 387.5t353.5 146.5q207 0 333.5 -126t129.5 -329h-792q-2 -18 -2 -55q0 -127 37.5 -226.5t119.5 -160.5t199 -61q144 0 232.5 84t121.5 221h90q-34 -182 -156.5 -297t-318.5 -115zM256 649h618q-11 133 -88 218
t-208 85q-127 0 -211 -82t-111 -221zM268 1540h84l213 -248l213 248h82l-254 -352h-84z" />
    <glyph glyph-name="Gcircumflex" unicode="&#x11c;" horiz-adv-x="1775" 
d="M842 -31q-142 0 -264.5 40.5t-212 113.5t-153 172t-95 218t-31.5 249q0 240 103 425.5t289 286.5t425 101q272 0 465.5 -131.5t251.5 -362.5h-178q-51 192 -193.5 299t-349.5 107q-142 0 -260 -53.5t-197.5 -147.5t-123.5 -223t-44 -279q0 -144 39 -268.5t113.5 -220.5
t193.5 -151.5t269 -55.5q257 0 413.5 163.5t184.5 446.5h-748l-2 84h910v-790h-80l-62 463q-63 -225 -236 -355.5t-427 -130.5zM600 1688l262 282h84l262 -282h-92l-211 190l-213 -190h-92z" />
    <glyph glyph-name="gcircumflex" unicode="&#x11d;" horiz-adv-x="1214" 
d="M485 -516q-77 0 -140.5 11.5t-115 35t-80 64.5t-28.5 96q0 146 235 221h-24q-115 0 -183.5 48t-68.5 136q0 149 223 244q-139 110 -139 295q0 178 124.5 282.5t313.5 104.5q204 0 328 -115q12 114 86 187.5t180 74.5v-141q-96 0 -154.5 -44.5t-68.5 -125.5
q69 -90 69 -223q0 -180 -124 -283.5t-314 -103.5q-138 0 -246 57q-151 -68 -151 -166q0 -51 38 -75.5t128 -24.5q85 1 294 38.5t296 37.5q113 0 178 -48t65 -141q0 -95 -64 -179.5t-167.5 -141t-232 -89t-257.5 -32.5zM248 -287q0 -149 252 -149q134 0 262.5 39.5
t213.5 112.5t85 159q0 57 -35 82t-117 25q-147 0 -399 -68q-134 -36 -198 -84t-64 -117zM317 1188l244 332h80l244 -332h-84l-199 227l-201 -227h-84zM328 635q0 -143 74 -227t200 -84q129 0 203 84t74 227q0 141 -75 225t-202 84q-126 0 -200 -84t-74 -225z" />
    <glyph glyph-name="Gbreve" unicode="&#x11e;" horiz-adv-x="1775" 
d="M842 -31q-142 0 -264.5 40.5t-212 113.5t-153 172t-95 218t-31.5 249q0 240 103 425.5t289 286.5t425 101q272 0 465.5 -131.5t251.5 -362.5h-178q-51 192 -193.5 299t-349.5 107q-142 0 -260 -53.5t-197.5 -147.5t-123.5 -223t-44 -279q0 -144 39 -268.5t113.5 -220.5
t193.5 -151.5t269 -55.5q257 0 413.5 163.5t184.5 446.5h-748l-2 84h910v-790h-80l-62 463q-63 -225 -236 -355.5t-427 -130.5zM604 1970h78q0 -91 55.5 -143.5t165.5 -52.5q112 0 166.5 51.5t54.5 144.5h78q0 -141 -79.5 -217t-219.5 -76t-219.5 76t-79.5 217z" />
    <glyph glyph-name="gbreve" unicode="&#x11f;" horiz-adv-x="1214" 
d="M485 -516q-77 0 -140.5 11.5t-115 35t-80 64.5t-28.5 96q0 146 235 221h-24q-115 0 -183.5 48t-68.5 136q0 149 223 244q-139 110 -139 295q0 178 124.5 282.5t313.5 104.5q204 0 328 -115q12 114 86 187.5t180 74.5v-141q-96 0 -154.5 -44.5t-68.5 -125.5
q69 -90 69 -223q0 -180 -124 -283.5t-314 -103.5q-138 0 -246 57q-151 -68 -151 -166q0 -51 38 -75.5t128 -24.5q85 1 294 38.5t296 37.5q113 0 178 -48t65 -141q0 -95 -64 -179.5t-167.5 -141t-232 -89t-257.5 -32.5zM248 -287q0 -149 252 -149q134 0 262.5 39.5
t213.5 112.5t85 159q0 57 -35 82t-117 25q-147 0 -399 -68q-134 -36 -198 -84t-64 -117zM328 635q0 -143 74 -227t200 -84q129 0 203 84t74 227q0 141 -75 225t-202 84q-126 0 -200 -84t-74 -225zM330 1509h73q0 -110 49 -170.5t148 -60.5q199 0 199 231h73
q0 -153 -72.5 -237t-199.5 -84t-198.5 84t-71.5 237z" />
    <glyph glyph-name="Gdotaccent" unicode="&#x120;" horiz-adv-x="1775" 
d="M842 -31q-142 0 -264.5 40.5t-212 113.5t-153 172t-95 218t-31.5 249q0 240 103 425.5t289 286.5t425 101q272 0 465.5 -131.5t251.5 -362.5h-178q-51 192 -193.5 299t-349.5 107q-142 0 -260 -53.5t-197.5 -147.5t-123.5 -223t-44 -279q0 -144 39 -268.5t113.5 -220.5
t193.5 -151.5t269 -55.5q257 0 413.5 163.5t184.5 446.5h-748l-2 84h910v-790h-80l-62 463q-63 -225 -236 -355.5t-427 -130.5zM827 1724v201h150v-201h-150z" />
    <glyph glyph-name="gdotaccent" unicode="&#x121;" horiz-adv-x="1214" 
d="M485 -516q-77 0 -140.5 11.5t-115 35t-80 64.5t-28.5 96q0 146 235 221h-24q-115 0 -183.5 48t-68.5 136q0 149 223 244q-139 110 -139 295q0 178 124.5 282.5t313.5 104.5q204 0 328 -115q12 114 86 187.5t180 74.5v-141q-96 0 -154.5 -44.5t-68.5 -125.5
q69 -90 69 -223q0 -180 -124 -283.5t-314 -103.5q-138 0 -246 57q-151 -68 -151 -166q0 -51 38 -75.5t128 -24.5q85 1 294 38.5t296 37.5q113 0 178 -48t65 -141q0 -95 -64 -179.5t-167.5 -141t-232 -89t-257.5 -32.5zM248 -287q0 -149 252 -149q134 0 262.5 39.5
t213.5 112.5t85 159q0 57 -35 82t-117 25q-147 0 -399 -68q-134 -36 -198 -84t-64 -117zM328 635q0 -143 74 -227t200 -84q129 0 203 84t74 227q0 141 -75 225t-202 84q-126 0 -200 -84t-74 -225zM520 1257v201h160v-201h-160z" />
    <glyph glyph-name="uni0122" unicode="&#x122;" horiz-adv-x="1775" 
d="M842 -31q-142 0 -264.5 40.5t-212 113.5t-153 172t-95 218t-31.5 249q0 240 103 425.5t289 286.5t425 101q272 0 465.5 -131.5t251.5 -362.5h-178q-51 192 -193.5 299t-349.5 107q-142 0 -260 -53.5t-197.5 -147.5t-123.5 -223t-44 -279q0 -144 39 -268.5t113.5 -220.5
t193.5 -151.5t269 -55.5q257 0 413.5 163.5t184.5 446.5h-748l-2 84h910v-790h-80l-62 463q-63 -225 -236 -355.5t-427 -130.5zM647 -487l129 360h150l-238 -379z" />
    <glyph glyph-name="uni0123" unicode="&#x123;" horiz-adv-x="1214" 
d="M485 -516q-77 0 -140.5 11.5t-115 35t-80 64.5t-28.5 96q0 146 235 221h-24q-115 0 -183.5 48t-68.5 136q0 149 223 244q-139 110 -139 295q0 178 124.5 282.5t313.5 104.5q204 0 328 -115q12 114 86 187.5t180 74.5v-141q-96 0 -154.5 -44.5t-68.5 -125.5
q69 -90 69 -223q0 -180 -124 -283.5t-314 -103.5q-138 0 -246 57q-151 -68 -151 -166q0 -51 38 -75.5t128 -24.5q85 1 294 38.5t296 37.5q113 0 178 -48t65 -141q0 -95 -64 -179.5t-167.5 -141t-232 -89t-257.5 -32.5zM248 -287q0 -149 252 -149q134 0 262.5 39.5
t213.5 112.5t85 159q0 57 -35 82t-117 25q-147 0 -399 -68q-134 -36 -198 -84t-64 -117zM328 635q0 -143 74 -227t200 -84q129 0 203 84t74 227q0 141 -75 225t-202 84q-126 0 -200 -84t-74 -225zM541 1190l182 364h47l-86 -364h-143z" />
    <glyph glyph-name="Hcircumflex" unicode="&#x124;" horiz-adv-x="1576" 
d="M125 0v6q57 35 73.5 87.5t16.5 166.5v1030q0 119 -16 169t-74 85v6h360v-6q-58 -35 -74 -85t-16 -169v-436h787v436q0 120 -15.5 169.5t-74.5 84.5v6h360v-6q-58 -35 -74 -85t-16 -169v-1030q0 -114 16.5 -166.5t73.5 -87.5v-6h-360v6q58 35 74 87t16 167v508h-787v-508
q0 -114 16.5 -166.5t73.5 -87.5v-6h-360zM485 1692l263 282h83l263 -282h-93l-210 190l-213 -190h-93z" />
    <glyph glyph-name="hcircumflex" unicode="&#x125;" horiz-adv-x="1185" 
d="M84 0v6q54 35 70 88t16 166v1075q0 98 -15.5 147.5t-60.5 82.5v6l244 31l12 -7q-16 -79 -16 -260v-565q50 115 147.5 187.5t237.5 72.5q309 0 309 -368v-402q0 -113 15 -166t65 -88v-6h-322v6q48 35 62 87.5t14 166.5v391q0 143 -53.5 210t-163.5 67q-120 0 -201.5 -79.5
t-109.5 -201.5v-387q0 -113 15.5 -166t68.5 -88v-6h-334zM115 1739l262 282h84l262 -282h-92l-211 190l-213 -190h-92z" />
    <glyph glyph-name="Hbar" unicode="&#x126;" horiz-adv-x="1576" 
d="M0 1206v76h215v8q0 119 -16 169t-74 85v6h360v-6q-58 -35 -74 -85t-16 -169v-8h787v8q0 120 -15.5 169.5t-74.5 84.5v6h360v-6q-58 -35 -74 -85t-16 -169v-8h215v-76h-215v-946q0 -114 16.5 -166.5t73.5 -87.5v-6h-360v6q58 35 74 87t16 167v508h-787v-508
q0 -114 16.5 -166.5t73.5 -87.5v-6h-360v6q57 35 73.5 87.5t16.5 166.5v946h-215zM395 854h787v352h-787v-352z" />
    <glyph glyph-name="hbar" unicode="&#x127;" horiz-adv-x="1185" 
d="M84 0v6q54 35 70 88t16 166v967h-233v63h233v45q0 98 -15.5 147.5t-60.5 82.5v6l244 31l12 -7q-16 -79 -16 -260v-45h436v-63h-436v-457q50 115 147.5 187.5t237.5 72.5q309 0 309 -368v-402q0 -113 15 -166t65 -88v-6h-322v6q48 35 62 87.5t14 166.5v391
q0 143 -53.5 210t-163.5 67q-120 0 -201.5 -79.5t-109.5 -201.5v-387q0 -113 15.5 -166t68.5 -88v-6h-334z" />
    <glyph glyph-name="Itilde" unicode="&#x128;" horiz-adv-x="610" 
d="M125 0v6q57 35 73.5 87.5t16.5 166.5v1030q0 119 -16 169t-74 85v6h360v-6q-58 -35 -74 -85t-16 -169v-1030q0 -114 16.5 -166.5t73.5 -87.5v-6h-360zM0 1698q0 135 44.5 204.5t127.5 69.5q44 0 77.5 -19.5t55 -47t41.5 -55t47.5 -47t61.5 -19.5q52 0 71 40.5t21 135.5
h63q0 -144 -42.5 -209t-123.5 -65q-45 0 -80 19.5t-57 47t-42.5 55t-47 47t-59.5 19.5q-52 0 -72.5 -45t-22.5 -131h-63z" />
    <glyph glyph-name="itilde" unicode="&#x129;" horiz-adv-x="481" 
d="M76 0v6q52 35 67 87t15 167v479q0 119 -14.5 169t-67.5 85v6l131 2l117 7v-748q0 -115 15 -167t67 -87v-6h-330zM-68 1196q-3 154 42 235.5t126 81.5q45 0 79.5 -23t56 -55.5t42 -65.5t49 -56t64.5 -23q50 0 71.5 52.5t18.5 160.5h58q6 -317 -160 -317q-47 0 -83 22.5
t-58.5 54t-43 63.5t-47.5 54.5t-61 22.5q-103 0 -96 -207h-58z" />
    <glyph glyph-name="Imacron" unicode="&#x12a;" horiz-adv-x="610" 
d="M125 0v6q57 35 73.5 87.5t16.5 166.5v1030q0 119 -16 169t-74 85v6h360v-6q-58 -35 -74 -85t-16 -169v-1030q0 -114 16.5 -166.5t73.5 -87.5v-6h-360zM-35 1776v75h684v-75h-684z" />
    <glyph glyph-name="imacron" unicode="&#x12b;" horiz-adv-x="481" 
d="M76 0v6q52 35 67 87t15 167v479q0 119 -14.5 169t-67.5 85v6l131 2l117 7v-748q0 -115 15 -167t67 -87v-6h-330zM-78 1247v78h627v-78h-627z" />
    <glyph glyph-name="Iogonek" unicode="&#x12e;" horiz-adv-x="610" 
d="M125 0v6q57 35 73.5 87.5t16.5 166.5v1030q0 119 -16 169t-74 85v6h360v-6q-58 -35 -74 -85t-16 -169v-1030q0 -114 16.5 -166.5t73.5 -87.5v-6h-90q-176 -124 -176 -281q0 -60 31 -92.5t82 -32.5q80 0 129 82v-61q-59 -96 -168 -96q-75 0 -126.5 46.5t-51.5 133.5
q0 174 211 301h-201z" />
    <glyph glyph-name="iogonek" unicode="&#x12f;" horiz-adv-x="481" 
d="M76 0v6q52 35 67 87t15 167v479q0 119 -14.5 169t-67.5 85v6l131 2l117 7v-748q0 -115 15 -167t67 -87v-6h-50q-168 -122 -168 -274q0 -60 31 -92.5t82 -32.5q80 0 129 82v-62q-59 -96 -168 -96q-75 0 -126.5 46.5t-51.5 133.5q0 171 201 295h-209zM150 1257v218h176
v-218h-176z" />
    <glyph glyph-name="Idotaccent" unicode="&#x130;" horiz-adv-x="610" 
d="M125 0v6q57 35 73.5 87.5t16.5 166.5v1030q0 119 -16 169t-74 85v6h360v-6q-58 -35 -74 -85t-16 -169v-1030q0 -114 16.5 -166.5t73.5 -87.5v-6h-360zM209 1722v201h192v-201h-192z" />
    <glyph glyph-name="dotlessi" unicode="&#x131;" horiz-adv-x="481" 
d="M76 0v6q52 35 67 87t15 167v479q0 119 -14.5 169t-67.5 85v6l131 2l117 7v-748q0 -115 15 -167t67 -87v-6h-330z" />
    <glyph glyph-name="IJ" unicode="&#x132;" horiz-adv-x="1249" 
d="M125 0v6q57 35 73.5 87.5t16.5 166.5v1030q0 119 -16 169t-74 85v6h360v-6q-58 -35 -74 -85t-16 -169v-1030q0 -114 16.5 -166.5t73.5 -87.5v-6h-360zM629 -289v82q131 25 182 118t51 302v1077q0 119 -16 169t-74 85v6h358v-6q-58 -35 -74 -85t-16 -169v-1073
q0 -240 -102 -362.5t-309 -143.5z" />
    <glyph glyph-name="ij" unicode="&#x133;" horiz-adv-x="962" 
d="M76 0v6q52 35 67 87t15 167v479q0 119 -14.5 169t-67.5 85v6l131 2l117 7v-748q0 -115 15 -167t67 -87v-6h-330zM150 1257v218h176v-218h-176zM440 -500v68q115 10 161 81t46 214v876q0 119 -14.5 169t-67.5 85v6l129 2l117 7v-1117q0 -180 -92 -282.5t-279 -108.5z
M629 1257v218h176v-218h-176z" />
    <glyph glyph-name="Jcircumflex" unicode="&#x134;" horiz-adv-x="638" 
d="M18 -207q131 25 182.5 118.5t51.5 301.5v1077q0 119 -16 169t-74 85v6h358v-6q-58 -35 -74 -85t-16 -169v-1073q0 -240 -102.5 -362.5t-309.5 -143.5v82zM31 1692l262 282h84l262 -282h-92l-211 190l-213 -190h-92z" />
    <glyph glyph-name="jcircumflex" unicode="&#x135;" horiz-adv-x="491" 
d="M-31 -432q115 10 161 81t46 214v876q0 119 -14.5 169t-67.5 85v6l129 2l117 7v-1117q0 -180 -92 -282.5t-279 -108.5v68zM-39 1188l244 332h80l243 -332h-84l-198 227l-201 -227h-84z" />
    <glyph glyph-name="uni0136" unicode="&#x136;" horiz-adv-x="1347" 
d="M125 0v6q57 35 73.5 87.5t16.5 166.5v1030q0 119 -16 169t-74 85v6h360v-6q-58 -35 -74 -85t-16 -169v-522l572 598q93 100 145 184h225v-18q-65 -21 -110 -50t-92 -77l-488 -500l713 -893v-12h-213l-604 799l-148 -150v-389q0 -114 16.5 -166.5t73.5 -87.5v-6h-360z
M555 -483l129 360h150l-238 -379z" />
    <glyph glyph-name="uni0137" unicode="&#x137;" horiz-adv-x="1030" 
d="M827 0l-493 535v-275q0 -113 15.5 -166t68.5 -88v-6h-334v6q54 35 70 88t16 166v1075q0 101 -14 149t-58 79v8l240 31l12 -5q-16 -81 -16 -262v-747l315 266q48 38 69.5 76.5t16.5 60.5v6h240v-14q-91 -36 -203 -129l-315 -262l565 -578v-14h-195zM369 -483l129 360h149
l-237 -379z" />
    <glyph glyph-name="Lacute" unicode="&#x139;" horiz-adv-x="1155" 
d="M125 0v6q57 35 73.5 87.5t16.5 166.5v1030q0 119 -16 169t-74 85v6h360v-6q-58 -35 -74 -85t-16 -169v-1204h232q208 0 493 82v-168h-995zM258 1692l193 282h167l-288 -282h-72z" />
    <glyph glyph-name="lacute" unicode="&#x13a;" horiz-adv-x="503" 
d="M84 0v6q54 35 70 88t16 166v1075q0 98 -15.5 147.5t-60.5 82.5v6l244 31l12 -7q-16 -79 -16 -260v-1075q0 -113 15.5 -166t68.5 -88v-6h-334zM215 1739l193 282h167l-288 -282h-72z" />
    <glyph glyph-name="uni013B" unicode="&#x13b;" horiz-adv-x="1155" 
d="M125 0v6q57 35 73.5 87.5t16.5 166.5v1030q0 119 -16 169t-74 85v6h360v-6q-58 -35 -74 -85t-16 -169v-1204h232q208 0 493 82v-168h-995zM436 -483l129 360h150l-238 -379z" />
    <glyph glyph-name="uni013C" unicode="&#x13c;" horiz-adv-x="503" 
d="M84 0v6q54 35 70 88t16 166v1075q0 98 -15.5 147.5t-60.5 82.5v6l244 31l12 -7q-16 -79 -16 -260v-1075q0 -113 15.5 -166t68.5 -88v-6h-334zM45 -483l129 360h150l-238 -379z" />
    <glyph glyph-name="Lcaron" unicode="&#x13d;" horiz-adv-x="1155" 
d="M125 0v6q57 35 73.5 87.5t16.5 166.5v1030q0 119 -16 169t-74 85v6h360v-6q-58 -35 -74 -85t-16 -169v-1204h232q208 0 493 82v-168h-995zM672 1069l80 481h139l-164 -481h-55z" />
    <glyph glyph-name="lcaron" unicode="&#x13e;" horiz-adv-x="503" 
d="M84 0v6q54 35 70 88t16 166v1075q0 98 -15.5 147.5t-60.5 82.5v6l244 31l12 -7q-16 -79 -16 -260v-1075q0 -113 15.5 -166t68.5 -88v-6h-334zM463 1116l80 481h139l-164 -481h-55z" />
    <glyph glyph-name="Ldot" unicode="&#x13f;" horiz-adv-x="1155" 
d="M125 0v6q57 35 73.5 87.5t16.5 166.5v1030q0 119 -16 169t-74 85v6h360v-6q-58 -35 -74 -85t-16 -169v-1204h232q208 0 493 82v-168h-995zM774 684v201h150v-201h-150z" />
    <glyph glyph-name="ldot" unicode="&#x140;" horiz-adv-x="677" 
d="M84 0v6q54 35 70 88t16 166v1075q0 98 -15.5 147.5t-60.5 82.5v6l244 31l12 -7q-16 -79 -16 -260v-1075q0 -113 15.5 -166t68.5 -88v-6h-334zM502 719v223h174v-223h-174z" />
    <glyph glyph-name="Lslash" unicode="&#x141;" horiz-adv-x="1155" 
d="M125 0v6q57 35 73.5 87.5t16.5 166.5v389l-254 -143v78l254 143v563q0 119 -16 169t-74 85v6h360v-6q-58 -35 -74 -85t-16 -169v-463l410 230v-78l-410 -229v-664h232q208 0 493 82v-168h-995z" />
    <glyph glyph-name="lslash" unicode="&#x142;" horiz-adv-x="503" 
d="M84 0v6q54 35 70 88t16 166v481l-188 -102v70l188 100v526q0 98 -15.5 147.5t-60.5 82.5v6l244 31l12 -7q-16 -79 -16 -260v-438l198 107v-68l-198 -107v-569q0 -113 15.5 -166t68.5 -88v-6h-334z" />
    <glyph glyph-name="Nacute" unicode="&#x143;" horiz-adv-x="1519" 
d="M1151 0l-840 1331v-1063q0 -117 18 -171.5t79 -90.5v-6h-285v6q52 36 67 90t15 172v1022q0 118 -10.5 168.5t-47.5 85.5v6h218l841 -1331v1063q0 119 -16 172.5t-74 89.5v6h279v-6q-51 -36 -65.5 -90t-14.5 -172v-1282h-164zM727 1692l193 282h167l-288 -282h-72z" />
    <glyph glyph-name="nacute" unicode="&#x144;" horiz-adv-x="1187" 
d="M88 0v6q52 35 67 87t15 167v477q0 119 -14.5 169t-67.5 85v6h281q-18 -34 -24.5 -82t-8.5 -145q50 115 147.5 187.5t237.5 72.5q309 0 309 -368v-402q0 -113 15 -166t65 -88v-6h-322v6q48 35 62 87.5t14 166.5v391q0 143 -53.5 210t-163.5 67q-120 0 -201.5 -79.5
t-109.5 -201.5v-387q0 -113 15 -166t65 -88v-6h-328zM571 1188l209 360h152l-305 -360h-56z" />
    <glyph glyph-name="uni0145" unicode="&#x145;" horiz-adv-x="1519" 
d="M1151 0l-840 1331v-1063q0 -117 18 -171.5t79 -90.5v-6h-285v6q52 36 67 90t15 172v1022q0 118 -10.5 168.5t-47.5 85.5v6h218l841 -1331v1063q0 119 -16 172.5t-74 89.5v6h279v-6q-51 -36 -65.5 -90t-14.5 -172v-1282h-164zM551 -483l129 360h149l-237 -379z" />
    <glyph glyph-name="uni0146" unicode="&#x146;" horiz-adv-x="1187" 
d="M88 0v6q52 35 67 87t15 167v477q0 119 -14.5 169t-67.5 85v6h281q-18 -34 -24.5 -82t-8.5 -145q50 115 147.5 187.5t237.5 72.5q309 0 309 -368v-402q0 -113 15 -166t65 -88v-6h-322v6q48 35 62 87.5t14 166.5v391q0 143 -53.5 210t-163.5 67q-120 0 -201.5 -79.5
t-109.5 -201.5v-387q0 -113 15 -166t65 -88v-6h-328zM395 -483l129 360h150l-238 -379z" />
    <glyph glyph-name="Ncaron" unicode="&#x147;" horiz-adv-x="1519" 
d="M1151 0l-840 1331v-1063q0 -117 18 -171.5t79 -90.5v-6h-285v6q52 36 67 90t15 172v1022q0 118 -10.5 168.5t-47.5 85.5v6h218l841 -1331v1063q0 119 -16 172.5t-74 89.5v6h279v-6q-51 -36 -65.5 -90t-14.5 -172v-1282h-164zM451 1974h92l223 -190l223 190h92l-274 -282
h-84z" />
    <glyph glyph-name="ncaron" unicode="&#x148;" horiz-adv-x="1187" 
d="M88 0v6q52 35 67 87t15 167v477q0 119 -14.5 169t-67.5 85v6h281q-18 -34 -24.5 -82t-8.5 -145q50 115 147.5 187.5t237.5 72.5q309 0 309 -368v-402q0 -113 15 -166t65 -88v-6h-322v6q48 35 62 87.5t14 166.5v391q0 143 -53.5 210t-163.5 67q-120 0 -201.5 -79.5
t-109.5 -201.5v-387q0 -113 15 -166t65 -88v-6h-328zM307 1540h84l213 -248l213 248h82l-254 -352h-84z" />
    <glyph glyph-name="Eng" unicode="&#x14a;" horiz-adv-x="1515" 
d="M1155 0l-852 1331v-1063q0 -118 17.5 -172t78.5 -90v-6h-276v6q52 36 67 90t15 172v1022q0 118 -10.5 168.5t-47.5 85.5v6h209l854 -1333v1065q0 119 -16 172.5t-74 89.5v6h271v-6q-51 -36 -65.5 -90t-14.5 -172v-1253q0 -217 -97.5 -323.5t-293.5 -125.5v76
q152 19 223 101.5t71 242.5h-59z" />
    <glyph glyph-name="eng" unicode="&#x14b;" horiz-adv-x="1175" 
d="M684 -387q101 51 140.5 123t39.5 207v708q0 143 -54.5 210t-164.5 67q-119 0 -198 -79.5t-111 -203.5v-385q0 -115 15 -167t67 -87v-6h-330v6q52 35 67 87t15 167v475q0 120 -14.5 170t-67.5 84v8h281q-19 -38 -26 -90t-7 -153q49 121 146 198.5t237 77.5q311 0 311 -368
v-719q0 -79 -22.5 -140.5t-67.5 -107.5t-100.5 -78.5t-132.5 -62.5z" />
    <glyph glyph-name="Omacron" unicode="&#x14c;" horiz-adv-x="1806" 
d="M903 -33q-179 0 -331 59t-259 164t-167 255t-60 327q0 176 60 325t167 254t259 163.5t331 58.5t331 -59t259 -163.5t167 -254t60 -326.5q0 -176 -60 -325.5t-167 -254.5t-259 -164t-331 -59zM276 770q0 -208 75.5 -370t219 -254.5t332.5 -92.5t332.5 92.5t219 255
t75.5 371.5q0 207 -75.5 368t-219 253t-332.5 92t-332.5 -92t-219 -254t-75.5 -369zM563 1782v76h684v-76h-684z" />
    <glyph glyph-name="omacron" unicode="&#x14d;" horiz-adv-x="1177" 
d="M590 -33q-230 0 -369 147.5t-139 385.5q0 236 139 383t369 147t369 -147t139 -383q0 -238 -139 -385.5t-369 -147.5zM250 500q0 -213 90.5 -334t249.5 -121q158 0 249 121.5t91 333.5t-90.5 332t-249.5 120q-160 0 -250 -120t-90 -332zM274 1247v78h627v-78h-627z" />
    <glyph glyph-name="Ohungarumlaut" unicode="&#x150;" horiz-adv-x="1806" 
d="M903 -33q-179 0 -331 59t-259 164t-167 255t-60 327q0 176 60 325t167 254t259 163.5t331 58.5t331 -59t259 -163.5t167 -254t60 -326.5q0 -176 -60 -325.5t-167 -254.5t-259 -164t-331 -59zM276 770q0 -208 75.5 -370t219 -254.5t332.5 -92.5t332.5 92.5t219 255
t75.5 371.5q0 207 -75.5 368t-219 253t-332.5 92t-332.5 -92t-219 -254t-75.5 -369zM741 1692l179 280h137l-254 -280h-62zM1006 1692l194 280h139l-272 -280h-61z" />
    <glyph glyph-name="ohungarumlaut" unicode="&#x151;" horiz-adv-x="1177" 
d="M590 -33q-230 0 -369 147.5t-139 385.5q0 236 139 383t369 147t369 -147t139 -383q0 -238 -139 -385.5t-369 -147.5zM250 500q0 -213 90.5 -334t249.5 -121q158 0 249 121.5t91 333.5t-90.5 332t-249.5 120q-160 0 -250 -120t-90 -332zM424 1188l178 360h137l-256 -360
h-59zM694 1188l185 360h139l-262 -360h-62z" />
    <glyph glyph-name="OE" unicode="&#x152;" horiz-adv-x="2136" 
d="M958 0q-258 0 -455 93.5t-307 270t-110 410.5q0 236 110 412.5t307 270t455 93.5h1086v-147q-277 65 -481 65h-211v-618h161q267 0 429 4v-90q-162 6 -429 6h-161v-688h239q128 0 243 14t249 58v-154h-1125zM276 774q0 -319 187.5 -504.5t507.5 -187.5h200v1386h-200
q-321 0 -508 -186.5t-187 -507.5z" />
    <glyph glyph-name="oe" unicode="&#x153;" horiz-adv-x="1910" 
d="M565 -33q-220 0 -351.5 147.5t-131.5 385.5q0 237 131.5 383.5t351.5 146.5q143 0 251 -65.5t167 -182.5q62 117 168 182.5t238 65.5q196 0 315.5 -126t122.5 -329h-752q-2 -18 -2 -55q0 -127 36 -226.5t113.5 -160.5t188.5 -61q137 0 220.5 83.5t115.5 221.5h86
q-33 -182 -149 -297t-302 -115q-135 0 -239.5 63.5t-161.5 180.5q-61 -114 -168.5 -178t-247.5 -64zM242 500q0 -213 85.5 -334t237.5 -121q149 0 235.5 121.5t86.5 333.5t-86 332t-236 120q-152 0 -237.5 -120t-85.5 -332zM1085 649h586q-11 133 -83 218t-197 85
q-121 0 -201 -82t-105 -221z" />
    <glyph glyph-name="Racute" unicode="&#x154;" horiz-adv-x="1323" 
d="M1102 0l-522 768h-185v-508q0 -114 17 -166.5t77 -87.5v-6h-364v6q57 35 73.5 87.5t16.5 166.5v1030q0 119 -16 169t-74 85v6h514q131 0 233.5 -21t178.5 -65.5t116.5 -117.5t40.5 -172q0 -179 -127.5 -278.5t-339.5 -115.5l572 -768v-12h-211zM395 848h183q210 0 330 78
t120 243q0 299 -418 299h-215v-620zM629 1692l192 282h168l-289 -282h-71z" />
    <glyph glyph-name="racute" unicode="&#x155;" horiz-adv-x="778" 
d="M88 0v6q52 35 67 87t15 167v475q0 120 -14.5 170t-67.5 84v8h279q-18 -39 -24.5 -93.5t-6.5 -168.5v-53q12 56 42.5 110.5t79.5 104t125 80t165 31.5v-144q-104 4 -184 -20t-129 -71t-73.5 -110t-25.5 -139v-272q0 -111 16.5 -162t73.5 -84v-6h-338zM399 1188l209 360
h152l-305 -360h-56z" />
    <glyph glyph-name="uni0156" unicode="&#x156;" horiz-adv-x="1323" 
d="M1102 0l-522 768h-185v-508q0 -114 17 -166.5t77 -87.5v-6h-364v6q57 35 73.5 87.5t16.5 166.5v1030q0 119 -16 169t-74 85v6h514q131 0 233.5 -21t178.5 -65.5t116.5 -117.5t40.5 -172q0 -179 -127.5 -278.5t-339.5 -115.5l572 -768v-12h-211zM395 848h183q210 0 330 78
t120 243q0 299 -418 299h-215v-620zM561 -483l129 360h150l-238 -379z" />
    <glyph glyph-name="uni0157" unicode="&#x157;" horiz-adv-x="778" 
d="M88 0v6q52 35 67 87t15 167v475q0 120 -14.5 170t-67.5 84v8h279q-18 -39 -24.5 -93.5t-6.5 -168.5v-53q12 56 42.5 110.5t79.5 104t125 80t165 31.5v-144q-104 4 -184 -20t-129 -71t-73.5 -110t-25.5 -139v-272q0 -111 16.5 -162t73.5 -84v-6h-338zM49 -483l129 360h150
l-238 -379z" />
    <glyph glyph-name="Rcaron" unicode="&#x158;" horiz-adv-x="1323" 
d="M1102 0l-522 768h-185v-508q0 -114 17 -166.5t77 -87.5v-6h-364v6q57 35 73.5 87.5t16.5 166.5v1030q0 119 -16 169t-74 85v6h514q131 0 233.5 -21t178.5 -65.5t116.5 -117.5t40.5 -172q0 -179 -127.5 -278.5t-339.5 -115.5l572 -768v-12h-211zM352 1974h92l224 -190
l223 190h92l-274 -282h-84zM395 848h183q210 0 330 78t120 243q0 299 -418 299h-215v-620z" />
    <glyph glyph-name="rcaron" unicode="&#x159;" horiz-adv-x="778" 
d="M88 0v6q52 35 67 87t15 167v475q0 120 -14.5 170t-67.5 84v8h279q-18 -39 -24.5 -93.5t-6.5 -168.5v-53q12 56 42.5 110.5t79.5 104t125 80t165 31.5v-144q-104 4 -184 -20t-129 -71t-73.5 -110t-25.5 -139v-272q0 -111 16.5 -162t73.5 -84v-6h-338zM137 1540h84
l213 -248l213 248h82l-254 -352h-84z" />
    <glyph glyph-name="Sacute" unicode="&#x15a;" horiz-adv-x="1212" 
d="M641 -33q-246 0 -405 139.5t-183 391.5h174q20 -202 125 -324.5t291 -122.5q147 0 234.5 76t87.5 207q0 38 -9 71.5t-22 60.5t-43 56.5t-55.5 51t-77 53t-91 54t-112.5 62.5q-72 38 -119.5 65.5t-101.5 64t-87 70t-62.5 74.5t-42.5 88t-13 101q0 170 126.5 269.5
t330.5 99.5q217 0 359.5 -117.5t174.5 -324.5h-170q-21 163 -114 260.5t-250 97.5q-140 1 -217.5 -65.5t-77.5 -178.5q0 -42 10 -76.5t35 -67t51.5 -57.5t78 -57t93.5 -55.5t117 -63.5q81 -44 129.5 -72t107.5 -67.5t92.5 -74t64.5 -79t44.5 -95t13.5 -109.5
q0 -188 -134.5 -297t-352.5 -109zM549 1688l192 282h168l-288 -282h-72z" />
    <glyph glyph-name="sacute" unicode="&#x15b;" horiz-adv-x="972" 
d="M522 -35q-191 0 -313 99.5t-141 269.5h153q14 -138 91.5 -215.5t211.5 -77.5q100 0 163 45t63 123q0 54 -41.5 97.5t-88.5 67.5t-163 74q-7 3 -11 5q-48 20 -76 32.5t-68 32.5t-62.5 36.5t-49.5 40.5t-40.5 48t-23 56t-9.5 69q0 124 98.5 194t259.5 70q173 0 281 -82.5
t133 -230.5h-156q-12 109 -78.5 173t-181.5 64q-97 0 -154 -40.5t-57 -112.5q0 -40 17 -71t58 -59t84.5 -49t121.5 -53q74 -30 120.5 -51t96 -51t76 -60t44 -71.5t17.5 -91.5q0 -133 -105 -207t-270 -74zM449 1188l208 360h152l-305 -360h-55z" />
    <glyph glyph-name="Scircumflex" unicode="&#x15c;" horiz-adv-x="1212" 
d="M641 -33q-246 0 -405 139.5t-183 391.5h174q20 -202 125 -324.5t291 -122.5q147 0 234.5 76t87.5 207q0 38 -9 71.5t-22 60.5t-43 56.5t-55.5 51t-77 53t-91 54t-112.5 62.5q-72 38 -119.5 65.5t-101.5 64t-87 70t-62.5 74.5t-42.5 88t-13 101q0 170 126.5 269.5
t330.5 99.5q217 0 359.5 -117.5t174.5 -324.5h-170q-21 163 -114 260.5t-250 97.5q-140 1 -217.5 -65.5t-77.5 -178.5q0 -42 10 -76.5t35 -67t51.5 -57.5t78 -57t93.5 -55.5t117 -63.5q81 -44 129.5 -72t107.5 -67.5t92.5 -74t64.5 -79t44.5 -95t13.5 -109.5
q0 -188 -134.5 -297t-352.5 -109zM281 1688l262 282h84l262 -282h-92l-211 190l-213 -190h-92z" />
    <glyph glyph-name="scircumflex" unicode="&#x15d;" horiz-adv-x="972" 
d="M522 -35q-191 0 -313 99.5t-141 269.5h153q14 -138 91.5 -215.5t211.5 -77.5q100 0 163 45t63 123q0 54 -41.5 97.5t-88.5 67.5t-163 74q-7 3 -11 5q-48 20 -76 32.5t-68 32.5t-62.5 36.5t-49.5 40.5t-40.5 48t-23 56t-9.5 69q0 124 98.5 194t259.5 70q173 0 281 -82.5
t133 -230.5h-156q-12 109 -78.5 173t-181.5 64q-97 0 -154 -40.5t-57 -112.5q0 -40 17 -71t58 -59t84.5 -49t121.5 -53q74 -30 120.5 -51t96 -51t76 -60t44 -71.5t17.5 -91.5q0 -133 -105 -207t-270 -74zM197 1188l243 332h80l244 -332h-84l-199 227l-200 -227h-84z" />
    <glyph glyph-name="Scedilla" unicode="&#x15e;" horiz-adv-x="1212" 
d="M618 -506q-86 0 -154.5 32t-107.5 93l43 43q63 -104 201 -104q65 0 106.5 27.5t41.5 82.5q0 52 -38.5 80.5t-103.5 28.5q-54 0 -96 -19l-35 35l133 174q-233 9 -382.5 148.5t-172.5 382.5h174q20 -202 125 -324.5t291 -122.5q147 0 234.5 76t87.5 207q0 38 -9 71.5
t-22 60.5t-43 56.5t-55.5 51t-77 53t-91 54t-112.5 62.5q-72 38 -119.5 65.5t-101.5 64t-87 70t-62.5 74.5t-42.5 88t-13 101q0 170 126.5 269.5t330.5 99.5q217 0 359.5 -117.5t174.5 -324.5h-170q-21 163 -114 260.5t-250 97.5q-140 1 -217.5 -65.5t-77.5 -178.5
q0 -42 10 -76.5t35 -67t51.5 -57.5t78 -57t93.5 -55.5t117 -63.5q81 -44 129.5 -72t107.5 -67.5t92.5 -74t64.5 -79t44.5 -95t13.5 -109.5q0 -179 -121.5 -286t-322.5 -118l-94 -123q35 7 61 7q92 0 149.5 -48t57.5 -127q0 -62 -37.5 -105t-90 -61t-112.5 -18z" />
    <glyph glyph-name="scedilla" unicode="&#x15f;" horiz-adv-x="972" 
d="M485 -502q-86 0 -154.5 32t-107.5 93l43 43q63 -104 201 -104q65 0 106 27.5t41 82.5q0 52 -38 80.5t-103 28.5q-54 0 -96 -19l-35 35l129 170q-169 14 -277.5 111.5t-125.5 255.5h153q14 -138 91.5 -215.5t211.5 -77.5q100 0 163 45t63 123q0 54 -41.5 97.5t-88.5 67.5
t-163 74q-7 3 -11 5q-48 20 -76 32.5t-68 32.5t-62.5 36.5t-49.5 40.5t-40.5 48t-23 56t-9.5 69q0 124 98.5 194t259.5 70q173 0 281 -82.5t133 -230.5h-156q-12 109 -78.5 173t-181.5 64q-97 0 -154 -40.5t-57 -112.5q0 -40 17 -71t58 -59t84.5 -49t121.5 -53
q74 -30 120.5 -51t96 -51t76 -60t44 -71.5t17.5 -91.5q0 -129 -97 -202t-253 -79l-90 -115q35 7 61 7q92 0 149.5 -47.5t57.5 -126.5q0 -62 -37.5 -105.5t-90 -61.5t-112.5 -18z" />
    <glyph glyph-name="Scaron" unicode="&#x160;" horiz-adv-x="1212" 
d="M641 -33q-246 0 -405 139.5t-183 391.5h174q20 -202 125 -324.5t291 -122.5q147 0 234.5 76t87.5 207q0 38 -9 71.5t-22 60.5t-43 56.5t-55.5 51t-77 53t-91 54t-112.5 62.5q-72 38 -119.5 65.5t-101.5 64t-87 70t-62.5 74.5t-42.5 88t-13 101q0 170 126.5 269.5
t330.5 99.5q217 0 359.5 -117.5t174.5 -324.5h-170q-21 163 -114 260.5t-250 97.5q-140 1 -217.5 -65.5t-77.5 -178.5q0 -42 10 -76.5t35 -67t51.5 -57.5t78 -57t93.5 -55.5t117 -63.5q81 -44 129.5 -72t107.5 -67.5t92.5 -74t64.5 -79t44.5 -95t13.5 -109.5
q0 -188 -134.5 -297t-352.5 -109zM270 1970h92l224 -190l223 190h92l-274 -282h-84z" />
    <glyph glyph-name="scaron" unicode="&#x161;" horiz-adv-x="972" 
d="M522 -35q-191 0 -313 99.5t-141 269.5h153q14 -138 91.5 -215.5t211.5 -77.5q100 0 163 45t63 123q0 54 -41.5 97.5t-88.5 67.5t-163 74q-7 3 -11 5q-48 20 -76 32.5t-68 32.5t-62.5 36.5t-49.5 40.5t-40.5 48t-23 56t-9.5 69q0 124 98.5 194t259.5 70q173 0 281 -82.5
t133 -230.5h-156q-12 109 -78.5 173t-181.5 64q-97 0 -154 -40.5t-57 -112.5q0 -40 17 -71t58 -59t84.5 -49t121.5 -53q74 -30 120.5 -51t96 -51t76 -60t44 -71.5t17.5 -91.5q0 -133 -105 -207t-270 -74zM184 1540h84l213 -248l213 248h82l-254 -352h-84z" />
    <glyph glyph-name="uni0162" unicode="&#x162;" horiz-adv-x="1232" 
d="M35 1397v153h1163v-153q-328 73 -471 73h-20v-1210q0 -114 16.5 -166.5t73.5 -87.5v-6h-138l-110 -143q30 6 61 6q92 0 149.5 -47.5t57.5 -126.5q0 -62 -37 -105.5t-89.5 -61.5t-112.5 -18q-86 0 -155 32t-108 93l43 43q63 -104 201 -104q65 0 106.5 27.5t41.5 82.5
q0 52 -38.5 80.5t-103.5 28.5q-56 0 -96 -18l-35 34l150 197h-148v6q57 35 73.5 87.5t16.5 166.5v1210h-18q-145 0 -473 -73z" />
    <glyph glyph-name="uni0163" unicode="&#x163;" horiz-adv-x="792" 
d="M8 918v79h215v293l158 127h6v-420h338v-79h-338v-605q0 -126 43.5 -175.5t122.5 -49.5q138 0 213 154l20 -62q-37 -87 -105.5 -138.5t-158.5 -59.5l-98 -125q30 6 61 6q92 0 149.5 -47.5t57.5 -126.5q0 -62 -37 -105.5t-89.5 -61.5t-112.5 -18q-86 0 -155 32t-108 93
l43 43q63 -104 201 -104q65 0 106.5 27.5t41.5 82.5q0 52 -38.5 80.5t-103.5 28.5q-56 0 -96 -18l-35 34l137 181q-223 29 -223 327v607h-215z" />
    <glyph glyph-name="Tcaron" unicode="&#x164;" horiz-adv-x="1232" 
d="M35 1397v153h1163v-153q-328 73 -471 73h-20v-1210q0 -114 16.5 -166.5t73.5 -87.5v-6h-361v6q57 35 73.5 87.5t16.5 166.5v1210h-18q-145 0 -473 -73zM301 1974h92l223 -190l224 190h92l-275 -282h-84z" />
    <glyph glyph-name="tcaron" unicode="&#x165;" horiz-adv-x="796" 
d="M496 -18q-273 0 -273 329v607h-215v79h215v293l158 127h6v-420h338v-79h-338v-605q0 -126 43.5 -175.5t122.5 -49.5q138 0 213 154l20 -62q-40 -94 -116 -146t-174 -52zM545 1196l73 408h140l-160 -408h-53z" />
    <glyph glyph-name="Tbar" unicode="&#x166;" horiz-adv-x="1232" 
d="M35 1397v153h1163v-153q-328 73 -471 73h-20v-639h348v-75h-348v-496q0 -114 16.5 -166.5t73.5 -87.5v-6h-361v6q57 35 73.5 87.5t16.5 166.5v496h-346v75h346v639h-18q-145 0 -473 -73z" />
    <glyph glyph-name="tbar" unicode="&#x167;" horiz-adv-x="794" 
d="M12 604v64h213v250h-215v79h215v293l158 127h6v-420h338v-79h-338v-250h352v-64h-352v-291q0 -126 43.5 -175.5t122.5 -49.5q138 0 213 154l20 -62q-40 -94 -116 -146t-174 -52q-273 0 -273 329v293h-213z" />
    <glyph glyph-name="Utilde" unicode="&#x168;" horiz-adv-x="1505" 
d="M760 -33q-135 0 -236.5 34.5t-178 111.5t-116 210t-39.5 320v647q0 119 -16 169t-74 85v6h359v-6q-57 -35 -72.5 -84.5t-15.5 -169.5v-651q0 -303 98 -438t313 -135q216 0 320 135.5t104 437.5v651q0 119 -16 169t-74 85v6h289v-6q-58 -35 -74 -85t-16 -169v-647
q0 -354 -139 -515t-416 -161zM481 1704q0 135 44.5 204.5t127.5 69.5q44 0 77.5 -19.5t55 -47t41.5 -55t47.5 -47t61.5 -19.5q52 0 71 40.5t21 135.5h64q0 -144 -42.5 -209t-123.5 -65q-45 0 -80.5 19.5t-57.5 47t-42 55t-47 47t-60 19.5q-52 0 -72 -45t-22 -131h-64z" />
    <glyph glyph-name="utilde" unicode="&#x169;" horiz-adv-x="1185" 
d="M469 -33q-311 0 -311 369v399q0 115 -15 168t-67 86v8h321v-8q-48 -33 -60.5 -85t-12.5 -169v-385q0 -145 52.5 -211.5t162.5 -66.5q120 0 200.5 85t110.5 218v360q0 115 -14 168t-64 86v8h326v-8q-52 -33 -67 -86t-15 -168v-475q0 -119 14.5 -169t67.5 -85v-6h-275
q17 35 22 87t5 163q-47 -121 -145.5 -202t-235.5 -81zM289 1196q-3 154 42 235.5t126 81.5q45 0 79.5 -23t56 -55.5t42 -65.5t49 -56t64.5 -23q50 0 71.5 52.5t18.5 160.5h57q6 -317 -160 -317q-47 0 -83 22.5t-58.5 54t-43 63.5t-47.5 54.5t-61 22.5q-103 0 -96 -207h-57z
" />
    <glyph glyph-name="Umacron" unicode="&#x16a;" horiz-adv-x="1505" 
d="M760 -33q-135 0 -236.5 34.5t-178 111.5t-116 210t-39.5 320v647q0 119 -16 169t-74 85v6h359v-6q-57 -35 -72.5 -84.5t-15.5 -169.5v-651q0 -303 98 -438t313 -135q216 0 320 135.5t104 437.5v651q0 119 -16 169t-74 85v6h289v-6q-58 -35 -74 -85t-16 -169v-647
q0 -354 -139 -515t-416 -161zM446 1782v76h684v-76h-684z" />
    <glyph glyph-name="umacron" unicode="&#x16b;" horiz-adv-x="1185" 
d="M469 -33q-311 0 -311 369v399q0 115 -15 168t-67 86v8h321v-8q-48 -33 -60.5 -85t-12.5 -169v-385q0 -145 52.5 -211.5t162.5 -66.5q120 0 200.5 85t110.5 218v360q0 115 -14 168t-64 86v8h326v-8q-52 -33 -67 -86t-15 -168v-475q0 -119 14.5 -169t67.5 -85v-6h-275
q17 35 22 87t5 163q-47 -121 -145.5 -202t-235.5 -81zM279 1247v78h626v-78h-626z" />
    <glyph glyph-name="Ubreve" unicode="&#x16c;" horiz-adv-x="1505" 
d="M760 -33q-135 0 -236.5 34.5t-178 111.5t-116 210t-39.5 320v647q0 119 -16 169t-74 85v6h359v-6q-57 -35 -72.5 -84.5t-15.5 -169.5v-651q0 -303 98 -438t313 -135q216 0 320 135.5t104 437.5v651q0 119 -16 169t-74 85v6h289v-6q-58 -35 -74 -85t-16 -169v-647
q0 -354 -139 -515t-416 -161zM489 1974h78q0 -91 55.5 -143.5t165.5 -52.5q112 0 167 52t55 144h77q0 -141 -79.5 -217t-219.5 -76t-219.5 76t-79.5 217z" />
    <glyph glyph-name="ubreve" unicode="&#x16d;" horiz-adv-x="1185" 
d="M469 -33q-311 0 -311 369v399q0 115 -15 168t-67 86v8h321v-8q-48 -33 -60.5 -85t-12.5 -169v-385q0 -145 52.5 -211.5t162.5 -66.5q120 0 200.5 85t110.5 218v360q0 115 -14 168t-64 86v8h326v-8q-52 -33 -67 -86t-15 -168v-475q0 -119 14.5 -169t67.5 -85v-6h-275
q17 35 22 87t5 163q-47 -121 -145.5 -202t-235.5 -81zM324 1509h73q0 -110 49 -170.5t148 -60.5q199 0 199 231h73q0 -153 -72.5 -237t-199.5 -84t-198.5 84t-71.5 237z" />
    <glyph glyph-name="Uring" unicode="&#x16e;" horiz-adv-x="1505" 
d="M760 -33q-135 0 -236.5 34.5t-178 111.5t-116 210t-39.5 320v647q0 119 -16 169t-74 85v6h359v-6q-57 -35 -72.5 -84.5t-15.5 -169.5v-651q0 -303 98 -438t313 -135q216 0 320 135.5t104 437.5v651q0 119 -16 169t-74 85v6h289v-6q-58 -35 -74 -85t-16 -169v-647
q0 -354 -139 -515t-416 -161zM582 1853q0 84 56 135.5t148 51.5t149.5 -52t57.5 -135q0 -84 -57 -135t-150 -51q-92 0 -148 50.5t-56 135.5zM643 1853q0 -61 40 -99t103 -38q65 0 104.5 38t39.5 99q0 60 -40 98t-104 38q-63 0 -103 -38t-40 -98z" />
    <glyph glyph-name="uring" unicode="&#x16f;" horiz-adv-x="1185" 
d="M469 -33q-311 0 -311 369v399q0 115 -15 168t-67 86v8h321v-8q-48 -33 -60.5 -85t-12.5 -169v-385q0 -145 52.5 -211.5t162.5 -66.5q120 0 200.5 85t110.5 218v360q0 115 -14 168t-64 86v8h326v-8q-52 -33 -67 -86t-15 -168v-475q0 -119 14.5 -169t67.5 -85v-6h-275
q17 35 22 87t5 163q-47 -121 -145.5 -202t-235.5 -81zM385 1382q0 88 57.5 142.5t149.5 54.5q94 0 152.5 -54.5t58.5 -142.5t-58.5 -142t-152.5 -54q-92 0 -149.5 54t-57.5 142zM449 1382q0 -64 40 -104.5t103 -40.5q64 0 103.5 40t39.5 105t-39.5 104.5t-103.5 39.5
q-63 0 -103 -40t-40 -104z" />
    <glyph glyph-name="Uhungarumlaut" unicode="&#x170;" horiz-adv-x="1505" 
d="M760 -33q-135 0 -236.5 34.5t-178 111.5t-116 210t-39.5 320v647q0 119 -16 169t-74 85v6h359v-6q-57 -35 -72.5 -84.5t-15.5 -169.5v-651q0 -303 98 -438t313 -135q216 0 320 135.5t104 437.5v651q0 119 -16 169t-74 85v6h289v-6q-58 -35 -74 -85t-16 -169v-647
q0 -354 -139 -515t-416 -161zM627 1692l178 280h137l-254 -280h-61zM891 1692l194 280h140l-273 -280h-61z" />
    <glyph glyph-name="uhungarumlaut" unicode="&#x171;" horiz-adv-x="1185" 
d="M469 -33q-311 0 -311 369v399q0 115 -15 168t-67 86v8h321v-8q-48 -33 -60.5 -85t-12.5 -169v-385q0 -145 52.5 -211.5t162.5 -66.5q120 0 200.5 85t110.5 218v360q0 115 -14 168t-64 86v8h326v-8q-52 -33 -67 -86t-15 -168v-475q0 -119 14.5 -169t67.5 -85v-6h-275
q17 35 22 87t5 163q-47 -121 -145.5 -202t-235.5 -81zM428 1188l178 360h137l-256 -360h-59zM698 1188l185 360h139l-262 -360h-62z" />
    <glyph glyph-name="Uogonek" unicode="&#x172;" horiz-adv-x="1505" 
d="M760 -33q-135 0 -236.5 34.5t-178 111.5t-116 210t-39.5 320v647q0 119 -16 169t-74 85v6h359v-6q-57 -35 -72.5 -84.5t-15.5 -169.5v-651q0 -303 98 -438t313 -135q216 0 320 135.5t104 437.5v651q0 119 -16 169t-74 85v6h289v-6q-58 -35 -74 -85t-16 -169v-647
q0 -275 -84 -432.5t-250 -212.5q-147 -112 -147 -258q0 -60 30.5 -92.5t81.5 -32.5q80 0 129 82v-62q-59 -96 -168 -96q-75 0 -126.5 46.5t-51.5 133.5q0 143 143 254q-56 -6 -112 -6z" />
    <glyph glyph-name="uogonek" unicode="&#x173;" horiz-adv-x="1185" 
d="M469 -33q-311 0 -311 369v399q0 115 -15 168t-67 86v8h321v-8q-48 -33 -60.5 -85t-12.5 -169v-385q0 -145 52.5 -211.5t162.5 -66.5q120 0 200.5 85t110.5 218v360q0 115 -14 168t-64 86v8h326v-8q-52 -33 -67 -86t-15 -168v-475q0 -119 14.5 -169t67.5 -85v-6h-144
q-176 -124 -176 -281q0 -60 31 -92.5t82 -32.5q80 0 129 82v-61q-59 -96 -168 -96q-75 0 -126.5 46.5t-51.5 133.5q0 174 211 301h-62q17 35 22 87t5 163q-47 -121 -145.5 -202t-235.5 -81z" />
    <glyph glyph-name="Wcircumflex" unicode="&#x174;" horiz-adv-x="2031" 
d="M127 1348q-25 81 -52 125.5t-69 70.5v6h356v-6q-51 -23 -57.5 -70t19.5 -122l327 -1090l348 1217h109l356 -1221l328 1094q25 79 18.5 124.5t-51.5 67.5v6h266v-6q-39 -21 -67 -66t-53 -126l-381 -1243q-17 -55 -17 -109h-129l-358 1217l-324 -1111q-19 -63 -16 -106
h-127zM752 1692l262 282h84l262 -282h-92l-211 190l-213 -190h-92z" />
    <glyph glyph-name="wcircumflex" unicode="&#x175;" horiz-adv-x="1533" 
d="M145 805q-29 84 -53.5 125t-64.5 59v8h309v-8q-44 -17 -47.5 -58.5t24.5 -115.5l207 -620l234 757h98l240 -757l202 618q29 74 26 117t-46 59v8h233v-8q-37 -22 -63.5 -62t-50.5 -114l-246 -711q-23 -72 -27 -102h-112l-240 762l-199 -647q-21 -61 -28 -115h-115z
M518 1188l244 332h80l243 -332h-84l-198 227l-201 -227h-84z" />
    <glyph glyph-name="Ycircumflex" unicode="&#x176;" horiz-adv-x="1267" 
d="M162 1395q-36 63 -65.5 95t-76.5 54v6h355v-6q-42 -20 -43 -62t28 -93l324 -586l311 586q14 28 21.5 49.5t9 42.5t-9 36.5t-33.5 26.5v6h264v-6q-79 -44 -137 -153l-373 -682v-449q0 -114 16.5 -166.5t73.5 -87.5v-6h-360v6q57 35 73.5 87.5t16.5 166.5v447zM367 1692
l262 282h84l262 -282h-92l-211 190l-213 -190h-92z" />
    <glyph glyph-name="ycircumflex" unicode="&#x177;" horiz-adv-x="1030" 
d="M135 -498q-79 0 -125 27v137q57 -33 140 -33q109 0 190 83.5t162 283.5h-47l-291 758q-42 105 -68.5 154t-68.5 77v8h299v-8q-27 -18 -32.5 -49.5t4 -69.5t34.5 -108l223 -619l221 619q25 66 34 106t3 71.5t-33 49.5v8h234v-8q-67 -44 -137 -227l-291 -762
q-104 -270 -205.5 -384t-245.5 -114zM264 1188l244 332h80l243 -332h-83l-199 227l-201 -227h-84z" />
    <glyph glyph-name="Ydieresis" unicode="&#x178;" horiz-adv-x="1267" 
d="M162 1395q-36 63 -65.5 95t-76.5 54v6h355v-6q-42 -20 -43 -62t28 -93l324 -586l311 586q14 28 21.5 49.5t9 42.5t-9 36.5t-33.5 26.5v6h264v-6q-79 -44 -137 -153l-373 -682v-449q0 -114 16.5 -166.5t73.5 -87.5v-6h-360v6q57 35 73.5 87.5t16.5 166.5v447zM414 1729
v200h147v-200h-147zM778 1729v200h148v-200h-148z" />
    <glyph glyph-name="Zacute" unicode="&#x179;" horiz-adv-x="1181" 
d="M49 0v80l862 1386h-354q-116 0 -226.5 -16t-281.5 -59v159h1069v-75l-864 -1391h326q230 0 563 82v-166h-1094zM557 1692l193 282h168l-289 -282h-72z" />
    <glyph glyph-name="zacute" unicode="&#x17a;" horiz-adv-x="935" 
d="M61 0v61l619 859h-238q-149 0 -381 -54v131h803v-63l-616 -858h256q183 0 373 61v-137h-816zM432 1188l209 360h152l-306 -360h-55z" />
    <glyph glyph-name="Zdotaccent" unicode="&#x17b;" horiz-adv-x="1181" 
d="M49 0v80l862 1386h-354q-116 0 -226.5 -16t-281.5 -59v159h1069v-75l-864 -1391h326q230 0 563 82v-166h-1094zM518 1729v200h150v-200h-150z" />
    <glyph glyph-name="zdotaccent" unicode="&#x17c;" horiz-adv-x="935" 
d="M61 0v61l619 859h-238q-149 0 -381 -54v131h803v-63l-616 -858h256q183 0 373 61v-137h-816zM385 1257v201h160v-201h-160z" />
    <glyph glyph-name="Zcaron" unicode="&#x17d;" horiz-adv-x="1181" 
d="M49 0v80l862 1386h-354q-116 0 -226.5 -16t-281.5 -59v159h1069v-75l-864 -1391h326q230 0 563 82v-166h-1094zM281 1974h92l223 -190l223 190h92l-274 -282h-84z" />
    <glyph glyph-name="zcaron" unicode="&#x17e;" horiz-adv-x="935" 
d="M61 0v61l619 859h-238q-149 0 -381 -54v131h803v-63l-616 -858h256q183 0 373 61v-137h-816zM170 1540h84l213 -248l213 248h82l-254 -352h-84z" />
    <glyph glyph-name="uni018F" unicode="&#x18f;" horiz-adv-x="1622" 
d="M791 -33q-161 0 -295 53t-222.5 144t-137 211t-50.5 256h1257q7 72 7 127q0 119 -22.5 223.5t-69.5 191.5t-114.5 149.5t-162 97t-207.5 34.5q-120 0 -223 -39.5t-174.5 -108.5t-119.5 -155.5t-69 -185.5h-102q25 128 85.5 237t150 190.5t214 128t269.5 46.5
q218 0 384.5 -99.5t256.5 -280.5t90 -417q0 -365 -204 -584t-541 -219zM276 549q16 -215 153 -353.5t366 -138.5q214 0 353 131.5t183 360.5h-1055z" />
    <glyph glyph-name="florin" unicode="&#x192;" horiz-adv-x="1345" 
d="M61 -252q92 0 160.5 24t114 65.5t77 112.5t49.5 150.5t32 192.5l63 483h-496v58h504l37 288q28 216 134.5 329.5t285.5 113.5q165 0 256 -109l-70 -115q-31 70 -72 105t-114 35q-118 0 -184 -90t-90 -269l-37 -288h565v-58h-574l-63 -493q-15 -116 -41 -206.5t-70.5 -170
t-107 -132t-153.5 -82.5t-206 -30v86z" />
    <glyph glyph-name="Gcaron" unicode="&#x1e6;" horiz-adv-x="1775" 
d="M842 -31q-142 0 -264.5 40.5t-212 113.5t-153 172t-95 218t-31.5 249q0 240 103 425.5t289 286.5t425 101q272 0 465.5 -131.5t251.5 -362.5h-178q-51 192 -193.5 299t-349.5 107q-142 0 -260 -53.5t-197.5 -147.5t-123.5 -223t-44 -279q0 -144 39 -268.5t113.5 -220.5
t193.5 -151.5t269 -55.5q257 0 413.5 163.5t184.5 446.5h-748l-2 84h910v-790h-80l-62 463q-63 -225 -236 -355.5t-427 -130.5zM590 1970h92l223 -190l223 190h93l-275 -282h-84z" />
    <glyph glyph-name="gcaron" unicode="&#x1e7;" horiz-adv-x="1214" 
d="M485 -516q-77 0 -140.5 11.5t-115 35t-80 64.5t-28.5 96q0 146 235 221h-24q-115 0 -183.5 48t-68.5 136q0 149 223 244q-139 110 -139 295q0 178 124.5 282.5t313.5 104.5q204 0 328 -115q12 114 86 187.5t180 74.5v-141q-96 0 -154.5 -44.5t-68.5 -125.5
q69 -90 69 -223q0 -180 -124 -283.5t-314 -103.5q-138 0 -246 57q-151 -68 -151 -166q0 -51 38 -75.5t128 -24.5q85 1 294 38.5t296 37.5q113 0 178 -48t65 -141q0 -95 -64 -179.5t-167.5 -141t-232 -89t-257.5 -32.5zM248 -287q0 -149 252 -149q134 0 262.5 39.5
t213.5 112.5t85 159q0 57 -35 82t-117 25q-147 0 -399 -68q-134 -36 -198 -84t-64 -117zM303 1540h84l213 -248l213 248h82l-254 -352h-84zM328 635q0 -143 74 -227t200 -84q129 0 203 84t74 227q0 141 -75 225t-202 84q-126 0 -200 -84t-74 -225z" />
    <glyph glyph-name="AEacute" unicode="&#x1fc;" horiz-adv-x="1884" 
d="M-82 6q56 38 102 98t101 162l710 1284h965v-153q-308 69 -483 69h-211v-614h151q34 0 439 10v-100q-270 10 -439 10h-151v-688h252q186 0 479 78v-162h-1002v6q57 35 74 88t17 166v258h-539l-137 -254q-56 -103 -66.5 -160t21.5 -98v-6h-283v6zM428 604h494v686
q0 113 -15 162h-22zM940 1692l193 282h167l-288 -282h-72z" />
    <glyph glyph-name="aeacute" unicode="&#x1fd;" horiz-adv-x="1783" 
d="M1251 -35q-170 0 -288.5 102t-155.5 281q-17 -78 -53.5 -144.5t-90 -118t-129 -81.5t-163.5 -31q-134 0 -215.5 67.5t-81.5 192.5q0 67 24.5 116.5t78 87t118.5 63.5t166 55q47 13 68 19t57 17t52.5 19t41 21t35.5 26t23.5 30.5t17 38.5t4.5 46q2 86 -53 134t-160 48
q-56 0 -105 -16.5t-90 -49.5t-65 -89t-25 -129h-153q5 88 44 158t101 113.5t138 66.5t159 24q261 0 334 -198q63 94 159 145t211 51q202 0 321 -125.5t122 -329.5h-760q-2 -18 -2 -57q0 -127 36.5 -225.5t116.5 -159.5t195 -61q139 0 223.5 84t116.5 221h84
q-34 -182 -151.5 -297t-305.5 -115zM231 252q0 -85 52.5 -128.5t132.5 -43.5q154 0 250 122t96 316v111q-21 -48 -79 -76.5t-181 -67.5q-57 -18 -93.5 -32t-73.5 -34t-57.5 -42t-33.5 -53.5t-13 -71.5zM862 1188l209 360h152l-305 -360h-56zM946 647h592q-11 135 -84.5 221
t-198.5 86q-121 0 -201.5 -83t-107.5 -224z" />
    <glyph glyph-name="Oslashacute" unicode="&#x1fe;" horiz-adv-x="1806" 
d="M510 -344l-74 22l137 349q-227 87 -357 284t-130 463q0 176 60 325t167 254t259 163.5t331 58.5q147 0 271 -37l135 340l75 -20l-137 -347q221 -89 347 -283.5t126 -455.5q0 -176 -60 -325.5t-167 -254.5t-259 -164t-331 -59q-124 0 -256 33zM276 772q0 -223 88.5 -393.5
t247.5 -255.5l525 1321q-104 43 -234 43q-189 0 -332.5 -92t-219 -254t-75.5 -369zM684 92q98 -37 219 -37q189 0 332.5 92.5t219 255t75.5 371.5q0 218 -84.5 385t-237.5 252zM866 1694l193 282h168l-289 -282h-72z" />
    <glyph glyph-name="oslashacute" unicode="&#x1ff;" horiz-adv-x="1177" 
d="M336 -248l-64 23l93 239q-133 60 -208 188.5t-75 299.5q0 236 139 383t369 147q82 0 162 -22l90 235l61 -20l-92 -238q135 -59 211 -186.5t76 -298.5q0 -238 -139 -385.5t-369 -147.5q-82 0 -162 23zM250 502q0 -282 151 -396l318 824q-59 24 -129 24q-160 0 -250 -120
t-90 -332zM459 72q61 -25 131 -25q158 0 249 121.5t91 333.5q0 137 -40 238t-114 157zM555 1190l209 360h151l-305 -360h-55z" />
    <glyph glyph-name="uni0218" unicode="&#x218;" horiz-adv-x="1212" 
d="M641 -33q-246 0 -405 139.5t-183 391.5h174q20 -202 125 -324.5t291 -122.5q147 0 234.5 76t87.5 207q0 38 -9 71.5t-22 60.5t-43 56.5t-55.5 51t-77 53t-91 54t-112.5 62.5q-72 38 -119.5 65.5t-101.5 64t-87 70t-62.5 74.5t-42.5 88t-13 101q0 170 126.5 269.5
t330.5 99.5q217 0 359.5 -117.5t174.5 -324.5h-170q-21 163 -114 260.5t-250 97.5q-140 1 -217.5 -65.5t-77.5 -178.5q0 -42 10 -76.5t35 -67t51.5 -57.5t78 -57t93.5 -55.5t117 -63.5q81 -44 129.5 -72t107.5 -67.5t92.5 -74t64.5 -79t44.5 -95t13.5 -109.5
q0 -188 -134.5 -297t-352.5 -109zM449 -494l129 361h149l-238 -379z" />
    <glyph glyph-name="uni0219" unicode="&#x219;" horiz-adv-x="972" 
d="M522 -35q-191 0 -313 99.5t-141 269.5h153q14 -138 91.5 -215.5t211.5 -77.5q100 0 163 45t63 123q0 54 -41.5 97.5t-88.5 67.5t-163 74q-7 3 -11 5q-48 20 -76 32.5t-68 32.5t-62.5 36.5t-49.5 40.5t-40.5 48t-23 56t-9.5 69q0 124 98.5 194t259.5 70q173 0 281 -82.5
t133 -230.5h-156q-12 109 -78.5 173t-181.5 64q-97 0 -154 -40.5t-57 -112.5q0 -40 17 -71t58 -59t84.5 -49t121.5 -53q74 -30 120.5 -51t96 -51t76 -60t44 -71.5t17.5 -91.5q0 -133 -105 -207t-270 -74zM315 -489l129 360h150l-238 -379z" />
    <glyph glyph-name="uni021A" unicode="&#x21a;" horiz-adv-x="1232" 
d="M35 1397v153h1163v-153q-328 73 -471 73h-20v-1210q0 -114 16.5 -166.5t73.5 -87.5v-6h-361v6q57 35 73.5 87.5t16.5 166.5v1210h-18q-145 0 -473 -73zM410 -481l129 360h149l-237 -379z" />
    <glyph glyph-name="uni021B" unicode="&#x21b;" horiz-adv-x="792" 
d="M496 -18q-273 0 -273 329v607h-215v79h215v293l158 127h6v-420h338v-79h-338v-605q0 -126 43.5 -175.5t122.5 -49.5q138 0 213 154l20 -62q-40 -94 -116 -146t-174 -52zM285 -483l129 360h149l-237 -379z" />
    <glyph glyph-name="uni0237" unicode="&#x237;" horiz-adv-x="491" 
d="M-31 -432q115 10 161 81t46 214v876q0 119 -14.5 169t-67.5 85v6l129 2l117 7v-1117q0 -180 -92 -282.5t-279 -108.5v68z" />
    <glyph glyph-name="uni0259" unicode="&#x259;" horiz-adv-x="1122" 
d="M553 1032q218 0 352.5 -143.5t134.5 -386.5q0 -241 -139.5 -388t-353.5 -147q-207 0 -333.5 126t-129.5 329h793q2 18 2 55q0 127 -38 226.5t-120 161t-199 61.5q-144 0 -232.5 -84t-121.5 -221h-90q34 182 156.5 296.5t318.5 114.5zM248 348q11 -133 88.5 -218
t208.5 -85q126 0 210 81.5t111 221.5h-618z" />
    <glyph glyph-name="circumflex" unicode="&#x2c6;" horiz-adv-x="772" 
d="M102 1188l244 332h80l244 -332h-84l-199 227l-201 -227h-84z" />
    <glyph glyph-name="caron" unicode="&#x2c7;" horiz-adv-x="796" 
d="M356 1188l-254 352h84l213 -248l213 248h82l-254 -352h-84z" />
    <glyph glyph-name="breve" unicode="&#x2d8;" horiz-adv-x="747" 
d="M373 1188q-127 0 -199 84t-72 237h74q0 -110 49 -170.5t148 -60.5q198 0 198 231h74q0 -153 -72.5 -237t-199.5 -84z" />
    <glyph glyph-name="dotaccent" unicode="&#x2d9;" horiz-adv-x="382" 
d="M104 1257v218h177v-218h-177z" />
    <glyph glyph-name="ring" unicode="&#x2da;" horiz-adv-x="622" 
d="M309 1186q-92 0 -149.5 54t-57.5 142t57.5 142.5t149.5 54.5q94 0 152.5 -54.5t58.5 -142.5t-58.5 -142t-152.5 -54zM166 1382q0 -64 40 -104.5t103 -40.5q64 0 104 40t40 105q0 64 -39.5 104t-104.5 40q-63 0 -103 -40t-40 -104z" />
    <glyph glyph-name="ogonek" unicode="&#x2db;" horiz-adv-x="550" 
d="M281 -481q-75 0 -127 46.5t-52 133.5q0 59 24 112.5t65 94t81.5 68.5t85.5 51l25 -25q-176 -124 -176 -281q0 -60 30.5 -92.5t81.5 -32.5q81 0 130 82v-61q-59 -96 -168 -96z" />
    <glyph glyph-name="tilde" unicode="&#x2dc;" horiz-adv-x="813" 
d="M102 1196q-3 154 42 235.5t126 81.5q45 0 79.5 -23t56 -55.5t42 -65.5t49 -56t64.5 -23q50 0 71.5 52.5t18.5 160.5h58q6 -317 -160 -317q-47 0 -83 22.5t-58.5 54t-43 63.5t-47.5 54.5t-61 22.5q-103 0 -96 -207h-58z" />
    <glyph glyph-name="hungarumlaut" unicode="&#x2dd;" horiz-adv-x="796" 
d="M373 1188l184 360h139l-262 -360h-61zM102 1188l179 360h137l-256 -360h-60z" />
    <glyph glyph-name="gravecomb" unicode="&#x300;" 
d="M410 1188l-306 360h152l207 -360h-53z" />
    <glyph glyph-name="acutecomb" unicode="&#x301;" 
d="M102 1188l209 360h152l-305 -360h-56z" />
    <glyph glyph-name="uni0302" unicode="&#x302;" 
d="M100 1188l244 332h80l244 -332h-84l-199 227l-201 -227h-84z" />
    <glyph glyph-name="tildecomb" unicode="&#x303;" 
d="M113 1196q-3 154 42 235.5t126 81.5q45 0 79 -23t56 -55.5t42.5 -65.5t48.5 -56t64 -23q97 0 91 213h57q6 -317 -160 -317q-47 0 -83 22.5t-58.5 54t-43 63.5t-47.5 54.5t-61 22.5q-103 0 -96 -207h-57z" />
    <glyph glyph-name="uni0304" unicode="&#x304;" 
d="M102 1247v78h627v-78h-627z" />
    <glyph glyph-name="uni0306" unicode="&#x306;" 
d="M387 1188q-127 0 -198.5 84t-71.5 237h73q0 -110 49 -170.5t148 -60.5q199 0 199 231h73q0 -153 -72.5 -237t-199.5 -84z" />
    <glyph glyph-name="uni0307" unicode="&#x307;" 
d="M102 1257v218h177v-218h-177z" />
    <glyph glyph-name="uni0308" unicode="&#x308;" 
d="M424 1253v207h154v-207h-154zM100 1253v207h154v-207h-154z" />
    <glyph glyph-name="uni030A" unicode="&#x30a;" 
d="M309 1186q-92 0 -149.5 54t-57.5 142t57.5 142.5t149.5 54.5q94 0 152.5 -54.5t58.5 -142.5t-58.5 -142t-152.5 -54zM166 1382q0 -64 40 -104.5t103 -40.5q64 0 104 40t40 105q0 64 -39.5 104t-104.5 40q-63 0 -103 -40t-40 -104z" />
    <glyph glyph-name="uni030B" unicode="&#x30b;" 
d="M365 1188l184 360h139l-262 -360h-61zM94 1188l178 360h138l-256 -360h-60z" />
    <glyph glyph-name="uni030C" unicode="&#x30c;" 
d="M367 1188l-254 352h84l213 -248l213 248h82l-254 -352h-84z" />
    <glyph glyph-name="uni0312" unicode="&#x312;" 
d="M102 1190l183 364h47l-86 -364h-144z" />
    <glyph glyph-name="uni0326" unicode="&#x326;" 
d="M121 -502l-41 19l129 360h149z" />
    <glyph glyph-name="uni0327" unicode="&#x327;" 
d="M391 -498q-86 0 -154.5 32t-107.5 93l43 43q63 -104 201 -104q65 0 106 27.5t41 82.5q0 52 -38 80.5t-103 28.5q-56 0 -96 -18l-35 34l151 199h76l-113 -145q30 6 62 6q92 0 149.5 -47.5t57.5 -126.5q0 -62 -37.5 -105.5t-90 -61.5t-112.5 -18z" />
    <glyph glyph-name="uni0328" unicode="&#x328;" 
d="M348 -481q-75 0 -126.5 46.5t-51.5 133.5q0 59 24 112.5t65 94t81.5 68.5t85.5 51l25 -25q-177 -125 -177 -281q0 -60 31 -92.5t82 -32.5q80 0 129 82v-61q-59 -96 -168 -96z" />
    <glyph glyph-name="uni0394" unicode="&#x394;" horiz-adv-x="1269" 
d="M6 0v61l549 1489h150l559 -1489v-61h-1258zM123 86h942l-467 1315z" />
    <glyph glyph-name="uni03A9" unicode="&#x3a9;" horiz-adv-x="1683" 
d="M98 0v135h539v62q-262 64 -423 243.5t-161 440.5q0 204 100 362.5t279.5 245t409.5 86.5t409.5 -86.5t279 -245t99.5 -362.5q0 -132 -43.5 -246.5t-122 -200t-184.5 -146t-233 -91.5v-62h538v-135h-624v244q227 64 354 218.5t127 401.5q0 178 -75.5 318.5t-212.5 219.5
t-312 79t-312 -79t-212.5 -219.5t-75.5 -318.5q0 -246 127.5 -401t353.5 -219v-244h-625z" />
    <glyph glyph-name="uni03BC" unicode="&#x3bc;" horiz-adv-x="1193" 
d="M276 -412q-126 147 -126 392v755q0 115 -14.5 168t-65.5 86v8h319v-8q-48 -33 -62 -86t-14 -168v-385q0 -146 53.5 -213t163.5 -67q121 0 202.5 93.5t109.5 235.5v336q0 115 -14 168t-64 86v8h321v-8q-51 -33 -65 -85.5t-14 -168.5v-489q0 -174 102 -174q44 0 84 32
l4 -57q-71 -61 -162 -61q-87 0 -138.5 62t-51.5 181v41q-42 -129 -134 -216t-223 -87q-119 0 -190 74v-94q0 -122 15 -205.5t50 -153.5h-86z" />
    <glyph glyph-name="pi" unicode="&#x3c0;" horiz-adv-x="1349" 
d="M1079 -14q-110 0 -174.5 71t-64.5 244v617h-385l-21 -918h-158l19 918h-287v79h1278v-79h-287v-603q0 -126 38 -176.5t106 -50.5q111 0 178 131l25 -51q-41 -85 -109.5 -133.5t-157.5 -48.5z" />
    <glyph glyph-name="Wgrave" unicode="&#x1e80;" horiz-adv-x="2031" 
d="M127 1348q-25 81 -52 125.5t-69 70.5v6h356v-6q-51 -23 -57.5 -70t19.5 -122l327 -1090l348 1217h109l356 -1221l328 1094q25 79 18.5 124.5t-51.5 67.5v6h266v-6q-39 -21 -67 -66t-53 -126l-381 -1243q-17 -55 -17 -109h-129l-358 1217l-324 -1111q-19 -63 -16 -106
h-127zM729 1974h168l193 -282h-72z" />
    <glyph glyph-name="wgrave" unicode="&#x1e81;" horiz-adv-x="1533" 
d="M145 805q-29 84 -53.5 125t-64.5 59v8h309v-8q-44 -17 -47.5 -58.5t24.5 -115.5l207 -620l234 757h98l240 -757l202 618q29 74 26 117t-46 59v8h233v-8q-37 -22 -63.5 -62t-50.5 -114l-246 -711q-23 -72 -27 -102h-112l-240 762l-199 -647q-21 -61 -28 -115h-115z
M471 1548h152l206 -360h-53z" />
    <glyph glyph-name="Wacute" unicode="&#x1e82;" horiz-adv-x="2031" 
d="M127 1348q-25 81 -52 125.5t-69 70.5v6h356v-6q-51 -23 -57.5 -70t19.5 -122l327 -1090l348 1217h109l356 -1221l328 1094q25 79 18.5 124.5t-51.5 67.5v6h266v-6q-39 -21 -67 -66t-53 -126l-381 -1243q-17 -55 -17 -109h-129l-358 1217l-324 -1111q-19 -63 -16 -106
h-127zM1018 1692l192 282h168l-288 -282h-72z" />
    <glyph glyph-name="wacute" unicode="&#x1e83;" horiz-adv-x="1533" 
d="M145 805q-29 84 -53.5 125t-64.5 59v8h309v-8q-44 -17 -47.5 -58.5t24.5 -115.5l207 -620l234 757h98l240 -757l202 618q29 74 26 117t-46 59v8h233v-8q-37 -22 -63.5 -62t-50.5 -114l-246 -711q-23 -72 -27 -102h-112l-240 762l-199 -647q-21 -61 -28 -115h-115z
M768 1188l209 360h151l-305 -360h-55z" />
    <glyph glyph-name="Wdieresis" unicode="&#x1e84;" horiz-adv-x="2031" 
d="M127 1348q-25 81 -52 125.5t-69 70.5v6h356v-6q-51 -23 -57.5 -70t19.5 -122l327 -1090l348 1217h109l356 -1221l328 1094q25 79 18.5 124.5t-51.5 67.5v6h266v-6q-39 -21 -67 -66t-53 -126l-381 -1243q-17 -55 -17 -109h-129l-358 1217l-324 -1111q-19 -63 -16 -106
h-127zM799 1729v200h147v-200h-147zM1163 1729v200h148v-200h-148z" />
    <glyph glyph-name="wdieresis" unicode="&#x1e85;" horiz-adv-x="1533" 
d="M145 805q-29 84 -53.5 125t-64.5 59v8h309v-8q-44 -17 -47.5 -58.5t24.5 -115.5l207 -620l234 757h98l240 -757l202 618q29 74 26 117t-46 59v8h233v-8q-37 -22 -63.5 -62t-50.5 -114l-246 -711q-23 -72 -27 -102h-112l-240 762l-199 -647q-21 -61 -28 -115h-115z
M561 1253v207h154v-207h-154zM885 1253v207h153v-207h-153z" />
    <glyph glyph-name="uni1E9E" unicode="&#x1e9e;" horiz-adv-x="1466" 
d="M930 -29q-226 0 -355 140l5 147q48 -84 134.5 -137t203.5 -53q144 0 225.5 77.5t81.5 214.5q0 113 -51 189.5t-183 169.5q-60 43 -97 74t-77 77t-59 101t-19 121q0 134 81 231t222 139h-188q-242 0 -364.5 -135.5t-122.5 -435.5v-631q0 -115 15 -167t69 -87v-6h-351v6
q57 35 73.5 87.5t16.5 166.5v612q0 150 30 265.5t84 193t134 127t175 71t212 21.5h514l-2 -112q-40 12 -98 12q-147 0 -250.5 -85t-103.5 -226q0 -52 14 -93.5t48.5 -80t69.5 -67t99 -73.5q68 -48 112.5 -90t81.5 -94.5t54.5 -115.5t17.5 -140q0 -188 -121.5 -301
t-330.5 -113z" />
    <glyph glyph-name="uni1EBC" unicode="&#x1ebc;" horiz-adv-x="1179" 
d="M125 0v6q57 35 73.5 87.5t16.5 166.5v1030q0 119 -16 169t-74 85v6h965v-153q-308 69 -484 69h-211v-614h152q33 0 438 10v-100q-270 10 -438 10h-152v-688h252q186 0 479 78v-162h-1001zM322 1704q0 135 44.5 204.5t127.5 69.5q44 0 77.5 -19.5t55 -47t41 -55t47 -47
t61.5 -19.5q52 0 71 40.5t21 135.5h64q0 -144 -42.5 -209t-123.5 -65q-45 0 -80.5 19.5t-57.5 47t-42 55t-47 47t-60 19.5q-52 0 -72 -45t-22 -131h-63z" />
    <glyph glyph-name="uni1EBD" unicode="&#x1ebd;" horiz-adv-x="1122" 
d="M569 -35q-218 0 -352.5 144t-134.5 387q0 241 139.5 387.5t353.5 146.5q207 0 333.5 -126t129.5 -329h-792q-2 -18 -2 -55q0 -127 37.5 -226.5t119.5 -160.5t199 -61q144 0 232.5 84t121.5 221h90q-34 -182 -156.5 -297t-318.5 -115zM256 649h618q-11 133 -88 218
t-208 85q-127 0 -211 -82t-111 -221zM260 1196q-3 154 42 235.5t126 81.5q45 0 79.5 -23t56 -55.5t42 -65.5t49 -56t64.5 -23q50 0 71.5 52.5t18.5 160.5h57q6 -317 -159 -317q-47 0 -83 22.5t-58.5 54t-43 63.5t-47.5 54.5t-61 22.5q-104 0 -97 -207h-57z" />
    <glyph glyph-name="Ygrave" unicode="&#x1ef2;" horiz-adv-x="1267" 
d="M162 1395q-36 63 -65.5 95t-76.5 54v6h355v-6q-42 -20 -43 -62t28 -93l324 -586l311 586q14 28 21.5 49.5t9 42.5t-9 36.5t-33.5 26.5v6h264v-6q-79 -44 -137 -153l-373 -682v-449q0 -114 16.5 -166.5t73.5 -87.5v-6h-360v6q57 35 73.5 87.5t16.5 166.5v447zM344 1974
h168l193 -282h-72z" />
    <glyph glyph-name="ygrave" unicode="&#x1ef3;" horiz-adv-x="1030" 
d="M135 -498q-79 0 -125 27v137q57 -33 140 -33q109 0 190 83.5t162 283.5h-47l-291 758q-42 105 -68.5 154t-68.5 77v8h299v-8q-27 -18 -32.5 -49.5t4 -69.5t34.5 -108l223 -619l221 619q25 66 34 106t3 71.5t-33 49.5v8h234v-8q-67 -44 -137 -227l-291 -762
q-104 -270 -205.5 -384t-245.5 -114zM217 1548h152l206 -360h-53z" />
    <glyph glyph-name="uni1EF8" unicode="&#x1ef8;" horiz-adv-x="1267" 
d="M162 1395q-36 63 -65.5 95t-76.5 54v6h355v-6q-42 -20 -43 -62t28 -93l324 -586l311 586q14 28 21.5 49.5t9 42.5t-9 36.5t-33.5 26.5v6h264v-6q-79 -44 -137 -153l-373 -682v-449q0 -114 16.5 -166.5t73.5 -87.5v-6h-360v6q57 35 73.5 87.5t16.5 166.5v447zM365 1704
q0 135 44.5 204.5t127.5 69.5q44 0 77.5 -19.5t55 -47t41 -55t47 -47t61.5 -19.5q52 0 71 40.5t21 135.5h64q0 -144 -42.5 -209t-123.5 -65q-45 0 -80.5 19.5t-57.5 47t-42 55t-47 47t-60 19.5q-52 0 -72 -45t-22 -131h-63z" />
    <glyph glyph-name="uni1EF9" unicode="&#x1ef9;" horiz-adv-x="1030" 
d="M135 -498q-79 0 -125 27v137q57 -33 140 -33q109 0 190 83.5t162 283.5h-47l-291 758q-42 105 -68.5 154t-68.5 77v8h299v-8q-27 -18 -32.5 -49.5t4 -69.5t34.5 -108l223 -619l221 619q25 66 34 106t3 71.5t-33 49.5v8h234v-8q-67 -44 -137 -227l-291 -762
q-104 -270 -205.5 -384t-245.5 -114zM242 1196q-3 154 42 235.5t126 81.5q45 0 79 -23t56 -55.5t42.5 -65.5t48.5 -56t64 -23q97 0 91 213h57q6 -317 -160 -317q-47 0 -83 22.5t-58.5 54t-43 63.5t-47.5 54.5t-61 22.5q-103 0 -96 -207h-57z" />
    <glyph glyph-name="endash" unicode="&#x2013;" horiz-adv-x="1869" 
d="M92 487v86h1686v-86h-1686z" />
    <glyph glyph-name="emdash" unicode="&#x2014;" horiz-adv-x="2527" 
d="M92 487v86h2343v-86h-2343z" />
    <glyph glyph-name="quoteleft" unicode="&#x2018;" horiz-adv-x="403" 
d="M342 1475q-175 -39 -186 -215h118v-222h-176v197q0 272 244 336v-96z" />
    <glyph glyph-name="quoteright" unicode="&#x2019;" horiz-adv-x="403" 
d="M61 1124q176 39 187 215h-119v222h176v-197q0 -272 -244 -336v96z" />
    <glyph glyph-name="quotesinglbase" unicode="&#x201a;" horiz-adv-x="415" 
d="M53 -211q178 36 189 211h-119v223h174v-194q0 -273 -244 -336v96z" />
    <glyph glyph-name="quotedblleft" unicode="&#x201c;" horiz-adv-x="710" 
d="M342 1475q-175 -39 -186 -215h118v-222h-176v197q0 272 244 336v-96zM406 1038v197q0 272 243 336v-96q-175 -39 -186 -215h119v-222h-176z" />
    <glyph glyph-name="quotedblright" unicode="&#x201d;" horiz-adv-x="710" 
d="M369 1124q175 39 186 215h-119v222h176v-197q0 -272 -243 -336v96zM61 1028v96q176 39 187 215h-119v222h176v-197q0 -272 -244 -336z" />
    <glyph glyph-name="quotedblbase" unicode="&#x201e;" horiz-adv-x="722" 
d="M360 -211q178 36 189 211h-119v223h174v-194q0 -273 -244 -336v96zM53 -307v96q178 36 189 211h-119v223h174v-194q0 -273 -244 -336z" />
    <glyph glyph-name="dagger" unicode="&#x2020;" horiz-adv-x="980" 
d="M420 82l22 956l-401 -18v127l399 -25l-20 475h143l-24 -475l401 25v-127l-403 18l22 -956h-139z" />
    <glyph glyph-name="daggerdbl" unicode="&#x2021;" horiz-adv-x="980" 
d="M420 82l22 475l-401 -27v127l399 -18l-16 203l16 198l-399 -18v129l401 -27l-22 473h143l-24 -471l401 25v-129l-399 18l16 -198l-16 -203l399 18v-127l-401 25l24 -473h-143z" />
    <glyph glyph-name="bullet" unicode="&#x2022;" horiz-adv-x="651" 
d="M205 412v241h241v-241h-241z" />
    <glyph glyph-name="ellipsis" unicode="&#x2026;" horiz-adv-x="1306" 
d="M1001 0v223h175v-223h-175zM131 0v223h174v-223h-174zM567 0v223h174v-223h-174z" />
    <glyph glyph-name="perthousand" unicode="&#x2030;" horiz-adv-x="2306" 
d="M133 0l1163 1550h105l-1165 -1550h-103zM72 1245q0 145 92.5 235.5t238.5 90.5q145 0 238.5 -91t93.5 -235q0 -141 -93.5 -232t-238.5 -91q-146 0 -238.5 91t-92.5 232zM197 1245q0 -121 54 -189.5t152 -68.5q97 0 152 69t55 189q0 122 -55 191t-152 69q-98 0 -152 -69
t-54 -191zM795 303q0 145 92.5 235.5t238.5 90.5q145 0 238.5 -91t93.5 -235q0 -141 -93.5 -232t-238.5 -91q-146 0 -238.5 91t-92.5 232zM920 303q0 -121 54 -189.5t152 -68.5q97 0 152 69t55 189q0 122 -55 191t-152 69q-98 0 -152 -69t-54 -191zM1571 303q0 144 92.5 235
t239.5 91q145 0 238 -91t93 -235q0 -141 -93 -232t-238 -91q-146 0 -239 91t-93 232zM1696 303q0 -121 54.5 -189.5t152.5 -68.5q97 0 151.5 69t54.5 189q0 122 -54.5 191t-151.5 69q-98 0 -152.5 -69t-54.5 -191z" />
    <glyph glyph-name="minute" unicode="&#x2032;" horiz-adv-x="385" 
d="M47 950l100 600h144l-182 -600h-62z" />
    <glyph glyph-name="second" unicode="&#x2033;" horiz-adv-x="704" 
d="M47 950l100 600h144l-182 -600h-62zM367 950l100 600h143l-182 -600h-61z" />
    <glyph glyph-name="guilsinglleft" unicode="&#x2039;" horiz-adv-x="659" 
d="M543 102l-459 359v65l459 361v-86l-332 -303v-6l332 -306v-84z" />
    <glyph glyph-name="guilsinglright" unicode="&#x203a;" horiz-adv-x="659" 
d="M117 102v84l332 306v6l-332 303v86l458 -361v-65z" />
    <glyph glyph-name="uni203D" unicode="&#x203d;" horiz-adv-x="1060" 
d="M434 0v223h176v-223h-176zM57 1092q13 225 156 353t367 128q197 0 313.5 -93t116.5 -243q0 -70 -21.5 -129.5t-57.5 -102.5t-79 -80t-89 -71.5t-85 -68.5t-69 -78.5t-40 -94.5l-6 -176h-86l-31 799h148l-19 -475q21 35 60.5 77.5t75 79.5t70 82t55 101.5t20.5 120.5
q0 117 -78.5 191.5t-220.5 74.5q-163 0 -256.5 -105t-101.5 -290h-142z" />
    <glyph glyph-name="fraction" unicode="&#x2044;" horiz-adv-x="342" 
d="M-463 0l1165 1550h103l-1165 -1550h-103z" />
    <glyph glyph-name="uni2070" unicode="&#x2070;" horiz-adv-x="968" 
d="M485 901q-192 0 -303.5 127.5t-111.5 341.5q0 215 111.5 344t303.5 129q191 0 302.5 -129t111.5 -344q0 -214 -111.5 -341.5t-302.5 -127.5zM205 1370q0 -191 73.5 -298t206.5 -107q132 0 206.5 107.5t74.5 297.5q0 193 -74.5 301.5t-206.5 108.5q-133 0 -206.5 -108
t-73.5 -302z" />
    <glyph glyph-name="uni2074" unicode="&#x2074;" horiz-adv-x="872" 
d="M449 926q39 26 52 61t13 98v54h-514v69l539 619h108v-596h193v-92h-193v-54q0 -62 13 -97t51 -62v-8h-262v8zM102 1231h412v477z" />
    <glyph glyph-name="uni2075" unicode="&#x2075;" horiz-adv-x="858" 
d="M436 899q-166 0 -266.5 82.5t-112.5 228.5h72q10 -116 85 -178.5t196 -62.5q119 0 185.5 66.5t66.5 176.5q0 116 -67.5 178t-176.5 62q-169 0 -258 -119l-60 25l78 467h576v-99h-527l-55 -329q52 62 131.5 93.5t169.5 31.5q149 0 237.5 -82t88.5 -226q0 -143 -99 -229
t-264 -86z" />
    <glyph glyph-name="uni2076" unicode="&#x2076;" horiz-adv-x="905" 
d="M469 901q-191 0 -294 123t-103 330q0 218 109 353.5t302 135.5q141 0 234 -78.5t112 -208.5h-73q-13 102 -82 161t-174 59q-140 0 -216 -108.5t-79 -295.5q0 -71 10 -115q20 109 107.5 175.5t203.5 66.5q129 0 217 -79t88 -210q0 -141 -101 -225t-261 -84zM223 1182
q52 -224 244 -224q103 0 168 64.5t65 177.5q0 111 -62 173.5t-157 62.5q-102 0 -176.5 -69t-81.5 -185z" />
    <glyph glyph-name="uni2077" unicode="&#x2077;" horiz-adv-x="737" 
d="M84 922l532 794h-587v109h698v-45l-494 -858h-149z" />
    <glyph glyph-name="uni2078" unicode="&#x2078;" horiz-adv-x="940" 
d="M471 901q-192 0 -296.5 69t-104.5 195q0 97 78 162.5t194 79.5q-110 15 -170.5 69t-60.5 142q0 104 94 164.5t264 60.5q171 0 265.5 -60.5t94.5 -164.5q0 -180 -229 -211q117 -14 193.5 -79t76.5 -163q0 -126 -104.5 -195t-294.5 -69zM205 1169q0 -100 67.5 -155.5
t198.5 -55.5q130 0 197 55.5t67 155.5q0 95 -70 151t-194 56q-126 0 -196 -56t-70 -151zM240 1614q0 -85 55.5 -133.5t175.5 -48.5q119 0 174 48.5t55 133.5q0 79 -58.5 126.5t-170.5 47.5q-113 0 -172 -47.5t-59 -126.5z" />
    <glyph glyph-name="uni2079" unicode="&#x2079;" horiz-adv-x="905" 
d="M436 1843q191 0 294.5 -122.5t103.5 -329.5q0 -218 -109 -353t-303 -135q-141 0 -234 78.5t-110 208.5h72q13 -103 82.5 -162t173.5 -57q140 0 215.5 107.5t78.5 295.5q3 53 -8 115q-22 -109 -110 -176.5t-203 -67.5q-129 0 -217 79.5t-88 211.5q0 141 100.5 224
t261.5 83zM207 1544q0 -111 61.5 -173t155.5 -62q103 0 177.5 69t80.5 185q-51 225 -244 225q-101 0 -166 -65.5t-65 -178.5z" />
    <glyph glyph-name="uni2080" unicode="&#x2080;" horiz-adv-x="968" 
d="M485 -225q-192 0 -303.5 127.5t-111.5 341.5q0 215 111.5 344t303.5 129q191 0 302.5 -129t111.5 -344q0 -214 -111.5 -341.5t-302.5 -127.5zM205 244q0 -191 73.5 -298.5t206.5 -107.5q132 0 206.5 107.5t74.5 298.5q0 193 -74.5 301t-206.5 108q-133 0 -206.5 -107.5
t-73.5 -301.5z" />
    <glyph glyph-name="uni2081" unicode="&#x2081;" horiz-adv-x="591" 
d="M178 -205v6q54 28 69 70t15 137v492q-29 -51 -90 -95t-143 -51v88q107 9 188 84t94 179h86v-697q0 -95 14.5 -137t65.5 -70v-6h-299z" />
    <glyph glyph-name="uni2082" unicode="&#x2082;" horiz-adv-x="860" 
d="M74 -184q0 64 24.5 120.5t70 101.5t91.5 77t109 67q69 38 112.5 67t81.5 64.5t55 74.5t17 85q0 84 -51.5 131t-141.5 47q-120 0 -185.5 -80t-63.5 -211h-125q6 152 108.5 254.5t278.5 102.5q141 0 227 -65.5t86 -184.5q0 -40 -11.5 -75t-37 -65t-50.5 -53t-69 -49
t-75.5 -42t-84.5 -42q-121 -62 -190 -118t-80 -125h631v-103h-727v21z" />
    <glyph glyph-name="uni2083" unicode="&#x2083;" horiz-adv-x="862" 
d="M436 -225q-169 0 -266.5 85.5t-108.5 235.5h76q9 -120 83.5 -185t193.5 -65q122 0 188 60t66 149q0 91 -66.5 141t-204.5 50h-78v53h78q115 0 178.5 53t63.5 135q0 72 -50 118t-153 46q-106 0 -172.5 -57t-75.5 -158h-120q13 130 117.5 205.5t265.5 75.5q151 0 236 -62.5
t85 -162.5q0 -87 -69 -144t-187 -72q137 -9 214 -66.5t77 -162.5q0 -114 -101.5 -193t-269.5 -79z" />
    <glyph glyph-name="uni2084" unicode="&#x2084;" horiz-adv-x="872" 
d="M449 -201q39 26 52 61.5t13 98.5v53h-514v70l539 618h108v-596h193v-92h-193v-53q0 -62 13 -98t51 -62v-8h-262v8zM102 104h412v478z" />
    <glyph glyph-name="uni2085" unicode="&#x2085;" horiz-adv-x="858" 
d="M436 -227q-166 0 -266.5 82.5t-112.5 228.5h72q10 -116 85 -179t196 -63q119 0 185.5 67t66.5 177q0 116 -67.5 178t-176.5 62q-169 0 -258 -119l-60 24l78 467h576v-98h-527l-55 -330q52 62 131.5 93.5t169.5 31.5q149 0 237.5 -82t88.5 -225t-99 -229t-264 -86z" />
    <glyph glyph-name="uni2086" unicode="&#x2086;" horiz-adv-x="905" 
d="M469 -225q-191 0 -294 122.5t-103 329.5q0 218 109 354t302 136q141 0 234 -78.5t112 -208.5h-73q-13 102 -82 160.5t-174 58.5q-140 0 -216 -108t-79 -295q0 -71 10 -115q20 109 107.5 175.5t203.5 66.5q129 0 217 -79t88 -210q0 -141 -101 -225t-261 -84zM223 55
q51 -223 244 -223q103 0 168 64.5t65 177.5q0 111 -62 173t-157 62q-102 0 -176.5 -69t-81.5 -185z" />
    <glyph glyph-name="uni2087" unicode="&#x2087;" horiz-adv-x="737" 
d="M84 -205l532 795h-587v108h698v-45l-494 -858h-149z" />
    <glyph glyph-name="uni2088" unicode="&#x2088;" horiz-adv-x="940" 
d="M471 -225q-192 0 -296.5 69t-104.5 195q0 97 78 162.5t194 79.5q-110 15 -170.5 69t-60.5 142q0 104 94 164.5t264 60.5q171 0 265.5 -60.5t94.5 -164.5q0 -180 -229 -211q117 -14 193.5 -79t76.5 -163q0 -126 -104.5 -195t-294.5 -69zM205 43q0 -100 67.5 -155.5
t198.5 -55.5q130 0 197 55.5t67 155.5q0 95 -70 151t-194 56q-126 0 -196 -56t-70 -151zM240 487q0 -85 55.5 -133.5t175.5 -48.5q119 0 174 48.5t55 133.5q0 79 -58.5 127t-170.5 48q-113 0 -172 -47.5t-59 -127.5z" />
    <glyph glyph-name="uni2089" unicode="&#x2089;" horiz-adv-x="905" 
d="M436 717q191 0 294.5 -123t103.5 -330q0 -218 -109 -352.5t-303 -134.5q-141 0 -234 78t-110 208h72q13 -103 82.5 -162t173.5 -57q140 0 215.5 108t78.5 296q3 52 -8 114q-21 -109 -109.5 -176t-203.5 -67q-129 0 -217 79.5t-88 211.5q0 141 100.5 224t261.5 83z
M207 418q0 -111 62 -173.5t155 -62.5q103 0 177.5 69t80.5 185q-51 226 -244 226q-101 0 -166 -65.5t-65 -178.5z" />
    <glyph glyph-name="Euro" unicode="&#x20ac;" horiz-adv-x="1769" 
d="M82 846v59h203q37 302 228.5 485t477.5 183q162 0 295.5 -61t230.5 -188t136 -308h-162q-48 219 -180 343t-322 124q-221 0 -364 -161.5t-172 -416.5h743v-59h-747q-3 -27 -3 -53q0 -48 7 -113h743v-59h-735q19 -113 62 -208t110 -167.5t162.5 -113t210.5 -40.5
q229 0 376.5 150t186.5 405h96q-43 -314 -223.5 -495t-464.5 -181q-145 0 -267 49.5t-208 137.5t-141 205.5t-74 257.5h-205v59h199q-5 72 -5 90q0 39 3 76h-197z" />
    <glyph glyph-name="uni20B9" unicode="&#x20b9;" horiz-adv-x="1310" 
d="M817 0l-719 823v70h244q407 0 426 264h-670v60h670q-10 139 -113 200.5t-290 61.5h-267v71h1184l-10 -59h-557q100 -33 159 -102t66 -172h270l-10 -60h-260q-9 -110 -83 -185t-187 -108t-258 -33h-156l770 -819v-12h-209z" />
    <glyph glyph-name="uni20BA" unicode="&#x20ba;" horiz-adv-x="1486" 
d="M227 0v6q57 35 73.5 87.5t16.5 166.5v252l-233 -104v65l233 105v165l-233 -106v65l233 105v483q0 119 -16 169t-74 85v6h361v-6q-58 -35 -74 -85t-16 -169v-401l596 268v-63l-596 -271v-164l596 269v-66l-596 -268v-508l278 -2q257 0 375.5 133t118.5 408h164
q0 -311 -172 -468t-486 -157h-549z" />
    <glyph glyph-name="uni20BF" unicode="&#x20bf;" horiz-adv-x="1314" 
d="M457 -348v348h-328v6q54 35 70 88t16 166v1030q0 118 -15.5 168.5t-70.5 85.5v6h328v348h61v-348h90q44 0 64 -2v350h63v-354q192 -21 300 -106.5t108 -235.5q0 -148 -105.5 -237.5t-287.5 -110.5v-8q100 -9 183.5 -38t148 -78.5t101 -124.5t36.5 -169q0 -195 -128 -302
t-356 -130v-352h-63v348h-51h-103v-348h-61zM383 82h227q98 0 174.5 19.5t135.5 61t90.5 111.5t31.5 166q0 178 -118.5 271.5t-329.5 93.5h-211v-723zM383 885h207q174 0 280.5 80t106.5 225q0 144 -101.5 211t-279.5 67h-213v-583z" />
    <glyph glyph-name="uni2113" unicode="&#x2113;" horiz-adv-x="1007" 
d="M621 1577q106 0 161.5 -72t55.5 -194q0 -166 -92 -325t-271 -296v-393q0 -242 109 -242q76 0 138.5 118.5t96.5 344.5l66 -12q-44 -275 -126 -404t-208 -129q-61 0 -105.5 24.5t-69.5 70t-36.5 101t-11.5 124.5v297q-114 -69 -260 -131l-27 61q159 67 287 150v475
q0 216 83 324t210 108zM475 780q259 230 262 527q2 88 -26 144t-90 56q-69 0 -107.5 -87.5t-38.5 -264.5v-375z" />
    <glyph glyph-name="uni2116" unicode="&#x2116;" horiz-adv-x="1912" 
d="M1008 0l-723 1331v-1063q0 -117 15.5 -171.5t68.5 -90.5v-6h-246v6q45 36 58.5 91t13.5 171v1022q0 117 -9.5 167.5t-42.5 86.5v6h189l723 -1333v1065q0 119 -13.5 172.5t-64.5 89.5v6h240v-6q-43 -36 -55.5 -90t-12.5 -172v-1282h-141zM1329 1305q0 117 74.5 189.5
t191.5 72.5q118 0 192.5 -73t74.5 -189q0 -113 -75 -185.5t-192 -72.5t-191.5 72.5t-74.5 185.5zM1430 1305q0 -96 43.5 -151.5t121.5 -55.5t122 55.5t44 151.5q0 98 -44 153t-122 55t-121.5 -55t-43.5 -153z" />
    <glyph glyph-name="uni2117" unicode="&#x2117;" horiz-adv-x="808" 
d="M279 1083q20 6 26 18t6 38v194q0 32 -5.5 44.5t-26.5 21.5v6h135q135 0 135 -92t-139 -92h-48v-82q0 -26 6.5 -38t28.5 -18v-4h-118v4zM92 1243q0 135 87.5 223t223.5 88t225 -88t89 -223q0 -138 -88.5 -225.5t-225.5 -87.5t-224 87.5t-87 225.5zM139 1243
q0 -120 71.5 -195t192.5 -75q123 0 195 75t72 195q0 119 -72 193.5t-195 74.5q-121 0 -192.5 -74.5t-71.5 -193.5zM362 1249h48q86 0 86 64q0 61 -86 61h-48v-125z" />
    <glyph glyph-name="trademark" unicode="&#x2122;" horiz-adv-x="1480" 
d="M975 961l-213 487v-277q0 -85 10 -127t43 -71v-6h-164v6q33 29 43.5 71.5t10.5 126.5v172q0 90 -10 130.5t-44 70.5v8h158l201 -458l194 458h160v-10q-35 -28 -45 -68t-10 -131v-172q0 -85 10 -127t45 -71v-6h-205v6q35 29 45 71t10 127v273l-208 -483h-31zM57 1473v79
h514v-79q-120 28 -198 28h-8v-330q0 -85 10 -127t43 -71v-6h-207v6q33 29 43 71t10 127v330h-10q-77 0 -197 -28z" />
    <glyph glyph-name="estimated" unicode="&#x212e;" horiz-adv-x="1656" 
d="M854 -33q-157 0 -298 53t-246 147t-166.5 231t-61.5 296q0 157 62 292t167 226.5t245.5 143t295.5 51.5q201 0 362 -87.5t257 -250.5t104 -375h-1213v-510q209 -180 492 -180q371 0 590 295h53q-105 -157 -273 -244.5t-370 -87.5zM362 733h930v473q-184 166 -440 166
q-290 0 -490 -178v-461z" />
    <glyph glyph-name="oneeighth" unicode="&#x215b;" horiz-adv-x="1865" 
d="M178 653v6q54 28 69 70t15 137v492q-29 -51 -90 -95t-143 -51v88q107 9 188 84t94 179h86v-697q0 -95 14.5 -137t65.5 -70v-6h-299zM129 0l1165 1550h103l-1166 -1550h-102zM995 244q0 97 78.5 162t194.5 79q-110 15 -171 69t-61 142q0 104 94.5 165t264.5 61
q171 0 265.5 -61t94.5 -165q0 -180 -229 -211q117 -14 193.5 -78.5t76.5 -162.5q0 -126 -104.5 -195t-294.5 -69q-192 0 -297 69t-105 195zM1130 248q0 -100 68 -155.5t199 -55.5q130 0 197 55.5t67 155.5q0 95 -70 151t-194 56q-126 0 -196.5 -56t-70.5 -151zM1165 692
q0 -85 56 -133.5t176 -48.5q119 0 174 48.5t55 133.5q0 79 -58.5 126.5t-170.5 47.5q-113 0 -172.5 -47.5t-59.5 -126.5z" />
    <glyph glyph-name="threeeighths" unicode="&#x215c;" horiz-adv-x="2136" 
d="M436 633q-169 0 -266.5 85.5t-108.5 235.5h76q9 -119 83.5 -184t193.5 -65q122 0 188 59.5t66 148.5q0 91 -66.5 141t-204.5 50h-78v53h78q115 0 178.5 53.5t63.5 135.5q0 72 -50 117.5t-153 45.5q-106 0 -172.5 -57t-75.5 -158h-120q13 130 117.5 205.5t265.5 75.5
q151 0 236 -62.5t85 -162.5q0 -87 -68.5 -143.5t-187.5 -71.5q137 -9 214 -67t77 -163q0 -114 -101.5 -193t-269.5 -79zM399 0l1166 1550h102l-1165 -1550h-103zM1266 244q0 97 78 162t194 79q-110 15 -170.5 69t-60.5 142q0 104 94 165t264 61q171 0 265.5 -61t94.5 -165
q0 -180 -229 -211q117 -14 193.5 -78.5t76.5 -162.5q0 -126 -104.5 -195t-294.5 -69q-192 0 -296.5 69t-104.5 195zM1401 248q0 -100 67.5 -155.5t198.5 -55.5q130 0 197 55.5t67 155.5q0 95 -70 151t-194 56q-126 0 -196 -56t-70 -151zM1436 692q0 -85 55.5 -133.5
t175.5 -48.5q119 0 174 48.5t55 133.5q0 79 -58.5 126.5t-170.5 47.5q-113 0 -172 -47.5t-59 -126.5z" />
    <glyph glyph-name="fiveeighths" unicode="&#x215d;" horiz-adv-x="2131" 
d="M436 633q-166 0 -266.5 82.5t-112.5 228.5h72q10 -116 85 -179t196 -63q119 0 185.5 67t66.5 177q0 116 -67.5 178t-176.5 62q-169 0 -258 -119l-60 25l78 467h576v-99h-527l-55 -330q52 62 131.5 93.5t169.5 31.5q149 0 237.5 -82t88.5 -225t-99 -229t-264 -86zM395 0
l1166 1550h102l-1165 -1550h-103zM1262 244q0 97 78 162t194 79q-110 15 -170.5 69t-60.5 142q0 104 94 165t264 61q171 0 265.5 -61t94.5 -165q0 -180 -229 -211q117 -14 193.5 -78.5t76.5 -162.5q0 -126 -104.5 -195t-294.5 -69q-192 0 -296.5 69t-104.5 195zM1397 248
q0 -100 67.5 -155.5t198.5 -55.5q130 0 197 55.5t67 155.5q0 95 -70 151t-194 56q-126 0 -196 -56t-70 -151zM1432 692q0 -85 55.5 -133.5t175.5 -48.5q119 0 174 48.5t55 133.5q0 79 -58.5 126.5t-170.5 47.5q-113 0 -172 -47.5t-59 -126.5z" />
    <glyph glyph-name="seveneighths" unicode="&#x215e;" horiz-adv-x="1910" 
d="M84 655l532 795h-587v109h698v-46l-494 -858h-149zM174 0l1165 1550h103l-1166 -1550h-102zM1040 244q0 97 78.5 162t194.5 79q-110 15 -171 69t-61 142q0 104 94.5 165t264.5 61q171 0 265.5 -61t94.5 -165q0 -180 -229 -211q117 -14 193.5 -78.5t76.5 -162.5
q0 -126 -104.5 -195t-294.5 -69q-192 0 -297 69t-105 195zM1176 248q0 -100 67.5 -155.5t198.5 -55.5q130 0 197 55.5t67 155.5q0 95 -70 151t-194 56q-126 0 -196 -56t-70 -151zM1210 692q0 -85 56 -133.5t176 -48.5q119 0 174 48.5t55 133.5q0 79 -58.5 126.5t-170.5 47.5
q-113 0 -172.5 -47.5t-59.5 -126.5z" />
    <glyph glyph-name="arrowleft" unicode="&#x2190;" horiz-adv-x="1476" 
d="M717 72l-625 460l625 457l53 -69l-545 -359l1153 17v-93l-1147 15l539 -359z" />
    <glyph glyph-name="arrowup" unicode="&#x2191;" horiz-adv-x="1097" 
d="M1010 643l-70 -53l-358 538l14 -1146h-92l16 1153l-358 -545l-70 53l457 625z" />
    <glyph glyph-name="arrowright" unicode="&#x2192;" horiz-adv-x="1476" 
d="M760 72l-53 69l538 359l-1147 -15v93l1153 -17l-544 359l53 69l624 -457z" />
    <glyph glyph-name="arrowdown" unicode="&#x2193;" horiz-adv-x="1093" 
d="M1006 598l-461 -625l-457 625l70 53l358 -545l-16 1154h92l-14 -1147l358 538z" />
    <glyph glyph-name="arrowboth" unicode="&#x2194;" horiz-adv-x="1660" 
d="M682 72l-594 460l594 457l47 -69l-502 -353h1209l-504 353l49 69l592 -457l-592 -460l-49 71l502 353h-1205l500 -353z" />
    <glyph glyph-name="arrowupdn" unicode="&#x2195;" horiz-adv-x="1118" 
d="M100 905l461 594l457 -594l-70 -47l-352 502v-1208l352 503l70 -49l-457 -592l-461 592l72 49l352 -501v1204l-352 -500z" />
    <glyph glyph-name="uni2196" unicode="&#x2196;" horiz-adv-x="1067" 
d="M197 195l-117 768l766 -119l-12 -88l-637 133l825 -805l-66 -66l-800 820l127 -631z" />
    <glyph glyph-name="uni2197" unicode="&#x2197;" horiz-adv-x="1067" 
d="M868 195l-88 12l129 635l-800 -824l-66 66l825 805l-637 -133l-12 88l764 119z" />
    <glyph glyph-name="uni2198" unicode="&#x2198;" horiz-adv-x="1071" 
d="M874 793l117 -766l-766 118l13 86l639 -133l-828 805l66 66l800 -819l-127 632z" />
    <glyph glyph-name="uni2199" unicode="&#x2199;" horiz-adv-x="1071" 
d="M197 791l88 -13l-129 -635l802 824l64 -66l-823 -803l635 131l12 -88l-764 -118z" />
    <glyph glyph-name="partialdiff" unicode="&#x2202;" horiz-adv-x="1296" 
d="M573 -31q-215 0 -342 127t-127 342q0 129 42.5 235.5t115 176t167 107.5t200.5 38q146 0 250 -76.5t143 -207.5q0 165 -39 299t-118.5 237.5t-209 166.5t-301.5 79l17 80q166 -11 302.5 -60.5t232.5 -127.5t161.5 -182.5t96 -225t30.5 -254.5q0 -119 -25 -229.5
t-76.5 -206t-124 -166.5t-174.5 -111.5t-221 -40.5zM276 420q0 -169 80.5 -268t225.5 -99q113 0 201 60.5t140.5 158t77.5 226.5q17 179 -74.5 292t-248.5 113q-176 0 -289 -132t-113 -351z" />
    <glyph glyph-name="uni2206" unicode="&#x2206;" horiz-adv-x="1269" 
d="M6 0v61l549 1489h150l559 -1489v-61h-1258zM123 86h942l-467 1315z" />
    <glyph glyph-name="product" unicode="&#x220f;" horiz-adv-x="1478" 
d="M334 1360q-35 63 -89.5 82.5t-183.5 25.5v82h1356v-82q-128 -6 -181.5 -25.5t-88.5 -82.5v-1698h-162v1792h-489v-1792h-162v1698z" />
    <glyph glyph-name="summation" unicode="&#x2211;" horiz-adv-x="1198" 
d="M49 -211v115l641 788l-610 754v104h1048v-149q-270 69 -475 69h-424l588 -722v-48l-631 -770h959v-141h-1096z" />
    <glyph glyph-name="minus" unicode="&#x2212;" horiz-adv-x="1175" 
d="M129 485v90h915v-88z" />
    <glyph glyph-name="uni2219" unicode="&#x2219;" horiz-adv-x="1183" 
d="M594 594q-84 0 -141.5 57.5t-57.5 141.5q0 82 57.5 139t141.5 57q82 0 139.5 -57t57.5 -139q0 -83 -57.5 -141t-139.5 -58z" />
    <glyph glyph-name="radical" unicode="&#x221a;" horiz-adv-x="1216" 
d="M565 -340l-327 991h-211v86h311l293 -930l635 1932h84l-691 -2079h-94z" />
    <glyph glyph-name="infinity" unicode="&#x221e;" horiz-adv-x="2011" 
d="M1526 129q-128 0 -238.5 72.5t-281.5 259.5q-170 -187 -281 -259.5t-240 -72.5q-68 0 -127.5 22.5t-108.5 68.5t-77.5 126t-28.5 186t28.5 186.5t78 127t109 69.5t128.5 23q128 0 237 -73t282 -265q174 192 282.5 265t237.5 73q69 0 128.5 -23t108 -69.5t77 -127
t28.5 -186.5t-28 -186t-77 -126t-108.5 -68.5t-128.5 -22.5zM233 532q0 -88 21.5 -152.5t59.5 -99.5t81 -51t94 -16q99 0 189.5 62.5t232.5 220.5l33 36l-33 37q-143 161 -233 223t-189 62q-51 0 -94.5 -16.5t-81 -52t-59 -100.5t-21.5 -153zM1069 530l31 -34
q143 -158 233.5 -220.5t190.5 -62.5q51 0 94 16t81 51t59.5 99.5t21.5 152.5q0 89 -21.5 153.5t-59.5 100t-82 52t-95 16.5q-98 0 -188.5 -63t-231.5 -222z" />
    <glyph glyph-name="integral" unicode="&#x222b;" horiz-adv-x="768" 
d="M-82 -375v90h102q138 0 202.5 72.5t76.5 257.5l82 1192q15 222 99 321t263 99h107v-90h-92q-137 0 -201.5 -72t-77.5 -258l-82 -1192q-14 -221 -98 -320.5t-260 -99.5h-121z" />
    <glyph glyph-name="approxequal" unicode="&#x2248;" horiz-adv-x="1187" 
d="M113 553q0 141 66 218t183 77q59 0 110.5 -21t90 -51t76.5 -59.5t85.5 -50.5t100.5 -21q84 0 123 55.5t39 147.5h88q0 -141 -67 -218t-185 -77q-60 0 -112.5 21t-91 50.5t-75.5 59.5t-83.5 51t-98.5 21q-85 0 -123 -55.5t-38 -147.5h-88zM113 168q0 141 66 218t183 77
q59 0 110.5 -21t90 -50.5t76.5 -59.5t85.5 -51t100.5 -21q84 0 123 55.5t39 147.5h88q0 -141 -67 -218t-185 -77q-60 0 -112.5 21t-91 51t-75.5 59.5t-83.5 50.5t-98.5 21q-85 0 -123 -55.5t-38 -147.5h-88z" />
    <glyph glyph-name="notequal" unicode="&#x2260;" horiz-adv-x="1175" 
d="M260 -45l-49 25l195 333h-277v88h328l149 261l-477 -3v89h528l209 358l47 -25l-194 -333h325v-86h-374l-152 -261h526v-86l-575 -2z" />
    <glyph glyph-name="lessequal" unicode="&#x2264;" horiz-adv-x="1175" 
d="M1032 203l-915 325v70l915 326v-90l-784 -271l784 -270v-90zM117 0v82h915v-82h-915z" />
    <glyph glyph-name="greaterequal" unicode="&#x2265;" horiz-adv-x="1175" 
d="M143 203v90l785 270l-785 271v90l916 -326v-70zM143 0v82h916v-82h-916z" />
    <glyph glyph-name="uni2460" unicode="&#x2460;" horiz-adv-x="1884" 
d="M942 -20q-243 0 -433 102.5t-295 287t-105 421.5q0 235 105 418.5t295 285.5t433 102q244 0 434 -102t295 -285.5t105 -418.5q0 -237 -105 -421.5t-295 -287t-434 -102.5zM172 791q0 -220 97 -391t272.5 -266t400.5 -95q226 0 402 95t273 266t97 391q0 163 -56.5 302
t-157.5 237t-245 153t-313 55q-225 0 -400.5 -94.5t-272.5 -264.5t-97 -388zM666 901v88q108 9 188.5 83.5t93.5 178.5h86v-696q0 -95 14.5 -137t65.5 -70v-6h-299v6q54 28 69 70t15 137v492q-29 -51 -90 -95t-143 -51z" />
    <glyph glyph-name="uni2461" unicode="&#x2461;" horiz-adv-x="1884" 
d="M942 -20q-243 0 -433 102.5t-295 287t-105 421.5q0 235 105 418.5t295 285.5t433 102q244 0 434 -102t295 -285.5t105 -418.5q0 -237 -105 -421.5t-295 -287t-434 -102.5zM172 791q0 -220 97 -391t272.5 -266t400.5 -95q226 0 402 95t273 266t97 391q0 163 -56.5 302
t-157.5 237t-245 153t-313 55q-225 0 -400.5 -94.5t-272.5 -264.5t-97 -388zM575 909q6 152 109 254.5t279 102.5q141 0 227 -65.5t86 -184.5q0 -40 -11.5 -75t-37 -65t-50.5 -53t-69 -49t-75.5 -42t-84.5 -42q-57 -29 -97.5 -53.5t-80.5 -55t-63 -64.5t-29 -71h631v-102
h-727v21q0 64 24.5 120.5t70 101.5t91.5 77t109 67q69 38 112.5 67t81.5 64.5t55 74.5t17 85q0 84 -51.5 131t-141.5 47q-120 0 -186 -80t-64 -211h-125z" />
    <glyph glyph-name="uni2462" unicode="&#x2462;" horiz-adv-x="1884" 
d="M942 -20q-243 0 -433 102.5t-295 287t-105 421.5q0 235 105 418.5t295 285.5t433 102q244 0 434 -102t295 -285.5t105 -418.5q0 -237 -105 -421.5t-295 -287t-434 -102.5zM172 791q0 -220 97 -391t272.5 -266t400.5 -95q226 0 402 95t273 266t97 391q0 163 -56.5 302
t-157.5 237t-245 153t-313 55q-225 0 -400.5 -94.5t-272.5 -264.5t-97 -388zM569 645h76q9 -120 83.5 -185t193.5 -65q122 0 188 60t66 149q0 91 -66.5 141t-204.5 50h-78v53h78q115 0 178.5 53t63.5 135q0 72 -50 118t-153 46q-106 0 -172.5 -57t-75.5 -158h-121
q13 130 117.5 205.5t265.5 75.5q151 0 236.5 -63t85.5 -163q0 -87 -68.5 -143.5t-187.5 -71.5q137 -9 214 -66.5t77 -162.5q0 -114 -101.5 -193t-269.5 -79q-169 0 -266.5 85.5t-108.5 235.5z" />
    <glyph glyph-name="uni2463" unicode="&#x2463;" horiz-adv-x="1884" 
d="M942 -20q-243 0 -433 102.5t-295 287t-105 421.5q0 235 105 418.5t295 285.5t433 102q244 0 434 -102t295 -285.5t105 -418.5q0 -237 -105 -421.5t-295 -287t-434 -102.5zM172 791q0 -220 97 -391t272.5 -266t400.5 -95q226 0 402 95t273 266t97 391q0 163 -56.5 302
t-157.5 237t-245 153t-313 55q-225 0 -400.5 -94.5t-272.5 -264.5t-97 -388zM483 567v70l539 618h108v-596h193v-92h-193v-53q0 -62 13 -98t51 -62v-8h-262v8q39 26 52 61.5t13 98.5v53h-514zM586 659h411v478z" />
    <glyph glyph-name="uni2464" unicode="&#x2464;" horiz-adv-x="1884" 
d="M942 -20q-243 0 -433 102.5t-295 287t-105 421.5q0 235 105 418.5t295 285.5t433 102q244 0 434 -102t295 -285.5t105 -418.5q0 -237 -105 -421.5t-295 -287t-434 -102.5zM172 791q0 -220 97 -391t272.5 -266t400.5 -95q226 0 402 95t273 266t97 391q0 163 -56.5 302
t-157.5 237t-245 153t-313 55q-225 0 -400.5 -94.5t-272.5 -264.5t-97 -388zM569 635h72q10 -116 85 -179t196 -63q119 0 185.5 67t66.5 177q0 116 -67.5 178t-176.5 62q-169 0 -258 -119l-60 24l78 467h576v-98h-527l-55 -330q52 62 131.5 93.5t169.5 31.5q149 0 237.5 -82
t88.5 -225t-99 -229t-264 -86q-166 0 -266.5 82.5t-112.5 228.5z" />
    <glyph glyph-name="uni2465" unicode="&#x2465;" horiz-adv-x="1884" 
d="M942 -20q-243 0 -433 102.5t-295 287t-105 421.5q0 235 105 418.5t295 285.5t433 102q244 0 434 -102t295 -285.5t105 -418.5q0 -237 -105 -421.5t-295 -287t-434 -102.5zM172 791q0 -220 97 -391t272.5 -266t400.5 -95q226 0 402 95t273 266t97 391q0 163 -56.5 302
t-157.5 237t-245 153t-313 55q-225 0 -400.5 -94.5t-272.5 -264.5t-97 -388zM555 776q0 218 109.5 354t302.5 136q141 0 234 -78.5t112 -208.5h-74q-13 102 -82 160.5t-174 58.5q-140 0 -216 -108t-79 -295q0 -71 10 -115q20 109 108 175.5t204 66.5q129 0 217 -79t88 -210
q0 -141 -101.5 -225t-261.5 -84q-191 0 -294 122.5t-103 329.5zM707 604q51 -223 243 -223q103 0 168.5 64.5t65.5 177.5q0 111 -62 173t-157 62q-102 0 -176.5 -69t-81.5 -185z" />
    <glyph glyph-name="uni2466" unicode="&#x2466;" horiz-adv-x="1884" 
d="M942 -20q-243 0 -433 102.5t-295 287t-105 421.5q0 235 105 418.5t295 285.5t433 102q244 0 434 -102t295 -285.5t105 -418.5q0 -237 -105 -421.5t-295 -287t-434 -102.5zM172 791q0 -220 97 -391t272.5 -266t400.5 -95q226 0 402 95t273 266t97 391q0 163 -56.5 302
t-157.5 237t-245 153t-313 55q-225 0 -400.5 -94.5t-272.5 -264.5t-97 -388zM608 1110v109h699v-45l-494 -859h-149l532 795h-588z" />
    <glyph glyph-name="uni2467" unicode="&#x2467;" horiz-adv-x="1884" 
d="M942 -20q-243 0 -433 102.5t-295 287t-105 421.5q0 235 105 418.5t295 285.5t433 102q244 0 434 -102t295 -285.5t105 -418.5q0 -237 -105 -421.5t-295 -287t-434 -102.5zM172 791q0 -220 97 -391t272.5 -266t400.5 -95q226 0 402 95t273 266t97 391q0 163 -56.5 302
t-157.5 237t-245 153t-313 55q-225 0 -400.5 -94.5t-272.5 -264.5t-97 -388zM539 588q0 97 78 162t194 79q-110 15 -170.5 69t-60.5 142q0 104 94 165t264 61q171 0 265.5 -61t94.5 -165q0 -180 -229 -211q117 -14 193.5 -78.5t76.5 -162.5q0 -126 -104.5 -195t-294.5 -69
q-192 0 -296.5 69t-104.5 195zM674 592q0 -100 67.5 -155.5t198.5 -55.5q130 0 197 55.5t67 155.5q0 95 -70 151t-194 56q-126 0 -196 -56t-70 -151zM709 1036q0 -85 55.5 -133.5t175.5 -48.5q119 0 174 48.5t55 133.5q0 79 -58.5 126.5t-170.5 47.5q-113 0 -172 -47.5
t-59 -126.5z" />
    <glyph glyph-name="uni2468" unicode="&#x2468;" horiz-adv-x="1884" 
d="M942 -20q-243 0 -433 102.5t-295 287t-105 421.5q0 235 105 418.5t295 285.5t433 102q244 0 434 -102t295 -285.5t105 -418.5q0 -237 -105 -421.5t-295 -287t-434 -102.5zM172 791q0 -220 97 -391t272.5 -266t400.5 -95q226 0 402 95t273 266t97 391q0 163 -56.5 302
t-157.5 237t-245 153t-313 55q-225 0 -400.5 -94.5t-272.5 -264.5t-97 -388zM563 952q0 141 101 224.5t262 83.5q191 0 294 -123t103 -330q0 -218 -109 -353t-303 -135q-141 0 -234 78.5t-110 208.5h72q13 -103 82.5 -162t173.5 -57q140 0 216 108t79 296q3 52 -8 114
q-21 -109 -109.5 -176t-204.5 -67q-129 0 -217 79t-88 211zM696 961q0 -111 62 -173.5t155 -62.5q103 0 177.5 69t80.5 185q-51 225 -243 225q-101 0 -166.5 -65t-65.5 -178z" />
    <glyph glyph-name="uni24EA" unicode="&#x24ea;" horiz-adv-x="1884" 
d="M942 -20q-243 0 -433 102.5t-295 287t-105 421.5q0 235 105 418.5t295 285.5t433 102q244 0 434 -102t295 -285.5t105 -418.5q0 -237 -105 -421.5t-295 -287t-434 -102.5zM172 791q0 -220 97 -391t272.5 -266t400.5 -95q226 0 402 95t273 266t97 391q0 163 -56.5 302
t-157.5 237t-245 153t-313 55q-225 0 -400.5 -94.5t-272.5 -264.5t-97 -388zM528 793q0 215 112 344t304 129q191 0 302.5 -129t111.5 -344q0 -214 -111.5 -341.5t-302.5 -127.5q-192 0 -304 127.5t-112 341.5zM664 793q0 -191 73.5 -298.5t206.5 -107.5q132 0 206.5 107.5
t74.5 298.5q0 193 -74.5 301t-206.5 108q-133 0 -206.5 -107.5t-73.5 -301.5z" />
    <glyph glyph-name="uni24FF" unicode="&#x24ff;" horiz-adv-x="1884" 
d="M942 -20q244 0 434 102.5t295 287t105 421.5q0 235 -105 418.5t-295 285.5t-434 102q-243 0 -433 -102t-295 -285.5t-105 -418.5q0 -237 105 -421.5t295 -287t433 -102.5zM528 795q0 215 112 344t304 129q191 0 302.5 -129t111.5 -344q0 -214 -111.5 -341.5
t-302.5 -127.5q-192 0 -304 127.5t-112 341.5zM664 795q0 -191 73.5 -298.5t206.5 -107.5q132 0 206.5 107.5t74.5 298.5q0 193 -74.5 301t-206.5 108q-133 0 -206.5 -107.5t-73.5 -301.5z" />
    <glyph glyph-name="lozenge" unicode="&#x25ca;" horiz-adv-x="1136" 
d="M545 0l-443 776l443 776h47l442 -776l-442 -776h-47zM193 805l393 -692l358 632l-393 693z" />
    <glyph glyph-name="circle" unicode="&#x25cb;" horiz-adv-x="1884" 
d="M942 -20q-243 0 -433 102.5t-295 287t-105 421.5q0 235 105 418.5t295 285.5t433 102q244 0 434 -102t295 -285.5t105 -418.5q0 -237 -105 -421.5t-295 -287t-434 -102.5zM172 791q0 -220 97 -391t272.5 -266t400.5 -95q226 0 402 95t273 266t97 391q0 163 -56.5 302
t-157.5 237t-245 153t-313 55q-225 0 -400.5 -94.5t-272.5 -264.5t-97 -388z" />
    <glyph glyph-name="uni25CF" unicode="&#x25cf;" horiz-adv-x="1884" 
d="M942 -20q244 0 434 102.5t295 287t105 421.5q0 235 -105 418.5t-295 285.5t-434 102q-243 0 -433 -102t-295 -285.5t-105 -418.5q0 -237 105 -421.5t295 -287t433 -102.5z" />
    <glyph glyph-name="uni2733" unicode="&#x2733;" horiz-adv-x="1591" 
d="M348 221l-108 109l497 424l-649 -56v154l653 -55l-501 424l108 108l426 -504l-55 658h153l-55 -658l426 504l109 -108l-502 -424l653 55v-154l-649 56l498 -424l-109 -109l-426 506l55 -659h-153l55 659z" />
    <glyph glyph-name="uni2776" unicode="&#x2776;" horiz-adv-x="1884" 
d="M942 -20q244 0 434 102.5t295 287t105 421.5q0 235 -105 418.5t-295 285.5t-434 102q-243 0 -433 -102t-295 -285.5t-105 -418.5q0 -237 105 -421.5t295 -287t433 -102.5zM664 903v88q108 9 188.5 83.5t93.5 178.5h86v-696q0 -95 14.5 -137t65.5 -70v-6h-299v6
q54 28 69 70t15 137v492q-29 -51 -90 -95t-143 -51z" />
    <glyph glyph-name="uni2777" unicode="&#x2777;" horiz-adv-x="1884" 
d="M942 -20q244 0 434 102.5t295 287t105 421.5q0 235 -105 418.5t-295 285.5t-434 102q-243 0 -433 -102t-295 -285.5t-105 -418.5q0 -237 105 -421.5t295 -287t433 -102.5zM584 909q6 152 108.5 254.5t278.5 102.5q141 0 227 -65.5t86 -184.5q0 -40 -11.5 -75t-37 -65
t-50.5 -53t-69 -49t-75.5 -42t-84.5 -42q-57 -29 -97.5 -53.5t-80.5 -55t-63 -64.5t-29 -71h631v-102h-727v21q0 64 24.5 120.5t70 101.5t91.5 77t109 67q69 38 112.5 67t81.5 64.5t55 74.5t17 85q0 84 -51.5 131t-141.5 47q-120 0 -185.5 -80t-63.5 -211h-125z" />
    <glyph glyph-name="uni2778" unicode="&#x2778;" horiz-adv-x="1884" 
d="M942 -20q244 0 434 102.5t295 287t105 421.5q0 235 -105 418.5t-295 285.5t-434 102q-243 0 -433 -102t-295 -285.5t-105 -418.5q0 -237 105 -421.5t295 -287t433 -102.5zM569 639h76q9 -120 83.5 -185t193.5 -65q122 0 188 60t66 149q0 190 -271 190h-78v54h78
q115 0 178.5 53t63.5 135q0 72 -50 118t-153 46q-106 0 -172.5 -57t-75.5 -158h-121q13 130 117.5 205.5t265.5 75.5q151 0 236.5 -63t85.5 -163q0 -87 -68.5 -143.5t-187.5 -71.5q137 -9 214 -66.5t77 -162.5q0 -114 -101.5 -193.5t-269.5 -79.5q-169 0 -266.5 86
t-108.5 236z" />
    <glyph glyph-name="uni2779" unicode="&#x2779;" horiz-adv-x="1884" 
d="M942 -20q244 0 434 102.5t295 287t105 421.5q0 235 -105 418.5t-295 285.5t-434 102q-243 0 -433 -102t-295 -285.5t-105 -418.5q0 -237 105 -421.5t295 -287t433 -102.5zM469 573v70l539 619h108v-596h193v-93h-193v-53q0 -62 13 -98t51 -62v-8h-262v8q39 26 52 61.5
t13 98.5v53h-514zM571 666h412v477z" />
    <glyph glyph-name="uni277A" unicode="&#x277a;" horiz-adv-x="1884" 
d="M942 -20q244 0 434 102.5t295 287t105 421.5q0 235 -105 418.5t-295 285.5t-434 102q-243 0 -433 -102t-295 -285.5t-105 -418.5q0 -237 105 -421.5t295 -287t433 -102.5zM575 633h72q10 -116 85 -179t196 -63q119 0 185.5 67t66.5 177q0 116 -67.5 177.5t-176.5 61.5
q-170 0 -258 -118l-60 24l78 467h576v-98h-527l-55 -330q52 62 131.5 93.5t169.5 31.5q149 0 237.5 -82t88.5 -225t-99 -229t-264 -86q-166 0 -266.5 82.5t-112.5 228.5z" />
    <glyph glyph-name="uni277B" unicode="&#x277b;" horiz-adv-x="1884" 
d="M942 -20q244 0 434 102.5t295 287t105 421.5q0 235 -105 418.5t-295 285.5t-434 102q-243 0 -433 -102t-295 -285.5t-105 -418.5q0 -237 105 -421.5t295 -287t433 -102.5zM557 772q0 218 109.5 354t302.5 136q141 0 234 -78.5t112 -208.5h-74q-13 102 -82 160.5
t-174 58.5q-140 0 -216 -108t-79 -295q0 -71 10 -115q20 109 108 175.5t204 66.5q129 0 217 -79t88 -210q0 -141 -101.5 -225.5t-261.5 -84.5q-191 0 -294 123t-103 330zM709 600q51 -223 243 -223q103 0 168.5 64t65.5 177q0 111 -62 173.5t-157 62.5q-102 0 -176.5 -69
t-81.5 -185z" />
    <glyph glyph-name="uni277C" unicode="&#x277c;" horiz-adv-x="1884" 
d="M942 -20q244 0 434 102.5t295 287t105 421.5q0 235 -105 418.5t-295 285.5t-434 102q-243 0 -433 -102t-295 -285.5t-105 -418.5q0 -237 105 -421.5t295 -287t433 -102.5zM610 1108v109h699v-46l-494 -858h-149l532 795h-588z" />
    <glyph glyph-name="uni277D" unicode="&#x277d;" horiz-adv-x="1884" 
d="M942 -20q244 0 434 102.5t295 287t105 421.5q0 235 -105 418.5t-295 285.5t-434 102q-243 0 -433 -102t-295 -285.5t-105 -418.5q0 -237 105 -421.5t295 -287t433 -102.5zM543 573q0 97 78 162.5t194 79.5q-110 15 -170.5 69t-60.5 142q0 104 94 164.5t264 60.5
q171 0 266 -60.5t95 -164.5q0 -89 -58.5 -142.5t-171.5 -68.5q117 -14 193.5 -79t76.5 -163q0 -126 -104.5 -195t-294.5 -69q-192 0 -296.5 69t-104.5 195zM678 578q0 -100 67.5 -155.5t198.5 -55.5q130 0 197 55.5t67 155.5q0 95 -69.5 150.5t-194.5 55.5
q-126 0 -196 -55.5t-70 -150.5zM713 1022q0 -85 55.5 -133.5t175.5 -48.5q119 0 174.5 49t55.5 133q0 79 -59 126.5t-171 47.5q-113 0 -172 -47.5t-59 -126.5z" />
    <glyph glyph-name="uni277E" unicode="&#x277e;" horiz-adv-x="1884" 
d="M942 -20q244 0 434 102.5t295 287t105 421.5q0 235 -105 418.5t-295 285.5t-434 102q-243 0 -433 -102t-295 -285.5t-105 -418.5q0 -237 105 -421.5t295 -287t433 -102.5zM569 948q0 140 101 223.5t262 83.5q191 0 294 -122.5t103 -329.5q0 -218 -109 -353t-302 -135
q-141 0 -234.5 78.5t-110.5 208.5h72q13 -103 82.5 -162t173.5 -57q140 0 216 107.5t79 295.5q3 53 -8 115q-21 -109 -110 -176.5t-204 -67.5q-129 0 -217 79.5t-88 211.5zM702 956q0 -111 62 -173t156 -62q103 0 177.5 69t80.5 185q-51 225 -244 225q-101 0 -166.5 -65.5
t-65.5 -178.5z" />
    <glyph glyph-name="uni3010" unicode="&#x3010;" horiz-adv-x="770" 
d="M174 -272v1937h520q-226 -180 -336 -418t-110 -549t110 -549.5t336 -420.5h-520z" />
    <glyph glyph-name="uni3011" unicode="&#x3011;" horiz-adv-x="770" 
d="M596 1665v-1937h-520q226 180 336 417.5t110 548.5t-110 550t-336 421h520z" />
    <glyph glyph-name="uni3016" unicode="&#x3016;" horiz-adv-x="899" 
d="M174 -272v1937h651q-219 -180 -324.5 -417t-105.5 -550q0 -316 105.5 -553.5t324.5 -416.5h-651zM238 -221h454q-184 174 -271 399t-87 520q0 290 87 515t269 397h-452v-1831z" />
    <glyph glyph-name="uni3017" unicode="&#x3017;" horiz-adv-x="899" 
d="M74 -272q219 179 324.5 416.5t105.5 553.5q0 313 -105.5 550t-324.5 417h651v-1937h-651zM207 -221h455v1831h-453q182 -172 269 -397t87 -515q0 -295 -87 -520t-271 -399z" />
    <glyph glyph-name="fi" unicode="&#xfb01;" horiz-adv-x="1202" 
d="M154 0v6q52 35 67 87t15 167v658h-218v79h218v146q0 125 31 218t86.5 147t125.5 80t154 26q167 0 272 -96t129 -258h-153q-16 126 -80.5 201t-171.5 75q-238 0 -238 -334q0 -88 6 -205h652l-2 -737q0 -115 14.5 -167t66.5 -87v-6h-325v6q51 35 65.5 87t14.5 167v658h-482
v-654q0 -115 17.5 -169t77.5 -89v-6h-342z" />
    <glyph glyph-name="u1F150" unicode="&#x1f150;" horiz-adv-x="1167" 
d="M584 735q-178 0 -300 121t-122 301t122 301t300 121t300 -121t122 -301t-122 -301t-300 -121z" />
    <glyph glyph-name="u1F446" unicode="&#x1f446;" horiz-adv-x="1894" 
d="M205 565q-7 82 39 133q25 28 57.5 46t44.5 30q4 12 -1 43t-3 51q10 72 71.5 117t127.5 6q-14 68 28 129.5t109 71.5q68 11 124 -35.5t93 -120.5q3 84 3.5 170.5t-0.5 205t-1 167.5q0 125 4 186q0 50 29 97q1 16 5 31.5t14 34t31.5 29t51.5 9.5q21 -1 35.5 -7.5t25 -22
t14 -24t11.5 -30.5q40 -40 49 -135q4 -50 13 -215q10 -206 49 -606q29 113 96 180q63 63 178 86q71 13 117 0q12 19 27.5 28.5t28 4t14.5 -28.5q3 -51 -30 -128t-71 -138q-30 -47 -45 -78q-18 -48 -31 -125q-23 -128 -28 -227q-11 -148 -36.5 -244t-84.5 -195
q-23 -39 -58 -84.5t-59 -83t-37 -79.5q-33 -112 -43 -162q55 -1 70.5 -33t9.5 -117q-4 -38 -6 -80.5t-3.5 -94.5t-2.5 -81q-28 -27 -65 -46t-81 -29t-75.5 -14.5t-75.5 -8.5q-224 -15 -346 10q-33 7 -55 12.5t-55 16.5t-56 23t-46.5 31.5t-37.5 43.5q-10 16 -14 31t-4 22.5
t2.5 29t3.5 30.5l8 108q2 33 12 74l8 33q3 6 8.5 18.5t11 22t11.5 14.5q10 13 25 17q-8 43 -20 84t-33.5 103.5t-28.5 84.5q-57 172 -70 319q-2 21 -3 75t-7 81q-4 25 -24.5 67t-22.5 66zM240 590q0 -55 39 -127q79 -159 196 -172q-3 19 28 56t60 40q0 6 -4 10
q-89 93 -119 172q-5 14 -15.5 44t-17.5 48t-20 41.5t-29 40.5q-52 -31 -59 -38q-59 -59 -59 -115zM287 387q3 -107 18 -188q6 -30 51 -217q10 -43 39 -119t45.5 -141.5t12.5 -127.5q164 -58 356 -65q204 -8 340 57q-1 20 -1.5 34.5t0 30t0.5 23.5t3 24t3.5 21t6 25t7.5 25.5
t10.5 32.5t11.5 38q14 45 38.5 84.5t57 80t43.5 58.5q36 55 64 134q50 143 59 319q5 82 27 207q15 110 47 176q4 7 18 29t17 33q-20 25 -14 64.5t22 73.5t37 62q-31 4 -70 0q-86 -8 -154 -53t-100 -117q-34 -73 -63 -178q-4 -15 -15.5 -83t-27.5 -101l-37 -99h-11
q3 27 19 67.5t20 55.5q9 35 9 68q0 20 4 41.5t11.5 52t10.5 43.5q-6 109 -23 296.5t-22 260.5q-18 238 -18 240q-2 118 -23.5 167t-79.5 50q-53 2 -80.5 -38t-27.5 -122v-428q0 -257 -6 -342q0 -10 -2 -39.5t-2 -43t2 -36t8 -41.5q6 -21 31.5 -62t33.5 -67
q10 -32 15.5 -66.5t2.5 -69t-18 -48.5q-27 -27 -76.5 -21t-70.5 37q-23 -62 -34.5 -99.5t-21.5 -94.5t-6 -107q5 -75 35 -138.5t86 -92.5v-12q-63 29 -98 94t-43 143q-11 129 47 318l-37 22q5 -76 -49 -127t-127 -18q9 -42 -16 -78q-32 -29 -79.5 -35t-82.5 10
q-75 33 -133 117zM373 846q0 -11 5 -36t3 -40q34 -37 64 -119.5t51 -111.5q5 -7 18.5 -27.5t21.5 -31.5t20.5 -27t25.5 -27t26 -18q-7 20 4 38q15 23 101 48q22 7 26 2q7 39 -6 57q-47 62 -84 182t-63 164q-50 82 -115 76q-42 -6 -70 -40t-28 -89zM575 1067q-4 -12 -6 -23
t0.5 -23.5t3.5 -19t9 -21.5t9.5 -18t12.5 -21t12 -19q23 -36 39.5 -88.5t25.5 -94t31 -89.5t56 -81q38 -38 66 -45q-7 12 -3 29.5t17 24.5l63 36q38 21 58 19q-13 33 -25 45q-54 64 -70 131q-15 56 -22 152h16q11 -58 17 -84q0 27 10 135q-124 204 -248 139q-49 -25 -72 -84
z" />
    <glyph glyph-name="u1F447" unicode="&#x1f447;" horiz-adv-x="1894" 
d="M205 541q2 24 22.5 66t24.5 67q6 27 7 80.5t3 74.5q13 149 70 320q7 22 28.5 84.5t33.5 103.5t20 84q-15 4 -25 17q-6 5 -11.5 14.5t-11 22t-8.5 18.5l-8 33q-10 42 -12 73l-8 109q-1 10 -3 25.5t-2.5 23t0.5 19t5 22t12 23.5q14 24 37.5 43.5t46.5 31.5t56 23t55 16.5
t55 12.5q122 25 346 10q44 -4 75.5 -8.5t75.5 -14.5t81 -29t65 -46q1 -29 2.5 -81t3.5 -94.5t6 -80.5q6 -85 -9.5 -117t-70.5 -33q10 -50 43 -162q17 -56 76.5 -137t77.5 -111q59 -99 84.5 -195t36.5 -243q5 -99 28 -227q13 -77 31 -125q15 -31 45 -78q38 -61 71 -138
t30 -128q-2 -23 -14.5 -28.5t-28 4t-27.5 28.5q-46 -13 -117 0q-115 23 -178 86q-67 67 -96 180q-39 -400 -49 -606q-9 -165 -13 -215q-9 -95 -49 -135q-8 -22 -11.5 -30.5t-14 -24t-25 -22t-35.5 -7.5q-30 -1 -51.5 9.5t-31.5 29t-14 34t-5 31.5q-29 47 -29 97
q-4 61 -4 186q0 49 1 167.5t0.5 205t-3.5 170.5q-37 -74 -93 -120.5t-124 -35.5q-67 10 -109 71.5t-28 129.5q-66 -39 -127.5 6t-71.5 117q-2 20 3 51t1 43q-12 12 -44.5 30t-57.5 46q-46 51 -39 133zM240 516q0 -56 59 -115q9 -9 59 -39q16 17 29 41t20 42t17 48t16 44
q30 79 119 172q4 4 4 10q-29 3 -60 40t-28 56q-117 -13 -196 -172q-39 -72 -39 -127zM287 719q58 84 133 117q35 16 82.5 10t79.5 -35q25 -36 16 -78q73 33 127 -18t49 -127l37 22q-58 189 -47 318q8 78 43 143t98 94v-12q-56 -29 -86 -92.5t-35 -138.5q-4 -50 6 -107
t21.5 -94.5t34.5 -99.5q21 31 70.5 37t76.5 -21q15 -14 18 -48.5t-2.5 -69t-15.5 -66.5q-8 -26 -33.5 -67t-31.5 -62q-6 -19 -8 -41.5t-2 -36t2 -43t2 -39.5q6 -85 6 -342v-428q0 -82 27.5 -122t80.5 -38q58 1 79.5 50t23.5 167q0 2 18 240q5 73 22 260.5t23 296.5
q-3 13 -10.5 43.5t-11.5 52t-4 41.5q0 33 -9 68q-4 15 -20 55.5t-19 66.5h11l37 -98q16 -33 27.5 -101t15.5 -83q29 -105 63 -178q32 -72 100 -117t154 -53q39 -4 70 0q-21 28 -37 62t-22 73.5t14 64.5q-3 11 -17 33t-18 29q-32 66 -47 176q-22 125 -27 207q-9 176 -59 319
q-27 77 -64 133q-11 18 -43.5 58.5t-57 80.5t-38.5 85q-3 11 -11.5 38t-10.5 32.5t-7.5 25.5t-6 25t-3.5 21t-3 24t-0.5 23.5t0 30t1.5 34.5q-136 65 -340 57q-189 -7 -356 -66q4 -62 -12.5 -127t-45.5 -141t-39 -119q-45 -187 -51 -217q-15 -81 -18 -188zM373 260
q0 -55 28 -89t70 -40q65 -6 115 76q26 44 63 164t84 182q13 18 6 57q-4 -5 -26 2q-1 0 -18 5t-25 7.5t-21.5 8t-22.5 12t-14 14.5q-11 19 -4 39q-13 -7 -26 -18t-25.5 -27t-20.5 -27t-21.5 -31.5t-18.5 -27.5q-21 -29 -51 -111.5t-64 -119.5q2 -15 -3 -40t-5 -36zM575 39
q23 -59 72 -84q124 -65 248 139q-10 107 -10 135q-6 -26 -17 -84h-16q7 96 22 152q16 67 70 131q12 12 25 45q-20 -2 -58 19l-63 36q-13 7 -17 24.5t3 29.5q-28 -7 -66 -45q-34 -33 -56 -81t-31 -89.5t-25.5 -94t-39.5 -88.5q-2 -4 -10.5 -17t-11 -17.5t-9 -16.5t-8.5 -18
t-5 -17t-3 -19t1 -19t5 -21z" />
    <glyph glyph-name="u1F448" unicode="&#x1f448;" horiz-adv-x="3233" 
d="M1606 55q-82 -7 -133 39q-28 25 -46 58t-30 45q-12 4 -43 -1t-51 -3q-72 10 -117 71t-6 127q-68 -14 -129.5 28t-71.5 109q-11 68 35.5 124t120.5 93q-93 3 -543 3q-125 0 -186 4q-52 0 -97 28q-16 1 -31.5 5t-34 14.5t-29 32t-9.5 51.5q1 21 7.5 35.5t22 25t24 14
t30.5 11.5q40 40 135 49q14 1 215 12q206 10 606 49q-112 29 -180 97q-63 63 -86 178q-13 71 0 116q-19 12 -28.5 27.5t-4 28t28.5 14.5q52 3 129 -30t137 -70q47 -30 78 -45q48 -18 125 -31q135 -24 227 -29q147 -11 243 -36.5t195 -84.5q29 -17 110.5 -76.5t137.5 -76.5
q112 -33 162 -43q1 55 33 70.5t117 9.5q23 -2 256 -13q27 -28 46 -65t29 -81t14.5 -75.5t8.5 -75.5q15 -224 -10 -346q-9 -41 -16.5 -70t-22 -67t-37 -66.5t-51.5 -45.5q-13 -8 -23.5 -12t-22 -5t-18.5 -1t-23.5 2t-25.5 3l-109 8q-26 2 -73 13l-33 8q-6 3 -18.5 8.5t-22 11
t-14.5 11.5q-14 10 -17 24q-43 -8 -84 -20t-103.5 -33.5t-84.5 -28.5q-167 -55 -320 -69q-20 -2 -74 -3.5t-81 -7.5q-25 -4 -67 -24.5t-66 -22.5zM299 887q-2 -53 38 -81t122 -28h428q257 0 342 -6q10 0 39.5 -2t43 -2t36 2t41.5 8q21 6 62 32t67 34q32 10 66.5 15.5t69 2.5
t48.5 -18q27 -27 21 -77t-37 -71q61 -22 99.5 -34t95 -21.5t106.5 -5.5q75 5 138.5 35t92.5 86h12q-29 -63 -94.5 -98.5t-142.5 -43.5q-127 -11 -318 48l-22 -37q76 5 127 -49t18 -127q41 9 78 -17q29 -32 35 -79.5t-10 -82.5q-33 -75 -117 -133q100 3 188 19q30 6 217 51
q43 10 119 39t141 45t127 12q59 167 66 356q8 204 -57 340q-20 -1 -34.5 -1.5t-30 0t-23.5 0.5t-24 3t-21 3.5t-25 6t-25.5 7.5t-32.5 10.5t-38 11.5q-45 14 -85 39t-80.5 57t-58.5 44q-53 35 -133 63q-146 51 -319 60q-91 6 -207 26q-110 15 -176 47q-7 4 -29 18t-33 17
q-25 -20 -64.5 -14t-73.5 22t-62 37q-4 -31 0 -70q7 -86 52.5 -153.5t117.5 -99.5q78 -37 178 -64q15 -4 83 -15.5t101 -27.5l98 -37v-10q-26 3 -66.5 19t-55.5 20q-31 8 -68 8q-20 0 -42 4t-51.5 12t-43.5 11q-109 -6 -296.5 -23t-260.5 -22q-33 -3 -117 -10.5t-123 -8.5
q-118 -2 -167 -23t-50 -79zM1020 498q25 -49 84 -72q12 -4 23 -6t23.5 0.5t19 3.5t21.5 9t18 9.5t21 12.5t19 12q36 23 88.5 39t94 25t89.5 31t81 56q38 38 45 66q-12 -7 -29.5 -3t-24.5 17l-37 64q-20 36 -18 57q-35 -14 -45 -24q-64 -54 -131 -70q-62 -16 -152 -23v17
q8 2 38 7.5t46 8.5q-28 0 -135 10q-203 -124 -139 -247zM1196 322q6 -42 40.5 -70.5t88.5 -28.5q11 0 36 5t40 3q37 34 119.5 64t111.5 51q6 4 27.5 18.5t31.5 22t26.5 20.5t27.5 26t18 26q-20 -7 -39 4q-6 4 -12 12t-10 15.5t-8.5 19.5t-6.5 18.5t-5.5 19t-4.5 15.5
q-8 23 -2 27q-39 7 -57 -6q-62 -47 -182 -84.5t-164 -63.5q-82 -50 -76 -114zM1427 209q30 -50 39 -59q60 -60 115 -60t127 39q159 79 172 197q-19 -3 -56 28t-40 60q-6 0 -10 -4q-93 -89 -172 -119q-14 -6 -44 -16t-48 -17t-42 -20t-41 -29z" />
    <glyph glyph-name="u1F449" unicode="&#x1f449;" horiz-adv-x="3233" 
d="M1628 55q-24 2 -66 22.5t-67 24.5q-27 6 -81.5 7.5t-74.5 3.5q-151 14 -319 69q-22 7 -84.5 28.5t-103.5 33.5t-84 20q-3 -14 -17 -24q-5 -6 -14.5 -11.5t-22 -11t-18.5 -8.5l-33 -8q-47 -11 -74 -13l-108 -8q-9 -1 -25.5 -3t-23.5 -2t-18.5 1t-22 5t-23.5 12
q-29 17 -51.5 45.5t-37 66.5t-22 67t-16.5 70q-25 122 -10 346q4 44 8.5 75.5t14.5 75.5t29 81t46 65q233 11 256 13q85 6 117 -9.5t33 -70.5q50 10 162 43q56 17 136.5 76t110.5 77q99 59 195 84.5t244 36.5q92 5 227 29q77 13 125 31q31 15 78 45q60 37 137 70t129 30
q23 -2 28.5 -14.5t-4 -28t-28.5 -27.5q13 -45 0 -116q-23 -115 -86 -178q-68 -68 -180 -97q400 -39 606 -49q201 -11 215 -12q95 -9 135 -49q22 -8 30.5 -11.5t24 -14t22 -25t7.5 -35.5q1 -30 -9.5 -51.5t-29 -32t-34 -14.5t-31.5 -5q-45 -28 -97 -28q-61 -4 -186 -4
q-450 0 -543 -3q74 -37 120.5 -93t35.5 -124q-10 -67 -71.5 -109t-129.5 -28q39 -66 -6 -127t-117 -71q-20 -2 -51 3t-43 1q-12 -12 -30 -45t-46 -58q-51 -46 -133 -39zM592 659q7 -192 65 -356q62 4 127 -12t141 -45t119 -39q184 -45 218 -51q88 -16 188 -19
q-84 58 -117 133q-16 35 -10 82.5t35 79.5q37 26 78 17q-33 73 18 127t127 49l-22 37q-191 -59 -318 -48q-77 8 -142.5 43.5t-94.5 98.5h12q29 -56 92.5 -86t138.5 -35q50 -4 106.5 5.5t95 21.5t99.5 34q-31 21 -37 71t21 77q14 15 48.5 18t69 -2.5t66.5 -15.5q26 -8 67 -34
t62 -32q19 -6 41.5 -8t36 -2t43 2t39.5 2q85 6 342 6h428q82 0 122 28t38 81q-1 58 -50 79t-167 23q-39 1 -123 8.5t-117 10.5q-73 5 -260.5 22t-296.5 23q-14 -3 -43.5 -11t-51.5 -12t-42 -4q-37 0 -68 -8q-15 -4 -55.5 -20t-67.5 -19v10l99 37q33 16 101 27.5t83 15.5
q100 27 178 64q72 32 117.5 99.5t52.5 153.5q4 39 0 70q-28 -21 -62 -37t-74 -22t-65 14q-11 -3 -32 -17t-29 -18q-66 -32 -176 -47q-116 -20 -207 -26q-173 -9 -319 -60q-82 -29 -134 -63q-18 -12 -58.5 -44t-80 -57t-84.5 -39q-11 -3 -38 -11.5t-32.5 -10.5t-25.5 -7.5
t-25 -6t-21 -3.5t-24 -3t-23.5 -0.5t-30 0t-34.5 1.5q-65 -136 -57 -340zM1354 326q13 -118 172 -197q72 -39 127 -39q54 0 114 60q9 9 39 59q-17 16 -40.5 29t-41.5 20t-48 17.5t-44 15.5q-79 30 -172 119q-4 4 -10 4q-3 -29 -40 -60t-56 -28zM1470 459q7 -13 18 -26
t27 -26t27 -21t32 -21.5t28 -18.5q29 -21 111.5 -51t119.5 -64q15 2 40 -3t36 -5q54 0 88.5 28.5t40.5 70.5q6 64 -76 114q-44 26 -164 63.5t-182 84.5q-18 13 -57 6q5 -4 -3 -27q-1 -3 -4.5 -15.5t-5.5 -19t-6.5 -18.5t-8.5 -19.5t-10 -15.5t-12 -12q-19 -11 -39 -4z
M1587 684q7 -28 45 -66q33 -34 81 -56t89.5 -31t94 -25t88.5 -39q4 -2 17 -10.5t17.5 -11t16.5 -9t18 -8.5t17 -5t19 -3t19 1t21 5q59 23 84 72q64 123 -139 247q-107 -10 -136 -10q16 -3 46 -9t38 -7v-17q-89 6 -151 23q-67 16 -131 70q-10 10 -45 24q2 -19 -19 -57
l-37 -64q-7 -13 -24 -17t-29 3z" />
    <glyph glyph-name="uni004A0301" horiz-adv-x="638" 
d="M18 -207q131 25 182.5 118.5t51.5 301.5v1077q0 119 -16 169t-74 85v6h358v-6q-58 -35 -74 -85t-16 -169v-1073q0 -240 -102.5 -362.5t-309.5 -143.5v82zM297 1692l192 282h168l-288 -282h-72z" />
    <glyph glyph-name="L.ss01" horiz-adv-x="1681" 
d="M125 0v6q57 35 73.5 87.5t16.5 166.5v1030q0 119 -16 169t-74 85v6h360v-6q-58 -35 -74 -85t-16 -169v-1206h303q154 0 421 27t528 75v-186h-1522z" />
    <glyph glyph-name="Q.ss01" horiz-adv-x="1826" 
d="M1985 -295q-90 0 -165 20t-132 54t-107 89.5t-87 116t-77 142.5q-212 -160 -514 -160q-179 0 -331 59t-259 164t-167 255t-60 327q0 176 60 325t167 254t259 163.5t331 58.5t331 -59t259 -163.5t167 -254t60 -326.5q0 -184 -63.5 -336.5t-181.5 -259.5q40 -76 83 -129.5
t103 -95.5t140.5 -63t183.5 -21v-160zM276 770q0 -272 127 -459h11q8 144 62 258t158 184t243 70q62 0 118 -15.5t98.5 -39.5t83.5 -65t69.5 -79.5t60 -96t52 -101.5t48.5 -109q123 186 123 455q0 207 -75.5 368t-219 253t-332.5 92t-332.5 -92t-219 -254t-75.5 -369z
M455 246q174 -193 448 -193q284 0 457 201q-27 61 -46 100t-48.5 92t-55.5 86.5t-63.5 70t-76 57t-89 34t-107.5 13.5q-185 0 -294.5 -122t-124.5 -339z" />
    <glyph glyph-name="R.ss01" horiz-adv-x="1353" 
d="M1243 -8q-145 70 -276.5 165.5t-236 202t-186 211t-149.5 215.5v-526q0 -114 17 -166.5t77 -87.5v-6h-364v6q57 35 73.5 87.5t16.5 166.5v1030q0 119 -16 169t-74 85v6h541q555 0 555 -381q0 -97 -36 -173.5t-99 -123t-143 -70.5t-173 -24q-196 0 -350 101v-13
q135 -205 373 -404.5t485 -293.5v-176h-35zM395 965q127 -97 314 -97q152 0 243.5 75t91.5 226q0 154 -100.5 226.5t-308.5 72.5h-240v-503z" />
    <glyph glyph-name="Q.ss02" horiz-adv-x="1816" 
d="M1767 -240q-506 186 -882 207q-369 20 -584 236t-215 569q0 176 60 325t167 254t259 163.5t331 58.5t331 -59t259 -163.5t167 -254t60 -326.5q0 -292 -155.5 -497t-415.5 -267q215 -11 618 -78v-168zM276 770q0 -208 75.5 -370t219 -254.5t332.5 -92.5t332.5 92.5
t219 255t75.5 371.5q0 207 -75.5 368t-219 253t-332.5 92t-332.5 -92t-219 -254t-75.5 -369z" />
    <glyph glyph-name="R.ss02" horiz-adv-x="1421" 
d="M1468 -4q-157 0 -257 38t-168.5 116t-143.5 227q-47 96 -82.5 156.5t-75 109.5t-82 74t-93.5 38t-120 13h-53v-508q0 -114 17 -166.5t77 -87.5v-6h-362v6q57 35 73.5 87.5t16.5 166.5v1030q0 119 -16 169t-74 85v6h516q265 0 410 -92t145 -287q0 -90 -36 -160.5
t-101 -116t-149.5 -72t-188.5 -34.5q94 -26 174 -106.5t164 -247.5q102 -201 187 -278.5t222 -77.5v-82zM393 848h180q98 0 177 18t139.5 55.5t93.5 98.5t33 143q0 305 -398 305h-225v-620z" />
    <glyph glyph-name="C_O" horiz-adv-x="2717" 
d="M864 -29q-181 0 -330 63t-246 172t-149.5 253.5t-52.5 310.5q0 176 58.5 325.5t162 254.5t252 164t322.5 59q181 0 329 -61t255.5 -188t150.5 -308h-180q-53 219 -199 343t-358 124q-182 0 -320.5 -93t-210.5 -249t-72 -348q0 -143 39.5 -268t114.5 -222.5t195.5 -154
t271.5 -56.5q255 0 419 150t208 405h106q-48 -314 -249 -495t-517 -181zM1751 1118q0 203 128 329t331 126q205 0 333 -126t128 -329q0 -202 -128.5 -328t-332.5 -126t-331.5 126t-127.5 328zM1901 1118q0 -164 83.5 -270.5t225.5 -106.5t225.5 106t83.5 271
q0 166 -83.5 272.5t-225.5 106.5t-225.5 -107t-83.5 -272zM2124 0v223h174v-223h-174z" />
    <glyph glyph-name="L_T_D" horiz-adv-x="2531" 
d="M125 0v6q57 35 73.5 87.5t16.5 166.5v1030q0 119 -16 169t-74 85v6h360v-6q-58 -35 -74 -85t-16 -169v-1206h303q154 0 421 27t528 75v-186h-1522zM725 1423v127h750v-127q-217 50 -299 50h-5v-543q0 -109 15.5 -160t68.5 -84v-6h-309v6q52 33 67 83.5t15 160.5v543h-6
q-77 0 -297 -50zM1636 680v6q51 35 66.5 88t15.5 166v350q0 118 -15 168.5t-67 85.5v6h342q233 0 368.5 -115t135.5 -319q0 -203 -134.5 -319.5t-369.5 -116.5h-342zM1862 752h112q162 0 260.5 96.5t98.5 267.5q0 174 -97 268.5t-262 94.5h-112v-727zM1892 0v223h174v-223
h-174z" />
    <glyph glyph-name="O_e" horiz-adv-x="2676" 
d="M903 -33q-179 0 -331 59t-259 164t-167 255t-60 327q0 176 60 325t167 254t259 163.5t331 58.5q351 0 576.5 -210t240.5 -550q65 103 171.5 160t236.5 57q207 0 333.5 -126t129.5 -329h-793q-2 -18 -2 -55q0 -127 37.5 -226.5t119.5 -160.5t199 -61q144 0 233 84t122 221
h90q-34 -182 -156.5 -297t-318.5 -115q-194 0 -324 116t-158 316q-97 -201 -289.5 -315.5t-447.5 -114.5zM276 770q0 -208 75.5 -370t219 -254.5t332.5 -92.5t332.5 92.5t219 255t75.5 371.5q0 207 -75.5 368t-219 253t-332.5 92t-332.5 -92t-219 -254t-75.5 -369zM1808 649
h619q-11 133 -88.5 218t-208.5 85q-127 0 -211 -82t-111 -221z" />
    <glyph glyph-name="S_T" horiz-adv-x="1951" 
d="M641 -33q-246 0 -405 139.5t-183 391.5h174q20 -202 125 -324.5t291 -122.5q147 0 234.5 76t87.5 207q0 38 -9 71.5t-22 60.5t-43 56.5t-55.5 51t-77 53t-91 54t-112.5 62.5q-72 38 -119.5 65.5t-101.5 64t-87 70t-62.5 74.5t-42.5 88t-13 101q0 170 126.5 269.5
t330.5 99.5q217 0 359.5 -117.5t174.5 -324.5h-170q-21 163 -114 260.5t-250 97.5q-140 1 -217.5 -65.5t-77.5 -178.5q0 -42 10 -76.5t35 -67t51.5 -57.5t78 -57t93.5 -55.5t117 -63.5q81 -44 129.5 -72t107.5 -67.5t92.5 -74t64.5 -79t44.5 -95t13.5 -109.5
q0 -188 -134.5 -297t-352.5 -109zM1186 1423v127h749v-127q-217 50 -299 50h-4v-543q0 -109 15.5 -160t68.5 -84v-6h-309v6q52 33 67 83.5t15 160.5v543h-6q-77 0 -297 -50zM1477 0v223h174v-223h-174z" />
    <glyph glyph-name="i.loclTRK" horiz-adv-x="481" 
d="M76 0v6q52 35 67 87t15 167v479q0 119 -14.5 169t-67.5 85v6l131 2l117 7v-748q0 -115 15 -167t67 -87v-6h-330zM150 1257v218h176v-218h-176z" />
    <glyph glyph-name="uni006A0301" horiz-adv-x="491" 
d="M-31 -432q115 10 161 81t46 214v876q0 119 -14.5 169t-67.5 85v6l129 2l117 7v-1117q0 -180 -92 -282.5t-279 -108.5v68zM211 1188l209 360h151l-305 -360h-55z" />
    <glyph glyph-name="g.ss01" horiz-adv-x="1169" 
d="M133 -356q108 -19 189 -19q262 2 393 120.5t131 365.5v170q-45 -126 -137 -199.5t-226 -73.5q-125 0 -217.5 68t-138 181.5t-45.5 256.5q0 147 51.5 262t152 182t234.5 68q104 0 189 -45t137 -123v139h235v-8q-44 -33 -56.5 -85.5t-12.5 -168.5v-553q0 -332 -225.5 -512
t-653.5 -180v154zM256 512q0 -181 71 -297.5t212 -116.5q99 0 170 59t104 155.5t33 219.5v236q-44 81 -117.5 128.5t-161.5 47.5q-148 0 -229.5 -116.5t-81.5 -315.5z" />
    <glyph glyph-name="y.ss01" horiz-adv-x="1175" 
d="M145 -358q108 -19 189 -19q514 3 514 488v174q-47 -129 -145 -213t-238 -84q-309 0 -309 372v375q0 115 -14.5 168t-65.5 86v8h319v-8q-47 -33 -60 -86t-13 -168v-362q0 -145 53.5 -213t161.5 -68q117 0 198.5 87.5t112.5 221.5v334q0 115 -14 168t-64 86v8h315v-8
q-45 -33 -58 -86.5t-13 -167.5v-553q0 -332 -224 -511.5t-645 -180.5v152z" />
    <glyph glyph-name="f.ss02" horiz-adv-x="763" 
d="M76 0v6q52 35 67 87t15 167v358q0 146 37.5 228.5t128.5 107.5q-66 7 -123 29.5t-104 60.5t-74 98t-27 136q0 160 112 250t287 90q185 0 301 -98t138 -273h-150q-17 139 -89.5 214t-191.5 75t-186 -70t-67 -192q0 -141 94 -209t291 -68h206v-77h-188q-44 0 -78.5 -7
t-58.5 -19.5t-41 -34t-27 -45t-15.5 -59.5t-7 -70t-1.5 -83v-342q0 -115 18 -167t82 -87v-6h-348z" />
    <glyph glyph-name="t.ss02" horiz-adv-x="821" 
d="M471 -20q-246 0 -246 321v617h-223v79h158q61 0 90.5 31.5t41 105.5t11.5 226h88v-363h348v-79h-348v-621q0 -113 30 -160t93 -47q79 0 129.5 91.5t67.5 273.5h77q-43 -475 -317 -475z" />
    <glyph glyph-name="c_t" horiz-adv-x="1878" 
d="M578 -35q-216 0 -352 144.5t-136 386.5q0 246 140.5 390t361.5 144q89 0 172 -26q-45 95 -45 198q0 107 49.5 184.5t125 113.5t165.5 36q164 0 267.5 -115.5t103.5 -343.5v-80h350v-79h-350v-605q0 -125 43 -176t118 -51q146 0 221 160l21 -64q-42 -96 -119 -148
t-180 -52q-121 0 -194.5 76.5t-73.5 252.5v776q0 192 -70 280.5t-180 88.5q-96 0 -156.5 -59.5t-60.5 -171.5q0 -149 102 -295q130 -105 152 -271h-152q-9 57 -29.5 105.5t-55 92.5t-91 69.5t-129.5 25.5q-164 0 -252 -119.5t-88 -312.5q0 -94 21.5 -174.5t64 -143.5
t112.5 -98.5t160 -35.5q148 0 238 91t119 242h90q-28 -194 -153 -315t-330 -121z" />
    <glyph glyph-name="f_b" horiz-adv-x="1929" 
d="M156 0v6q51 35 66.5 88t15.5 166v658h-220v79h220v183q0 113 29.5 198.5t82.5 136.5t120 76t148 25q196 0 302 -150l127 146h12q-4 -90 -4 -307v-551q48 128 144 202t237 74q128 0 222 -69.5t141.5 -186t47.5 -264.5q0 -231 -119 -380.5t-315 -149.5q-115 0 -209.5 55
t-148.5 153q3 -116 16 -188h-268v6q54 35 70 88t16 166v658h-488v-654q0 -114 18 -168.5t77 -89.5v-6h-340zM397 1227q0 -74 4 -230h488v310q-29 108 -94.5 170.5t-165.5 62.5q-110 0 -171 -76.5t-61 -236.5zM1055 283q43 -101 125.5 -160.5t183.5 -59.5q146 0 227.5 121.5
t81.5 323.5q0 122 -30 217t-98 155t-167 60q-103 0 -177.5 -62.5t-110 -164t-35.5 -230.5v-188v-12z" />
    <glyph glyph-name="f_h" horiz-adv-x="1904" 
d="M156 0v6q51 35 66.5 88t15.5 166v658h-220v79h220v183q0 113 29.5 198.5t82.5 136.5t120 76t148 25q196 0 302 -150l127 146h12q-4 -90 -4 -307v-531q50 114 147 185t236 71q309 0 309 -368v-402q0 -113 15 -166t65 -88v-6h-322v6q48 35 62 87.5t14 166.5v391
q0 143 -53.5 210t-163.5 67q-118 0 -198.5 -77t-110.5 -194v-362q0 -197 16 -295h-268v6q54 35 70 88t16 166v658h-488v-654q0 -114 18 -168.5t77 -89.5v-6h-340zM397 1227q0 -74 4 -230h488v310q-29 108 -94.5 170.5t-165.5 62.5q-110 0 -171 -76.5t-61 -236.5z" />
    <glyph glyph-name="f_t" horiz-adv-x="1411" 
d="M117 0v6q51 35 66.5 88t15.5 166v658h-219v79h219v144q0 113 29.5 198.5t81 134.5t114 73t135.5 24q124 0 214 -60.5t136 -164.5l90 71h7v-420h337v-79h-337v-605q0 -126 43.5 -175.5t121.5 -49.5q138 0 213 154l21 -62q-40 -94 -116.5 -146t-174.5 -52q-272 0 -272 329
v607h-480v-654q0 -114 18 -168.5t77 -89.5v-6h-340zM354 1190q0 -88 6 -193h482v281q-69 217 -267 217q-221 0 -221 -305z" />
    <glyph glyph-name="s_s" horiz-adv-x="1912" 
d="M510 -35q-185 0 -305 97t-137 264h143q14 -136 92.5 -211.5t208.5 -75.5q104 0 165.5 48t61.5 126q0 29 -7.5 53.5t-27.5 46t-39.5 37.5t-59 35.5t-69 33t-85.5 36.5q-55 23 -90 39.5t-78 39.5t-69.5 46t-50.5 52t-35 64t-11 76q0 122 95.5 190t248.5 68q95 0 173 -32
t128 -74t100 -122.5t75.5 -135t66.5 -154.5q39 -95 61 -143t66 -121.5t85.5 -109.5t106 -64.5t141.5 -28.5q104 0 166 47t62 125q0 25 -7 46.5t-17 38.5t-32 35t-40 30.5t-53.5 29.5t-61 28.5t-72.5 31.5q-53 22 -87 37.5t-76.5 38.5t-68.5 46t-50 52t-35 64.5t-11 76.5
q0 122 95.5 190t246.5 68q164 0 272 -82t136 -229h-143q-18 113 -83 176t-182 63q-98 0 -154.5 -42t-56.5 -113q0 -28 8 -51.5t27.5 -44t40.5 -37t60 -36t72 -34t89 -37.5q87 -37 138.5 -64t99.5 -64t69 -82.5t21 -104.5q0 -135 -100 -209t-260 -74q-65 0 -122 16.5
t-98.5 38.5t-82.5 66t-66.5 78t-58 97.5t-48.5 100t-46 108.5q-40 96 -62.5 145.5t-69 125.5t-90 113.5t-112 67.5t-150.5 30q-99 0 -156 -41t-57 -112q0 -28 8.5 -51.5t30 -45t41.5 -37t61 -36t68.5 -32.5t83.5 -36q86 -35 137.5 -62.5t97.5 -64.5t66 -82.5t20 -105.5
q0 -134 -100.5 -207.5t-261.5 -73.5z" />
    <glyph glyph-name="s_t" horiz-adv-x="1673" 
d="M1368 -18q-58 0 -104.5 16.5t-85 53t-59.5 102.5t-21 157v776q0 191 -68 280t-176 89q-94 0 -154.5 -59t-60.5 -170q0 -136 106 -269q122 -86 146 -237h-154q-16 109 -82 172t-180 63q-97 0 -154 -42t-57 -115q0 -39 17 -69.5t57.5 -58t85 -48.5t121.5 -52
q74 -30 120 -51t95.5 -51t76.5 -60t44.5 -71.5t17.5 -91.5q0 -133 -106 -207t-271 -74q-189 0 -312 99t-142 268h153q14 -136 91.5 -213.5t211.5 -77.5q100 0 163 44.5t63 121.5q0 34 -14.5 62.5t-35 49.5t-65 45.5t-80.5 40.5t-106 46q-56 23 -89.5 38t-77.5 38.5t-69 45.5
t-49.5 51.5t-35.5 65.5t-11 78q0 123 98 193.5t260 70.5q76 0 133 -14q-49 92 -49 188q0 79 28.5 143t76.5 104t108.5 61.5t126.5 21.5q77 0 142 -27.5t115.5 -82t79 -144t28.5 -205.5v-80h350v-79h-350v-605q0 -125 43 -176t118 -51q147 0 222 160l20 -64
q-43 -96 -120 -148t-179 -52z" />
    <glyph glyph-name="w_w_w" horiz-adv-x="4030" 
d="M145 805q-29 84 -53.5 125t-64.5 59v8h309v-8q-44 -17 -47.5 -58.5t24.5 -115.5l207 -620l234 757h98l240 -757l202 618q16 44 22 72t3.5 51t-16.5 37q-13 9 -29 16v8h309v-8q-44 -16 -47 -58t25 -116l206 -620l234 757h98l240 -757l203 618q28 74 25.5 117t-46.5 59v8
h311v-8q-44 -16 -47 -58t25 -116l207 -620l233 757h98l240 -757l203 618q28 74 25.5 117t-46.5 59v8h234v-8q-37 -22 -64 -62t-51 -114l-246 -711q-22 -67 -26 -102h-113l-239 762l-199 -647q-23 -66 -29 -115h-115l-280 805q0 1 -1 3t-1 3l-246 -709q-23 -72 -27 -102h-112
l-240 762l-198 -647q-23 -66 -29 -115h-115l-280 805q0 2 -2 4l-244 -707q-23 -72 -27 -102h-112l-240 762l-199 -647q-21 -61 -28 -115h-115z" />
    <glyph glyph-name="g_t.ss01" horiz-adv-x="1855" 
d="M1552 -18q-121 0 -195.5 76.5t-74.5 252.5v774q0 357 -235 357q-106 0 -170 -62.5t-64 -173.5q0 -159 113 -291q123 -107 123 -280q0 -180 -123.5 -283.5t-313.5 -103.5q-141 0 -250 59q-155 -68 -155 -168q0 -51 38.5 -75.5t129.5 -24.5q85 1 293 38.5t295 37.5
q113 0 177 -48t64 -141q0 -95 -64 -179.5t-166.5 -141t-230 -89t-256.5 -32.5q-78 0 -141.5 11.5t-114.5 35t-79.5 64.5t-28.5 96q0 146 235 221h-24q-116 0 -185 47.5t-69 132.5q0 154 227 252q-133 110 -133 291q0 178 123.5 282.5t312.5 104.5q92 0 172 -27
q-49 92 -49 191q0 154 104 244t255 90q171 0 263.5 -112.5t92.5 -322.5v-88h350v-79h-350v-605q0 -227 162 -227q146 0 221 160l20 -64q-43 -96 -119.5 -148t-179.5 -52zM250 -287q0 -149 252 -149q133 0 261 39.5t213 112.5t85 159q0 57 -36 82t-116 25q-148 0 -397 -68
q-134 -36 -198 -84t-64 -117zM338 635q0 -143 73 -227t199 -84q127 0 201 84t74 227t-74 226t-201 83q-126 0 -199 -83.5t-73 -225.5z" />
    <glyph glyph-name="zero.osf" horiz-adv-x="1257" 
d="M629 -29q-236 0 -389.5 149t-153.5 386q0 239 153.5 387.5t389.5 148.5t388 -148.5t152 -387.5q0 -237 -152.5 -386t-387.5 -149zM248 506q0 -206 103 -331.5t278 -125.5q177 0 280 125.5t103 331.5t-103 332.5t-280 126.5q-175 0 -278 -126.5t-103 -332.5z" />
    <glyph glyph-name="one.osf" horiz-adv-x="708" 
d="M266 0v6q60 35 77 87.5t17 166.5v531q-25 -55 -96 -112.5t-164 -64.5v101q84 8 154.5 54t110.5 109t49 128h110v-746q0 -114 16.5 -166.5t73.5 -87.5v-6h-348z" />
    <glyph glyph-name="two.osf" horiz-adv-x="1021" 
d="M80 37q0 36 12 71.5t29 64t50 60t60.5 54.5t75 54t79 50t87.5 51q48 28 75 45t65 43t58.5 48.5t41.5 51.5t30 61.5t9 70.5q0 93 -59.5 149t-166.5 56q-135 0 -216 -91.5t-79 -242.5h-145q2 175 126 292t335 117q168 0 265 -75t97 -205q0 -57 -20 -106.5t-49.5 -84.5
t-82 -71t-97 -59t-115.5 -56q-147 -69 -234.5 -131.5t-113.5 -128.5h755v-125h-872v37z" />
    <glyph glyph-name="three.osf" horiz-adv-x="1097" 
d="M553 -350q-210 0 -337.5 124.5t-139.5 346.5h88q9 -178 106 -278.5t254 -100.5q153 0 234.5 87.5t81.5 221.5q0 140 -94 218.5t-283 78.5h-90v74h88q164 0 256 79.5t92 211.5q0 108 -66.5 180t-195.5 72q-137 0 -228 -84t-98 -230h-141q15 177 151 284t336 107
q182 0 291 -91t109 -232q0 -131 -88.5 -217.5t-239.5 -114.5q167 -18 267 -104t100 -238q0 -169 -122 -282t-331 -113z" />
    <glyph glyph-name="four.osf" horiz-adv-x="1273" 
d="M797 -336v354h-725v78l772 932h112v-885h265v-125h-265v-354h-159zM207 143h590v715z" />
    <glyph glyph-name="five.osf" horiz-adv-x="1073" 
d="M532 -350q-203 0 -327 120t-137 330h88q10 -166 103.5 -262t242.5 -96q158 0 248 105t90 270q0 166 -90.5 257t-233.5 91q-97 0 -183 -40.5t-145 -123.5l-73 33l82 682h749v-125h-680l-61 -496q66 76 166 117t207 41q189 0 309.5 -117t120.5 -319q0 -206 -129.5 -336.5
t-346.5 -130.5z" />
    <glyph glyph-name="six.osf" horiz-adv-x="1202" 
d="M606 -33q-130 0 -230 51t-162 142.5t-93 213t-31 269.5q0 129 22.5 248t69.5 221.5t114 178.5t161.5 119.5t206.5 43.5q185 0 302 -106.5t144 -290.5h-88q-23 147 -110.5 231t-221.5 84q-112 0 -197 -60.5t-135.5 -166t-75 -237t-24.5 -285.5v-35q36 144 150 233.5
t272 89.5q182 0 302 -123.5t120 -326.5q0 -223 -139 -358.5t-357 -135.5zM268 440q55 -395 338 -395q150 0 239 111t89 295q0 177 -86 274.5t-219 97.5q-151 0 -250 -107t-111 -276z" />
    <glyph glyph-name="seven.osf" horiz-adv-x="978" 
d="M113 -326l700 1211h-762v131h883v-55l-643 -1287h-178z" />
    <glyph glyph-name="eight.osf" horiz-adv-x="1263" 
d="M633 -33q-149 0 -270 49t-194 146.5t-73 226.5q0 157 111 260t282 127q-154 26 -241.5 115t-87.5 211q0 149 125.5 250.5t347.5 101.5q220 0 345.5 -102t125.5 -250q0 -122 -88 -211t-242 -115q171 -24 281 -127.5t110 -259.5q0 -129 -72.5 -226.5t-192 -146.5
t-267.5 -49zM262 395q0 -162 104.5 -258t266.5 -96q160 0 263 96t103 258q0 150 -101.5 245t-264.5 95q-165 0 -268 -94.5t-103 -245.5zM315 1096q0 -57 19 -108t56 -92.5t99.5 -66t143.5 -24.5q155 0 235 85t80 206q0 122 -81.5 206t-233.5 84q-154 0 -236 -84t-82 -206z
" />
    <glyph glyph-name="nine.osf" horiz-adv-x="1216" 
d="M586 1042q128 0 226.5 -51t160.5 -143t93.5 -217t31.5 -277q0 -143 -36 -270t-103 -224.5t-171.5 -154.5t-232.5 -57q-179 0 -297.5 99t-151.5 267h89q29 -133 115.5 -209t226.5 -73q129 1 219 88t132 228.5t42 324.5q0 51 -2 76q-33 -156 -148.5 -244t-263.5 -88
q-176 0 -294 122.5t-118 331.5q0 216 138 343.5t344 127.5zM268 582q0 -180 85.5 -277.5t211.5 -97.5q67 0 128 26t109.5 73.5t78.5 122t32 165.5q-29 177 -109.5 274t-217.5 97q-138 0 -228 -102.5t-90 -280.5z" />
    </font>
</defs>
</svg>
