<?xml version="1.0" standalone="no"?>
<!DOCTYPE svg PUBLIC "-//W3C//DTD SVG 1.1//EN" "http://www.w3.org/Graphics/SVG/1.1/DTD/svg11.dtd" >
<svg xmlns="http://www.w3.org/2000/svg" xmlns:xlink="http://www.w3.org/1999/xlink" version="1.1">
<metadata>
Created by FontForge 20201107 at Wed Sep 11 11:37:26 2024
 By 
(c) 2015-2022 Pangram Pangram All rights reserved.
</metadata>
<defs>
<font id="PPFragment-GlareExtraBold" horiz-adv-x="0" >
  <font-face 
    font-family="PP Fragment Glare ExtraBold"
    font-weight="800"
    font-stretch="normal"
    units-per-em="2048"
    panose-1="0 0 0 0 0 0 0 0 0 0"
    ascent="1638"
    descent="-410"
    x-height="1026"
    cap-height="1550"
    bbox="-512 -860.087 4659 2091"
    underline-thickness="153"
    underline-position="-238"
    unicode-range="U+0021-1F449"
  />
<missing-glyph horiz-adv-x="1044" 
d="M856 1597v-2089h-661v2089h661zM348 -348h348v69h-213l146 99h67v69h-348v-69h148l-148 -99v-69zM348 -63h348v235h-348v-235zM348 299h348v236h-209v-117h70v47h70v-98h-209v168h-70v-236zM348 580h348v208h-69v-137h-279v-71zM348 698h209v148h139v67h-348v-67h139v-78
h-139v-70zM348 971h348v71h-139v146h-209v-217zM348 1243h348v68h-139v78h139v69h-346v-69h137v-78h-139v-68zM418 6v98h209v-98h-209zM418 1042v74h69v-74h-69z" />
    <glyph glyph-name="fl" unicode="fl" horiz-adv-x="1572" 
d="M920 0v10q49 42 67.5 120t18.5 212v500h-355v-486q0 -139 17.5 -220.5t62.5 -125.5v-10h-592v10q49 42 67.5 120t18.5 212v500h-209v184h209v51q0 136 38.5 240.5t108.5 168.5t161 96t202 32q259 0 385 -176l285 178l31 -4q-6 -147 -6 -355v-915q0 -134 18.5 -212
t67.5 -120v-10h-596zM627 1219q0 -74 18 -193h361v184q-25 115 -78 174.5t-131 59.5q-170 0 -170 -225z" />
    <glyph glyph-name="T_h" unicode="Th" horiz-adv-x="2770" 
d="M1366 0v10q49 42 67.5 120t18.5 212v918q-154 58 -249.5 81t-196.5 23h-13v-1022q0 -135 19 -212.5t71 -119.5v-10h-643v10q51 43 70.5 121t19.5 211v1022h-12q-103 0 -198 -30.5t-291 -116.5v333h1849l29 -14q-17 -50 -23 -109.5t-6 -193.5v-440q52 125 159.5 199.5
t250.5 74.5q164 0 257 -99t93 -311v-315q0 -134 17.5 -212t62.5 -120v-10h-580v10q42 42 58 119.5t16 212.5v276q0 201 -141 201q-72 0 -122.5 -50t-70.5 -140v-287q0 -135 17.5 -212.5t64.5 -119.5v-10h-594z" />
    <glyph glyph-name="f_f" unicode="ff" horiz-adv-x="1708" 
d="M86 0v10q49 42 67.5 120t18.5 212v500h-209v184h209v12q0 132 40 234.5t109 163.5t154.5 92t183.5 31q233 0 369 -152q62 104 166.5 156.5t237.5 52.5q144 0 256.5 -57.5t179.5 -155.5l-221 -193q-29 105 -78.5 163.5t-116.5 58.5q-65 0 -101 -47t-36 -138q0 -15 1 -30
t3.5 -33.5t4 -28t7 -33.5t6.5 -29t8.5 -35t8.5 -32h352v-184h-330v-486q0 -140 23 -220t84 -126v-10h-617v10q49 42 67.5 120t18.5 212v500h-356v-486q0 -139 17.5 -220.5t62.5 -125.5v-10h-590zM559 1198q0 -56 19 -172h374v49q0 31 2 47l-2 -2q-21 138 -82 206.5
t-149 68.5q-78 0 -120 -49.5t-42 -147.5z" />
    <glyph glyph-name="f_f_i" unicode="ffi" horiz-adv-x="2273" 
d="M86 0v10q49 42 67.5 120t18.5 212v500h-209v184h209v12q0 132 40 234.5t109 163.5t154.5 92t183.5 31q240 0 381 -164q72 110 193.5 164.5t277.5 54.5q238 0 389 -112.5t197 -305.5h-366q-22 115 -78 182.5t-152 67.5q-172 0 -172 -229q0 -91 19 -191h790v-684
q0 -134 18.5 -212t67.5 -120v-10h-590v10q44 43 61 120.5t17 211.5l2 500h-346l2 -486q0 -141 17.5 -221t64.5 -125v-10h-592v10q49 42 67.5 120t18.5 212v500h-350v-486q0 -139 17.5 -220.5t62.5 -125.5v-10h-590zM559 1198q0 -56 19 -172h368q0 50 6 100q-22 135 -83 202
t-148 67q-78 0 -120 -49.5t-42 -147.5z" />
    <glyph glyph-name="f_f_l" unicode="ffl" horiz-adv-x="2299" 
d="M86 0v10q49 42 67.5 120t18.5 212v500h-209v184h209v12q0 132 40 234.5t109 163.5t154.5 92t183.5 31q233 0 373 -156q66 106 177 158.5t253 52.5q259 0 385 -176l285 178l31 -4q-6 -147 -6 -355v-915q0 -134 18.5 -212t67.5 -120v-10h-596v10q49 42 67.5 120t18.5 212
v500h-355v-486q0 -139 17.5 -220.5t62.5 -125.5v-10h-592v10q49 42 67.5 120t18.5 212v500h-356v-486q0 -139 17.5 -220.5t62.5 -125.5v-10h-590zM559 1198q0 -56 19 -172h374v51q0 31 2 45l-2 -2q-21 138 -82 206.5t-149 68.5q-78 0 -120 -49.5t-42 -147.5zM1354 1219
q0 -74 18 -193h361v184q-25 115 -78 174.5t-131 59.5q-170 0 -170 -225z" />
    <glyph glyph-name="f_i" unicode="fi" horiz-adv-x="1548" 
d="M133 0v10q49 42 67.5 120t18.5 212v500h-205v184h205q0 150 42 264t118.5 184t178 105t226.5 35q238 0 389 -112.5t197 -305.5h-366q-22 115 -78 182.5t-152 67.5q-172 0 -172 -229q0 -91 19 -191h790v-684q0 -134 18.5 -212t67.5 -120v-10h-590v10q44 43 61 120.5
t17 211.5l2 500h-346l2 -486q0 -141 17.5 -221t64.5 -125v-10h-592z" />
    <glyph glyph-name="g_t" unicode="gt" horiz-adv-x="2353" 
d="M1925 -29q-87 0 -155.5 23.5t-121 72.5t-80.5 130.5t-28 191.5v821l418 267h6v-451h315v-184h-315v-443q0 -86 34.5 -127t106.5 -41q125 0 209 117l35 -143q-66 -109 -173 -171.5t-251 -62.5zM53 94q0 185 273 295q-88 48 -136.5 123.5t-48.5 171.5q0 121 77 208t206 129
t295 42q149 0 272.5 -36.5t200.5 -104.5q28 96 98.5 149t165.5 59v-288q-117 0 -188 -23q30 -61 30 -137q0 -121 -75.5 -207.5t-205 -129t-298.5 -42.5q-159 0 -287 41q-94 -42 -94 -92q0 -35 41 -53t147 -17q86 2 304 24.5t296 22.5q153 0 227 -63t74 -170
q0 -112 -77 -209.5t-203.5 -163.5t-289.5 -103.5t-333 -37.5q-195 0 -304 47.5t-109 136.5q0 136 262 199q-152 9 -236 69t-84 160zM397 -279q0 -90 189 -90q115 0 228.5 27t189 75.5t75.5 104.5q0 34 -25.5 49t-86.5 15q-146 0 -353 -47q-217 -47 -217 -134zM543 684
q0 -116 46 -177t130 -61t130 61t46 177q0 114 -46 174t-130 60t-130 -60t-46 -174z" />
    <glyph glyph-name=".notdef" horiz-adv-x="1044" 
d="M856 1597v-2089h-661v2089h661zM348 -348h348v69h-213l146 99h67v69h-348v-69h148l-148 -99v-69zM348 -63h348v235h-348v-235zM348 299h348v236h-209v-117h70v47h70v-98h-209v168h-70v-236zM348 580h348v208h-69v-137h-279v-71zM348 698h209v148h139v67h-348v-67h139v-78
h-139v-70zM348 971h348v71h-139v146h-209v-217zM348 1243h348v68h-139v78h139v69h-346v-69h137v-78h-139v-68zM418 6v98h209v-98h-209zM418 1042v74h69v-74h-69z" />
    <glyph glyph-name=".null" 
 />
    <glyph glyph-name="nonmarkingreturn" horiz-adv-x="682" 
 />
    <glyph glyph-name="space" unicode="&#xa0;" horiz-adv-x="536" 
 />
    <glyph glyph-name="space" unicode=" " horiz-adv-x="536" 
 />
    <glyph glyph-name="exclam" unicode="!" horiz-adv-x="714" 
d="M252 496l-131 1054h473l-129 -1054h-213zM174 0v334h367v-334h-367z" />
    <glyph glyph-name="quotedbl" unicode="&#x22;" horiz-adv-x="962" 
d="M156 924l-101 626h373l-100 -626h-172zM535 1550h372l-100 -626h-172z" />
    <glyph glyph-name="numbersign" unicode="#" horiz-adv-x="1339" 
d="M233 -20l117 542h-268v131h297l51 242h-305v129h332l118 549h144l-117 -549h242l117 549h145l-119 -549h270v-131h-296l-52 -240h305v-131h-333l-117 -542h-143l116 542h-241l-117 -542h-146zM522 653h242l51 240l-242 2z" />
    <glyph glyph-name="dollar" unicode="$" horiz-adv-x="1529" 
d="M731 -348v325q-256 19 -418 154t-192 369h387q14 -130 69.5 -219t153.5 -117v416q-54 30 -96 49q-108 53 -184 101t-140.5 109t-96.5 135t-32 161q0 138 73 237.5t195.5 149.5t280.5 53v303h107v-307q223 -19 375.5 -139t195.5 -330h-387q-6 101 -54 178.5t-130 105.5
v-397q46 -24 102 -51q63 -31 109 -56t97 -57.5t86.5 -62.5t70 -68t55 -77.5t33 -88t12.5 -102.5q0 -202 -156.5 -322.5t-408.5 -128.5v-323h-107zM582 1253q0 -63 40.5 -113t122.5 -100v359q-76 -1 -118.5 -41t-44.5 -105zM823 154q82 3 129 42.5t47 112.5q1 65 -40.5 114.5
t-135.5 104.5v-374z" />
    <glyph glyph-name="percent" unicode="%" horiz-adv-x="1751" 
d="M186 0l1176 1550h205l-1178 -1550h-203zM59 1223q0 159 111.5 256.5t296.5 97.5t296 -97.5t111 -256.5q0 -158 -111 -256.5t-296 -98.5t-296.5 98.5t-111.5 256.5zM330 1223q0 -226 137 -226q135 0 135 226q0 227 -135 227q-137 0 -137 -227zM877 324q0 159 111 256.5
t296 97.5t296.5 -97.5t111.5 -256.5q0 -158 -111.5 -256.5t-296.5 -98.5t-296 98.5t-111 256.5zM1147 324q0 -226 137 -226q135 0 135 226q0 227 -135 227q-137 0 -137 -227z" />
    <glyph glyph-name="ampersand" unicode="&#x26;" horiz-adv-x="1894" 
d="M719 -35q-252 0 -403.5 115.5t-151.5 312.5q0 158 93 264t271 183q-110 115 -157 193t-47 171q0 174 142 275.5t370 101.5q215 0 353 -94t138 -252q0 -241 -366 -379l292 -299q31 76 58 180h354q-145 -245 -233 -362l348 -357v-18h-439l-131 135q-211 -170 -491 -170z
M573 469q0 -114 76 -188t211 -74q120 0 211 72l-405 419q-93 -104 -93 -229zM692 1255q0 -63 34.5 -126t121.5 -156q145 98 145 268q0 93 -40.5 137.5t-108.5 44.5q-71 0 -111.5 -43.5t-40.5 -124.5z" />
    <glyph glyph-name="quotesingle" unicode="'" horiz-adv-x="483" 
d="M156 924l-101 626h373l-100 -626h-172z" />
    <glyph glyph-name="parenleft" unicode="(" horiz-adv-x="985" 
d="M915 -307q-182 31 -338.5 114.5t-273.5 210.5t-183.5 304t-66.5 383q0 205 68.5 379t187.5 296.5t274.5 202.5t336.5 111v-185q-215 -85 -344.5 -303.5t-129.5 -500.5q0 -190 55.5 -357t162.5 -291.5t251 -179.5v-184z" />
    <glyph glyph-name="parenright" unicode=")" horiz-adv-x="985" 
d="M70 -123q144 55 251 179.5t162.5 291.5t55.5 357q0 282 -129 500.5t-344 303.5v185q144 -25 272.5 -80t237.5 -142.5t188 -199.5t123.5 -257.5t44.5 -309.5q0 -206 -66.5 -383t-183.5 -304t-273.5 -210.5t-338.5 -114.5v184z" />
    <glyph glyph-name="asterisk" unicode="*" horiz-adv-x="1193" 
d="M475 543l82 405l-227 -346l-172 172l346 230l-406 -80v243l406 -77l-346 229l172 172l227 -346l-82 405h244l-84 -405l227 346l172 -172l-346 -229l408 77v-243l-408 80l346 -230l-172 -172l-227 346l84 -405h-244z" />
    <glyph glyph-name="plus" unicode="+" horiz-adv-x="1175" 
d="M483 25v409h-383v191h385v409h207v-409h383v-191h-385v-409h-207z" />
    <glyph glyph-name="comma" unicode="," horiz-adv-x="555" 
d="M66 -160q236 7 278 164h-250v330h367v-268q0 -181 -105 -297t-290 -142v213z" />
    <glyph glyph-name="hyphen" unicode="-" horiz-adv-x="980" 
d="M84 635q405 -36 813 0v-209q-408 33 -813 0v209z" />
    <glyph glyph-name="period" unicode="." horiz-adv-x="552" 
d="M94 0v334h367v-334h-367z" />
    <glyph glyph-name="slash" unicode="/" horiz-adv-x="1087" 
d="M-2 -244l883 1997h209l-883 -1997h-209z" />
    <glyph glyph-name="zero" unicode="0" horiz-adv-x="1572" 
d="M786 -39q-337 0 -520.5 210.5t-183.5 598.5q0 389 183.5 600t520.5 211t521 -211t184 -600q0 -388 -184 -598.5t-521 -210.5zM545 770q0 -229 25 -364t76.5 -194.5t139.5 -59.5q87 0 139 59.5t77.5 194.5t25.5 364q0 230 -25.5 366t-77.5 195.5t-139 59.5
q-88 0 -139.5 -60t-76.5 -195.5t-25 -365.5z" />
    <glyph glyph-name="one" unicode="1" horiz-adv-x="1050" 
d="M272 0v10q62 45 85.5 125.5t23.5 220.5v705q-46 -71 -128 -118.5t-187 -51.5v256q170 20 310.5 133t196.5 270h283v-1208q0 -134 20.5 -212t75.5 -120v-10h-680z" />
    <glyph glyph-name="two" unicode="2" horiz-adv-x="1458" 
d="M86 59q0 72 19 130t69.5 119.5t115 118.5t177.5 144q89 70 144.5 115.5t112 97.5t87 91t56.5 84.5t36 90.5t10 97q0 115 -49 177t-143 62q-123 0 -186.5 -114t-61.5 -318h-407q20 296 209 461.5t507 165.5q271 0 424.5 -115t153.5 -325q0 -79 -26 -148.5t-67 -123.5
t-111.5 -109t-140 -97t-171.5 -96q-251 -136 -357 -221l871 2v-348h-1272v59z" />
    <glyph glyph-name="three" unicode="3" horiz-adv-x="1488" 
d="M768 -39q-313 0 -500 159.5t-207 446.5h238q10 -175 106.5 -271.5t251.5 -96.5q135 0 210 69.5t75 194.5q0 128 -80.5 194t-224.5 66h-139v164h145q134 0 208.5 73.5t74.5 213.5q0 105 -52 165t-151 60q-114 0 -187 -83.5t-83 -252.5h-387q36 245 229 381.5t491 136.5
q262 0 422 -105t160 -292q0 -152 -111.5 -246.5t-304.5 -118.5q211 -20 335 -116t124 -273q0 -144 -86.5 -251.5t-231.5 -162.5t-325 -55z" />
    <glyph glyph-name="four" unicode="4" horiz-adv-x="1613" 
d="M766 0v10q49 41 67.5 114t20.5 200h-821v229l909 997h344v-903h270v-323h-270q2 -127 20.5 -200t67.5 -114v-10h-608zM348 647h506v563z" />
    <glyph glyph-name="five" unicode="5" horiz-adv-x="1443" 
d="M719 -39q-292 0 -468.5 152.5t-191.5 421.5h240q9 -162 97 -249t218 -87q133 0 211 80.5t78 218.5q0 141 -78.5 217t-203.5 76q-81 0 -153.5 -33.5t-113.5 -95.5l-219 88l107 800h1036v-327h-866l-50 -379q82 80 203.5 124t261.5 44q252 0 398.5 -132.5t146.5 -365.5
q0 -171 -84.5 -297.5t-231.5 -191t-337 -64.5z" />
    <glyph glyph-name="six" unicode="6" horiz-adv-x="1568" 
d="M809 -39q-352 0 -539.5 200.5t-187.5 553.5q0 188 53.5 347.5t152 274t244.5 178.5t324 64q124 0 228.5 -29.5t188.5 -89.5t140.5 -157.5t77.5 -225.5h-240q-23 126 -104 203.5t-205 77.5q-191 0 -290.5 -162t-104.5 -463q53 128 175 194t271 66q213 0 349.5 -131
t136.5 -356q0 -133 -52.5 -238.5t-144.5 -171.5t-212.5 -100.5t-260.5 -34.5zM557 502q19 -177 77 -263.5t163 -86.5q104 0 161.5 87.5t57.5 227.5q0 151 -60 228t-155 77q-97 0 -166 -72t-78 -198z" />
    <glyph glyph-name="seven" unicode="7" horiz-adv-x="1275" 
d="M100 0l799 1204h-860v346h1216v-114l-663 -1436h-492z" />
    <glyph glyph-name="eight" unicode="8" horiz-adv-x="1634" 
d="M817 -39q-220 0 -387 52.5t-263.5 159t-96.5 255.5q0 168 114.5 272.5t317.5 139.5q-175 33 -267 125.5t-92 222.5q0 188 177.5 291.5t494.5 103.5q318 0 496 -103t178 -290q0 -132 -92 -224.5t-267 -125.5q204 -35 319.5 -140t115.5 -272q0 -149 -97 -255.5t-264 -159
t-387 -52.5zM555 438q0 -138 67.5 -219.5t194.5 -81.5t194.5 81.5t67.5 219.5q0 139 -66.5 222t-195.5 83q-130 0 -196 -82.5t-66 -222.5zM584 1184q0 -110 59 -185t174 -75q113 0 173.5 75.5t60.5 184.5q0 105 -60 173t-174 68q-115 0 -174 -67.5t-59 -173.5z" />
    <glyph glyph-name="nine" unicode="9" horiz-adv-x="1568" 
d="M762 1581q352 0 538.5 -202.5t186.5 -563.5q0 -186 -50 -341.5t-144.5 -269.5t-239.5 -177.5t-326 -63.5q-165 0 -295 53t-219 167t-117 282h242q24 -129 106.5 -205t217.5 -76q180 0 267 158t93 467q-53 -126 -174.5 -192t-269.5 -66q-216 0 -352 129.5t-136 353.5
q0 134 52.5 239.5t144.5 172t213 101t262 34.5zM553 1073q0 -149 60 -225t155 -76q101 0 170.5 75.5t73.5 207.5q-42 336 -240 336q-104 0 -161.5 -88.5t-57.5 -229.5z" />
    <glyph glyph-name="colon" unicode=":" horiz-adv-x="593" 
d="M115 559v334h366v-334h-366zM115 0v334h366v-334h-366z" />
    <glyph glyph-name="semicolon" unicode=";" horiz-adv-x="595" 
d="M115 559v334h366v-334h-366zM86 -373v213q237 7 279 164h-250v330h366v-268q0 -181 -105 -297t-290 -142z" />
    <glyph glyph-name="less" unicode="&#x3c;" horiz-adv-x="1175" 
d="M1067 100l-975 351v159l975 351v-201l-694 -230l694 -229v-201z" />
    <glyph glyph-name="equal" unicode="=" horiz-adv-x="1175" 
d="M100 635v180h975v-180h-975zM100 244v182h975v-182h-975z" />
    <glyph glyph-name="greater" unicode="&#x3e;" horiz-adv-x="1175" 
d="M109 100v201l694 229l-694 230v201l974 -351v-159z" />
    <glyph glyph-name="question" unicode="?" horiz-adv-x="1228" 
d="M391 496q-57 88 -57 166q0 48 23 92t59.5 79.5t81 70t89 69.5t81 72t59.5 84t23 98q0 68 -32 108.5t-95 40.5q-96 0 -148 -79t-57 -230h-379q11 130 65 230t141 161t197.5 92t241.5 31q241 0 376.5 -94.5t135.5 -257.5q0 -77 -32.5 -139t-84.5 -102.5t-115 -73.5
t-126 -60t-115 -54t-84.5 -63t-32.5 -80q0 -27 19.5 -57.5t40.5 -50.5t59 -53h-334zM385 0v334h367v-334h-367z" />
    <glyph glyph-name="at" unicode="@" horiz-adv-x="2217" 
d="M987 -350q-160 0 -298.5 31t-254.5 96.5t-198.5 161.5t-128.5 233t-46 305q0 151 37 293.5t106.5 268.5t175 231t237 180.5t297.5 117.5t352 42q212 0 379 -56t275.5 -157.5t165 -241.5t56.5 -309q0 -113 -25 -219t-75 -198.5t-120.5 -162t-168 -109.5t-209.5 -40
q-173 0 -262 81t-102 208q-138 -289 -387 -289q-143 0 -227.5 95.5t-84.5 274.5q0 166 69.5 320.5t194 254t269.5 99.5q131 0 202 -81t76 -212l70 246l375 62l-183 -601q-52 -172 -29 -249.5t126 -77.5q111 0 201 84.5t138 218.5t48 285q0 322 -200 503t-576 181
q-211 0 -391 -58.5t-307.5 -158.5t-217.5 -233.5t-133 -283.5t-43 -309q0 -184 60 -325t169.5 -228.5t258 -131.5t331.5 -44q398 0 705 227l-13 -108q-283 -217 -694 -217zM887 506q0 -77 25 -122.5t75 -45.5q39 0 76.5 28t66.5 74.5t51 95t38 99.5l10 43q18 68 20 126.5
t-25 98t-79 39.5q-70 1 -131 -69t-94 -170t-33 -197z" />
    <glyph glyph-name="A" unicode="A" horiz-adv-x="1738" 
d="M-16 8q124 81 194 262l434 1116q40 103 17 164h463l495 -1294q69 -179 168 -246v-10h-727v10q67 33 79.5 93.5t-17.5 146.5l-52 164h-542l-56 -156q-36 -99 -26.5 -158t71.5 -92v-8h-501v8zM557 592h426l-201 639z" />
    <glyph glyph-name="B" unicode="B" horiz-adv-x="1597" 
d="M92 0v10q52 42 71 119.5t19 212.5v866q0 136 -19 213t-71 119v10h703q678 0 678 -372q0 -148 -124.5 -233.5t-359.5 -102.5v-15q260 -21 404.5 -119t144.5 -272q0 -436 -741 -436h-705zM633 182h131q146 0 221.5 64t75.5 213q0 289 -301 289h-127v-566zM633 911h117
q135 0 202.5 55.5t67.5 178.5q0 122 -68.5 173.5t-203.5 51.5h-115v-459z" />
    <glyph glyph-name="C" unicode="C" horiz-adv-x="1804" 
d="M899 -31q-245 0 -434 98t-294 280.5t-105 422.5q0 189 66 342.5t182 255t273 156.5t341 55q315 0 532 -151.5t283 -438.5h-451q-28 173 -117.5 278t-236.5 105q-116 0 -203.5 -73t-132.5 -195.5t-45 -274.5q0 -271 121 -416t334 -145q192 0 316.5 117t160.5 320h264
q-46 -342 -273.5 -539t-580.5 -197z" />
    <glyph glyph-name="D" unicode="D" horiz-adv-x="1837" 
d="M92 0v10q52 42 71 119.5t19 212.5v866q0 136 -19 213t-71 119v10h737q440 0 690 -202.5t250 -571.5q0 -368 -249.5 -572t-690.5 -204h-737zM647 197h150q229 0 358 149t129 428q0 287 -127 433.5t-360 146.5h-150v-1157z" />
    <glyph glyph-name="E" unicode="E" horiz-adv-x="1378" 
d="M92 0v10q52 42 71 119.5t19 212.5v866q0 136 -19 213t-71 119v10h1186v-331q-201 83 -296.5 112t-197.5 29h-137v-471h64q184 0 454 12v-199q-247 11 -454 11h-64v-520h125q139 0 253 28t296 115v-336h-1229z" />
    <glyph glyph-name="F" unicode="F" horiz-adv-x="1363" 
d="M1317 1212q-165 83 -287 113.5t-287 30.5h-96v-457h51q197 0 486 12v-209q-265 11 -486 11h-51v-371q0 -136 20 -213t74 -119v-10h-649v10q52 42 71 119.5t19 212.5v866q0 136 -19 213t-71 119v10h1225v-338z" />
    <glyph glyph-name="G" unicode="G" horiz-adv-x="1910" 
d="M825 -25q-225 0 -397 95t-267 270t-95 405q0 200 69.5 360t192 263t286 158t355.5 55q310 0 531.5 -149.5t283.5 -397.5h-443q-36 165 -129.5 256.5t-244.5 91.5q-194 0 -307 -152t-113 -407q0 -267 117 -415t313 -148q173 0 279 107.5t135 287.5l-543 -2l-2 166l950 2
v-833h-178l-174 366q-77 -176 -234.5 -277.5t-384.5 -101.5z" />
    <glyph glyph-name="H" unicode="H" horiz-adv-x="1837" 
d="M92 0v10q52 42 71 119.5t19 212.5v866q0 136 -19 213t-71 119v10h645v-10q-52 -42 -71 -119t-19 -213v-313h543v313q0 136 -19 213t-71 119v10h647v-10q-53 -42 -72.5 -118.5t-19.5 -213.5v-866q0 -135 19 -212.5t71 -119.5v-10h-645v10q52 42 71 119.5t19 212.5v350
h-543v-350q0 -135 19 -212.5t71 -119.5v-10h-645z" />
    <glyph glyph-name="I" unicode="I" horiz-adv-x="829" 
d="M92 0v10q52 42 71 119.5t19 212.5v866q0 136 -19 213t-71 119v10h645v-10q-52 -42 -71 -119t-19 -213v-866q0 -135 19 -212.5t71 -119.5v-10h-645z" />
    <glyph glyph-name="J" unicode="J" horiz-adv-x="854" 
d="M10 -125q78 20 121.5 62.5t63.5 121.5t20 211v938q0 136 -19 213t-71 119v10h643v-10q-52 -42 -71 -119t-19 -213v-895q0 -304 -169 -453t-499 -163v178z" />
    <glyph glyph-name="K" unicode="K" horiz-adv-x="1710" 
d="M92 0v10q52 42 71 119.5t19 212.5v866q0 136 -19 213t-71 119v10h641v-10q-52 -42 -71 -119t-19 -213v-338l430 449q80 84 184 231h433v-24q-95 -37 -160.5 -73.5t-120.5 -90.5l-395 -387l725 -955v-20h-545l-467 696l-84 -82v-272q0 -135 19 -212.5t71 -119.5v-10h-641z
" />
    <glyph glyph-name="L" unicode="L" horiz-adv-x="1347" 
d="M92 0v10q52 42 71 119.5t19 212.5v866q0 136 -19 213t-71 119v10h645v-10q-52 -42 -71 -119t-19 -213v-1005h119q149 0 258 27.5t293 115.5v-346h-1225z" />
    <glyph glyph-name="M" unicode="M" horiz-adv-x="2127" 
d="M913 -20l-477 1171v-809q0 -134 23 -211.5t84 -120.5v-10h-457v10q56 42 77 119.5t21 212.5v866q0 136 -19 213t-69 119v10h611l366 -944l365 944h596v-10q-49 -43 -67.5 -119.5t-18.5 -212.5v-866q0 -135 19 -212.5t71 -119.5v-10h-641v10q56 43 78 120.5t22 211.5v821
l-475 -1183h-109z" />
    <glyph glyph-name="N" unicode="N" horiz-adv-x="1695" 
d="M1108 0l-676 1049v-678q0 -145 24 -229.5t87 -131.5v-10h-451v10q52 47 71 131t19 230v837q0 134 -15.5 211.5t-55.5 120.5v10h477l678 -1042v672q0 145 -23 228.5t-84 131.5v10h445v-10q-50 -47 -69 -130.5t-19 -229.5v-1180h-408z" />
    <glyph glyph-name="O" unicode="O" horiz-adv-x="1908" 
d="M956 -37q-200 0 -365.5 57.5t-281 162t-179.5 256t-64 335.5q0 183 64 334t179.5 255t281 161t365.5 57q264 0 465 -98t311.5 -282.5t110.5 -430.5q0 -244 -110.5 -427.5t-311.5 -281.5t-465 -98zM557 770q0 -280 103 -438t296 -158q192 0 295 158.5t103 441.5
q0 280 -103.5 438t-294.5 158q-193 0 -296 -158.5t-103 -441.5z" />
    <glyph glyph-name="P" unicode="P" horiz-adv-x="1533" 
d="M92 0v10q52 42 71 119.5t19 212.5v866q0 136 -19 213t-71 119v10h692q358 0 539.5 -104.5t181.5 -335.5q0 -119 -53.5 -207.5t-154.5 -142t-236.5 -79.5t-308.5 -26h-105v-313q0 -136 20 -213t74 -119v-10h-649zM647 829h74q315 0 315 281q0 258 -291 258h-98v-539z" />
    <glyph glyph-name="Q" unicode="Q" horiz-adv-x="1908" 
d="M956 -37q-200 0 -365.5 57.5t-281 162t-179.5 256t-64 335.5q0 183 64 334t179.5 255t281 161t365.5 57q264 0 465 -98t311.5 -282.5t110.5 -430.5q0 -212 -96 -377t-272 -268l274 -363v-32h-354l-162 280q-127 -47 -277 -47zM557 770q0 -285 103 -445.5t296 -160.5
q98 0 166 39l-323 563h190l293 -387q72 153 72 395q0 280 -103.5 438t-294.5 158q-193 0 -296 -158.5t-103 -441.5z" />
    <glyph glyph-name="R" unicode="R" horiz-adv-x="1650" 
d="M1126 0l-424 692h-59v-350q0 -134 20.5 -212t73.5 -120v-10h-645v10q52 42 71 119.5t19 212.5v866q0 136 -19 213t-71 119v10h752q328 0 496.5 -98t168.5 -313q0 -174 -103 -274t-294 -132l553 -717v-16h-539zM643 862h92q155 0 234.5 63t79.5 203q0 242 -299 242h-107
v-508z" />
    <glyph glyph-name="S" unicode="S" horiz-adv-x="1441" 
d="M754 -37q-299 0 -489.5 137t-225.5 392h401q10 -76 32 -137.5t59.5 -110t94.5 -75.5t130 -28q90 0 142 41t52 117q1 38 -15 71.5t-41 61t-77.5 60.5t-103.5 60t-140 71q-89 42 -155.5 80t-128.5 86t-101 98t-62.5 112.5t-23.5 133.5q0 142 79 244.5t211 152t302 49.5
q265 0 447.5 -123t232.5 -356h-399q-6 82 -38 148.5t-93.5 109t-143.5 43.5q-86 1 -133 -39t-49 -109q0 -40 18.5 -75.5t45 -63t80.5 -60.5t100 -57t127 -63q92 -45 155.5 -80t129.5 -83.5t105 -97.5t64 -114.5t25 -140.5q0 -141 -79.5 -245t-217.5 -157t-317 -53z" />
    <glyph glyph-name="T" unicode="T" horiz-adv-x="1503" 
d="M29 1217v333h1446v-333q-191 85 -287.5 116t-198.5 31h-6v-1022q0 -133 19.5 -211t70.5 -121v-10h-643v10q52 42 71 119.5t19 212.5v1022h-4q-103 0 -199 -30.5t-288 -116.5z" />
    <glyph glyph-name="U" unicode="U" horiz-adv-x="1677" 
d="M858 -37q-121 0 -222 21t-190.5 71.5t-151 129t-97 199t-35.5 275.5v549q0 136 -19 213t-71 119v10h645v-10q-52 -42 -71 -119t-19 -213v-561q0 -234 70 -339t231 -105q164 0 244.5 108t80.5 336v561q0 136 -19 213t-71 119v10h443v-10q-52 -43 -72.5 -120.5
t-20.5 -211.5v-549q0 -360 -166.5 -528t-488.5 -168z" />
    <glyph glyph-name="V" unicode="V" horiz-adv-x="1619" 
d="M125 1290q-40 101 -74 160.5t-76 89.5v10h699v-10q-61 -27 -72 -88.5t21 -151.5l295 -915l307 913q34 100 25.5 157t-60.5 85v10h455v-10q-81 -51 -152 -246l-428 -1149q-30 -79 -39 -145h-410z" />
    <glyph glyph-name="W" unicode="W" horiz-adv-x="2242" 
d="M123 1292q-35 98 -68 157.5t-75 90.5v10h675v-10q-90 -58 -34 -244l215 -708l286 913h226l284 -917l215 716q30 96 23.5 155t-51.5 85v10h444v-10q-84 -52 -145 -240l-373 -1150q-29 -93 -37 -150h-281l-294 893l-252 -752q-28 -71 -39 -141h-279z" />
    <glyph glyph-name="X" unicode="X" horiz-adv-x="1589" 
d="M899 10q37 25 34.5 90.5t-40.5 128.5l-215 338l-207 -338q-44 -71 -46.5 -131t42.5 -88v-10h-492v10q51 25 110 87.5t108 138.5l354 540l-354 561q-48 81 -92 128.5t-99 74.5v10h705l2 -12q-39 -26 -37.5 -81.5t43.5 -125.5l190 -301l191 297q39 63 45 122.5t-29 90.5v10
h469v-10q-104 -49 -211 -209l-334 -504l385 -608q95 -159 193 -209v-10h-715v10z" />
    <glyph glyph-name="Y" unicode="Y" horiz-adv-x="1527" 
d="M158 1337q-42 81 -80 127.5t-88 75.5v10h686v-10q-26 -18 -34 -53.5t0 -77t28 -86.5l209 -436l215 438q22 45 31.5 85t1.5 76t-37 54v10h448v-10q-101 -59 -178 -209l-350 -659v-330q0 -135 19 -212.5t71 -119.5v-10h-654v10q52 43 72.5 121t20.5 211v324z" />
    <glyph glyph-name="Z" unicode="Z" horiz-adv-x="1421" 
d="M66 0v170l739 1190h-184q-44 0 -80.5 -2t-80 -11t-65 -12.5t-76 -22.5t-71 -25t-91.5 -35t-98 -38v336h1291v-159l-746 -1194h172q134 0 260 31.5t326 115.5v-344h-1296z" />
    <glyph glyph-name="bracketleft" unicode="[" horiz-adv-x="909" 
d="M160 -268v1929h674v-182h-281v-1565h281v-182h-674z" />
    <glyph glyph-name="backslash" unicode="\" horiz-adv-x="1087" 
d="M1090 -244h-209l-883 1997h209z" />
    <glyph glyph-name="bracketright" unicode="]" horiz-adv-x="909" 
d="M750 -268h-674v182h280v1565h-280v182h674v-1929z" />
    <glyph glyph-name="asciicircum" unicode="^" horiz-adv-x="1175" 
d="M147 780l330 822h223l330 -822h-223l-219 645l-219 -645h-222z" />
    <glyph glyph-name="underscore" unicode="_" horiz-adv-x="1456" 
d="M0 -250v184h1456v-184h-1456z" />
    <glyph glyph-name="grave" unicode="`" horiz-adv-x="706" 
d="M492 1178l-390 372h351l151 -372h-112z" />
    <glyph glyph-name="a" unicode="a" horiz-adv-x="1337" 
d="M369 -35q-152 0 -238 71t-86 197q0 60 20.5 107t54.5 80.5t94.5 63t122 50.5t155.5 46q165 43 221.5 80t56.5 112q1 64 -32.5 97.5t-98.5 33.5q-86 0 -137.5 -60t-52.5 -181h-363q10 125 99 219t222.5 140t288.5 46q84 0 155 -13t135.5 -45t109.5 -80.5t71.5 -124
t26.5 -171.5v-287q0 -91 18.5 -127.5t61.5 -36.5q31 0 59 21l2 -133q-124 -93 -270 -93q-54 0 -101 14.5t-88.5 45t-67.5 86t-30 129.5q-46 -131 -151 -209t-258 -78zM444 313q0 -53 31.5 -79.5t81.5 -26.5q95 0 155 81.5t60 211.5v82q-13 -29 -48.5 -50.5t-115.5 -50.5
q-89 -33 -126.5 -71t-37.5 -97z" />
    <glyph glyph-name="b" unicode="b" horiz-adv-x="1447" 
d="M55 0v10q49 42 66.5 119t17.5 213v920q0 202 -65 282v6l473 56l26 -11q-8 -91 -8 -333v-467q48 124 146 195t247 71q206 0 319.5 -142.5t113.5 -383.5q0 -250 -126.5 -400.5t-344.5 -150.5q-230 0 -353 168q0 -58 11 -152h-523zM565 295q31 -57 79 -91t106 -34
q91 0 144.5 89t53.5 269q0 144 -44.5 228t-131.5 84q-93 0 -150 -90t-57 -273v-178v-4z" />
    <glyph glyph-name="c" unicode="c" horiz-adv-x="1300" 
d="M653 -39q-99 0 -188 21.5t-163.5 66t-129 108t-85 152.5t-30.5 195q0 109 32.5 200.5t89.5 157.5t134.5 112t168.5 68.5t190 22.5q246 0 401 -121t176 -315h-364q-8 116 -58 189t-147 73q-101 0 -156 -85t-55 -235q0 -175 71 -275.5t216 -100.5q219 0 286 254h211
q-35 -220 -189.5 -354t-410.5 -134z" />
    <glyph glyph-name="d" unicode="d" horiz-adv-x="1443" 
d="M872 0q8 106 11 246q-50 -122 -148.5 -193t-245.5 -71q-209 0 -320.5 142.5t-111.5 383.5q0 251 125.5 401t343.5 150q237 0 357 -180v385q0 198 -66 280v6l473 56l25 -9q-6 -68 -6 -333v-922q0 -134 17.5 -212t62.5 -120v-10h-517zM500 508q0 -146 44 -228.5t130 -82.5
q94 0 151.5 90t57.5 268v184q-32 57 -80 93t-105 36q-89 0 -143.5 -90.5t-54.5 -269.5z" />
    <glyph glyph-name="e" unicode="e" horiz-adv-x="1312" 
d="M653 -39q-127 0 -235 36t-188.5 103t-126.5 171t-46 233q0 134 49 242t133.5 177t194.5 105.5t236 36.5q271 0 426.5 -143t158.5 -381h-798q8 -162 82.5 -250t210.5 -88q219 0 294 225h209q-20 -100 -65 -182.5t-116.5 -147.5t-178.5 -101t-240 -36zM461 655h407
q-11 122 -61 186t-137 64q-85 0 -139.5 -65.5t-69.5 -184.5z" />
    <glyph glyph-name="f" unicode="f" horiz-adv-x="980" 
d="M139 0v10q49 42 67.5 120t18.5 212v500h-211v184h211v49q0 269 131.5 405t348.5 136q144 0 256.5 -57.5t179.5 -155.5l-221 -193q-29 105 -78.5 163.5t-116.5 58.5q-65 0 -101 -47t-36 -138q0 -15 1 -30t3.5 -33.5t4 -28t7 -33.5t6.5 -29t8.5 -35t8.5 -32h352v-184h-330
v-486q0 -140 23 -220t84 -126v-10h-617z" />
    <glyph glyph-name="g" unicode="g" horiz-adv-x="1456" 
d="M524 -518q-195 0 -304 47.5t-109 136.5q0 136 262 199q-152 9 -236 69t-84 160q0 185 273 295q-88 48 -136.5 123.5t-48.5 171.5q0 121 77 208t206 129t295 42q238 0 399 -88q10 154 94 237.5t215 85.5v-311q-101 0 -154 -17t-75 -55q100 -97 100 -233
q0 -121 -75.5 -207.5t-205 -129t-298.5 -42.5q-159 0 -287 41q-94 -42 -94 -92q0 -35 41 -53t147 -17q86 2 304 24.5t296 22.5q153 0 227 -63t74 -170q0 -112 -77 -209.5t-203.5 -163.5t-289.5 -103.5t-333 -37.5zM397 -279q0 -90 189 -90q115 0 228.5 27t189 75.5
t75.5 104.5q0 34 -25.5 49t-86.5 15q-146 0 -353 -47q-217 -47 -217 -134zM543 684q0 -116 46 -177t130 -61t130 61t46 177q0 114 -46 174t-130 60t-130 -60t-46 -174z" />
    <glyph glyph-name="h" unicode="h" horiz-adv-x="1452" 
d="M53 0v10q49 42 67.5 120t18.5 212v922q0 190 -71 278v8l477 56l26 -11q-8 -91 -8 -331v-473q52 126 159.5 201t250.5 75q165 0 257.5 -99t92.5 -311v-315q0 -134 17 -211.5t61 -120.5v-10h-574v10q41 42 56.5 120t15.5 212v276q0 201 -143 201q-72 0 -123 -52.5
t-70 -145.5v-279q0 -135 17.5 -212.5t64.5 -119.5v-10h-592z" />
    <glyph glyph-name="i" unicode="i" horiz-adv-x="694" 
d="M47 0v10q49 42 67.5 120t18.5 212v344q0 135 -18.5 211.5t-67.5 120.5v10l178 2l334 12v-700q0 -134 18.5 -212t67.5 -120v-10h-598zM141 1223v311h414v-311h-414z" />
    <glyph glyph-name="j" unicode="j" horiz-adv-x="694" 
d="M-55 -358q123 15 165 83t42 244v717q0 135 -18.5 211.5t-67.5 120.5v10l178 2l331 12v-981q0 -274 -159.5 -421t-470.5 -148v150zM147 1223v311h414v-311h-414z" />
    <glyph glyph-name="k" unicode="k" horiz-adv-x="1406" 
d="M926 0l-361 506v-164q0 -135 17.5 -212.5t64.5 -119.5v-10h-594v10q50 42 68 119t18 213v922q0 196 -65 276v10l473 56l26 -11q-8 -91 -8 -331v-637l248 207q68 54 100 107t13 79v6h436v-16q-129 -55 -234 -140l-262 -215l547 -635v-20h-487z" />
    <glyph glyph-name="l" unicode="l" horiz-adv-x="698" 
d="M53 0v10q49 42 67.5 120t18.5 212v922q0 190 -71 278v8l477 56l26 -11q-8 -91 -8 -331v-922q0 -135 17.5 -212.5t64.5 -119.5v-10h-592z" />
    <glyph glyph-name="m" unicode="m" horiz-adv-x="2179" 
d="M61 0v10q46 43 64 121t18 211v342q0 134 -18 211.5t-64 120.5v10h525q-24 -71 -27 -238q53 127 158 203t246 76q292 0 335 -303q45 136 154.5 219.5t255.5 83.5q162 0 253 -99t91 -311v-315q0 -133 16.5 -211t59.5 -121v-10h-561v10q39 42 54 119.5t15 212.5v276
q0 201 -141 201q-72 0 -123.5 -56.5t-66.5 -152.5v-268q0 -135 16.5 -212.5t60.5 -119.5v-10h-563v10q41 42 56.5 120t15.5 212v276q0 201 -141 201q-72 0 -124 -56.5t-67 -152.5v-268q0 -135 16 -212.5t60 -119.5v-10h-574z" />
    <glyph glyph-name="n" unicode="n" horiz-adv-x="1456" 
d="M59 0v10q48 43 66 120.5t18 211.5v342q0 135 -18 212t-66 120v10h537q-26 -77 -29 -240q53 128 160.5 204.5t251.5 76.5q165 0 257.5 -99t92.5 -311v-315q0 -134 17 -211.5t61 -120.5v-10h-573v10q41 42 56 119.5t15 212.5v276q0 201 -143 201q-74 0 -127 -56.5
t-68 -152.5v-268q0 -134 17 -211.5t61 -120.5v-10h-586z" />
    <glyph glyph-name="o" unicode="o" horiz-adv-x="1386" 
d="M692 -39q-290 0 -462.5 145.5t-172.5 405.5q0 262 172.5 407.5t462.5 145.5q292 0 464.5 -145.5t172.5 -407.5q0 -260 -172.5 -405.5t-464.5 -145.5zM475 512q0 -192 56.5 -286.5t162.5 -94.5q105 0 161 95t56 286q0 383 -217 383q-219 0 -219 -383z" />
    <glyph glyph-name="p" unicode="p" horiz-adv-x="1439" 
d="M45 -492v11q49 38 67.5 109.5t18.5 195.5v887q0 126 -18.5 196.5t-67.5 110.5v8h539q-26 -64 -29 -229q50 123 148 193.5t245 70.5q206 0 319 -142.5t113 -383.5q0 -250 -126.5 -400.5t-344.5 -150.5q-229 0 -354 170v-330q0 -124 18.5 -195.5t67.5 -109.5v-11h-596z
M555 295q31 -57 78.5 -91t105.5 -34q91 0 145 89t54 269q0 144 -44.5 228t-131.5 84q-93 0 -150 -90t-57 -273v-182z" />
    <glyph glyph-name="q" unicode="q" horiz-adv-x="1449" 
d="M797 -492v11q49 38 67.5 109.5t18.5 195.5v422q-50 -122 -148.5 -193t-245.5 -71q-209 0 -320.5 142.5t-111.5 383.5q0 251 125.5 401t343.5 150q234 0 353 -176q-3 86 -19 143h533v-8q-49 -40 -67.5 -110.5t-18.5 -196.5v-887q0 -124 18.5 -195.5t67.5 -109.5v-11h-596z
M500 508q0 -146 44 -228.5t130 -82.5q94 0 151.5 90t57.5 268v143v41q-32 57 -80 93t-105 36q-89 0 -143.5 -90.5t-54.5 -269.5z" />
    <glyph glyph-name="r" unicode="r" horiz-adv-x="1034" 
d="M59 0v10q49 42 67.5 120t18.5 212v342q0 135 -18.5 212.5t-67.5 121.5v8h541q-31 -84 -31 -342v-35h4q14 70 48 137t86.5 124t128.5 92t163 36v-346q-165 1 -259 -23.5t-130.5 -70t-40.5 -123.5v-135q0 -134 21 -210.5t76 -119.5v-10h-607z" />
    <glyph glyph-name="s" unicode="s" horiz-adv-x="1216" 
d="M631 -39q-255 0 -405.5 98.5t-178.5 270.5h361q9 -104 69 -166t158 -62q67 0 107 28t40 75q0 61 -61 98.5t-223 91.5l-64.5 21.5t-61.5 21.5t-59.5 24t-54 26.5t-50.5 30.5t-42.5 33.5t-36.5 39.5t-26 45t-17.5 52t-5.5 59q0 103 69 176.5t182.5 108t260.5 34.5
q226 0 374 -87t189 -247h-346q-11 88 -66 140.5t-149 52.5q-67 0 -103 -26t-36 -71q0 -26 14 -48t35.5 -38.5t66 -35.5t86 -33t115.5 -37q77 -25 130.5 -46t106.5 -50.5t85 -62.5t51.5 -78.5t19.5 -100.5q0 -110 -71.5 -187.5t-190 -114t-272.5 -36.5z" />
    <glyph glyph-name="t" unicode="t" horiz-adv-x="1015" 
d="M594 -27q-181 0 -286 105t-105 328v436h-191v184h191v184l418 267h6v-451h315v-184h-315v-445q0 -87 35.5 -128.5t107.5 -41.5q122 0 207 119l35 -141q-64 -109 -169.5 -170.5t-248.5 -61.5z" />
    <glyph glyph-name="u" unicode="u" horiz-adv-x="1466" 
d="M487 -37q-165 0 -258.5 100t-93.5 314v307q0 135 -17.5 212.5t-64.5 121.5v8h578v-8q-40 -44 -55 -122t-15 -212v-262q0 -110 34.5 -158.5t104.5 -48.5q78 0 130.5 70.5t64.5 199.5v199q0 135 -16 212.5t-58 121.5v8h586v-8q-49 -44 -67.5 -122t-18.5 -212v-342
q0 -136 18.5 -212.5t67.5 -119.5v-10h-535q20 63 23 270q-44 -134 -154.5 -220.5t-253.5 -86.5z" />
    <glyph glyph-name="v" unicode="v" horiz-adv-x="1249" 
d="M147 743q-47 114 -81 178t-72 97v8h575v-8q-23 -14 -32 -36t-4 -59t14.5 -71t30.5 -96l139 -428l147 428q26 71 36.5 119.5t3.5 86t-36 56.5v8h387v-8q-69 -47 -157 -264l-193 -467q-93 -220 -96 -287h-354z" />
    <glyph glyph-name="w" unicode="w" horiz-adv-x="1792" 
d="M133 793q-73 184 -137 225v8h600v-8q-47 -21 -55.5 -75.5t18.5 -119.5l148 -401l196 582h187l204 -586l146 395q62 161 -37 205v8h393v-8q-40 -34 -69.5 -82t-59.5 -125l-278 -700q-27 -67 -37 -111h-267l-188 539l-147 -420q-30 -83 -37 -119h-267z" />
    <glyph glyph-name="x" unicode="x" horiz-adv-x="1294" 
d="M707 8q51 61 -50 195l-96 127l-90 -123q-104 -145 -63 -199v-8h-410v8q124 74 235 213l211 262l-245 326q-65 87 -107 133t-90 76v8h582v-8q-48 -61 51 -195l92 -121l88 119q107 141 66 197v8h403v-8q-64 -41 -117 -86.5t-116 -124.5l-209 -256l254 -332
q62 -84 106.5 -132.5t93.5 -78.5v-8h-589v8z" />
    <glyph glyph-name="y" unicode="y" horiz-adv-x="1236" 
d="M240 -500q-116 0 -191 35v315q84 -43 215 -43q105 0 191.5 47t134.5 146h-137l-308 745q-87 215 -153 273v8h573v-8q-15 -10 -24.5 -22.5t-10.5 -33t0 -37t10 -50t16 -53.5t22 -66l139 -432l147 432q26 69 35.5 118.5t1.5 87t-37 56.5v8h391v-8q-72 -50 -157 -264
l-307 -744q-115 -277 -241 -393.5t-310 -116.5z" />
    <glyph glyph-name="z" unicode="z" horiz-adv-x="1130" 
d="M57 0v133l537 719h-135q-140 0 -402 -111v285h1008v-129l-539 -723h158q101 0 182.5 27.5t208.5 93.5v-295h-1018z" />
    <glyph glyph-name="braceleft" unicode="{" horiz-adv-x="907" 
d="M825 -281q-337 0 -498.5 131.5t-115.5 399.5q15 95 17 158.5t-7 105.5t-36 63.5t-63.5 30t-94.5 8.5v164q58 0 94.5 8.5t63.5 30.5t36.5 64t7 105.5t-17.5 158.5q-46 267 115.5 398.5t498.5 131.5v-182q-120 0 -171 -36t-52 -111t19 -191q10 -63 10.5 -117.5t-7 -95.5
t-23 -75t-35 -58t-45 -42.5t-50.5 -29.5t-55 -18.5t-54.5 -11t-52.5 -4.5v-11q27 -2 51 -5.5t54 -11t54.5 -18.5t50.5 -29.5t45.5 -42.5t35.5 -58t24 -75t7.5 -96t-10.5 -118q-20 -116 -18.5 -190.5t52.5 -110t170 -35.5v-185z" />
    <glyph glyph-name="bar" unicode="|" horiz-adv-x="499" 
d="M160 -244v1997h180v-1997h-180z" />
    <glyph glyph-name="braceright" unicode="}" horiz-adv-x="907" 
d="M82 -96q119 0 170.5 35.5t53 110t-18.5 190.5q-10 63 -10.5 118t7.5 96t24 75t35 58t45 42.5t50.5 29.5t54.5 18.5t54 11t51 5.5v11q-28 1 -52.5 4.5t-54.5 11t-54.5 18.5t-50.5 29.5t-45 42.5t-34.5 58t-23 75t-7 95.5t10.5 117.5q20 116 19 191t-52.5 111t-171.5 36
v182q337 0 498.5 -131.5t115.5 -398.5q-15 -95 -17 -158.5t7.5 -105.5t36.5 -64t63.5 -30.5t94.5 -8.5v-164q-58 0 -94.5 -8t-63.5 -30t-36.5 -64t-7.5 -105.5t17 -158.5q46 -268 -115.5 -399.5t-498.5 -131.5v185z" />
    <glyph glyph-name="asciitilde" unicode="~" horiz-adv-x="1214" 
d="M76 344q0 187 81.5 279t209.5 92q55 0 107 -19t92.5 -45.5t79.5 -53.5t84.5 -46t92.5 -19q73 0 108.5 51.5t35.5 131.5h172q0 -186 -82 -278.5t-211 -92.5q-58 0 -111 18.5t-93 45.5t-78.5 54t-83 45.5t-91.5 18.5q-72 0 -107.5 -51t-35.5 -131h-170z" />
    <glyph glyph-name="exclamdown" unicode="&#xa1;" horiz-adv-x="714" 
d="M252 537h213l129 -1055h-473zM174 698v334h367v-334h-367z" />
    <glyph glyph-name="cent" unicode="&#xa2;" horiz-adv-x="1370" 
d="M469 -358l72 340q-203 39 -326 174.5t-123 355.5q0 109 32.5 200.5t89.5 157.5t134.5 112t168.5 68.5t190 22.5q41 0 61 -2l72 346h96l-76 -358q183 -35 295 -148t129 -274h-364q-10 166 -99 229l-135 -647q50 -16 105 -16q219 0 286 254h211q-35 -220 -189.5 -354
t-410.5 -134q-37 0 -53 2l-70 -329h-96zM504 580q0 -209 96 -308l131 627h-16q-102 0 -156.5 -84.5t-54.5 -234.5z" />
    <glyph glyph-name="sterling" unicode="&#xa3;" horiz-adv-x="1628" 
d="M350 -29q-140 0 -216.5 71t-76.5 181q0 105 74 174.5t199 69.5q117 0 223 -64q-5 125 -98 271h-314v100h248q-61 87 -94 167.5t-33 178.5q0 215 159.5 337t424.5 122q267 0 439 -136.5t208 -391.5h-387q-9 170 -65 263t-156 93q-80 0 -125 -49.5t-45 -145.5
q0 -62 18 -130t50.5 -160t47.5 -148h734v-100h-711q12 -68 12 -144q0 -163 -69 -292q75 -35 151 -35q232 0 232 350h385q0 -274 -145 -426t-382 -152q-187 0 -348 125q-142 -129 -340 -129zM197 219q0 -51 34 -78.5t97 -27.5q65 0 115.5 33t78.5 92q-103 79 -203 79
q-60 0 -91 -25.5t-31 -72.5z" />
    <glyph glyph-name="currency" unicode="&#xa4;" horiz-adv-x="1204" 
d="M602 279q-148 0 -260 73l-170 -172l-84 82l168 168q-96 113 -96 270q0 158 96 271l-168 168l84 80l170 -170q112 73 260 73t260 -73l170 170l86 -80l-170 -168q96 -113 96 -271q0 -157 -96 -270l170 -168l-86 -82l-170 172q-112 -73 -260 -73zM338 700q0 -116 74.5 -191
t189.5 -75q117 0 191.5 75t74.5 191t-74.5 191.5t-191.5 75.5q-115 0 -189.5 -76t-74.5 -191z" />
    <glyph glyph-name="yen" unicode="&#xa5;" horiz-adv-x="1646" 
d="M119 647v103h428l-334 587q-42 81 -80 127.5t-88 75.5v10h686v-10q-26 -18 -34 -53.5t0 -77t28 -86.5l209 -436l215 438q22 45 31.5 85t1.5 76t-37 54v10h448v-10q-101 -59 -178 -209l-309 -581h426v-103h-467v-129h467v-102h-467v-74q0 -135 19 -212.5t71 -119.5v-10
h-653v10q52 43 72 120.5t20 211.5v74h-475v102h475v129h-475z" />
    <glyph glyph-name="brokenbar" unicode="&#xa6;" horiz-adv-x="499" 
d="M160 -244v791h180v-791h-180zM160 969v784h180v-784h-180z" />
    <glyph glyph-name="section" unicode="&#xa7;" horiz-adv-x="1404" 
d="M666 -356q-134 0 -245 44t-195 142.5t-117 243.5h331q10 -118 71.5 -196.5t168.5 -78.5q66 0 101.5 32t35.5 89q0 63 -70 126t-266 190q-217 136 -307 242.5t-90 240.5q0 118 69.5 197.5t190.5 119.5q-57 80 -57 187q0 159 123 252.5t325 93.5q129 0 235 -42.5
t186.5 -138t113.5 -235.5h-326q-10 113 -66.5 186.5t-154.5 73.5q-67 0 -102 -30.5t-35 -86.5q0 -63 72 -128t266 -189q217 -137 307 -243t90 -240q0 -119 -69 -199.5t-189 -120.5q53 -83 53 -180q0 -160 -124 -256t-326 -96zM399 793q0 -26 5 -46t23 -44t36.5 -43t61 -51.5
t81 -59t111.5 -76.5q138 -93 227 -168q62 35 62 115q0 38 -12.5 67t-55 68.5t-92.5 75.5t-156 108q-151 102 -227 168q-64 -36 -64 -114z" />
    <glyph glyph-name="dieresis" unicode="&#xa8;" horiz-adv-x="944" 
d="M532 1223v295h310v-295h-310zM102 1223v295h310v-295h-310z" />
    <glyph glyph-name="copyright" unicode="&#xa9;" horiz-adv-x="1742" 
d="M872 -33q-353 0 -562.5 217.5t-209.5 589.5t209.5 589.5t562.5 217.5q350 0 559 -217.5t209 -589.5t-209 -589.5t-559 -217.5zM221 774q0 -324 177 -514t474 -190q295 0 471.5 190t176.5 514q0 323 -177 514t-471 191q-297 0 -474 -191t-177 -514zM514 770
q0 197 103 308.5t266 111.5q134 0 227.5 -77.5t120.5 -227.5h-207q-11 84 -46 134t-89 50q-64 0 -102.5 -72t-38.5 -190q0 -132 47.5 -205.5t130.5 -73.5q74 0 123 55.5t61 155.5h123q-19 -175 -118 -278t-249 -103q-160 0 -256 111.5t-96 300.5z" />
    <glyph glyph-name="ordfeminine" unicode="&#xaa;" horiz-adv-x="1015" 
d="M293 877q-100 0 -156.5 47.5t-56.5 126.5q0 28 9 52.5t20.5 41.5t36.5 33t42.5 25t54.5 21t56.5 17t63.5 16l36 9q91 22 124.5 45.5t33.5 68.5q0 76 -76 76q-49 0 -77.5 -38t-28.5 -111h-264q10 122 125 193t286 71q71 0 129 -14t106 -45.5t74.5 -88t26.5 -135.5v-158
q0 -58 12.5 -82t42.5 -24q19 0 37 10v-86q-81 -65 -184 -65q-83 0 -140 41.5t-65 138.5q-33 -85 -101 -135.5t-167 -50.5zM115 705v83h780v-83h-780zM367 1108q0 -57 65 -57q55 0 91 49.5t36 124.5v39q-20 -28 -96 -58q-50 -20 -73 -42t-23 -56z" />
    <glyph glyph-name="guillemotleft" unicode="&#xab;" horiz-adv-x="1204" 
d="M631 23l-555 413v111l555 416v-187l-271 -278v-11l271 -280v-184zM563 436v111l555 416v-187l-270 -278v-11l270 -280v-184z" />
    <glyph glyph-name="logicalnot" unicode="&#xac;" horiz-adv-x="1189" 
d="M852 123v405h-770v191l975 2v-598h-205z" />
    <glyph glyph-name="registered" unicode="&#xae;" horiz-adv-x="866" 
d="M510 1057l-86 143h-14v-76q0 -32 6.5 -44.5t29.5 -18.5v-4h-165v4q18 6 24 19.5t6 43.5v174q0 43 -5.5 61.5t-24.5 33.5v6h163q150 0 150 -101q0 -71 -82 -90l123 -145v-6h-125zM84 1221q0 153 96 244t252 91q159 0 254.5 -91t95.5 -244q0 -155 -95.5 -246.5
t-254.5 -91.5q-156 0 -252 92t-96 246zM162 1221q0 -126 72.5 -198.5t197.5 -72.5q126 0 199.5 72.5t73.5 198.5q0 125 -73.5 197.5t-199.5 72.5q-124 0 -197 -72.5t-73 -197.5zM401 1237h33q60 0 60 61q0 54 -60 54h-33v-115z" />
    <glyph glyph-name="macron" unicode="&#xaf;" horiz-adv-x="989" 
d="M102 1249v168h783v-168h-783z" />
    <glyph glyph-name="degree" unicode="&#xb0;" horiz-adv-x="878" 
d="M438 870q-185 0 -296 98.5t-111 256.5q0 159 111 256.5t296 97.5t296.5 -97.5t111.5 -256.5q0 -158 -111.5 -256.5t-296.5 -98.5zM301 1225q0 -226 137 -226q135 0 135 226q0 227 -135 227q-137 0 -137 -227z" />
    <glyph glyph-name="plusminus" unicode="&#xb1;" horiz-adv-x="1208" 
d="M117 0v162h383v321h-383v185h385v397h207v-397h383v-185h-385v-321h385v-162h-975z" />
    <glyph glyph-name="uni00B2" unicode="&#xb2;" horiz-adv-x="995" 
d="M68 956q0 59 15 108t37 84t63 70t76 58.5t93 56.5q74 42 110.5 65.5t71.5 56t47.5 65.5t12.5 79q0 130 -109 130q-147 0 -141 -242h-299q18 165 144.5 273t330.5 108q117 0 207 -30.5t144.5 -94.5t54.5 -154q0 -40 -12 -74.5t-30 -60t-50 -50t-59.5 -40.5t-72.5 -34.5
t-75 -29t-80 -27.5q-26 -9 -39 -13q-148 -61 -176 -99h600v-239h-864v34z" />
    <glyph glyph-name="uni00B3" unicode="&#xb3;" horiz-adv-x="970" 
d="M498 893q-206 0 -324 99t-129 278h170q4 -101 63 -152t152 -51q78 0 121 37.5t43 107.5q0 129 -152 129h-86v105h86q75 0 110.5 45.5t35.5 114.5q0 57 -28.5 86.5t-80.5 29.5q-62 0 -103.5 -44t-47.5 -132h-281q20 153 149 237.5t328 84.5q175 0 283 -65.5t108 -186.5
q0 -90 -75 -144.5t-203 -66.5q143 -9 223 -63t80 -156q0 -134 -126.5 -213.5t-315.5 -79.5z" />
    <glyph glyph-name="acute" unicode="&#xb4;" horiz-adv-x="706" 
d="M102 1178l152 372h350l-389 -372h-113z" />
    <glyph glyph-name="uni00B5" unicode="&#xb5;" horiz-adv-x="1456" 
d="M326 -412q-92 67 -150.5 189t-58.5 276v631q0 135 -16 212.5t-58 121.5v8h569v-8q-39 -44 -54 -121.5t-15 -212.5v-262q0 -111 34.5 -159t104.5 -48q78 0 131.5 77.5t65.5 215.5v176q0 133 -16.5 211.5t-59.5 122.5v8h573v-8q-42 -44 -57.5 -121t-15.5 -213v-334
q0 -92 19 -129t64 -37q31 0 66 21l2 -131q-129 -92 -283 -92q-107 0 -188 66.5t-94 201.5q-38 -123 -120 -203t-183 -80q-53 0 -101 23v-35q0 -142 14 -223.5t50 -143.5h-223z" />
    <glyph glyph-name="paragraph" unicode="&#xb6;" horiz-adv-x="1542" 
d="M578 606q-109 0 -200 24t-168 76.5t-121 147t-44 223.5q0 105 29.5 187t79 135t119 87.5t144.5 49t161 14.5h888v-161h-221v-1672h-164v1672h-217v-1672h-164v889h-122z" />
    <glyph glyph-name="periodcentered" unicode="&#xb7;" horiz-adv-x="569" 
d="M102 352v334h367v-334h-367z" />
    <glyph glyph-name="cedilla" unicode="&#xb8;" horiz-adv-x="854" 
d="M446 -514q-105 0 -199 36t-145 99l72 70q27 -37 89 -64.5t124 -27.5q137 0 137 82q0 41 -36.5 63.5t-102.5 22.5q-48 0 -92 -13l-55 51l157 199h123l-86 -113q32 7 64 7q116 0 187 -51t71 -142q0 -73 -47.5 -124.5t-115 -73t-145.5 -21.5z" />
    <glyph glyph-name="uni00B9" unicode="&#xb9;" horiz-adv-x="765" 
d="M168 922v8q49 37 67.5 102t18.5 178v318q-28 -44 -95 -83t-141 -42v186q124 6 215 80t129 180h232v-639q0 -112 18 -177.5t64 -102.5v-8h-508z" />
    <glyph glyph-name="ordmasculine" unicode="&#xba;" horiz-adv-x="983" 
d="M489 872q-187 0 -299 93.5t-112 257.5q0 162 113.5 255t302.5 93q187 0 299 -93t112 -255q0 -164 -113.5 -257.5t-302.5 -93.5zM123 705v83h739v-83h-739zM350 1223q0 -114 37 -172t105 -58t104.5 58t36.5 172q0 229 -141 229q-142 0 -142 -229z" />
    <glyph glyph-name="guillemotright" unicode="&#xbb;" horiz-adv-x="1204" 
d="M573 23v184l271 280v11l-271 278v187l555 -416v-111zM86 23v184l270 280v11l-270 278v187l555 -416v-111z" />
    <glyph glyph-name="onequarter" unicode="&#xbc;" horiz-adv-x="2074" 
d="M168 653v9q49 37 67.5 102t18.5 178v318q-28 -44 -95 -83t-141 -42v186q124 6 215 80t129 180h232v-639q0 -112 18 -177.5t64 -102.5v-9h-508zM254 0l1178 1550h202l-1177 -1550h-203zM1038 188v146l561 594h265v-535h186v-205h-184v-22q0 -63 16 -100t53 -60v-6h-469v6
q70 46 70 160v22h-498zM1243 393h293v316z" />
    <glyph glyph-name="onehalf" unicode="&#xbd;" horiz-adv-x="2117" 
d="M168 653v9q49 37 67.5 102t18.5 178v318q-28 -44 -95 -83t-141 -42v186q124 6 215 80t129 180h232v-639q0 -112 18 -177.5t64 -102.5v-9h-508zM254 0l1178 1550h202l-1177 -1550h-203zM1167 565q18 165 144.5 273t330.5 108q180 0 293 -72t113 -206q0 -55 -23 -100.5
t-57 -76t-88 -58t-101.5 -44.5t-111.5 -39q-25 -8 -37 -12q-149 -62 -176 -98h600v-240h-864v35q0 59 15 108t37.5 84t63.5 70.5t76 58t93 56.5q59 34 90.5 53.5t65.5 45.5t49.5 48.5t25.5 52t10 66.5q0 129 -108 129q-148 0 -142 -242h-299z" />
    <glyph glyph-name="threequarters" unicode="&#xbe;" horiz-adv-x="2279" 
d="M498 625q-206 0 -324 98.5t-129 277.5h170q4 -101 63 -151.5t152 -50.5q78 0 121 37.5t43 107.5q0 129 -152 129h-86v105h86q75 0 110.5 45t35.5 114q0 58 -28.5 87.5t-80.5 29.5q-62 0 -103.5 -44t-47.5 -132h-281q20 153 149 237t328 84q175 0 283 -65t108 -186
q0 -90 -75 -144.5t-203 -66.5q143 -9 223 -63t80 -156q0 -134 -126.5 -213.5t-315.5 -79.5zM459 0l1177 1550h203l-1177 -1550h-203zM1243 188v146l561 594h264v-535h187v-205h-184v-22q0 -63 16 -100t53 -60v-6h-469v6q70 46 70 160v22h-498zM1448 393h293v316z" />
    <glyph glyph-name="questiondown" unicode="&#xbf;" horiz-adv-x="1228" 
d="M838 537q57 -88 57 -166q0 -48 -23 -92t-59.5 -79.5t-81 -70t-89 -70t-81 -72t-59.5 -84t-23 -98.5q0 -68 32 -108.5t95 -40.5q96 0 148 79t57 230h379q-11 -130 -65 -230t-141 -161t-197.5 -92t-241.5 -31q-241 0 -376.5 94.5t-135.5 257.5q0 77 32.5 139t84.5 102.5
t115 73.5t126 60t115 54t84.5 63t32.5 80q0 27 -19.5 57.5t-40.5 51t-59 53.5h334zM477 698v334h367v-334h-367z" />
    <glyph glyph-name="Agrave" unicode="&#xc0;" horiz-adv-x="1738" 
d="M-16 8q124 81 194 262l434 1116q40 103 17 164h463l495 -1294q69 -179 168 -246v-10h-727v10q67 33 79.5 93.5t-17.5 146.5l-52 164h-542l-56 -156q-36 -99 -26.5 -158t71.5 -92v-8h-501v8zM373 2011h393l178 -317h-162zM557 592h426l-201 639z" />
    <glyph glyph-name="Aacute" unicode="&#xc1;" horiz-adv-x="1738" 
d="M-16 8q124 81 194 262l434 1116q40 103 17 164h463l495 -1294q69 -179 168 -246v-10h-727v10q67 33 79.5 93.5t-17.5 146.5l-52 164h-542l-56 -156q-36 -99 -26.5 -158t71.5 -92v-8h-501v8zM557 592h426l-201 639zM774 1694l178 317h394l-408 -317h-164z" />
    <glyph glyph-name="Acircumflex" unicode="&#xc2;" horiz-adv-x="1738" 
d="M-16 8q124 81 194 262l434 1116q40 103 17 164h463l495 -1294q69 -179 168 -246v-10h-727v10q67 33 79.5 93.5t-17.5 146.5l-52 164h-542l-56 -156q-36 -99 -26.5 -158t71.5 -92v-8h-501v8zM442 1694l316 317h203l315 -317h-180l-236 168l-237 -168h-181zM557 592h426
l-201 639z" />
    <glyph glyph-name="Atilde" unicode="&#xc3;" horiz-adv-x="1738" 
d="M-16 8q124 81 194 262l434 1116q40 103 17 164h463l495 -1294q69 -179 168 -246v-10h-727v10q67 33 79.5 93.5t-17.5 146.5l-52 164h-542l-56 -156q-36 -99 -26.5 -158t71.5 -92v-8h-501v8zM471 1698q0 327 234 327q53 0 95.5 -17t70 -40.5t51.5 -47.5t53 -41t61 -17
q48 0 67 35t21 116h125q-3 -327 -231 -327q-52 0 -94.5 16.5t-70.5 40t-52.5 47.5t-54 40.5t-62.5 16.5q-48 0 -68 -36t-20 -113h-125zM557 592h426l-201 639z" />
    <glyph glyph-name="Adieresis" unicode="&#xc4;" horiz-adv-x="1738" 
d="M-16 8q124 81 194 262l434 1116q40 103 17 164h463l495 -1294q69 -179 168 -246v-10h-727v10q67 33 79.5 93.5t-17.5 146.5l-52 164h-542l-56 -156q-36 -99 -26.5 -158t71.5 -92v-8h-501v8zM479 1702v295h307v-295h-307zM557 592h426l-201 639zM936 1702v295h307v-295
h-307z" />
    <glyph glyph-name="Aring" unicode="&#xc5;" horiz-adv-x="1738" 
d="M-16 8q124 81 194 262l434 1116q40 103 17 164h463l495 -1294q69 -179 168 -246v-10h-727v10q67 33 79.5 93.5t-17.5 146.5l-52 164h-542l-56 -156q-36 -99 -26.5 -158t71.5 -92v-8h-501v8zM557 592h426l-201 639zM598 1876q0 99 70.5 157t189.5 58q122 0 193 -57.5
t71 -157.5q0 -101 -71 -158t-193 -57q-119 0 -189.5 57.5t-70.5 157.5zM725 1876q0 -54 36.5 -86.5t96.5 -32.5q61 0 97 32.5t36 86.5q0 53 -36 85t-97 32q-60 0 -96.5 -32t-36.5 -85z" />
    <glyph glyph-name="AE" unicode="&#xc6;" horiz-adv-x="2207" 
d="M-106 8q115 66 266 332l688 1210h1259v-331q-202 83 -296.5 112t-196.5 29h-137v-471h63q185 0 455 12v-199q-248 11 -455 11h-63v-520h125q139 0 252 28t296 115v-336h-1228v10q52 42 71 119.5t19 212.5v98h-516l-64 -118q-61 -112 -75 -192.5t28 -121.5v-8h-491v8z
M592 621h420v587q0 79 -6 140h-25z" />
    <glyph glyph-name="Ccedilla" unicode="&#xc7;" horiz-adv-x="1804" 
d="M924 -514q-105 0 -199 36t-145 99l71 70q27 -37 89 -64.5t124 -27.5q137 0 137 82q0 41 -36.5 63.5t-102.5 22.5q-48 0 -92 -13l-55 51l131 166q-351 15 -565.5 232.5t-214.5 566.5q0 189 66 342.5t182 255t273 156.5t341 55q315 0 532 -151.5t283 -438.5h-451
q-28 173 -117.5 278t-236.5 105q-116 0 -203.5 -73t-132.5 -195.5t-45 -274.5q0 -271 121 -416t334 -145q192 0 316.5 117t160.5 320h264q-43 -324 -250.5 -519t-531.5 -215l-62 -80q31 7 64 7q116 0 187 -51t71 -142q0 -73 -47.5 -124.5t-114.5 -73t-145 -21.5z" />
    <glyph glyph-name="Egrave" unicode="&#xc8;" horiz-adv-x="1378" 
d="M92 0v10q52 42 71 119.5t19 212.5v866q0 136 -19 213t-71 119v10h1186v-331q-201 83 -296.5 112t-197.5 29h-137v-471h64q184 0 454 12v-199q-247 11 -454 11h-64v-520h125q139 0 253 28t296 115v-336h-1229zM211 2011h393l178 -317h-161z" />
    <glyph glyph-name="Eacute" unicode="&#xc9;" horiz-adv-x="1378" 
d="M92 0v10q52 42 71 119.5t19 212.5v866q0 136 -19 213t-71 119v10h1186v-331q-201 83 -296.5 112t-197.5 29h-137v-471h64q184 0 454 12v-199q-247 11 -454 11h-64v-520h125q139 0 253 28t296 115v-336h-1229zM612 1694l179 317h393l-408 -317h-164z" />
    <glyph glyph-name="Ecircumflex" unicode="&#xca;" horiz-adv-x="1378" 
d="M92 0v10q52 42 71 119.5t19 212.5v866q0 136 -19 213t-71 119v10h1186v-331q-201 83 -296.5 112t-197.5 29h-137v-471h64q184 0 454 12v-199q-247 11 -454 11h-64v-520h125q139 0 253 28t296 115v-336h-1229zM283 1694l315 317h203l315 -317h-180l-236 168l-237 -168
h-180z" />
    <glyph glyph-name="Edieresis" unicode="&#xcb;" horiz-adv-x="1378" 
d="M92 0v10q52 42 71 119.5t19 212.5v866q0 136 -19 213t-71 119v10h1186v-331q-201 83 -296.5 112t-197.5 29h-137v-471h64q184 0 454 12v-199q-247 11 -454 11h-64v-520h125q139 0 253 28t296 115v-336h-1229zM317 1702v295h308v-295h-308zM774 1702v295h307v-295h-307z
" />
    <glyph glyph-name="Igrave" unicode="&#xcc;" horiz-adv-x="829" 
d="M92 0v10q52 42 71 119.5t19 212.5v866q0 136 -19 213t-71 119v10h645v-10q-52 -42 -71 -119t-19 -213v-866q0 -135 19 -212.5t71 -119.5v-10h-645zM-74 1991h393l179 -318h-162z" />
    <glyph glyph-name="Iacute" unicode="&#xcd;" horiz-adv-x="829" 
d="M92 0v10q52 42 71 119.5t19 212.5v866q0 136 -19 213t-71 119v10h645v-10q-52 -42 -71 -119t-19 -213v-866q0 -135 19 -212.5t71 -119.5v-10h-645zM328 1673l178 318h393l-407 -318h-164z" />
    <glyph glyph-name="Icircumflex" unicode="&#xce;" horiz-adv-x="829" 
d="M92 0v10q52 42 71 119.5t19 212.5v866q0 136 -19 213t-71 119v10h645v-10q-52 -42 -71 -119t-19 -213v-866q0 -135 19 -212.5t71 -119.5v-10h-645zM-4 1673l315 318h203l315 -318h-180l-235 168l-238 -168h-180z" />
    <glyph glyph-name="Idieresis" unicode="&#xcf;" horiz-adv-x="829" 
d="M92 0v10q52 42 71 119.5t19 212.5v866q0 136 -19 213t-71 119v10h645v-10q-52 -42 -71 -119t-19 -213v-866q0 -135 19 -212.5t71 -119.5v-10h-645zM33 1681v295h307v-295h-307zM489 1681v295h308v-295h-308z" />
    <glyph glyph-name="Eth" unicode="&#xd0;" horiz-adv-x="1837" 
d="M92 0v10q52 42 71 119.5t19 212.5v379h-170v149h170v338q0 136 -19 213t-71 119v10h737q440 0 690 -202.5t250 -571.5q0 -368 -249.5 -572t-690.5 -204h-737zM647 197h150q229 0 358 149t129 428q0 287 -127 433.5t-360 146.5h-150v-484h352v-149h-352v-524z" />
    <glyph glyph-name="Ntilde" unicode="&#xd1;" horiz-adv-x="1695" 
d="M1108 0l-676 1049v-678q0 -145 24 -229.5t87 -131.5v-10h-451v10q52 47 71 131t19 230v837q0 134 -15.5 211.5t-55.5 120.5v10h477l678 -1042v672q0 145 -23 228.5t-84 131.5v10h445v-10q-50 -47 -69 -130.5t-19 -229.5v-1180h-408zM477 1698q0 327 234 327
q53 0 95.5 -17t70 -40.5t51.5 -47.5t53 -41t61 -17q48 0 67 35t21 116h125q-3 -327 -231 -327q-52 0 -94.5 16.5t-70.5 40t-52.5 47.5t-54 40.5t-62.5 16.5q-48 0 -68 -36t-20 -113h-125z" />
    <glyph glyph-name="Ograve" unicode="&#xd2;" horiz-adv-x="1908" 
d="M956 -37q-200 0 -365.5 57.5t-281 162t-179.5 256t-64 335.5q0 183 64 334t179.5 255t281 161t365.5 57q264 0 465 -98t311.5 -282.5t110.5 -430.5q0 -244 -110.5 -427.5t-311.5 -281.5t-465 -98zM469 2011h393l178 -317h-161zM557 770q0 -280 103 -438t296 -158
q192 0 295 158.5t103 441.5q0 280 -103.5 438t-294.5 158q-193 0 -296 -158.5t-103 -441.5z" />
    <glyph glyph-name="Oacute" unicode="&#xd3;" horiz-adv-x="1908" 
d="M956 -37q-200 0 -365.5 57.5t-281 162t-179.5 256t-64 335.5q0 183 64 334t179.5 255t281 161t365.5 57q264 0 465 -98t311.5 -282.5t110.5 -430.5q0 -244 -110.5 -427.5t-311.5 -281.5t-465 -98zM557 770q0 -280 103 -438t296 -158q192 0 295 158.5t103 441.5
q0 280 -103.5 438t-294.5 158q-193 0 -296 -158.5t-103 -441.5zM870 1694l179 317h393l-408 -317h-164z" />
    <glyph glyph-name="Ocircumflex" unicode="&#xd4;" horiz-adv-x="1908" 
d="M956 -37q-200 0 -365.5 57.5t-281 162t-179.5 256t-64 335.5q0 183 64 334t179.5 255t281 161t365.5 57q264 0 465 -98t311.5 -282.5t110.5 -430.5q0 -244 -110.5 -427.5t-311.5 -281.5t-465 -98zM539 1694l315 317h203l315 -317h-180l-236 168l-237 -168h-180zM557 770
q0 -280 103 -438t296 -158q192 0 295 158.5t103 441.5q0 280 -103.5 438t-294.5 158q-193 0 -296 -158.5t-103 -441.5z" />
    <glyph glyph-name="Otilde" unicode="&#xd5;" horiz-adv-x="1908" 
d="M956 -37q-200 0 -365.5 57.5t-281 162t-179.5 256t-64 335.5q0 183 64 334t179.5 255t281 161t365.5 57q264 0 465 -98t311.5 -282.5t110.5 -430.5q0 -244 -110.5 -427.5t-311.5 -281.5t-465 -98zM557 770q0 -280 103 -438t296 -158q192 0 295 158.5t103 441.5
q0 280 -103.5 438t-294.5 158q-193 0 -296 -158.5t-103 -441.5zM567 1698q0 327 234 327q53 0 95.5 -17t70 -40.5t52 -47.5t53.5 -41t61 -17q48 0 67 35t21 116h125q-3 -327 -232 -327q-52 0 -94.5 16.5t-70.5 40t-52.5 47.5t-54 40.5t-62.5 16.5q-48 0 -68 -36t-20 -113
h-125z" />
    <glyph glyph-name="Odieresis" unicode="&#xd6;" horiz-adv-x="1908" 
d="M956 -37q-200 0 -365.5 57.5t-281 162t-179.5 256t-64 335.5q0 183 64 334t179.5 255t281 161t365.5 57q264 0 465 -98t311.5 -282.5t110.5 -430.5q0 -244 -110.5 -427.5t-311.5 -281.5t-465 -98zM557 770q0 -280 103 -438t296 -158q192 0 295 158.5t103 441.5
q0 280 -103.5 438t-294.5 158q-193 0 -296 -158.5t-103 -441.5zM575 1702v295h308v-295h-308zM1032 1702v295h307v-295h-307z" />
    <glyph glyph-name="multiply" unicode="&#xd7;" horiz-adv-x="1173" 
d="M295 117l-135 135l293 291l-293 291l135 135l293 -291l293 291l133 -135l-291 -291l291 -291l-133 -135l-293 291z" />
    <glyph glyph-name="Oslash" unicode="&#xd8;" horiz-adv-x="1908" 
d="M504 -336l-103 49l152 324q-230 90 -358.5 282.5t-128.5 456.5q0 183 64 334t179.5 255t281 161t365.5 57q162 0 306 -39l149 318l102 -50l-143 -305q224 -92 348.5 -282.5t124.5 -452.5q0 -244 -110.5 -427.5t-311.5 -281.5t-465 -98q-157 0 -294 35zM557 772
q0 -308 123 -465l473 1008q-82 57 -197 57q-193 0 -296 -158.5t-103 -441.5zM768 227q82 -51 188 -51q192 0 295 158.5t103 441.5q0 298 -115 455z" />
    <glyph glyph-name="Ugrave" unicode="&#xd9;" horiz-adv-x="1677" 
d="M858 -37q-121 0 -222 21t-190.5 71.5t-151 129t-97 199t-35.5 275.5v549q0 136 -19 213t-71 119v10h645v-10q-52 -42 -71 -119t-19 -213v-561q0 -234 70 -339t231 -105q164 0 244.5 108t80.5 336v561q0 136 -19 213t-71 119v10h443v-10q-52 -43 -72.5 -120.5
t-20.5 -211.5v-549q0 -360 -166.5 -528t-488.5 -168zM444 2011h394l178 -317h-162z" />
    <glyph glyph-name="Uacute" unicode="&#xda;" horiz-adv-x="1677" 
d="M858 -37q-121 0 -222 21t-190.5 71.5t-151 129t-97 199t-35.5 275.5v549q0 136 -19 213t-71 119v10h645v-10q-52 -42 -71 -119t-19 -213v-561q0 -234 70 -339t231 -105q164 0 244.5 108t80.5 336v561q0 136 -19 213t-71 119v10h443v-10q-52 -43 -72.5 -120.5
t-20.5 -211.5v-549q0 -360 -166.5 -528t-488.5 -168zM846 1694l178 317h393l-407 -317h-164z" />
    <glyph glyph-name="Ucircumflex" unicode="&#xdb;" horiz-adv-x="1677" 
d="M858 -37q-121 0 -222 21t-190.5 71.5t-151 129t-97 199t-35.5 275.5v549q0 136 -19 213t-71 119v10h645v-10q-52 -42 -71 -119t-19 -213v-561q0 -234 70 -339t231 -105q164 0 244.5 108t80.5 336v561q0 136 -19 213t-71 119v10h443v-10q-52 -43 -72.5 -120.5
t-20.5 -211.5v-549q0 -360 -166.5 -528t-488.5 -168zM514 1694l315 317h203l316 -317h-181l-235 168l-238 -168h-180z" />
    <glyph glyph-name="Udieresis" unicode="&#xdc;" horiz-adv-x="1677" 
d="M858 -37q-121 0 -222 21t-190.5 71.5t-151 129t-97 199t-35.5 275.5v549q0 136 -19 213t-71 119v10h645v-10q-52 -42 -71 -119t-19 -213v-561q0 -234 70 -339t231 -105q164 0 244.5 108t80.5 336v561q0 136 -19 213t-71 119v10h443v-10q-52 -43 -72.5 -120.5
t-20.5 -211.5v-549q0 -360 -166.5 -528t-488.5 -168zM551 1702v295h307v-295h-307zM1008 1702v295h307v-295h-307z" />
    <glyph glyph-name="Yacute" unicode="&#xdd;" horiz-adv-x="1527" 
d="M158 1337q-42 81 -80 127.5t-88 75.5v10h686v-10q-26 -18 -34 -53.5t0 -77t28 -86.5l209 -436l215 438q22 45 31.5 85t1.5 76t-37 54v10h448v-10q-101 -59 -178 -209l-350 -659v-330q0 -135 19 -212.5t71 -119.5v-10h-654v10q52 43 72.5 121t20.5 211v324zM766 1694
l178 317h393l-407 -317h-164z" />
    <glyph glyph-name="Thorn" unicode="&#xde;" horiz-adv-x="1552" 
d="M92 0v10q52 42 71 119.5t19 212.5v866q0 136 -19 213t-71 119v10h645v-10q-48 -40 -67.5 -107.5t-22.5 -185.5h133q358 0 539.5 -104.5t181.5 -335.5q0 -119 -53.5 -207.5t-153.5 -142t-235.5 -79.5t-308.5 -26h-103v-10q0 -135 19 -212.5t71 -119.5v-10h-645zM647 526
h72q153 0 233 67.5t80 213.5q0 258 -289 258h-96v-539z" />
    <glyph glyph-name="germandbls" unicode="&#xdf;" horiz-adv-x="1488" 
d="M989 -23q-106 0 -190.5 33t-124.5 88v209q28 -61 89 -96t126 -35q59 0 98 30.5t39 88.5q0 48 -35.5 101.5t-118.5 127.5q-104 92 -146 157.5t-42 129.5q0 34 7 60.5t28 55t39 47.5t59 58q76 74 102.5 116t26.5 109q0 71 -42 116.5t-124 45.5q-109 0 -166 -88t-57 -264
v-725q0 -134 15 -211.5t53 -120.5v-10h-566v10q45 42 62.5 120t17.5 212v637q0 298 171.5 465.5t490.5 167.5q227 0 369.5 -84.5t142.5 -227.5q0 -23 -3.5 -43.5t-13 -38.5t-16.5 -31t-25 -28t-26.5 -23t-32 -22t-31 -18t-35 -18t-32.5 -17q-41 -20 -58.5 -29.5t-40 -25.5
t-30.5 -32.5t-8 -37.5q0 -24 11 -45.5t37.5 -46t48.5 -40.5t66 -46q59 -40 96 -67t82.5 -69t71.5 -80t44 -90t18 -108q0 -165 -126.5 -266t-320.5 -101z" />
    <glyph glyph-name="agrave" unicode="&#xe0;" horiz-adv-x="1337" 
d="M369 -35q-152 0 -238 71t-86 197q0 60 20.5 107t54.5 80.5t94.5 63t122 50.5t155.5 46q165 43 221.5 80t56.5 112q1 64 -32.5 97.5t-98.5 33.5q-86 0 -137.5 -60t-52.5 -181h-363q10 125 99 219t222.5 140t288.5 46q84 0 155 -13t135.5 -45t109.5 -80.5t71.5 -124
t26.5 -171.5v-287q0 -91 18.5 -127.5t61.5 -36.5q31 0 59 21l2 -133q-124 -93 -270 -93q-54 0 -101 14.5t-88.5 45t-67.5 86t-30 129.5q-46 -131 -151 -209t-258 -78zM213 1550h350l152 -372h-113zM444 313q0 -53 31.5 -79.5t81.5 -26.5q95 0 155 81.5t60 211.5v82
q-13 -29 -48.5 -50.5t-115.5 -50.5q-89 -33 -126.5 -71t-37.5 -97z" />
    <glyph glyph-name="aacute" unicode="&#xe1;" horiz-adv-x="1337" 
d="M369 -35q-152 0 -238 71t-86 197q0 60 20.5 107t54.5 80.5t94.5 63t122 50.5t155.5 46q165 43 221.5 80t56.5 112q1 64 -32.5 97.5t-98.5 33.5q-86 0 -137.5 -60t-52.5 -181h-363q10 125 99 219t222.5 140t288.5 46q84 0 155 -13t135.5 -45t109.5 -80.5t71.5 -124
t26.5 -171.5v-287q0 -91 18.5 -127.5t61.5 -36.5q31 0 59 21l2 -133q-124 -93 -270 -93q-54 0 -101 14.5t-88.5 45t-67.5 86t-30 129.5q-46 -131 -151 -209t-258 -78zM444 313q0 -53 31.5 -79.5t81.5 -26.5q95 0 155 81.5t60 211.5v82q-13 -29 -48.5 -50.5t-115.5 -50.5
q-89 -33 -126.5 -71t-37.5 -97zM610 1178l152 372h350l-389 -372h-113z" />
    <glyph glyph-name="acircumflex" unicode="&#xe2;" horiz-adv-x="1337" 
d="M369 -35q-152 0 -238 71t-86 197q0 60 20.5 107t54.5 80.5t94.5 63t122 50.5t155.5 46q165 43 221.5 80t56.5 112q1 64 -32.5 97.5t-98.5 33.5q-86 0 -137.5 -60t-52.5 -181h-363q10 125 99 219t222.5 140t288.5 46q84 0 155 -13t135.5 -45t109.5 -80.5t71.5 -124
t26.5 -171.5v-287q0 -91 18.5 -127.5t61.5 -36.5q31 0 59 21l2 -133q-124 -93 -270 -93q-54 0 -101 14.5t-88.5 45t-67.5 86t-30 129.5q-46 -131 -151 -209t-258 -78zM283 1178l284 366h187l286 -366h-170l-208 204l-209 -204h-170zM444 313q0 -53 31.5 -79.5t81.5 -26.5
q95 0 155 81.5t60 211.5v82q-13 -29 -48.5 -50.5t-115.5 -50.5q-89 -33 -126.5 -71t-37.5 -97z" />
    <glyph glyph-name="atilde" unicode="&#xe3;" horiz-adv-x="1337" 
d="M369 -35q-152 0 -238 71t-86 197q0 60 20.5 107t54.5 80.5t94.5 63t122 50.5t155.5 46q165 43 221.5 80t56.5 112q1 64 -32.5 97.5t-98.5 33.5q-86 0 -137.5 -60t-52.5 -181h-363q10 125 99 219t222.5 140t288.5 46q84 0 155 -13t135.5 -45t109.5 -80.5t71.5 -124
t26.5 -171.5v-287q0 -91 18.5 -127.5t61.5 -36.5q31 0 59 21l2 -133q-124 -93 -270 -93q-54 0 -101 14.5t-88.5 45t-67.5 86t-30 129.5q-46 -131 -151 -209t-258 -78zM276 1186q-3 381 224 381q50 0 91.5 -19t68.5 -46t52 -54.5t55 -46.5t64 -19q51 0 73 42t20 132h110
q0 -206 -55 -295.5t-160 -89.5q-51 0 -93.5 19.5t-71 46.5t-54.5 54.5t-56.5 47t-64.5 19.5q-52 0 -73 -41.5t-21 -130.5h-109zM444 313q0 -53 31.5 -79.5t81.5 -26.5q95 0 155 81.5t60 211.5v82q-13 -29 -48.5 -50.5t-115.5 -50.5q-89 -33 -126.5 -71t-37.5 -97z" />
    <glyph glyph-name="adieresis" unicode="&#xe4;" horiz-adv-x="1337" 
d="M369 -35q-152 0 -238 71t-86 197q0 60 20.5 107t54.5 80.5t94.5 63t122 50.5t155.5 46q165 43 221.5 80t56.5 112q1 64 -32.5 97.5t-98.5 33.5q-86 0 -137.5 -60t-52.5 -181h-363q10 125 99 219t222.5 140t288.5 46q84 0 155 -13t135.5 -45t109.5 -80.5t71.5 -124
t26.5 -171.5v-287q0 -91 18.5 -127.5t61.5 -36.5q31 0 59 21l2 -133q-124 -93 -270 -93q-54 0 -101 14.5t-88.5 45t-67.5 86t-30 129.5q-46 -131 -151 -209t-258 -78zM291 1223v295h309v-295h-309zM444 313q0 -53 31.5 -79.5t81.5 -26.5q95 0 155 81.5t60 211.5v82
q-13 -29 -48.5 -50.5t-115.5 -50.5q-89 -33 -126.5 -71t-37.5 -97zM721 1223v295h309v-295h-309z" />
    <glyph glyph-name="aring" unicode="&#xe5;" horiz-adv-x="1337" 
d="M369 -35q-152 0 -238 71t-86 197q0 60 20.5 107t54.5 80.5t94.5 63t122 50.5t155.5 46q165 43 221.5 80t56.5 112q1 64 -32.5 97.5t-98.5 33.5q-86 0 -137.5 -60t-52.5 -181h-363q10 125 99 219t222.5 140t288.5 46q84 0 155 -13t135.5 -45t109.5 -80.5t71.5 -124
t26.5 -171.5v-287q0 -91 18.5 -127.5t61.5 -36.5q31 0 59 21l2 -133q-124 -93 -270 -93q-54 0 -101 14.5t-88.5 45t-67.5 86t-30 129.5q-46 -131 -151 -209t-258 -78zM399 1403q0 100 72 162.5t191 62.5t190.5 -62t71.5 -163t-71.5 -163t-190.5 -62t-191 62.5t-72 162.5z
M444 313q0 -53 31.5 -79.5t81.5 -26.5q95 0 155 81.5t60 211.5v82q-13 -29 -48.5 -50.5t-115.5 -50.5q-89 -33 -126.5 -71t-37.5 -97zM528 1403q0 -58 35.5 -92.5t95.5 -34.5q62 0 98 34.5t36 92.5t-36 92.5t-98 34.5q-60 0 -95.5 -34.5t-35.5 -92.5z" />
    <glyph glyph-name="ae" unicode="&#xe6;" horiz-adv-x="2000" 
d="M1364 -39q-183 0 -316 89t-186 255q-52 -161 -175.5 -250.5t-303.5 -89.5q-161 0 -249.5 71t-88.5 197q0 59 21 106t54.5 80t93.5 62.5t120.5 50t152.5 46.5q168 45 226 82t59 112q0 64 -34 97.5t-99 33.5q-88 0 -139 -61t-51 -180h-361q7 94 58 172t130 127.5
t175.5 76.5t197.5 29q229 3 352 -131q151 129 381 129q260 0 409.5 -141.5t152.5 -378.5h-779q6 -163 81 -254.5t212 -91.5q217 0 289 229h197q-19 -99 -63 -182t-114 -148t-173 -101t-230 -36zM444 311q0 -52 31.5 -78t83.5 -26q97 0 157 81t62 212v84q-13 -29 -50 -51.5
t-116 -51.5q-91 -35 -129.5 -72.5t-38.5 -97.5zM1169 651h400q-11 125 -59.5 190.5t-131.5 65.5q-87 0 -141 -67t-68 -189z" />
    <glyph glyph-name="ccedilla" unicode="&#xe7;" horiz-adv-x="1300" 
d="M674 -514q-105 0 -199 36t-145 99l71 70q27 -37 89 -64.5t124 -27.5q138 0 138 82q0 41 -37 63.5t-103 22.5q-48 0 -92 -13l-55 51l125 158q-113 9 -209 47t-169 104t-114 166t-41 224q0 109 32.5 200.5t89.5 157.5t134.5 112t168.5 68.5t190 22.5q246 0 401 -121
t176 -315h-364q-8 116 -58 189t-147 73q-101 0 -156 -85t-55 -235q0 -175 71 -275.5t216 -100.5q219 0 286 254h211q-34 -206 -172 -337.5t-368 -148.5l-54 -72q31 7 64 7q116 0 187 -51t71 -142q0 -73 -47.5 -124.5t-114.5 -73t-145 -21.5z" />
    <glyph glyph-name="egrave" unicode="&#xe8;" horiz-adv-x="1312" 
d="M653 -39q-127 0 -235 36t-188.5 103t-126.5 171t-46 233q0 134 49 242t133.5 177t194.5 105.5t236 36.5q271 0 426.5 -143t158.5 -381h-798q8 -162 82.5 -250t210.5 -88q219 0 294 225h209q-20 -100 -65 -182.5t-116.5 -147.5t-178.5 -101t-240 -36zM211 1550h350
l152 -372h-113zM461 655h407q-11 122 -61 186t-137 64q-85 0 -139.5 -65.5t-69.5 -184.5z" />
    <glyph glyph-name="eacute" unicode="&#xe9;" horiz-adv-x="1312" 
d="M653 -39q-127 0 -235 36t-188.5 103t-126.5 171t-46 233q0 134 49 242t133.5 177t194.5 105.5t236 36.5q271 0 426.5 -143t158.5 -381h-798q8 -162 82.5 -250t210.5 -88q219 0 294 225h209q-20 -100 -65 -182.5t-116.5 -147.5t-178.5 -101t-240 -36zM461 655h407
q-11 122 -61 186t-137 64q-85 0 -139.5 -65.5t-69.5 -184.5zM608 1178l152 372h350l-389 -372h-113z" />
    <glyph glyph-name="ecircumflex" unicode="&#xea;" horiz-adv-x="1312" 
d="M653 -39q-127 0 -235 36t-188.5 103t-126.5 171t-46 233q0 134 49 242t133.5 177t194.5 105.5t236 36.5q271 0 426.5 -143t158.5 -381h-798q8 -162 82.5 -250t210.5 -88q219 0 294 225h209q-20 -100 -65 -182.5t-116.5 -147.5t-178.5 -101t-240 -36zM283 1178l284 366
h187l286 -366h-170l-208 204l-209 -204h-170zM461 655h407q-11 122 -61 186t-137 64q-85 0 -139.5 -65.5t-69.5 -184.5z" />
    <glyph glyph-name="edieresis" unicode="&#xeb;" horiz-adv-x="1312" 
d="M653 -39q-127 0 -235 36t-188.5 103t-126.5 171t-46 233q0 134 49 242t133.5 177t194.5 105.5t236 36.5q271 0 426.5 -143t158.5 -381h-798q8 -162 82.5 -250t210.5 -88q219 0 294 225h209q-20 -100 -65 -182.5t-116.5 -147.5t-178.5 -101t-240 -36zM289 1223v295h309
v-295h-309zM461 655h407q-11 122 -61 186t-137 64q-85 0 -139.5 -65.5t-69.5 -184.5zM719 1223v295h309v-295h-309z" />
    <glyph glyph-name="igrave" unicode="&#xec;" horiz-adv-x="694" 
d="M47 0v10q49 42 67.5 120t18.5 212v344q0 135 -18.5 211.5t-67.5 120.5v10l178 2l334 12v-700q0 -134 18.5 -212t67.5 -120v-10h-598zM-102 1550h350l151 -372h-112z" />
    <glyph glyph-name="iacute" unicode="&#xed;" horiz-adv-x="694" 
d="M47 0v10q49 42 67.5 120t18.5 212v344q0 135 -18.5 211.5t-67.5 120.5v10l178 2l334 12v-700q0 -134 18.5 -212t67.5 -120v-10h-598zM297 1178l152 372h350l-389 -372h-113z" />
    <glyph glyph-name="icircumflex" unicode="&#xee;" horiz-adv-x="694" 
d="M47 0v10q49 42 67.5 120t18.5 212v344q0 135 -18.5 211.5t-67.5 120.5v10l178 2l334 12v-700q0 -134 18.5 -212t67.5 -120v-10h-598zM-31 1178l285 366h186l287 -366h-170l-209 204l-209 -204h-170z" />
    <glyph glyph-name="idieresis" unicode="&#xef;" horiz-adv-x="694" 
d="M47 0v10q49 42 67.5 120t18.5 212v344q0 135 -18.5 211.5t-67.5 120.5v10l178 2l334 12v-700q0 -134 18.5 -212t67.5 -120v-10h-598zM-23 1223v295h310v-295h-310zM408 1223v295h309v-295h-309z" />
    <glyph glyph-name="eth" unicode="&#xf0;" horiz-adv-x="1390" 
d="M686 -39q-131 0 -244.5 36.5t-199.5 104.5t-135.5 174t-49.5 238q0 99 32 183.5t87.5 144.5t130 102.5t159 63t173.5 20.5q167 0 274 -94q-56 218 -184 358l-493 -237v145l387 186q-165 119 -424 168l145 64q267 -23 479 -135l387 184v-145l-256 -123
q179 -134 276 -331.5t97 -432.5q0 -166 -47.5 -295.5t-134 -212t-202.5 -124.5t-257 -42zM473 512q0 -191 57 -286t164 -95t164 96t57 287q0 367 -221 367q-107 0 -164 -92t-57 -277z" />
    <glyph glyph-name="ntilde" unicode="&#xf1;" horiz-adv-x="1456" 
d="M59 0v10q48 43 66 120.5t18 211.5v342q0 135 -18 212t-66 120v10h537q-26 -77 -29 -240q53 128 160.5 204.5t251.5 76.5q165 0 257.5 -99t92.5 -311v-315q0 -134 17 -211.5t61 -120.5v-10h-573v10q41 42 56 119.5t15 212.5v276q0 201 -143 201q-74 0 -127 -56.5
t-68 -152.5v-268q0 -134 17 -211.5t61 -120.5v-10h-586zM373 1186q-3 381 223 381q50 0 91.5 -19t69 -46t52.5 -54.5t55 -46.5t64 -19q51 0 72.5 42t19.5 132h110q0 -206 -55 -295.5t-160 -89.5q-51 0 -93.5 19.5t-71 46.5t-54.5 54.5t-56.5 47t-64.5 19.5q-52 0 -73 -41.5
t-21 -130.5h-108z" />
    <glyph glyph-name="ograve" unicode="&#xf2;" horiz-adv-x="1386" 
d="M692 -39q-290 0 -462.5 145.5t-172.5 405.5q0 262 172.5 407.5t462.5 145.5q292 0 464.5 -145.5t172.5 -407.5q0 -260 -172.5 -405.5t-464.5 -145.5zM248 1550h350l152 -372h-113zM475 512q0 -192 56.5 -286.5t162.5 -94.5q105 0 161 95t56 286q0 383 -217 383
q-219 0 -219 -383z" />
    <glyph glyph-name="oacute" unicode="&#xf3;" horiz-adv-x="1386" 
d="M692 -39q-290 0 -462.5 145.5t-172.5 405.5q0 262 172.5 407.5t462.5 145.5q292 0 464.5 -145.5t172.5 -407.5q0 -260 -172.5 -405.5t-464.5 -145.5zM475 512q0 -192 56.5 -286.5t162.5 -94.5q105 0 161 95t56 286q0 383 -217 383q-219 0 -219 -383zM645 1178l152 372
h350l-389 -372h-113z" />
    <glyph glyph-name="ocircumflex" unicode="&#xf4;" horiz-adv-x="1386" 
d="M692 -39q-290 0 -462.5 145.5t-172.5 405.5q0 262 172.5 407.5t462.5 145.5q292 0 464.5 -145.5t172.5 -407.5q0 -260 -172.5 -405.5t-464.5 -145.5zM317 1178l285 366h186l287 -366h-170l-209 204l-209 -204h-170zM475 512q0 -192 56.5 -286.5t162.5 -94.5q105 0 161 95
t56 286q0 383 -217 383q-219 0 -219 -383z" />
    <glyph glyph-name="otilde" unicode="&#xf5;" horiz-adv-x="1386" 
d="M692 -39q-290 0 -462.5 145.5t-172.5 405.5q0 262 172.5 407.5t462.5 145.5q292 0 464.5 -145.5t172.5 -407.5q0 -260 -172.5 -405.5t-464.5 -145.5zM311 1186q-3 381 224 381q50 0 91.5 -19t68.5 -46t52 -54.5t55 -46.5t64 -19q51 0 72.5 42t19.5 132h111
q0 -206 -55 -295.5t-160 -89.5q-51 0 -93.5 19.5t-71 46.5t-54.5 54.5t-56.5 47t-64.5 19.5q-52 0 -73 -41.5t-21 -130.5h-109zM475 512q0 -192 56.5 -286.5t162.5 -94.5q105 0 161 95t56 286q0 383 -217 383q-219 0 -219 -383z" />
    <glyph glyph-name="odieresis" unicode="&#xf6;" horiz-adv-x="1386" 
d="M692 -39q-290 0 -462.5 145.5t-172.5 405.5q0 262 172.5 407.5t462.5 145.5q292 0 464.5 -145.5t172.5 -407.5q0 -260 -172.5 -405.5t-464.5 -145.5zM326 1223v295h309v-295h-309zM475 512q0 -192 56.5 -286.5t162.5 -94.5q105 0 161 95t56 286q0 383 -217 383
q-219 0 -219 -383zM756 1223v295h309v-295h-309z" />
    <glyph glyph-name="divide" unicode="&#xf7;" horiz-adv-x="1175" 
d="M100 436v185l975 2v-185zM469 37v229h236v-229h-236zM469 791v229h236v-229h-236z" />
    <glyph glyph-name="oslash" unicode="&#xf8;" horiz-adv-x="1386" 
d="M395 -268l-84 41l107 235q-171 58 -266 189t-95 321q0 262 172.5 407.5t462.5 145.5q112 0 199 -20l108 239l82 -39l-102 -225q166 -60 258 -189.5t92 -318.5q0 -260 -172.5 -405.5t-464.5 -145.5q-88 0 -182 17zM475 518q0 -180 49 -274l283 620q-46 37 -113 37
q-219 0 -219 -383zM592 166q47 -29 102 -29q105 0 161 95t56 286q0 172 -43 262z" />
    <glyph glyph-name="ugrave" unicode="&#xf9;" horiz-adv-x="1466" 
d="M487 -37q-165 0 -258.5 100t-93.5 314v307q0 135 -17.5 212.5t-64.5 121.5v8h578v-8q-40 -44 -55 -122t-15 -212v-262q0 -110 34.5 -158.5t104.5 -48.5q78 0 130.5 70.5t64.5 199.5v199q0 135 -16 212.5t-58 121.5v8h586v-8q-49 -44 -67.5 -122t-18.5 -212v-342
q0 -136 18.5 -212.5t67.5 -119.5v-10h-535q20 63 23 270q-44 -134 -154.5 -220.5t-253.5 -86.5zM285 1550h350l151 -372h-112z" />
    <glyph glyph-name="uacute" unicode="&#xfa;" horiz-adv-x="1466" 
d="M487 -37q-165 0 -258.5 100t-93.5 314v307q0 135 -17.5 212.5t-64.5 121.5v8h578v-8q-40 -44 -55 -122t-15 -212v-262q0 -110 34.5 -158.5t104.5 -48.5q78 0 130.5 70.5t64.5 199.5v199q0 135 -16 212.5t-58 121.5v8h586v-8q-49 -44 -67.5 -122t-18.5 -212v-342
q0 -136 18.5 -212.5t67.5 -119.5v-10h-535q20 63 23 270q-44 -134 -154.5 -220.5t-253.5 -86.5zM682 1178l152 372h350l-389 -372h-113z" />
    <glyph glyph-name="ucircumflex" unicode="&#xfb;" horiz-adv-x="1466" 
d="M487 -37q-165 0 -258.5 100t-93.5 314v307q0 135 -17.5 212.5t-64.5 121.5v8h578v-8q-40 -44 -55 -122t-15 -212v-262q0 -110 34.5 -158.5t104.5 -48.5q78 0 130.5 70.5t64.5 199.5v199q0 135 -16 212.5t-58 121.5v8h586v-8q-49 -44 -67.5 -122t-18.5 -212v-342
q0 -136 18.5 -212.5t67.5 -119.5v-10h-535q20 63 23 270q-44 -134 -154.5 -220.5t-253.5 -86.5zM354 1178l285 366h186l287 -366h-170l-209 204l-209 -204h-170z" />
    <glyph glyph-name="udieresis" unicode="&#xfc;" horiz-adv-x="1466" 
d="M487 -37q-165 0 -258.5 100t-93.5 314v307q0 135 -17.5 212.5t-64.5 121.5v8h578v-8q-40 -44 -55 -122t-15 -212v-262q0 -110 34.5 -158.5t104.5 -48.5q78 0 130.5 70.5t64.5 199.5v199q0 135 -16 212.5t-58 121.5v8h586v-8q-49 -44 -67.5 -122t-18.5 -212v-342
q0 -136 18.5 -212.5t67.5 -119.5v-10h-535q20 63 23 270q-44 -134 -154.5 -220.5t-253.5 -86.5zM362 1223v295h310v-295h-310zM793 1223v295h309v-295h-309z" />
    <glyph glyph-name="yacute" unicode="&#xfd;" horiz-adv-x="1236" 
d="M240 -500q-116 0 -191 35v315q84 -43 215 -43q105 0 191.5 47t134.5 146h-137l-308 745q-87 215 -153 273v8h573v-8q-15 -10 -24.5 -22.5t-10.5 -33t0 -37t10 -50t16 -53.5t22 -66l139 -432l147 432q26 69 35.5 118.5t1.5 87t-37 56.5v8h391v-8q-72 -50 -157 -264
l-307 -744q-115 -277 -241 -393.5t-310 -116.5zM653 1178l152 372h350l-389 -372h-113z" />
    <glyph glyph-name="thorn" unicode="&#xfe;" horiz-adv-x="1429" 
d="M37 -492v9q49 40 67.5 111t18.5 196v1427q0 207 -66 289v10l473 56l25 -11q-6 -70 -6 -344v-456q48 124 146 195t247 71q203 0 316.5 -143t113.5 -383q0 -250 -126.5 -400.5t-342.5 -150.5q-229 0 -354 163v-323q0 -125 18.5 -196t67.5 -111v-9h-598zM549 295
q31 -54 77.5 -87.5t102.5 -33.5q91 0 146 88.5t55 265.5q0 144 -44.5 228t-131.5 84q-84 0 -139.5 -74t-65.5 -225v-246z" />
    <glyph glyph-name="ydieresis" unicode="&#xff;" horiz-adv-x="1236" 
d="M240 -500q-116 0 -191 35v315q84 -43 215 -43q105 0 191.5 47t134.5 146h-137l-308 745q-87 215 -153 273v8h573v-8q-15 -10 -24.5 -22.5t-10.5 -33t0 -37t10 -50t16 -53.5t22 -66l139 -432l147 432q26 69 35.5 118.5t1.5 87t-37 56.5v8h391v-8q-72 -50 -157 -264
l-307 -744q-115 -277 -241 -393.5t-310 -116.5zM334 1223v295h309v-295h-309zM764 1223v295h309v-295h-309z" />
    <glyph glyph-name="Amacron" unicode="&#x100;" horiz-adv-x="1738" 
d="M-16 8q124 81 194 262l434 1116q40 103 17 164h463l495 -1294q69 -179 168 -246v-10h-727v10q67 33 79.5 93.5t-17.5 146.5l-52 164h-542l-56 -156q-36 -99 -26.5 -158t71.5 -92v-8h-501v8zM463 1763v156h794v-156h-794zM557 592h426l-201 639z" />
    <glyph glyph-name="amacron" unicode="&#x101;" horiz-adv-x="1337" 
d="M369 -35q-152 0 -238 71t-86 197q0 60 20.5 107t54.5 80.5t94.5 63t122 50.5t155.5 46q165 43 221.5 80t56.5 112q1 64 -32.5 97.5t-98.5 33.5q-86 0 -137.5 -60t-52.5 -181h-363q10 125 99 219t222.5 140t288.5 46q84 0 155 -13t135.5 -45t109.5 -80.5t71.5 -124
t26.5 -171.5v-287q0 -91 18.5 -127.5t61.5 -36.5q31 0 59 21l2 -133q-124 -93 -270 -93q-54 0 -101 14.5t-88.5 45t-67.5 86t-30 129.5q-46 -131 -151 -209t-258 -78zM270 1249v168h783v-168h-783zM444 313q0 -53 31.5 -79.5t81.5 -26.5q95 0 155 81.5t60 211.5v82
q-13 -29 -48.5 -50.5t-115.5 -50.5q-89 -33 -126.5 -71t-37.5 -97z" />
    <glyph glyph-name="Abreve" unicode="&#x102;" horiz-adv-x="1738" 
d="M-16 8q124 81 194 262l434 1116q40 103 17 164h463l495 -1294q69 -179 168 -246v-10h-727v10q67 33 79.5 93.5t-17.5 146.5l-52 164h-542l-56 -156q-36 -99 -26.5 -158t71.5 -92v-8h-501v8zM479 2013h152q0 -160 227 -160q229 0 229 160h152q0 -163 -101.5 -250.5
t-279.5 -87.5q-176 0 -277.5 87.5t-101.5 250.5zM557 592h426l-201 639z" />
    <glyph glyph-name="abreve" unicode="&#x103;" horiz-adv-x="1337" 
d="M369 -35q-152 0 -238 71t-86 197q0 60 20.5 107t54.5 80.5t94.5 63t122 50.5t155.5 46q165 43 221.5 80t56.5 112q1 64 -32.5 97.5t-98.5 33.5q-86 0 -137.5 -60t-52.5 -181h-363q10 125 99 219t222.5 140t288.5 46q84 0 155 -13t135.5 -45t109.5 -80.5t71.5 -124
t26.5 -171.5v-287q0 -91 18.5 -127.5t61.5 -36.5q31 0 59 21l2 -133q-124 -93 -270 -93q-54 0 -101 14.5t-88.5 45t-67.5 86t-30 129.5q-46 -131 -151 -209t-258 -78zM315 1542h154q0 -180 193 -180q192 0 192 180h154q0 -167 -93 -265.5t-253 -98.5t-253.5 98.5
t-93.5 265.5zM444 313q0 -53 31.5 -79.5t81.5 -26.5q95 0 155 81.5t60 211.5v82q-13 -29 -48.5 -50.5t-115.5 -50.5q-89 -33 -126.5 -71t-37.5 -97z" />
    <glyph glyph-name="Aogonek" unicode="&#x104;" horiz-adv-x="1738" 
d="M-16 8q124 81 194 262l434 1116q40 103 17 164h463l495 -1294q69 -179 168 -246v-10h-227q-68 -36 -113 -95t-45 -132q0 -61 34 -95t89 -34q77 0 135 69v-102q-94 -115 -235 -115q-104 0 -172 54t-68 157q0 98 67 172.5t171 120.5h-363v10q67 33 79.5 93.5t-17.5 146.5
l-52 164h-542l-56 -156q-36 -99 -26.5 -158t71.5 -92v-8h-501v8zM557 592h426l-201 639z" />
    <glyph glyph-name="aogonek" unicode="&#x105;" horiz-adv-x="1337" 
d="M369 -35q-152 0 -238 71t-86 197q0 60 20.5 107t54.5 80.5t94.5 63t122 50.5t155.5 46q165 43 221.5 80t56.5 112q1 64 -32.5 97.5t-98.5 33.5q-86 0 -137.5 -60t-52.5 -181h-363q10 125 99 219t222.5 140t288.5 46q84 0 155 -13t135.5 -45t109.5 -80.5t71.5 -124
t26.5 -171.5v-287q0 -91 18.5 -127.5t61.5 -36.5q31 0 59 21l2 -133q-29 -23 -67 -43l4 -4q-68 -35 -113 -95t-45 -133q0 -61 34 -95t89 -34q76 0 135 70v-103q-93 -114 -235 -114q-104 0 -172 54t-68 157q0 146 156 247q-52 2 -98 17.5t-85.5 46.5t-63.5 85t-28 126
q-46 -131 -151 -209t-258 -78zM444 313q0 -53 31.5 -79.5t81.5 -26.5q95 0 155 81.5t60 211.5v82q-13 -29 -48.5 -50.5t-115.5 -50.5q-89 -33 -126.5 -71t-37.5 -97z" />
    <glyph glyph-name="Cacute" unicode="&#x106;" horiz-adv-x="1804" 
d="M899 -31q-245 0 -434 98t-294 280.5t-105 422.5q0 189 66 342.5t182 255t273 156.5t341 55q315 0 532 -151.5t283 -438.5h-451q-28 173 -117.5 278t-236.5 105q-116 0 -203.5 -73t-132.5 -195.5t-45 -274.5q0 -271 121 -416t334 -145q192 0 316.5 117t160.5 320h264
q-46 -342 -273.5 -539t-580.5 -197zM813 1694l178 317h393l-407 -317h-164z" />
    <glyph glyph-name="cacute" unicode="&#x107;" horiz-adv-x="1300" 
d="M653 -39q-99 0 -188 21.5t-163.5 66t-129 108t-85 152.5t-30.5 195q0 109 32.5 200.5t89.5 157.5t134.5 112t168.5 68.5t190 22.5q246 0 401 -121t176 -315h-364q-8 116 -58 189t-147 73q-101 0 -156 -85t-55 -235q0 -175 71 -275.5t216 -100.5q219 0 286 254h211
q-35 -220 -189.5 -354t-410.5 -134zM608 1178l152 372h350l-389 -372h-113z" />
    <glyph glyph-name="Ccircumflex" unicode="&#x108;" horiz-adv-x="1804" 
d="M899 -31q-245 0 -434 98t-294 280.5t-105 422.5q0 189 66 342.5t182 255t273 156.5t341 55q315 0 532 -151.5t283 -438.5h-451q-28 173 -117.5 278t-236.5 105q-116 0 -203.5 -73t-132.5 -195.5t-45 -274.5q0 -271 121 -416t334 -145q192 0 316.5 117t160.5 320h264
q-46 -342 -273.5 -539t-580.5 -197zM483 1694l316 317h202l316 -317h-180l-236 168l-237 -168h-181z" />
    <glyph glyph-name="ccircumflex" unicode="&#x109;" horiz-adv-x="1300" 
d="M653 -39q-99 0 -188 21.5t-163.5 66t-129 108t-85 152.5t-30.5 195q0 109 32.5 200.5t89.5 157.5t134.5 112t168.5 68.5t190 22.5q246 0 401 -121t176 -315h-364q-8 116 -58 189t-147 73q-101 0 -156 -85t-55 -235q0 -175 71 -275.5t216 -100.5q219 0 286 254h211
q-35 -220 -189.5 -354t-410.5 -134zM283 1178l284 366h187l286 -366h-170l-208 204l-209 -204h-170z" />
    <glyph glyph-name="Cdotaccent" unicode="&#x10a;" horiz-adv-x="1804" 
d="M899 -31q-245 0 -434 98t-294 280.5t-105 422.5q0 189 66 342.5t182 255t273 156.5t341 55q315 0 532 -151.5t283 -438.5h-451q-28 173 -117.5 278t-236.5 105q-116 0 -203.5 -73t-132.5 -195.5t-45 -274.5q0 -271 121 -416t334 -145q192 0 316.5 117t160.5 320h264
q-46 -342 -273.5 -539t-580.5 -197zM745 1702v295h308v-295h-308z" />
    <glyph glyph-name="cdotaccent" unicode="&#x10b;" horiz-adv-x="1300" 
d="M653 -39q-99 0 -188 21.5t-163.5 66t-129 108t-85 152.5t-30.5 195q0 109 32.5 200.5t89.5 157.5t134.5 112t168.5 68.5t190 22.5q246 0 401 -121t176 -315h-364q-8 116 -58 189t-147 73q-101 0 -156 -85t-55 -235q0 -175 71 -275.5t216 -100.5q219 0 286 254h211
q-35 -220 -189.5 -354t-410.5 -134zM479 1223v295h363v-295h-363z" />
    <glyph glyph-name="Ccaron" unicode="&#x10c;" horiz-adv-x="1804" 
d="M899 -31q-245 0 -434 98t-294 280.5t-105 422.5q0 189 66 342.5t182 255t273 156.5t341 55q315 0 532 -151.5t283 -438.5h-451q-28 173 -117.5 278t-236.5 105q-116 0 -203.5 -73t-132.5 -195.5t-45 -274.5q0 -271 121 -416t334 -145q192 0 316.5 117t160.5 320h264
q-46 -342 -273.5 -539t-580.5 -197zM465 2011h180l254 -162l254 162h180l-332 -317h-204z" />
    <glyph glyph-name="ccaron" unicode="&#x10d;" horiz-adv-x="1300" 
d="M653 -39q-99 0 -188 21.5t-163.5 66t-129 108t-85 152.5t-30.5 195q0 109 32.5 200.5t89.5 157.5t134.5 112t168.5 68.5t190 22.5q246 0 401 -121t176 -315h-364q-8 116 -58 189t-147 73q-101 0 -156 -85t-55 -235q0 -175 71 -275.5t216 -100.5q219 0 286 254h211
q-35 -220 -189.5 -354t-410.5 -134zM260 1548h170l229 -205l228 205h170l-297 -370h-203z" />
    <glyph glyph-name="Dcaron" unicode="&#x10e;" horiz-adv-x="1837" 
d="M92 0v10q52 42 71 119.5t19 212.5v866q0 136 -19 213t-71 119v10h737q440 0 690 -202.5t250 -571.5q0 -368 -249.5 -572t-690.5 -204h-737zM438 2011h180l254 -162l254 162h181l-332 -317h-205zM647 197h150q229 0 358 149t129 428q0 287 -127 433.5t-360 146.5h-150
v-1157z" />
    <glyph glyph-name="dcaron" unicode="&#x10f;" horiz-adv-x="1443" 
d="M872 0q8 106 11 246q-50 -122 -148.5 -193t-245.5 -71q-209 0 -320.5 142.5t-111.5 383.5q0 251 125.5 401t343.5 150q237 0 357 -180v385q0 198 -66 280v6l473 56l25 -9q-6 -68 -6 -333v-922q0 -134 17.5 -212t62.5 -120v-10h-517zM500 508q0 -146 44 -228.5t130 -82.5
q94 0 151.5 90t57.5 268v184q-32 57 -80 93t-105 36q-89 0 -143.5 -90.5t-54.5 -269.5zM1503 1116l68 481h291l-246 -481h-113z" />
    <glyph glyph-name="Dcroat" unicode="&#x110;" horiz-adv-x="1837" 
d="M92 0v10q52 42 71 119.5t19 212.5v379h-170v149h170v338q0 136 -19 213t-71 119v10h737q440 0 690 -202.5t250 -571.5q0 -368 -249.5 -572t-690.5 -204h-737zM647 197h150q229 0 358 149t129 428q0 287 -127 433.5t-360 146.5h-150v-484h352v-149h-352v-524z" />
    <glyph glyph-name="dcroat" unicode="&#x111;" horiz-adv-x="1443" 
d="M872 0q8 106 11 246q-50 -122 -148.5 -193t-245.5 -71q-209 0 -320.5 142.5t-111.5 383.5q0 251 125.5 401t343.5 150q237 0 357 -180v311h-301v133h299q-7 150 -64 221v6l473 56l25 -9q-6 -59 -6 -274h260v-133h-260v-848q0 -134 17.5 -212t62.5 -120v-10h-517zM500 508
q0 -146 44 -228.5t130 -82.5q94 0 151.5 90t57.5 268v184q-32 57 -80 93t-105 36q-89 0 -143.5 -90.5t-54.5 -269.5z" />
    <glyph glyph-name="Emacron" unicode="&#x112;" horiz-adv-x="1378" 
d="M92 0v10q52 42 71 119.5t19 212.5v866q0 136 -19 213t-71 119v10h1186v-331q-201 83 -296.5 112t-197.5 29h-137v-471h64q184 0 454 12v-199q-247 11 -454 11h-64v-520h125q139 0 253 28t296 115v-336h-1229zM301 1763v156h795v-156h-795z" />
    <glyph glyph-name="emacron" unicode="&#x113;" horiz-adv-x="1312" 
d="M653 -39q-127 0 -235 36t-188.5 103t-126.5 171t-46 233q0 134 49 242t133.5 177t194.5 105.5t236 36.5q271 0 426.5 -143t158.5 -381h-798q8 -162 82.5 -250t210.5 -88q219 0 294 225h209q-20 -100 -65 -182.5t-116.5 -147.5t-178.5 -101t-240 -36zM268 1249v168h783
v-168h-783zM461 655h407q-11 122 -61 186t-137 64q-85 0 -139.5 -65.5t-69.5 -184.5z" />
    <glyph glyph-name="Edotaccent" unicode="&#x116;" horiz-adv-x="1378" 
d="M92 0v10q52 42 71 119.5t19 212.5v866q0 136 -19 213t-71 119v10h1186v-331q-201 83 -296.5 112t-197.5 29h-137v-471h64q184 0 454 12v-199q-247 11 -454 11h-64v-520h125q139 0 253 28t296 115v-336h-1229zM545 1702v295h307v-295h-307z" />
    <glyph glyph-name="edotaccent" unicode="&#x117;" horiz-adv-x="1312" 
d="M653 -39q-127 0 -235 36t-188.5 103t-126.5 171t-46 233q0 134 49 242t133.5 177t194.5 105.5t236 36.5q271 0 426.5 -143t158.5 -381h-798q8 -162 82.5 -250t210.5 -88q219 0 294 225h209q-20 -100 -65 -182.5t-116.5 -147.5t-178.5 -101t-240 -36zM461 655h407
q-11 122 -61 186t-137 64q-85 0 -139.5 -65.5t-69.5 -184.5zM479 1223v295h363v-295h-363z" />
    <glyph glyph-name="Eogonek" unicode="&#x118;" horiz-adv-x="1378" 
d="M92 0v10q52 42 71 119.5t19 212.5v866q0 136 -19 213t-71 119v10h1186v-331q-201 83 -296.5 112t-197.5 29h-137v-471h64q184 0 454 12v-199q-247 11 -454 11h-64v-520h125q139 0 253 28t296 115v-336h-41q-68 -36 -113 -95t-45 -132q0 -61 34 -95t89 -34q77 0 135 69
v-102q-94 -115 -235 -115q-104 0 -172 54t-68 157q0 98 67 172.5t171 120.5h-1051z" />
    <glyph glyph-name="eogonek" unicode="&#x119;" horiz-adv-x="1312" 
d="M653 -39q-127 0 -235 36t-188.5 103t-126.5 171t-46 233q0 134 49 242t133.5 177t194.5 105.5t236 36.5q271 0 426.5 -143t158.5 -381h-798q8 -162 82.5 -250t210.5 -88q219 0 294 225h209q-29 -144 -110 -253t-215 -165q-59 -37 -96 -92t-37 -121q0 -61 33.5 -95
t89.5 -34q76 0 135 70v-103q-93 -114 -236 -114q-103 0 -171 54t-68 157q0 136 131 231q-18 -2 -56 -2zM461 655h407q-11 122 -61 186t-137 64q-85 0 -139.5 -65.5t-69.5 -184.5z" />
    <glyph glyph-name="Ecaron" unicode="&#x11a;" horiz-adv-x="1378" 
d="M92 0v10q52 42 71 119.5t19 212.5v866q0 136 -19 213t-71 119v10h1186v-331q-201 83 -296.5 112t-197.5 29h-137v-471h64q184 0 454 12v-199q-247 11 -454 11h-64v-520h125q139 0 253 28t296 115v-336h-1229zM264 2011h180l254 -162l254 162h181l-332 -317h-205z" />
    <glyph glyph-name="ecaron" unicode="&#x11b;" horiz-adv-x="1312" 
d="M653 -39q-127 0 -235 36t-188.5 103t-126.5 171t-46 233q0 134 49 242t133.5 177t194.5 105.5t236 36.5q271 0 426.5 -143t158.5 -381h-798q8 -162 82.5 -250t210.5 -88q219 0 294 225h209q-20 -100 -65 -182.5t-116.5 -147.5t-178.5 -101t-240 -36zM260 1548h170
l229 -205l228 205h170l-297 -370h-203zM461 655h407q-11 122 -61 186t-137 64q-85 0 -139.5 -65.5t-69.5 -184.5z" />
    <glyph glyph-name="Gcircumflex" unicode="&#x11c;" horiz-adv-x="1910" 
d="M825 -25q-225 0 -397 95t-267 270t-95 405q0 200 69.5 360t192 263t286 158t355.5 55q310 0 531.5 -149.5t283.5 -397.5h-443q-36 165 -129.5 256.5t-244.5 91.5q-194 0 -307 -152t-113 -407q0 -267 117 -415t313 -148q173 0 279 107.5t135 287.5l-543 -2l-2 166l950 2
v-833h-178l-174 366q-77 -176 -234.5 -277.5t-384.5 -101.5zM559 1694l315 317h203l316 -317h-181l-235 168l-238 -168h-180z" />
    <glyph glyph-name="gcircumflex" unicode="&#x11d;" horiz-adv-x="1456" 
d="M524 -518q-195 0 -304 47.5t-109 136.5q0 136 262 199q-152 9 -236 69t-84 160q0 185 273 295q-88 48 -136.5 123.5t-48.5 171.5q0 121 77 208t206 129t295 42q238 0 399 -88q10 154 94 237.5t215 85.5v-311q-101 0 -154 -17t-75 -55q100 -97 100 -233
q0 -121 -75.5 -207.5t-205 -129t-298.5 -42.5q-159 0 -287 41q-94 -42 -94 -92q0 -35 41 -53t147 -17q86 2 304 24.5t296 22.5q153 0 227 -63t74 -170q0 -112 -77 -209.5t-203.5 -163.5t-289.5 -103.5t-333 -37.5zM346 1178l285 366h186l287 -366h-170l-209 204l-209 -204
h-170zM397 -279q0 -90 189 -90q115 0 228.5 27t189 75.5t75.5 104.5q0 34 -25.5 49t-86.5 15q-146 0 -353 -47q-217 -47 -217 -134zM543 684q0 -116 46 -177t130 -61t130 61t46 177q0 114 -46 174t-130 60t-130 -60t-46 -174z" />
    <glyph glyph-name="Gbreve" unicode="&#x11e;" horiz-adv-x="1910" 
d="M825 -25q-225 0 -397 95t-267 270t-95 405q0 200 69.5 360t192 263t286 158t355.5 55q310 0 531.5 -149.5t283.5 -397.5h-443q-36 165 -129.5 256.5t-244.5 91.5q-194 0 -307 -152t-113 -407q0 -267 117 -415t313 -148q173 0 279 107.5t135 287.5l-543 -2l-2 166l950 2
v-833h-178l-174 366q-77 -176 -234.5 -277.5t-384.5 -101.5zM596 2013h152q0 -160 227 -160q229 0 229 160h152q0 -163 -101.5 -250.5t-279.5 -87.5q-176 0 -277.5 87.5t-101.5 250.5z" />
    <glyph glyph-name="gbreve" unicode="&#x11f;" horiz-adv-x="1456" 
d="M524 -518q-195 0 -304 47.5t-109 136.5q0 136 262 199q-152 9 -236 69t-84 160q0 185 273 295q-88 48 -136.5 123.5t-48.5 171.5q0 121 77 208t206 129t295 42q238 0 399 -88q10 154 94 237.5t215 85.5v-311q-101 0 -154 -17t-75 -55q100 -97 100 -233
q0 -121 -75.5 -207.5t-205 -129t-298.5 -42.5q-159 0 -287 41q-94 -42 -94 -92q0 -35 41 -53t147 -17q86 2 304 24.5t296 22.5q153 0 227 -63t74 -170q0 -112 -77 -209.5t-203.5 -163.5t-289.5 -103.5t-333 -37.5zM379 1542h153q0 -180 193 -180t193 180h153
q0 -167 -93 -265.5t-253 -98.5t-253 98.5t-93 265.5zM397 -279q0 -90 189 -90q115 0 228.5 27t189 75.5t75.5 104.5q0 34 -25.5 49t-86.5 15q-146 0 -353 -47q-217 -47 -217 -134zM543 684q0 -116 46 -177t130 -61t130 61t46 177q0 114 -46 174t-130 60t-130 -60t-46 -174z
" />
    <glyph glyph-name="Gdotaccent" unicode="&#x120;" horiz-adv-x="1910" 
d="M825 -25q-225 0 -397 95t-267 270t-95 405q0 200 69.5 360t192 263t286 158t355.5 55q310 0 531.5 -149.5t283.5 -397.5h-443q-36 165 -129.5 256.5t-244.5 91.5q-194 0 -307 -152t-113 -407q0 -267 117 -415t313 -148q173 0 279 107.5t135 287.5l-543 -2l-2 166l950 2
v-833h-178l-174 366q-77 -176 -234.5 -277.5t-384.5 -101.5zM821 1702v295h307v-295h-307z" />
    <glyph glyph-name="gdotaccent" unicode="&#x121;" horiz-adv-x="1456" 
d="M524 -518q-195 0 -304 47.5t-109 136.5q0 136 262 199q-152 9 -236 69t-84 160q0 185 273 295q-88 48 -136.5 123.5t-48.5 171.5q0 121 77 208t206 129t295 42q238 0 399 -88q10 154 94 237.5t215 85.5v-311q-101 0 -154 -17t-75 -55q100 -97 100 -233
q0 -121 -75.5 -207.5t-205 -129t-298.5 -42.5q-159 0 -287 41q-94 -42 -94 -92q0 -35 41 -53t147 -17q86 2 304 24.5t296 22.5q153 0 227 -63t74 -170q0 -112 -77 -209.5t-203.5 -163.5t-289.5 -103.5t-333 -37.5zM397 -279q0 -90 189 -90q115 0 228.5 27t189 75.5
t75.5 104.5q0 34 -25.5 49t-86.5 15q-146 0 -353 -47q-217 -47 -217 -134zM543 684q0 -116 46 -177t130 -61t130 61t46 177q0 114 -46 174t-130 60t-130 -60t-46 -174zM543 1223v295h362v-295h-362z" />
    <glyph glyph-name="uni0122" unicode="&#x122;" horiz-adv-x="1910" 
d="M825 -25q-225 0 -397 95t-267 270t-95 405q0 200 69.5 360t192 263t286 158t355.5 55q310 0 531.5 -149.5t283.5 -397.5h-443q-36 165 -129.5 256.5t-244.5 91.5q-194 0 -307 -152t-113 -407q0 -267 117 -415t313 -148q173 0 279 107.5t135 287.5l-543 -2l-2 166l950 2
v-833h-178l-174 366q-77 -176 -234.5 -277.5t-384.5 -101.5zM559 -467l127 344h326l-359 -387z" />
    <glyph glyph-name="uni0123" unicode="&#x123;" horiz-adv-x="1456" 
d="M524 -518q-195 0 -304 47.5t-109 136.5q0 136 262 199q-152 9 -236 69t-84 160q0 185 273 295q-88 48 -136.5 123.5t-48.5 171.5q0 121 77 208t206 129t295 42q238 0 399 -88q10 154 94 237.5t215 85.5v-311q-101 0 -154 -17t-75 -55q100 -97 100 -233
q0 -121 -75.5 -207.5t-205 -129t-298.5 -42.5q-159 0 -287 41q-94 -42 -94 -92q0 -35 41 -53t147 -17q86 2 304 24.5t296 22.5q153 0 227 -63t74 -170q0 -112 -77 -209.5t-203.5 -163.5t-289.5 -103.5t-333 -37.5zM397 -279q0 -90 189 -90q115 0 228.5 27t189 75.5
t75.5 104.5q0 34 -25.5 49t-86.5 15q-146 0 -353 -47q-217 -47 -217 -134zM543 684q0 -116 46 -177t130 -61t130 61t46 177q0 114 -46 174t-130 60t-130 -60t-46 -174zM565 1188l326 403h110l-137 -403h-299z" />
    <glyph glyph-name="Hcircumflex" unicode="&#x124;" horiz-adv-x="1837" 
d="M92 0v10q52 42 71 119.5t19 212.5v866q0 136 -19 213t-71 119v10h645v-10q-52 -42 -71 -119t-19 -213v-313h543v313q0 136 -19 213t-71 119v10h647v-10q-53 -42 -72.5 -118.5t-19.5 -213.5v-866q0 -135 19 -212.5t71 -119.5v-10h-645v10q52 42 71 119.5t19 212.5v350
h-543v-350q0 -135 19 -212.5t71 -119.5v-10h-645zM504 1694l315 317h203l315 -317h-180l-235 168l-238 -168h-180z" />
    <glyph glyph-name="hcircumflex" unicode="&#x125;" horiz-adv-x="1452" 
d="M53 0v10q49 42 67.5 120t18.5 212v922q0 190 -71 278v8l477 56l26 -11q-8 -91 -8 -331v-473q52 126 159.5 201t250.5 75q165 0 257.5 -99t92.5 -311v-315q0 -134 17 -211.5t61 -120.5v-10h-574v10q41 42 56.5 120t15.5 212v276q0 201 -143 201q-72 0 -123 -52.5
t-70 -145.5v-279q0 -135 17.5 -212.5t64.5 -119.5v-10h-592zM229 1741l316 317h203l315 -317h-180l-236 168l-237 -168h-181z" />
    <glyph glyph-name="Hbar" unicode="&#x126;" horiz-adv-x="1837" 
d="M-18 1169v134h198q-6 90 -26 146.5t-62 90.5v10h645v-10q-42 -34 -62 -90.5t-26 -146.5l539 2q-6 89 -26 145t-62 90v10h647v-10q-43 -34 -63.5 -90t-26.5 -145h198v-136h-200v-827q0 -135 19 -212.5t71 -119.5v-10h-645v10q52 42 71 119.5t19 212.5v350h-543v-350
q0 -135 19 -212.5t71 -119.5v-10h-645v10q52 42 71 119.5t19 212.5v827h-200zM647 895h543v274h-543v-274z" />
    <glyph glyph-name="hbar" unicode="&#x127;" horiz-adv-x="1452" 
d="M53 0v10q49 42 67.5 120t18.5 212v848h-202v133h200q-10 146 -69 219v8l477 56l26 -11q-8 -79 -8 -272h361v-133h-361v-399q52 126 159.5 201t250.5 75q165 0 257.5 -99t92.5 -311v-315q0 -134 17 -211.5t61 -120.5v-10h-574v10q41 42 56.5 120t15.5 212v276
q0 201 -143 201q-72 0 -123 -52.5t-70 -145.5v-279q0 -135 17.5 -212.5t64.5 -119.5v-10h-592z" />
    <glyph glyph-name="Itilde" unicode="&#x128;" horiz-adv-x="829" 
d="M92 0v10q52 42 71 119.5t19 212.5v866q0 136 -19 213t-71 119v10h645v-10q-52 -42 -71 -119t-19 -213v-866q0 -135 19 -212.5t71 -119.5v-10h-645zM25 1677q0 328 233 328q53 0 95.5 -17t70 -41t52 -48t53.5 -41t61 -17q48 0 67 35.5t21 116.5h125q-3 -328 -232 -328
q-52 0 -94.5 16.5t-70 40.5t-52.5 48t-54 40.5t-62 16.5q-48 0 -68 -36.5t-20 -113.5h-125z" />
    <glyph glyph-name="itilde" unicode="&#x129;" horiz-adv-x="694" 
d="M47 0v10q49 42 67.5 120t18.5 212v344q0 135 -18.5 211.5t-67.5 120.5v10l178 2l334 12v-700q0 -134 18.5 -212t67.5 -120v-10h-598zM-37 1186q-3 381 223 381q50 0 91.5 -19t69 -46t52.5 -54.5t55 -46.5t64 -19q51 0 72.5 42t19.5 132h111q0 -206 -55 -295.5t-160 -89.5
q-51 0 -93.5 19.5t-71 46.5t-54.5 54.5t-56.5 47t-64.5 19.5q-52 0 -73 -41.5t-21 -130.5h-109z" />
    <glyph glyph-name="Imacron" unicode="&#x12a;" horiz-adv-x="829" 
d="M92 0v10q52 42 71 119.5t19 212.5v866q0 136 -19 213t-71 119v10h645v-10q-52 -42 -71 -119t-19 -213v-866q0 -135 19 -212.5t71 -119.5v-10h-645zM16 1743v155h795v-155h-795z" />
    <glyph glyph-name="imacron" unicode="&#x12b;" horiz-adv-x="694" 
d="M47 0v10q49 42 67.5 120t18.5 212v344q0 135 -18.5 211.5t-67.5 120.5v10l178 2l334 12v-700q0 -134 18.5 -212t67.5 -120v-10h-598zM-43 1249v168h782v-168h-782z" />
    <glyph glyph-name="Iogonek" unicode="&#x12e;" horiz-adv-x="829" 
d="M92 0v10q52 42 71 119.5t19 212.5v866q0 136 -19 213t-71 119v10h645v-10q-52 -42 -71 -119t-19 -213v-866q0 -135 19 -212.5t71 -119.5v-10h-155q-68 -36 -113 -95t-45 -132q0 -61 34 -95t89 -34q77 0 135 69v-102q-94 -115 -236 -115q-103 0 -171 54t-68 157
q0 98 67 172.5t170 120.5h-352z" />
    <glyph glyph-name="iogonek" unicode="&#x12f;" horiz-adv-x="694" 
d="M47 0v10q49 42 67.5 120t18.5 212v344q0 135 -18.5 211.5t-67.5 120.5v10l178 2l334 12v-700q0 -134 18.5 -212t67.5 -120v-10h-70q-57 -37 -93 -91.5t-36 -119.5q0 -61 34 -95t89 -34q77 0 136 70v-103q-93 -114 -236 -114q-104 0 -172 54t-68 157q0 171 205 276h-387z
M141 1223v311h414v-311h-414z" />
    <glyph glyph-name="Idotaccent" unicode="&#x130;" horiz-adv-x="829" 
d="M92 0v10q52 42 71 119.5t19 212.5v866q0 136 -19 213t-71 119v10h645v-10q-52 -42 -71 -119t-19 -213v-866q0 -135 19 -212.5t71 -119.5v-10h-645zM182 1683v293h465v-293h-465z" />
    <glyph glyph-name="dotlessi" unicode="&#x131;" horiz-adv-x="694" 
d="M47 0v10q49 42 67.5 120t18.5 212v344q0 135 -18.5 211.5t-67.5 120.5v10l178 2l334 12v-700q0 -134 18.5 -212t67.5 -120v-10h-598z" />
    <glyph glyph-name="IJ" unicode="&#x132;" horiz-adv-x="1683" 
d="M92 0v10q52 42 71 119.5t19 212.5v866q0 136 -19 213t-71 119v10h645v-10q-52 -42 -71 -119t-19 -213v-866q0 -135 19 -212.5t71 -119.5v-10h-645zM840 -303v178q115 29 159.5 114.5t44.5 280.5v938q0 136 -19 213t-71 119v10h643v-10q-52 -42 -71 -119t-19 -213v-895
q0 -304 -168.5 -453t-498.5 -163z" />
    <glyph glyph-name="ij" unicode="&#x133;" horiz-adv-x="1382" 
d="M47 0v10q49 42 67.5 120t18.5 212v344q0 135 -18.5 211.5t-67.5 120.5v10l178 2l334 12v-700q0 -134 18.5 -212t67.5 -120v-10h-598zM141 1223v311h414v-311h-414zM633 -508v150q123 15 165 83t42 244v717q0 135 -18.5 211.5t-67.5 120.5v10l178 2l332 12v-981
q0 -274 -160 -421t-471 -148zM836 1223v311h413v-311h-413z" />
    <glyph glyph-name="Jcircumflex" unicode="&#x134;" horiz-adv-x="854" 
d="M10 -125q78 20 121.5 62.5t63.5 121.5t20 211v938q0 136 -19 213t-71 119v10h643v-10q-52 -42 -71 -119t-19 -213v-895q0 -304 -169 -453t-499 -163v178zM25 1694l315 317h203l315 -317h-180l-236 168l-237 -168h-180z" />
    <glyph glyph-name="jcircumflex" unicode="&#x135;" horiz-adv-x="694" 
d="M-55 -358q123 15 165 83t42 244v717q0 135 -18.5 211.5t-67.5 120.5v10l178 2l331 12v-981q0 -274 -159.5 -421t-470.5 -148v150zM-25 1178l285 366h186l287 -366h-170l-209 204l-209 -204h-170z" />
    <glyph glyph-name="uni0136" unicode="&#x136;" horiz-adv-x="1710" 
d="M92 0v10q52 42 71 119.5t19 212.5v866q0 136 -19 213t-71 119v10h641v-10q-52 -42 -71 -119t-19 -213v-338l430 449q80 84 184 231h433v-24q-95 -37 -160.5 -73.5t-120.5 -90.5l-395 -387l725 -955v-20h-545l-467 696l-84 -82v-272q0 -135 19 -212.5t71 -119.5v-10h-641z
M633 -467l127 344h325l-358 -387z" />
    <glyph glyph-name="uni0137" unicode="&#x137;" horiz-adv-x="1406" 
d="M926 0l-361 506v-164q0 -135 17.5 -212.5t64.5 -119.5v-10h-594v10q50 42 68 119t18 213v922q0 196 -65 276v10l473 56l26 -11q-8 -91 -8 -331v-637l248 207q68 54 100 107t13 79v6h436v-16q-129 -55 -234 -140l-262 -215l547 -635v-20h-487zM475 -467l127 344h326
l-359 -387z" />
    <glyph glyph-name="Lacute" unicode="&#x139;" horiz-adv-x="1347" 
d="M92 0v10q52 42 71 119.5t19 212.5v866q0 136 -19 213t-71 119v10h645v-10q-52 -42 -71 -119t-19 -213v-1005h119q149 0 258 27.5t293 115.5v-346h-1225zM301 1694l178 317h393l-407 -317h-164z" />
    <glyph glyph-name="lacute" unicode="&#x13a;" horiz-adv-x="698" 
d="M53 0v10q49 42 67.5 120t18.5 212v922q0 190 -71 278v8l477 56l26 -11q-8 -91 -8 -331v-922q0 -135 17.5 -212.5t64.5 -119.5v-10h-592zM266 1741l178 317h394l-408 -317h-164z" />
    <glyph glyph-name="uni013B" unicode="&#x13b;" horiz-adv-x="1347" 
d="M92 0v10q52 42 71 119.5t19 212.5v866q0 136 -19 213t-71 119v10h645v-10q-52 -42 -71 -119t-19 -213v-1005h119q149 0 258 27.5t293 115.5v-346h-1225zM410 -467l127 344h325l-358 -387z" />
    <glyph glyph-name="uni013C" unicode="&#x13c;" horiz-adv-x="698" 
d="M53 0v10q49 42 67.5 120t18.5 212v922q0 190 -71 278v8l477 56l26 -11q-8 -91 -8 -331v-922q0 -135 17.5 -212.5t64.5 -119.5v-10h-592zM59 -467l127 344h326l-358 -387z" />
    <glyph glyph-name="Lcaron" unicode="&#x13d;" horiz-adv-x="1347" 
d="M92 0v10q52 42 71 119.5t19 212.5v866q0 136 -19 213t-71 119v10h645v-10q-52 -42 -71 -119t-19 -213v-1005h119q149 0 258 27.5t293 115.5v-346h-1225zM870 1069l68 481h291l-246 -481h-113z" />
    <glyph glyph-name="lcaron" unicode="&#x13e;" horiz-adv-x="698" 
d="M53 0v10q49 42 67.5 120t18.5 212v922q0 190 -71 278v8l477 56l26 -11q-8 -91 -8 -331v-922q0 -135 17.5 -212.5t64.5 -119.5v-10h-592zM684 1116l68 481h290l-245 -481h-113z" />
    <glyph glyph-name="Ldot" unicode="&#x13f;" horiz-adv-x="1347" 
d="M92 0v10q52 42 71 119.5t19 212.5v866q0 136 -19 213t-71 119v10h645v-10q-52 -42 -71 -119t-19 -213v-1005h119q149 0 258 27.5t293 115.5v-346h-1225zM913 657v295h308v-295h-308z" />
    <glyph glyph-name="ldot" unicode="&#x140;" horiz-adv-x="1030" 
d="M53 0v10q49 42 67.5 120t18.5 212v922q0 190 -71 278v8l477 56l26 -11q-8 -91 -8 -331v-922q0 -135 17.5 -212.5t64.5 -119.5v-10h-592zM694 662v333h367v-333h-367z" />
    <glyph glyph-name="Lslash" unicode="&#x141;" horiz-adv-x="1347" 
d="M92 0v10q52 42 71 119.5t19 212.5v242l-243 -125v155l243 125v469q0 136 -19 213t-71 119v10h645v-10q-52 -42 -71 -119t-19 -213v-233l363 184v-155l-363 -185v-616h119q149 0 258 27.5t293 115.5v-346h-1225z" />
    <glyph glyph-name="lslash" unicode="&#x142;" horiz-adv-x="698" 
d="M53 0v10q49 42 67.5 120t18.5 212v291l-137 -74v143l137 74v488q0 190 -71 278v8l477 56l26 -11q-8 -91 -8 -331v-263l142 76v-143l-142 -76v-516q0 -135 17.5 -212.5t64.5 -119.5v-10h-592z" />
    <glyph glyph-name="Nacute" unicode="&#x143;" horiz-adv-x="1695" 
d="M1108 0l-676 1049v-678q0 -145 24 -229.5t87 -131.5v-10h-451v10q52 47 71 131t19 230v837q0 134 -15.5 211.5t-55.5 120.5v10h477l678 -1042v672q0 145 -23 228.5t-84 131.5v10h445v-10q-50 -47 -69 -130.5t-19 -229.5v-1180h-408zM780 1694l178 317h394l-408 -317h-164
z" />
    <glyph glyph-name="nacute" unicode="&#x144;" horiz-adv-x="1456" 
d="M59 0v10q48 43 66 120.5t18 211.5v342q0 135 -18 212t-66 120v10h537q-26 -77 -29 -240q53 128 160.5 204.5t251.5 76.5q165 0 257.5 -99t92.5 -311v-315q0 -134 17 -211.5t61 -120.5v-10h-573v10q41 42 56 119.5t15 212.5v276q0 201 -143 201q-74 0 -127 -56.5
t-68 -152.5v-268q0 -134 17 -211.5t61 -120.5v-10h-586zM707 1178l151 372h350l-389 -372h-112z" />
    <glyph glyph-name="uni0145" unicode="&#x145;" horiz-adv-x="1695" 
d="M1108 0l-676 1049v-678q0 -145 24 -229.5t87 -131.5v-10h-451v10q52 47 71 131t19 230v837q0 134 -15.5 211.5t-55.5 120.5v10h477l678 -1042v672q0 145 -23 228.5t-84 131.5v10h445v-10q-50 -47 -69 -130.5t-19 -229.5v-1180h-408zM532 -467l127 344h326l-358 -387z" />
    <glyph glyph-name="uni0146" unicode="&#x146;" horiz-adv-x="1456" 
d="M59 0v10q48 43 66 120.5t18 211.5v342q0 135 -18 212t-66 120v10h537q-26 -77 -29 -240q53 128 160.5 204.5t251.5 76.5q165 0 257.5 -99t92.5 -311v-315q0 -134 17 -211.5t61 -120.5v-10h-573v10q41 42 56 119.5t15 212.5v276q0 201 -143 201q-74 0 -127 -56.5
t-68 -152.5v-268q0 -134 17 -211.5t61 -120.5v-10h-586zM442 -467l127 344h326l-358 -387z" />
    <glyph glyph-name="Ncaron" unicode="&#x147;" horiz-adv-x="1695" 
d="M1108 0l-676 1049v-678q0 -145 24 -229.5t87 -131.5v-10h-451v10q52 47 71 131t19 230v837q0 134 -15.5 211.5t-55.5 120.5v10h477l678 -1042v672q0 145 -23 228.5t-84 131.5v10h445v-10q-50 -47 -69 -130.5t-19 -229.5v-1180h-408zM432 2011h180l254 -162l254 162h180
l-331 -317h-205z" />
    <glyph glyph-name="ncaron" unicode="&#x148;" horiz-adv-x="1456" 
d="M59 0v10q48 43 66 120.5t18 211.5v342q0 135 -18 212t-66 120v10h537q-26 -77 -29 -240q53 128 160.5 204.5t251.5 76.5q165 0 257.5 -99t92.5 -311v-315q0 -134 17 -211.5t61 -120.5v-10h-573v10q41 42 56 119.5t15 212.5v276q0 201 -143 201q-74 0 -127 -56.5
t-68 -152.5v-268q0 -134 17 -211.5t61 -120.5v-10h-586zM358 1548h170l230 -205l227 205h170l-297 -370h-203z" />
    <glyph glyph-name="Eng" unicode="&#x14a;" horiz-adv-x="1667" 
d="M1087 0l-673 1038v-667q0 -146 23.5 -230t86.5 -131v-10h-432v10q52 47 71 131t19 230v837q0 134 -15.5 211.5t-55.5 120.5v10h469l673 -1034v664q0 145 -22.5 228.5t-81.5 131.5v10h426v-10q-50 -47 -69 -130.5t-19 -229.5v-1069q0 -538 -529 -566v148q145 23 218 104
t73 203h-162z" />
    <glyph glyph-name="eng" unicode="&#x14b;" horiz-adv-x="1445" 
d="M739 -324q103 42 133.5 115.5t30.5 231.5v595q0 201 -141 201q-72 0 -122.5 -51t-70.5 -145v-281q0 -135 17.5 -212.5t64.5 -119.5v-10h-592v10q48 43 66 120.5t18 211.5v342q0 135 -18 212.5t-66 121.5v8h539q-26 -69 -29 -244q51 128 159.5 206.5t250.5 78.5
q164 0 257 -99t93 -311v-634q0 -91 -32 -165t-81.5 -123t-125 -88t-146.5 -61.5t-162 -42.5z" />
    <glyph glyph-name="Omacron" unicode="&#x14c;" horiz-adv-x="1908" 
d="M956 -37q-200 0 -365.5 57.5t-281 162t-179.5 256t-64 335.5q0 183 64 334t179.5 255t281 161t365.5 57q264 0 465 -98t311.5 -282.5t110.5 -430.5q0 -244 -110.5 -427.5t-311.5 -281.5t-465 -98zM557 770q0 -280 103 -438t296 -158q192 0 295 158.5t103 441.5
q0 280 -103.5 438t-294.5 158q-193 0 -296 -158.5t-103 -441.5zM559 1763v156h795v-156h-795z" />
    <glyph glyph-name="omacron" unicode="&#x14d;" horiz-adv-x="1386" 
d="M692 -39q-290 0 -462.5 145.5t-172.5 405.5q0 262 172.5 407.5t462.5 145.5q292 0 464.5 -145.5t172.5 -407.5q0 -260 -172.5 -405.5t-464.5 -145.5zM305 1249v168h782v-168h-782zM475 512q0 -192 56.5 -286.5t162.5 -94.5q105 0 161 95t56 286q0 383 -217 383
q-219 0 -219 -383z" />
    <glyph glyph-name="Ohungarumlaut" unicode="&#x150;" horiz-adv-x="1908" 
d="M956 -37q-200 0 -365.5 57.5t-281 162t-179.5 256t-64 335.5q0 183 64 334t179.5 255t281 161t365.5 57q264 0 465 -98t311.5 -282.5t110.5 -430.5q0 -244 -110.5 -427.5t-311.5 -281.5t-465 -98zM557 770q0 -280 103 -438t296 -158q192 0 295 158.5t103 441.5
q0 280 -103.5 438t-294.5 158q-193 0 -296 -158.5t-103 -441.5zM717 1694l155 317h299l-327 -317h-127zM1069 1694l211 317h301l-385 -317h-127z" />
    <glyph glyph-name="ohungarumlaut" unicode="&#x151;" horiz-adv-x="1386" 
d="M692 -39q-290 0 -462.5 145.5t-172.5 405.5q0 262 172.5 407.5t462.5 145.5q292 0 464.5 -145.5t172.5 -407.5q0 -260 -172.5 -405.5t-464.5 -145.5zM438 1178l158 372h299l-326 -372h-131zM475 512q0 -192 56.5 -286.5t162.5 -94.5q105 0 161 95t56 286q0 383 -217 383
q-219 0 -219 -383zM821 1178l185 372h305l-355 -372h-135z" />
    <glyph glyph-name="OE" unicode="&#x152;" horiz-adv-x="2385" 
d="M1026 0q-290 0 -506.5 92.5t-335 269t-118.5 416.5q0 241 118.5 416t334.5 265.5t507 90.5h1260v-323q-178 79 -280.5 107t-213.5 28h-137v-473h45q280 0 473 8v-192q-154 8 -473 8h-45v-525h123q83 0 127 2.5t113.5 15t143 43t167.5 81.5v-330h-1303zM555 778
q0 -292 131.5 -440t380.5 -150h123v1174h-123q-252 0 -382 -145.5t-130 -438.5z" />
    <glyph glyph-name="oe" unicode="&#x153;" horiz-adv-x="2129" 
d="M659 -39q-275 0 -438.5 145.5t-163.5 405.5q0 261 163.5 407t438.5 146q285 0 447 -150q162 150 416 150q257 0 404.5 -143t150.5 -381h-758q6 -162 77 -250t201 -88q209 0 281 225h197q-18 -100 -61 -182.5t-111.5 -147.5t-170 -101t-227.5 -36q-253 0 -405 143
q-161 -143 -441 -143zM455 512q0 -192 53.5 -286.5t153.5 -94.5q206 0 206 381q0 383 -206 383q-207 0 -207 -383zM1323 655h387q-11 122 -58.5 186t-129.5 64q-80 0 -133 -66t-66 -184z" />
    <glyph glyph-name="Racute" unicode="&#x154;" horiz-adv-x="1650" 
d="M1126 0l-424 692h-59v-350q0 -134 20.5 -212t73.5 -120v-10h-645v10q52 42 71 119.5t19 212.5v866q0 136 -19 213t-71 119v10h752q328 0 496.5 -98t168.5 -313q0 -174 -103 -274t-294 -132l553 -717v-16h-539zM643 862h92q155 0 234.5 63t79.5 203q0 242 -299 242h-107
v-508zM715 1694l178 317h393l-407 -317h-164z" />
    <glyph glyph-name="racute" unicode="&#x155;" horiz-adv-x="1034" 
d="M59 0v10q49 42 67.5 120t18.5 212v342q0 135 -18.5 212.5t-67.5 121.5v8h541q-31 -84 -31 -342v-35h4q14 70 48 137t86.5 124t128.5 92t163 36v-346q-165 1 -259 -23.5t-130.5 -70t-40.5 -123.5v-135q0 -134 21 -210.5t76 -119.5v-10h-607zM512 1178l152 372h350
l-389 -372h-113z" />
    <glyph glyph-name="uni0156" unicode="&#x156;" horiz-adv-x="1650" 
d="M1126 0l-424 692h-59v-350q0 -134 20.5 -212t73.5 -120v-10h-645v10q52 42 71 119.5t19 212.5v866q0 136 -19 213t-71 119v10h752q328 0 496.5 -98t168.5 -313q0 -174 -103 -274t-294 -132l553 -717v-16h-539zM616 -467l127 344h326l-358 -387zM643 862h92
q155 0 234.5 63t79.5 203q0 242 -299 242h-107v-508z" />
    <glyph glyph-name="uni0157" unicode="&#x157;" horiz-adv-x="1034" 
d="M59 0v10q49 42 67.5 120t18.5 212v342q0 135 -18.5 212.5t-67.5 121.5v8h541q-31 -84 -31 -342v-35h4q14 70 48 137t86.5 124t128.5 92t163 36v-346q-165 1 -259 -23.5t-130.5 -70t-40.5 -123.5v-135q0 -134 21 -210.5t76 -119.5v-10h-607zM70 -467l127 344h325
l-358 -387z" />
    <glyph glyph-name="Rcaron" unicode="&#x158;" horiz-adv-x="1650" 
d="M1126 0l-424 692h-59v-350q0 -134 20.5 -212t73.5 -120v-10h-645v10q52 42 71 119.5t19 212.5v866q0 136 -19 213t-71 119v10h752q328 0 496.5 -98t168.5 -313q0 -174 -103 -274t-294 -132l553 -717v-16h-539zM367 2011h180l254 -162l254 162h180l-332 -317h-205z
M643 862h92q155 0 234.5 63t79.5 203q0 242 -299 242h-107v-508z" />
    <glyph glyph-name="rcaron" unicode="&#x159;" horiz-adv-x="1034" 
d="M59 0v10q49 42 67.5 120t18.5 212v342q0 135 -18.5 212.5t-67.5 121.5v8h541q-31 -84 -31 -342v-35h4q14 70 48 137t86.5 124t128.5 92t163 36v-346q-165 1 -259 -23.5t-130.5 -70t-40.5 -123.5v-135q0 -134 21 -210.5t76 -119.5v-10h-607zM162 1548h170l229 -205
l227 205h170l-296 -370h-203z" />
    <glyph glyph-name="Sacute" unicode="&#x15a;" horiz-adv-x="1441" 
d="M754 -37q-299 0 -489.5 137t-225.5 392h401q10 -76 32 -137.5t59.5 -110t94.5 -75.5t130 -28q90 0 142 41t52 117q1 38 -15 71.5t-41 61t-77.5 60.5t-103.5 60t-140 71q-89 42 -155.5 80t-128.5 86t-101 98t-62.5 112.5t-23.5 133.5q0 142 79 244.5t211 152t302 49.5
q265 0 447.5 -123t232.5 -356h-399q-6 82 -38 148.5t-93.5 109t-143.5 43.5q-86 1 -133 -39t-49 -109q0 -40 18.5 -75.5t45 -63t80.5 -60.5t100 -57t127 -63q92 -45 155.5 -80t129.5 -83.5t105 -97.5t64 -114.5t25 -140.5q0 -141 -79.5 -245t-217.5 -157t-317 -53zM612 1694
l179 317h393l-408 -317h-164z" />
    <glyph glyph-name="sacute" unicode="&#x15b;" horiz-adv-x="1216" 
d="M631 -39q-255 0 -405.5 98.5t-178.5 270.5h361q9 -104 69 -166t158 -62q67 0 107 28t40 75q0 61 -61 98.5t-223 91.5l-64.5 21.5t-61.5 21.5t-59.5 24t-54 26.5t-50.5 30.5t-42.5 33.5t-36.5 39.5t-26 45t-17.5 52t-5.5 59q0 103 69 176.5t182.5 108t260.5 34.5
q226 0 374 -87t189 -247h-346q-11 88 -66 140.5t-149 52.5q-67 0 -103 -26t-36 -71q0 -26 14 -48t35.5 -38.5t66 -35.5t86 -33t115.5 -37q77 -25 130.5 -46t106.5 -50.5t85 -62.5t51.5 -78.5t19.5 -100.5q0 -110 -71.5 -187.5t-190 -114t-272.5 -36.5zM543 1178l151 372h350
l-389 -372h-112z" />
    <glyph glyph-name="Scircumflex" unicode="&#x15c;" horiz-adv-x="1441" 
d="M754 -37q-299 0 -489.5 137t-225.5 392h401q10 -76 32 -137.5t59.5 -110t94.5 -75.5t130 -28q90 0 142 41t52 117q1 38 -15 71.5t-41 61t-77.5 60.5t-103.5 60t-140 71q-89 42 -155.5 80t-128.5 86t-101 98t-62.5 112.5t-23.5 133.5q0 142 79 244.5t211 152t302 49.5
q265 0 447.5 -123t232.5 -356h-399q-6 82 -38 148.5t-93.5 109t-143.5 43.5q-86 1 -133 -39t-49 -109q0 -40 18.5 -75.5t45 -63t80.5 -60.5t100 -57t127 -63q92 -45 155.5 -80t129.5 -83.5t105 -97.5t64 -114.5t25 -140.5q0 -141 -79.5 -245t-217.5 -157t-317 -53zM281 1694
l315 317h203l315 -317h-180l-236 168l-237 -168h-180z" />
    <glyph glyph-name="scircumflex" unicode="&#x15d;" horiz-adv-x="1216" 
d="M631 -39q-255 0 -405.5 98.5t-178.5 270.5h361q9 -104 69 -166t158 -62q67 0 107 28t40 75q0 61 -61 98.5t-223 91.5l-64.5 21.5t-61.5 21.5t-59.5 24t-54 26.5t-50.5 30.5t-42.5 33.5t-36.5 39.5t-26 45t-17.5 52t-5.5 59q0 103 69 176.5t182.5 108t260.5 34.5
q226 0 374 -87t189 -247h-346q-11 88 -66 140.5t-149 52.5q-67 0 -103 -26t-36 -71q0 -26 14 -48t35.5 -38.5t66 -35.5t86 -33t115.5 -37q77 -25 130.5 -46t106.5 -50.5t85 -62.5t51.5 -78.5t19.5 -100.5q0 -110 -71.5 -187.5t-190 -114t-272.5 -36.5zM217 1178l285 366h186
l287 -366h-170l-209 204l-209 -204h-170z" />
    <glyph glyph-name="Scedilla" unicode="&#x15e;" horiz-adv-x="1441" 
d="M772 -516q-105 0 -199 36t-145 99l72 70q27 -37 89 -64.5t124 -27.5q137 0 137 81q0 41 -36.5 63.5t-102.5 22.5q-53 0 -93 -12l-55 51l129 162q-274 14 -447 149.5t-206 377.5h401q10 -76 32 -137.5t59.5 -110t94.5 -75.5t130 -28q90 0 142 41t52 117q1 38 -15 71.5
t-41 61t-77.5 60.5t-103.5 60t-140 71q-89 42 -155.5 80t-128.5 86t-101 98t-62.5 112.5t-23.5 133.5q0 142 79 244.5t211 152t302 49.5q265 0 447.5 -123t232.5 -356h-399q-6 82 -38 148.5t-93.5 109t-143.5 43.5q-86 1 -133 -39t-49 -109q0 -40 18.5 -75.5t45 -63
t80.5 -60.5t100 -57t127 -63q92 -45 155.5 -80t129.5 -83.5t105 -97.5t64 -114.5t25 -140.5q0 -199 -152.5 -319t-400.5 -134l-57 -76q32 7 63 7q116 0 187 -51t71 -142q0 -73 -47.5 -124.5t-114.5 -73t-145 -21.5z" />
    <glyph glyph-name="scedilla" unicode="&#x15f;" horiz-adv-x="1216" 
d="M629 -514q-105 0 -199 36t-145 99l71 70q27 -37 89 -64.5t124 -27.5q138 0 138 82q0 41 -37 63.5t-103 22.5q-48 0 -92 -13l-55 51l127 158q-218 17 -346.5 113t-153.5 254h361q9 -104 69 -166t158 -62q67 0 107 28t40 75q0 61 -61 98.5t-223 91.5l-64.5 21.5t-61.5 21.5
t-59.5 24t-54 26.5t-50.5 30.5t-42.5 33.5t-36.5 39.5t-26 45t-17.5 52t-5.5 59q0 103 69 176.5t182.5 108t260.5 34.5q226 0 374 -87t189 -247h-346q-11 88 -66 140.5t-149 52.5q-67 0 -103 -26t-36 -71q0 -26 14 -48t35.5 -38.5t66 -35.5t86 -33t115.5 -37
q77 -25 130.5 -46t106.5 -50.5t85 -62.5t51.5 -78.5t19.5 -100.5q0 -105 -66 -181t-176 -114t-255 -43l-54 -70q32 7 64 7q116 0 187 -51t71 -142q0 -73 -47.5 -124.5t-114.5 -73t-145 -21.5z" />
    <glyph glyph-name="Scaron" unicode="&#x160;" horiz-adv-x="1441" 
d="M754 -37q-299 0 -489.5 137t-225.5 392h401q10 -76 32 -137.5t59.5 -110t94.5 -75.5t130 -28q90 0 142 41t52 117q1 38 -15 71.5t-41 61t-77.5 60.5t-103.5 60t-140 71q-89 42 -155.5 80t-128.5 86t-101 98t-62.5 112.5t-23.5 133.5q0 142 79 244.5t211 152t302 49.5
q265 0 447.5 -123t232.5 -356h-399q-6 82 -38 148.5t-93.5 109t-143.5 43.5q-86 1 -133 -39t-49 -109q0 -40 18.5 -75.5t45 -63t80.5 -60.5t100 -57t127 -63q92 -45 155.5 -80t129.5 -83.5t105 -97.5t64 -114.5t25 -140.5q0 -141 -79.5 -245t-217.5 -157t-317 -53zM264 2011
h180l254 -162l254 162h181l-332 -317h-205z" />
    <glyph glyph-name="scaron" unicode="&#x161;" horiz-adv-x="1216" 
d="M631 -39q-255 0 -405.5 98.5t-178.5 270.5h361q9 -104 69 -166t158 -62q67 0 107 28t40 75q0 61 -61 98.5t-223 91.5l-64.5 21.5t-61.5 21.5t-59.5 24t-54 26.5t-50.5 30.5t-42.5 33.5t-36.5 39.5t-26 45t-17.5 52t-5.5 59q0 103 69 176.5t182.5 108t260.5 34.5
q226 0 374 -87t189 -247h-346q-11 88 -66 140.5t-149 52.5q-67 0 -103 -26t-36 -71q0 -26 14 -48t35.5 -38.5t66 -35.5t86 -33t115.5 -37q77 -25 130.5 -46t106.5 -50.5t85 -62.5t51.5 -78.5t19.5 -100.5q0 -110 -71.5 -187.5t-190 -114t-272.5 -36.5zM195 1548h170
l229 -205l227 205h170l-297 -370h-202z" />
    <glyph glyph-name="uni0162" unicode="&#x162;" horiz-adv-x="1503" 
d="M29 1217v333h1446v-333q-191 85 -287.5 116t-198.5 31h-6v-1022q0 -133 19.5 -211t70.5 -121v-10h-252l-82 -109q31 7 64 7q116 0 187 -51t71 -142q0 -73 -47.5 -124.5t-114.5 -73t-145 -21.5q-105 0 -199 36t-145 99l71 70q27 -37 89 -64.5t124 -27.5q137 0 137 82
q0 41 -36.5 63.5t-102.5 22.5q-48 0 -92 -13l-55 51l153 195h-268v10q52 42 71 119.5t19 212.5v1022h-4q-103 0 -199 -30.5t-288 -116.5z" />
    <glyph glyph-name="uni0163" unicode="&#x163;" horiz-adv-x="1015" 
d="M12 842v184h191v184l418 267h6v-451h315v-184h-315v-445q0 -87 35.5 -128.5t107.5 -41.5q122 0 207 119l35 -141q-126 -210 -369 -230l-63 -84q32 7 63 7q116 0 187 -51t71 -142q0 -73 -47.5 -124.5t-114.5 -73t-145 -21.5q-105 0 -199 36t-145 99l72 70q27 -37 89 -64.5
t124 -27.5q137 0 137 82q0 41 -37 63.5t-103 22.5q-48 0 -92 -13l-55 51l137 172q-150 20 -234.5 125t-84.5 304v436h-191z" />
    <glyph glyph-name="Tcaron" unicode="&#x164;" horiz-adv-x="1503" 
d="M29 1217v333h1446v-333q-191 85 -287.5 116t-198.5 31h-6v-1022q0 -133 19.5 -211t70.5 -121v-10h-643v10q52 42 71 119.5t19 212.5v1022h-4q-103 0 -199 -30.5t-288 -116.5zM317 2011h181l254 -162l254 162h180l-332 -317h-205z" />
    <glyph glyph-name="tcaron" unicode="&#x165;" horiz-adv-x="1024" 
d="M594 -27q-181 0 -286 105t-105 328v436h-191v184h191v184l418 267h6v-451h315v-184h-315v-445q0 -87 35.5 -128.5t107.5 -41.5q122 0 207 119l35 -141q-64 -109 -169.5 -170.5t-248.5 -61.5zM754 1223l51 393h291l-230 -393h-112z" />
    <glyph glyph-name="Tbar" unicode="&#x166;" horiz-adv-x="1503" 
d="M29 1217v333h1446v-333q-191 85 -287.5 116t-198.5 31h-6v-535h262v-149h-262v-338q0 -133 19.5 -211t70.5 -121v-10h-643v10q52 42 71 119.5t19 212.5v338h-262v149h262v535h-4q-103 0 -199 -30.5t-288 -116.5z" />
    <glyph glyph-name="tbar" unicode="&#x167;" horiz-adv-x="1021" 
d="M12 551v121h199v170h-191v184h191v184l418 267h6v-451h315v-184h-315v-170h321v-121h-321v-154q0 -87 35.5 -128.5t107.5 -41.5q122 0 207 119l35 -141q-64 -109 -169.5 -170.5t-248.5 -61.5q-181 0 -286 105t-105 328v145h-199z" />
    <glyph glyph-name="Utilde" unicode="&#x168;" horiz-adv-x="1677" 
d="M858 -37q-121 0 -222 21t-190.5 71.5t-151 129t-97 199t-35.5 275.5v549q0 136 -19 213t-71 119v10h645v-10q-52 -42 -71 -119t-19 -213v-561q0 -234 70 -339t231 -105q164 0 244.5 108t80.5 336v561q0 136 -19 213t-71 119v10h443v-10q-52 -43 -72.5 -120.5
t-20.5 -211.5v-549q0 -360 -166.5 -528t-488.5 -168zM543 1698q0 327 233 327q53 0 95.5 -17t70 -40.5t52 -47.5t53.5 -41t61 -17q48 0 67 35t21 116h125q-3 -327 -231 -327q-52 0 -94.5 16.5t-70.5 40t-52.5 47.5t-54 40.5t-62.5 16.5q-48 0 -68 -36t-20 -113h-125z" />
    <glyph glyph-name="utilde" unicode="&#x169;" horiz-adv-x="1466" 
d="M487 -37q-165 0 -258.5 100t-93.5 314v307q0 135 -17.5 212.5t-64.5 121.5v8h578v-8q-40 -44 -55 -122t-15 -212v-262q0 -110 34.5 -158.5t104.5 -48.5q78 0 130.5 70.5t64.5 199.5v199q0 135 -16 212.5t-58 121.5v8h586v-8q-49 -44 -67.5 -122t-18.5 -212v-342
q0 -136 18.5 -212.5t67.5 -119.5v-10h-535q20 63 23 270q-44 -134 -154.5 -220.5t-253.5 -86.5zM348 1186q-3 381 223 381q50 0 91.5 -19t69 -46t52.5 -54.5t55 -46.5t64 -19q51 0 72.5 42t19.5 132h111q0 -206 -55 -295.5t-160 -89.5q-51 0 -93.5 19.5t-71 46.5t-54.5 54.5
t-56.5 47t-64.5 19.5q-52 0 -73 -41.5t-21 -130.5h-109z" />
    <glyph glyph-name="Umacron" unicode="&#x16a;" horiz-adv-x="1677" 
d="M858 -37q-121 0 -222 21t-190.5 71.5t-151 129t-97 199t-35.5 275.5v549q0 136 -19 213t-71 119v10h645v-10q-52 -42 -71 -119t-19 -213v-561q0 -234 70 -339t231 -105q164 0 244.5 108t80.5 336v561q0 136 -19 213t-71 119v10h443v-10q-52 -43 -72.5 -120.5
t-20.5 -211.5v-549q0 -360 -166.5 -528t-488.5 -168zM535 1763v156h794v-156h-794z" />
    <glyph glyph-name="umacron" unicode="&#x16b;" horiz-adv-x="1466" 
d="M487 -37q-165 0 -258.5 100t-93.5 314v307q0 135 -17.5 212.5t-64.5 121.5v8h578v-8q-40 -44 -55 -122t-15 -212v-262q0 -110 34.5 -158.5t104.5 -48.5q78 0 130.5 70.5t64.5 199.5v199q0 135 -16 212.5t-58 121.5v8h586v-8q-49 -44 -67.5 -122t-18.5 -212v-342
q0 -136 18.5 -212.5t67.5 -119.5v-10h-535q20 63 23 270q-44 -134 -154.5 -220.5t-253.5 -86.5zM342 1249v168h782v-168h-782z" />
    <glyph glyph-name="Ubreve" unicode="&#x16c;" horiz-adv-x="1677" 
d="M858 -37q-121 0 -222 21t-190.5 71.5t-151 129t-97 199t-35.5 275.5v549q0 136 -19 213t-71 119v10h645v-10q-52 -42 -71 -119t-19 -213v-561q0 -234 70 -339t231 -105q164 0 244.5 108t80.5 336v561q0 136 -19 213t-71 119v10h443v-10q-52 -43 -72.5 -120.5
t-20.5 -211.5v-549q0 -360 -166.5 -528t-488.5 -168zM553 2013h152q0 -160 227 -160q229 0 229 160h152q0 -163 -101.5 -250.5t-279.5 -87.5q-176 0 -277.5 87.5t-101.5 250.5z" />
    <glyph glyph-name="ubreve" unicode="&#x16d;" horiz-adv-x="1466" 
d="M487 -37q-165 0 -258.5 100t-93.5 314v307q0 135 -17.5 212.5t-64.5 121.5v8h578v-8q-40 -44 -55 -122t-15 -212v-262q0 -110 34.5 -158.5t104.5 -48.5q78 0 130.5 70.5t64.5 199.5v199q0 135 -16 212.5t-58 121.5v8h586v-8q-49 -44 -67.5 -122t-18.5 -212v-342
q0 -136 18.5 -212.5t67.5 -119.5v-10h-535q20 63 23 270q-44 -134 -154.5 -220.5t-253.5 -86.5zM387 1542h154q0 -180 192 -180q193 0 193 180h153q0 -167 -93 -265.5t-253 -98.5t-253 98.5t-93 265.5z" />
    <glyph glyph-name="Uring" unicode="&#x16e;" horiz-adv-x="1677" 
d="M858 -37q-121 0 -222 21t-190.5 71.5t-151 129t-97 199t-35.5 275.5v549q0 136 -19 213t-71 119v10h645v-10q-52 -42 -71 -119t-19 -213v-561q0 -234 70 -339t231 -105q164 0 244.5 108t80.5 336v561q0 136 -19 213t-71 119v10h443v-10q-52 -43 -72.5 -120.5
t-20.5 -211.5v-549q0 -360 -166.5 -528t-488.5 -168zM670 1876q0 99 70.5 157t189.5 58q122 0 193 -57.5t71 -157.5q0 -101 -71 -158t-193 -57q-119 0 -189.5 57.5t-70.5 157.5zM797 1876q0 -54 36.5 -86.5t96.5 -32.5q61 0 97 32.5t36 86.5q0 53 -36 85t-97 32
q-60 0 -96.5 -32t-36.5 -85z" />
    <glyph glyph-name="uring" unicode="&#x16f;" horiz-adv-x="1466" 
d="M487 -37q-165 0 -258.5 100t-93.5 314v307q0 135 -17.5 212.5t-64.5 121.5v8h578v-8q-40 -44 -55 -122t-15 -212v-262q0 -110 34.5 -158.5t104.5 -48.5q78 0 130.5 70.5t64.5 199.5v199q0 135 -16 212.5t-58 121.5v8h586v-8q-49 -44 -67.5 -122t-18.5 -212v-342
q0 -136 18.5 -212.5t67.5 -119.5v-10h-535q20 63 23 270q-44 -134 -154.5 -220.5t-253.5 -86.5zM471 1403q0 101 71.5 163t190.5 62t190.5 -62t71.5 -163t-71.5 -163t-190.5 -62t-190.5 62t-71.5 163zM600 1403q0 -58 35.5 -92.5t95.5 -34.5q61 0 97 34t36 93t-36 93t-97 34
q-60 0 -95.5 -34.5t-35.5 -92.5z" />
    <glyph glyph-name="Uhungarumlaut" unicode="&#x170;" horiz-adv-x="1677" 
d="M858 -37q-121 0 -222 21t-190.5 71.5t-151 129t-97 199t-35.5 275.5v549q0 136 -19 213t-71 119v10h645v-10q-52 -42 -71 -119t-19 -213v-561q0 -234 70 -339t231 -105q164 0 244.5 108t80.5 336v561q0 136 -19 213t-71 119v10h443v-10q-52 -43 -72.5 -120.5
t-20.5 -211.5v-549q0 -360 -166.5 -528t-488.5 -168zM692 1694l156 317h299l-328 -317h-127zM1044 1694l211 317h301l-385 -317h-127z" />
    <glyph glyph-name="uhungarumlaut" unicode="&#x171;" horiz-adv-x="1466" 
d="M487 -37q-165 0 -258.5 100t-93.5 314v307q0 135 -17.5 212.5t-64.5 121.5v8h578v-8q-40 -44 -55 -122t-15 -212v-262q0 -110 34.5 -158.5t104.5 -48.5q78 0 130.5 70.5t64.5 199.5v199q0 135 -16 212.5t-58 121.5v8h586v-8q-49 -44 -67.5 -122t-18.5 -212v-342
q0 -136 18.5 -212.5t67.5 -119.5v-10h-535q20 63 23 270q-44 -134 -154.5 -220.5t-253.5 -86.5zM475 1178l158 372h299l-326 -372h-131zM858 1178l184 372h306l-355 -372h-135z" />
    <glyph glyph-name="Uogonek" unicode="&#x172;" horiz-adv-x="1677" 
d="M858 -37q-121 0 -222 21t-190.5 71.5t-151 129t-97 199t-35.5 275.5v549q0 136 -19 213t-71 119v10h645v-10q-52 -42 -71 -119t-19 -213v-561q0 -234 70 -339t231 -105q164 0 244.5 108t80.5 336v561q0 136 -19 213t-71 119v10h443v-10q-52 -43 -72.5 -120.5
t-20.5 -211.5v-549q0 -269 -92 -429t-274 -224q-59 -37 -96 -92t-37 -121q0 -61 34 -95t89 -34q76 0 135 70v-103q-93 -114 -236 -114q-103 0 -171 54t-68 157q0 141 139 237q-25 -2 -78 -2z" />
    <glyph glyph-name="uogonek" unicode="&#x173;" horiz-adv-x="1466" 
d="M487 -37q-165 0 -258.5 100t-93.5 314v307q0 135 -17.5 212.5t-64.5 121.5v8h578v-8q-40 -44 -55 -122t-15 -212v-262q0 -110 34.5 -158.5t104.5 -48.5q78 0 130.5 70.5t64.5 199.5v199q0 135 -16 212.5t-58 121.5v8h586v-8q-49 -44 -67.5 -122t-18.5 -212v-342
q0 -136 18.5 -212.5t67.5 -119.5v-10h-291q-68 -36 -113 -95t-45 -132q0 -61 34 -95t89 -34q78 0 136 69v-102q-94 -115 -236 -115q-104 0 -172 54t-68 157q0 98 67 172.5t171 120.5h-107q20 63 23 270q-44 -134 -154.5 -220.5t-253.5 -86.5z" />
    <glyph glyph-name="Wcircumflex" unicode="&#x174;" horiz-adv-x="2242" 
d="M123 1292q-35 98 -68 157.5t-75 90.5v10h675v-10q-90 -58 -34 -244l215 -708l286 913h226l284 -917l215 716q30 96 23.5 155t-51.5 85v10h444v-10q-84 -52 -145 -240l-373 -1150q-29 -93 -37 -150h-281l-294 893l-252 -752q-28 -71 -39 -141h-279zM821 1694l316 317h202
l316 -317h-180l-236 168l-238 -168h-180z" />
    <glyph glyph-name="wcircumflex" unicode="&#x175;" horiz-adv-x="1792" 
d="M133 793q-73 184 -137 225v8h600v-8q-47 -21 -55.5 -75.5t18.5 -119.5l148 -401l196 582h187l204 -586l146 395q62 161 -37 205v8h393v-8q-40 -34 -69.5 -82t-59.5 -125l-278 -700q-27 -67 -37 -111h-267l-188 539l-147 -420q-30 -83 -37 -119h-267zM612 1178l285 366
h186l287 -366h-170l-209 204l-209 -204h-170z" />
    <glyph glyph-name="Ycircumflex" unicode="&#x176;" horiz-adv-x="1527" 
d="M158 1337q-42 81 -80 127.5t-88 75.5v10h686v-10q-26 -18 -34 -53.5t0 -77t28 -86.5l209 -436l215 438q22 45 31.5 85t1.5 76t-37 54v10h448v-10q-101 -59 -178 -209l-350 -659v-330q0 -135 19 -212.5t71 -119.5v-10h-654v10q52 43 72.5 121t20.5 211v324zM434 1694
l316 317h202l316 -317h-181l-235 168l-238 -168h-180z" />
    <glyph glyph-name="ycircumflex" unicode="&#x177;" horiz-adv-x="1236" 
d="M240 -500q-116 0 -191 35v315q84 -43 215 -43q105 0 191.5 47t134.5 146h-137l-308 745q-87 215 -153 273v8h573v-8q-15 -10 -24.5 -22.5t-10.5 -33t0 -37t10 -50t16 -53.5t22 -66l139 -432l147 432q26 69 35.5 118.5t1.5 87t-37 56.5v8h391v-8q-72 -50 -157 -264
l-307 -744q-115 -277 -241 -393.5t-310 -116.5zM326 1178l284 366h187l286 -366h-170l-208 204l-209 -204h-170z" />
    <glyph glyph-name="Ydieresis" unicode="&#x178;" horiz-adv-x="1527" 
d="M158 1337q-42 81 -80 127.5t-88 75.5v10h686v-10q-26 -18 -34 -53.5t0 -77t28 -86.5l209 -436l215 438q22 45 31.5 85t1.5 76t-37 54v10h448v-10q-101 -59 -178 -209l-350 -659v-330q0 -135 19 -212.5t71 -119.5v-10h-654v10q52 43 72.5 121t20.5 211v324zM471 1702v295
h307v-295h-307zM928 1702v295h307v-295h-307z" />
    <glyph glyph-name="Zacute" unicode="&#x179;" horiz-adv-x="1421" 
d="M66 0v170l739 1190h-184q-44 0 -80.5 -2t-80 -11t-65 -12.5t-76 -22.5t-71 -25t-91.5 -35t-98 -38v336h1291v-159l-746 -1194h172q134 0 260 31.5t326 115.5v-344h-1296zM627 1694l178 317h393l-407 -317h-164z" />
    <glyph glyph-name="zacute" unicode="&#x17a;" horiz-adv-x="1130" 
d="M57 0v133l537 719h-135q-140 0 -402 -111v285h1008v-129l-539 -723h158q101 0 182.5 27.5t208.5 93.5v-295h-1018zM530 1178l152 372h350l-389 -372h-113z" />
    <glyph glyph-name="Zdotaccent" unicode="&#x17b;" horiz-adv-x="1421" 
d="M66 0v170l739 1190h-184q-44 0 -80.5 -2t-80 -11t-65 -12.5t-76 -22.5t-71 -25t-91.5 -35t-98 -38v336h1291v-159l-746 -1194h172q134 0 260 31.5t326 115.5v-344h-1296zM559 1702v295h307v-295h-307z" />
    <glyph glyph-name="zdotaccent" unicode="&#x17c;" horiz-adv-x="1130" 
d="M57 0v133l537 719h-135q-140 0 -402 -111v285h1008v-129l-539 -723h158q101 0 182.5 27.5t208.5 93.5v-295h-1018zM401 1223v295h363v-295h-363z" />
    <glyph glyph-name="Zcaron" unicode="&#x17d;" horiz-adv-x="1421" 
d="M66 0v170l739 1190h-184q-44 0 -80.5 -2t-80 -11t-65 -12.5t-76 -22.5t-71 -25t-91.5 -35t-98 -38v336h1291v-159l-746 -1194h172q134 0 260 31.5t326 115.5v-344h-1296zM279 2011h180l254 -162l254 162h180l-332 -317h-205z" />
    <glyph glyph-name="zcaron" unicode="&#x17e;" horiz-adv-x="1130" 
d="M57 0v133l537 719h-135q-140 0 -402 -111v285h1008v-129l-539 -723h158q101 0 182.5 27.5t208.5 93.5v-295h-1018zM182 1548h170l230 -205l227 205h170l-297 -370h-203z" />
    <glyph glyph-name="uni018F" unicode="&#x18f;" horiz-adv-x="1837" 
d="M895 -33q-193 0 -350 57.5t-260 159t-159.5 236.5t-59.5 293h1232v37q0 263 -118 403.5t-351 140.5q-187 0 -320.5 -102t-193.5 -291h-247q71 307 294.5 490.5t561.5 183.5q251 0 442.5 -95t298.5 -276.5t107 -425.5q0 -251 -111.5 -435.5t-309 -280t-456.5 -95.5z
M551 567q19 -182 111.5 -283.5t244.5 -101.5q151 0 247.5 101.5t129.5 283.5h-733z" />
    <glyph glyph-name="florin" unicode="&#x192;" horiz-adv-x="1519" 
d="M61 -133q97 0 164.5 19t113 53.5t75 98t46 137.5t29.5 187l46 369h-474v96h484l18 146q37 307 180.5 455.5t376.5 148.5q126 0 211.5 -39t126.5 -94l-135 -262q-24 102 -59.5 152t-102.5 50q-92 0 -144.5 -98t-78.5 -313l-18 -146h526v-96h-539l-49 -395
q-82 -672 -797 -672v203z" />
    <glyph glyph-name="Gcaron" unicode="&#x1e6;" horiz-adv-x="1910" 
d="M825 -25q-225 0 -397 95t-267 270t-95 405q0 200 69.5 360t192 263t286 158t355.5 55q310 0 531.5 -149.5t283.5 -397.5h-443q-36 165 -129.5 256.5t-244.5 91.5q-194 0 -307 -152t-113 -407q0 -267 117 -415t313 -148q173 0 279 107.5t135 287.5l-543 -2l-2 166l950 2
v-833h-178l-174 366q-77 -176 -234.5 -277.5t-384.5 -101.5zM543 2011h180l254 -162l254 162h180l-332 -317h-205z" />
    <glyph glyph-name="gcaron" unicode="&#x1e7;" horiz-adv-x="1456" 
d="M524 -518q-195 0 -304 47.5t-109 136.5q0 136 262 199q-152 9 -236 69t-84 160q0 185 273 295q-88 48 -136.5 123.5t-48.5 171.5q0 121 77 208t206 129t295 42q238 0 399 -88q10 154 94 237.5t215 85.5v-311q-101 0 -154 -17t-75 -55q100 -97 100 -233
q0 -121 -75.5 -207.5t-205 -129t-298.5 -42.5q-159 0 -287 41q-94 -42 -94 -92q0 -35 41 -53t147 -17q86 2 304 24.5t296 22.5q153 0 227 -63t74 -170q0 -112 -77 -209.5t-203.5 -163.5t-289.5 -103.5t-333 -37.5zM326 1548h170l229 -205l227 205h170l-297 -370h-202z
M397 -279q0 -90 189 -90q115 0 228.5 27t189 75.5t75.5 104.5q0 34 -25.5 49t-86.5 15q-146 0 -353 -47q-217 -47 -217 -134zM543 684q0 -116 46 -177t130 -61t130 61t46 177q0 114 -46 174t-130 60t-130 -60t-46 -174z" />
    <glyph glyph-name="AEacute" unicode="&#x1fc;" horiz-adv-x="2207" 
d="M-106 8q115 66 266 332l688 1210h1259v-331q-202 83 -296.5 112t-196.5 29h-137v-471h63q185 0 455 12v-199q-248 11 -455 11h-63v-520h125q139 0 252 28t296 115v-336h-1228v10q52 42 71 119.5t19 212.5v98h-516l-64 -118q-61 -112 -75 -192.5t28 -121.5v-8h-491v8z
M592 621h420v587q0 79 -6 140h-25zM1044 1694l179 317h393l-408 -317h-164z" />
    <glyph glyph-name="aeacute" unicode="&#x1fd;" horiz-adv-x="2000" 
d="M1364 -39q-183 0 -316 89t-186 255q-52 -161 -175.5 -250.5t-303.5 -89.5q-161 0 -249.5 71t-88.5 197q0 59 21 106t54.5 80t93.5 62.5t120.5 50t152.5 46.5q168 45 226 82t59 112q0 64 -34 97.5t-99 33.5q-88 0 -139 -61t-51 -180h-361q7 94 58 172t130 127.5
t175.5 76.5t197.5 29q229 3 352 -131q151 129 381 129q260 0 409.5 -141.5t152.5 -378.5h-779q6 -163 81 -254.5t212 -91.5q217 0 289 229h197q-19 -99 -63 -182t-114 -148t-173 -101t-230 -36zM444 311q0 -52 31.5 -78t83.5 -26q97 0 157 81t62 212v84q-13 -29 -50 -51.5
t-116 -51.5q-91 -35 -129.5 -72.5t-38.5 -97.5zM950 1178l152 372h350l-389 -372h-113zM1169 651h400q-11 125 -59.5 190.5t-131.5 65.5q-87 0 -141 -67t-68 -189z" />
    <glyph glyph-name="Oslashacute" unicode="&#x1fe;" horiz-adv-x="1908" 
d="M504 -336l-103 49l152 324q-230 90 -358.5 282.5t-128.5 456.5q0 183 64 334t179.5 255t281 161t365.5 57q162 0 306 -39l149 318l102 -50l-143 -305q224 -92 348.5 -282.5t124.5 -452.5q0 -244 -110.5 -427.5t-311.5 -281.5t-465 -98q-157 0 -294 35zM557 772
q0 -308 123 -465l473 1008q-82 57 -197 57q-193 0 -296 -158.5t-103 -441.5zM768 227q82 -51 188 -51q192 0 295 158.5t103 441.5q0 298 -115 455zM870 1696l179 317h393l-408 -317h-164z" />
    <glyph glyph-name="oslashacute" unicode="&#x1ff;" horiz-adv-x="1386" 
d="M395 -268l-84 41l107 235q-171 58 -266 189t-95 321q0 262 172.5 407.5t462.5 145.5q112 0 199 -20l108 239l82 -39l-102 -225q166 -60 258 -189.5t92 -318.5q0 -260 -172.5 -405.5t-464.5 -145.5q-88 0 -182 17zM475 518q0 -180 49 -274l283 620q-46 37 -113 37
q-219 0 -219 -383zM592 166q47 -29 102 -29q105 0 161 95t56 286q0 172 -43 262zM645 1184l152 372h350l-389 -372h-113z" />
    <glyph glyph-name="uni0218" unicode="&#x218;" horiz-adv-x="1441" 
d="M754 -37q-299 0 -489.5 137t-225.5 392h401q10 -76 32 -137.5t59.5 -110t94.5 -75.5t130 -28q90 0 142 41t52 117q1 38 -15 71.5t-41 61t-77.5 60.5t-103.5 60t-140 71q-89 42 -155.5 80t-128.5 86t-101 98t-62.5 112.5t-23.5 133.5q0 142 79 244.5t211 152t302 49.5
q265 0 447.5 -123t232.5 -356h-399q-6 82 -38 148.5t-93.5 109t-143.5 43.5q-86 1 -133 -39t-49 -109q0 -40 18.5 -75.5t45 -63t80.5 -60.5t100 -57t127 -63q92 -45 155.5 -80t129.5 -83.5t105 -97.5t64 -114.5t25 -140.5q0 -141 -79.5 -245t-217.5 -157t-317 -53zM479 -469
l127 344h326l-359 -387z" />
    <glyph glyph-name="uni0219" unicode="&#x219;" horiz-adv-x="1216" 
d="M631 -39q-255 0 -405.5 98.5t-178.5 270.5h361q9 -104 69 -166t158 -62q67 0 107 28t40 75q0 61 -61 98.5t-223 91.5l-64.5 21.5t-61.5 21.5t-59.5 24t-54 26.5t-50.5 30.5t-42.5 33.5t-36.5 39.5t-26 45t-17.5 52t-5.5 59q0 103 69 176.5t182.5 108t260.5 34.5
q226 0 374 -87t189 -247h-346q-11 88 -66 140.5t-149 52.5q-67 0 -103 -26t-36 -71q0 -26 14 -48t35.5 -38.5t66 -35.5t86 -33t115.5 -37q77 -25 130.5 -46t106.5 -50.5t85 -62.5t51.5 -78.5t19.5 -100.5q0 -110 -71.5 -187.5t-190 -114t-272.5 -36.5zM336 -469l127 344h325
l-358 -387z" />
    <glyph glyph-name="uni021A" unicode="&#x21a;" horiz-adv-x="1503" 
d="M29 1217v333h1446v-333q-191 85 -287.5 116t-198.5 31h-6v-1022q0 -133 19.5 -211t70.5 -121v-10h-643v10q52 42 71 119.5t19 212.5v1022h-4q-103 0 -199 -30.5t-288 -116.5zM461 -467l127 344h325l-358 -387z" />
    <glyph glyph-name="uni021B" unicode="&#x21b;" horiz-adv-x="1015" 
d="M594 -27q-181 0 -286 105t-105 328v436h-191v184h191v184l418 267h6v-451h315v-184h-315v-445q0 -87 35.5 -128.5t107.5 -41.5q122 0 207 119l35 -141q-64 -109 -169.5 -170.5t-248.5 -61.5zM301 -467l127 344h326l-359 -387z" />
    <glyph glyph-name="uni0237" unicode="&#x237;" horiz-adv-x="694" 
d="M-55 -358q123 15 165 83t42 244v717q0 135 -18.5 211.5t-67.5 120.5v10l178 2l331 12v-981q0 -274 -159.5 -421t-470.5 -148v150z" />
    <glyph glyph-name="uni0259" unicode="&#x259;" horiz-adv-x="1312" 
d="M659 1065q127 0 235 -36t188.5 -103t126.5 -171t46 -233q0 -108 -31.5 -199t-88 -157t-133.5 -112.5t-168 -69.5t-191 -23q-272 0 -427.5 143t-158.5 381h799q-8 162 -82.5 250t-210.5 88q-220 0 -295 -225h-209q20 100 65 182.5t116.5 147.5t178.5 101t240 36zM444 371
q11 -122 61.5 -186t137.5 -64q85 0 139.5 65.5t69.5 184.5h-408z" />
    <glyph glyph-name="circumflex" unicode="&#x2c6;" horiz-adv-x="962" 
d="M102 1178l285 366h186l287 -366h-170l-209 204l-209 -204h-170z" />
    <glyph glyph-name="caron" unicode="&#x2c7;" horiz-adv-x="1001" 
d="M399 1178l-297 370h170l230 -205l227 205h170l-297 -370h-203z" />
    <glyph glyph-name="breve" unicode="&#x2d8;" horiz-adv-x="897" 
d="M449 1178q-160 0 -253.5 98.5t-93.5 265.5h154q0 -180 193 -180q192 0 192 180h154q0 -167 -93 -265.5t-253 -98.5z" />
    <glyph glyph-name="dotaccent" unicode="&#x2d9;" horiz-adv-x="618" 
d="M102 1223v311h414v-311h-414z" />
    <glyph glyph-name="ring" unicode="&#x2da;" horiz-adv-x="729" 
d="M365 1178q-119 0 -191 62.5t-72 162.5t72 162.5t191 62.5t190.5 -62t71.5 -163t-71.5 -163t-190.5 -62zM231 1403q0 -58 35.5 -92.5t95.5 -34.5q62 0 98 34.5t36 92.5t-36 92.5t-98 34.5q-60 0 -95.5 -34.5t-35.5 -92.5z" />
    <glyph glyph-name="ogonek" unicode="&#x2db;" horiz-adv-x="679" 
d="M342 -504q-104 0 -172 54t-68 157q0 64 30.5 120.5t81.5 96.5t107.5 67.5t118.5 43.5l37 -35q-68 -36 -113 -95t-45 -132q0 -61 33.5 -95t89.5 -34q78 0 136 69v-102q-94 -115 -236 -115z" />
    <glyph glyph-name="tilde" unicode="&#x2dc;" horiz-adv-x="962" 
d="M102 1186q-3 381 224 381q50 0 91.5 -19t68.5 -46t52 -54.5t55 -46.5t64 -19q51 0 73 42t20 132h110q0 -206 -55 -295.5t-160 -89.5q-51 0 -93.5 19.5t-71 46.5t-54.5 54.5t-56.5 47t-64.5 19.5q-52 0 -73 -41.5t-21 -130.5h-109z" />
    <glyph glyph-name="hungarumlaut" unicode="&#x2dd;" horiz-adv-x="1077" 
d="M485 1178l185 372h305l-354 -372h-136zM102 1178l158 372h299l-326 -372h-131z" />
    <glyph glyph-name="gravecomb" unicode="&#x300;" 
d="M492 1178l-390 372h351l151 -372h-112z" />
    <glyph glyph-name="acutecomb" unicode="&#x301;" 
d="M102 1178l152 372h350l-389 -372h-113z" />
    <glyph glyph-name="uni0302" unicode="&#x302;" 
d="M102 1178l285 366h186l287 -366h-170l-209 204l-209 -204h-170z" />
    <glyph glyph-name="tildecomb" unicode="&#x303;" 
d="M119 1186q-3 381 223 381q50 0 91.5 -19t69 -46t52.5 -54.5t55 -46.5t64 -19q51 0 72.5 42t19.5 132h111q0 -206 -55 -295.5t-160 -89.5q-51 0 -93.5 19.5t-71 46.5t-54.5 54.5t-56.5 47t-64.5 19.5q-52 0 -73.5 -42t-21.5 -130h-108z" />
    <glyph glyph-name="uni0304" unicode="&#x304;" 
d="M102 1249v168h783v-168h-783z" />
    <glyph glyph-name="uni0306" unicode="&#x306;" 
d="M500 1178q-160 0 -253 98.5t-93 265.5h153q0 -180 193 -180q192 0 192 180h154q0 -167 -93 -265.5t-253 -98.5z" />
    <glyph glyph-name="uni0307" unicode="&#x307;" 
d="M102 1223v311h414v-311h-414z" />
    <glyph glyph-name="uni0308" unicode="&#x308;" 
d="M528 1223v295h310v-295h-310zM98 1223v295h310v-295h-310z" />
    <glyph glyph-name="uni030A" unicode="&#x30a;" 
d="M365 1178q-119 0 -191 62.5t-72 162.5t72 162.5t191 62.5t190.5 -62t71.5 -163t-71.5 -163t-190.5 -62zM231 1403q0 -58 35.5 -92.5t95.5 -34.5q62 0 98 34.5t36 92.5t-36 92.5t-98 34.5q-60 0 -95.5 -34.5t-35.5 -92.5z" />
    <glyph glyph-name="uni030B" unicode="&#x30b;" 
d="M471 1178l184 372h306l-355 -372h-135zM88 1178l158 372h299l-326 -372h-131z" />
    <glyph glyph-name="uni030C" unicode="&#x30c;" 
d="M416 1178l-297 370h170l229 -205l227 205h170l-297 -370h-202z" />
    <glyph glyph-name="uni0312" unicode="&#x312;" 
d="M102 1188l326 403h111l-138 -403h-299z" />
    <glyph glyph-name="uni0326" unicode="&#x326;" 
d="M152 -510l-95 43l127 344h326z" />
    <glyph glyph-name="uni0327" unicode="&#x327;" 
d="M510 -514q-105 0 -199 36t-145 99l72 70q27 -37 89 -64.5t124 -27.5q137 0 137 82q0 41 -36.5 63.5t-102.5 22.5q-49 0 -93 -13l-55 51l158 199h123l-86 -113q32 7 63 7q116 0 187 -51t71 -142q0 -73 -47.5 -124.5t-114.5 -73t-145 -21.5z" />
    <glyph glyph-name="uni0328" unicode="&#x328;" 
d="M428 -504q-104 0 -172 54t-68 157q0 64 30.5 120.5t81.5 96.5t107.5 67.5t118.5 43.5l37 -35q-68 -35 -112.5 -94.5t-44.5 -132.5q0 -62 33.5 -95.5t88.5 -33.5q78 0 136 69v-102q-94 -115 -236 -115z" />
    <glyph glyph-name="uni0394" unicode="&#x394;" horiz-adv-x="1470" 
d="M-16 0v150l548 1400h418l537 -1400v-150h-1503zM244 182h751l-354 1084z" />
    <glyph glyph-name="uni03A9" unicode="&#x3a9;" horiz-adv-x="1871" 
d="M102 0v295h560v57q-285 46 -445 201.5t-160 392.5q0 289 233.5 462t645.5 173q413 0 647 -173t234 -462q0 -238 -161 -393.5t-446 -200.5v-57h559v-295h-753v395q157 57 238 175.5t81 326.5q0 225 -107 351t-292 126q-183 0 -290 -126t-107 -351q0 -208 80 -326.5
t237 -175.5v-395h-754z" />
    <glyph glyph-name="uni03BC" unicode="&#x3bc;" horiz-adv-x="1456" 
d="M326 -412q-92 67 -150.5 189t-58.5 276v631q0 135 -16 212.5t-58 121.5v8h569v-8q-39 -44 -54 -121.5t-15 -212.5v-262q0 -111 34.5 -159t104.5 -48q78 0 131.5 77.5t65.5 215.5v176q0 133 -16.5 211.5t-59.5 122.5v8h573v-8q-42 -44 -57.5 -121t-15.5 -213v-334
q0 -92 19 -129t64 -37q31 0 66 21l2 -131q-129 -92 -283 -92q-107 0 -188 66.5t-94 201.5q-38 -123 -120 -203t-183 -80q-53 0 -101 23v-35q0 -142 14 -223.5t50 -143.5h-223z" />
    <glyph glyph-name="pi" unicode="&#x3c0;" horiz-adv-x="1597" 
d="M1198 -20q-330 0 -330 395v467h-213l-18 -842h-406l19 842h-238v184h1522v-184h-258v-436q0 -181 117 -181q93 0 163 103l37 -121q-61 -105 -162 -166t-233 -61z" />
    <glyph glyph-name="Wgrave" unicode="&#x1e80;" horiz-adv-x="2242" 
d="M123 1292q-35 98 -68 157.5t-75 90.5v10h675v-10q-90 -58 -34 -244l215 -708l286 913h226l284 -917l215 716q30 96 23.5 155t-51.5 85v10h444v-10q-84 -52 -145 -240l-373 -1150q-29 -93 -37 -150h-281l-294 893l-252 -752q-28 -71 -39 -141h-279zM750 2011h393l178 -317
h-162z" />
    <glyph glyph-name="wgrave" unicode="&#x1e81;" horiz-adv-x="1792" 
d="M133 793q-73 184 -137 225v8h600v-8q-47 -21 -55.5 -75.5t18.5 -119.5l148 -401l196 582h187l204 -586l146 395q62 161 -37 205v8h393v-8q-40 -34 -69.5 -82t-59.5 -125l-278 -700q-27 -67 -37 -111h-267l-188 539l-147 -420q-30 -83 -37 -119h-267zM541 1550h350
l151 -372h-112z" />
    <glyph glyph-name="Wacute" unicode="&#x1e82;" horiz-adv-x="2242" 
d="M123 1292q-35 98 -68 157.5t-75 90.5v10h675v-10q-90 -58 -34 -244l215 -708l286 913h226l284 -917l215 716q30 96 23.5 155t-51.5 85v10h444v-10q-84 -52 -145 -240l-373 -1150q-29 -93 -37 -150h-281l-294 893l-252 -752q-28 -71 -39 -141h-279zM1151 1694l178 317h393
l-407 -317h-164z" />
    <glyph glyph-name="wacute" unicode="&#x1e83;" horiz-adv-x="1792" 
d="M133 793q-73 184 -137 225v8h600v-8q-47 -21 -55.5 -75.5t18.5 -119.5l148 -401l196 582h187l204 -586l146 395q62 161 -37 205v8h393v-8q-40 -34 -69.5 -82t-59.5 -125l-278 -700q-27 -67 -37 -111h-267l-188 539l-147 -420q-30 -83 -37 -119h-267zM940 1178l152 372
h350l-389 -372h-113z" />
    <glyph glyph-name="Wdieresis" unicode="&#x1e84;" horiz-adv-x="2242" 
d="M123 1292q-35 98 -68 157.5t-75 90.5v10h675v-10q-90 -58 -34 -244l215 -708l286 913h226l284 -917l215 716q30 96 23.5 155t-51.5 85v10h444v-10q-84 -52 -145 -240l-373 -1150q-29 -93 -37 -150h-281l-294 893l-252 -752q-28 -71 -39 -141h-279zM856 1702v295h307v-295
h-307zM1313 1702v295h307v-295h-307z" />
    <glyph glyph-name="wdieresis" unicode="&#x1e85;" horiz-adv-x="1792" 
d="M133 793q-73 184 -137 225v8h600v-8q-47 -21 -55.5 -75.5t18.5 -119.5l148 -401l196 582h187l204 -586l146 395q62 161 -37 205v8h393v-8q-40 -34 -69.5 -82t-59.5 -125l-278 -700q-27 -67 -37 -111h-267l-188 539l-147 -420q-30 -83 -37 -119h-267zM621 1223v295h309
v-295h-309zM1051 1223v295h309v-295h-309z" />
    <glyph glyph-name="uni1E9E" unicode="&#x1e9e;" horiz-adv-x="1708" 
d="M1118 -27q-117 0 -194.5 25.5t-139.5 73.5l2 286q75 -161 263 -161q97 0 145.5 43t48.5 122q0 81 -43.5 138.5t-148.5 138.5q-49 37 -81.5 68t-65 73t-48.5 93.5t-16 111.5q0 131 75 226t211 143h-82q-217 0 -327.5 -118.5t-110.5 -381.5l2 -512q0 -134 15 -211.5
t55 -120.5v-10h-606v10q52 42 71 119.5t19 212.5v469q0 158 40 283.5t110.5 210t171 140.5t216 80.5t250.5 24.5h600l-2 -252q-56 15 -106 15q-115 0 -186.5 -59t-71.5 -150q0 -70 46.5 -126t155.5 -136q61 -47 98.5 -81.5t77.5 -86.5t59 -114t19 -138q0 -209 -138.5 -329.5
t-383.5 -119.5z" />
    <glyph glyph-name="uni1EBC" unicode="&#x1ebc;" horiz-adv-x="1378" 
d="M92 0v10q52 42 71 119.5t19 212.5v866q0 136 -19 213t-71 119v10h1186v-331q-201 83 -296.5 112t-197.5 29h-137v-471h64q184 0 454 12v-199q-247 11 -454 11h-64v-520h125q139 0 253 28t296 115v-336h-1229zM309 1698q0 327 234 327q53 0 95.5 -17t70 -40.5t51.5 -47.5
t53 -41t61 -17q48 0 67.5 35.5t21.5 115.5h124q-3 -327 -231 -327q-52 0 -94.5 16.5t-70.5 40t-52.5 47.5t-54 40.5t-62.5 16.5q-48 0 -68 -36t-20 -113h-125z" />
    <glyph glyph-name="uni1EBD" unicode="&#x1ebd;" horiz-adv-x="1312" 
d="M653 -39q-127 0 -235 36t-188.5 103t-126.5 171t-46 233q0 134 49 242t133.5 177t194.5 105.5t236 36.5q271 0 426.5 -143t158.5 -381h-798q8 -162 82.5 -250t210.5 -88q219 0 294 225h209q-20 -100 -65 -182.5t-116.5 -147.5t-178.5 -101t-240 -36zM274 1186
q-3 381 224 381q50 0 91.5 -19t68.5 -46t52 -54.5t55 -46.5t64 -19q51 0 73 42t20 132h110q0 -206 -55 -295.5t-160 -89.5q-51 0 -93.5 19.5t-71 46.5t-54.5 54.5t-56.5 47t-64.5 19.5q-52 0 -73 -41.5t-21 -130.5h-109zM461 655h407q-11 122 -61 186t-137 64
q-85 0 -139.5 -65.5t-69.5 -184.5z" />
    <glyph glyph-name="Ygrave" unicode="&#x1ef2;" horiz-adv-x="1527" 
d="M158 1337q-42 81 -80 127.5t-88 75.5v10h686v-10q-26 -18 -34 -53.5t0 -77t28 -86.5l209 -436l215 438q22 45 31.5 85t1.5 76t-37 54v10h448v-10q-101 -59 -178 -209l-350 -659v-330q0 -135 19 -212.5t71 -119.5v-10h-654v10q52 43 72.5 121t20.5 211v324zM365 2011h393
l178 -317h-162z" />
    <glyph glyph-name="ygrave" unicode="&#x1ef3;" horiz-adv-x="1236" 
d="M240 -500q-116 0 -191 35v315q84 -43 215 -43q105 0 191.5 47t134.5 146h-137l-308 745q-87 215 -153 273v8h573v-8q-15 -10 -24.5 -22.5t-10.5 -33t0 -37t10 -50t16 -53.5t22 -66l139 -432l147 432q26 69 35.5 118.5t1.5 87t-37 56.5v8h391v-8q-72 -50 -157 -264
l-307 -744q-115 -277 -241 -393.5t-310 -116.5zM256 1550h350l152 -372h-113z" />
    <glyph glyph-name="uni1EF8" unicode="&#x1ef8;" horiz-adv-x="1527" 
d="M158 1337q-42 81 -80 127.5t-88 75.5v10h686v-10q-26 -18 -34 -53.5t0 -77t28 -86.5l209 -436l215 438q22 45 31.5 85t1.5 76t-37 54v10h448v-10q-101 -59 -178 -209l-350 -659v-330q0 -135 19 -212.5t71 -119.5v-10h-654v10q52 43 72.5 121t20.5 211v324zM463 1698
q0 327 233 327q53 0 95.5 -17t70 -40.5t52 -47.5t53.5 -41t61 -17q48 0 67 35t21 116h125q-3 -327 -231 -327q-52 0 -94.5 16.5t-70.5 40t-52.5 47.5t-54 40.5t-62.5 16.5q-48 0 -68 -36t-20 -113h-125z" />
    <glyph glyph-name="uni1EF9" unicode="&#x1ef9;" horiz-adv-x="1236" 
d="M240 -500q-116 0 -191 35v315q84 -43 215 -43q105 0 191.5 47t134.5 146h-137l-308 745q-87 215 -153 273v8h573v-8q-15 -10 -24.5 -22.5t-10.5 -33t0 -37t10 -50t16 -53.5t22 -66l139 -432l147 432q26 69 35.5 118.5t1.5 87t-37 56.5v8h391v-8q-72 -50 -157 -264
l-307 -744q-115 -277 -241 -393.5t-310 -116.5zM319 1186q-3 381 224 381q50 0 91.5 -19t68.5 -46t52 -54.5t55 -46.5t64 -19q51 0 73 42t20 132h110q0 -206 -55 -295.5t-160 -89.5q-51 0 -93.5 19.5t-71 46.5t-54.5 54.5t-56.5 47t-64.5 19.5q-52 0 -73 -41.5t-21 -130.5
h-109z" />
    <glyph glyph-name="endash" unicode="&#x2013;" horiz-adv-x="1964" 
d="M82 430v188h1800v-188h-1800z" />
    <glyph glyph-name="emdash" unicode="&#x2014;" horiz-adv-x="2717" 
d="M82 430v188h2554v-188h-2554z" />
    <glyph glyph-name="quoteleft" unicode="&#x2018;" horiz-adv-x="550" 
d="M477 1337q-228 -7 -270 -163h248v-330h-367v276q0 181 103.5 297t285.5 142v-222z" />
    <glyph glyph-name="quoteright" unicode="&#x2019;" horiz-adv-x="550" 
d="M74 1059q228 7 270 164h-248v329h367v-276q0 -181 -103.5 -296.5t-285.5 -141.5v221z" />
    <glyph glyph-name="quotesinglbase" unicode="&#x201a;" horiz-adv-x="555" 
d="M66 -160q236 7 278 164h-250v330h367v-268q0 -181 -105 -297t-290 -142v213z" />
    <glyph glyph-name="quotedblleft" unicode="&#x201c;" horiz-adv-x="1030" 
d="M477 1337q-228 -7 -270 -163h248v-330h-367v276q0 181 103.5 297t285.5 142v-222zM567 844v276q0 181 103.5 297t285.5 142v-222q-228 -7 -270 -163h248v-330h-367z" />
    <glyph glyph-name="quotedblright" unicode="&#x201d;" horiz-adv-x="1030" 
d="M551 1059q228 7 270 164h-248v329h367v-276q0 -181 -103.5 -296.5t-285.5 -141.5v221zM74 838v221q228 7 270 164h-248v329h367v-276q0 -181 -103.5 -296.5t-285.5 -141.5z" />
    <glyph glyph-name="quotedblbase" unicode="&#x201e;" horiz-adv-x="1032" 
d="M543 -160q236 7 278 164h-250v330h367v-268q0 -181 -105 -297t-290 -142v213zM66 -373v213q236 7 278 164h-250v330h367v-268q0 -181 -105 -297t-290 -142z" />
    <glyph glyph-name="dagger" unicode="&#x2020;" horiz-adv-x="1110" 
d="M406 74l45 899l-416 -35v276l409 -45l-45 428h310l-45 -428l409 45v-276l-416 35l45 -899h-296z" />
    <glyph glyph-name="daggerdbl" unicode="&#x2021;" horiz-adv-x="1112" 
d="M401 74l43 428l-409 -45v276l405 -33l-22 140l20 131l-403 -33v276l409 -43l-43 426h308l-43 -426l411 43v-276l-405 33l22 -131l-22 -140l405 33v-276l-411 45l43 -428h-308z" />
    <glyph glyph-name="bullet" unicode="&#x2022;" horiz-adv-x="831" 
d="M205 338v377h422v-377h-422z" />
    <glyph glyph-name="ellipsis" unicode="&#x2026;" horiz-adv-x="1726" 
d="M1255 0v334h367v-334h-367zM106 0v334h367v-334h-367zM682 0v334h367v-334h-367z" />
    <glyph glyph-name="perthousand" unicode="&#x2030;" horiz-adv-x="2643" 
d="M186 0l1176 1550h205l-1178 -1550h-203zM59 1223q0 159 111.5 256.5t296.5 97.5t296 -97.5t111 -256.5q0 -158 -111 -256.5t-296 -98.5t-296.5 98.5t-111.5 256.5zM330 1223q0 -226 137 -226q135 0 135 226q0 227 -135 227q-137 0 -137 -227zM877 324q0 159 111 256.5
t296 97.5t296.5 -97.5t111.5 -256.5q0 -158 -111.5 -256.5t-296.5 -98.5t-296 98.5t-111 256.5zM1147 324q0 -226 137 -226q135 0 135 226q0 227 -135 227q-137 0 -137 -227zM1769 322q0 159 111.5 256.5t296.5 97.5t296.5 -97.5t111.5 -256.5q0 -158 -111.5 -256.5
t-296.5 -98.5t-296.5 98.5t-111.5 256.5zM2040 322q0 -226 137 -226q135 0 135 226q0 227 -135 227q-137 0 -137 -227z" />
    <glyph glyph-name="minute" unicode="&#x2032;" horiz-adv-x="501" 
d="M25 887l94 663h327l-282 -663h-139z" />
    <glyph glyph-name="second" unicode="&#x2033;" horiz-adv-x="940" 
d="M25 887l94 663h327l-282 -663h-139zM465 887l94 663h328l-283 -663h-139z" />
    <glyph glyph-name="guilsinglleft" unicode="&#x2039;" horiz-adv-x="716" 
d="M631 27l-555 413v111l555 416v-187l-271 -278v-10l271 -281v-184z" />
    <glyph glyph-name="guilsinglright" unicode="&#x203a;" horiz-adv-x="716" 
d="M86 27v184l270 281v10l-270 278v187l555 -416v-111z" />
    <glyph glyph-name="uni203D" unicode="&#x203d;" horiz-adv-x="1308" 
d="M444 0v334h367v-334h-367zM39 1059q12 130 69.5 231t149.5 164t209 95t254 32q261 0 409 -105t148 -280q0 -79 -27 -143.5t-71.5 -108t-98.5 -80.5t-110.5 -69t-104.5 -65t-83.5 -77.5t-45.5 -97.5l-4 -59h-211l-57 671h326l-31 -362q2 2 22 28.5t23.5 32t21 30.5
t22.5 35.5t18 34t17 40t11 39.5t9.5 46t2.5 48q0 108 -66 171.5t-186 63.5q-134 0 -210.5 -81t-82.5 -234h-323z" />
    <glyph glyph-name="fraction" unicode="&#x2044;" horiz-adv-x="356" 
d="M-512 0l1178 1550h202l-1177 -1550h-203z" />
    <glyph glyph-name="uni2070" unicode="&#x2070;" horiz-adv-x="1105" 
d="M553 895q-232 0 -367 133.5t-135 351.5t135 353t367 135t367 -135t135 -353t-135 -351.5t-367 -133.5zM381 1380q0 -172 42 -257t130 -85q174 0 174 342q0 344 -174 344q-88 0 -130 -85.5t-42 -258.5z" />
    <glyph glyph-name="uni2074" unicode="&#x2074;" horiz-adv-x="1044" 
d="M436 928q36 24 53 61t17 98v23h-498v145l561 594h265v-534h186v-205h-184v-23q0 -63 16 -99.5t53 -59.5v-6h-469v6zM213 1315h293v315z" />
    <glyph glyph-name="uni2075" unicode="&#x2075;" horiz-adv-x="995" 
d="M506 891q-199 0 -317.5 91t-133.5 255h162q12 -95 67.5 -146t143.5 -51q83 0 127.5 42.5t44.5 117.5q0 79 -46.5 121.5t-131.5 42.5q-53 0 -101.5 -16.5t-74.5 -44.5l-140 47l78 491h699v-227h-586l-29 -209q53 46 140 73t182 27q165 0 256.5 -77.5t91.5 -213.5
q0 -154 -120.5 -238.5t-311.5 -84.5z" />
    <glyph glyph-name="uni2076" unicode="&#x2076;" horiz-adv-x="1044" 
d="M541 897q-225 0 -354.5 124.5t-129.5 342.5q0 222 134.5 362t365.5 140q168 0 279 -82t141 -223h-166q-16 68 -67 109.5t-132 41.5q-103 0 -161.5 -71.5t-65.5 -215.5q-3 -36 0 -69q34 76 117.5 118t179.5 42q134 0 220.5 -77t86.5 -208q0 -153 -121 -243.5t-327 -90.5z
M395 1239q12 -112 46.5 -162.5t95.5 -50.5t94 46t33 130q0 85 -34 127.5t-93 42.5q-53 0 -92.5 -34.5t-49.5 -98.5z" />
    <glyph glyph-name="uni2077" unicode="&#x2077;" horiz-adv-x="882" 
d="M66 922l540 663h-559v256h827l3 -104l-433 -815h-378z" />
    <glyph glyph-name="uni2078" unicode="&#x2078;" horiz-adv-x="1071" 
d="M537 897q-228 0 -357 72.5t-129 204.5q0 100 82.5 165t224.5 84q-127 13 -196.5 67.5t-69.5 137.5q0 117 118 177.5t325 60.5q208 0 326 -60.5t118 -177.5q0 -83 -68.5 -137.5t-197.5 -67.5q143 -19 225 -83.5t82 -165.5q0 -133 -128 -205t-355 -72zM385 1190
q0 -80 38 -124t114 -44q75 0 113 44t38 124q0 78 -39 120t-112 42q-75 0 -113.5 -42t-38.5 -120zM403 1618q0 -141 134 -141q131 0 131 141q0 65 -33.5 99t-97.5 34q-66 0 -100 -34t-34 -99z" />
    <glyph glyph-name="uni2079" unicode="&#x2079;" horiz-adv-x="1044" 
d="M504 1870q225 0 354 -125t129 -346q0 -220 -134.5 -358t-365.5 -138q-168 0 -278.5 81.5t-138.5 221.5h163q16 -67 67 -108t132 -41q212 0 230 286q0 35 -3 70q-34 -76 -117.5 -118t-179.5 -42q-134 0 -220.5 77t-86.5 208q0 151 121.5 241.5t327.5 90.5zM383 1567
q0 -85 33 -127.5t92 -42.5q53 0 92 34.5t49 98.5q-10 111 -45 162t-96 51t-93 -46t-32 -130z" />
    <glyph glyph-name="uni2080" unicode="&#x2080;" horiz-adv-x="1105" 
d="M553 -231q-232 0 -367 133.5t-135 351.5t135 352.5t367 134.5t367 -134.5t135 -352.5t-135 -351.5t-367 -133.5zM381 254q0 -172 42 -257t130 -85q174 0 174 342q0 344 -174 344q-88 0 -130 -85.5t-42 -258.5z" />
    <glyph glyph-name="uni2081" unicode="&#x2081;" horiz-adv-x="765" 
d="M168 -205v8q49 37 67.5 102.5t18.5 178.5v317q-28 -44 -95 -83t-141 -42v187q124 6 215 80t129 180h232v-639q0 -112 18 -178t64 -103v-8h-508z" />
    <glyph glyph-name="uni2082" unicode="&#x2082;" horiz-adv-x="995" 
d="M68 -170q0 59 15 108t37 84t63 70t76 58.5t93 56.5q74 42 110.5 65.5t71.5 56t47.5 65.5t12.5 79q0 129 -109 129q-147 0 -141 -242h-299q18 165 144.5 273t330.5 108q180 0 293 -72t113 -206q0 -55 -23 -100.5t-57 -76t-88 -58t-101.5 -44.5t-111.5 -39q-25 -8 -37 -12
q-149 -62 -176 -98h600v-240h-864v35z" />
    <glyph glyph-name="uni2083" unicode="&#x2083;" horiz-adv-x="970" 
d="M498 -233q-206 0 -324 98.5t-129 277.5h170q4 -101 63 -151.5t152 -50.5q78 0 121 37.5t43 107.5q0 129 -152 129h-86v104h86q75 0 110.5 45.5t35.5 114.5q0 58 -28.5 87.5t-80.5 29.5q-62 0 -103.5 -44t-47.5 -132h-281q20 153 149 237t328 84q175 0 283 -65.5
t108 -186.5q0 -90 -75 -144t-203 -66q143 -9 223 -63.5t80 -156.5q0 -134 -126.5 -213t-315.5 -79z" />
    <glyph glyph-name="uni2084" unicode="&#x2084;" horiz-adv-x="1044" 
d="M436 -199q70 46 70 160v23h-498v145l561 594h265v-535h186v-204h-184v-23q0 -63 16 -100t53 -60v-6h-469v6zM213 188h293v316z" />
    <glyph glyph-name="uni2085" unicode="&#x2085;" horiz-adv-x="995" 
d="M506 -236q-199 0 -317.5 91.5t-133.5 255.5h162q12 -95 67.5 -146t143.5 -51q83 0 127.5 42.5t44.5 117.5q0 79 -46.5 121.5t-131.5 42.5q-52 0 -101 -16.5t-75 -45.5l-140 47l78 492h699v-228h-586l-29 -208q53 46 140 73t182 27q165 0 256.5 -77.5t91.5 -213.5
q0 -154 -120.5 -239t-311.5 -85z" />
    <glyph glyph-name="uni2086" unicode="&#x2086;" horiz-adv-x="1044" 
d="M541 -229q-225 0 -354.5 124.5t-129.5 342.5q0 222 134.5 361.5t365.5 139.5q168 0 279 -82t141 -223h-166q-16 68 -67 110t-132 42q-103 0 -161.5 -71.5t-65.5 -215.5q-3 -36 0 -70q34 76 117.5 118t179.5 42q134 0 220.5 -77t86.5 -208q0 -153 -121 -243t-327 -90z
M395 113q12 -112 46.5 -162.5t95.5 -50.5t94 46t33 130q0 85 -34 127.5t-93 42.5q-53 0 -92.5 -34.5t-49.5 -98.5z" />
    <glyph glyph-name="uni2087" unicode="&#x2087;" horiz-adv-x="882" 
d="M66 -205l540 664h-559v256h827l3 -105l-433 -815h-378z" />
    <glyph glyph-name="uni2088" unicode="&#x2088;" horiz-adv-x="1071" 
d="M537 -229q-228 0 -357 72t-129 204q0 100 82.5 165.5t224.5 84.5q-127 13 -196.5 67.5t-69.5 137.5q0 117 118 177t325 60q208 0 326 -60t118 -177q0 -83 -68.5 -137.5t-197.5 -67.5q142 -19 224.5 -84t82.5 -166q0 -132 -127.5 -204t-355.5 -72zM385 63q0 -80 38 -123.5
t114 -43.5q75 0 113 43.5t38 123.5q0 78 -39 120t-112 42q-75 0 -113.5 -42t-38.5 -120zM403 492q0 -142 134 -142q131 0 131 142q0 65 -33.5 99t-97.5 34q-66 0 -100 -34t-34 -99z" />
    <glyph glyph-name="uni2089" unicode="&#x2089;" horiz-adv-x="1044" 
d="M504 743q225 0 354 -125t129 -346q0 -219 -134.5 -357t-365.5 -138q-168 0 -278.5 81.5t-138.5 221.5h163q16 -67 67 -108.5t132 -41.5q103 0 162 71.5t68 215.5q0 35 -3 70q-34 -76 -117.5 -118t-179.5 -42q-134 0 -220.5 77t-86.5 208q0 151 121.5 241t327.5 90z
M383 440q0 -85 33 -127.5t92 -42.5q53 0 92 34.5t49 98.5q-10 111 -45 162t-96 51t-93 -46t-32 -130z" />
    <glyph glyph-name="Euro" unicode="&#x20ac;" horiz-adv-x="1880" 
d="M82 829v97h197q45 307 254.5 480t510.5 173q283 0 478.5 -151.5t255.5 -438.5h-406q-25 172 -106 277.5t-213 105.5q-139 0 -229 -124t-109 -322h553v-97h-557q0 -69 6 -127h551v-98h-533q39 -165 138.5 -250.5t246.5 -85.5q172 0 284.5 117t143.5 320h238
q-41 -342 -246 -539t-522 -197q-294 0 -492.5 171t-244.5 464h-199v98h188q-2 23 -2 68q0 39 2 59h-188z" />
    <glyph glyph-name="uni20B9" unicode="&#x20b9;" horiz-adv-x="1458" 
d="M674 0l-572 739v154h232q299 0 328 201h-560v96h560q-29 201 -324 201h-236v159h1330l-21 -96h-530q199 -71 217 -264h256l-21 -96h-237q-15 -107 -89.5 -182t-186.5 -109.5t-255 -34.5h-63l700 -752v-16h-528z" />
    <glyph glyph-name="uni20BA" unicode="&#x20ba;" horiz-adv-x="1738" 
d="M211 0v10q52 42 71 119.5t19 212.5v131l-215 -96v106l215 97v127l-215 -97v107l215 96v395q0 136 -19 213t-71 119v10h645v-10q-53 -42 -72.5 -118.5t-19.5 -213.5v-190l428 190v-106l-428 -191v-127l428 191v-107l-428 -190v-485h88q121 0 205.5 34t132.5 100.5
t69 152.5t21 202h401q0 -315 -218.5 -498.5t-610.5 -183.5h-641z" />
    <glyph glyph-name="uni20BF" unicode="&#x20bf;" horiz-adv-x="1548" 
d="M551 -348v348h-438v10q49 42 66.5 119t17.5 213v866q0 137 -17.5 213.5t-66.5 118.5v10h438v348h100v-348h123h25v348h102v-352q510 -33 510 -368q0 -148 -117 -233.5t-338 -102.5v-15q244 -21 380.5 -119t136.5 -272q0 -392 -572 -432v-352h-102v348h-25h-123v-348h-100
zM621 182h122q138 0 209.5 64t71.5 213q0 289 -283 289h-120v-566zM621 911h110q128 0 191 55.5t63 178.5q0 122 -64.5 173.5t-191.5 51.5h-108v-459z" />
    <glyph glyph-name="uni2113" unicode="&#x2113;" horiz-adv-x="1067" 
d="M639 1583q124 0 188 -76t64 -211q0 -158 -89 -313.5t-261 -286.5v-372q0 -199 84 -199q134 0 211 428l108 -21q-58 -296 -146 -428.5t-239 -132.5q-131 0 -199.5 89t-68.5 255v228q-82 -43 -209 -88l-41 104q129 45 250 109v452q0 118 28 209t76.5 145.5t110 81.5
t133.5 27zM541 854q185 188 188 436q0 187 -86 187q-53 0 -77.5 -77.5t-24.5 -242.5v-303z" />
    <glyph glyph-name="uni2116" unicode="&#x2116;" horiz-adv-x="2154" 
d="M965 0l-580 1047v-676q0 -147 20 -230.5t74 -130.5v-10h-387v10q44 48 61 132t17 229v837q0 134 -13.5 211.5t-47.5 120.5v10h409l584 -1044v674q0 145 -20 228.5t-72 131.5v10h381v-10q-43 -48 -59.5 -132t-16.5 -228v-1180h-350zM1456 1292q0 127 89 205t237 78
t236.5 -78t88.5 -205t-88.5 -205.5t-236.5 -78.5t-237 78.5t-89 205.5zM1673 1292q0 -180 109 -180q108 0 108 180q0 183 -108 183q-109 0 -109 -183z" />
    <glyph glyph-name="uni2117" unicode="&#x2117;" horiz-adv-x="866" 
d="M287 1061q18 6 23 20t5 47v170q0 46 -5 64t-23 31v4h166q151 0 151 -99q0 -104 -162 -104h-26v-66q0 -32 7.5 -46.5t29.5 -20.5v-4h-166v4zM84 1221q0 153 96 244t252 91q159 0 254.5 -91t95.5 -244q0 -155 -95.5 -246.5t-254.5 -91.5q-156 0 -252 92t-96 246zM162 1221
q0 -126 72.5 -198.5t197.5 -72.5q126 0 199.5 72.5t73.5 198.5q0 125 -73.5 197.5t-199.5 72.5q-124 0 -197 -72.5t-73 -197.5zM416 1237h26q60 0 60 61q0 54 -60 54h-26v-115z" />
    <glyph glyph-name="trademark" unicode="&#x2122;" horiz-adv-x="1748" 
d="M1126 907l-182 426v-211q0 -89 12.5 -131.5t47.5 -66.5v-9h-238v9q35 24 47 66.5t12 131.5v234q0 87 -12 124.5t-47 59.5v10h293l149 -350l146 350h297v-12q-32 -20 -44 -59t-12 -125v-232q0 -88 12.5 -130.5t45.5 -67.5v-9h-346v9q33 24 45 66.5t12 131.5v211l-176 -426
h-62zM47 1384v166h664v-166q-71 35 -110 46.5t-89 11.5h-12v-320q0 -89 12 -131.5t45 -66.5v-9h-354v9q33 24 45 66.5t12 131.5v320h-14q-50 0 -89 -11.5t-110 -46.5z" />
    <glyph glyph-name="estimated" unicode="&#x212e;" horiz-adv-x="1656" 
d="M854 -33q-157 0 -298 53t-246 146.5t-166.5 230.5t-61.5 297q0 157 62 292t167 226.5t246 143t297 51.5q199 0 360 -87.5t257 -251t104 -374.5h-1213v-491q209 -187 492 -187q357 0 573 289h74q-105 -159 -274.5 -248.5t-372.5 -89.5zM362 750h930v440q-180 174 -438 174
q-145 0 -271 -47.5t-221 -134.5v-432z" />
    <glyph glyph-name="oneeighth" unicode="&#x215b;" horiz-adv-x="2193" 
d="M168 653v9q49 37 67.5 102t18.5 178v318q-28 -44 -95 -83t-141 -42v186q124 6 215 80t129 180h232v-639q0 -112 18 -177.5t64 -102.5v-9h-508zM254 0l1178 1550h202l-1177 -1550h-203zM1174 252q0 100 82.5 165.5t224.5 84.5q-128 13 -197.5 67.5t-69.5 137.5
q0 117 118 177t325 60q208 0 326 -60t118 -177q0 -83 -68.5 -137.5t-197.5 -67.5q142 -19 224.5 -84t82.5 -166q0 -133 -128 -205t-355 -72q-228 0 -356.5 72.5t-128.5 204.5zM1507 268q0 -80 38 -124t114 -44q75 0 113 44t38 124q0 78 -39 120t-112 42q-75 0 -113.5 -42
t-38.5 -120zM1526 696q0 -141 133 -141q131 0 131 141q0 65 -33.5 99t-97.5 34q-133 0 -133 -133z" />
    <glyph glyph-name="threeeighths" unicode="&#x215c;" horiz-adv-x="2398" 
d="M498 625q-206 0 -324 98.5t-129 277.5h170q4 -101 63 -151.5t152 -50.5q78 0 121 37.5t43 107.5q0 129 -152 129h-86v105h86q75 0 110.5 45t35.5 114q0 58 -28.5 87.5t-80.5 29.5q-62 0 -103.5 -44t-47.5 -132h-281q20 153 149 237t328 84q175 0 283 -65t108 -186
q0 -90 -75 -144.5t-203 -66.5q143 -9 223 -63t80 -156q0 -134 -126.5 -213.5t-315.5 -79.5zM459 0l1177 1550h203l-1177 -1550h-203zM1378 252q0 100 83 165.5t225 84.5q-128 13 -197.5 67.5t-69.5 137.5q0 117 118 177t325 60q208 0 326 -60t118 -177q0 -83 -68.5 -137.5
t-197.5 -67.5q142 -19 224.5 -84t82.5 -166q0 -133 -128 -205t-355 -72q-228 0 -357 72.5t-129 204.5zM1712 268q0 -80 38 -124t114 -44q75 0 113 44t38 124q0 78 -39 120t-112 42q-75 0 -113.5 -42t-38.5 -120zM1731 696q0 -141 133 -141q131 0 131 141q0 65 -33.5 99
t-97.5 34q-133 0 -133 -133z" />
    <glyph glyph-name="fiveeighths" unicode="&#x215d;" horiz-adv-x="2422" 
d="M506 625q-199 0 -317.5 91t-133.5 255h162q12 -95 67.5 -146t143.5 -51q83 0 127.5 42.5t44.5 117.5q0 79 -46.5 121.5t-131.5 42.5q-52 0 -101 -16.5t-75 -45.5l-140 47l78 492h699v-227h-586l-29 -209q53 46 140 73t182 27q165 0 256.5 -77.5t91.5 -213.5
q0 -154 -120.5 -238.5t-311.5 -84.5zM483 0l1178 1550h203l-1178 -1550h-203zM1403 252q0 100 82.5 165.5t224.5 84.5q-127 13 -196.5 67.5t-69.5 137.5q0 117 117.5 177t324.5 60q208 0 326.5 -60t118.5 -177q0 -83 -69 -137.5t-198 -67.5q143 -19 225.5 -84t82.5 -166
q0 -132 -128 -204.5t-356 -72.5t-356.5 72.5t-128.5 204.5zM1737 268q0 -80 37.5 -124t113.5 -44q75 0 113.5 44t38.5 124q0 78 -39.5 120t-112.5 42q-74 0 -112.5 -41.5t-38.5 -120.5zM1755 696q0 -141 133 -141q131 0 131 141q0 65 -33.5 99t-97.5 34q-133 0 -133 -133z
" />
    <glyph glyph-name="seveneighths" unicode="&#x215e;" horiz-adv-x="2201" 
d="M66 655l540 664h-559v256h827l3 -105l-433 -815h-378zM262 0l1178 1550h202l-1177 -1550h-203zM1182 252q0 100 82.5 165.5t224.5 84.5q-127 13 -196.5 67.5t-69.5 137.5q0 117 117.5 177t324.5 60q208 0 326 -60t118 -177q0 -83 -68.5 -137.5t-197.5 -67.5
q142 -19 224.5 -84t82.5 -166q0 -133 -128 -205t-355 -72q-228 0 -356.5 72.5t-128.5 204.5zM1516 268q0 -80 37.5 -124t113.5 -44q75 0 113.5 44t38.5 124q0 78 -39.5 120t-112.5 42q-74 0 -112.5 -41.5t-38.5 -120.5zM1534 696q0 -141 133 -141q131 0 131 141
q0 65 -33.5 99t-97.5 34q-133 0 -133 -133z" />
    <glyph glyph-name="arrowleft" unicode="&#x2190;" horiz-adv-x="1472" 
d="M741 18l-663 512l663 510l107 -143l-492 -303l1026 31v-191l-1024 31l490 -303z" />
    <glyph glyph-name="arrowup" unicode="&#x2191;" horiz-adv-x="1181" 
d="M1102 594l-144 -107l-303 490l31 -1024h-190l30 1026l-303 -492l-143 107l510 663z" />
    <glyph glyph-name="arrowright" unicode="&#x2192;" horiz-adv-x="1472" 
d="M731 18l-106 144l489 303l-1024 -31v191l1026 -31l-491 303l106 143l664 -510z" />
    <glyph glyph-name="arrowdown" unicode="&#x2193;" horiz-adv-x="1183" 
d="M1104 637l-512 -664l-510 664l143 106l303 -491l-30 1026h190l-31 -1024l304 489z" />
    <glyph glyph-name="arrowboth" unicode="&#x2194;" horiz-adv-x="1789" 
d="M721 18l-649 512l649 510l98 -147l-469 -293h1090l-469 293l98 147l649 -510l-649 -512l-98 148l467 293h-1086l467 -293z" />
    <glyph glyph-name="arrowupdn" unicode="&#x2195;" horiz-adv-x="1198" 
d="M88 956l512 650l510 -650l-147 -98l-293 469v-1089l293 469l147 -99l-510 -649l-512 649l148 99l292 -467v1085l-292 -467z" />
    <glyph glyph-name="uni2196" unicode="&#x2196;" horiz-adv-x="1120" 
d="M193 152l-109 829l831 -109l-26 -176l-561 133l745 -702l-133 -135l-702 741l131 -557z" />
    <glyph glyph-name="uni2197" unicode="&#x2197;" horiz-adv-x="1118" 
d="M920 152l-177 24l131 561l-702 -745l-135 135l743 702l-557 -133l-26 176l829 109z" />
    <glyph glyph-name="uni2198" unicode="&#x2198;" horiz-adv-x="1122" 
d="M930 838l106 -832l-829 109l26 178l562 -133l-748 702l135 135l703 -745l-131 561z" />
    <glyph glyph-name="uni2199" unicode="&#x2199;" horiz-adv-x="1122" 
d="M195 836l176 -25l-133 -559l704 743l133 -135l-747 -704l563 135l27 -178l-832 -109z" />
    <glyph glyph-name="partialdiff" unicode="&#x2202;" horiz-adv-x="1488" 
d="M678 -39q-175 0 -308 57t-210.5 173.5t-77.5 279.5q0 243 148 385.5t372 142.5q124 0 215.5 -48t145.5 -136q-33 277 -194.5 416.5t-434.5 165.5l43 178q235 -5 429 -72.5t325.5 -182.5t203.5 -273.5t72 -344.5q0 -122 -28.5 -231.5t-88 -203t-144.5 -161.5t-205 -106.5
t-263 -38.5zM514 412q0 -121 45.5 -189.5t132.5 -68.5q85 0 145 56.5t90.5 146t39.5 210.5q-10 100 -67 155.5t-136 55.5q-113 0 -181.5 -104.5t-68.5 -261.5z" />
    <glyph glyph-name="uni2206" unicode="&#x2206;" horiz-adv-x="1470" 
d="M-16 0v150l548 1400h418l537 -1400v-150h-1503zM244 182h751l-354 1084z" />
    <glyph glyph-name="product" unicode="&#x220f;" horiz-adv-x="1798" 
d="M336 1208q-32 78 -92 107t-183 39v196h1676v-196q-118 -10 -176.5 -39t-90.5 -107v-1548h-411v1681h-311v-1681h-412v1548z" />
    <glyph glyph-name="summation" unicode="&#x2211;" horiz-adv-x="1339" 
d="M59 -221v221l586 649l-547 621v280h1170v-331q-189 86 -289 116.5t-209 30.5l-338 -2l508 -590v-76l-537 -585l881 -2v-332h-1225z" />
    <glyph glyph-name="minus" unicode="&#x2212;" horiz-adv-x="1175" 
d="M100 434v191h975v-191h-975z" />
    <glyph glyph-name="uni2219" unicode="&#x2219;" horiz-adv-x="1226" 
d="M614 520q-115 0 -193.5 78.5t-78.5 194.5q0 114 78.5 192t193.5 78q114 0 192.5 -78t78.5 -192q0 -115 -78.5 -194t-192.5 -79z" />
    <glyph glyph-name="radical" unicode="&#x221a;" horiz-adv-x="1378" 
d="M516 -340l-303 922h-219v184l538 2l232 -774l575 1745h199l-698 -2079h-324z" />
    <glyph glyph-name="infinity" unicode="&#x221e;" horiz-adv-x="2211" 
d="M1659 63q-146 0 -270.5 71.5t-284.5 244.5q-164 -172 -285 -244t-266 -72q-184 0 -297 123t-113 344t113 344t297 123q144 0 264 -71.5t287 -245.5q161 173 285 245t270 72q184 0 296.5 -123t112.5 -344t-112.5 -344t-296.5 -123zM336 530q0 -149 63.5 -216.5
t165.5 -67.5q92 0 170 54.5t213 203.5l23 24l-31 35q-128 145 -205.5 198.5t-169.5 53.5q-102 0 -165.5 -67.5t-63.5 -217.5zM1241 530l25 -26q134 -148 212 -203t169 -55q103 0 166 67t63 217t-63 217.5t-166 67.5q-92 0 -167.5 -53t-207.5 -199z" />
    <glyph glyph-name="integral" unicode="&#x222b;" horiz-adv-x="819" 
d="M-82 -408v175h96q118 0 176 64.5t68 213.5l76 1196q15 232 122.5 341.5t315.5 109.5h129v-172h-100q-116 0 -171 -64t-65 -217l-76 -1194q-15 -233 -123 -343t-315 -110h-133z" />
    <glyph glyph-name="approxequal" unicode="&#x2248;" horiz-adv-x="1214" 
d="M76 545q0 187 81.5 278.5t209.5 91.5q55 0 107 -18.5t92.5 -45.5t79.5 -54t84.5 -45.5t92.5 -18.5q73 0 108.5 51t35.5 131h172q0 -186 -82 -278t-211 -92q-58 0 -111 18.5t-93 45.5t-78.5 54t-83 45.5t-91.5 18.5q-72 0 -107.5 -51t-35.5 -131h-170zM76 88
q0 187 81.5 279t209.5 92q55 0 107 -19t92.5 -45.5t79.5 -53.5t84.5 -46t92.5 -19q73 0 108.5 51.5t35.5 131.5h172q0 -186 -82 -278.5t-211 -92.5q-58 0 -111 18.5t-93 45.5t-78.5 54t-83 45.5t-91.5 18.5q-72 0 -107.5 -51t-35.5 -131h-170z" />
    <glyph glyph-name="notequal" unicode="&#x2260;" horiz-adv-x="1175" 
d="M311 -57l-90 47l146 254h-267v182h373l121 209h-494v180h596l174 301l95 -47l-148 -254h258v-180h-362l-121 -209h483v-182h-590z" />
    <glyph glyph-name="lessequal" unicode="&#x2264;" horiz-adv-x="1175" 
d="M1067 186l-975 336v150l975 334v-187l-700 -223l700 -223v-187zM92 0v162l975 -2v-160h-975z" />
    <glyph glyph-name="greaterequal" unicode="&#x2265;" horiz-adv-x="1175" 
d="M109 186v187l700 223l-700 223v187l974 -334v-150zM109 0v160l974 2v-162h-974z" />
    <glyph glyph-name="uni2460" unicode="&#x2460;" horiz-adv-x="1900" 
d="M950 -25q-251 0 -445.5 101.5t-301.5 286.5t-107 425t107 424.5t301 285.5t446 101q189 0 348 -59t270.5 -164.5t173.5 -256.5t62 -331t-62 -331.5t-173.5 -257.5t-270.5 -165t-348 -59zM221 788q0 -312 201 -505t528 -193t528 193t201 505t-201 504.5t-528 192.5
t-528 -192.5t-201 -504.5zM580 819v187q124 6 215 80t129 180h231v-639q0 -112 18 -178t64 -103v-8h-508v8q49 37 67.5 102.5t18.5 178.5v317q-28 -44 -94.5 -83t-140.5 -42z" />
    <glyph glyph-name="uni2461" unicode="&#x2461;" horiz-adv-x="1900" 
d="M950 -25q-251 0 -445.5 101.5t-301.5 286.5t-107 425t107 424.5t301 285.5t446 101q189 0 348 -59t270.5 -164.5t173.5 -256.5t62 -331t-62 -331.5t-173.5 -257.5t-270.5 -165t-348 -59zM221 788q0 -312 201 -505t528 -193t528 193t201 505t-201 504.5t-528 192.5
t-528 -192.5t-201 -504.5zM502 913q18 165 144.5 273t330.5 108q180 0 292.5 -72t112.5 -206q0 -40 -12 -74.5t-30 -60.5t-50 -50.5t-60.5 -41t-73 -35t-75.5 -29.5t-80 -27l-36 -12q-79 -33 -120 -54.5t-57 -43.5h601v-240h-865v35q0 59 15 108t37.5 84t63.5 70.5t76 58
t93 56.5q74 42 110.5 65.5t71.5 56t47.5 65.5t12.5 79q0 129 -109 129q-147 0 -141 -242h-299z" />
    <glyph glyph-name="uni2462" unicode="&#x2462;" horiz-adv-x="1900" 
d="M950 -25q-251 0 -445.5 101.5t-301.5 286.5t-107 425t107 424.5t301 285.5t446 101q189 0 348 -59t270.5 -164.5t173.5 -256.5t62 -331t-62 -331.5t-173.5 -257.5t-270.5 -165t-348 -59zM221 788q0 -312 201 -505t528 -193t528 193t201 505t-201 504.5t-528 192.5
t-528 -192.5t-201 -504.5zM494 680h170q4 -101 63 -152t152 -51q78 0 120.5 38t42.5 108q0 129 -151 129h-86v104h86q74 0 109.5 45.5t35.5 114.5q0 58 -28 87.5t-80 29.5q-62 0 -104 -44.5t-48 -132.5h-280q20 153 149 237.5t328 84.5q175 0 283 -65.5t108 -186.5
q0 -90 -75.5 -144.5t-203.5 -66.5q143 -9 223.5 -63t80.5 -156q0 -134 -127 -213.5t-316 -79.5q-206 0 -323.5 99t-128.5 278z" />
    <glyph glyph-name="uni2463" unicode="&#x2463;" horiz-adv-x="1900" 
d="M950 -25q-251 0 -445.5 101.5t-301.5 286.5t-107 425t107 424.5t301 285.5t446 101q189 0 348 -59t270.5 -164.5t173.5 -256.5t62 -331t-62 -331.5t-173.5 -257.5t-270.5 -165t-348 -59zM221 788q0 -312 201 -505t528 -193t528 193t201 505t-201 504.5t-528 192.5
t-528 -192.5t-201 -504.5zM426 537v145l561 594h264v-535h187v-204h-185v-23q0 -62 16.5 -99.5t53.5 -60.5v-6h-469v6q70 46 70 160v23h-498zM631 741h293v316z" />
    <glyph glyph-name="uni2464" unicode="&#x2464;" horiz-adv-x="1900" 
d="M950 -25q-251 0 -445.5 101.5t-301.5 286.5t-107 425t107 424.5t301 285.5t446 101q189 0 348 -59t270.5 -164.5t173.5 -256.5t62 -331t-62 -331.5t-173.5 -257.5t-270.5 -165t-348 -59zM221 788q0 -312 201 -505t528 -193t528 193t201 505t-201 504.5t-528 192.5
t-528 -192.5t-201 -504.5zM489 647h162q12 -95 67.5 -145.5t143.5 -50.5q83 0 127.5 42t44.5 117q0 79 -46.5 121.5t-131.5 42.5q-53 0 -101.5 -16.5t-74.5 -44.5l-139 47l77 491h699v-227h-586l-29 -209q53 46 140 73t182 27q165 0 256.5 -77t91.5 -213q0 -154 -120.5 -239
t-311.5 -85q-199 0 -317.5 91t-133.5 255z" />
    <glyph glyph-name="uni2465" unicode="&#x2465;" horiz-adv-x="1900" 
d="M950 -25q-251 0 -445.5 101.5t-301.5 286.5t-107 425t107 424.5t301 285.5t446 101q189 0 348 -59t270.5 -164.5t173.5 -256.5t62 -331t-62 -331.5t-173.5 -257.5t-270.5 -165t-348 -59zM221 788q0 -312 201 -505t528 -193t528 193t201 505t-201 504.5t-528 192.5
t-528 -192.5t-201 -504.5zM475 782q0 222 134.5 362t365.5 140q168 0 279 -82t141 -223h-166q-16 68 -67 109.5t-132 41.5q-212 0 -227 -286q-3 -36 0 -70q34 76 117.5 118t179.5 42q134 0 220.5 -77t86.5 -208q0 -153 -121.5 -243.5t-327.5 -90.5q-225 0 -354 124.5
t-129 342.5zM813 657q12 -112 46 -162.5t95 -50.5t94 46.5t33 130.5q0 85 -34 127.5t-93 42.5q-53 0 -92 -35t-49 -99z" />
    <glyph glyph-name="uni2466" unicode="&#x2466;" horiz-adv-x="1900" 
d="M950 -25q-251 0 -445.5 101.5t-301.5 286.5t-107 425t107 424.5t301 285.5t446 101q189 0 348 -59t270.5 -164.5t173.5 -256.5t62 -331t-62 -331.5t-173.5 -257.5t-270.5 -165t-348 -59zM221 788q0 -312 201 -505t528 -193t528 193t201 505t-201 504.5t-528 192.5
t-528 -192.5t-201 -504.5zM559 987v256h827l3 -104l-433 -815h-378l540 663h-559z" />
    <glyph glyph-name="uni2467" unicode="&#x2467;" horiz-adv-x="1900" 
d="M950 -25q-251 0 -445.5 101.5t-301.5 286.5t-107 425t107 424.5t301 285.5t446 101q189 0 348 -59t270.5 -164.5t173.5 -256.5t62 -331t-62 -331.5t-173.5 -257.5t-270.5 -165t-348 -59zM221 788q0 -312 201 -505t528 -193t528 193t201 505t-201 504.5t-528 192.5
t-528 -192.5t-201 -504.5zM465 584q0 100 82.5 165.5t224.5 84.5q-128 13 -197 67t-69 137q0 117 118 177.5t324 60.5q208 0 326.5 -60.5t118.5 -177.5q0 -83 -69 -137t-198 -67q143 -19 225.5 -84t82.5 -166q0 -132 -128 -204.5t-356 -72.5t-356.5 72.5t-128.5 204.5z
M799 600q0 -80 37.5 -124t113.5 -44q75 0 113.5 44t38.5 124q0 78 -39.5 120t-112.5 42q-74 0 -112.5 -41.5t-38.5 -120.5zM817 1028q0 -141 133 -141q131 0 131 141q0 65 -33.5 99t-97.5 34q-133 0 -133 -133z" />
    <glyph glyph-name="uni2468" unicode="&#x2468;" horiz-adv-x="1900" 
d="M950 -25q-251 0 -445.5 101.5t-301.5 286.5t-107 425t107 424.5t301 285.5t446 101q189 0 348 -59t270.5 -164.5t173.5 -256.5t62 -331t-62 -331.5t-173.5 -257.5t-270.5 -165t-348 -59zM221 788q0 -312 201 -505t528 -193t528 193t201 505t-201 504.5t-528 192.5
t-528 -192.5t-201 -504.5zM485 940q0 151 121.5 241.5t327.5 90.5q225 0 354 -125t129 -346q0 -220 -134.5 -358t-364.5 -138q-168 0 -279 81.5t-139 221.5h164q16 -67 66.5 -108t131.5 -41q212 0 230 286q0 47 -2 70q-34 -76 -117.5 -118t-179.5 -42q-134 0 -221 77
t-87 208zM813 969q0 -85 33 -127.5t92 -42.5q53 0 92 34.5t49 98.5q-10 111 -45 162t-96 51t-93 -46t-32 -130z" />
    <glyph glyph-name="uni24EA" unicode="&#x24ea;" horiz-adv-x="1900" 
d="M950 -25q-251 0 -445.5 101.5t-301.5 286.5t-107 425t107 424.5t301 285.5t446 101q189 0 348 -59t270.5 -164.5t173.5 -256.5t62 -331t-62 -331.5t-173.5 -257.5t-270.5 -165t-348 -59zM221 788q0 -312 201 -505t528 -193t528 193t201 505t-201 504.5t-528 192.5
t-528 -192.5t-201 -504.5zM451 793q0 218 134.5 352.5t366.5 134.5t367 -134.5t135 -352.5t-135 -352t-367 -134t-366.5 134t-134.5 352zM780 793q0 -172 42 -257t130 -85q174 0 174 342q0 344 -174 344q-88 0 -130 -85.5t-42 -258.5z" />
    <glyph glyph-name="uni24FF" unicode="&#x24ff;" horiz-adv-x="1900" 
d="M950 -25q189 0 348 59t270.5 165t173.5 257.5t62 331.5t-62 331t-173.5 256.5t-270.5 164.5t-348 59q-252 0 -446 -101t-301 -285.5t-107 -424.5t107 -425t301.5 -286.5t445.5 -101.5zM449 805q0 218 134.5 352.5t366.5 134.5t367 -134.5t135 -352.5t-135 -352t-367 -134
t-366.5 134t-134.5 352zM778 805q0 -172 42 -257t130 -85q174 0 174 342q0 344 -174 344q-88 0 -130 -85.5t-42 -258.5z" />
    <glyph glyph-name="lozenge" unicode="&#x25ca;" horiz-adv-x="1206" 
d="M569 0l-467 776l467 776h68l467 -776l-467 -776h-68zM285 834l352 -588l283 471l-353 588z" />
    <glyph glyph-name="circle" unicode="&#x25cb;" horiz-adv-x="1900" 
d="M950 -25q-251 0 -445.5 101.5t-301.5 286.5t-107 425t107 424.5t301 285.5t446 101q189 0 348 -59t270.5 -164.5t173.5 -256.5t62 -331t-62 -331.5t-173.5 -257.5t-270.5 -165t-348 -59zM221 788q0 -312 201 -505t528 -193t528 193t201 505t-201 504.5t-528 192.5
t-528 -192.5t-201 -504.5z" />
    <glyph glyph-name="uni25CF" unicode="&#x25cf;" horiz-adv-x="1900" 
d="M950 -25q189 0 348 59t270.5 165t173.5 257.5t62 331.5t-62 331t-173.5 256.5t-270.5 164.5t-348 59q-252 0 -446 -101t-301 -285.5t-107 -424.5t107 -425t301.5 -286.5t445.5 -101.5z" />
    <glyph glyph-name="uni2733" unicode="&#x2733;" horiz-adv-x="1550" 
d="M399 147l-254 254l521 330l-600 -137v360l600 -135l-521 328l254 254l334 -524l-137 606h358l-137 -606l332 524l256 -254l-520 -328l598 135v-360l-598 137l520 -330l-256 -254l-332 527l137 -608h-358l137 608z" />
    <glyph glyph-name="uni2776" unicode="&#x2776;" horiz-adv-x="1900" 
d="M950 -25q189 0 348 59t270.5 165t173.5 257.5t62 331.5t-62 331t-173.5 256.5t-270.5 164.5t-348 59q-252 0 -446 -101t-301 -285.5t-107 -424.5t107 -425t301.5 -286.5t445.5 -101.5zM575 825v187q124 6 215.5 80.5t129.5 179.5h231v-639q0 -112 18 -178t64 -103v-8
h-508v8q49 37 67.5 102.5t18.5 178.5v317q-28 -44 -95 -83t-141 -42z" />
    <glyph glyph-name="uni2777" unicode="&#x2777;" horiz-adv-x="1900" 
d="M950 -25q189 0 348 59t270.5 165t173.5 257.5t62 331.5t-62 331t-173.5 256.5t-270.5 164.5t-348 59q-252 0 -446 -101t-301 -285.5t-107 -424.5t107 -425t301.5 -286.5t445.5 -101.5zM510 909q18 165 144.5 273t330.5 108q180 0 293 -72t113 -206q0 -55 -23 -100.5
t-57 -76t-88 -58t-101.5 -44.5t-111.5 -39q-25 -8 -37 -12q-149 -62 -176 -98h600v-240h-865v35q0 59 15 108t37.5 84t63.5 70.5t76 58t93 56.5q74 42 110.5 65.5t71.5 56t47.5 65.5t12.5 79q0 129 -109 129q-147 0 -141 -242h-299z" />
    <glyph glyph-name="uni2778" unicode="&#x2778;" horiz-adv-x="1900" 
d="M950 -25q189 0 348 59t270.5 165t173.5 257.5t62 331.5t-62 331t-173.5 256.5t-270.5 164.5t-348 59q-252 0 -446 -101t-301 -285.5t-107 -424.5t107 -425t301.5 -286.5t445.5 -101.5zM494 676h170q4 -101 63 -152t152 -51q78 0 120.5 37.5t42.5 107.5q0 130 -151 130
h-86v104h86q74 0 109.5 45.5t35.5 114.5q0 58 -28 87t-80 29q-62 0 -104 -44t-48 -132h-280q20 153 149 237.5t328 84.5q175 0 283 -65.5t108 -186.5q0 -90 -75.5 -144.5t-203.5 -66.5q143 -9 223.5 -63t80.5 -156q0 -134 -127 -213.5t-316 -79.5q-206 0 -323.5 99
t-128.5 278z" />
    <glyph glyph-name="uni2779" unicode="&#x2779;" horiz-adv-x="1900" 
d="M950 -25q189 0 348 59t270.5 165t173.5 257.5t62 331.5t-62 331t-173.5 256.5t-270.5 164.5t-348 59q-252 0 -446 -101t-301 -285.5t-107 -424.5t107 -425t301.5 -286.5t445.5 -101.5zM397 530v146l561 594h265v-535h186v-205h-184v-22q0 -63 16 -100t53 -60v-6h-469v6
q70 46 70 160v22h-498zM602 735h293v316z" />
    <glyph glyph-name="uni277A" unicode="&#x277a;" horiz-adv-x="1900" 
d="M950 -25q189 0 348 59t270.5 165t173.5 257.5t62 331.5t-62 331t-173.5 256.5t-270.5 164.5t-348 59q-252 0 -446 -101t-301 -285.5t-107 -424.5t107 -425t301.5 -286.5t445.5 -101.5zM504 649h162q12 -95 67.5 -145.5t143.5 -50.5q83 0 127.5 42t44.5 117
q0 79 -47 121.5t-132 42.5q-53 0 -101.5 -16.5t-74.5 -44.5l-139 47l78 491h698v-227h-586l-28 -209q53 46 139.5 73.5t181.5 27.5q165 0 256.5 -77.5t91.5 -213.5q0 -154 -120.5 -239t-311.5 -85q-199 0 -317 91t-133 255z" />
    <glyph glyph-name="uni277B" unicode="&#x277b;" horiz-adv-x="1900" 
d="M950 -25q189 0 348 59t270.5 165t173.5 257.5t62 331.5t-62 331t-173.5 256.5t-270.5 164.5t-348 59q-252 0 -446 -101t-301 -285.5t-107 -424.5t107 -425t301.5 -286.5t445.5 -101.5zM483 770q0 222 134.5 362t365.5 140q168 0 279 -82t141 -223h-166q-16 68 -67 109.5
t-132 41.5q-103 0 -161.5 -71.5t-65.5 -215.5q-3 -36 0 -69q34 76 117.5 118t179.5 42q134 0 220.5 -77t86.5 -208q0 -153 -121 -243.5t-327 -90.5q-225 0 -354.5 124.5t-129.5 342.5zM821 645q12 -112 46.5 -162.5t95.5 -50.5t94 46t33 130q0 85 -34 127.5t-93 42.5
q-53 0 -92.5 -34.5t-49.5 -98.5z" />
    <glyph glyph-name="uni277C" unicode="&#x277c;" horiz-adv-x="1900" 
d="M950 -25q189 0 348 59t270.5 165t173.5 257.5t62 331.5t-62 331t-173.5 256.5t-270.5 164.5t-348 59q-252 0 -446 -101t-301 -285.5t-107 -424.5t107 -425t301.5 -286.5t445.5 -101.5zM563 979v256h828l2 -105l-432 -815h-379l540 664h-559z" />
    <glyph glyph-name="uni277D" unicode="&#x277d;" horiz-adv-x="1900" 
d="M950 -25q189 0 348 59t270.5 165t173.5 257.5t62 331.5t-62 331t-173.5 256.5t-270.5 164.5t-348 59q-252 0 -446 -101t-301 -285.5t-107 -424.5t107 -425t301.5 -286.5t445.5 -101.5zM467 573q0 100 82.5 165.5t224.5 84.5q-127 13 -196.5 67.5t-69.5 137.5
q0 117 118 177.5t324 60.5q208 0 326.5 -60.5t118.5 -177.5q0 -83 -69 -137.5t-198 -67.5q143 -19 225.5 -84t82.5 -166q0 -132 -128 -204t-356 -72t-356.5 72t-128.5 204zM801 590q0 -80 37.5 -124t113.5 -44q75 0 113.5 44t38.5 124q0 78 -39.5 120t-112.5 42
q-74 0 -112.5 -41.5t-38.5 -120.5zM819 1018q0 -141 133 -141q131 0 131 141q0 65 -33.5 99t-97.5 34q-133 0 -133 -133z" />
    <glyph glyph-name="uni277E" unicode="&#x277e;" horiz-adv-x="1900" 
d="M950 -25q189 0 348 59t270.5 165t173.5 257.5t62 331.5t-62 331t-173.5 256.5t-270.5 164.5t-348 59q-252 0 -446 -101t-301 -285.5t-107 -424.5t107 -425t301.5 -286.5t445.5 -101.5zM498 928q0 151 121 241.5t327 90.5q225 0 354.5 -125.5t129.5 -346.5
q0 -219 -134.5 -357t-365.5 -138q-168 0 -279 81.5t-139 221.5h164q16 -67 66.5 -108.5t131.5 -41.5q103 0 162 71.5t68 215.5q0 47 -2 70q-34 -76 -117.5 -118t-179.5 -42q-134 0 -220.5 77t-86.5 208zM825 956q0 -85 33 -127.5t92 -42.5q53 0 92.5 35t49.5 99
q-10 111 -45.5 162t-96.5 51t-93 -46.5t-32 -130.5z" />
    <glyph glyph-name="uni3010" unicode="&#x3010;" horiz-adv-x="940" 
d="M160 -268v1929h712q-281 -163 -425 -412.5t-144 -552.5q0 -304 143.5 -552.5t425.5 -411.5h-712z" />
    <glyph glyph-name="uni3011" unicode="&#x3011;" horiz-adv-x="940" 
d="M780 1661v-1929h-712q281 163 425 412t144 552q0 304 -144 553t-425 412h712z" />
    <glyph glyph-name="uni3016" unicode="&#x3016;" horiz-adv-x="1134" 
d="M160 -268v1929h907q-280 -163 -423.5 -412.5t-143.5 -552.5q0 -304 143.5 -553t423.5 -411h-907zM270 -182h529q-408 326 -408 878q0 266 101.5 490.5t306.5 388.5h-529v-1757z" />
    <glyph glyph-name="uni3017" unicode="&#x3017;" horiz-adv-x="1134" 
d="M68 -268q280 162 423.5 411t143.5 553q0 303 -143.5 552.5t-423.5 412.5h907v-1929h-907zM336 -182h528v1757h-528q205 -164 306 -388.5t101 -490.5q0 -553 -407 -878z" />
    <glyph glyph-name="fi" unicode="&#xfb01;" horiz-adv-x="1548" 
d="M133 0v10q49 42 67.5 120t18.5 212v500h-205v184h205q0 150 42 264t118.5 184t178 105t226.5 35q238 0 389 -112.5t197 -305.5h-366q-22 115 -78 182.5t-152 67.5q-172 0 -172 -229q0 -91 19 -191h790v-684q0 -134 18.5 -212t67.5 -120v-10h-590v10q44 43 61 120.5
t17 211.5l2 500h-346l2 -486q0 -141 17.5 -221t64.5 -125v-10h-592z" />
    <glyph glyph-name="u1F150" unicode="&#x1f150;" horiz-adv-x="1214" 
d="M606 643q-196 0 -332.5 134.5t-136.5 334.5q0 132 63 240.5t170.5 169.5t235.5 61q198 0 334.5 -135t136.5 -336t-136.5 -335t-334.5 -134z" />
    <glyph glyph-name="u1F446" unicode="&#x1f446;" horiz-adv-x="1894" 
d="M205 565q-7 82 39 133q25 28 57.5 46t44.5 30q4 12 -1 43t-3 51q10 72 71.5 117t127.5 6q-14 68 28 129.5t109 71.5q68 11 124 -35.5t93 -120.5q3 84 3.5 170.5t-0.5 205t-1 167.5q0 125 4 186q0 50 29 97q1 16 5 31.5t14 34t31.5 29t51.5 9.5q21 -1 35.5 -7.5t25 -22
t14 -24t11.5 -30.5q40 -40 49 -135q4 -50 13 -215q10 -206 49 -606q29 113 96 180q63 63 178 86q71 13 117 0q12 19 27.5 28.5t28 4t14.5 -28.5q3 -51 -30 -128t-71 -138q-30 -47 -45 -78q-18 -48 -31 -125q-23 -128 -28 -227q-11 -148 -36.5 -244t-84.5 -195
q-23 -39 -58 -84.5t-59 -83t-37 -79.5q-33 -112 -43 -162q55 -1 70.5 -33t9.5 -117q-4 -38 -6 -80.5t-3.5 -94.5t-2.5 -81q-28 -27 -65 -46t-81 -29t-75.5 -14.5t-75.5 -8.5q-224 -15 -346 10q-33 7 -55 12.5t-55 16.5t-56 23t-46.5 31.5t-37.5 43.5q-10 16 -14 31t-4 22.5
t2.5 29t3.5 30.5l8 108q2 33 12 74l8 33q3 6 8.5 18.5t11 22t11.5 14.5q10 13 25 17q-8 43 -20 84t-33.5 103.5t-28.5 84.5q-57 172 -70 319q-2 21 -3 75t-7 81q-4 25 -24.5 67t-22.5 66zM240 590q0 -55 39 -127q79 -159 196 -172q-3 19 28 56t60 40q0 6 -4 10
q-89 93 -119 172q-5 14 -15.5 44t-17.5 48t-20 41.5t-29 40.5q-52 -31 -59 -38q-59 -59 -59 -115zM287 387q3 -107 18 -188q6 -30 51 -217q10 -43 39 -119t45.5 -141.5t12.5 -127.5q164 -58 356 -65q204 -8 340 57q-1 20 -1.5 34.5t0 30t0.5 23.5t3 24t3.5 21t6 25t7.5 25.5
t10.5 32.5t11.5 38q14 45 38.5 84.5t57 80t43.5 58.5q36 55 64 134q50 143 59 319q5 82 27 207q15 110 47 176q4 7 18 29t17 33q-20 25 -14 64.5t22 73.5t37 62q-31 4 -70 0q-86 -8 -154 -53t-100 -117q-34 -73 -63 -178q-4 -15 -15.5 -83t-27.5 -101l-37 -99h-11
q3 27 19 67.5t20 55.5q9 35 9 68q0 20 4 41.5t11.5 52t10.5 43.5q-6 109 -23 296.5t-22 260.5q-18 238 -18 240q-2 118 -23.5 167t-79.5 50q-53 2 -80.5 -38t-27.5 -122v-428q0 -257 -6 -342q0 -10 -2 -39.5t-2 -43t2 -36t8 -41.5q6 -21 31.5 -62t33.5 -67
q10 -32 15.5 -66.5t2.5 -69t-18 -48.5q-27 -27 -76.5 -21t-70.5 37q-23 -62 -34.5 -99.5t-21.5 -94.5t-6 -107q5 -75 35 -138.5t86 -92.5v-12q-63 29 -98 94t-43 143q-11 129 47 318l-37 22q5 -76 -49 -127t-127 -18q9 -42 -16 -78q-32 -29 -79.5 -35t-82.5 10
q-75 33 -133 117zM373 846q0 -11 5 -36t3 -40q34 -37 64 -119.5t51 -111.5q5 -7 18.5 -27.5t21.5 -31.5t20.5 -27t25.5 -27t26 -18q-7 20 4 38q15 23 101 48q22 7 26 2q7 39 -6 57q-47 62 -84 182t-63 164q-50 82 -115 76q-42 -6 -70 -40t-28 -89zM575 1067q-4 -12 -6 -23
t0.5 -23.5t3.5 -19t9 -21.5t9.5 -18t12.5 -21t12 -19q23 -36 39.5 -88.5t25.5 -94t31 -89.5t56 -81q38 -38 66 -45q-7 12 -3 29.5t17 24.5l63 36q38 21 58 19q-13 33 -25 45q-54 64 -70 131q-15 56 -22 152h16q11 -58 17 -84q0 27 10 135q-124 204 -248 139q-49 -25 -72 -84
z" />
    <glyph glyph-name="u1F447" unicode="&#x1f447;" horiz-adv-x="1894" 
d="M205 541q2 24 22.5 66t24.5 67q6 27 7 80.5t3 74.5q13 149 70 320q7 22 28.5 84.5t33.5 103.5t20 84q-15 4 -25 17q-6 5 -11.5 14.5t-11 22t-8.5 18.5l-8 33q-10 42 -12 73l-8 109q-1 10 -3 25.5t-2.5 23t0.5 19t5 22t12 23.5q14 24 37.5 43.5t46.5 31.5t56 23t55 16.5
t55 12.5q122 25 346 10q44 -4 75.5 -8.5t75.5 -14.5t81 -29t65 -46q1 -29 2.5 -81t3.5 -94.5t6 -80.5q6 -85 -9.5 -117t-70.5 -33q10 -50 43 -162q17 -56 76.5 -137t77.5 -111q59 -99 84.5 -195t36.5 -243q5 -99 28 -227q13 -77 31 -125q15 -31 45 -78q38 -61 71 -138
t30 -128q-2 -23 -14.5 -28.5t-28 4t-27.5 28.5q-46 -13 -117 0q-115 23 -178 86q-67 67 -96 180q-39 -400 -49 -606q-9 -165 -13 -215q-9 -95 -49 -135q-8 -22 -11.5 -30.5t-14 -24t-25 -22t-35.5 -7.5q-30 -1 -51.5 9.5t-31.5 29t-14 34t-5 31.5q-29 47 -29 97
q-4 61 -4 186q0 49 1 167.5t0.5 205t-3.5 170.5q-37 -74 -93 -120.5t-124 -35.5q-67 10 -109 71.5t-28 129.5q-66 -39 -127.5 6t-71.5 117q-2 20 3 51t1 43q-12 12 -44.5 30t-57.5 46q-46 51 -39 133zM240 516q0 -56 59 -115q9 -9 59 -39q16 17 29 41t20 42t17 48t16 44
q30 79 119 172q4 4 4 10q-29 3 -60 40t-28 56q-117 -13 -196 -172q-39 -72 -39 -127zM287 719q58 84 133 117q35 16 82.5 10t79.5 -35q25 -36 16 -78q73 33 127 -18t49 -127l37 22q-58 189 -47 318q8 78 43 143t98 94v-12q-56 -29 -86 -92.5t-35 -138.5q-4 -50 6 -107
t21.5 -94.5t34.5 -99.5q21 31 70.5 37t76.5 -21q15 -14 18 -48.5t-2.5 -69t-15.5 -66.5q-8 -26 -33.5 -67t-31.5 -62q-6 -19 -8 -41.5t-2 -36t2 -43t2 -39.5q6 -85 6 -342v-428q0 -82 27.5 -122t80.5 -38q58 1 79.5 50t23.5 167q0 2 18 240q5 73 22 260.5t23 296.5
q-3 13 -10.5 43.5t-11.5 52t-4 41.5q0 33 -9 68q-4 15 -20 55.5t-19 66.5h11l37 -98q16 -33 27.5 -101t15.5 -83q29 -105 63 -178q32 -72 100 -117t154 -53q39 -4 70 0q-21 28 -37 62t-22 73.5t14 64.5q-3 11 -17 33t-18 29q-32 66 -47 176q-22 125 -27 207q-9 176 -59 319
q-27 77 -64 133q-11 18 -43.5 58.5t-57 80.5t-38.5 85q-3 11 -11.5 38t-10.5 32.5t-7.5 25.5t-6 25t-3.5 21t-3 24t-0.5 23.5t0 30t1.5 34.5q-136 65 -340 57q-189 -7 -356 -66q4 -62 -12.5 -127t-45.5 -141t-39 -119q-45 -187 -51 -217q-15 -81 -18 -188zM373 260
q0 -55 28 -89t70 -40q65 -6 115 76q26 44 63 164t84 182q13 18 6 57q-4 -5 -26 2q-1 0 -18 5t-25 7.5t-21.5 8t-22.5 12t-14 14.5q-11 19 -4 39q-13 -7 -26 -18t-25.5 -27t-20.5 -27t-21.5 -31.5t-18.5 -27.5q-21 -29 -51 -111.5t-64 -119.5q2 -15 -3 -40t-5 -36zM575 39
q23 -59 72 -84q124 -65 248 139q-10 107 -10 135q-6 -26 -17 -84h-16q7 96 22 152q16 67 70 131q12 12 25 45q-20 -2 -58 19l-63 36q-13 7 -17 24.5t3 29.5q-28 -7 -66 -45q-34 -33 -56 -81t-31 -89.5t-25.5 -94t-39.5 -88.5q-2 -4 -10.5 -17t-11 -17.5t-9 -16.5t-8.5 -18
t-5 -17t-3 -19t1 -19t5 -21z" />
    <glyph glyph-name="u1F448" unicode="&#x1f448;" horiz-adv-x="3233" 
d="M1606 55q-82 -7 -133 39q-28 25 -46 58t-30 45q-12 4 -43 -1t-51 -3q-72 10 -117 71t-6 127q-68 -14 -129.5 28t-71.5 109q-11 68 35.5 124t120.5 93q-93 3 -543 3q-125 0 -186 4q-52 0 -97 28q-16 1 -31.5 5t-34 14.5t-29 32t-9.5 51.5q1 21 7.5 35.5t22 25t24 14
t30.5 11.5q40 40 135 49q14 1 215 12q206 10 606 49q-112 29 -180 97q-63 63 -86 178q-13 71 0 116q-19 12 -28.5 27.5t-4 28t28.5 14.5q52 3 129 -30t137 -70q47 -30 78 -45q48 -18 125 -31q135 -24 227 -29q147 -11 243 -36.5t195 -84.5q29 -17 110.5 -76.5t137.5 -76.5
q112 -33 162 -43q1 55 33 70.5t117 9.5q23 -2 256 -13q27 -28 46 -65t29 -81t14.5 -75.5t8.5 -75.5q15 -224 -10 -346q-9 -41 -16.5 -70t-22 -67t-37 -66.5t-51.5 -45.5q-13 -8 -23.5 -12t-22 -5t-18.5 -1t-23.5 2t-25.5 3l-109 8q-26 2 -73 13l-33 8q-6 3 -18.5 8.5t-22 11
t-14.5 11.5q-14 10 -17 24q-43 -8 -84 -20t-103.5 -33.5t-84.5 -28.5q-167 -55 -320 -69q-20 -2 -74 -3.5t-81 -7.5q-25 -4 -67 -24.5t-66 -22.5zM299 887q-2 -53 38 -81t122 -28h428q257 0 342 -6q10 0 39.5 -2t43 -2t36 2t41.5 8q21 6 62 32t67 34q32 10 66.5 15.5t69 2.5
t48.5 -18q27 -27 21 -77t-37 -71q61 -22 99.5 -34t95 -21.5t106.5 -5.5q75 5 138.5 35t92.5 86h12q-29 -63 -94.5 -98.5t-142.5 -43.5q-127 -11 -318 48l-22 -37q76 5 127 -49t18 -127q41 9 78 -17q29 -32 35 -79.5t-10 -82.5q-33 -75 -117 -133q100 3 188 19q30 6 217 51
q43 10 119 39t141 45t127 12q59 167 66 356q8 204 -57 340q-20 -1 -34.5 -1.5t-30 0t-23.5 0.5t-24 3t-21 3.5t-25 6t-25.5 7.5t-32.5 10.5t-38 11.5q-45 14 -85 39t-80.5 57t-58.5 44q-53 35 -133 63q-146 51 -319 60q-91 6 -207 26q-110 15 -176 47q-7 4 -29 18t-33 17
q-25 -20 -64.5 -14t-73.5 22t-62 37q-4 -31 0 -70q7 -86 52.5 -153.5t117.5 -99.5q78 -37 178 -64q15 -4 83 -15.5t101 -27.5l98 -37v-10q-26 3 -66.5 19t-55.5 20q-31 8 -68 8q-20 0 -42 4t-51.5 12t-43.5 11q-109 -6 -296.5 -23t-260.5 -22q-33 -3 -117 -10.5t-123 -8.5
q-118 -2 -167 -23t-50 -79zM1020 498q25 -49 84 -72q12 -4 23 -6t23.5 0.5t19 3.5t21.5 9t18 9.5t21 12.5t19 12q36 23 88.5 39t94 25t89.5 31t81 56q38 38 45 66q-12 -7 -29.5 -3t-24.5 17l-37 64q-20 36 -18 57q-35 -14 -45 -24q-64 -54 -131 -70q-62 -16 -152 -23v17
q8 2 38 7.5t46 8.5q-28 0 -135 10q-203 -124 -139 -247zM1196 322q6 -42 40.5 -70.5t88.5 -28.5q11 0 36 5t40 3q37 34 119.5 64t111.5 51q6 4 27.5 18.5t31.5 22t26.5 20.5t27.5 26t18 26q-20 -7 -39 4q-6 4 -12 12t-10 15.5t-8.5 19.5t-6.5 18.5t-5.5 19t-4.5 15.5
q-8 23 -2 27q-39 7 -57 -6q-62 -47 -182 -84.5t-164 -63.5q-82 -50 -76 -114zM1427 209q30 -50 39 -59q60 -60 115 -60t127 39q159 79 172 197q-19 -3 -56 28t-40 60q-6 0 -10 -4q-93 -89 -172 -119q-14 -6 -44 -16t-48 -17t-42 -20t-41 -29z" />
    <glyph glyph-name="u1F449" unicode="&#x1f449;" horiz-adv-x="3233" 
d="M1628 55q-24 2 -66 22.5t-67 24.5q-27 6 -81.5 7.5t-74.5 3.5q-151 14 -319 69q-22 7 -84.5 28.5t-103.5 33.5t-84 20q-3 -14 -17 -24q-5 -6 -14.5 -11.5t-22 -11t-18.5 -8.5l-33 -8q-47 -11 -74 -13l-108 -8q-9 -1 -25.5 -3t-23.5 -2t-18.5 1t-22 5t-23.5 12
q-29 17 -51.5 45.5t-37 66.5t-22 67t-16.5 70q-25 122 -10 346q4 44 8.5 75.5t14.5 75.5t29 81t46 65q233 11 256 13q85 6 117 -9.5t33 -70.5q50 10 162 43q56 17 136.5 76t110.5 77q99 59 195 84.5t244 36.5q92 5 227 29q77 13 125 31q31 15 78 45q60 37 137 70t129 30
q23 -2 28.5 -14.5t-4 -28t-28.5 -27.5q13 -45 0 -116q-23 -115 -86 -178q-68 -68 -180 -97q400 -39 606 -49q201 -11 215 -12q95 -9 135 -49q22 -8 30.5 -11.5t24 -14t22 -25t7.5 -35.5q1 -30 -9.5 -51.5t-29 -32t-34 -14.5t-31.5 -5q-45 -28 -97 -28q-61 -4 -186 -4
q-450 0 -543 -3q74 -37 120.5 -93t35.5 -124q-10 -67 -71.5 -109t-129.5 -28q39 -66 -6 -127t-117 -71q-20 -2 -51 3t-43 1q-12 -12 -30 -45t-46 -58q-51 -46 -133 -39zM592 659q7 -192 65 -356q62 4 127 -12t141 -45t119 -39q184 -45 218 -51q88 -16 188 -19
q-84 58 -117 133q-16 35 -10 82.5t35 79.5q37 26 78 17q-33 73 18 127t127 49l-22 37q-191 -59 -318 -48q-77 8 -142.5 43.5t-94.5 98.5h12q29 -56 92.5 -86t138.5 -35q50 -4 106.5 5.5t95 21.5t99.5 34q-31 21 -37 71t21 77q14 15 48.5 18t69 -2.5t66.5 -15.5q26 -8 67 -34
t62 -32q19 -6 41.5 -8t36 -2t43 2t39.5 2q85 6 342 6h428q82 0 122 28t38 81q-1 58 -50 79t-167 23q-39 1 -123 8.5t-117 10.5q-73 5 -260.5 22t-296.5 23q-14 -3 -43.5 -11t-51.5 -12t-42 -4q-37 0 -68 -8q-15 -4 -55.5 -20t-67.5 -19v10l99 37q33 16 101 27.5t83 15.5
q100 27 178 64q72 32 117.5 99.5t52.5 153.5q4 39 0 70q-28 -21 -62 -37t-74 -22t-65 14q-11 -3 -32 -17t-29 -18q-66 -32 -176 -47q-116 -20 -207 -26q-173 -9 -319 -60q-82 -29 -134 -63q-18 -12 -58.5 -44t-80 -57t-84.5 -39q-11 -3 -38 -11.5t-32.5 -10.5t-25.5 -7.5
t-25 -6t-21 -3.5t-24 -3t-23.5 -0.5t-30 0t-34.5 1.5q-65 -136 -57 -340zM1354 326q13 -118 172 -197q72 -39 127 -39q54 0 114 60q9 9 39 59q-17 16 -40.5 29t-41.5 20t-48 17.5t-44 15.5q-79 30 -172 119q-4 4 -10 4q-3 -29 -40 -60t-56 -28zM1470 459q7 -13 18 -26
t27 -26t27 -21t32 -21.5t28 -18.5q29 -21 111.5 -51t119.5 -64q15 2 40 -3t36 -5q54 0 88.5 28.5t40.5 70.5q6 64 -76 114q-44 26 -164 63.5t-182 84.5q-18 13 -57 6q5 -4 -3 -27q-1 -3 -4.5 -15.5t-5.5 -19t-6.5 -18.5t-8.5 -19.5t-10 -15.5t-12 -12q-19 -11 -39 -4z
M1587 684q7 -28 45 -66q33 -34 81 -56t89.5 -31t94 -25t88.5 -39q4 -2 17 -10.5t17.5 -11t16.5 -9t18 -8.5t17 -5t19 -3t19 1t21 5q59 23 84 72q64 123 -139 247q-107 -10 -136 -10q16 -3 46 -9t38 -7v-17q-89 6 -151 23q-67 16 -131 70q-10 10 -45 24q2 -19 -19 -57
l-37 -64q-7 -13 -24 -17t-29 3z" />
    <glyph glyph-name="uni004A0301" horiz-adv-x="854" 
d="M10 -125q78 20 121.5 62.5t63.5 121.5t20 211v938q0 136 -19 213t-71 119v10h643v-10q-52 -42 -71 -119t-19 -213v-895q0 -304 -169 -453t-499 -163v178zM354 1694l178 317h394l-408 -317h-164z" />
    <glyph glyph-name="L.ss01" horiz-adv-x="1970" 
d="M92 0v10q52 42 71 119.5t19 212.5v866q0 136 -19 213t-71 119v10h645v-10q-52 -42 -71 -119t-19 -213v-1009h406q251 0 464.5 46t424.5 146v-391h-1850z" />
    <glyph glyph-name="Q.ss01" horiz-adv-x="1943" 
d="M2017 -379q-114 0 -207.5 32.5t-164.5 95.5t-123 137t-101 175q-204 -98 -465 -98q-200 0 -365.5 57.5t-281 162t-179.5 256t-64 335.5q0 183 64 334t179.5 255t281 161t365.5 57q264 0 465 -98t311.5 -282.5t110.5 -430.5q0 -195 -72 -352.5t-204 -263.5
q163 -134 450 -134v-399zM557 770q0 -168 37 -289h12q9 179 100 287.5t240 108.5q59 0 109 -18.5t87.5 -48t72.5 -77.5t60 -95.5t54 -113.5q25 116 25 250q0 280 -103.5 438t-294.5 158q-193 0 -296 -158.5t-103 -441.5zM649 348q105 -174 307 -174q216 0 322 205
q-66 127 -145 194.5t-191 67.5q-123 0 -200.5 -79t-92.5 -214z" />
    <glyph glyph-name="R.ss01" horiz-adv-x="1597" 
d="M1446 -27q-135 45 -260.5 119t-225 163t-175 175t-138.5 178v-266q0 -136 20 -213t74 -119v-10h-649v10q52 42 71 119.5t19 212.5v866q0 136 -19 213t-71 119v10h750q157 0 276 -22t206 -69t132 -125t45 -185q0 -102 -38.5 -182t-106 -130t-154.5 -76t-188 -26
q-164 0 -338 72v-16q134 -141 364.5 -243t477.5 -140v-435h-72zM647 950q65 -30 154 -30q118 0 185 60t67 167q0 250 -303 250h-103v-447z" />
    <glyph glyph-name="Q.ss02" horiz-adv-x="1927" 
d="M1868 -348q-122 64 -218.5 108.5t-220 91t-254 75.5t-268.5 40q-396 29 -618.5 240t-222.5 567q0 183 64 334t179.5 255t281 161t365.5 57q264 0 465 -98t311.5 -282.5t110.5 -430.5q0 -251 -119 -432.5t-329 -271.5q225 -10 473 -50v-364zM557 770q0 -280 103 -438
t296 -158q192 0 295 158.5t103 441.5q0 280 -103.5 438t-294.5 158q-193 0 -296 -158.5t-103 -441.5z" />
    <glyph glyph-name="R.ss02" horiz-adv-x="1701" 
d="M1729 -8q-150 0 -253 10t-185.5 32t-144.5 65t-112.5 100.5t-105.5 146.5q-9 15 -31.5 53.5t-30 51t-26.5 43.5t-27 42t-25 34.5t-27 32.5t-25.5 25t-29 23.5t-30 15.5t-33.5 13v-338q0 -136 20 -213t74 -119v-10h-645v10q52 42 71 119.5t19 212.5v866q0 136 -19 213
t-71 119v10h758q663 0 663 -403q0 -188 -134.5 -290t-372.5 -118q99 -21 177.5 -79.5t151.5 -172.5q110 -170 191.5 -231t202.5 -61v-203zM643 864h100q312 0 312 260q0 122 -71 184t-208 62h-133v-506z" />
    <glyph glyph-name="C_O" horiz-adv-x="2971" 
d="M899 -31q-245 0 -434 98t-294 280.5t-105 422.5q0 189 66 342.5t182 255t273 156.5t341 55q315 0 532 -151.5t283 -438.5h-451q-28 173 -117.5 278t-236.5 105q-116 0 -203.5 -73t-132.5 -195.5t-45 -274.5q0 -271 121 -416t334 -145q192 0 316.5 117t160.5 320h264
q-46 -342 -273.5 -539t-580.5 -197zM1827 1108q0 216 153 341.5t402 125.5q250 0 404.5 -126t154.5 -343q0 -215 -154.5 -341t-404.5 -126q-249 0 -402 126.5t-153 342.5zM2183 1106q0 -140 49.5 -226.5t149.5 -86.5t150.5 88.5t50.5 226.5t-50.5 225.5t-150.5 87.5
t-149.5 -88t-49.5 -227zM2202 0v334h366v-334h-366z" />
    <glyph glyph-name="L_T_D" horiz-adv-x="3055" 
d="M92 0v10q52 42 71 119.5t19 212.5v866q0 136 -19 213t-71 119v10h645v-10q-52 -42 -71 -119t-19 -213v-1009h406q251 0 464.5 46t424.5 146v-391h-1850zM938 1290v260h903l-2 -260q-8 3 -47 18.5t-50 19.5t-42 15t-47 15t-40.5 9t-45.5 7v-375q0 -134 17.5 -210.5
t66.5 -118.5v-11h-525v11q49 42 66.5 118.5t17.5 210.5v375q-25 -2 -49.5 -7t-57 -15.5t-48.5 -16.5t-60 -23t-57 -22zM1954 659v11q49 42 67.5 119.5t18.5 211.5v207q0 136 -18.5 212.5t-67.5 119.5v10h510q264 0 412.5 -115.5t148.5 -328.5t-148.5 -330t-412.5 -117h-510z
M2191 0v334h367v-334h-367zM2386 813h45q112 0 175 73t63 220q0 149 -61.5 221t-174.5 72h-47v-586z" />
    <glyph glyph-name="O_e" horiz-adv-x="2912" 
d="M956 -37q-200 0 -365.5 57.5t-281 162t-179.5 256t-64 335.5q0 183 64 334t179.5 255t281 161t365.5 57q360 0 595.5 -179t281.5 -489q172 152 440 152q272 0 427.5 -143t158.5 -381h-799q8 -162 82.5 -250t210.5 -88q220 0 295 225h209q-20 -100 -65 -182.5
t-116.5 -147.5t-178.5 -101t-240 -36q-199 0 -348 86t-211 244q-115 -157 -306 -242.5t-436 -85.5zM557 770q0 -280 103 -438t296 -158q192 0 295 158.5t103 441.5q0 280 -103.5 438t-294.5 158q-193 0 -296 -158.5t-103 -441.5zM2064 655h408q-11 122 -61.5 186t-137.5 64
q-85 0 -139.5 -65.5t-69.5 -184.5z" />
    <glyph glyph-name="S_T" horiz-adv-x="2322" 
d="M754 -37q-299 0 -489.5 137t-225.5 392h401q10 -76 32 -137.5t59.5 -110t94.5 -75.5t130 -28q90 0 142 41t52 117q1 38 -15 71.5t-41 61t-77.5 60.5t-103.5 60t-140 71q-89 42 -155.5 80t-128.5 86t-101 98t-62.5 112.5t-23.5 133.5q0 142 79 244.5t211 152t302 49.5
q265 0 447.5 -123t232.5 -356h-399q-6 82 -38 148.5t-93.5 109t-143.5 43.5q-86 1 -133 -39t-49 -109q0 -40 18.5 -75.5t45 -63t80.5 -60.5t100 -57t127 -63q92 -45 155.5 -80t129.5 -83.5t105 -97.5t64 -114.5t25 -140.5q0 -141 -79.5 -245t-217.5 -157t-317 -53z
M1397 1290v260h903l-2 -260q-10 4 -41 16t-42.5 16.5t-37.5 14t-40 13.5t-35.5 10t-40 9t-36.5 5v-375q0 -134 17.5 -210.5t66.5 -118.5v-11h-524v11q49 42 66.5 118.5t17.5 210.5v375q-25 -2 -49.5 -7t-57 -15.5t-48.5 -16.5t-60 -23t-57 -22zM1669 0v334h367v-334h-367z
" />
    <glyph glyph-name="i.loclTRK" horiz-adv-x="694" 
d="M47 0v10q49 42 67.5 120t18.5 212v344q0 135 -18.5 211.5t-67.5 120.5v10l178 2l334 12v-700q0 -134 18.5 -212t67.5 -120v-10h-598zM141 1223v311h414v-311h-414z" />
    <glyph glyph-name="uni006A0301" horiz-adv-x="694" 
d="M-55 -358q123 15 165 83t42 244v717q0 135 -18.5 211.5t-67.5 120.5v10l178 2l331 12v-981q0 -274 -159.5 -421t-470.5 -148v150zM303 1178l152 372h350l-389 -372h-113z" />
    <glyph glyph-name="g.ss01" horiz-adv-x="1404" 
d="M123 -145q95 -39 158 -55.5t135 -16.5q236 0 341 91.5t105 277.5v94q-50 -114 -144 -180t-235 -66q-204 0 -315 144t-111 378q0 245 125 391t346 146q216 0 334 -152v119h490v-8q-37 -44 -50.5 -121.5t-13.5 -212.5v-367q0 -373 -296.5 -590t-868.5 -249v377zM500 518
q0 -136 42.5 -214.5t123.5 -78.5q89 0 142.5 85.5t53.5 258.5v203q-68 96 -160 96t-147 -87.5t-55 -262.5z" />
    <glyph glyph-name="y.ss01" horiz-adv-x="1454" 
d="M147 -154q93 -38 161 -54.5t141 -16.5q207 0 327.5 99.5t120.5 283.5v121q-47 -133 -157.5 -211t-252.5 -78q-166 0 -258 101t-92 315v278q0 133 -18 211.5t-64 122.5v8h578v-8q-41 -44 -56.5 -122t-15.5 -212v-233q0 -109 34.5 -158t102.5 -49q72 0 129 70t70 200v170
q0 133 -16.5 211.5t-57.5 122.5v8h572v-8q-41 -44 -57.5 -122.5t-16.5 -211.5v-375q0 -364 -306.5 -580t-867.5 -251v368z" />
    <glyph glyph-name="f.ss02" horiz-adv-x="983" 
d="M49 0v10q50 42 68 119t18 213v297q0 121 46.5 200t137.5 105q-69 6 -129 26.5t-110.5 56t-79.5 93.5t-29 133q0 174 149 269.5t386 95.5q241 0 390.5 -117t184.5 -313h-366q-9 118 -59.5 184t-135.5 66q-83 0 -123.5 -51.5t-40.5 -139.5q0 -113 71 -167t235 -54h290v-168
h-180q-120 0 -165.5 -60.5t-45.5 -211.5v-244q0 -134 23 -211.5t82 -120.5v-10h-617z" />
    <glyph glyph-name="t.ss02" horiz-adv-x="1042" 
d="M584 -29q-387 0 -387 430v449h-203v176h141q148 0 205 86.5t57 300.5h224v-387h323v-176h-323v-449q0 -93 22.5 -134.5t77.5 -41.5q61 0 102 65.5t58 190.5h161q-25 -244 -145.5 -377t-312.5 -133z" />
    <glyph glyph-name="c_t" horiz-adv-x="2222" 
d="M655 -39q-99 0 -188 21.5t-163.5 66t-129 108t-85 152.5t-30.5 195q0 109 32.5 200.5t89.5 157.5t134.5 112t168.5 68.5t190 22.5q65 0 114 -8q-40 70 -40 147q0 94 45 171t118 123.5t161.5 71.5t180.5 25q248 0 390.5 -145t152.5 -424h320v-184h-320v-443
q0 -87 35 -128.5t108 -41.5q123 0 207 121l35 -145q-64 -109 -171.5 -171.5t-250.5 -62.5q-180 0 -283.5 101t-103.5 317v698q0 176 -65.5 258t-171.5 82q-86 0 -141.5 -50t-55.5 -144q0 -144 113 -270q87 -59 138.5 -144.5t61.5 -189.5h-364q-8 116 -58 189t-147 73
q-101 0 -156 -85t-55 -235q0 -175 71 -275.5t216 -100.5q219 0 286 254h211q-35 -220 -189.5 -354t-410.5 -134z" />
    <glyph glyph-name="f_b" horiz-adv-x="2312" 
d="M139 0v10q49 42 67.5 120t18.5 212v500h-209v184h209v51q0 136 38.5 240.5t108.5 168.5t161 96t202 32q263 0 389 -184l303 182h9q-6 -98 -6 -355v-462q48 124 146 195t247 71q206 0 319 -142.5t113 -383.5q0 -250 -126.5 -400.5t-344.5 -150.5q-229 0 -352 168
q0 -67 10 -152h-520v10q47 42 64.5 119.5t17.5 212.5v500h-353v-486q0 -139 17.5 -220.5t62.5 -125.5v-10h-592zM627 1219q0 -74 18 -193h359v195q-25 108 -78.5 165.5t-128.5 57.5q-170 0 -170 -225zM1430 295q31 -57 78.5 -91t105.5 -34q91 0 144.5 89t53.5 269
q0 144 -44.5 228t-131.5 84q-93 0 -149.5 -90t-56.5 -273v-178v-4z" />
    <glyph glyph-name="f_h" horiz-adv-x="2318" 
d="M139 0v10q49 42 67.5 120t18.5 212v500h-209v184h209v51q0 136 38.5 240.5t108.5 168.5t161 96t202 32q263 0 389 -184l303 182h9q-6 -98 -6 -355v-466q52 126 159 201t250 75q165 0 257.5 -99t92.5 -311v-315q0 -134 17 -211.5t61 -120.5v-10h-573v10q41 42 56 119.5
t15 212.5v276q0 201 -143 201q-72 0 -122.5 -52.5t-69.5 -145.5v-322q0 -201 12 -299h-520v10q47 42 64.5 119.5t17.5 212.5v500h-353v-486q0 -139 17.5 -220.5t62.5 -125.5v-10h-592zM627 1219q0 -74 18 -193h359v195q-25 108 -78.5 165.5t-128.5 57.5q-170 0 -170 -225z
" />
    <glyph glyph-name="f_t" horiz-adv-x="1744" 
d="M86 0v10q49 42 67.5 120t18.5 212v500h-209v184h209v12q0 132 40 234.5t109 163.5t154.5 92t183.5 31q151 0 262 -65t175 -179l254 162h6v-451h315v-184h-315v-445q0 -87 35.5 -128.5t107.5 -41.5q122 0 207 119l35 -141q-64 -109 -169.5 -170.5t-248.5 -61.5
q-181 0 -286 105t-105 328v436h-336v-486q0 -139 17.5 -220.5t62.5 -125.5v-10h-590zM559 1198q0 -56 19 -172h354v184q-30 93 -85 139t-126 46q-78 0 -120 -49.5t-42 -147.5z" />
    <glyph glyph-name="s_s" horiz-adv-x="2332" 
d="M633 -39q-251 0 -405 100t-181 265h350q11 -104 73 -164t165 -60q72 0 114 28t42 77q0 25 -13 46.5t-31 37t-60 35t-75.5 32.5t-101.5 37q-56 19 -91 31.5t-84.5 34t-80 40.5t-65.5 47t-54 57.5t-32 69.5t-13 85q0 146 120 226.5t316 80.5q111 0 205 -32.5t161.5 -88
t126.5 -127t107.5 -150.5t95.5 -158t99 -150.5t110.5 -127t137.5 -88t172 -32.5q157 0 157 100q0 59 -60 96.5t-216 87.5q-67 22 -113 40t-102 49.5t-90.5 66t-58 86.5t-23.5 113q0 104 64 176.5t168 105.5t239 33q222 0 373 -88t192 -248h-344q-13 85 -69.5 140t-149.5 55
q-65 0 -102 -27.5t-37 -73.5q0 -60 65.5 -96.5t259.5 -99.5q93 -31 156.5 -60t119 -69.5t82.5 -93.5t27 -121q0 -109 -59 -183.5t-155.5 -107.5t-223.5 -33q-109 0 -202 33t-161 88.5t-127.5 127.5t-109 152t-98 159.5t-102.5 151.5t-114 127.5t-140.5 88.5t-174.5 33
q-159 0 -159 -101q0 -62 71 -102.5t230 -89.5q87 -28 150 -57.5t115.5 -69.5t79.5 -93t27 -118q0 -160 -135.5 -245t-357.5 -85z" />
    <glyph glyph-name="s_t" horiz-adv-x="2091" 
d="M1665 -29q-179 0 -283 101t-104 317v698q0 176 -65 258t-169 82q-86 0 -140 -49t-54 -143q0 -136 121 -260q139 -85 180 -242h-346q-11 88 -66 140.5t-147 52.5q-66 0 -102.5 -26.5t-36.5 -70.5q0 -61 70.5 -99t248.5 -91q98 -32 160.5 -59.5t119.5 -67.5t84 -92.5
t27 -120.5q0 -110 -71.5 -187.5t-190 -114t-272.5 -36.5q-253 0 -403.5 98.5t-178.5 270.5h361q9 -105 67.5 -166.5t155.5 -61.5q69 0 108 27.5t39 75.5q0 60 -61.5 98.5t-220.5 91.5q-57 19 -91.5 31t-84.5 32.5t-80 38t-64.5 44.5t-53 55t-31.5 66t-13 81
q0 105 68.5 179.5t181 109.5t258.5 35q56 0 112 -6q-41 65 -41 143q0 120 72.5 211t184 135.5t241.5 44.5q252 0 393.5 -144.5t153.5 -424.5h321v-184h-319v-443q0 -87 34 -128.5t107 -41.5q126 0 207 121l37 -145q-64 -108 -172.5 -171t-251.5 -63z" />
    <glyph glyph-name="w_w_w" horiz-adv-x="4653" 
d="M133 793q-73 184 -137 225v8h600v-8q-47 -21 -55.5 -75.5t18.5 -119.5l148 -401l196 582h187l204 -586l146 395q62 161 -37 205v8h625v-8q-47 -21 -55.5 -75.5t18.5 -119.5l147 -401l197 582h186l205 -586l145 395q62 161 -37 205v8h625v-8q-47 -21 -55.5 -75.5
t18.5 -119.5l148 -401l196 582h187l204 -586l146 395q62 161 -37 205v8h393v-8q-40 -34 -69.5 -82t-59.5 -125l-278 -700q-27 -67 -37 -111h-266l-189 539l-147 -420q-30 -83 -37 -119h-266l-267 672l-223 -561q-27 -67 -37 -111h-266l-188 539l-148 -420q-30 -83 -37 -119
h-266l-266 672l-223 -561q-27 -67 -37 -111h-267l-188 539l-147 -420q-30 -83 -37 -119h-267z" />
    <glyph glyph-name="g_t.ss01" horiz-adv-x="2260" 
d="M1835 -29q-87 0 -156.5 23.5t-122.5 72t-81.5 130.5t-28.5 192v707q0 170 -58 249.5t-153 79.5q-82 0 -136.5 -52.5t-54.5 -145.5q0 -167 134 -301q110 -96 110 -244q0 -121 -74.5 -207.5t-202.5 -129t-296 -42.5q-157 0 -285 41q-92 -37 -92 -92q0 -23 14.5 -38t57 -24
t114.5 -8q84 2 299.5 24.5t290.5 22.5q152 0 225.5 -63t73.5 -170q0 -112 -76 -209.5t-201 -163.5t-286 -103.5t-330 -37.5q-193 0 -300 47.5t-107 136.5q0 137 286 197q-165 4 -255.5 65t-90.5 164q0 190 264 303q-174 101 -174 289q0 120 76.5 207.5t204 129.5t291.5 42
q96 0 190 -16q-41 69 -41 153q0 93 43.5 169t115 123.5t160 73t183.5 25.5q236 0 370.5 -149t135.5 -416h319v-184h-319v-443q0 -87 35 -128.5t108 -41.5q123 0 207 121l35 -145q-64 -109 -171.5 -171.5t-250.5 -62.5zM395 -279q0 -90 185 -90q114 0 225.5 27t185.5 75.5
t74 104.5q0 34 -25 49t-86 15q-151 0 -344 -47q-215 -49 -215 -134zM545 684q0 -116 44 -177t126 -61q83 0 127.5 60.5t44.5 177.5q0 116 -44.5 175t-127.5 59q-82 0 -126 -59.5t-44 -174.5z" />
    <glyph glyph-name="zero.osf" horiz-adv-x="1409" 
d="M705 -29q-180 0 -323.5 63t-231 190.5t-87.5 301.5t87 302.5t231 192.5t324 64t323 -64t229 -192.5t86 -302.5t-86.5 -301.5t-229.5 -190.5t-322 -63zM463 526q0 -188 62.5 -282t179.5 -94t179 94t62 282q0 190 -62 285.5t-179 95.5t-179.5 -95.5t-62.5 -285.5z" />
    <glyph glyph-name="one.osf" horiz-adv-x="927" 
d="M240 0v10q55 42 75.5 120t20.5 212v334q-31 -50 -102.5 -91t-155.5 -42v215q143 10 248 94.5t145 194.5h289v-705q0 -135 19 -212.5t71 -119.5v-10h-610z" />
    <glyph glyph-name="two.osf" horiz-adv-x="1200" 
d="M53 61q0 44 12.5 85t31 73.5t52 67t62.5 58t77.5 54.5t81.5 50t89 49q48 27 71.5 40.5t58.5 37t51.5 41.5t34.5 43.5t25 54t7 63.5q0 69 -33 107.5t-96 38.5q-89 0 -137.5 -77.5t-47.5 -223.5h-348q2 73 26.5 140t73 126t116.5 102.5t164 68.5t210 25q211 0 338 -82
t127 -233q0 -61 -22.5 -110t-58 -84t-96 -66t-120 -52t-146.5 -46q-209 -60 -290 -121h749v-291h-1063v61z" />
    <glyph glyph-name="three.osf" horiz-adv-x="1286" 
d="M637 -383q-263 0 -419 143t-169 400h211q4 -151 85.5 -234.5t207.5 -83.5q108 0 168.5 62.5t60.5 163.5q0 103 -69.5 168t-192.5 65h-123v162h105q134 0 198 66.5t64 181.5q0 84 -41 138t-121 54q-90 0 -149.5 -69.5t-65.5 -200.5h-342q31 203 199 327.5t424 124.5
q224 0 357.5 -98t133.5 -260q0 -139 -94 -224.5t-244 -115.5q172 -22 274.5 -107t102.5 -239q0 -191 -156.5 -307.5t-404.5 -116.5z" />
    <glyph glyph-name="four.osf" horiz-adv-x="1470" 
d="M752 -354v358h-703v176l813 881h297v-764h258v-293h-258v-358h-407zM350 297h402v432z" />
    <glyph glyph-name="five.osf" horiz-adv-x="1271" 
d="M647 -383q-255 0 -411.5 138t-169.5 380h215q6 -135 82 -213t186 -78q115 0 177 70t62 182q0 120 -66 187t-177 67q-71 0 -132.5 -27.5t-97.5 -78.5l-194 90l96 723h916v-305h-754l-45 -330q71 60 173 95.5t216 35.5q135 0 243.5 -50t175 -153.5t66.5 -245.5
q0 -220 -154 -353.5t-407 -133.5z" />
    <glyph glyph-name="six.osf" horiz-adv-x="1425" 
d="M727 -39q-210 0 -358.5 89.5t-221.5 247.5t-73 372q0 175 49 323t138.5 255.5t223 168t295.5 60.5q231 0 381 -120t193 -335h-211q-27 118 -103 188t-186 70q-324 0 -346 -571q48 108 153 164.5t236 56.5q194 0 318 -124t124 -331q0 -124 -48.5 -223t-132.5 -162
t-194 -96t-237 -33zM508 516q9 -183 60.5 -277t154.5 -94q91 0 140.5 79t49.5 212q0 143 -52 213t-136 70q-77 0 -136.5 -54t-80.5 -149z" />
    <glyph glyph-name="seven.osf" horiz-adv-x="1134" 
d="M102 -340l707 1069h-766v328h1059v-115l-551 -1282h-449z" />
    <glyph glyph-name="eight.osf" horiz-adv-x="1431" 
d="M717 -39q-179 0 -323 50t-232 151.5t-88 238.5q0 157 117.5 261t314.5 131q-182 23 -280.5 108.5t-98.5 208.5q0 168 161.5 267.5t428.5 99.5q266 0 427 -99.5t161 -267.5q0 -123 -98.5 -208.5t-280.5 -108.5q197 -27 314.5 -131t117.5 -261q0 -137 -88.5 -238.5
t-232 -151.5t-320.5 -50zM498 414q0 -130 57 -206.5t162 -76.5q104 0 160.5 76.5t56.5 206.5q0 126 -57.5 203t-159.5 77q-103 0 -161 -77t-58 -203zM518 1090q0 -99 51 -167.5t148 -68.5q95 0 144.5 68.5t49.5 167.5q0 100 -50.5 165.5t-143.5 65.5q-95 0 -147 -65.5
t-52 -165.5z" />
    <glyph glyph-name="nine.osf" horiz-adv-x="1441" 
d="M696 1085q208 0 357 -89.5t223 -248.5t74 -372q0 -217 -83.5 -388.5t-242 -270.5t-367.5 -99q-234 0 -382 116.5t-195 325.5h213q27 -115 104 -180t193 -65q152 0 234 140.5t91 405.5q-45 -113 -149 -170t-231 -57q-194 0 -317.5 122.5t-123.5 328.5q0 121 47.5 217.5
t130.5 158t191 93.5t233 32zM518 623q0 -141 51.5 -209t132.5 -68q76 0 135 54t76 151q-11 174 -61 262t-147 88q-88 0 -137.5 -75t-49.5 -203z" />
    <glyph glyph-name="zero.slashed" horiz-adv-x="1519" 
d="M760 -39q-337 0 -521 210.5t-184 598.5t184 598.5t521 210.5t520.5 -210.5t183.5 -598.5q0 -389 -183.5 -599t-520.5 -210zM492 770q0 -382 81 -516l299 1106q-45 29 -112 29q-97 0 -154.5 -59.5t-85.5 -195t-28 -364.5zM641 180q54 -28 119 -28q143 0 204.5 139.5
t61.5 478.5q0 385 -82 520z" />
    <glyph glyph-name="zero.tf" horiz-adv-x="1519" 
d="M760 -39q-337 0 -521 210.5t-184 598.5q0 389 184 600t521 211t520.5 -211t183.5 -600q0 -388 -183.5 -598.5t-520.5 -210.5zM518 770q0 -229 25 -364t77 -194.5t140 -59.5q87 0 138.5 59.5t77 194.5t25.5 364q0 230 -25 366t-77 195.5t-139 59.5q-88 0 -140 -60
t-77 -195.5t-25 -365.5z" />
    <glyph glyph-name="one.tf" horiz-adv-x="1519" 
d="M244 0v207h319v891q-43 -68 -134 -112t-208 -44v240q199 7 340 107.5t193 260.5h282v-1343h297v-207h-1089z" />
    <glyph glyph-name="two.tf" horiz-adv-x="1519" 
d="M131 59q0 72 19 130t69.5 119.5t115 118.5t177.5 144q89 70 144.5 115.5t112 97.5t87 91t56.5 84.5t36 90.5t10 97q0 115 -49 177t-143 62q-123 0 -186.5 -114t-61.5 -318h-407q20 296 209 461.5t507 165.5q271 0 424.5 -115t153.5 -325q0 -79 -26 -148.5t-67 -123.5
t-111.5 -109t-140 -97t-171.5 -96q-251 -136 -357 -221l871 2v-348h-1272v59z" />
    </font>
</defs>
</svg>
