<?xml version="1.0" standalone="no"?>
<!DOCTYPE svg PUBLIC "-//W3C//DTD SVG 1.1//EN" "http://www.w3.org/Graphics/SVG/1.1/DTD/svg11.dtd" >
<svg xmlns="http://www.w3.org/2000/svg" xmlns:xlink="http://www.w3.org/1999/xlink" version="1.1">
<metadata>
Created by FontForge 20201107 at Wed Sep 11 11:37:28 2024
 By 
(c) 2015-2022 Pangram Pangram All rights reserved.
</metadata>
<defs>
<font id="PPFragment-SansLight" horiz-adv-x="0" >
  <font-face 
    font-family="PP Fragment Sans Light"
    font-weight="300"
    font-stretch="normal"
    units-per-em="2048"
    panose-1="0 0 0 0 0 0 0 0 0 0"
    ascent="1638"
    descent="-410"
    x-height="997"
    cap-height="1550"
    bbox="-469 -860.087 3928 2040"
    underline-thickness="96"
    underline-position="-210"
    unicode-range="U+0021-1F449"
  />
<missing-glyph horiz-adv-x="1044" 
d="M856 1597v-2089h-661v2089h661zM348 -348h348v69h-213l146 99h67v69h-348v-69h148l-148 -99v-69zM348 -63h348v235h-348v-235zM348 299h348v236h-209v-117h70v47h70v-98h-209v168h-70v-236zM348 580h348v208h-69v-137h-279v-71zM348 698h209v148h139v67h-348v-67h139v-78
h-139v-70zM348 971h348v71h-139v146h-209v-217zM348 1243h348v68h-139v78h139v69h-346v-69h137v-78h-139v-68zM418 6v98h209v-98h-209zM418 1042v74h69v-74h-69z" />
    <glyph glyph-name="fl" unicode="fl" horiz-adv-x="1214" 
d="M897 0v260v619h-489v-619v-260h-166v260v619h-219v118h219v189q0 112 29 196t81 133.5t118.5 74t147.5 24.5q192 0 304 -152l106 150h33v-309v-1043v-260h-164zM408 997h489v326q-83 176 -262 176q-227 0 -227 -293v-209z" />
    <glyph glyph-name="T_h" unicode="Th" horiz-adv-x="2332" 
d="M1325 0v260v1159q-190 2 -475 2h-109v-1161v-260h-178v260v1161h-82q-258 0 -448 -2v131h1458v-213v-553q49 107 146 176.5t237 69.5q319 0 319 -379v-391v-260h-165v260v365q0 276 -224 276q-126 0 -203 -77.5t-110 -200.5v-363v-260h-166z" />
    <glyph glyph-name="f_f" unicode="ff" horiz-adv-x="1425" 
d="M197 0v260v619h-220v118h220v150q0 112 30 195t82.5 130.5t115.5 70t138 22.5q209 0 324 -162q41 109 128 162t202 53q210 0 315 -178l-94 -99q-74 152 -213 152q-98 0 -153.5 -66.5t-55.5 -205.5v-224h401v-118h-401v-619v-260h-164v260v619h-490v-619v-260h-165z
M362 997h490v193q0 43 2 63q-29 95 -97.5 149t-170.5 54q-101 0 -162.5 -68.5t-61.5 -222.5v-168z" />
    <glyph glyph-name="f_f_i" unicode="ffi" horiz-adv-x="1804" 
d="M197 0v260v619h-220v118h220v150q0 112 30 195t82.5 130.5t115.5 70t138 22.5q111 0 194.5 -46t135.5 -126q94 223 358 223q175 0 277.5 -102.5t122.5 -262.5h-152q-16 111 -76 177.5t-168 66.5q-241 0 -241 -328v-170h647v-737v-260h-166v260v619h-481v-619v-260h-166
v260v619h-486v-619v-260h-165zM362 997h486v133q0 72 8 119q-29 97 -98 152t-172 55q-101 0 -162.5 -68.5t-61.5 -222.5v-168z" />
    <glyph glyph-name="f_f_l" unicode="ffl" horiz-adv-x="1822" 
d="M197 0v260v619h-220v118h220v150q0 112 30 195t82.5 130.5t115.5 70t138 22.5q107 0 190 -44t134 -120q44 108 133 160.5t207 52.5q191 0 303 -152l106 150h33v-309v-1043v-260h-164v260v619h-489v-619v-260h-166v260v619h-488v-619v-260h-165zM362 997h488v189
q0 25 4 71q-30 92 -99 145.5t-169 53.5q-101 0 -162.5 -68.5t-61.5 -222.5v-168zM1016 997h489v326q-83 176 -262 176q-227 0 -227 -293v-209z" />
    <glyph glyph-name="f_i" unicode="fi" horiz-adv-x="1196" 
d="M240 0v260v619h-215v118h215v133q0 105 20.5 188t57 138t87.5 91.5t110 52.5t128 16q175 0 277 -102.5t122 -262.5h-151q-16 111 -76 177.5t-168 66.5q-241 0 -241 -328v-170h647v-737v-260h-166v260v619h-481v-619v-260h-166z" />
    <glyph glyph-name="g_t" unicode="gt" horiz-adv-x="1880" 
d="M1581 -16q-285 0 -285 338v974l160 123h6v-422h344v-118h-344v-551q0 -215 166 -215q132 0 207 98l29 -102q-108 -125 -283 -125zM78 109q0 141 205 239q-119 109 -119 285q0 180 122.5 285.5t315.5 105.5q217 0 340 -129q28 55 89 88t151 33v-137q-133 0 -181 -70
q39 -80 39 -178q0 -181 -120.5 -286t-313.5 -105q-140 0 -248 57q-139 -66 -139 -158q0 -48 38 -72.5t128 -23.5q82 1 284.5 39.5t291.5 38.5q114 0 177.5 -50t63.5 -147q0 -96 -63.5 -181t-165 -141.5t-228.5 -89t-256 -32.5q-108 0 -188.5 21.5t-131 73t-50.5 128.5
q0 146 192 217q-104 3 -168.5 53t-64.5 136zM258 -264q0 -131 240 -131q126 0 252 36.5t212.5 105t86.5 147.5q0 52 -34 74t-114 22q-159 0 -405 -70q-121 -37 -179.5 -80t-58.5 -104zM322 633q0 -122 75.5 -195t204.5 -73t205 73t76 195q0 119 -77 192.5t-204 73.5
q-128 0 -204 -73.5t-76 -192.5z" />
    <glyph glyph-name=".notdef" horiz-adv-x="1044" 
d="M856 1597v-2089h-661v2089h661zM348 -348h348v69h-213l146 99h67v69h-348v-69h148l-148 -99v-69zM348 -63h348v235h-348v-235zM348 299h348v236h-209v-117h70v47h70v-98h-209v168h-70v-236zM348 580h348v208h-69v-137h-279v-71zM348 698h209v148h139v67h-348v-67h139v-78
h-139v-70zM348 971h348v71h-139v146h-209v-217zM348 1243h348v68h-139v78h139v69h-346v-69h137v-78h-139v-68zM418 6v98h209v-98h-209zM418 1042v74h69v-74h-69z" />
    <glyph glyph-name=".null" 
 />
    <glyph glyph-name="nonmarkingreturn" horiz-adv-x="682" 
 />
    <glyph glyph-name="space" unicode="&#xa0;" horiz-adv-x="559" 
 />
    <glyph glyph-name="space" unicode=" " horiz-adv-x="559" 
 />
    <glyph glyph-name="exclam" unicode="!" horiz-adv-x="579" 
d="M221 436l-22 1114h182l-23 -1114h-137zM201 0v217h178v-217h-178z" />
    <glyph glyph-name="quotedbl" unicode="&#x22;" horiz-adv-x="651" 
d="M135 1008l-35 542h166l-35 -542h-96zM383 1550h166l-35 -542h-96z" />
    <glyph glyph-name="numbersign" unicode="#" horiz-adv-x="1314" 
d="M242 -16l129 585h-287v101h309l51 231h-319v100h342l125 572h115l-125 -572h249l125 572h115l-125 -572h283v-100h-305l-52 -231h316v-101h-338l-129 -585h-115l129 585h-250l-129 -585h-114zM508 670h250l51 231h-250z" />
    <glyph glyph-name="dollar" unicode="$" horiz-adv-x="1357" 
d="M645 -348v346q-214 22 -345.5 157.5t-156.5 362.5h172q19 -159 102.5 -260.5t227.5 -124.5v623q-3 1 -8 4t-8 4q-86 42 -143 74t-114 74t-90 83t-53 94.5t-20 116.5q0 158 118 254.5t318 102.5v315h94v-317q195 -18 313 -136t140 -307h-166q-14 124 -87 206.5t-200 102.5
v-546q3 -2 10.5 -5.5t10.5 -5.5q82 -41 135 -70t110 -66t91 -70.5t63.5 -75t42 -89t12.5 -104.5q0 -183 -129.5 -290.5t-345.5 -110.5v-342h-94zM385 1214q0 -93 60.5 -154.5t205.5 -135.5v508q-132 -4 -199 -63t-67 -155zM731 127q143 2 226 71t83 187q0 101 -66 167
t-243 159v-584z" />
    <glyph glyph-name="percent" unicode="%" horiz-adv-x="1552" 
d="M115 0l1177 1550h154l-1178 -1550h-153zM76 1243q0 144 94 238t242 94q149 0 243.5 -94t94.5 -238q0 -141 -94.5 -235.5t-243.5 -94.5q-148 0 -242 94.5t-94 235.5zM207 1243q0 -94 56.5 -154.5t148.5 -60.5t148 60.5t56 154.5q0 95 -56 156t-148 61q-93 0 -149 -61
t-56 -156zM803 303q0 144 94 238t242 94q149 0 243.5 -94t94.5 -238q0 -141 -94.5 -235.5t-243.5 -94.5q-148 0 -242 94.5t-94 235.5zM934 303q0 -94 56.5 -154.5t148.5 -60.5t148 60.5t56 154.5q0 95 -56 156t-148 61q-93 0 -149 -61t-56 -156z" />
    <glyph glyph-name="ampersand" unicode="&#x26;" horiz-adv-x="1689" 
d="M664 -25q-221 0 -360.5 109t-139.5 311q0 147 89 259.5t275 213.5q-116 123 -161 207.5t-45 179.5q0 146 104 235t272 89q160 0 263.5 -86t103.5 -236q0 -126 -81.5 -223.5t-246.5 -183.5l410 -422q63 123 92 252l170 -2q-76 -216 -162 -352l301 -310v-16h-182l-201 209
q-202 -234 -501 -234zM336 412q0 -144 94.5 -226t251.5 -80q232 0 387 201l-459 477q-143 -87 -208.5 -175.5t-65.5 -196.5zM475 1247q0 -76 41 -143t143 -174q135 77 192.5 151t57.5 166q0 104 -59.5 156.5t-151.5 52.5q-100 0 -161.5 -55t-61.5 -154z" />
    <glyph glyph-name="quotesingle" unicode="'" horiz-adv-x="366" 
d="M135 1008l-35 542h166l-35 -542h-96z" />
    <glyph glyph-name="parenleft" unicode="(" horiz-adv-x="884" 
d="M776 -301q-143 37 -268.5 120.5t-223.5 206.5t-155 292.5t-57 363.5q0 156 37 297t102.5 251.5t154.5 199t193 147t217 86.5v-145q-108 -34 -203.5 -105t-171.5 -175t-120.5 -248t-44.5 -308t44.5 -308.5t120.5 -248.5t171.5 -175.5t203.5 -105.5v-145z" />
    <glyph glyph-name="parenright" unicode=")" horiz-adv-x="884" 
d="M109 -156q108 34 203.5 105.5t171.5 175.5t120.5 248.5t44.5 308.5t-44.5 308t-120.5 248t-171.5 175t-203.5 105v145q113 -28 217 -86.5t193 -147t154.5 -199t102.5 -251.5t37 -297q0 -194 -57 -363.5t-155 -292.5t-223.5 -206.5t-268.5 -120.5v145z" />
    <glyph glyph-name="asterisk" unicode="*" horiz-adv-x="1105" 
d="M496 655l30 383l-247 -293l-78 78l288 250l-385 -26v112l385 -29l-288 252l78 78l247 -291l-30 381h112l-28 -381l249 291l78 -78l-291 -252l385 29v-112l-385 26l291 -250l-78 -78l-249 293l28 -383h-112z" />
    <glyph glyph-name="plus" unicode="+" horiz-adv-x="1173" 
d="M518 39v426h-391v129h393v428h137v-428h390v-129h-392v-426h-137z" />
    <glyph glyph-name="comma" unicode="," horiz-adv-x="411" 
d="M45 -201q81 17 118 65t42 138h-90v215h180v-188q0 -143 -61.5 -219.5t-188.5 -100.5v90z" />
    <glyph glyph-name="hyphen" unicode="-" horiz-adv-x="954" 
d="M92 582h770v-101h-770v101z" />
    <glyph glyph-name="period" unicode="." horiz-adv-x="411" 
d="M115 0v217h180v-217h-180z" />
    <glyph glyph-name="slash" unicode="/" horiz-adv-x="1046" 
d="M8 -244l887 1997h143l-886 -1997h-144z" />
    <glyph glyph-name="zero" unicode="0" horiz-adv-x="1363" 
d="M682 -33q-274 0 -425 208t-151 599q0 392 151 598.5t425 206.5t423.5 -207.5t149.5 -599.5t-149.5 -598.5t-423.5 -206.5zM289 772q0 -672 393 -672q391 0 391 672q0 674 -391 674q-393 0 -393 -674z" />
    <glyph glyph-name="one" unicode="1" horiz-adv-x="796" 
d="M432 0v260v989q-43 -84 -139 -150.5t-230 -76.5v143q86 9 162.5 49.5t128 96.5t84 118.5t39.5 120.5h137v-1290v-260h-182z" />
    <glyph glyph-name="two" unicode="2" horiz-adv-x="1298" 
d="M113 31q0 80 28.5 141t118 151.5t277.5 243.5q212 172 278 237q118 116 148 226q14 51 14 111q0 148 -80 224.5t-229 76.5q-97 0 -171.5 -33.5t-119 -92.5t-67.5 -132t-25 -160h-170q12 254 160.5 405.5t412.5 151.5q216 0 345.5 -113.5t129.5 -316.5q0 -155 -90.5 -290
t-310.5 -310q-165 -130 -273.5 -228.5t-166.5 -179.5h858v-143h-1067v31z" />
    <glyph glyph-name="three" unicode="3" horiz-adv-x="1357" 
d="M698 -35q-266 0 -430 149t-184 408h170q15 -200 131.5 -308t312.5 -108q186 0 284.5 90.5t98.5 231.5q-2 154 -122 241t-332 87h-127v131h159q175 0 278 84.5t103 210.5q0 51 -17 96t-53 84t-102.5 61.5t-156.5 22.5q-186 0 -300.5 -89t-140.5 -251h-168
q30 218 192 346.5t425 128.5q235 0 364 -107.5t129 -275.5q0 -141 -92 -238t-246 -133q80 -14 147.5 -46.5t121 -82t84 -121t30.5 -157.5q0 -93 -38.5 -175t-108.5 -144.5t-176.5 -99t-235.5 -36.5z" />
    <glyph glyph-name="four" unicode="4" horiz-adv-x="1409" 
d="M887 -6v262v127h-834v115l887 1056h121v-1032h307v-139h-307v-127v-262h-174zM236 522h651l2 781z" />
    <glyph glyph-name="five" unicode="5" horiz-adv-x="1318" 
d="M649 -35q-249 0 -402.5 138t-168.5 380h160q13 -181 119.5 -279t283.5 -98q200 0 304 110t104 282q0 186 -103 282.5t-278 96.5q-114 0 -215 -42t-170 -135l-142 62l101 788h923v-143h-796l-76 -569q71 81 183.5 123.5t236.5 42.5q237 0 375.5 -131.5t138.5 -370.5
q0 -114 -38 -211t-109 -170t-182 -114.5t-249 -41.5z" />
    <glyph glyph-name="six" unicode="6" horiz-adv-x="1406" 
d="M713 -35q-123 0 -223.5 34.5t-171.5 98t-119.5 153.5t-71.5 199t-23 236q0 132 23 256.5t75.5 241t129.5 203t192 138.5t256 52q222 0 360 -123t167 -346h-170q-19 154 -112 242t-251 88q-107 0 -193 -44t-140.5 -116t-91 -170.5t-51.5 -201t-15 -214.5v-16
q35 101 111 174t173 109t205 36q222 0 368 -136t146 -367q0 -240 -158 -383.5t-415 -143.5zM303 469q36 -175 137 -270t267 -95q175 0 286 102t111 288q0 179 -104.5 275.5t-262.5 96.5q-169 0 -294 -108t-140 -289z" />
    <glyph glyph-name="seven" unicode="7" horiz-adv-x="1136" 
d="M131 0l766 1407h-870v143h1069v-84l-772 -1466h-193z" />
    <glyph glyph-name="eight" unicode="8" horiz-adv-x="1443" 
d="M723 -35q-184 0 -326.5 53t-224.5 156.5t-82 243.5q0 169 116 276t314 140q-162 33 -249 127.5t-87 228.5q0 171 140 279t397 108q258 0 398.5 -106.5t140.5 -274.5q0 -137 -87 -233t-249 -129q197 -33 313.5 -141t116.5 -275q0 -140 -81.5 -243.5t-223.5 -156.5
t-326 -53zM281 436q0 -156 125 -245t317 -89q190 0 316 89t126 245q0 147 -119.5 235.5t-322.5 88.5t-322.5 -88.5t-119.5 -235.5zM358 1182q0 -124 97 -208.5t268 -84.5q170 0 266 85t96 208q0 121 -97.5 197.5t-264.5 76.5t-266 -76.5t-99 -197.5z" />
    <glyph glyph-name="nine" unicode="9" horiz-adv-x="1406" 
d="M690 1579q155 0 273.5 -55t192 -156t110.5 -238t37 -307q0 -105 -14 -203.5t-43.5 -197t-80.5 -179.5t-120.5 -144t-168.5 -98.5t-219 -35.5q-224 0 -363 123t-173 348h170q24 -155 117.5 -243.5t250.5 -88.5q93 0 167.5 30.5t124 85.5t84.5 123t54 152t27 162.5t8 163.5
v45q-53 -148 -188.5 -231.5t-304.5 -83.5q-222 0 -366 135t-144 363q0 242 157 386t412 144zM303 1051q0 -90 29.5 -162t80.5 -117t116.5 -68.5t140.5 -23.5q168 0 291.5 107t140.5 288q-72 363 -402 363q-175 0 -286 -101.5t-111 -285.5z" />
    <glyph glyph-name="colon" unicode=":" horiz-adv-x="450" 
d="M135 625v217h180v-217h-180zM135 0v217h180v-217h-180z" />
    <glyph glyph-name="semicolon" unicode=";" horiz-adv-x="450" 
d="M135 625v217h180v-217h-180zM66 -291v90q81 17 117.5 65t41.5 138h-90v215h180v-188q0 -143 -61.5 -219.5t-187.5 -100.5z" />
    <glyph glyph-name="less" unicode="&#x3c;" horiz-adv-x="1175" 
d="M1036 147l-921 332v105l921 331v-133l-733 -250l733 -251v-134z" />
    <glyph glyph-name="equal" unicode="=" horiz-adv-x="1173" 
d="M127 647v125h920v-125h-920zM127 289v127h920v-127h-920z" />
    <glyph glyph-name="greater" unicode="&#x3e;" horiz-adv-x="1175" 
d="M139 147v134l733 251l-733 250v133l922 -331v-105z" />
    <glyph glyph-name="question" unicode="?" horiz-adv-x="1040" 
d="M367 444q-29 86 -29 154q0 57 25.5 109t66.5 92.5t90.5 79t99.5 76.5t91 78t66.5 90.5t25.5 105.5q0 90 -65 151.5t-185 61.5q-147 0 -228 -89.5t-89 -244.5h-162q12 220 146.5 342.5t346.5 122.5q186 0 296 -93t110 -245q0 -73 -26.5 -135t-69.5 -106.5t-94.5 -84
t-103 -75t-94.5 -71t-69.5 -81t-26.5 -96.5q0 -68 27 -142h-149zM377 0v217h180v-217h-180z" />
    <glyph glyph-name="at" unicode="@" horiz-adv-x="2091" 
d="M922 -332q-397 0 -615.5 213.5t-218.5 593.5q0 177 49 341.5t145.5 302.5t229.5 241t310.5 161t379.5 58q375 0 584 -199t209 -534q0 -104 -23 -207.5t-69 -197t-110 -165.5t-152.5 -114.5t-188.5 -42.5q-134 0 -202.5 74t-65.5 204q-71 -128 -170.5 -203t-218.5 -75
q-133 0 -201 90t-68 231q0 111 40 233.5t108 225.5t169 170.5t212 67.5q112 0 176 -65.5t78 -172.5l65 209l152 33l-183 -576q-42 -129 -34 -209.5t51.5 -116.5t122.5 -36q123 0 223 98.5t151.5 246t51.5 304.5q0 301 -183.5 477t-525.5 176q-141 0 -268 -30t-229 -84
t-188 -128.5t-148.5 -165t-106 -193t-65 -212t-21.5 -221.5q0 -341 195 -533t561 -192q168 0 317.5 46t306.5 153l-8 -86q-277 -191 -624 -191zM688 453q0 -101 42 -164.5t126 -63.5q62 0 122.5 37.5t107.5 98t82 130t57 140.5l16 57q45 147 -2 243.5t-156 96.5
q-83 0 -159 -57.5t-126.5 -144.5t-80 -186.5t-29.5 -186.5z" />
    <glyph glyph-name="A" unicode="A" horiz-adv-x="1345" 
d="M18 0q13 35 41.5 109.5t40.5 109.5l451 1213l43 118h160l493 -1339q46 -120 78 -211h-192q-13 36 -38 110.5t-34 100.5l-82 233h-621l-82 -231l-73 -213h-185zM406 575h528l-264 748z" />
    <glyph glyph-name="B" unicode="B" horiz-adv-x="1314" 
d="M184 0v260v1030v260h453q259 0 394.5 -92t135.5 -260q0 -144 -99.5 -237t-274.5 -115v-8q209 -19 325.5 -126.5t116.5 -281.5q0 -201 -155 -315.5t-449 -114.5h-447zM358 131h277q212 0 318 79.5t106 231.5q0 156 -114 242t-341 86h-246v-639zM358 897h240
q190 0 294.5 74.5t104.5 206.5q0 241 -366 241h-273v-522z" />
    <glyph glyph-name="C" unicode="C" horiz-adv-x="1718" 
d="M879 -33q-184 0 -335 64t-250.5 174.5t-153.5 257.5t-54 315q0 235 99 416.5t281.5 282t420.5 100.5q185 0 337.5 -60.5t264.5 -191t156 -319.5h-187q-56 207 -207 316.5t-366 109.5q-139 0 -255 -49.5t-194.5 -136.5t-122 -206.5t-43.5 -257.5q0 -132 40 -251.5
t114.5 -213t192.5 -149t264 -55.5q238 0 395 139.5t201 370.5h184q-55 -311 -262.5 -483.5t-519.5 -172.5z" />
    <glyph glyph-name="D" unicode="D" horiz-adv-x="1638" 
d="M184 0v260v1030v260h471q266 0 471 -97t316.5 -273t111.5 -404q0 -230 -111.5 -406.5t-315 -273t-470.5 -96.5h-473zM365 133h286q325 0 522 177t197 464q0 289 -196 466t-523 177h-286v-1284z" />
    <glyph glyph-name="E" unicode="E" horiz-adv-x="1132" 
d="M184 0v260v1030v260h875v-133q-180 2 -418 2h-276v-545h178q198 0 413 5v-134q-258 3 -413 3h-178v-617h286q250 0 422 4v-135h-889z" />
    <glyph glyph-name="F" unicode="F" horiz-adv-x="1107" 
d="M1071 1417q-75 0 -239 1t-244 1h-223v-508h149q256 0 449 2v-129q-193 2 -449 2h-149v-526v-260h-181v260v1030v260h887v-133z" />
    <glyph glyph-name="G" unicode="G" horiz-adv-x="1785" 
d="M856 -31q-180 0 -327.5 63.5t-243.5 173t-147.5 254.5t-51.5 310q0 180 59 330t165.5 254.5t258 162.5t332.5 58q280 0 475 -132t252 -362h-178q-51 170 -199 260.5t-354 90.5q-192 0 -336.5 -86t-219.5 -234.5t-75 -337.5q0 -135 38.5 -253t112.5 -210t191.5 -145
t265.5 -53q269 0 424 147.5t185 401.5h-723l-2 129l897 2v-793h-129l-10 381q-74 -194 -245.5 -303t-414.5 -109z" />
    <glyph glyph-name="H" unicode="H" horiz-adv-x="1515" 
d="M184 0v260v1030v260h181v-260v-424h786v424v260h180v-260v-1030v-260h-180v260v471h-786v-471v-260h-181z" />
    <glyph glyph-name="I" unicode="I" horiz-adv-x="548" 
d="M184 0v260v1030v260h181v-260v-1030v-260h-181z" />
    <glyph glyph-name="J" unicode="J" horiz-adv-x="620" 
d="M-20 -141q153 15 214.5 109.5t61.5 310.5v1011v260h180v-260v-1011q0 -278 -112 -412.5t-344 -149.5v142z" />
    <glyph glyph-name="K" unicode="K" horiz-adv-x="1300" 
d="M184 0v260v1030v260h181v-260v-489l593 598q74 76 148 151h178v-22q-20 -19 -56 -55.5t-54 -53.5l-543 -538l682 -869v-12h-195l-600 770l-153 -152v-358v-260h-181z" />
    <glyph glyph-name="L" unicode="L" horiz-adv-x="1122" 
d="M184 0v260v1030v260h181v-260v-1153h272q273 0 453 4v-141h-906z" />
    <glyph glyph-name="M" unicode="M" horiz-adv-x="1884" 
d="M907 -18l-555 1329v-1051v-260h-168v260v1030v260h228l532 -1292l531 1292h225v-260v-1030v-260h-176v260v1045l-549 -1323h-68z" />
    <glyph glyph-name="N" unicode="N" horiz-adv-x="1513" 
d="M1139 0l-779 1288v-1028v-260h-176v260v1030v260h191l776 -1282v1022v260h178v-260v-1290h-190z" />
    <glyph glyph-name="O" unicode="O" horiz-adv-x="1792" 
d="M895 -33q-237 0 -421 101.5t-286 285.5t-102 420q0 235 102 417t286 282t421 100q238 0 422.5 -100.5t286.5 -283t102 -419.5q0 -235 -102 -418t-286.5 -284t-422.5 -101zM270 770q0 -193 78 -343t220.5 -233t326.5 -83q281 0 454 184t173 479q0 292 -173 474t-454 182
q-280 0 -452.5 -182.5t-172.5 -477.5z" />
    <glyph glyph-name="P" unicode="P" horiz-adv-x="1249" 
d="M184 0v260v1030v260h426q576 0 576 -407q0 -209 -152.5 -322.5t-453.5 -113.5h-215v-447v-260h-181zM365 838h213q222 0 326 76t104 229q0 144 -96.5 210t-303.5 66h-243v-581z" />
    <glyph glyph-name="Q" unicode="Q" horiz-adv-x="1792" 
d="M895 -33q-237 0 -421 101.5t-286 285.5t-102 420q0 235 102 417t286 282t421 100q238 0 422.5 -100.5t286.5 -283t102 -419.5q0 -207 -86.5 -375.5t-239.5 -275.5l281 -365v-24h-174l-238 313q-161 -76 -354 -76zM270 770q0 -193 78 -343t220.5 -233t326.5 -83
q148 0 266 47l-416 551h181l366 -478q111 87 170.5 225t59.5 318q0 292 -173 474t-454 182q-280 0 -452.5 -182.5t-172.5 -477.5z" />
    <glyph glyph-name="R" unicode="R" horiz-adv-x="1288" 
d="M1073 0l-489 735h-219v-475v-260h-181v260v1030v260h449q265 0 404 -100.5t139 -290.5q0 -172 -114 -279t-312 -126l522 -740v-14h-199zM365 864h223q213 0 312 71.5t99 217.5q0 138 -93 202t-296 64h-245v-555z" />
    <glyph glyph-name="S" unicode="S" horiz-adv-x="1212" 
d="M639 -35q-249 0 -403.5 142t-180.5 395h172q21 -185 126 -292.5t284 -107.5q148 0 233.5 71t85.5 194q0 35 -8 65t-20.5 55.5t-40 52t-55 48t-77 51t-94 53.5t-118.5 62q-86 42 -144 75t-115 76t-90 85.5t-53 97t-20 118.5q0 166 126.5 265.5t338.5 99.5
q226 0 362 -122.5t160 -332.5h-166q-16 143 -107 232.5t-249 89.5q-143 0 -216 -61t-73 -163q0 -40 9 -72.5t33 -62.5t49 -52.5t75.5 -53t92 -52t118.5 -59.5q83 -43 136 -72.5t110.5 -67.5t91.5 -72t63.5 -76.5t42 -90.5t12.5 -106q0 -190 -134 -301t-357 -111z" />
    <glyph glyph-name="T" unicode="T" horiz-adv-x="1179" 
d="M33 1419v131h1114v-131q-190 2 -447 2h-22v-1161v-260h-178v260v1161h-19q-258 0 -448 -2z" />
    <glyph glyph-name="U" unicode="U" horiz-adv-x="1474" 
d="M737 -35q-135 0 -237.5 35.5t-178.5 112t-115.5 204.5t-39.5 306v667v260h180v-260v-676q0 -268 94.5 -386.5t296.5 -118.5q204 0 298.5 120.5t94.5 384.5v676v260h179v-260v-667q0 -341 -146 -499.5t-426 -158.5z" />
    <glyph glyph-name="V" unicode="V" horiz-adv-x="1290" 
d="M74 1389q-6 20 -26.5 76t-29.5 85h189q12 -36 51 -161l393 -1188l383 1188q29 97 51 161h187q-45 -137 -53 -161l-449 -1303q-22 -64 -27 -86h-186z" />
    <glyph glyph-name="W" unicode="W" horiz-adv-x="1974" 
d="M70 1386q-32 94 -52 164h189l47 -161l328 -1096l333 1202h144l340 -1206l327 1102l46 159h186q-12 -32 -51 -159l-404 -1295q-18 -65 -18 -96h-150l-350 1237l-315 -1141q-19 -69 -19 -96h-151z" />
    <glyph glyph-name="X" unicode="X" horiz-adv-x="1247" 
d="M1051 0q-1 1 -58 88t-82 121l-299 457l-290 -457l-132 -209h-192q83 132 141 213l385 586l-387 590l-104 161h194l2 -2q18 -26 103 -155l305 -463l299 459q32 51 104 161h187l-107 -159l-397 -592l387 -588q130 -197 139 -211h-198z" />
    <glyph glyph-name="Y" unicode="Y" horiz-adv-x="1218" 
d="M127 1391l-92 159h192l90 -164l299 -538l299 538q8 15 40 76.5t46 87.5h183q-17 -32 -90 -159l-392 -680v-451v-260h-178v260v451z" />
    <glyph glyph-name="Z" unicode="Z" horiz-adv-x="1169" 
d="M49 0v104l840 1315h-369q-266 0 -473 -8v139h1061v-98l-846 -1321h320q287 0 553 10v-141h-1086z" />
    <glyph glyph-name="bracketleft" unicode="[" horiz-adv-x="757" 
d="M168 -274v1943h483v-133h-317v-1677h317v-133h-483z" />
    <glyph glyph-name="backslash" unicode="\" horiz-adv-x="1044" 
d="M1036 -244h-143l-887 1997h144z" />
    <glyph glyph-name="bracketright" unicode="]" horiz-adv-x="757" 
d="M590 -274h-484v133h318v1677h-318v133h484v-1943z" />
    <glyph glyph-name="asciicircum" unicode="^" horiz-adv-x="1175" 
d="M219 780l305 822h129l303 -822h-145l-223 682l-223 -682h-146z" />
    <glyph glyph-name="underscore" unicode="_" horiz-adv-x="1439" 
d="M0 -172v96h1442v-96h-1442z" />
    <glyph glyph-name="grave" unicode="`" horiz-adv-x="555" 
d="M371 1188l-269 360h156l195 -360h-82z" />
    <glyph glyph-name="a" unicode="a" horiz-adv-x="1107" 
d="M381 -27q-138 0 -221.5 68.5t-83.5 196.5q0 68 24 117.5t80 87t121 63.5t174 59q46 13 65 19t55 18t51.5 19.5t40 20t34.5 24t22.5 27t16.5 33.5t4 40q0 71 -53 108t-154 37q-133 0 -213.5 -65t-83.5 -184h-154q14 170 136.5 270t322.5 100q166 0 263.5 -75t97.5 -234
v-440q0 -102 28 -142.5t80 -40.5q42 0 66 21v-103q-46 -32 -123 -32q-92 0 -150.5 60.5t-62.5 182.5q-49 -113 -145.5 -184.5t-237.5 -71.5zM236 244q0 -78 49.5 -115t124.5 -37q153 0 253.5 120.5t100.5 299.5v84q-10 -22 -28.5 -40t-37.5 -30.5t-55 -27t-59 -22t-72 -23.5
q-157 -49 -216.5 -89.5t-59.5 -119.5z" />
    <glyph glyph-name="b" unicode="b" horiz-adv-x="1191" 
d="M152 0v260v1077v260h165v-260v-549q55 111 152 175.5t227 64.5t225.5 -70t142 -186t46.5 -264q0 -150 -50 -268t-150.5 -188t-237.5 -70q-113 0 -206 50.5t-149 139.5v-172h-165zM317 309q49 -98 132.5 -156.5t187.5 -58.5q142 0 222.5 113.5t80.5 298.5q0 84 -18 155.5
t-53.5 127.5t-94.5 88t-135 32q-102 0 -176.5 -61t-110 -157.5t-35.5 -213.5v-168z" />
    <glyph glyph-name="c" unicode="c" horiz-adv-x="1132" 
d="M580 -35q-220 0 -359 144.5t-139 390.5q0 245 140 387.5t366 142.5q195 0 323 -107t154 -268h-156q-10 47 -33 88.5t-60.5 78.5t-96 59t-131.5 22q-166 0 -254 -112.5t-88 -290.5q0 -176 88.5 -292t253.5 -116q78 0 139 25.5t99 69.5t59.5 95t29.5 111h156
q-10 -86 -46 -162t-95.5 -136t-149.5 -95t-200 -35z" />
    <glyph glyph-name="d" unicode="d" horiz-adv-x="1191" 
d="M874 0v236q-52 -118 -146.5 -186t-227.5 -68t-229 70.5t-142.5 186.5t-46.5 263q0 111 29 206.5t83 167t138.5 112t189.5 40.5q115 0 204.5 -49t147.5 -131v489v260h166v-260v-1077v-260h-166zM252 500q0 -82 17.5 -152.5t52.5 -127t94.5 -88.5t136.5 -32
q104 0 178.5 61.5t108.5 156t34 208.5v183q-50 91 -130.5 147.5t-180.5 56.5q-149 0 -230 -112.5t-81 -300.5z" />
    <glyph glyph-name="e" unicode="e" horiz-adv-x="1138" 
d="M580 -35q-221 0 -359.5 143t-138.5 390q0 240 139.5 386t356.5 146q215 0 347 -134t132 -357h-819q-2 -12 -2 -37q0 -180 92.5 -295t255.5 -115q136 0 216.5 77.5t100.5 184.5h158q-14 -75 -49.5 -142.5t-93 -124t-144.5 -89.5t-192 -33zM254 651h639
q-23 113 -103.5 184.5t-207.5 71.5q-124 0 -209 -68.5t-119 -187.5z" />
    <glyph glyph-name="f" unicode="f" horiz-adv-x="817" 
d="M244 0v260v619h-219v118h219v193q0 112 28 196.5t79 134t115 73.5t142 24q211 0 316 -178l-95 -99q-74 152 -213 152q-98 0 -153 -66.5t-55 -205.5v-224h401v-118h-401v-619v-260h-164z" />
    <glyph glyph-name="g" unicode="g" horiz-adv-x="1216" 
d="M489 -520q-108 0 -188.5 21.5t-131 73t-50.5 128.5q0 146 192 217q-104 3 -168.5 53t-64.5 136q0 141 205 239q-119 109 -119 285q0 180 122.5 285.5t315.5 105.5q189 0 307 -100q19 105 99 168t190 63v-141q-95 0 -155.5 -38.5t-73.5 -113.5q71 -99 71 -231
q0 -181 -120.5 -286t-313.5 -105q-140 0 -248 57q-139 -66 -139 -158q0 -48 38 -72.5t128 -23.5q82 1 284.5 39.5t291.5 38.5q114 0 177.5 -50t63.5 -147q0 -96 -63.5 -181t-165 -141.5t-228.5 -89t-256 -32.5zM258 -264q0 -131 240 -131q126 0 252 36.5t212.5 105
t86.5 147.5q0 52 -34 74t-114 22q-159 0 -405 -70q-121 -37 -179.5 -80t-58.5 -104zM322 633q0 -122 75.5 -195t204.5 -73t205 73t76 195q0 119 -77 192.5t-204 73.5q-128 0 -204 -73.5t-76 -192.5z" />
    <glyph glyph-name="h" unicode="h" horiz-adv-x="1159" 
d="M152 0v260v1077v260h165v-260v-549q50 106 147.5 174t237.5 68q318 0 318 -379v-391v-260h-164v260v365q0 141 -56 208.5t-169 67.5q-127 0 -209.5 -82.5t-104.5 -204.5v-354v-260h-165z" />
    <glyph glyph-name="i" unicode="i" horiz-adv-x="468" 
d="M152 0v260v475v262h165v-737v-260h-165zM143 1257v218h185v-218h-185z" />
    <glyph glyph-name="j" unicode="j" horiz-adv-x="501" 
d="M-4 -387q101 0 144.5 61.5t43.5 190.5v870v262h166v-1112q0 -185 -80.5 -284t-273.5 -99v111zM174 1257v218h184v-218h-184z" />
    <glyph glyph-name="k" unicode="k" horiz-adv-x="987" 
d="M811 0l-494 522v-262v-260h-165v260v1077v254v6h165v-260v-727l318 271q31 26 131 116h174v-14l-135 -115l-356 -295l550 -561v-12h-188z" />
    <glyph glyph-name="l" unicode="l" horiz-adv-x="468" 
d="M152 0v260v1077v260h165v-260v-1077v-260h-165z" />
    <glyph glyph-name="m" unicode="m" horiz-adv-x="1826" 
d="M150 0v260v477v260h161v-209q51 107 145.5 174.5t231.5 67.5q257 0 303 -262q45 114 143 188t242 74q312 0 312 -379v-391v-260h-162v260v365q0 141 -55 208.5t-166 67.5q-121 0 -201 -79t-105 -197v-365v-260h-159v260v365q0 276 -222 276q-125 0 -205 -82t-102 -205
v-354v-260h-161z" />
    <glyph glyph-name="n" unicode="n" horiz-adv-x="1159" 
d="M150 0v260v477v260h165v-209q50 106 147.5 174t237.5 68q318 0 318 -379v-391v-260h-164v260v365q0 141 -56 208.5t-169 67.5q-127 0 -209.5 -82.5t-104.5 -204.5v-354v-260h-165z" />
    <glyph glyph-name="o" unicode="o" horiz-adv-x="1189" 
d="M596 -33q-238 0 -376 147t-138 386q0 238 138 384t376 146t375 -146t137 -384q0 -239 -137 -386t-375 -147zM244 500q0 -194 96.5 -300t255.5 -106t254.5 106t95.5 300q0 192 -95.5 297.5t-254.5 105.5t-255.5 -105.5t-96.5 -297.5z" />
    <glyph glyph-name="p" unicode="p" horiz-adv-x="1185" 
d="M147 -492v232v1026v231h166v-209q55 111 152 175.5t227 64.5t225.5 -70t142 -186t46.5 -264q0 -150 -50 -268t-150.5 -188t-237.5 -70q-113 0 -206 50.5t-149 139.5v-432v-232h-166zM313 309q49 -98 132.5 -156.5t187.5 -58.5q142 0 222.5 113.5t80.5 298.5
q0 84 -18 155.5t-53.5 127.5t-94.5 88t-135 32q-102 0 -176.5 -61t-110 -157.5t-35.5 -213.5v-168z" />
    <glyph glyph-name="q" unicode="q" horiz-adv-x="1189" 
d="M874 -492v232v496q-52 -118 -146.5 -186t-227.5 -68t-229 70.5t-142.5 186.5t-46.5 263q0 111 29 206.5t83 167t138.5 112t189.5 40.5q115 0 204.5 -49t147.5 -131v149h166v-231v-1026v-232h-166zM252 500q0 -82 17.5 -152.5t52.5 -127t94.5 -88.5t136.5 -32
q104 0 178.5 61.5t108.5 156t34 208.5v183q-50 91 -130.5 147.5t-180.5 56.5q-149 0 -230 -112.5t-81 -300.5z" />
    <glyph glyph-name="r" unicode="r" horiz-adv-x="747" 
d="M150 0v260v475v262h165v-262v-20q12 48 40.5 95t75 92t121.5 73t165 29v-144q-194 0 -297.5 -92.5t-104.5 -267.5v-240v-260h-165z" />
    <glyph glyph-name="s" unicode="s" horiz-adv-x="995" 
d="M535 -35q-195 0 -320 97t-145 270h159q17 -119 95 -182.5t211 -63.5q97 0 160 36t63 111q0 31 -13.5 57t-37.5 46.5t-60 39.5t-79 37.5t-95 39.5q-11 4 -16 6q-53 20 -81 31.5t-70.5 31t-65 35t-50.5 38.5t-42 47t-23.5 55.5t-9.5 68.5q0 127 100.5 196.5t269.5 69.5
q186 0 293 -85t129 -234h-159q-14 94 -82 146t-183 52q-99 0 -155 -34.5t-56 -102.5q0 -29 12 -53t31.5 -42.5t57.5 -38t77 -35t103 -38.5q100 -37 159 -64.5t110.5 -65t73.5 -83t22 -106.5q0 -92 -52.5 -157t-137.5 -95.5t-193 -30.5z" />
    <glyph glyph-name="t" unicode="t" horiz-adv-x="790" 
d="M508 -16q-287 0 -287 338v557h-217v118h217v299l160 123h6v-422h332v-118h-332v-553q0 -215 168 -215q121 0 195 100l26 -109q-35 -49 -104.5 -83.5t-163.5 -34.5z" />
    <glyph glyph-name="u" unicode="u" horiz-adv-x="1155" 
d="M459 -31q-320 0 -320 383v383v262h166v-262v-360q0 -277 217 -277q127 0 208.5 84.5t109.5 218.5v334v262h164v-262v-475v-260h-164v225q-50 -110 -148.5 -183t-232.5 -73z" />
    <glyph glyph-name="v" unicode="v" horiz-adv-x="989" 
d="M117 780q-30 74 -82 217h170l74 -217l217 -624l217 624q10 29 36 106t39 111h166q-50 -132 -84 -217l-247 -655q-36 -82 -43 -125h-168z" />
    <glyph glyph-name="w" unicode="w" horiz-adv-x="1474" 
d="M88 858q-7 23 -25 72t-24 67h166q15 -51 45 -139l217 -649l217 749h119l219 -749l215 649q44 129 47 139h152q-6 -23 -23.5 -71.5t-23.5 -67.5l-263 -749q-31 -82 -34 -109h-138l-215 750l-178 -619q-23 -71 -35 -131h-137z" />
    <glyph glyph-name="x" unicode="x" horiz-adv-x="980" 
d="M774 0q-71 99 -133 180l-166 219l-151 -219q-68 -99 -125 -180h-174l141 186l231 316l-231 309l-139 186h180q85 -116 133 -178l152 -203l143 201q21 29 64.5 90t64.5 90h168q-42 -59 -139 -186l-224 -297l246 -328q37 -51 141 -186h-182z" />
    <glyph glyph-name="y" unicode="y" horiz-adv-x="991" 
d="M127 -498q-79 0 -125 27v127q41 -23 117 -23q104 0 180.5 80t159.5 287h-41l-297 780q-16 39 -44 113t-40 104h170q12 -35 40.5 -116t35.5 -101l223 -637l221 637q12 36 38 111.5t36 105.5h166q-15 -36 -47.5 -122t-36.5 -95l-295 -774q-73 -192 -145.5 -303.5
t-146.5 -156t-169 -44.5z" />
    <glyph glyph-name="z" unicode="z" horiz-adv-x="950" 
d="M63 0v92l613 782h-215q-234 0 -400 -4v127h813v-92l-612 -784h273q185 0 352 8v-129h-824z" />
    <glyph glyph-name="braceleft" unicode="{" horiz-adv-x="772" 
d="M664 -295q-252 0 -350 125.5t-48 380.5q17 88 19 156t-11.5 112.5t-34.5 75t-54.5 46.5t-67 22t-76.5 6v112q43 0 76.5 6t67 22t54.5 46.5t34.5 75.5t11.5 114t-19 158q-50 254 48.5 380t349.5 126v-127q-126 0 -187.5 -41t-71 -127.5t16.5 -220.5q81 -435 -215 -465
q298 -30 215 -469q-27 -134 -17 -220t71 -126.5t188 -40.5v-127z" />
    <glyph glyph-name="bar" unicode="|" horiz-adv-x="473" 
d="M176 -244v1997h121v-1997h-121z" />
    <glyph glyph-name="braceright" unicode="}" horiz-adv-x="772" 
d="M109 -168q127 0 188 40.5t70.5 126.5t-17.5 220q-83 439 215 469q-296 30 -215 465q26 134 17 220.5t-70.5 127.5t-187.5 41v127q251 0 349 -126t48 -380q-17 -89 -19 -158t11.5 -114t34.5 -75.5t54.5 -46.5t67 -22t76.5 -6v-112q-43 0 -76.5 -6t-67 -22t-54.5 -46.5
t-34.5 -75t-11.5 -112.5t19 -156q50 -256 -48 -381t-349 -125v127z" />
    <glyph glyph-name="asciitilde" unicode="~" horiz-adv-x="1198" 
d="M92 371q0 155 73 240t202 85q58 0 110 -20t91.5 -48t78.5 -56t87.5 -48t101.5 -20q145 0 145 192h127q0 -155 -73.5 -240t-203.5 -85q-60 0 -113 20t-93 48t-79 56t-86 48t-98 20q-143 0 -143 -192h-127z" />
    <glyph glyph-name="exclamdown" unicode="&#xa1;" horiz-adv-x="579" 
d="M221 584h137l23 -1114h-182zM201 803v217h178v-217h-178z" />
    <glyph glyph-name="cent" unicode="&#xa2;" horiz-adv-x="1187" 
d="M399 -338l68 322q-163 42 -260.5 178.5t-97.5 339.5q0 245 139.5 387.5t365.5 142.5q26 0 72 -4l70 330h82l-72 -344q133 -37 219 -134t107 -223h-156q-15 75 -64.5 138t-132.5 92l-166 -791q12 -2 41 -2q78 0 139.5 25.5t99 69.5t59.5 95t30 111h156q-10 -86 -46 -162
t-95.5 -136t-150 -95t-200.5 -35q-41 0 -59 2l-66 -307h-82zM272 502q0 -139 56.5 -244t165.5 -143l165 788q-14 2 -45 2q-166 0 -254 -112.5t-88 -290.5z" />
    <glyph glyph-name="sterling" unicode="&#xa3;" horiz-adv-x="1449" 
d="M279 -33q-111 0 -170.5 52.5t-59.5 138.5q0 81 55 133.5t156 52.5q72 0 127 -23.5t129 -76.5q27 80 27 176q0 115 -43 239h-359v80h324q-14 29 -41.5 83t-43 88t-34 81t-27 93.5t-8.5 95.5q0 188 122 293.5t339 105.5q214 0 354 -123.5t164 -351.5h-157
q-15 169 -107.5 261.5t-237.5 92.5q-147 0 -220.5 -72.5t-73.5 -203.5q0 -68 20 -137t57 -160.5t54 -145.5h737v-80h-715q25 -109 25 -204q0 -157 -60 -277q146 -90 279 -90q158 0 235.5 99t77.5 315h158q0 -264 -117.5 -398.5t-326.5 -134.5q-101 0 -182.5 31t-174.5 98
q-109 -131 -282 -131zM154 160q0 -53 33 -79t92 -26q125 0 198 107q-49 36 -74 52t-60.5 29t-72.5 13q-57 0 -86.5 -25.5t-29.5 -70.5z" />
    <glyph glyph-name="currency" unicode="&#xa4;" horiz-adv-x="1134" 
d="M567 313q-136 0 -245 72l-162 -158l-70 66l160 160q-86 103 -86 247q0 145 86 248l-160 160l70 66l162 -158q107 71 245 71q143 0 246 -73l162 160l69 -66l-159 -160q86 -103 86 -248q0 -144 -86 -247l159 -160l-69 -66l-162 160q-104 -74 -246 -74zM285 700
q0 -122 79.5 -201t202.5 -79t203 79t80 201t-80 201.5t-203 79.5t-202.5 -79.5t-79.5 -201.5z" />
    <glyph glyph-name="yen" unicode="&#xa5;" horiz-adv-x="1337" 
d="M111 688v80h452l-364 623l-93 159h193l90 -164l299 -538l299 538q8 15 40 76.5t46 87.5h182q-17 -32 -90 -159l-358 -623h453v-80h-486v-147h486v-80h-486v-201v-260h-178v260v201h-485v80h485v147h-485z" />
    <glyph glyph-name="brokenbar" unicode="&#xa6;" horiz-adv-x="473" 
d="M176 -244v791h121v-791h-121zM176 969v784h121v-784h-121z" />
    <glyph glyph-name="section" unicode="&#xa7;" horiz-adv-x="1224" 
d="M582 -365q-197 0 -329 113t-153 318h144q14 -144 104.5 -231t231.5 -87q112 0 179.5 60.5t67.5 156.5q0 84 -70 153.5t-270 200.5q-224 147 -314.5 247t-90.5 222q0 202 229 287q-71 99 -71 209q0 135 97.5 214t266.5 79q186 0 304.5 -103t150.5 -290h-141
q-24 132 -104.5 206t-209.5 74q-110 0 -167.5 -50t-57.5 -132q0 -91 81.5 -175t274.5 -212q91 -61 146 -101t111.5 -88.5t86 -89t48 -89.5t18.5 -103q0 -201 -232 -287q56 -80 56 -174q0 -146 -106.5 -237t-280.5 -91zM221 799q0 -50 20 -92.5t65.5 -85.5t99 -83.5
t138.5 -99.5q35 -24 54 -37q188 -131 244 -184q162 56 162 197q0 66 -44 127.5t-94 100.5t-182 130q-35 24 -53 37q-183 129 -246 186q-164 -56 -164 -196z" />
    <glyph glyph-name="dieresis" unicode="&#xa8;" horiz-adv-x="684" 
d="M422 1260v200h160v-200h-160zM102 1260v200h160v-200h-160z" />
    <glyph glyph-name="copyright" unicode="&#xa9;" horiz-adv-x="1716" 
d="M858 -18q-337 0 -537 212.5t-200 579.5t200.5 581t536.5 214q335 0 535 -214t200 -581t-200 -579.5t-535 -212.5zM203 774q0 -333 178 -528t477 -195q297 0 475 195t178 528t-178.5 529t-474.5 196q-299 0 -477 -196t-178 -529zM524 778q0 183 93 296.5t245 113.5
q119 0 204.5 -72.5t109.5 -212.5h-99q-18 96 -74 145.5t-139 49.5q-108 0 -170.5 -89.5t-62.5 -230.5q0 -138 59 -230.5t170 -92.5q93 0 153 64.5t77 178.5h96q-22 -158 -110 -245.5t-220 -87.5q-155 0 -243.5 117.5t-88.5 295.5z" />
    <glyph glyph-name="ordfeminine" unicode="&#xaa;" horiz-adv-x="878" 
d="M307 915q-91 0 -146 41.5t-55 120.5q0 80 61.5 123.5t203.5 79.5q43 11 67.5 18t52.5 18t41.5 22t23 27t9.5 36q0 42 -35 65t-98 23q-81 0 -133 -38.5t-55 -109.5h-115q5 111 86.5 175.5t220.5 64.5q117 0 183.5 -49t66.5 -154v-264q0 -123 68 -123q28 0 41 10v-61
q-32 -18 -84 -18q-53 0 -97 36.5t-49 114.5q-83 -158 -258 -158zM123 725v86h649v-86h-649zM225 1090q0 -89 121 -89q94 0 156.5 78.5t62.5 192.5v31q-16 -30 -55 -49.5t-107 -39.5q-100 -29 -139 -52.5t-39 -71.5z" />
    <glyph glyph-name="guillemotleft" unicode="&#xab;" horiz-adv-x="1011" 
d="M541 94l-461 369v69l461 371v-139l-328 -264v-2l328 -267v-137zM434 463v69l461 371v-139l-328 -264v-2l328 -267v-137z" />
    <glyph glyph-name="logicalnot" unicode="&#xac;" horiz-adv-x="1171" 
d="M891 133v436h-782v127h919v-563h-137z" />
    <glyph glyph-name="registered" unicode="&#xae;" horiz-adv-x="815" 
d="M498 1077l-99 140h-45v-99v-37v-4h-59v4v37v223v54v10h123q129 0 129 -98q0 -74 -88 -86l106 -142v-2h-67zM98 1241q0 137 87 224t223 87t222.5 -87t86.5 -224q0 -138 -86.5 -225.5t-222.5 -87.5q-137 0 -223.5 87.5t-86.5 225.5zM156 1241q0 -115 68 -187.5t184 -72.5
t183.5 72.5t67.5 187.5q0 113 -67.5 185.5t-183.5 72.5t-184 -72.5t-68 -185.5zM348 1255h64q40 0 58.5 12t18.5 40q0 26 -18 37.5t-59 11.5h-64v-101z" />
    <glyph glyph-name="macron" unicode="&#xaf;" horiz-adv-x="843" 
d="M102 1241v98h639v-98h-639z" />
    <glyph glyph-name="degree" unicode="&#xb0;" horiz-adv-x="790" 
d="M395 922q-148 0 -242 94t-94 235q0 144 94 238t242 94q149 0 243.5 -94t94.5 -238q0 -141 -94.5 -235t-243.5 -94zM190 1251q0 -94 56.5 -154.5t148.5 -60.5t148.5 60.5t56.5 154.5q0 95 -56 156t-149 61t-149 -61t-56 -156z" />
    <glyph glyph-name="plusminus" unicode="&#xb1;" horiz-adv-x="1193" 
d="M137 0v117h391v364h-391v127h393v420h138v-420h389v-127h-391v-364h391v-117h-920z" />
    <glyph glyph-name="uni00B2" unicode="&#xb2;" horiz-adv-x="856" 
d="M72 944q0 72 26 133.5t74.5 109.5t99 82.5t117.5 69.5q136 72 193 124.5t57 119.5q0 78 -51 119t-139 41q-120 0 -186 -72.5t-66 -183.5h-129q5 152 105.5 254t281.5 102q144 0 229.5 -67t85.5 -189q0 -54 -19 -99t-59.5 -83t-85 -67t-112.5 -64q-69 -37 -105 -58.5
t-80.5 -54t-66 -65.5t-25.5 -70h584v-104h-729v22z" />
    <glyph glyph-name="uni00B3" unicode="&#xb3;" horiz-adv-x="862" 
d="M442 901q-167 0 -268 84.5t-115 235.5h127q9 -107 77 -164.5t177 -57.5q115 0 175.5 53t60.5 130q0 174 -254 174h-82v88h82q108 0 166.5 43.5t58.5 111.5q0 64 -48 106t-155 42q-104 0 -171.5 -48t-82.5 -138h-127q19 131 123.5 206.5t270.5 75.5q154 0 239.5 -62.5
t85.5 -166.5q0 -78 -58 -133.5t-159 -75.5q115 -14 182.5 -71.5t67.5 -162.5q0 -116 -102.5 -193t-270.5 -77z" />
    <glyph glyph-name="acute" unicode="&#xb4;" horiz-adv-x="555" 
d="M102 1188l193 360h158l-271 -360h-80z" />
    <glyph glyph-name="uni00B5" unicode="&#xb5;" horiz-adv-x="1191" 
d="M186 -412q-20 63 -30 139.5t-11.5 125.5t-1.5 137v745v262h164v-262v-360q0 -145 55.5 -213t165.5 -68q125 0 207 96.5t107 237.5v307v262h164v-262v-444q0 -114 29 -157.5t81 -43.5q41 0 68 21v-93q-51 -30 -133 -30q-94 0 -149.5 65.5t-55.5 198.5v16
q-42 -127 -133.5 -213t-218.5 -86q-141 0 -215 99v-115q0 -222 40 -365h-133z" />
    <glyph glyph-name="paragraph" unicode="&#xb6;" horiz-adv-x="1402" 
d="M557 680q-85 0 -158.5 14t-138.5 46.5t-111 81.5t-73 123.5t-27 168.5q0 95 27 169.5t73 124t111 82t138.5 46.5t158.5 14h807v-108h-240v-1725h-114v1725h-228v-1725h-116v963h-109z" />
    <glyph glyph-name="periodcentered" unicode="&#xb7;" horiz-adv-x="419" 
d="M119 420v217h180v-217h-180z" />
    <glyph glyph-name="cedilla" unicode="&#xb8;" horiz-adv-x="739" 
d="M383 -504q-93 0 -165 34.5t-116 94.5l66 70q62 -111 199 -111q67 0 107 26t40 73q0 45 -35.5 70.5t-99.5 25.5q-69 0 -103 -23l-51 49l160 195h98l-118 -143q30 6 63 6q91 0 151 -48t60 -126q0 -93 -75.5 -143t-180.5 -50z" />
    <glyph glyph-name="uni00B9" unicode="&#xb9;" horiz-adv-x="571" 
d="M258 922v260v401q-33 -55 -97.5 -91t-148.5 -42v109q109 6 192 80t93 188h92v-645v-260h-131z" />
    <glyph glyph-name="ordmasculine" unicode="&#xba;" horiz-adv-x="854" 
d="M426 907q-154 0 -246 92t-92 246t92 245t246 91q155 0 247.5 -91t92.5 -245t-92.5 -246t-247.5 -92zM129 725v86h602v-86h-602zM207 1245q0 -107 60 -171t159 -64q100 0 160.5 64t60.5 171t-60.5 170.5t-160.5 63.5q-99 0 -159 -63.5t-60 -170.5z" />
    <glyph glyph-name="guillemotright" unicode="&#xbb;" horiz-adv-x="1011" 
d="M471 94v137l328 267v2l-328 264v139l461 -371v-69zM115 94v137l327 267v2l-327 264v139l460 -371v-69z" />
    <glyph glyph-name="onequarter" unicode="&#xbc;" horiz-adv-x="1714" 
d="M258 653v260v402q-33 -55 -97.5 -91t-148.5 -42v108q109 6 192 80.5t93 188.5h92v-646v-260h-131zM102 0l1178 1550h154l-1176 -1550h-156zM856 199v86l535 618h120v-606h175v-98h-175v-13v-186v-10h-131v10v186v13h-524zM993 297h387v457z" />
    <glyph glyph-name="onehalf" unicode="&#xbd;" horiz-adv-x="1822" 
d="M258 653v260v402q-33 -55 -97.5 -91t-148.5 -42v108q109 6 192 80.5t93 188.5h92v-646v-260h-131zM102 0l1178 1550h154l-1176 -1550h-156zM1032 565q5 152 105.5 254.5t281.5 102.5q144 0 230 -67t86 -189q0 -54 -19.5 -99.5t-59.5 -83.5t-85 -67t-113 -64
q-55 -29 -84.5 -46t-70.5 -44t-62 -48.5t-38.5 -50.5t-20.5 -59h583v-104h-729v23q0 72 26 133.5t75 109.5t99 82.5t118 69.5q136 72 193 124.5t57 119.5q0 78 -51 118.5t-140 40.5q-120 0 -186 -72.5t-66 -183.5h-129z" />
    <glyph glyph-name="threequarters" unicode="&#xbe;" horiz-adv-x="2004" 
d="M442 633q-167 0 -268.5 84t-114.5 235h127q9 -107 77 -164t177 -57q115 0 175.5 53t60.5 129q0 174 -254 174h-82v89h82q108 0 166.5 43.5t58.5 111.5q0 64 -48 106t-155 42q-104 0 -171.5 -48.5t-82.5 -138.5h-127q19 131 123.5 207t270.5 76q154 0 239.5 -62.5
t85.5 -166.5q0 -78 -58 -133.5t-159 -75.5q115 -14 182.5 -71.5t67.5 -162.5q0 -116 -102.5 -193t-270.5 -77zM393 0l1178 1550h153l-1175 -1550h-156zM1147 199v86l534 618h121v-606h174v-98h-174v-13v-186v-10h-131v10v186v13h-524zM1284 297h387v457z" />
    <glyph glyph-name="questiondown" unicode="&#xbf;" horiz-adv-x="1040" 
d="M674 575q28 -83 28 -153q0 -57 -25.5 -109t-66.5 -92.5t-90.5 -79t-99 -76.5t-90.5 -78t-66.5 -90.5t-25.5 -105.5q0 -91 64.5 -152t184.5 -61q147 0 228.5 89.5t89.5 244.5h162q-12 -220 -147 -342.5t-347 -122.5q-186 0 -295.5 93t-109.5 245q0 73 26.5 135t69 106.5
t94 84t103.5 75t94.5 71t69 81t26.5 96.5q0 67 -27 141h150zM483 803v217h181v-217h-181z" />
    <glyph glyph-name="Agrave" unicode="&#xc0;" horiz-adv-x="1345" 
d="M18 0q13 35 41.5 109.5t40.5 109.5l451 1213l43 118h160l493 -1339q46 -120 78 -211h-192q-13 36 -38 110.5t-34 100.5l-82 233h-621l-82 -231l-73 -213h-185zM356 1974h172l197 -286h-113zM406 575h528l-264 748z" />
    <glyph glyph-name="Aacute" unicode="&#xc1;" horiz-adv-x="1345" 
d="M18 0q13 35 41.5 109.5t40.5 109.5l451 1213l43 118h160l493 -1339q46 -120 78 -211h-192q-13 36 -38 110.5t-34 100.5l-82 233h-621l-82 -231l-73 -213h-185zM406 575h528l-264 748zM614 1688l197 286h172l-256 -286h-113z" />
    <glyph glyph-name="Acircumflex" unicode="&#xc2;" horiz-adv-x="1345" 
d="M18 0q13 35 41.5 109.5t40.5 109.5l451 1213l43 118h160l493 -1339q46 -120 78 -211h-192q-13 36 -38 110.5t-34 100.5l-82 233h-621l-82 -231l-73 -213h-185zM348 1688l275 286h102l276 -286h-155l-172 186l-172 -186h-154zM406 575h528l-264 748z" />
    <glyph glyph-name="Atilde" unicode="&#xc3;" horiz-adv-x="1345" 
d="M18 0q13 35 41.5 109.5t40.5 109.5l451 1213l43 118h160l493 -1339q46 -120 78 -211h-192q-13 36 -38 110.5t-34 100.5l-82 233h-621l-82 -231l-73 -213h-185zM358 1694q0 282 177 282q46 0 80 -18.5t54 -44.5t38 -52t43.5 -44.5t58.5 -18.5q52 0 70 40t18 136h90
q-2 -147 -43 -215.5t-131 -68.5q-46 0 -80.5 18.5t-56 45t-40 53t-43.5 45t-56 18.5q-50 0 -69 -44t-19 -132h-91zM406 575h528l-264 748z" />
    <glyph glyph-name="Adieresis" unicode="&#xc4;" horiz-adv-x="1345" 
d="M18 0q13 35 41.5 109.5t40.5 109.5l451 1213l43 118h160l493 -1339q46 -120 78 -211h-192q-13 36 -38 110.5t-34 100.5l-82 233h-621l-82 -231l-73 -213h-185zM406 575h528l-264 748zM412 1729v202h151v-202h-151zM780 1729v202h154v-202h-154z" />
    <glyph glyph-name="Aring" unicode="&#xc5;" horiz-adv-x="1345" 
d="M18 0q13 35 41.5 109.5t40.5 109.5l451 1213l43 118h160l493 -1339q46 -120 78 -211h-192q-13 36 -38 110.5t-34 100.5l-82 233h-621l-82 -231l-73 -213h-185zM406 575h528l-264 748zM457 1853q0 85 59 136t156 51q100 0 160.5 -51t60.5 -136q0 -87 -60 -136.5
t-161 -49.5q-98 0 -156.5 49.5t-58.5 136.5zM535 1853q0 -55 38 -88.5t99 -33.5q62 0 100.5 33.5t38.5 88.5q0 54 -39 88.5t-100 34.5q-60 0 -98.5 -34.5t-38.5 -88.5z" />
    <glyph glyph-name="AE" unicode="&#xc6;" horiz-adv-x="1859" 
d="M-35 0q18 35 156 287l694 1263h973v-133q-180 2 -418 2h-276v-545h178q199 0 414 5v-134q-258 3 -414 3h-178v-617h286q250 0 422 4v-135h-889v260v217h-497l-101 -192q-117 -230 -145 -285h-205zM487 612h426v678v109h-14z" />
    <glyph glyph-name="Ccedilla" unicode="&#xc7;" horiz-adv-x="1718" 
d="M850 -508q-93 0 -165 34.5t-116 94.5l66 70q62 -111 199 -111q67 0 107 26t40 72q0 45 -35.5 71t-99.5 26q-69 0 -103 -23l-51 49l137 168q-139 7 -258 51.5t-207.5 119t-151.5 173.5t-94.5 217t-31.5 248q0 235 99 416.5t281.5 282t420.5 100.5q185 0 337.5 -60.5
t264.5 -191t156 -319.5h-187q-56 207 -207 316.5t-366 109.5q-139 0 -255 -49.5t-194.5 -136.5t-122 -206.5t-43.5 -257.5q0 -132 40 -251.5t114.5 -213t192.5 -149t264 -55.5q238 0 395 139.5t201 370.5h184q-54 -298 -248 -470t-485 -184l-97 -116q30 6 64 6q91 0 151 -48
t60 -126q0 -93 -75.5 -143t-180.5 -50z" />
    <glyph glyph-name="Egrave" unicode="&#xc8;" horiz-adv-x="1132" 
d="M184 0v260v1030v260h875v-133q-180 2 -418 2h-276v-545h178q198 0 413 5v-134q-258 3 -413 3h-178v-617h286q250 0 422 4v-135h-889zM291 1974h172l196 -286h-112z" />
    <glyph glyph-name="Eacute" unicode="&#xc9;" horiz-adv-x="1132" 
d="M184 0v260v1030v260h875v-133q-180 2 -418 2h-276v-545h178q198 0 413 5v-134q-258 3 -413 3h-178v-617h286q250 0 422 4v-135h-889zM549 1688l196 286h173l-256 -286h-113z" />
    <glyph glyph-name="Ecircumflex" unicode="&#xca;" horiz-adv-x="1132" 
d="M184 0v260v1030v260h875v-133q-180 2 -418 2h-276v-545h178q198 0 413 5v-134q-258 3 -413 3h-178v-617h286q250 0 422 4v-135h-889zM283 1688l274 286h102l277 -286h-156l-172 186l-172 -186h-153z" />
    <glyph glyph-name="Edieresis" unicode="&#xcb;" horiz-adv-x="1132" 
d="M184 0v260v1030v260h875v-133q-180 2 -418 2h-276v-545h178q198 0 413 5v-134q-258 3 -413 3h-178v-617h286q250 0 422 4v-135h-889zM346 1729v202h152v-202h-152zM715 1729v202h153v-202h-153z" />
    <glyph glyph-name="Igrave" unicode="&#xcc;" horiz-adv-x="548" 
d="M184 0v260v1030v260h181v-260v-1030v-260h-181zM-43 1974h172l197 -286h-113z" />
    <glyph glyph-name="Iacute" unicode="&#xcd;" horiz-adv-x="548" 
d="M184 0v260v1030v260h181v-260v-1030v-260h-181zM215 1688l197 286h172l-256 -286h-113z" />
    <glyph glyph-name="Icircumflex" unicode="&#xce;" horiz-adv-x="548" 
d="M184 0v260v1030v260h181v-260v-1030v-260h-181zM-51 1688l274 286h103l276 -286h-156l-172 186l-172 -186h-153z" />
    <glyph glyph-name="Idieresis" unicode="&#xcf;" horiz-adv-x="548" 
d="M184 0v260v1030v260h181v-260v-1030v-260h-181zM12 1729v202h152v-202h-152zM381 1729v202h154v-202h-154z" />
    <glyph glyph-name="Eth" unicode="&#xd0;" horiz-adv-x="1638" 
d="M184 0v260v485h-182v115h182v430v260h471q266 0 471 -97t316.5 -273t111.5 -404q0 -230 -111.5 -406.5t-315 -273t-470.5 -96.5h-473zM365 133h286q325 0 522 177t197 464q0 289 -196 466t-523 177h-286v-557h499v-115h-499v-612z" />
    <glyph glyph-name="Ntilde" unicode="&#xd1;" horiz-adv-x="1513" 
d="M1139 0l-779 1288v-1028v-260h-176v260v1030v260h191l776 -1282v1022v260h178v-260v-1290h-190zM438 1694q0 282 176 282q46 0 80 -18.5t54.5 -44.5t38.5 -52t43.5 -44.5t58.5 -18.5q52 0 70 40t18 136h90q-2 -147 -43 -215.5t-131 -68.5q-46 0 -81 18.5t-56 45t-40 53
t-44 45t-56 18.5q-50 0 -69 -44t-19 -132h-90z" />
    <glyph glyph-name="Ograve" unicode="&#xd2;" horiz-adv-x="1792" 
d="M895 -33q-237 0 -421 101.5t-286 285.5t-102 420q0 235 102 417t286 282t421 100q238 0 422.5 -100.5t286.5 -283t102 -419.5q0 -235 -102 -418t-286.5 -284t-422.5 -101zM270 770q0 -193 78 -343t220.5 -233t326.5 -83q281 0 454 184t173 479q0 292 -173 474t-454 182
q-280 0 -452.5 -182.5t-172.5 -477.5zM578 1974h172l196 -286h-112z" />
    <glyph glyph-name="Oacute" unicode="&#xd3;" horiz-adv-x="1792" 
d="M895 -33q-237 0 -421 101.5t-286 285.5t-102 420q0 235 102 417t286 282t421 100q238 0 422.5 -100.5t286.5 -283t102 -419.5q0 -235 -102 -418t-286.5 -284t-422.5 -101zM270 770q0 -193 78 -343t220.5 -233t326.5 -83q281 0 454 184t173 479q0 292 -173 474t-454 182
q-280 0 -452.5 -182.5t-172.5 -477.5zM836 1688l196 286h172l-256 -286h-112z" />
    <glyph glyph-name="Ocircumflex" unicode="&#xd4;" horiz-adv-x="1792" 
d="M895 -33q-237 0 -421 101.5t-286 285.5t-102 420q0 235 102 417t286 282t421 100q238 0 422.5 -100.5t286.5 -283t102 -419.5q0 -235 -102 -418t-286.5 -284t-422.5 -101zM270 770q0 -193 78 -343t220.5 -233t326.5 -83q281 0 454 184t173 479q0 292 -173 474t-454 182
q-280 0 -452.5 -182.5t-172.5 -477.5zM569 1688l275 286h102l277 -286h-156l-172 186l-172 -186h-154z" />
    <glyph glyph-name="Otilde" unicode="&#xd5;" horiz-adv-x="1792" 
d="M895 -33q-237 0 -421 101.5t-286 285.5t-102 420q0 235 102 417t286 282t421 100q238 0 422.5 -100.5t286.5 -283t102 -419.5q0 -235 -102 -418t-286.5 -284t-422.5 -101zM270 770q0 -193 78 -343t220.5 -233t326.5 -83q281 0 454 184t173 479q0 292 -173 474t-454 182
q-280 0 -452.5 -182.5t-172.5 -477.5zM580 1694q0 282 176 282q46 0 80 -18.5t54 -44.5t38 -52t43.5 -44.5t58.5 -18.5q52 0 70 40t18 136h90q-2 -147 -43 -215.5t-131 -68.5q-46 0 -80.5 18.5t-56 45t-40 53t-43.5 45t-56 18.5q-50 0 -69 -44t-19 -132h-90z" />
    <glyph glyph-name="Odieresis" unicode="&#xd6;" horiz-adv-x="1792" 
d="M895 -33q-237 0 -421 101.5t-286 285.5t-102 420q0 235 102 417t286 282t421 100q238 0 422.5 -100.5t286.5 -283t102 -419.5q0 -235 -102 -418t-286.5 -284t-422.5 -101zM270 770q0 -193 78 -343t220.5 -233t326.5 -83q281 0 454 184t173 479q0 292 -173 474t-454 182
q-280 0 -452.5 -182.5t-172.5 -477.5zM633 1729v202h151v-202h-151zM1001 1729v202h154v-202h-154z" />
    <glyph glyph-name="multiply" unicode="&#xd7;" horiz-adv-x="1175" 
d="M293 145l-90 91l295 294l-295 293l90 92l297 -294l293 294l90 -92l-293 -293l293 -294l-90 -91l-293 295z" />
    <glyph glyph-name="Oslash" unicode="&#xd8;" horiz-adv-x="1792" 
d="M512 -350l-106 33l141 352q-216 90 -338.5 284.5t-122.5 454.5q0 235 102 417t286 282t421 100q123 0 252 -33l135 336l109 -31l-138 -342q212 -92 332.5 -283.5t120.5 -449.5q0 -235 -102 -418t-286.5 -284t-422.5 -101q-126 0 -244 31zM270 770q0 -205 88.5 -361
t243.5 -233l492 1227q-103 27 -199 27q-280 0 -452.5 -182.5t-172.5 -477.5zM707 135q89 -24 188 -24q281 0 454 184t173 479q0 202 -86 355.5t-240 232.5z" />
    <glyph glyph-name="Ugrave" unicode="&#xd9;" horiz-adv-x="1474" 
d="M737 -35q-135 0 -237.5 35.5t-178.5 112t-115.5 204.5t-39.5 306v667v260h180v-260v-676q0 -268 94.5 -386.5t296.5 -118.5q204 0 298.5 120.5t94.5 384.5v676v260h179v-260v-667q0 -341 -146 -499.5t-426 -158.5zM420 1974h172l196 -286h-112z" />
    <glyph glyph-name="Uacute" unicode="&#xda;" horiz-adv-x="1474" 
d="M737 -35q-135 0 -237.5 35.5t-178.5 112t-115.5 204.5t-39.5 306v667v260h180v-260v-676q0 -268 94.5 -386.5t296.5 -118.5q204 0 298.5 120.5t94.5 384.5v676v260h179v-260v-667q0 -341 -146 -499.5t-426 -158.5zM678 1688l196 286h173l-256 -286h-113z" />
    <glyph glyph-name="Ucircumflex" unicode="&#xdb;" horiz-adv-x="1474" 
d="M737 -35q-135 0 -237.5 35.5t-178.5 112t-115.5 204.5t-39.5 306v667v260h180v-260v-676q0 -268 94.5 -386.5t296.5 -118.5q204 0 298.5 120.5t94.5 384.5v676v260h179v-260v-667q0 -341 -146 -499.5t-426 -158.5zM412 1688l274 286h102l277 -286h-156l-172 186
l-172 -186h-153z" />
    <glyph glyph-name="Udieresis" unicode="&#xdc;" horiz-adv-x="1474" 
d="M737 -35q-135 0 -237.5 35.5t-178.5 112t-115.5 204.5t-39.5 306v667v260h180v-260v-676q0 -268 94.5 -386.5t296.5 -118.5q204 0 298.5 120.5t94.5 384.5v676v260h179v-260v-667q0 -341 -146 -499.5t-426 -158.5zM475 1729v202h152v-202h-152zM844 1729v202h153v-202
h-153z" />
    <glyph glyph-name="Yacute" unicode="&#xdd;" horiz-adv-x="1218" 
d="M127 1391l-92 159h192l90 -164l299 -538l299 538q8 15 40 76.5t46 87.5h183q-17 -32 -90 -159l-392 -680v-451v-260h-178v260v451zM555 1688l197 286h172l-256 -286h-113z" />
    <glyph glyph-name="Thorn" unicode="&#xde;" horiz-adv-x="1226" 
d="M188 0v260v1030v260h179v-260v-65h213q292 0 433.5 -101.5t141.5 -304.5q0 -210 -151.5 -323t-452.5 -113h-184v-123v-260h-179zM367 514h182q222 0 326 76t104 229q0 142 -96.5 208.5t-302.5 66.5h-213v-580z" />
    <glyph glyph-name="germandbls" unicode="&#xdf;" horiz-adv-x="1230" 
d="M731 -31q-154 0 -258 78v148q95 -109 256 -109q106 0 165.5 47.5t59.5 136.5q0 54 -26 104t-65 91t-115 108q-110 96 -141 131q-60 69 -60 136q0 43 22.5 82t50 65t78.5 66q4 3 32 25.5t33.5 27.5t28 25.5t28.5 29.5t20.5 29t19 35t9.5 35.5t5 42.5q0 90 -64 143t-177 53
q-84 0 -146.5 -31t-99.5 -87.5t-54.5 -128t-17.5 -158.5v-834v-260h-163v260v819q0 115 30 211.5t88.5 169.5t153 114.5t215.5 41.5q174 0 277.5 -81t103.5 -216q0 -53 -16 -96t-46.5 -76.5t-58.5 -55.5t-69 -50q-7 -5 -11 -7q-69 -45 -100 -81.5t-31 -78.5q0 -36 28 -76
t51 -60.5t87 -72.5q9 -8 14 -12q83 -65 133 -116.5t81.5 -116.5t31.5 -137q0 -144 -105 -229t-278 -85z" />
    <glyph glyph-name="agrave" unicode="&#xe0;" horiz-adv-x="1107" 
d="M381 -27q-138 0 -221.5 68.5t-83.5 196.5q0 68 24 117.5t80 87t121 63.5t174 59q46 13 65 19t55 18t51.5 19.5t40 20t34.5 24t22.5 27t16.5 33.5t4 40q0 71 -53 108t-154 37q-133 0 -213.5 -65t-83.5 -184h-154q14 170 136.5 270t322.5 100q166 0 263.5 -75t97.5 -234
v-440q0 -102 28 -142.5t80 -40.5q42 0 66 21v-103q-46 -32 -123 -32q-92 0 -150.5 60.5t-62.5 182.5q-49 -113 -145.5 -184.5t-237.5 -71.5zM236 244q0 -78 49.5 -115t124.5 -37q153 0 253.5 120.5t100.5 299.5v84q-10 -22 -28.5 -40t-37.5 -30.5t-55 -27t-59 -22t-72 -23.5
q-157 -49 -216.5 -89.5t-59.5 -119.5zM248 1548h155l195 -360h-82z" />
    <glyph glyph-name="aacute" unicode="&#xe1;" horiz-adv-x="1107" 
d="M381 -27q-138 0 -221.5 68.5t-83.5 196.5q0 68 24 117.5t80 87t121 63.5t174 59q46 13 65 19t55 18t51.5 19.5t40 20t34.5 24t22.5 27t16.5 33.5t4 40q0 71 -53 108t-154 37q-133 0 -213.5 -65t-83.5 -184h-154q14 170 136.5 270t322.5 100q166 0 263.5 -75t97.5 -234
v-440q0 -102 28 -142.5t80 -40.5q42 0 66 21v-103q-46 -32 -123 -32q-92 0 -150.5 60.5t-62.5 182.5q-49 -113 -145.5 -184.5t-237.5 -71.5zM236 244q0 -78 49.5 -115t124.5 -37q153 0 253.5 120.5t100.5 299.5v84q-10 -22 -28.5 -40t-37.5 -30.5t-55 -27t-59 -22t-72 -23.5
q-157 -49 -216.5 -89.5t-59.5 -119.5zM518 1188l193 360h157l-270 -360h-80z" />
    <glyph glyph-name="acircumflex" unicode="&#xe2;" horiz-adv-x="1107" 
d="M381 -27q-138 0 -221.5 68.5t-83.5 196.5q0 68 24 117.5t80 87t121 63.5t174 59q46 13 65 19t55 18t51.5 19.5t40 20t34.5 24t22.5 27t16.5 33.5t4 40q0 71 -53 108t-154 37q-133 0 -213.5 -65t-83.5 -184h-154q14 170 136.5 270t322.5 100q166 0 263.5 -75t97.5 -234
v-440q0 -102 28 -142.5t80 -40.5q42 0 66 21v-103q-46 -32 -123 -32q-92 0 -150.5 60.5t-62.5 182.5q-49 -113 -145.5 -184.5t-237.5 -71.5zM236 244q0 -78 49.5 -115t124.5 -37q153 0 253.5 120.5t100.5 299.5v84q-10 -22 -28.5 -40t-37.5 -30.5t-55 -27t-59 -22t-72 -23.5
q-157 -49 -216.5 -89.5t-59.5 -119.5zM248 1188l260 346h98l262 -346h-137l-174 239l-172 -239h-137z" />
    <glyph glyph-name="atilde" unicode="&#xe3;" horiz-adv-x="1107" 
d="M381 -27q-138 0 -221.5 68.5t-83.5 196.5q0 68 24 117.5t80 87t121 63.5t174 59q46 13 65 19t55 18t51.5 19.5t40 20t34.5 24t22.5 27t16.5 33.5t4 40q0 71 -53 108t-154 37q-133 0 -213.5 -65t-83.5 -184h-154q14 170 136.5 270t322.5 100q166 0 263.5 -75t97.5 -234
v-440q0 -102 28 -142.5t80 -40.5q42 0 66 21v-103q-46 -32 -123 -32q-92 0 -150.5 60.5t-62.5 182.5q-49 -113 -145.5 -184.5t-237.5 -71.5zM236 244q0 -78 49.5 -115t124.5 -37q153 0 253.5 120.5t100.5 299.5v84q-10 -22 -28.5 -40t-37.5 -30.5t-55 -27t-59 -22t-72 -23.5
q-157 -49 -216.5 -89.5t-59.5 -119.5zM242 1188q-8 146 39 235.5t137 89.5q45 0 79 -22t55 -53.5t40.5 -62.5t46 -53t61.5 -22q96 0 84 213h82q12 -327 -168 -327q-48 0 -84 22t-57.5 53t-40.5 62.5t-44.5 53.5t-57.5 22q-51 0 -73.5 -59.5t-16.5 -151.5h-82z" />
    <glyph glyph-name="adieresis" unicode="&#xe4;" horiz-adv-x="1107" 
d="M381 -27q-138 0 -221.5 68.5t-83.5 196.5q0 68 24 117.5t80 87t121 63.5t174 59q46 13 65 19t55 18t51.5 19.5t40 20t34.5 24t22.5 27t16.5 33.5t4 40q0 71 -53 108t-154 37q-133 0 -213.5 -65t-83.5 -184h-154q14 170 136.5 270t322.5 100q166 0 263.5 -75t97.5 -234
v-440q0 -102 28 -142.5t80 -40.5q42 0 66 21v-103q-46 -32 -123 -32q-92 0 -150.5 60.5t-62.5 182.5q-49 -113 -145.5 -184.5t-237.5 -71.5zM236 244q0 -78 49.5 -115t124.5 -37q153 0 253.5 120.5t100.5 299.5v84q-10 -22 -28.5 -40t-37.5 -30.5t-55 -27t-59 -22t-72 -23.5
q-157 -49 -216.5 -89.5t-59.5 -119.5zM317 1260v200h160v-200h-160zM637 1260v200h160v-200h-160z" />
    <glyph glyph-name="aring" unicode="&#xe5;" horiz-adv-x="1107" 
d="M381 -27q-138 0 -221.5 68.5t-83.5 196.5q0 68 24 117.5t80 87t121 63.5t174 59q46 13 65 19t55 18t51.5 19.5t40 20t34.5 24t22.5 27t16.5 33.5t4 40q0 71 -53 108t-154 37q-133 0 -213.5 -65t-83.5 -184h-154q14 170 136.5 270t322.5 100q166 0 263.5 -75t97.5 -234
v-440q0 -102 28 -142.5t80 -40.5q42 0 66 21v-103q-46 -32 -123 -32q-92 0 -150.5 60.5t-62.5 182.5q-49 -113 -145.5 -184.5t-237.5 -71.5zM236 244q0 -78 49.5 -115t124.5 -37q153 0 253.5 120.5t100.5 299.5v84q-10 -22 -28.5 -40t-37.5 -30.5t-55 -27t-59 -22t-72 -23.5
q-157 -49 -216.5 -89.5t-59.5 -119.5zM336 1389q0 93 60.5 150.5t158.5 57.5q102 0 164.5 -57.5t62.5 -150.5q0 -90 -62.5 -147.5t-164.5 -57.5q-98 0 -158.5 57.5t-60.5 147.5zM418 1389q0 -61 38.5 -99.5t98.5 -38.5q63 0 102 38t39 100q0 64 -39 102.5t-102 38.5
q-61 0 -99 -38.5t-38 -102.5z" />
    <glyph glyph-name="ae" unicode="&#xe6;" horiz-adv-x="1816" 
d="M1276 -35q-161 0 -278.5 92.5t-161.5 259.5q-38 -150 -158 -246.5t-293 -97.5q-139 -2 -224 66t-85 194q0 68 23.5 118t77 88t121 65.5t173.5 58.5q38 11 57.5 16.5t50.5 15.5t47 16.5t38.5 16.5t33.5 19t25 21.5t20 25.5t10.5 29t4.5 35q0 75 -53 114t-156 39
q-129 0 -209.5 -66.5t-83.5 -182.5h-154q14 169 138 269.5t319 100.5q129 0 218 -53t122 -158q62 100 161 154.5t220 54.5q210 0 332.5 -133.5t122.5 -357.5h-779q-2 -14 -2 -43q0 -177 87 -290.5t243 -113.5q71 0 128 23t93.5 61.5t58.5 83t31 94.5h144q-12 -75 -46 -142.5
t-89.5 -124t-140 -89.5t-187.5 -33zM236 242q0 -77 51 -113.5t131 -36.5q150 0 249 119.5t99 300.5v84q-23 -48 -82 -78t-174 -67q-62 -19 -97.5 -32t-74 -31.5t-58 -37.5t-32 -46t-12.5 -62zM973 645h606q-20 116 -96.5 189t-200.5 73q-118 0 -198.5 -70t-110.5 -192z" />
    <glyph glyph-name="ccedilla" unicode="&#xe7;" horiz-adv-x="1132" 
d="M557 -504q-93 0 -165 34.5t-116 94.5l66 70q62 -111 199 -111q67 0 107 26t40 73q0 45 -35.5 70.5t-99.5 25.5q-68 0 -102 -23l-52 49l133 162q-201 15 -325.5 158t-124.5 375q0 245 140 387.5t366 142.5q195 0 323 -107t154 -268h-156q-10 47 -33 88.5t-60.5 78.5
t-96 59t-131.5 22q-166 0 -254 -112.5t-88 -290.5q0 -176 88.5 -292t253.5 -116q78 0 139 25.5t99 69.5t59.5 95t29.5 111h156q-10 -82 -42 -154t-85.5 -131t-134 -96.5t-178.5 -44.5l-92 -110q30 6 63 6q91 0 151 -48t60 -126q0 -93 -75.5 -143t-180.5 -50z" />
    <glyph glyph-name="egrave" unicode="&#xe8;" horiz-adv-x="1138" 
d="M580 -35q-221 0 -359.5 143t-138.5 390q0 240 139.5 386t356.5 146q215 0 347 -134t132 -357h-819q-2 -12 -2 -37q0 -180 92.5 -295t255.5 -115q136 0 216.5 77.5t100.5 184.5h158q-14 -75 -49.5 -142.5t-93 -124t-144.5 -89.5t-192 -33zM254 651h639
q-23 113 -103.5 184.5t-207.5 71.5q-124 0 -209 -68.5t-119 -187.5zM268 1548h156l194 -360h-81z" />
    <glyph glyph-name="eacute" unicode="&#xe9;" horiz-adv-x="1138" 
d="M580 -35q-221 0 -359.5 143t-138.5 390q0 240 139.5 386t356.5 146q215 0 347 -134t132 -357h-819q-2 -12 -2 -37q0 -180 92.5 -295t255.5 -115q136 0 216.5 77.5t100.5 184.5h158q-14 -75 -49.5 -142.5t-93 -124t-144.5 -89.5t-192 -33zM254 651h639
q-23 113 -103.5 184.5t-207.5 71.5q-124 0 -209 -68.5t-119 -187.5zM539 1188l192 360h158l-271 -360h-79z" />
    <glyph glyph-name="ecircumflex" unicode="&#xea;" horiz-adv-x="1138" 
d="M580 -35q-221 0 -359.5 143t-138.5 390q0 240 139.5 386t356.5 146q215 0 347 -134t132 -357h-819q-2 -12 -2 -37q0 -180 92.5 -295t255.5 -115q136 0 216.5 77.5t100.5 184.5h158q-14 -75 -49.5 -142.5t-93 -124t-144.5 -89.5t-192 -33zM254 651h639
q-23 113 -103.5 184.5t-207.5 71.5q-124 0 -209 -68.5t-119 -187.5zM268 1188l260 346h99l262 -346h-137l-174 239l-172 -239h-138z" />
    <glyph glyph-name="edieresis" unicode="&#xeb;" horiz-adv-x="1138" 
d="M580 -35q-221 0 -359.5 143t-138.5 390q0 240 139.5 386t356.5 146q215 0 347 -134t132 -357h-819q-2 -12 -2 -37q0 -180 92.5 -295t255.5 -115q136 0 216.5 77.5t100.5 184.5h158q-14 -75 -49.5 -142.5t-93 -124t-144.5 -89.5t-192 -33zM254 651h639
q-23 113 -103.5 184.5t-207.5 71.5q-124 0 -209 -68.5t-119 -187.5zM336 1260v200h160v-200h-160zM655 1260v200h160v-200h-160z" />
    <glyph glyph-name="igrave" unicode="&#xec;" horiz-adv-x="468" 
d="M152 0v260v475v262h165v-737v-260h-165zM-74 1548h156l194 -360h-81z" />
    <glyph glyph-name="iacute" unicode="&#xed;" horiz-adv-x="468" 
d="M152 0v260v475v262h165v-737v-260h-165zM197 1188l192 360h158l-271 -360h-79z" />
    <glyph glyph-name="icircumflex" unicode="&#xee;" horiz-adv-x="468" 
d="M152 0v260v475v262h165v-737v-260h-165zM-74 1188l260 346h99l262 -346h-137l-174 239l-173 -239h-137z" />
    <glyph glyph-name="idieresis" unicode="&#xef;" horiz-adv-x="468" 
d="M152 0v260v475v262h165v-737v-260h-165zM-6 1260v200h160v-200h-160zM313 1260v200h160v-200h-160z" />
    <glyph glyph-name="eth" unicode="&#xf0;" horiz-adv-x="1155" 
d="M565 -33q-215 0 -351 149.5t-136 379.5q0 227 134 374.5t337 147.5q135 0 229.5 -67t141.5 -179q-39 366 -250 571l-471 -260v109l393 217q-172 124 -422 160l90 49q235 -24 424 -156l356 197v-109l-274 -153q142 -128 221.5 -319t79.5 -435q0 -318 -135 -497t-367 -179z
M242 502q0 -188 91 -299t234 -111q151 0 245.5 118t94.5 306q0 96 -27 171.5t-74 122.5t-106.5 71t-126.5 24q-149 0 -240 -108.5t-91 -294.5z" />
    <glyph glyph-name="ntilde" unicode="&#xf1;" horiz-adv-x="1159" 
d="M150 0v260v477v260h165v-209q50 106 147.5 174t237.5 68q318 0 318 -379v-391v-260h-164v260v365q0 141 -56 208.5t-169 67.5q-127 0 -209.5 -82.5t-104.5 -204.5v-354v-260h-165zM291 1188q-8 146 39 235.5t137 89.5q38 0 69 -16t49 -39.5t37 -51t34.5 -51t39.5 -39.5
t54 -16q96 0 84 213h81q12 -327 -167 -327q-48 0 -84 22t-58 53t-41 62.5t-44.5 53.5t-57.5 22q-51 0 -73.5 -59.5t-16.5 -151.5h-82z" />
    <glyph glyph-name="ograve" unicode="&#xf2;" horiz-adv-x="1189" 
d="M596 -33q-238 0 -376 147t-138 386q0 238 138 384t376 146t375 -146t137 -384q0 -239 -137 -386t-375 -147zM244 500q0 -194 96.5 -300t255.5 -106t254.5 106t95.5 300q0 192 -95.5 297.5t-254.5 105.5t-255.5 -105.5t-96.5 -297.5zM287 1548h155l195 -360h-82z" />
    <glyph glyph-name="oacute" unicode="&#xf3;" horiz-adv-x="1189" 
d="M596 -33q-238 0 -376 147t-138 386q0 238 138 384t376 146t375 -146t137 -384q0 -239 -137 -386t-375 -147zM244 500q0 -194 96.5 -300t255.5 -106t254.5 106t95.5 300q0 192 -95.5 297.5t-254.5 105.5t-255.5 -105.5t-96.5 -297.5zM557 1188l193 360h157l-270 -360h-80z
" />
    <glyph glyph-name="ocircumflex" unicode="&#xf4;" horiz-adv-x="1189" 
d="M596 -33q-238 0 -376 147t-138 386q0 238 138 384t376 146t375 -146t137 -384q0 -239 -137 -386t-375 -147zM244 500q0 -194 96.5 -300t255.5 -106t254.5 106t95.5 300q0 192 -95.5 297.5t-254.5 105.5t-255.5 -105.5t-96.5 -297.5zM287 1188l260 346h98l262 -346h-137
l-174 239l-172 -239h-137z" />
    <glyph glyph-name="otilde" unicode="&#xf5;" horiz-adv-x="1189" 
d="M596 -33q-238 0 -376 147t-138 386q0 238 138 384t376 146t375 -146t137 -384q0 -239 -137 -386t-375 -147zM244 500q0 -194 96.5 -300t255.5 -106t254.5 106t95.5 300q0 192 -95.5 297.5t-254.5 105.5t-255.5 -105.5t-96.5 -297.5zM281 1188q-8 146 39 235.5t137 89.5
q45 0 79 -22t55 -53.5t40.5 -62.5t46 -53t61.5 -22q96 0 84 213h82q12 -327 -168 -327q-48 0 -84 22t-57.5 53t-40.5 62.5t-44.5 53.5t-57.5 22q-52 0 -74.5 -59.5t-16.5 -151.5h-81z" />
    <glyph glyph-name="odieresis" unicode="&#xf6;" horiz-adv-x="1189" 
d="M596 -33q-238 0 -376 147t-138 386q0 238 138 384t376 146t375 -146t137 -384q0 -239 -137 -386t-375 -147zM244 500q0 -194 96.5 -300t255.5 -106t254.5 106t95.5 300q0 192 -95.5 297.5t-254.5 105.5t-255.5 -105.5t-96.5 -297.5zM354 1260v200h160v-200h-160z
M674 1260v200h160v-200h-160z" />
    <glyph glyph-name="divide" unicode="&#xf7;" horiz-adv-x="1173" 
d="M127 469v125h920v-125h-920zM508 76v178h158v-178h-158zM508 807v180h158v-180h-158z" />
    <glyph glyph-name="oslash" unicode="&#xf8;" horiz-adv-x="1189" 
d="M346 -252l-88 31l96 239q-130 61 -201 187.5t-71 294.5q0 238 138 384t376 146q84 0 154 -18l90 223l88 -31l-90 -225q130 -60 200 -185.5t70 -293.5q0 -239 -137 -386t-375 -147q-78 0 -156 19zM244 500q0 -126 42.5 -216.5t119.5 -138.5l296 744q-46 14 -106 14
q-159 0 -255.5 -105.5t-96.5 -297.5zM489 109q49 -15 107 -15q159 0 254.5 106t95.5 300q0 251 -160 352z" />
    <glyph glyph-name="ugrave" unicode="&#xf9;" horiz-adv-x="1155" 
d="M459 -31q-320 0 -320 383v383v262h166v-262v-360q0 -277 217 -277q127 0 208.5 84.5t109.5 218.5v334v262h164v-262v-475v-260h-164v225q-50 -110 -148.5 -183t-232.5 -73zM262 1548h156l194 -360h-82z" />
    <glyph glyph-name="uacute" unicode="&#xfa;" horiz-adv-x="1155" 
d="M459 -31q-320 0 -320 383v383v262h166v-262v-360q0 -277 217 -277q127 0 208.5 84.5t109.5 218.5v334v262h164v-262v-475v-260h-164v225q-50 -110 -148.5 -183t-232.5 -73zM535 1188l192 360h158l-271 -360h-79z" />
    <glyph glyph-name="ucircumflex" unicode="&#xfb;" horiz-adv-x="1155" 
d="M459 -31q-320 0 -320 383v383v262h166v-262v-360q0 -277 217 -277q127 0 208.5 84.5t109.5 218.5v334v262h164v-262v-475v-260h-164v225q-50 -110 -148.5 -183t-232.5 -73zM262 1188l260 346h99l262 -346h-138l-174 239l-172 -239h-137z" />
    <glyph glyph-name="udieresis" unicode="&#xfc;" horiz-adv-x="1155" 
d="M459 -31q-320 0 -320 383v383v262h166v-262v-360q0 -277 217 -277q127 0 208.5 84.5t109.5 218.5v334v262h164v-262v-475v-260h-164v225q-50 -110 -148.5 -183t-232.5 -73zM332 1260v200h160v-200h-160zM651 1260v200h160v-200h-160z" />
    <glyph glyph-name="yacute" unicode="&#xfd;" horiz-adv-x="991" 
d="M127 -498q-79 0 -125 27v127q41 -23 117 -23q104 0 180.5 80t159.5 287h-41l-297 780q-16 39 -44 113t-40 104h170q12 -35 40.5 -116t35.5 -101l223 -637l221 637q12 36 38 111.5t36 105.5h166q-15 -36 -47.5 -122t-36.5 -95l-295 -774q-73 -192 -145.5 -303.5
t-146.5 -156t-169 -44.5zM457 1188l192 360h158l-270 -360h-80z" />
    <glyph glyph-name="thorn" unicode="&#xfe;" horiz-adv-x="1189" 
d="M152 -492v232v1597v254v6h165v-260v-561q53 116 150.5 184t228.5 68q128 0 223 -70t142 -186.5t47 -263.5q0 -230 -114.5 -378t-315.5 -148q-114 0 -208.5 48t-152.5 132v-422v-232h-165zM317 299q49 -94 130 -149.5t180 -55.5q148 0 229.5 113t81.5 299q0 113 -30.5 202
t-99.5 145t-169 56q-141 0 -225 -107.5t-97 -271.5v-231z" />
    <glyph glyph-name="ydieresis" unicode="&#xff;" horiz-adv-x="991" 
d="M127 -498q-79 0 -125 27v127q41 -23 117 -23q104 0 180.5 80t159.5 287h-41l-297 780q-16 39 -44 113t-40 104h170q12 -35 40.5 -116t35.5 -101l223 -637l221 637q12 36 38 111.5t36 105.5h166q-15 -36 -47.5 -122t-36.5 -95l-295 -774q-73 -192 -145.5 -303.5
t-146.5 -156t-169 -44.5zM254 1260v200h160v-200h-160zM573 1260v200h160v-200h-160z" />
    <glyph glyph-name="Amacron" unicode="&#x100;" horiz-adv-x="1345" 
d="M18 0q13 35 41.5 109.5t40.5 109.5l451 1213l43 118h160l493 -1339q46 -120 78 -211h-192q-13 36 -38 110.5t-34 100.5l-82 233h-621l-82 -231l-73 -213h-185zM334 1774v104h684v-104h-684zM406 575h528l-264 748z" />
    <glyph glyph-name="amacron" unicode="&#x101;" horiz-adv-x="1107" 
d="M381 -27q-138 0 -221.5 68.5t-83.5 196.5q0 68 24 117.5t80 87t121 63.5t174 59q46 13 65 19t55 18t51.5 19.5t40 20t34.5 24t22.5 27t16.5 33.5t4 40q0 71 -53 108t-154 37q-133 0 -213.5 -65t-83.5 -184h-154q14 170 136.5 270t322.5 100q166 0 263.5 -75t97.5 -234
v-440q0 -102 28 -142.5t80 -40.5q42 0 66 21v-103q-46 -32 -123 -32q-92 0 -150.5 60.5t-62.5 182.5q-49 -113 -145.5 -184.5t-237.5 -71.5zM236 244q0 -78 49.5 -115t124.5 -37q153 0 253.5 120.5t100.5 299.5v84q-10 -22 -28.5 -40t-37.5 -30.5t-55 -27t-59 -22t-72 -23.5
q-157 -49 -216.5 -89.5t-59.5 -119.5zM238 1241v98h639v-98h-639z" />
    <glyph glyph-name="Abreve" unicode="&#x102;" horiz-adv-x="1345" 
d="M18 0q13 35 41.5 109.5t40.5 109.5l451 1213l43 118h160l493 -1339q46 -120 78 -211h-192q-13 36 -38 110.5t-34 100.5l-82 233h-621l-82 -231l-73 -213h-185zM358 1974h119q0 -91 51 -138.5t148 -47.5t147.5 47t50.5 139h117q0 -143 -80.5 -220t-234.5 -77
q-153 0 -235.5 77t-82.5 220zM406 575h528l-264 748z" />
    <glyph glyph-name="abreve" unicode="&#x103;" horiz-adv-x="1107" 
d="M381 -27q-138 0 -221.5 68.5t-83.5 196.5q0 68 24 117.5t80 87t121 63.5t174 59q46 13 65 19t55 18t51.5 19.5t40 20t34.5 24t22.5 27t16.5 33.5t4 40q0 71 -53 108t-154 37q-133 0 -213.5 -65t-83.5 -184h-154q14 170 136.5 270t322.5 100q166 0 263.5 -75t97.5 -234
v-440q0 -102 28 -142.5t80 -40.5q42 0 66 21v-103q-46 -32 -123 -32q-92 0 -150.5 60.5t-62.5 182.5q-49 -113 -145.5 -184.5t-237.5 -71.5zM236 244q0 -78 49.5 -115t124.5 -37q153 0 253.5 120.5t100.5 299.5v84q-10 -22 -28.5 -40t-37.5 -30.5t-55 -27t-59 -22t-72 -23.5
q-157 -49 -216.5 -89.5t-59.5 -119.5zM266 1509h113q0 -227 178 -227t178 227h111q0 -152 -74.5 -236.5t-214.5 -84.5q-141 0 -216 85t-75 236z" />
    <glyph glyph-name="Aogonek" unicode="&#x104;" horiz-adv-x="1345" 
d="M18 0q13 35 41.5 109.5t40.5 109.5l451 1213l43 118h160l493 -1339q46 -120 78 -211h-47q-41 -31 -67.5 -55.5t-57 -60.5t-46 -77.5t-15.5 -87.5q0 -53 28 -78.5t72 -25.5q75 0 125 63v-90q-56 -69 -158 -69q-77 0 -131.5 46t-54.5 136q0 164 196 299h-36
q-13 36 -38 110.5t-34 100.5l-82 233h-621l-82 -231l-73 -213h-185zM406 575h528l-264 748z" />
    <glyph glyph-name="aogonek" unicode="&#x105;" horiz-adv-x="1107" 
d="M381 -27q-138 0 -221.5 68.5t-83.5 196.5q0 68 24 117.5t80 87t121 63.5t174 59q46 13 65 19t55 18t51.5 19.5t40 20t34.5 24t22.5 27t16.5 33.5t4 40q0 71 -53 108t-154 37q-133 0 -213.5 -65t-83.5 -184h-154q14 170 136.5 270t322.5 100q166 0 263.5 -75t97.5 -234
v-440q0 -102 28 -142.5t80 -40.5q42 0 66 21v-103q-10 -5 -13 -8q-38 -30 -64 -54t-54.5 -58.5t-43 -74.5t-14.5 -85q0 -53 28.5 -79t72.5 -26q74 0 125 64v-90q-57 -70 -158 -70q-77 0 -131.5 46t-54.5 136q0 151 153 269q-79 10 -128.5 69.5t-53.5 171.5
q-49 -113 -145.5 -184.5t-237.5 -71.5zM236 244q0 -78 49.5 -115t124.5 -37q153 0 253.5 120.5t100.5 299.5v84q-10 -22 -28.5 -40t-37.5 -30.5t-55 -27t-59 -22t-72 -23.5q-157 -49 -216.5 -89.5t-59.5 -119.5z" />
    <glyph glyph-name="Cacute" unicode="&#x106;" horiz-adv-x="1718" 
d="M879 -33q-184 0 -335 64t-250.5 174.5t-153.5 257.5t-54 315q0 235 99 416.5t281.5 282t420.5 100.5q185 0 337.5 -60.5t264.5 -191t156 -319.5h-187q-56 207 -207 316.5t-366 109.5q-139 0 -255 -49.5t-194.5 -136.5t-122 -206.5t-43.5 -257.5q0 -132 40 -251.5
t114.5 -213t192.5 -149t264 -55.5q238 0 395 139.5t201 370.5h184q-55 -311 -262.5 -483.5t-519.5 -172.5zM825 1688l197 286h172l-256 -286h-113z" />
    <glyph glyph-name="cacute" unicode="&#x107;" horiz-adv-x="1132" 
d="M580 -35q-220 0 -359 144.5t-139 390.5q0 245 140 387.5t366 142.5q195 0 323 -107t154 -268h-156q-10 47 -33 88.5t-60.5 78.5t-96 59t-131.5 22q-166 0 -254 -112.5t-88 -290.5q0 -176 88.5 -292t253.5 -116q78 0 139 25.5t99 69.5t59.5 95t29.5 111h156
q-10 -86 -46 -162t-95.5 -136t-149.5 -95t-200 -35zM545 1188l192 360h158l-270 -360h-80z" />
    <glyph glyph-name="Ccircumflex" unicode="&#x108;" horiz-adv-x="1718" 
d="M879 -33q-184 0 -335 64t-250.5 174.5t-153.5 257.5t-54 315q0 235 99 416.5t281.5 282t420.5 100.5q185 0 337.5 -60.5t264.5 -191t156 -319.5h-187q-56 207 -207 316.5t-366 109.5q-139 0 -255 -49.5t-194.5 -136.5t-122 -206.5t-43.5 -257.5q0 -132 40 -251.5
t114.5 -213t192.5 -149t264 -55.5q238 0 395 139.5t201 370.5h184q-55 -311 -262.5 -483.5t-519.5 -172.5zM559 1688l275 286h102l276 -286h-155l-172 186l-172 -186h-154z" />
    <glyph glyph-name="ccircumflex" unicode="&#x109;" horiz-adv-x="1132" 
d="M580 -35q-220 0 -359 144.5t-139 390.5q0 245 140 387.5t366 142.5q195 0 323 -107t154 -268h-156q-10 47 -33 88.5t-60.5 78.5t-96 59t-131.5 22q-166 0 -254 -112.5t-88 -290.5q0 -176 88.5 -292t253.5 -116q78 0 139 25.5t99 69.5t59.5 95t29.5 111h156
q-10 -86 -46 -162t-95.5 -136t-149.5 -95t-200 -35zM272 1188l260 346h99l262 -346h-137l-174 239l-172 -239h-138z" />
    <glyph glyph-name="Cdotaccent" unicode="&#x10a;" horiz-adv-x="1718" 
d="M879 -33q-184 0 -335 64t-250.5 174.5t-153.5 257.5t-54 315q0 235 99 416.5t281.5 282t420.5 100.5q185 0 337.5 -60.5t264.5 -191t156 -319.5h-187q-56 207 -207 316.5t-366 109.5q-139 0 -255 -49.5t-194.5 -136.5t-122 -206.5t-43.5 -257.5q0 -132 40 -251.5
t114.5 -213t192.5 -149t264 -55.5q238 0 395 139.5t201 370.5h184q-55 -311 -262.5 -483.5t-519.5 -172.5zM807 1729v202h151v-202h-151z" />
    <glyph glyph-name="cdotaccent" unicode="&#x10b;" horiz-adv-x="1132" 
d="M580 -35q-220 0 -359 144.5t-139 390.5q0 245 140 387.5t366 142.5q195 0 323 -107t154 -268h-156q-10 47 -33 88.5t-60.5 78.5t-96 59t-131.5 22q-166 0 -254 -112.5t-88 -290.5q0 -176 88.5 -292t253.5 -116q78 0 139 25.5t99 69.5t59.5 95t29.5 111h156
q-10 -86 -46 -162t-95.5 -136t-149.5 -95t-200 -35zM500 1257v203h164v-203h-164z" />
    <glyph glyph-name="Ccaron" unicode="&#x10c;" horiz-adv-x="1718" 
d="M879 -33q-184 0 -335 64t-250.5 174.5t-153.5 257.5t-54 315q0 235 99 416.5t281.5 282t420.5 100.5q185 0 337.5 -60.5t264.5 -191t156 -319.5h-187q-56 207 -207 316.5t-366 109.5q-139 0 -255 -49.5t-194.5 -136.5t-122 -206.5t-43.5 -257.5q0 -132 40 -251.5
t114.5 -213t192.5 -149t264 -55.5q238 0 395 139.5t201 370.5h184q-55 -311 -262.5 -483.5t-519.5 -172.5zM545 1974h155l187 -190l184 190h158l-293 -286h-100z" />
    <glyph glyph-name="ccaron" unicode="&#x10d;" horiz-adv-x="1132" 
d="M580 -35q-220 0 -359 144.5t-139 390.5q0 245 140 387.5t366 142.5q195 0 323 -107t154 -268h-156q-10 47 -33 88.5t-60.5 78.5t-96 59t-131.5 22q-166 0 -254 -112.5t-88 -290.5q0 -176 88.5 -292t253.5 -116q78 0 139 25.5t99 69.5t59.5 95t29.5 111h156
q-10 -86 -46 -162t-95.5 -136t-149.5 -95t-200 -35zM270 1534h138l174 -240l172 240h137l-260 -346h-101z" />
    <glyph glyph-name="Dcaron" unicode="&#x10e;" horiz-adv-x="1638" 
d="M184 0v260v1030v260h471q266 0 471 -97t316.5 -273t111.5 -404q0 -230 -111.5 -406.5t-315 -273t-470.5 -96.5h-473zM365 133h286q325 0 522 177t197 464q0 289 -196 466t-523 177h-286v-1284zM397 1974h156l186 -190l185 190h157l-293 -286h-100z" />
    <glyph glyph-name="dcaron" unicode="&#x10f;" horiz-adv-x="1191" 
d="M874 0v236q-52 -118 -146.5 -186t-227.5 -68t-229 70.5t-142.5 186.5t-46.5 263q0 111 29 206.5t83 167t138.5 112t189.5 40.5q115 0 204.5 -49t147.5 -131v489v260h166v-260v-1077v-260h-166zM252 500q0 -82 17.5 -152.5t52.5 -127t94.5 -88.5t136.5 -32
q104 0 178.5 61.5t108.5 156t34 208.5v183q-50 91 -130.5 147.5t-180.5 56.5q-149 0 -230 -112.5t-81 -300.5zM1149 1116l80 481h147l-137 -481h-90z" />
    <glyph glyph-name="Dcroat" unicode="&#x110;" horiz-adv-x="1638" 
d="M184 0v260v485h-182v115h182v430v260h471q266 0 471 -97t316.5 -273t111.5 -404q0 -230 -111.5 -406.5t-315 -273t-470.5 -96.5h-473zM365 133h286q325 0 522 177t197 464q0 289 -196 466t-523 177h-286v-557h499v-115h-499v-612z" />
    <glyph glyph-name="dcroat" unicode="&#x111;" horiz-adv-x="1191" 
d="M874 0v236q-52 -118 -146.5 -186t-227.5 -68t-229 70.5t-142.5 186.5t-46.5 263q0 111 29 206.5t83 167t138.5 112t189.5 40.5q115 0 204.5 -49t147.5 -131v369h-452v90h452v30v260h166v-260v-30h207v-90h-207v-957v-260h-166zM252 500q0 -82 17.5 -152.5t52.5 -127
t94.5 -88.5t136.5 -32q104 0 178.5 61.5t108.5 156t34 208.5v183q-50 91 -130.5 147.5t-180.5 56.5q-149 0 -230 -112.5t-81 -300.5z" />
    <glyph glyph-name="Emacron" unicode="&#x112;" horiz-adv-x="1132" 
d="M184 0v260v1030v260h875v-133q-180 2 -418 2h-276v-545h178q198 0 413 5v-134q-258 3 -413 3h-178v-617h286q250 0 422 4v-135h-889zM266 1774v104h684v-104h-684z" />
    <glyph glyph-name="emacron" unicode="&#x113;" horiz-adv-x="1138" 
d="M580 -35q-221 0 -359.5 143t-138.5 390q0 240 139.5 386t356.5 146q215 0 347 -134t132 -357h-819q-2 -12 -2 -37q0 -180 92.5 -295t255.5 -115q136 0 216.5 77.5t100.5 184.5h158q-14 -75 -49.5 -142.5t-93 -124t-144.5 -89.5t-192 -33zM254 651h639
q-23 113 -103.5 184.5t-207.5 71.5q-124 0 -209 -68.5t-119 -187.5zM256 1241v98h639v-98h-639z" />
    <glyph glyph-name="Edotaccent" unicode="&#x116;" horiz-adv-x="1132" 
d="M184 0v260v1030v260h875v-133q-180 2 -418 2h-276v-545h178q198 0 413 5v-134q-258 3 -413 3h-178v-617h286q250 0 422 4v-135h-889zM530 1729v202h152v-202h-152z" />
    <glyph glyph-name="edotaccent" unicode="&#x117;" horiz-adv-x="1138" 
d="M580 -35q-221 0 -359.5 143t-138.5 390q0 240 139.5 386t356.5 146q215 0 347 -134t132 -357h-819q-2 -12 -2 -37q0 -180 92.5 -295t255.5 -115q136 0 216.5 77.5t100.5 184.5h158q-14 -75 -49.5 -142.5t-93 -124t-144.5 -89.5t-192 -33zM254 651h639
q-23 113 -103.5 184.5t-207.5 71.5q-124 0 -209 -68.5t-119 -187.5zM494 1257v203h163v-203h-163z" />
    <glyph glyph-name="Eogonek" unicode="&#x118;" horiz-adv-x="1132" 
d="M184 0v260v1030v260h875v-133q-180 2 -418 2h-276v-545h178q198 0 413 5v-134q-258 3 -413 3h-178v-617h286q250 0 422 4v-135q-41 -31 -67.5 -55.5t-57 -60.5t-46 -77.5t-15.5 -87.5q0 -53 28 -78.5t72 -25.5q75 0 125 63v-90q-56 -69 -158 -69q-77 0 -131.5 46
t-54.5 136q0 164 197 299h-781z" />
    <glyph glyph-name="eogonek" unicode="&#x119;" horiz-adv-x="1138" 
d="M580 -35q-221 0 -359.5 143t-138.5 390q0 240 139.5 386t356.5 146q215 0 347 -134t132 -357h-819q-2 -12 -2 -37q0 -180 92.5 -295t255.5 -115q136 0 216.5 77.5t100.5 184.5h158q-20 -111 -88 -204.5t-178 -143.5q-74 -57 -118 -118.5t-44 -141.5q0 -53 28 -78.5
t72 -25.5q75 0 125 63v-90q-57 -70 -158 -70q-77 0 -131.5 46.5t-54.5 136.5q0 134 121 239q-18 -2 -53 -2zM254 651h639q-23 113 -103.5 184.5t-207.5 71.5q-124 0 -209 -68.5t-119 -187.5z" />
    <glyph glyph-name="Ecaron" unicode="&#x11a;" horiz-adv-x="1132" 
d="M184 0v260v1030v260h875v-133q-180 2 -418 2h-276v-545h178q198 0 413 5v-134q-258 3 -413 3h-178v-617h286q250 0 422 4v-135h-889zM266 1974h156l186 -190l185 190h157l-293 -286h-100z" />
    <glyph glyph-name="ecaron" unicode="&#x11b;" horiz-adv-x="1138" 
d="M580 -35q-221 0 -359.5 143t-138.5 390q0 240 139.5 386t356.5 146q215 0 347 -134t132 -357h-819q-2 -12 -2 -37q0 -180 92.5 -295t255.5 -115q136 0 216.5 77.5t100.5 184.5h158q-14 -75 -49.5 -142.5t-93 -124t-144.5 -89.5t-192 -33zM254 651h639
q-23 113 -103.5 184.5t-207.5 71.5q-124 0 -209 -68.5t-119 -187.5zM266 1534h137l175 -240l172 240h137l-260 -346h-101z" />
    <glyph glyph-name="Gcircumflex" unicode="&#x11c;" horiz-adv-x="1785" 
d="M856 -31q-180 0 -327.5 63.5t-243.5 173t-147.5 254.5t-51.5 310q0 180 59 330t165.5 254.5t258 162.5t332.5 58q280 0 475 -132t252 -362h-178q-51 170 -199 260.5t-354 90.5q-192 0 -336.5 -86t-219.5 -234.5t-75 -337.5q0 -135 38.5 -253t112.5 -210t191.5 -145
t265.5 -53q269 0 424 147.5t185 401.5h-723l-2 129l897 2v-793h-129l-10 381q-74 -194 -245.5 -303t-414.5 -109zM575 1688l275 286h102l277 -286h-156l-172 186l-172 -186h-154z" />
    <glyph glyph-name="gcircumflex" unicode="&#x11d;" horiz-adv-x="1216" 
d="M489 -520q-108 0 -188.5 21.5t-131 73t-50.5 128.5q0 146 192 217q-104 3 -168.5 53t-64.5 136q0 141 205 239q-119 109 -119 285q0 180 122.5 285.5t315.5 105.5q189 0 307 -100q19 105 99 168t190 63v-141q-95 0 -155.5 -38.5t-73.5 -113.5q71 -99 71 -231
q0 -181 -120.5 -286t-313.5 -105q-140 0 -248 57q-139 -66 -139 -158q0 -48 38 -72.5t128 -23.5q82 1 284.5 39.5t291.5 38.5q114 0 177.5 -50t63.5 -147q0 -96 -63.5 -181t-165 -141.5t-228.5 -89t-256 -32.5zM258 -264q0 -131 240 -131q126 0 252 36.5t212.5 105
t86.5 147.5q0 52 -34 74t-114 22q-159 0 -405 -70q-121 -37 -179.5 -80t-58.5 -104zM289 1188l260 346h98l262 -346h-137l-174 239l-172 -239h-137zM322 633q0 -122 75.5 -195t204.5 -73t205 73t76 195q0 119 -77 192.5t-204 73.5q-128 0 -204 -73.5t-76 -192.5z" />
    <glyph glyph-name="Gbreve" unicode="&#x11e;" horiz-adv-x="1785" 
d="M856 -31q-180 0 -327.5 63.5t-243.5 173t-147.5 254.5t-51.5 310q0 180 59 330t165.5 254.5t258 162.5t332.5 58q280 0 475 -132t252 -362h-178q-51 170 -199 260.5t-354 90.5q-192 0 -336.5 -86t-219.5 -234.5t-75 -337.5q0 -135 38.5 -253t112.5 -210t191.5 -145
t265.5 -53q269 0 424 147.5t185 401.5h-723l-2 129l897 2v-793h-129l-10 381q-74 -194 -245.5 -303t-414.5 -109zM586 1974h119q0 -91 50.5 -138.5t147.5 -47.5t148 47t51 139h117q0 -143 -81 -220t-235 -77q-153 0 -235 77t-82 220z" />
    <glyph glyph-name="gbreve" unicode="&#x11f;" horiz-adv-x="1216" 
d="M489 -520q-108 0 -188.5 21.5t-131 73t-50.5 128.5q0 146 192 217q-104 3 -168.5 53t-64.5 136q0 141 205 239q-119 109 -119 285q0 180 122.5 285.5t315.5 105.5q189 0 307 -100q19 105 99 168t190 63v-141q-95 0 -155.5 -38.5t-73.5 -113.5q71 -99 71 -231
q0 -181 -120.5 -286t-313.5 -105q-140 0 -248 57q-139 -66 -139 -158q0 -48 38 -72.5t128 -23.5q82 1 284.5 39.5t291.5 38.5q114 0 177.5 -50t63.5 -147q0 -96 -63.5 -181t-165 -141.5t-228.5 -89t-256 -32.5zM258 -264q0 -131 240 -131q126 0 252 36.5t212.5 105
t86.5 147.5q0 52 -34 74t-114 22q-159 0 -405 -70q-121 -37 -179.5 -80t-58.5 -104zM307 1509h113q0 -227 178 -227t178 227h111q0 -152 -74.5 -236.5t-214.5 -84.5q-141 0 -216 85t-75 236zM322 633q0 -122 75.5 -195t204.5 -73t205 73t76 195q0 119 -77 192.5t-204 73.5
q-128 0 -204 -73.5t-76 -192.5z" />
    <glyph glyph-name="Gdotaccent" unicode="&#x120;" horiz-adv-x="1785" 
d="M856 -31q-180 0 -327.5 63.5t-243.5 173t-147.5 254.5t-51.5 310q0 180 59 330t165.5 254.5t258 162.5t332.5 58q280 0 475 -132t252 -362h-178q-51 170 -199 260.5t-354 90.5q-192 0 -336.5 -86t-219.5 -234.5t-75 -337.5q0 -135 38.5 -253t112.5 -210t191.5 -145
t265.5 -53q269 0 424 147.5t185 401.5h-723l-2 129l897 2v-793h-129l-10 381q-74 -194 -245.5 -303t-414.5 -109zM823 1729v202h152v-202h-152z" />
    <glyph glyph-name="gdotaccent" unicode="&#x121;" horiz-adv-x="1216" 
d="M489 -520q-108 0 -188.5 21.5t-131 73t-50.5 128.5q0 146 192 217q-104 3 -168.5 53t-64.5 136q0 141 205 239q-119 109 -119 285q0 180 122.5 285.5t315.5 105.5q189 0 307 -100q19 105 99 168t190 63v-141q-95 0 -155.5 -38.5t-73.5 -113.5q71 -99 71 -231
q0 -181 -120.5 -286t-313.5 -105q-140 0 -248 57q-139 -66 -139 -158q0 -48 38 -72.5t128 -23.5q82 1 284.5 39.5t291.5 38.5q114 0 177.5 -50t63.5 -147q0 -96 -63.5 -181t-165 -141.5t-228.5 -89t-256 -32.5zM258 -264q0 -131 240 -131q126 0 252 36.5t212.5 105
t86.5 147.5q0 52 -34 74t-114 22q-159 0 -405 -70q-121 -37 -179.5 -80t-58.5 -104zM322 633q0 -122 75.5 -195t204.5 -73t205 73t76 195q0 119 -77 192.5t-204 73.5q-128 0 -204 -73.5t-76 -192.5zM516 1257v203h164v-203h-164z" />
    <glyph glyph-name="uni0122" unicode="&#x122;" horiz-adv-x="1785" 
d="M856 -31q-180 0 -327.5 63.5t-243.5 173t-147.5 254.5t-51.5 310q0 180 59 330t165.5 254.5t258 162.5t332.5 58q280 0 475 -132t252 -362h-178q-51 170 -199 260.5t-354 90.5q-192 0 -336.5 -86t-219.5 -234.5t-75 -337.5q0 -135 38.5 -253t112.5 -210t191.5 -145
t265.5 -53q269 0 424 147.5t185 401.5h-723l-2 129l897 2v-793h-129l-10 381q-74 -194 -245.5 -303t-414.5 -109zM641 -477l135 354h150l-221 -385z" />
    <glyph glyph-name="uni0123" unicode="&#x123;" horiz-adv-x="1216" 
d="M489 -520q-108 0 -188.5 21.5t-131 73t-50.5 128.5q0 146 192 217q-104 3 -168.5 53t-64.5 136q0 141 205 239q-119 109 -119 285q0 180 122.5 285.5t315.5 105.5q189 0 307 -100q19 105 99 168t190 63v-141q-95 0 -155.5 -38.5t-73.5 -113.5q71 -99 71 -231
q0 -181 -120.5 -286t-313.5 -105q-140 0 -248 57q-139 -66 -139 -158q0 -48 38 -72.5t128 -23.5q82 1 284.5 39.5t291.5 38.5q114 0 177.5 -50t63.5 -147q0 -96 -63.5 -181t-165 -141.5t-228.5 -89t-256 -32.5zM258 -264q0 -131 240 -131q126 0 252 36.5t212.5 105
t86.5 147.5q0 52 -34 74t-114 22q-159 0 -405 -70q-121 -37 -179.5 -80t-58.5 -104zM322 633q0 -122 75.5 -195t204.5 -73t205 73t76 195q0 119 -77 192.5t-204 73.5q-128 0 -204 -73.5t-76 -192.5zM541 1190l174 366h69l-96 -366h-147z" />
    <glyph glyph-name="Hcircumflex" unicode="&#x124;" horiz-adv-x="1515" 
d="M184 0v260v1030v260h181v-260v-424h786v424v260h180v-260v-1030v-260h-180v260v471h-786v-471v-260h-181zM432 1688l275 286h102l276 -286h-155l-172 186l-172 -186h-154z" />
    <glyph glyph-name="hcircumflex" unicode="&#x125;" horiz-adv-x="1159" 
d="M152 0v260v1077v260h165v-260v-549q50 106 147.5 174t237.5 68q318 0 318 -379v-391v-260h-164v260v365q0 141 -56 208.5t-169 67.5q-127 0 -209.5 -82.5t-104.5 -204.5v-354v-260h-165zM96 1735l275 286h102l277 -286h-156l-172 186l-172 -186h-154z" />
    <glyph glyph-name="Hbar" unicode="&#x126;" horiz-adv-x="1515" 
d="M0 1194v117h184v239h181v-239h786v239h180v-239h187v-117h-187v-934v-260h-180v260v471h-786v-471v-260h-181v260v934h-184zM365 866h786v328h-786v-328z" />
    <glyph glyph-name="hbar" unicode="&#x127;" horiz-adv-x="1159" 
d="M152 0v260v957h-230v90h230v30v260h165v-260v-30h431v-90h-431v-429q50 106 147.5 174t237.5 68q318 0 318 -379v-391v-260h-164v260v365q0 141 -56 208.5t-169 67.5q-127 0 -209.5 -82.5t-104.5 -204.5v-354v-260h-165z" />
    <glyph glyph-name="Itilde" unicode="&#x128;" horiz-adv-x="548" 
d="M184 0v260v1030v260h181v-260v-1030v-260h-181zM-39 1694q0 282 176 282q46 0 80 -18.5t54.5 -44.5t38.5 -52t43.5 -44.5t58.5 -18.5q52 0 70 40t18 136h90q-2 -147 -43 -215.5t-131 -68.5q-46 0 -81 18.5t-56 45t-40 53t-44 45t-56 18.5q-50 0 -69 -44t-19 -132h-90z
" />
    <glyph glyph-name="itilde" unicode="&#x129;" horiz-adv-x="468" 
d="M152 0v260v475v262h165v-737v-260h-165zM-80 1188q-8 146 39 235.5t137 89.5q38 0 69 -16t49 -39.5t37 -51t34.5 -51t39.5 -39.5t54 -16q96 0 84 213h82q12 -327 -168 -327q-48 0 -84 22t-58 53t-41 62.5t-44.5 53.5t-57.5 22q-51 0 -73.5 -59.5t-16.5 -151.5h-82z" />
    <glyph glyph-name="Imacron" unicode="&#x12a;" horiz-adv-x="548" 
d="M184 0v260v1030v260h181v-260v-1030v-260h-181zM-66 1774v104h684v-104h-684z" />
    <glyph glyph-name="imacron" unicode="&#x12b;" horiz-adv-x="468" 
d="M152 0v260v475v262h165v-737v-260h-165zM-86 1241v98h639v-98h-639z" />
    <glyph glyph-name="Iogonek" unicode="&#x12e;" horiz-adv-x="548" 
d="M184 0v260v1030v260h181v-260v-1030v-260h-21q-41 -31 -67.5 -55.5t-57 -60.5t-46 -77.5t-15.5 -87.5q0 -53 28 -78.5t72 -25.5q75 0 125 63v-90q-56 -69 -158 -69q-77 0 -131.5 46t-54.5 136q0 164 197 299h-52z" />
    <glyph glyph-name="iogonek" unicode="&#x12f;" horiz-adv-x="468" 
d="M152 0v260v475v262h165v-737v-260q-41 -31 -67.5 -55.5t-57 -60.5t-46 -77.5t-15.5 -87.5q0 -53 28 -78.5t72 -25.5q75 0 125 63v-90q-56 -69 -157 -69q-77 0 -132 46t-55 136q0 164 197 299h-57zM143 1257v218h185v-218h-185z" />
    <glyph glyph-name="Idotaccent" unicode="&#x130;" horiz-adv-x="548" 
d="M184 0v260v1030v260h181v-260v-1030v-260h-181zM180 1729v202h189v-202h-189z" />
    <glyph glyph-name="dotlessi" unicode="&#x131;" horiz-adv-x="468" 
d="M152 0v260v475v262h165v-737v-260h-165z" />
    <glyph glyph-name="IJ" unicode="&#x132;" horiz-adv-x="1169" 
d="M184 0v260v1030v260h181v-260v-1030v-260h-181zM528 -283v142q153 15 215 109.5t62 310.5v1011v260h180v-260v-1011q0 -278 -112.5 -412.5t-344.5 -149.5z" />
    <glyph glyph-name="ij" unicode="&#x133;" horiz-adv-x="935" 
d="M152 0v260v475v262h165v-737v-260h-165zM143 1257v218h185v-218h-185zM430 -498v111q101 0 144.5 61.5t43.5 190.5v870v262h166v-1112q0 -185 -80.5 -284t-273.5 -99zM610 1257v218h185v-218h-185z" />
    <glyph glyph-name="Jcircumflex" unicode="&#x134;" horiz-adv-x="620" 
d="M-20 -141q153 15 214.5 109.5t61.5 310.5v1011v260h180v-260v-1011q0 -278 -112 -412.5t-344 -149.5v142zM12 1688l275 286h102l277 -286h-156l-172 186l-172 -186h-154z" />
    <glyph glyph-name="jcircumflex" unicode="&#x135;" horiz-adv-x="501" 
d="M-4 -387q101 0 144.5 61.5t43.5 190.5v870v262h166v-1112q0 -185 -80.5 -284t-273.5 -99v111zM-43 1188l260 346h98l263 -346h-138l-174 239l-172 -239h-137z" />
    <glyph glyph-name="uni0136" unicode="&#x136;" horiz-adv-x="1300" 
d="M184 0v260v1030v260h181v-260v-489l593 598q74 76 148 151h178v-22q-20 -19 -56 -55.5t-54 -53.5l-543 -538l682 -869v-12h-195l-600 770l-153 -152v-358v-260h-181zM479 -477l135 354h150l-221 -385z" />
    <glyph glyph-name="uni0137" unicode="&#x137;" horiz-adv-x="987" 
d="M811 0l-494 522v-262v-260h-165v260v1077v254v6h165v-260v-727l318 271q31 26 131 116h174v-14l-135 -115l-356 -295l550 -561v-12h-188zM336 -477l135 354h150l-222 -385z" />
    <glyph glyph-name="Lacute" unicode="&#x139;" horiz-adv-x="1122" 
d="M184 0v260v1030v260h181v-260v-1153h272q273 0 453 4v-141h-906zM211 1688l197 286h172l-256 -286h-113z" />
    <glyph glyph-name="lacute" unicode="&#x13a;" horiz-adv-x="468" 
d="M152 0v260v1077v260h165v-260v-1077v-260h-165zM176 1735l197 286h172l-256 -286h-113z" />
    <glyph glyph-name="uni013B" unicode="&#x13b;" horiz-adv-x="1122" 
d="M184 0v260v1030v260h181v-260v-1153h272q273 0 453 4v-141h-906zM416 -477l135 354h149l-221 -385z" />
    <glyph glyph-name="uni013C" unicode="&#x13c;" horiz-adv-x="468" 
d="M152 0v260v1077v260h165v-260v-1077v-260h-165zM14 -477l136 354h149l-221 -385z" />
    <glyph glyph-name="Lcaron" unicode="&#x13d;" horiz-adv-x="1122" 
d="M184 0v260v1030v260h181v-260v-1153h272q273 0 453 4v-141h-906zM635 1069l80 481h147l-137 -481h-90z" />
    <glyph glyph-name="lcaron" unicode="&#x13e;" horiz-adv-x="468" 
d="M152 0v260v1077v260h165v-260v-1077v-260h-165zM426 1116l80 481h147l-137 -481h-90z" />
    <glyph glyph-name="Ldot" unicode="&#x13f;" horiz-adv-x="1122" 
d="M184 0v260v1030v260h181v-260v-1153h272q273 0 453 4v-141h-906zM741 686v203h152v-203h-152z" />
    <glyph glyph-name="ldot" unicode="&#x140;" horiz-adv-x="694" 
d="M152 0v260v1077v260h165v-260v-1077v-260h-165zM494 717v217h180v-217h-180z" />
    <glyph glyph-name="Lslash" unicode="&#x141;" horiz-adv-x="1122" 
d="M184 0v260v373l-231 -131v110l231 131v547v260h181v-260v-444l409 233v-112l-409 -232v-598h272q273 0 453 4v-141h-906z" />
    <glyph glyph-name="lslash" unicode="&#x142;" horiz-adv-x="468" 
d="M152 0v260v467l-179 -96v94l179 96v516v260h165v-260v-428l195 105v-92l-195 -105v-557v-260h-165z" />
    <glyph glyph-name="Nacute" unicode="&#x143;" horiz-adv-x="1513" 
d="M1139 0l-779 1288v-1028v-260h-176v260v1030v260h191l776 -1282v1022v260h178v-260v-1290h-190zM694 1688l197 286h172l-256 -286h-113z" />
    <glyph glyph-name="nacute" unicode="&#x144;" horiz-adv-x="1159" 
d="M150 0v260v477v260h165v-209q50 106 147.5 174t237.5 68q318 0 318 -379v-391v-260h-164v260v365q0 141 -56 208.5t-169 67.5q-127 0 -209.5 -82.5t-104.5 -204.5v-354v-260h-165zM567 1188l193 360h158l-271 -360h-80z" />
    <glyph glyph-name="uni0145" unicode="&#x145;" horiz-adv-x="1513" 
d="M1139 0l-779 1288v-1028v-260h-176v260v1030v260h191l776 -1282v1022v260h178v-260v-1290h-190zM524 -477l135 354h150l-221 -385z" />
    <glyph glyph-name="uni0146" unicode="&#x146;" horiz-adv-x="1159" 
d="M150 0v260v477v260h165v-209q50 106 147.5 174t237.5 68q318 0 318 -379v-391v-260h-164v260v365q0 141 -56 208.5t-169 67.5q-127 0 -209.5 -82.5t-104.5 -204.5v-354v-260h-165zM365 -477l135 354h149l-221 -385z" />
    <glyph glyph-name="Ncaron" unicode="&#x147;" horiz-adv-x="1513" 
d="M1139 0l-779 1288v-1028v-260h-176v260v1030v260h191l776 -1282v1022v260h178v-260v-1290h-190zM412 1974h155l187 -190l184 190h158l-293 -286h-101z" />
    <glyph glyph-name="ncaron" unicode="&#x148;" horiz-adv-x="1159" 
d="M150 0v260v477v260h165v-209q50 106 147.5 174t237.5 68q318 0 318 -379v-391v-260h-164v260v365q0 141 -56 208.5t-169 67.5q-127 0 -209.5 -82.5t-104.5 -204.5v-354v-260h-165zM293 1534h137l174 -240l172 240h137l-260 -346h-100z" />
    <glyph glyph-name="Eng" unicode="&#x14a;" horiz-adv-x="1495" 
d="M1135 0l-791 1294v-1034v-260h-160v260v1030v260h174l791 -1294v1034v260h162v-260v-1255q0 -228 -121.5 -339.5t-351.5 -113.5v123q168 2 249.5 74t81.5 221h-34z" />
    <glyph glyph-name="eng" unicode="&#x14b;" horiz-adv-x="1159" 
d="M651 -358q113 46 157 114.5t44 188.5v680q0 276 -223 276q-127 0 -204.5 -79t-109.5 -206v-356v-260h-165v260v475v262h165v-225q50 113 148 185.5t237 72.5q151 0 234.5 -92t83.5 -287v-706q0 -154 -85 -248t-247 -152z" />
    <glyph glyph-name="Omacron" unicode="&#x14c;" horiz-adv-x="1792" 
d="M895 -33q-237 0 -421 101.5t-286 285.5t-102 420q0 235 102 417t286 282t421 100q238 0 422.5 -100.5t286.5 -283t102 -419.5q0 -235 -102 -418t-286.5 -284t-422.5 -101zM270 770q0 -193 78 -343t220.5 -233t326.5 -83q281 0 454 184t173 479q0 292 -173 474t-454 182
q-280 0 -452.5 -182.5t-172.5 -477.5zM555 1774v104h684v-104h-684z" />
    <glyph glyph-name="omacron" unicode="&#x14d;" horiz-adv-x="1189" 
d="M596 -33q-238 0 -376 147t-138 386q0 238 138 384t376 146t375 -146t137 -384q0 -239 -137 -386t-375 -147zM244 500q0 -194 96.5 -300t255.5 -106t254.5 106t95.5 300q0 192 -95.5 297.5t-254.5 105.5t-255.5 -105.5t-96.5 -297.5zM274 1241v98h639v-98h-639z" />
    <glyph glyph-name="Ohungarumlaut" unicode="&#x150;" horiz-adv-x="1792" 
d="M895 -33q-237 0 -421 101.5t-286 285.5t-102 420q0 235 102 417t286 282t421 100q238 0 422.5 -100.5t286.5 -283t102 -419.5q0 -235 -102 -418t-286.5 -284t-422.5 -101zM270 770q0 -193 78 -343t220.5 -233t326.5 -83q281 0 454 184t173 479q0 292 -173 474t-454 182
q-280 0 -452.5 -182.5t-172.5 -477.5zM715 1688l194 286h133l-231 -286h-96zM981 1688l213 286h137l-254 -286h-96z" />
    <glyph glyph-name="ohungarumlaut" unicode="&#x151;" horiz-adv-x="1189" 
d="M596 -33q-238 0 -376 147t-138 386q0 238 138 384t376 146t375 -146t137 -384q0 -239 -137 -386t-375 -147zM244 500q0 -194 96.5 -300t255.5 -106t254.5 106t95.5 300q0 192 -95.5 297.5t-254.5 105.5t-255.5 -105.5t-96.5 -297.5zM414 1188l180 360h137l-219 -360h-98z
M680 1188l194 360h136l-234 -360h-96z" />
    <glyph glyph-name="OE" unicode="&#x152;" horiz-adv-x="2082" 
d="M918 0q-245 0 -434 96.5t-293.5 272t-104.5 403.5q0 231 104.5 408t293.5 273.5t434 96.5h1093v-137q-180 6 -418 6h-276v-547h164q204 0 432 5v-134q-182 2 -432 2h-164v-614h287q249 0 421 6v-137h-1107zM270 772q0 -287 179.5 -464t468.5 -177h221v1288h-221
q-293 0 -470.5 -178t-177.5 -469z" />
    <glyph glyph-name="oe" unicode="&#x153;" horiz-adv-x="1918" 
d="M569 -33q-225 0 -356 147t-131 386q0 238 130.5 384t356.5 146q142 0 248.5 -59.5t167.5 -167.5q62 108 165 167.5t230 59.5q204 0 329.5 -134t125.5 -357h-778v-39v-37q9 -166 95.5 -268.5t233.5 -102.5q129 0 207 78t95 184h149q-13 -75 -47 -142.5t-88.5 -124
t-137 -89.5t-182.5 -33q-131 0 -235.5 58.5t-165.5 166.5q-61 -106 -166.5 -164.5t-245.5 -58.5zM236 500q0 -193 91.5 -299.5t241.5 -106.5q151 0 242.5 106t91.5 300q0 192 -91.5 297.5t-242.5 105.5q-150 0 -241.5 -105.5t-91.5 -297.5zM1073 651h606
q-21 113 -97.5 184.5t-197.5 71.5q-118 0 -199 -68.5t-112 -187.5z" />
    <glyph glyph-name="Racute" unicode="&#x154;" horiz-adv-x="1288" 
d="M1073 0l-489 735h-219v-475v-260h-181v260v1030v260h449q265 0 404 -100.5t139 -290.5q0 -172 -114 -279t-312 -126l522 -740v-14h-199zM365 864h223q213 0 312 71.5t99 217.5q0 138 -93 202t-296 64h-245v-555zM561 1688l197 286h172l-256 -286h-113z" />
    <glyph glyph-name="racute" unicode="&#x155;" horiz-adv-x="747" 
d="M150 0v260v475v262h165v-262v-20q12 48 40.5 95t75 92t121.5 73t165 29v-144q-194 0 -297.5 -92.5t-104.5 -267.5v-240v-260h-165zM410 1188l192 360h158l-271 -360h-79z" />
    <glyph glyph-name="uni0156" unicode="&#x156;" horiz-adv-x="1288" 
d="M1073 0l-489 735h-219v-475v-260h-181v260v1030v260h449q265 0 404 -100.5t139 -290.5q0 -172 -114 -279t-312 -126l522 -740v-14h-199zM365 864h223q213 0 312 71.5t99 217.5q0 138 -93 202t-296 64h-245v-555zM485 -477l136 354h149l-221 -385z" />
    <glyph glyph-name="uni0157" unicode="&#x157;" horiz-adv-x="747" 
d="M150 0v260v475v262h165v-262v-20q12 48 40.5 95t75 92t121.5 73t165 29v-144q-194 0 -297.5 -92.5t-104.5 -267.5v-240v-260h-165zM18 -477l136 354h149l-221 -385z" />
    <glyph glyph-name="Rcaron" unicode="&#x158;" horiz-adv-x="1288" 
d="M1073 0l-489 735h-219v-475v-260h-181v260v1030v260h449q265 0 404 -100.5t139 -290.5q0 -172 -114 -279t-312 -126l522 -740v-14h-199zM281 1974h155l187 -190l184 190h158l-293 -286h-101zM365 864h223q213 0 312 71.5t99 217.5q0 138 -93 202t-296 64h-245v-555z" />
    <glyph glyph-name="rcaron" unicode="&#x159;" horiz-adv-x="747" 
d="M150 0v260v475v262h165v-262v-20q12 48 40.5 95t75 92t121.5 73t165 29v-144q-194 0 -297.5 -92.5t-104.5 -267.5v-240v-260h-165zM135 1534h137l174 -240l172 240h138l-260 -346h-101z" />
    <glyph glyph-name="Sacute" unicode="&#x15a;" horiz-adv-x="1212" 
d="M639 -35q-249 0 -403.5 142t-180.5 395h172q21 -185 126 -292.5t284 -107.5q148 0 233.5 71t85.5 194q0 35 -8 65t-20.5 55.5t-40 52t-55 48t-77 51t-94 53.5t-118.5 62q-86 42 -144 75t-115 76t-90 85.5t-53 97t-20 118.5q0 166 126.5 265.5t338.5 99.5
q226 0 362 -122.5t160 -332.5h-166q-16 143 -107 232.5t-249 89.5q-143 0 -216 -61t-73 -163q0 -40 9 -72.5t33 -62.5t49 -52.5t75.5 -53t92 -52t118.5 -59.5q83 -43 136 -72.5t110.5 -67.5t91.5 -72t63.5 -76.5t42 -90.5t12.5 -106q0 -190 -134 -301t-357 -111zM528 1677
l197 287h172l-256 -287h-113z" />
    <glyph glyph-name="sacute" unicode="&#x15b;" horiz-adv-x="995" 
d="M535 -35q-195 0 -320 97t-145 270h159q17 -119 95 -182.5t211 -63.5q97 0 160 36t63 111q0 31 -13.5 57t-37.5 46.5t-60 39.5t-79 37.5t-95 39.5q-11 4 -16 6q-53 20 -81 31.5t-70.5 31t-65 35t-50.5 38.5t-42 47t-23.5 55.5t-9.5 68.5q0 127 100.5 196.5t269.5 69.5
q186 0 293 -85t129 -234h-159q-14 94 -82 146t-183 52q-99 0 -155 -34.5t-56 -102.5q0 -29 12 -53t31.5 -42.5t57.5 -38t77 -35t103 -38.5q100 -37 159 -64.5t110.5 -65t73.5 -83t22 -106.5q0 -92 -52.5 -157t-137.5 -95.5t-193 -30.5zM451 1188l192 360h158l-271 -360h-79z
" />
    <glyph glyph-name="Scircumflex" unicode="&#x15c;" horiz-adv-x="1212" 
d="M639 -35q-249 0 -403.5 142t-180.5 395h172q21 -185 126 -292.5t284 -107.5q148 0 233.5 71t85.5 194q0 35 -8 65t-20.5 55.5t-40 52t-55 48t-77 51t-94 53.5t-118.5 62q-86 42 -144 75t-115 76t-90 85.5t-53 97t-20 118.5q0 166 126.5 265.5t338.5 99.5
q226 0 362 -122.5t160 -332.5h-166q-16 143 -107 232.5t-249 89.5q-143 0 -216 -61t-73 -163q0 -40 9 -72.5t33 -62.5t49 -52.5t75.5 -53t92 -52t118.5 -59.5q83 -43 136 -72.5t110.5 -67.5t91.5 -72t63.5 -76.5t42 -90.5t12.5 -106q0 -190 -134 -301t-357 -111zM262 1677
l275 287h102l276 -287h-155l-172 187l-172 -187h-154z" />
    <glyph glyph-name="scircumflex" unicode="&#x15d;" horiz-adv-x="995" 
d="M535 -35q-195 0 -320 97t-145 270h159q17 -119 95 -182.5t211 -63.5q97 0 160 36t63 111q0 31 -13.5 57t-37.5 46.5t-60 39.5t-79 37.5t-95 39.5q-11 4 -16 6q-53 20 -81 31.5t-70.5 31t-65 35t-50.5 38.5t-42 47t-23.5 55.5t-9.5 68.5q0 127 100.5 196.5t269.5 69.5
q186 0 293 -85t129 -234h-159q-14 94 -82 146t-183 52q-99 0 -155 -34.5t-56 -102.5q0 -29 12 -53t31.5 -42.5t57.5 -38t77 -35t103 -38.5q100 -37 159 -64.5t110.5 -65t73.5 -83t22 -106.5q0 -92 -52.5 -157t-137.5 -95.5t-193 -30.5zM180 1188l260 346h99l262 -346h-137
l-175 239l-172 -239h-137z" />
    <glyph glyph-name="Scedilla" unicode="&#x15e;" horiz-adv-x="1212" 
d="M610 -506q-93 0 -164.5 34.5t-115.5 94.5l65 70q62 -111 199 -111q67 0 107 26t40 73q0 45 -35.5 70.5t-99.5 25.5q-68 0 -102 -23l-51 49l135 164q-228 15 -368 155.5t-165 379.5h172q21 -185 126 -292.5t284 -107.5q148 0 233.5 71t85.5 194q0 35 -8 65t-20.5 55.5
t-40 52t-55 48t-77 51t-94 53.5t-118.5 62q-86 42 -144 75t-115 76t-90 85.5t-53 97t-20 118.5q0 166 126.5 265.5t338.5 99.5q226 0 362 -122.5t160 -332.5h-166q-16 143 -107 232.5t-249 89.5q-143 0 -216 -61t-73 -163q0 -40 9 -72.5t33 -62.5t49 -52.5t75.5 -53t92 -52
t118.5 -59.5q83 -43 136 -72.5t110.5 -67.5t91.5 -72t63.5 -76.5t42 -90.5t12.5 -106q0 -180 -121 -289.5t-325 -120.5l-92 -112q30 6 63 6q91 0 151 -48t60 -126q0 -93 -75.5 -143t-180.5 -50z" />
    <glyph glyph-name="scedilla" unicode="&#x15f;" horiz-adv-x="995" 
d="M485 -504q-93 0 -164.5 34.5t-115.5 94.5l65 70q62 -111 199 -111q67 0 107 26t40 73q0 45 -35.5 70.5t-99.5 25.5q-68 0 -102 -23l-51 49l135 164q-166 17 -270 112t-123 251h159q17 -119 95 -182.5t211 -63.5q97 0 160 36t63 111q0 31 -13.5 57t-37.5 46.5t-60 39.5
t-79 37.5t-95 39.5q-11 4 -16 6q-53 20 -81 31.5t-70.5 31t-65 35t-50.5 38.5t-42 47t-23.5 55.5t-9.5 68.5q0 127 100.5 196.5t269.5 69.5q186 0 293 -85t129 -234h-159q-14 94 -82 146t-183 52q-99 0 -155 -34.5t-56 -102.5q0 -29 12 -53t31.5 -42.5t57.5 -38t77 -35
t103 -38.5q100 -37 159 -64.5t110.5 -65t73.5 -83t22 -106.5q0 -132 -101 -205t-260 -78l-90 -108q30 6 63 6q91 0 151 -48t60 -126q0 -93 -75.5 -143t-180.5 -50z" />
    <glyph glyph-name="Scaron" unicode="&#x160;" horiz-adv-x="1212" 
d="M639 -35q-249 0 -403.5 142t-180.5 395h172q21 -185 126 -292.5t284 -107.5q148 0 233.5 71t85.5 194q0 35 -8 65t-20.5 55.5t-40 52t-55 48t-77 51t-94 53.5t-118.5 62q-86 42 -144 75t-115 76t-90 85.5t-53 97t-20 118.5q0 166 126.5 265.5t338.5 99.5
q226 0 362 -122.5t160 -332.5h-166q-16 143 -107 232.5t-249 89.5q-143 0 -216 -61t-73 -163q0 -40 9 -72.5t33 -62.5t49 -52.5t75.5 -53t92 -52t118.5 -59.5q83 -43 136 -72.5t110.5 -67.5t91.5 -72t63.5 -76.5t42 -90.5t12.5 -106q0 -190 -134 -301t-357 -111zM246 1964
h155l187 -190l184 190h158l-293 -287h-100z" />
    <glyph glyph-name="scaron" unicode="&#x161;" horiz-adv-x="995" 
d="M535 -35q-195 0 -320 97t-145 270h159q17 -119 95 -182.5t211 -63.5q97 0 160 36t63 111q0 31 -13.5 57t-37.5 46.5t-60 39.5t-79 37.5t-95 39.5q-11 4 -16 6q-53 20 -81 31.5t-70.5 31t-65 35t-50.5 38.5t-42 47t-23.5 55.5t-9.5 68.5q0 127 100.5 196.5t269.5 69.5
q186 0 293 -85t129 -234h-159q-14 94 -82 146t-183 52q-99 0 -155 -34.5t-56 -102.5q0 -29 12 -53t31.5 -42.5t57.5 -38t77 -35t103 -38.5q100 -37 159 -64.5t110.5 -65t73.5 -83t22 -106.5q0 -92 -52.5 -157t-137.5 -95.5t-193 -30.5zM178 1534h137l174 -240l173 240h137
l-260 -346h-101z" />
    <glyph glyph-name="uni0162" unicode="&#x162;" horiz-adv-x="1179" 
d="M33 1419v131h1114v-131q-190 2 -447 2h-22v-1161v-260h-37l-117 -141q30 6 64 6q91 0 151 -48t60 -126q0 -93 -75.5 -143t-180.5 -50q-93 0 -165 34.5t-116 94.5l66 70q62 -111 198 -111q67 0 107.5 26t40.5 73q0 45 -35.5 70.5t-99.5 25.5q-69 0 -103 -23l-51 49
l158 193h-43v260v1161h-19q-258 0 -448 -2z" />
    <glyph glyph-name="uni0163" unicode="&#x163;" horiz-adv-x="790" 
d="M4 879v118h217v299l160 123h6v-422h332v-118h-332v-553q0 -215 168 -215q121 0 195 100l26 -109q-33 -45 -95 -78.5t-146 -39.5l-107 -127q30 6 64 6q91 0 150.5 -48t59.5 -126q0 -93 -75.5 -143t-180.5 -50q-93 0 -164.5 34.5t-115.5 94.5l65 70q62 -111 199 -111
q67 0 107.5 26t40.5 73q0 45 -36 70.5t-100 25.5q-68 0 -102 -23l-51 49l151 185q-219 34 -219 332v557h-217z" />
    <glyph glyph-name="Tcaron" unicode="&#x164;" horiz-adv-x="1179" 
d="M33 1419v131h1114v-131q-190 2 -447 2h-22v-1161v-260h-178v260v1161h-19q-258 0 -448 -2zM248 1974h155l187 -190l184 190h158l-293 -286h-100z" />
    <glyph glyph-name="tcaron" unicode="&#x165;" horiz-adv-x="798" 
d="M508 -16q-287 0 -287 338v557h-217v118h217v299l160 123h6v-422h332v-118h-332v-553q0 -215 168 -215q121 0 195 100l26 -109q-35 -49 -104.5 -83.5t-163.5 -34.5zM539 1198l57 406h147l-116 -406h-88z" />
    <glyph glyph-name="Tbar" unicode="&#x166;" horiz-adv-x="1179" 
d="M33 1419v131h1114v-131q-190 2 -447 2h-22v-579h344v-115h-344v-467v-260h-178v260v467h-340v115h340v579h-19q-258 0 -448 -2z" />
    <glyph glyph-name="tbar" unicode="&#x167;" horiz-adv-x="790" 
d="M10 582v90h211v207h-217v118h217v299l160 123h6v-422h332v-118h-332v-207h350v-90h-350v-256q0 -215 168 -215q121 0 195 100l26 -109q-35 -49 -104.5 -83.5t-163.5 -34.5q-287 0 -287 338v260h-211z" />
    <glyph glyph-name="Utilde" unicode="&#x168;" horiz-adv-x="1474" 
d="M737 -35q-135 0 -237.5 35.5t-178.5 112t-115.5 204.5t-39.5 306v667v260h180v-260v-676q0 -268 94.5 -386.5t296.5 -118.5q204 0 298.5 120.5t94.5 384.5v676v260h179v-260v-667q0 -341 -146 -499.5t-426 -158.5zM422 1694q0 282 176 282q46 0 80 -18.5t54 -44.5t38 -52
t43.5 -44.5t58.5 -18.5q52 0 70.5 40.5t18.5 135.5h90q-2 -147 -43 -215.5t-131 -68.5q-46 0 -81 18.5t-56 45t-40 53t-44 45t-56 18.5q-50 0 -69 -44t-19 -132h-90z" />
    <glyph glyph-name="utilde" unicode="&#x169;" horiz-adv-x="1155" 
d="M459 -31q-320 0 -320 383v383v262h166v-262v-360q0 -277 217 -277q127 0 208.5 84.5t109.5 218.5v334v262h164v-262v-475v-260h-164v225q-50 -110 -148.5 -183t-232.5 -73zM256 1188q-8 146 39 235.5t137 89.5q38 0 69 -16t49 -39.5t37 -51t34.5 -51t39.5 -39.5t54 -16
q96 0 84 213h82q12 -327 -168 -327q-48 0 -84 22t-58 53t-41 62.5t-44.5 53.5t-57.5 22q-51 0 -73.5 -59.5t-16.5 -151.5h-82z" />
    <glyph glyph-name="Umacron" unicode="&#x16a;" horiz-adv-x="1474" 
d="M737 -35q-135 0 -237.5 35.5t-178.5 112t-115.5 204.5t-39.5 306v667v260h180v-260v-676q0 -268 94.5 -386.5t296.5 -118.5q204 0 298.5 120.5t94.5 384.5v676v260h179v-260v-667q0 -341 -146 -499.5t-426 -158.5zM395 1774v104h684v-104h-684z" />
    <glyph glyph-name="umacron" unicode="&#x16b;" horiz-adv-x="1155" 
d="M459 -31q-320 0 -320 383v383v262h166v-262v-360q0 -277 217 -277q127 0 208.5 84.5t109.5 218.5v334v262h164v-262v-475v-260h-164v225q-50 -110 -148.5 -183t-232.5 -73zM252 1241v98h639v-98h-639z" />
    <glyph glyph-name="Ubreve" unicode="&#x16c;" horiz-adv-x="1474" 
d="M737 -35q-135 0 -237.5 35.5t-178.5 112t-115.5 204.5t-39.5 306v667v260h180v-260v-676q0 -268 94.5 -386.5t296.5 -118.5q204 0 298.5 120.5t94.5 384.5v676v260h179v-260v-667q0 -341 -146 -499.5t-426 -158.5zM420 1974h119q0 -91 50.5 -138.5t147.5 -47.5t148 47
t51 139h117q0 -143 -81 -220t-235 -77q-153 0 -235 77t-82 220z" />
    <glyph glyph-name="ubreve" unicode="&#x16d;" horiz-adv-x="1155" 
d="M459 -31q-320 0 -320 383v383v262h166v-262v-360q0 -277 217 -277q127 0 208.5 84.5t109.5 218.5v334v262h164v-262v-475v-260h-164v225q-50 -110 -148.5 -183t-232.5 -73zM281 1509h112q0 -227 178 -227q179 0 179 227h110q0 -152 -74.5 -236.5t-214.5 -84.5
q-141 0 -215.5 85t-74.5 236z" />
    <glyph glyph-name="Uring" unicode="&#x16e;" horiz-adv-x="1474" 
d="M737 -35q-135 0 -237.5 35.5t-178.5 112t-115.5 204.5t-39.5 306v667v260h180v-260v-676q0 -268 94.5 -386.5t296.5 -118.5q204 0 298.5 120.5t94.5 384.5v676v260h179v-260v-667q0 -341 -146 -499.5t-426 -158.5zM520 1853q0 85 59 136t156 51q100 0 160.5 -51
t60.5 -136q0 -87 -60 -136.5t-161 -49.5q-98 0 -156.5 49.5t-58.5 136.5zM598 1853q0 -55 38 -88.5t99 -33.5q62 0 100.5 33.5t38.5 88.5q0 54 -39 88.5t-100 34.5q-60 0 -98.5 -34.5t-38.5 -88.5z" />
    <glyph glyph-name="uring" unicode="&#x16f;" horiz-adv-x="1155" 
d="M459 -31q-320 0 -320 383v383v262h166v-262v-360q0 -277 217 -277q127 0 208.5 84.5t109.5 218.5v334v262h164v-262v-475v-260h-164v225q-50 -110 -148.5 -183t-232.5 -73zM350 1389q0 93 60.5 150.5t158.5 57.5q102 0 165 -57.5t63 -150.5q0 -90 -63 -147.5t-165 -57.5
q-98 0 -158.5 57.5t-60.5 147.5zM432 1389q0 -61 38.5 -99.5t98.5 -38.5q63 0 102.5 38.5t39.5 99.5q0 64 -39.5 102.5t-102.5 38.5q-61 0 -99 -38.5t-38 -102.5z" />
    <glyph glyph-name="Uhungarumlaut" unicode="&#x170;" horiz-adv-x="1474" 
d="M737 -35q-135 0 -237.5 35.5t-178.5 112t-115.5 204.5t-39.5 306v667v260h180v-260v-676q0 -268 94.5 -386.5t296.5 -118.5q204 0 298.5 120.5t94.5 384.5v676v260h179v-260v-667q0 -341 -146 -499.5t-426 -158.5zM557 1688l195 286h133l-232 -286h-96zM823 1688l213 286
h138l-254 -286h-97z" />
    <glyph glyph-name="uhungarumlaut" unicode="&#x171;" horiz-adv-x="1155" 
d="M459 -31q-320 0 -320 383v383v262h166v-262v-360q0 -277 217 -277q127 0 208.5 84.5t109.5 218.5v334v262h164v-262v-475v-260h-164v225q-50 -110 -148.5 -183t-232.5 -73zM389 1188l180 360h138l-220 -360h-98zM655 1188l195 360h135l-233 -360h-97z" />
    <glyph glyph-name="Uogonek" unicode="&#x172;" horiz-adv-x="1474" 
d="M737 -35q-135 0 -237.5 35.5t-178.5 112t-115.5 204.5t-39.5 306v667v260h180v-260v-676q0 -268 94.5 -386.5t296.5 -118.5q204 0 298.5 120.5t94.5 384.5v676v260h179v-260v-667q0 -493 -318 -617q-145 -116 -145 -248q0 -53 28 -78.5t72 -25.5q75 0 125 63v-90
q-56 -69 -158 -69q-77 0 -131.5 46t-54.5 136q0 124 111 231q-50 -6 -101 -6z" />
    <glyph glyph-name="uogonek" unicode="&#x173;" horiz-adv-x="1155" 
d="M459 -31q-320 0 -320 383v383v262h166v-262v-360q0 -277 217 -277q127 0 208.5 84.5t109.5 218.5v334v262h164v-262v-475v-260h-41q-41 -32 -67.5 -56t-57.5 -60t-46.5 -77.5t-15.5 -87.5q0 -53 28.5 -78.5t72.5 -25.5q74 0 124 63v-90q-56 -69 -157 -69q-77 0 -132 46
t-55 136q0 164 197 299h-14v225q-50 -110 -148.5 -183t-232.5 -73z" />
    <glyph glyph-name="Wcircumflex" unicode="&#x174;" horiz-adv-x="1974" 
d="M70 1386q-32 94 -52 164h189l47 -161l328 -1096l333 1202h144l340 -1206l327 1102l46 159h186q-12 -32 -51 -159l-404 -1295q-18 -65 -18 -96h-150l-350 1237l-315 -1141q-19 -69 -19 -96h-151zM666 1688l274 286h102l277 -286h-156l-172 186l-172 -186h-153z" />
    <glyph glyph-name="wcircumflex" unicode="&#x175;" horiz-adv-x="1474" 
d="M88 858q-7 23 -25 72t-24 67h166q15 -51 45 -139l217 -649l217 749h119l219 -749l215 649q44 129 47 139h152q-6 -23 -23.5 -71.5t-23.5 -67.5l-263 -749q-31 -82 -34 -109h-138l-215 750l-178 -619q-23 -71 -35 -131h-137zM428 1188l260 346h98l263 -346h-138l-174 239
l-172 -239h-137z" />
    <glyph glyph-name="Ycircumflex" unicode="&#x176;" horiz-adv-x="1218" 
d="M127 1391l-92 159h192l90 -164l299 -538l299 538q8 15 40 76.5t46 87.5h183q-17 -32 -90 -159l-392 -680v-451v-260h-178v260v451zM289 1688l274 286h103l276 -286h-156l-172 186l-172 -186h-153z" />
    <glyph glyph-name="ycircumflex" unicode="&#x177;" horiz-adv-x="991" 
d="M127 -498q-79 0 -125 27v127q41 -23 117 -23q104 0 180.5 80t159.5 287h-41l-297 780q-16 39 -44 113t-40 104h170q12 -35 40.5 -116t35.5 -101l223 -637l221 637q12 36 38 111.5t36 105.5h166q-15 -36 -47.5 -122t-36.5 -95l-295 -774q-73 -192 -145.5 -303.5
t-146.5 -156t-169 -44.5zM184 1188l260 346h99l262 -346h-137l-174 239l-172 -239h-138z" />
    <glyph glyph-name="Ydieresis" unicode="&#x178;" horiz-adv-x="1218" 
d="M127 1391l-92 159h192l90 -164l299 -538l299 538q8 15 40 76.5t46 87.5h183q-17 -32 -90 -159l-392 -680v-451v-260h-178v260v451zM352 1729v202h152v-202h-152zM721 1729v202h153v-202h-153z" />
    <glyph glyph-name="Zacute" unicode="&#x179;" horiz-adv-x="1169" 
d="M49 0v104l840 1315h-369q-266 0 -473 -8v139h1061v-98l-846 -1321h320q287 0 553 10v-141h-1086zM514 1688l197 286h172l-256 -286h-113z" />
    <glyph glyph-name="zacute" unicode="&#x17a;" horiz-adv-x="950" 
d="M63 0v92l613 782h-215q-234 0 -400 -4v127h813v-92l-612 -784h273q185 0 352 8v-129h-824zM430 1188l193 360h157l-270 -360h-80z" />
    <glyph glyph-name="Zdotaccent" unicode="&#x17b;" horiz-adv-x="1169" 
d="M49 0v104l840 1315h-369q-266 0 -473 -8v139h1061v-98l-846 -1321h320q287 0 553 10v-141h-1086zM496 1729v202h151v-202h-151z" />
    <glyph glyph-name="zdotaccent" unicode="&#x17c;" horiz-adv-x="950" 
d="M63 0v92l613 782h-215q-234 0 -400 -4v127h813v-92l-612 -784h273q185 0 352 8v-129h-824zM385 1257v203h164v-203h-164z" />
    <glyph glyph-name="Zcaron" unicode="&#x17d;" horiz-adv-x="1169" 
d="M49 0v104l840 1315h-369q-266 0 -473 -8v139h1061v-98l-846 -1321h320q287 0 553 10v-141h-1086zM233 1974h156l186 -190l185 190h158l-293 -286h-101z" />
    <glyph glyph-name="zcaron" unicode="&#x17e;" horiz-adv-x="950" 
d="M63 0v92l613 782h-215q-234 0 -400 -4v127h813v-92l-612 -784h273q185 0 352 8v-129h-824zM156 1534h137l174 -240l172 240h137l-260 -346h-100z" />
    <glyph glyph-name="uni018F" unicode="&#x18f;" horiz-adv-x="1607" 
d="M793 -31q-217 0 -378 91t-244 246.5t-85 355.5h1251q6 52 6 108q0 139 -34 257.5t-100 210t-171.5 143t-240.5 51.5q-115 0 -211.5 -39t-161.5 -104.5t-106 -142.5t-58 -161h-174q16 87 53 169t99 158t141.5 132.5t188 90.5t231.5 34q221 0 385.5 -101t251 -281.5
t86.5 -416.5q0 -241 -87.5 -422t-253 -280t-388.5 -99zM274 535q28 -188 161.5 -307t357.5 -119q202 0 338 111.5t186 314.5h-1043z" />
    <glyph glyph-name="florin" unicode="&#x192;" horiz-adv-x="1349" 
d="M61 -209q92 0 160.5 23t114.5 62.5t77.5 104.5t49.5 138t31 174l59 463h-492v80h502l37 286q28 217 135 330t289 113q171 0 264 -111l-65 -104q-34 43 -78 65.5t-115 22.5q-125 0 -193 -79.5t-89 -236.5l-37 -286h559v-80h-572l-61 -473q-15 -115 -40 -206t-70 -170.5
t-107 -132t-153 -82.5t-206 -30v129z" />
    <glyph glyph-name="Gcaron" unicode="&#x1e6;" horiz-adv-x="1785" 
d="M856 -31q-180 0 -327.5 63.5t-243.5 173t-147.5 254.5t-51.5 310q0 180 59 330t165.5 254.5t258 162.5t332.5 58q280 0 475 -132t252 -362h-178q-51 170 -199 260.5t-354 90.5q-192 0 -336.5 -86t-219.5 -234.5t-75 -337.5q0 -135 38.5 -253t112.5 -210t191.5 -145
t265.5 -53q269 0 424 147.5t185 401.5h-723l-2 129l897 2v-793h-129l-10 381q-74 -194 -245.5 -303t-414.5 -109zM561 1974h156l186 -190l184 190h158l-293 -286h-100z" />
    <glyph glyph-name="gcaron" unicode="&#x1e7;" horiz-adv-x="1216" 
d="M489 -520q-108 0 -188.5 21.5t-131 73t-50.5 128.5q0 146 192 217q-104 3 -168.5 53t-64.5 136q0 141 205 239q-119 109 -119 285q0 180 122.5 285.5t315.5 105.5q189 0 307 -100q19 105 99 168t190 63v-141q-95 0 -155.5 -38.5t-73.5 -113.5q71 -99 71 -231
q0 -181 -120.5 -286t-313.5 -105q-140 0 -248 57q-139 -66 -139 -158q0 -48 38 -72.5t128 -23.5q82 1 284.5 39.5t291.5 38.5q114 0 177.5 -50t63.5 -147q0 -96 -63.5 -181t-165 -141.5t-228.5 -89t-256 -32.5zM258 -264q0 -131 240 -131q126 0 252 36.5t212.5 105
t86.5 147.5q0 52 -34 74t-114 22q-159 0 -405 -70q-121 -37 -179.5 -80t-58.5 -104zM287 1534h137l174 -240l172 240h137l-260 -346h-100zM322 633q0 -122 75.5 -195t204.5 -73t205 73t76 195q0 119 -77 192.5t-204 73.5q-128 0 -204 -73.5t-76 -192.5z" />
    <glyph glyph-name="AEacute" unicode="&#x1fc;" horiz-adv-x="1859" 
d="M-35 0q18 35 156 287l694 1263h973v-133q-180 2 -418 2h-276v-545h178q199 0 414 5v-134q-258 3 -414 3h-178v-617h286q250 0 422 4v-135h-889v260v217h-497l-101 -192q-117 -230 -145 -285h-205zM487 612h426v678v109h-14zM922 1688l196 286h172l-256 -286h-112z" />
    <glyph glyph-name="aeacute" unicode="&#x1fd;" horiz-adv-x="1816" 
d="M1276 -35q-161 0 -278.5 92.5t-161.5 259.5q-38 -150 -158 -246.5t-293 -97.5q-139 -2 -224 66t-85 194q0 68 23.5 118t77 88t121 65.5t173.5 58.5q38 11 57.5 16.5t50.5 15.5t47 16.5t38.5 16.5t33.5 19t25 21.5t20 25.5t10.5 29t4.5 35q0 75 -53 114t-156 39
q-129 0 -209.5 -66.5t-83.5 -182.5h-154q14 169 138 269.5t319 100.5q129 0 218 -53t122 -158q62 100 161 154.5t220 54.5q210 0 332.5 -133.5t122.5 -357.5h-779q-2 -14 -2 -43q0 -177 87 -290.5t243 -113.5q71 0 128 23t93.5 61.5t58.5 83t31 94.5h144q-12 -75 -46 -142.5
t-89.5 -124t-140 -89.5t-187.5 -33zM236 242q0 -77 51 -113.5t131 -36.5q150 0 249 119.5t99 300.5v84q-23 -48 -82 -78t-174 -67q-62 -19 -97.5 -32t-74 -31.5t-58 -37.5t-32 -46t-12.5 -62zM883 1188l192 360h158l-270 -360h-80zM973 645h606q-20 116 -96.5 189t-200.5 73
q-118 0 -198.5 -70t-110.5 -192z" />
    <glyph glyph-name="Oslashacute" unicode="&#x1fe;" horiz-adv-x="1792" 
d="M512 -350l-106 33l141 352q-216 90 -338.5 284.5t-122.5 454.5q0 235 102 417t286 282t421 100q123 0 252 -33l135 336l109 -31l-138 -342q212 -92 332.5 -283.5t120.5 -449.5q0 -235 -102 -418t-286.5 -284t-422.5 -101q-126 0 -244 31zM270 770q0 -205 88.5 -361
t243.5 -233l492 1227q-103 27 -199 27q-280 0 -452.5 -182.5t-172.5 -477.5zM707 135q89 -24 188 -24q281 0 454 184t173 479q0 202 -86 355.5t-240 232.5zM836 1688l196 286h172l-256 -286h-112z" />
    <glyph glyph-name="oslashacute" unicode="&#x1ff;" horiz-adv-x="1189" 
d="M346 -252l-88 31l96 239q-130 61 -201 187.5t-71 294.5q0 238 138 384t376 146q84 0 154 -18l90 223l88 -31l-90 -225q130 -60 200 -185.5t70 -293.5q0 -239 -137 -386t-375 -147q-78 0 -156 19zM244 500q0 -126 42.5 -216.5t119.5 -138.5l296 744q-46 14 -106 14
q-159 0 -255.5 -105.5t-96.5 -297.5zM489 109q49 -15 107 -15q159 0 254.5 106t95.5 300q0 251 -160 352zM557 1188l193 360h157l-270 -360h-80z" />
    <glyph glyph-name="uni0218" unicode="&#x218;" horiz-adv-x="1212" 
d="M639 -35q-249 0 -403.5 142t-180.5 395h172q21 -185 126 -292.5t284 -107.5q148 0 233.5 71t85.5 194q0 35 -8 65t-20.5 55.5t-40 52t-55 48t-77 51t-94 53.5t-118.5 62q-86 42 -144 75t-115 76t-90 85.5t-53 97t-20 118.5q0 166 126.5 265.5t338.5 99.5
q226 0 362 -122.5t160 -332.5h-166q-16 143 -107 232.5t-249 89.5q-143 0 -216 -61t-73 -163q0 -40 9 -72.5t33 -62.5t49 -52.5t75.5 -53t92 -52t118.5 -59.5q83 -43 136 -72.5t110.5 -67.5t91.5 -72t63.5 -76.5t42 -90.5t12.5 -106q0 -190 -134 -301t-357 -111zM438 -479
l135 354h150l-221 -385z" />
    <glyph glyph-name="uni0219" unicode="&#x219;" horiz-adv-x="995" 
d="M535 -35q-195 0 -320 97t-145 270h159q17 -119 95 -182.5t211 -63.5q97 0 160 36t63 111q0 31 -13.5 57t-37.5 46.5t-60 39.5t-79 37.5t-95 39.5q-11 4 -16 6q-53 20 -81 31.5t-70.5 31t-65 35t-50.5 38.5t-42 47t-23.5 55.5t-9.5 68.5q0 127 100.5 196.5t269.5 69.5
q186 0 293 -85t129 -234h-159q-14 94 -82 146t-183 52q-99 0 -155 -34.5t-56 -102.5q0 -29 12 -53t31.5 -42.5t57.5 -38t77 -35t103 -38.5q100 -37 159 -64.5t110.5 -65t73.5 -83t22 -106.5q0 -92 -52.5 -157t-137.5 -95.5t-193 -30.5zM313 -477l136 354h149l-221 -385z" />
    <glyph glyph-name="uni021A" unicode="&#x21a;" horiz-adv-x="1179" 
d="M33 1419v131h1114v-131q-190 2 -447 2h-22v-1161v-260h-178v260v1161h-19q-258 0 -448 -2zM371 -475l135 354h149l-221 -385z" />
    <glyph glyph-name="uni021B" unicode="&#x21b;" horiz-adv-x="790" 
d="M508 -16q-287 0 -287 338v557h-217v118h217v299l160 123h6v-422h332v-118h-332v-553q0 -215 168 -215q121 0 195 100l26 -109q-35 -49 -104.5 -83.5t-163.5 -34.5zM274 -477l136 354h149l-221 -385z" />
    <glyph glyph-name="uni0237" unicode="&#x237;" horiz-adv-x="501" 
d="M-4 -387q101 0 144.5 61.5t43.5 190.5v870v262h166v-1112q0 -185 -80.5 -284t-273.5 -99v111z" />
    <glyph glyph-name="uni0259" unicode="&#x259;" horiz-adv-x="1138" 
d="M559 1032q221 0 359.5 -142.5t138.5 -389.5q0 -240 -139.5 -386.5t-356.5 -146.5q-215 0 -347 134.5t-132 357.5h819q2 12 2 37q0 180 -92.5 294.5t-255.5 114.5q-136 0 -216.5 -77.5t-100.5 -184.5h-158q14 75 49.5 142.5t93 124t144.5 89.5t192 33zM246 346
q23 -113 103.5 -184.5t207.5 -71.5q124 0 209 68.5t119 187.5h-639z" />
    <glyph glyph-name="circumflex" unicode="&#x2c6;" horiz-adv-x="825" 
d="M102 1188l260 346h99l262 -346h-137l-174 239l-172 -239h-138z" />
    <glyph glyph-name="caron" unicode="&#x2c7;" horiz-adv-x="825" 
d="M362 1188l-260 346h138l174 -240l172 240h137l-260 -346h-101z" />
    <glyph glyph-name="breve" unicode="&#x2d8;" horiz-adv-x="784" 
d="M393 1188q-141 0 -216 85t-75 236h113q0 -227 178 -227t178 227h111q0 -152 -74.5 -236.5t-214.5 -84.5z" />
    <glyph glyph-name="dotaccent" unicode="&#x2d9;" horiz-adv-x="389" 
d="M102 1257v218h185v-218h-185z" />
    <glyph glyph-name="ring" unicode="&#x2da;" horiz-adv-x="649" 
d="M322 1184q-98 0 -159 57.5t-61 147.5q0 92 61 150t159 58q102 0 164.5 -57.5t62.5 -150.5q0 -90 -62.5 -147.5t-164.5 -57.5zM184 1389q0 -61 39 -99.5t99 -38.5q63 0 102 38t39 100q0 64 -39 102.5t-102 38.5q-61 0 -99.5 -38.5t-38.5 -102.5z" />
    <glyph glyph-name="ogonek" unicode="&#x2db;" horiz-adv-x="546" 
d="M289 -481q-77 0 -132 46t-55 136q0 61 24 115t68.5 97t83.5 71t91 59l39 -43q-41 -32 -67.5 -56t-57.5 -60t-46.5 -77.5t-15.5 -87.5q0 -53 28.5 -78.5t72.5 -25.5q74 0 124 63v-90q-56 -69 -157 -69z" />
    <glyph glyph-name="tilde" unicode="&#x2dc;" horiz-adv-x="831" 
d="M104 1188q-8 145 39 235t138 90q45 0 79 -22t55 -53.5t40.5 -62.5t46 -53t61.5 -22q96 0 84 213h82q12 -327 -168 -327q-48 0 -84 22t-58 53t-41 62.5t-44.5 53.5t-57.5 22q-51 0 -73.5 -59.5t-16.5 -151.5h-82z" />
    <glyph glyph-name="hungarumlaut" unicode="&#x2dd;" horiz-adv-x="800" 
d="M369 1188l194 360h135l-233 -360h-96zM102 1188l181 360h137l-219 -360h-99z" />
    <glyph glyph-name="gravecomb" unicode="&#x300;" 
d="M375 1188l-269 360h156l195 -360h-82z" />
    <glyph glyph-name="acutecomb" unicode="&#x301;" 
d="M104 1188l193 360h158l-271 -360h-80z" />
    <glyph glyph-name="uni0302" unicode="&#x302;" 
d="M100 1188l260 346h99l262 -346h-137l-174 239l-172 -239h-138z" />
    <glyph glyph-name="tildecomb" unicode="&#x303;" 
d="M109 1188q-8 146 39 235.5t137 89.5q45 0 79 -22t55 -53.5t40.5 -62.5t46 -53t61.5 -22q96 0 84 213h82q12 -327 -168 -327q-48 0 -84 22t-57.5 53t-40.5 62.5t-44.5 53.5t-57.5 22q-52 0 -74.5 -59.5t-16.5 -151.5h-81z" />
    <glyph glyph-name="uni0304" unicode="&#x304;" 
d="M102 1241v98h639v-98h-639z" />
    <glyph glyph-name="uni0306" unicode="&#x306;" 
d="M389 1188q-141 0 -216 85t-75 236h113q0 -227 178 -227t178 227h111q0 -152 -74.5 -236.5t-214.5 -84.5z" />
    <glyph glyph-name="uni0307" unicode="&#x307;" 
d="M100 1257v218h185v-218h-185z" />
    <glyph glyph-name="uni0308" unicode="&#x308;" 
d="M420 1260v200h160v-200h-160zM100 1260v200h160v-200h-160z" />
    <glyph glyph-name="uni030A" unicode="&#x30a;" 
d="M322 1184q-98 0 -159 57.5t-61 147.5q0 92 61 150t159 58q102 0 164.5 -57.5t62.5 -150.5q0 -90 -62.5 -147.5t-164.5 -57.5zM184 1389q0 -61 39 -99.5t99 -38.5q63 0 102 38t39 100q0 64 -39 102.5t-102 38.5q-61 0 -99.5 -38.5t-38.5 -102.5z" />
    <glyph glyph-name="uni030B" unicode="&#x30b;" 
d="M362 1188l195 360h135l-233 -360h-97zM96 1188l180 360h138l-219 -360h-99z" />
    <glyph glyph-name="uni030C" unicode="&#x30c;" 
d="M383 1188l-260 346h137l174 -240l172 240h137l-260 -346h-100z" />
    <glyph glyph-name="uni0312" unicode="&#x312;" 
d="M102 1190l174 366h70l-96 -366h-148z" />
    <glyph glyph-name="uni0326" unicode="&#x326;" 
d="M123 -508l-64 31l136 354h149z" />
    <glyph glyph-name="uni0327" unicode="&#x327;" 
d="M383 -504q-93 0 -165 34.5t-116 94.5l66 70q62 -111 199 -111q67 0 107 26t40 73q0 45 -35.5 70.5t-99.5 25.5q-69 0 -103 -23l-51 49l160 195h98l-118 -143q30 6 63 6q91 0 151 -48t60 -126q0 -93 -75.5 -143t-180.5 -50z" />
    <glyph glyph-name="uni0328" unicode="&#x328;" 
d="M330 -481q-77 0 -132 46t-55 136q0 61 24 115t68.5 97t83.5 71t91 59l39 -43q-41 -32 -67.5 -56t-57.5 -60t-46.5 -77.5t-15.5 -87.5q0 -53 28 -78.5t72 -25.5q75 0 125 63v-90q-56 -69 -157 -69z" />
    <glyph glyph-name="uni0394" unicode="&#x394;" horiz-adv-x="1259" 
d="M18 0v123l523 1427h170l530 -1427v-123h-1223zM186 133h887l-440 1247z" />
    <glyph glyph-name="uni03A9" unicode="&#x3a9;" horiz-adv-x="1708" 
d="M100 0v133h486v64q-246 72 -387.5 249t-141.5 428q0 206 100.5 366.5t282 249.5t414.5 89t414 -89t281 -249.5t100 -366.5q0 -251 -141 -428t-386 -249v-64h484v-133h-623v256q227 57 356 208.5t129 387.5q0 262 -171 426t-443 164t-443 -164t-171 -426
q0 -236 128.5 -387.5t354.5 -208.5v-256h-623z" />
    <glyph glyph-name="uni03BC" unicode="&#x3bc;" horiz-adv-x="1191" 
d="M186 -412q-20 63 -30 139.5t-11.5 125.5t-1.5 137v745v262h164v-262v-360q0 -145 55.5 -213t165.5 -68q125 0 207 96.5t107 237.5v307v262h164v-262v-444q0 -114 29 -157.5t81 -43.5q41 0 68 21v-93q-51 -30 -133 -30q-94 0 -149.5 65.5t-55.5 198.5v16
q-42 -127 -133.5 -213t-218.5 -86q-141 0 -215 99v-115q0 -222 40 -365h-133z" />
    <glyph glyph-name="pi" unicode="&#x3c0;" horiz-adv-x="1329" 
d="M1069 -14q-244 0 -244 305v588h-376l-19 -879h-160l19 879h-285v118h1256v-118h-275v-568q0 -209 135 -209q95 0 164 97l31 -88q-94 -125 -246 -125z" />
    <glyph glyph-name="Wgrave" unicode="&#x1e80;" horiz-adv-x="1974" 
d="M70 1386q-32 94 -52 164h189l47 -161l328 -1096l333 1202h144l340 -1206l327 1102l46 159h186q-12 -32 -51 -159l-404 -1295q-18 -65 -18 -96h-150l-350 1237l-315 -1141q-19 -69 -19 -96h-151zM674 1974h172l196 -286h-112z" />
    <glyph glyph-name="wgrave" unicode="&#x1e81;" horiz-adv-x="1474" 
d="M88 858q-7 23 -25 72t-24 67h166q15 -51 45 -139l217 -649l217 749h119l219 -749l215 649q44 129 47 139h152q-6 -23 -23.5 -71.5t-23.5 -67.5l-263 -749q-31 -82 -34 -109h-138l-215 750l-178 -619q-23 -71 -35 -131h-137zM428 1548h156l194 -360h-82z" />
    <glyph glyph-name="Wacute" unicode="&#x1e82;" horiz-adv-x="1974" 
d="M70 1386q-32 94 -52 164h189l47 -161l328 -1096l333 1202h144l340 -1206l327 1102l46 159h186q-12 -32 -51 -159l-404 -1295q-18 -65 -18 -96h-150l-350 1237l-315 -1141q-19 -69 -19 -96h-151zM932 1688l196 286h172l-256 -286h-112z" />
    <glyph glyph-name="wacute" unicode="&#x1e83;" horiz-adv-x="1474" 
d="M88 858q-7 23 -25 72t-24 67h166q15 -51 45 -139l217 -649l217 749h119l219 -749l215 649q44 129 47 139h152q-6 -23 -23.5 -71.5t-23.5 -67.5l-263 -749q-31 -82 -34 -109h-138l-215 750l-178 -619q-23 -71 -35 -131h-137zM698 1188l193 360h158l-271 -360h-80z" />
    <glyph glyph-name="Wdieresis" unicode="&#x1e84;" horiz-adv-x="1974" 
d="M70 1386q-32 94 -52 164h189l47 -161l328 -1096l333 1202h144l340 -1206l327 1102l46 159h186q-12 -32 -51 -159l-404 -1295q-18 -65 -18 -96h-150l-350 1237l-315 -1141q-19 -69 -19 -96h-151zM729 1729v202h152v-202h-152zM1098 1729v202h153v-202h-153z" />
    <glyph glyph-name="wdieresis" unicode="&#x1e85;" horiz-adv-x="1474" 
d="M88 858q-7 23 -25 72t-24 67h166q15 -51 45 -139l217 -649l217 749h119l219 -749l215 649q44 129 47 139h152q-6 -23 -23.5 -71.5t-23.5 -67.5l-263 -749q-31 -82 -34 -109h-138l-215 750l-178 -619q-23 -71 -35 -131h-137zM498 1260v200h159v-200h-159zM817 1260v200
h160v-200h-160z" />
    <glyph glyph-name="uni1E9E" unicode="&#x1e9e;" horiz-adv-x="1447" 
d="M895 -27q-197 0 -326 101l4 155q114 -123 306 -123q153 0 234 76t81 199q0 118 -47.5 193.5t-173.5 164.5q-62 43 -101.5 76t-77.5 77t-55.5 95t-17.5 113q0 107 55 190.5t160 130.5h-143q-449 0 -449 -518v-643v-260h-178v260v623q0 174 43.5 304t124 208.5t187.5 116.5
t241 38h547v-135q-20 2 -62 2q-177 0 -266.5 -84.5t-89.5 -212.5q0 -46 11.5 -81t41 -69t65 -62t99.5 -72q138 -100 198 -201t60 -250q0 -84 -30 -157.5t-87 -131t-148 -90.5t-206 -33z" />
    <glyph glyph-name="uni1EBC" unicode="&#x1ebc;" horiz-adv-x="1132" 
d="M184 0v260v1030v260h875v-133q-180 2 -418 2h-276v-545h178q198 0 413 5v-134q-258 3 -413 3h-178v-617h286q250 0 422 4v-135h-889zM293 1694q0 282 176 282q46 0 80 -18.5t54 -44.5t38 -52t43.5 -44.5t58.5 -18.5q52 0 70 40t18 136h91q-2 -147 -43 -215.5t-131 -68.5
q-46 0 -81 18.5t-56 45t-40 53t-44 45t-56 18.5q-50 0 -69 -44t-19 -132h-90z" />
    <glyph glyph-name="uni1EBD" unicode="&#x1ebd;" horiz-adv-x="1138" 
d="M580 -35q-221 0 -359.5 143t-138.5 390q0 240 139.5 386t356.5 146q215 0 347 -134t132 -357h-819q-2 -12 -2 -37q0 -180 92.5 -295t255.5 -115q136 0 216.5 77.5t100.5 184.5h158q-14 -75 -49.5 -142.5t-93 -124t-144.5 -89.5t-192 -33zM254 651h639
q-23 113 -103.5 184.5t-207.5 71.5q-124 0 -209 -68.5t-119 -187.5zM262 1188q-8 146 39 235.5t137 89.5q38 0 69 -16t49 -39.5t37 -51t34.5 -51t39.5 -39.5t54 -16q96 0 84 213h82q12 -327 -168 -327q-48 0 -84 22t-58 53t-41 62.5t-44.5 53.5t-57.5 22q-51 0 -73.5 -59.5
t-16.5 -151.5h-82z" />
    <glyph glyph-name="Ygrave" unicode="&#x1ef2;" horiz-adv-x="1218" 
d="M127 1391l-92 159h192l90 -164l299 -538l299 538q8 15 40 76.5t46 87.5h183q-17 -32 -90 -159l-392 -680v-451v-260h-178v260v451zM297 1974h172l197 -286h-113z" />
    <glyph glyph-name="ygrave" unicode="&#x1ef3;" horiz-adv-x="991" 
d="M127 -498q-79 0 -125 27v127q41 -23 117 -23q104 0 180.5 80t159.5 287h-41l-297 780q-16 39 -44 113t-40 104h170q12 -35 40.5 -116t35.5 -101l223 -637l221 637q12 36 38 111.5t36 105.5h166q-15 -36 -47.5 -122t-36.5 -95l-295 -774q-73 -192 -145.5 -303.5
t-146.5 -156t-169 -44.5zM184 1548h156l195 -360h-82z" />
    <glyph glyph-name="uni1EF8" unicode="&#x1ef8;" horiz-adv-x="1218" 
d="M127 1391l-92 159h192l90 -164l299 -538l299 538q8 15 40 76.5t46 87.5h183q-17 -32 -90 -159l-392 -680v-451v-260h-178v260v451zM299 1694q0 282 176 282q46 0 80 -18.5t54.5 -44.5t38.5 -52t43.5 -44.5t58.5 -18.5q52 0 70 40t18 136h90q-2 -147 -43 -215.5
t-131 -68.5q-46 0 -81 18.5t-56 45t-40 53t-44 45t-56 18.5q-50 0 -69 -44t-19 -132h-90z" />
    <glyph glyph-name="uni1EF9" unicode="&#x1ef9;" horiz-adv-x="991" 
d="M127 -498q-79 0 -125 27v127q41 -23 117 -23q104 0 180.5 80t159.5 287h-41l-297 780q-16 39 -44 113t-40 104h170q12 -35 40.5 -116t35.5 -101l223 -637l221 637q12 36 38 111.5t36 105.5h166q-15 -36 -47.5 -122t-36.5 -95l-295 -774q-73 -192 -145.5 -303.5
t-146.5 -156t-169 -44.5zM180 1188q-8 146 39 235.5t137 89.5q38 0 69 -16t49 -39.5t37 -51t34.5 -51t39.5 -39.5t54 -16q96 0 84 213h82q12 -327 -168 -327q-48 0 -84 22t-58 53t-41 62.5t-44.5 53.5t-57.5 22q-51 0 -73.5 -59.5t-16.5 -151.5h-82z" />
    <glyph glyph-name="endash" unicode="&#x2013;" horiz-adv-x="1871" 
d="M94 481v97h1686v-97h-1686z" />
    <glyph glyph-name="emdash" unicode="&#x2014;" horiz-adv-x="2529" 
d="M94 481v97h2343v-97h-2343z" />
    <glyph glyph-name="quoteleft" unicode="&#x2018;" horiz-adv-x="405" 
d="M346 1475q-78 -19 -116 -68t-42 -141h88v-217h-180v194q0 146 61.5 223t188.5 101v-92z" />
    <glyph glyph-name="quoteright" unicode="&#x2019;" horiz-adv-x="405" 
d="M59 1133q79 19 116.5 67.5t41.5 140.5h-88v218h180v-195q0 -146 -61.5 -223t-188.5 -101v93z" />
    <glyph glyph-name="quotesinglbase" unicode="&#x201a;" horiz-adv-x="411" 
d="M45 -201q81 17 118 65t42 138h-90v215h180v-188q0 -143 -61.5 -219.5t-188.5 -100.5v90z" />
    <glyph glyph-name="quotedblleft" unicode="&#x201c;" horiz-adv-x="720" 
d="M346 1475q-78 -19 -116 -68t-42 -141h88v-217h-180v194q0 146 61.5 223t188.5 101v-92zM412 1049v194q0 146 61.5 223t188.5 101v-92q-78 -19 -116 -68t-42 -141h88v-217h-180z" />
    <glyph glyph-name="quotedblright" unicode="&#x201d;" horiz-adv-x="720" 
d="M375 1133q78 19 115.5 67.5t41.5 140.5h-88v218h181v-195q0 -146 -61.5 -223t-188.5 -101v93zM59 1040v93q79 19 116.5 67.5t41.5 140.5h-88v218h180v-195q0 -146 -61.5 -223t-188.5 -101z" />
    <glyph glyph-name="quotedblbase" unicode="&#x201e;" horiz-adv-x="724" 
d="M360 -201q81 17 118 65t42 138h-90v215h180v-188q0 -143 -61.5 -219.5t-188.5 -100.5v90zM45 -291v90q81 17 118 65t42 138h-90v215h180v-188q0 -143 -61.5 -219.5t-188.5 -100.5z" />
    <glyph glyph-name="dagger" unicode="&#x2020;" horiz-adv-x="991" 
d="M420 82v928h-381v125h381v462h151v-462h383v-125h-383v-928h-151z" />
    <glyph glyph-name="daggerdbl" unicode="&#x2021;" horiz-adv-x="991" 
d="M420 82v459h-381v125h381v348h-381v127h381v456h151v-456h381v-127h-381v-348h381v-125h-381v-459h-151z" />
    <glyph glyph-name="bullet" unicode="&#x2022;" horiz-adv-x="657" 
d="M205 406v245h248v-245h-248z" />
    <glyph glyph-name="ellipsis" unicode="&#x2026;" horiz-adv-x="1300" 
d="M993 0v217h181v-217h-181zM127 0v217h180v-217h-180zM561 0v217h180v-217h-180z" />
    <glyph glyph-name="perthousand" unicode="&#x2030;" horiz-adv-x="2334" 
d="M115 0l1177 1550h154l-1178 -1550h-153zM76 1243q0 144 94 238t242 94q149 0 243.5 -94t94.5 -238q0 -141 -94.5 -235.5t-243.5 -94.5q-148 0 -242 94.5t-94 235.5zM207 1243q0 -94 56.5 -154.5t148.5 -60.5t148 60.5t56 154.5q0 95 -56 156t-148 61q-93 0 -149 -61
t-56 -156zM803 303q0 144 94 238t242 94q149 0 243.5 -94t94.5 -238q0 -141 -94.5 -235.5t-243.5 -94.5q-148 0 -242 94.5t-94 235.5zM934 303q0 -94 56.5 -154.5t148.5 -60.5t148 60.5t56 154.5q0 95 -56 156t-148 61q-93 0 -149 -61t-56 -156zM1587 301q0 144 94 238
t242 94q149 0 243.5 -94t94.5 -238q0 -141 -94.5 -235.5t-243.5 -94.5q-148 0 -242 94.5t-94 235.5zM1718 301q0 -94 56.5 -154.5t148.5 -60.5t148.5 60.5t56.5 154.5q0 95 -56 156t-149 61t-149 -61t-56 -156z" />
    <glyph glyph-name="minute" unicode="&#x2032;" horiz-adv-x="380" 
d="M45 950l98 600h146l-158 -600h-86z" />
    <glyph glyph-name="second" unicode="&#x2033;" horiz-adv-x="706" 
d="M45 950l98 600h146l-158 -600h-86zM369 950l98 600h145l-157 -600h-86z" />
    <glyph glyph-name="guilsinglleft" unicode="&#x2039;" horiz-adv-x="655" 
d="M541 96l-461 369v70l461 370v-139l-328 -264v-2l328 -267v-137z" />
    <glyph glyph-name="guilsinglright" unicode="&#x203a;" horiz-adv-x="655" 
d="M115 96v137l327 267v2l-327 264v139l460 -370v-70z" />
    <glyph glyph-name="uni203D" unicode="&#x203d;" horiz-adv-x="1089" 
d="M444 0v217h179v-217h-179zM74 1108q12 219 151.5 342t358.5 123q201 0 318.5 -95t117.5 -247q0 -72 -21.5 -133.5t-56.5 -106.5t-78 -84t-87 -74.5t-81.5 -70t-64.5 -78.5t-33 -92l-2 -156h-129l-10 867h149l-6 -531q23 36 74 90.5t88 96t67.5 107.5t30.5 136
q0 107 -79.5 174.5t-223.5 67.5q-157 0 -248 -90.5t-100 -245.5h-135z" />
    <glyph glyph-name="fraction" unicode="&#x2044;" horiz-adv-x="393" 
d="M-469 0l1178 1550h153l-1175 -1550h-156z" />
    <glyph glyph-name="uni2070" unicode="&#x2070;" horiz-adv-x="966" 
d="M483 901q-194 0 -302.5 125t-108.5 344q0 222 108.5 347.5t302.5 125.5t303 -125.5t109 -347.5q0 -219 -109 -344t-303 -125zM201 1370q0 -177 74.5 -271.5t207.5 -94.5t208 94.5t75 271.5q0 178 -75 273.5t-208 95.5t-207.5 -95.5t-74.5 -273.5z" />
    <glyph glyph-name="uni2074" unicode="&#x2074;" horiz-adv-x="856" 
d="M522 922v186v12h-524v86l534 619h121v-606h174v-99h-174v-12v-186v-11h-131v11zM135 1219h387v456z" />
    <glyph glyph-name="uni2075" unicode="&#x2075;" horiz-adv-x="878" 
d="M449 901q-168 0 -273.5 84.5t-118.5 231.5h121q10 -106 80.5 -162t187.5 -56q116 0 176 63.5t60 160.5q0 108 -61.5 165.5t-159.5 57.5q-169 0 -254 -123l-105 39l78 463h596v-101h-508l-51 -307q99 117 283 117q142 0 228.5 -83t86.5 -232q0 -140 -97 -229t-269 -89z
" />
    <glyph glyph-name="uni2076" unicode="&#x2076;" horiz-adv-x="907" 
d="M467 901q-191 0 -292 125.5t-101 335.5q0 213 106 347t301 134q143 0 238 -78t112 -211h-118q-9 93 -71.5 146t-160.5 53q-135 0 -206 -101t-76 -274q0 -53 8 -94q25 100 112.5 161.5t204.5 61.5q132 0 219.5 -81.5t87.5 -215.5q0 -138 -100 -223.5t-264 -85.5zM221 1186
q55 -195 244 -195q103 0 169 58.5t66 158.5q0 101 -63 159t-156 58q-99 0 -174.5 -66.5t-85.5 -172.5z" />
    <glyph glyph-name="uni2077" unicode="&#x2077;" horiz-adv-x="737" 
d="M90 922l496 794h-566v109h707l2 -70l-498 -833h-141z" />
    <glyph glyph-name="uni2078" unicode="&#x2078;" horiz-adv-x="942" 
d="M471 901q-194 0 -296.5 69t-102.5 197q0 95 73.5 161.5t182.5 78.5q-107 17 -163 70.5t-56 138.5q0 104 93.5 164.5t266.5 60.5q175 0 270 -61t95 -164q0 -85 -56.5 -138.5t-163.5 -70.5q109 -12 182.5 -78t73.5 -162q0 -128 -102.5 -197t-296.5 -69zM203 1178
q0 -92 68 -139.5t200 -47.5t200 47.5t68 139.5q0 84 -72.5 133t-195.5 49t-195.5 -49t-72.5 -133zM233 1606q0 -71 63.5 -115.5t174.5 -44.5q112 0 174 44.5t62 115.5q0 68 -62.5 108.5t-173.5 40.5q-110 0 -174 -40.5t-64 -108.5z" />
    <glyph glyph-name="uni2079" unicode="&#x2079;" horiz-adv-x="907" 
d="M440 1843q191 0 292.5 -126t101.5 -335q0 -213 -106.5 -347t-301.5 -134q-144 0 -239.5 78t-110.5 211h119q9 -93 71 -146t158 -53q137 0 208.5 101.5t74.5 273.5q0 43 -7 94q-26 -100 -113.5 -161.5t-203.5 -61.5q-132 0 -219.5 81.5t-87.5 215.5q0 139 100 224t264 85z
M207 1536q0 -100 63 -157.5t156 -57.5q100 0 175 66.5t85 173.5q-55 192 -244 192q-103 0 -169 -58t-66 -159z" />
    <glyph glyph-name="uni2080" unicode="&#x2080;" horiz-adv-x="966" 
d="M483 -225q-194 0 -302.5 125t-108.5 344q0 222 108.5 347.5t302.5 125.5t303 -125.5t109 -347.5q0 -219 -109 -344t-303 -125zM201 244q0 -177 74.5 -272t207.5 -95t208 95t75 272q0 178 -74.5 273t-208.5 95q-133 0 -207.5 -95t-74.5 -273z" />
    <glyph glyph-name="uni2081" unicode="&#x2081;" horiz-adv-x="571" 
d="M258 -205v260v402q-33 -55 -97.5 -91t-148.5 -42v108q109 6 192 80t93 188h92v-645v-260h-131z" />
    <glyph glyph-name="uni2082" unicode="&#x2082;" horiz-adv-x="856" 
d="M72 -182q0 72 26 133.5t74.5 109.5t99 82.5t117.5 69.5q136 72 193 124.5t57 119.5q0 78 -51 118.5t-139 40.5q-120 0 -186 -72.5t-66 -183.5h-129q5 152 105.5 254.5t281.5 102.5q144 0 229.5 -67t85.5 -189q0 -104 -68.5 -173t-207.5 -141q-56 -30 -84.5 -46.5
t-70.5 -43.5t-62.5 -48t-38.5 -50t-21 -59h584v-105h-729v23z" />
    <glyph glyph-name="uni2083" unicode="&#x2083;" horiz-adv-x="862" 
d="M442 -225q-167 0 -268.5 84t-114.5 235h127q9 -107 77 -164t177 -57q115 0 175.5 53t60.5 129q0 174 -254 174h-82v88h82q108 0 166.5 44t58.5 112q0 64 -48 106t-155 42q-104 0 -171.5 -48.5t-82.5 -138.5h-127q19 131 123.5 207t270.5 76q154 0 239.5 -63t85.5 -167
q0 -78 -57.5 -133t-159.5 -75q115 -14 182.5 -71.5t67.5 -162.5q0 -116 -102.5 -193t-270.5 -77z" />
    <glyph glyph-name="uni2084" unicode="&#x2084;" horiz-adv-x="856" 
d="M522 -205v187v12h-524v86l534 618h121v-606h174v-98h-174v-12v-187v-10h-131v10zM135 92h387v457z" />
    <glyph glyph-name="uni2085" unicode="&#x2085;" horiz-adv-x="878" 
d="M449 -225q-168 0 -273.5 84t-118.5 231h121q10 -106 80.5 -161.5t187.5 -55.5q116 0 176 63t60 160q0 108 -61.5 165.5t-159.5 57.5q-169 0 -254 -122l-105 39l78 462h596v-100h-508l-51 -307q99 117 283 117q141 0 228 -83.5t87 -232.5q0 -140 -97 -228.5t-269 -88.5z
" />
    <glyph glyph-name="uni2086" unicode="&#x2086;" horiz-adv-x="907" 
d="M467 -225q-191 0 -292 125.5t-101 335.5q0 213 106 347t301 134q143 0 238 -78t112 -211h-118q-9 93 -71.5 146t-160.5 53q-135 0 -206 -101t-76 -274q0 -53 8 -94q25 100 112.5 161.5t204.5 61.5q132 0 219.5 -81.5t87.5 -215.5q0 -138 -100 -223.5t-264 -85.5zM221 59
q55 -194 244 -194q103 0 169 58.5t66 158.5q0 101 -63 159t-156 58q-99 0 -174.5 -67t-85.5 -173z" />
    <glyph glyph-name="uni2087" unicode="&#x2087;" horiz-adv-x="737" 
d="M90 -205l496 795h-566v108h707l2 -69l-498 -834h-141z" />
    <glyph glyph-name="uni2088" unicode="&#x2088;" horiz-adv-x="942" 
d="M471 -225q-194 0 -296.5 69t-102.5 197q0 95 73.5 161.5t182.5 78.5q-107 17 -163 70t-56 138q0 104 93.5 165t266.5 61q175 0 270 -61t95 -165q0 -85 -56.5 -138t-163.5 -70q109 -12 182.5 -78t73.5 -162q0 -128 -102.5 -197t-296.5 -69zM203 51q0 -186 268 -186
t268 186q0 84 -72.5 133t-195.5 49t-195.5 -49t-72.5 -133zM233 479q0 -71 63.5 -115.5t174.5 -44.5q112 0 174 44.5t62 115.5q0 68 -62.5 109t-173.5 41q-109 0 -173.5 -41t-64.5 -109z" />
    <glyph glyph-name="uni2089" unicode="&#x2089;" horiz-adv-x="907" 
d="M440 717q191 0 292.5 -126t101.5 -335q0 -213 -106.5 -347t-301.5 -134q-144 0 -239.5 78t-110.5 210h119q9 -93 71 -145.5t158 -52.5q137 0 208.5 101.5t74.5 273.5q0 43 -7 94q-26 -100 -113.5 -161.5t-203.5 -61.5q-132 0 -219.5 81.5t-87.5 215.5q0 139 100 224
t264 85zM207 410q0 -100 63 -157.5t156 -57.5q100 0 175 66t85 173q-55 193 -244 193q-103 0 -169 -58t-66 -159z" />
    <glyph glyph-name="Euro" unicode="&#x20ac;" horiz-adv-x="1781" 
d="M82 831v80h192q37 302 229 484t484 182q124 0 233 -35t199 -104t155 -179t95 -253h-168q-50 207 -186.5 316.5t-329.5 109.5q-220 0 -365 -143.5t-180 -377.5h723v-80h-729q-2 -16 -2 -49q0 -32 4 -98h727v-80h-714q21 -104 65 -192t109.5 -155.5t157.5 -105.5t200 -38
q214 0 356 139.5t181 370.5h165q-49 -311 -236 -483.5t-468 -172.5q-143 0 -265 48.5t-209 134.5t-144.5 201.5t-79.5 252.5h-199v80h188q-4 62 -4 94q0 35 2 53h-186z" />
    <glyph glyph-name="uni20B9" unicode="&#x20b9;" horiz-adv-x="1312" 
d="M844 0l-742 809v100h267q187 0 292.5 58t120.5 174h-680v80h680q-13 118 -104 171.5t-264 53.5h-312v104h1182l-14 -80h-500q157 -74 172 -249h268l-14 -80h-254q-18 -157 -159 -238.5t-361 -81.5h-150l766 -807v-14h-194z" />
    <glyph glyph-name="uni20BA" unicode="&#x20ba;" horiz-adv-x="1503" 
d="M330 0v260v248l-244 -107v88l244 107v152l-244 -107v88l244 107v454v260h178v-260v-375l627 275v-88l-627 -275v-151l627 274v-88l-627 -274v-461h311q237 0 351 117t114 372h156q0 -306 -162.5 -461t-458.5 -155h-489z" />
    <glyph glyph-name="uni20BF" unicode="&#x20bf;" horiz-adv-x="1306" 
d="M440 -348v348h-247v260v1030v260h247v348h82v-348h109h43v348h82v-354q191 -23 289 -111.5t98 -234.5q0 -144 -96.5 -237t-266.5 -115v-8q201 -19 313.5 -127t112.5 -281q0 -176 -114.5 -287t-335.5 -135v-356h-82v348h-49h-103v-348h-82zM360 131h269q203 0 305 79.5
t102 231.5q0 156 -109.5 242t-328.5 86h-238v-639zM360 897h232q184 0 284.5 74.5t100.5 206.5q0 241 -352 241h-265v-522z" />
    <glyph glyph-name="uni2113" unicode="&#x2113;" horiz-adv-x="1044" 
d="M631 1577q110 0 169.5 -73.5t59.5 -198.5q0 -167 -96.5 -329.5t-280.5 -301.5v-369q0 -209 109 -209q143 0 225 418l105 -22q-47 -256 -137.5 -387.5t-215.5 -131.5q-227 0 -227 326v279q-122 -74 -256 -132l-45 101q158 68 301 162v452q0 209 81.5 312.5t207.5 103.5z
M483 815q260 230 260 488q0 74 -26.5 122t-85.5 48q-70 0 -109 -75t-39 -229v-354z" />
    <glyph glyph-name="uni2116" unicode="&#x2116;" horiz-adv-x="1908" 
d="M1006 0l-670 1288v-1028v-260h-152v260v1030v260h164l668 -1280v1020v260h153v-260v-1290h-163zM1317 1303q0 116 75.5 191t194.5 75q121 0 197 -75t76 -191q0 -114 -76.5 -190.5t-196.5 -76.5q-119 0 -194.5 76.5t-75.5 190.5zM1423 1303q0 -75 45 -125t119 -50t120 50
t46 125q0 76 -46 125t-120 49t-119 -49t-45 -125z" />
    <glyph glyph-name="uni2117" unicode="&#x2117;" horiz-adv-x="815" 
d="M299 1079v41v221v54v8h117q131 0 131 -96q0 -99 -137 -99h-52v-88v-41v-2h-59v2zM98 1241q0 137 87 224t223 87t222.5 -87t86.5 -224q0 -138 -86.5 -225.5t-222.5 -87.5q-137 0 -223.5 87.5t-86.5 225.5zM156 1241q0 -115 68 -187.5t184 -72.5t183.5 72.5t67.5 187.5
q0 113 -67.5 185.5t-183.5 72.5t-184 -72.5t-68 -185.5zM358 1251h52q43 0 61 12.5t18 41.5q0 28 -18 39.5t-61 11.5h-52v-105z" />
    <glyph glyph-name="trademark" unicode="&#x2122;" horiz-adv-x="1425" 
d="M942 958l-209 451v-244v-192v-6h-90v6v194v195v182v8h113l211 -460l207 460h112v-8v-184v-195v-192v-6h-94v6v192v240l-205 -447h-45zM47 1473v79h502v-79q-78 2 -191 2h-8v-308v-194v-6h-100v6v194v308h-12q-113 0 -191 -2z" />
    <glyph glyph-name="estimated" unicode="&#x212e;" horiz-adv-x="1656" 
d="M854 -33q-157 0 -298 53t-246 146.5t-166.5 230.5t-61.5 297q0 157 62 292t167 226.5t246 143t297 51.5q199 0 360 -87.5t257 -251t104 -374.5h-1213v-501q203 -187 492 -187q374 0 592 301h57q-106 -161 -276 -250.5t-373 -89.5zM362 739h928v461q-183 168 -436 168
q-293 0 -492 -186v-443z" />
    <glyph glyph-name="oneeighth" unicode="&#x215b;" horiz-adv-x="1900" 
d="M258 653v260v402q-33 -55 -97.5 -91t-148.5 -42v108q109 6 192 80.5t93 188.5h92v-646v-260h-131zM102 0l1178 1550h154l-1176 -1550h-156zM1030 246q0 94 73.5 160.5t182.5 78.5q-107 17 -163 70.5t-56 138.5q0 104 93.5 165t266.5 61q175 0 270 -61t95 -165
q0 -85 -56 -138.5t-163 -70.5q109 -12 182.5 -77.5t73.5 -161.5q0 -128 -102.5 -197t-296.5 -69t-297 69t-103 197zM1161 256q0 -186 269 -186q268 0 268 186q0 84 -72.5 133t-195.5 49q-124 0 -196.5 -49t-72.5 -133zM1192 684q0 -71 63.5 -115.5t174.5 -44.5
q112 0 173.5 44.5t61.5 115.5q0 69 -62 109.5t-173 40.5q-110 0 -174 -41t-64 -109z" />
    <glyph glyph-name="threeeighths" unicode="&#x215c;" horiz-adv-x="2191" 
d="M442 633q-167 0 -268.5 84t-114.5 235h127q9 -107 77 -164t177 -57q115 0 175.5 53t60.5 129q0 174 -254 174h-82v89h82q108 0 166.5 43.5t58.5 111.5q0 64 -48 106t-155 42q-104 0 -171.5 -48.5t-82.5 -138.5h-127q19 131 123.5 207t270.5 76q154 0 239.5 -62.5
t85.5 -166.5q0 -78 -58 -133.5t-159 -75.5q115 -14 182.5 -71.5t67.5 -162.5q0 -116 -102.5 -193t-270.5 -77zM393 0l1178 1550h153l-1175 -1550h-156zM1321 246q0 94 73.5 160.5t182.5 78.5q-107 17 -163 70.5t-56 138.5q0 104 93.5 165t266.5 61q175 0 270 -61t95 -165
q0 -85 -56 -138.5t-163 -70.5q109 -12 182.5 -77.5t73.5 -161.5q0 -128 -103 -197t-297 -69t-296.5 69t-102.5 197zM1452 256q0 -186 268 -186q269 0 269 186q0 84 -72.5 133t-196.5 49q-123 0 -195.5 -49t-72.5 -133zM1483 684q0 -71 63 -115.5t174 -44.5q112 0 174 44.5
t62 115.5q0 68 -62.5 109t-173.5 41q-109 0 -173 -41t-64 -109z" />
    <glyph glyph-name="fiveeighths" unicode="&#x215d;" horiz-adv-x="2207" 
d="M449 635q-168 0 -273.5 84t-118.5 231h121q10 -106 80.5 -161.5t187.5 -55.5q116 0 176 63t60 160q0 108 -61.5 166t-159.5 58q-169 0 -254 -123l-105 39l78 463h596v-101h-508l-51 -307q99 117 283 117q141 0 228 -83.5t87 -232.5q0 -140 -97 -228.5t-269 -88.5zM410 0
l1177 1550h154l-1176 -1550h-155zM1337 246q0 94 73.5 160.5t182.5 78.5q-107 17 -163 70.5t-56 138.5q0 104 94 165t267 61q175 0 269.5 -61t94.5 -165q0 -85 -56 -138.5t-163 -70.5q109 -12 182.5 -77.5t73.5 -161.5q0 -128 -102.5 -197t-296.5 -69t-297 69t-103 197z
M1468 256q0 -186 269 -186q268 0 268 186q0 84 -72.5 133t-195.5 49q-124 0 -196.5 -49t-72.5 -133zM1499 684q0 -71 63.5 -115.5t174.5 -44.5q112 0 173.5 44.5t61.5 115.5q0 69 -62 109.5t-173 40.5q-109 0 -173.5 -41t-64.5 -109z" />
    <glyph glyph-name="seveneighths" unicode="&#x215e;" horiz-adv-x="1943" 
d="M90 655l496 795h-566v109h707l2 -70l-498 -834h-141zM145 0l1178 1550h154l-1176 -1550h-156zM1073 246q0 94 73.5 160.5t182.5 78.5q-107 17 -163 70.5t-56 138.5q0 104 93.5 165t266.5 61q175 0 270 -61t95 -165q0 -85 -56 -138.5t-163 -70.5q109 -12 182.5 -77.5
t73.5 -161.5q0 -128 -102.5 -197t-296.5 -69t-297 69t-103 197zM1204 256q0 -186 269 -186q268 0 268 186q0 84 -72.5 133t-195.5 49q-124 0 -196.5 -49t-72.5 -133zM1235 684q0 -71 63.5 -115.5t174.5 -44.5q112 0 173.5 44.5t61.5 115.5q0 69 -62 109.5t-173 40.5
q-109 0 -173.5 -41t-64.5 -109z" />
    <glyph glyph-name="arrowleft" unicode="&#x2190;" horiz-adv-x="1470" 
d="M715 61l-625 469l625 469l61 -73l-477 -346h1071v-99h-1071l477 -348z" />
    <glyph glyph-name="arrowup" unicode="&#x2191;" horiz-adv-x="1122" 
d="M1030 643l-72 -61l-348 477v-1071h-98v1071l-346 -477l-74 61l469 625z" />
    <glyph glyph-name="arrowright" unicode="&#x2192;" horiz-adv-x="1470" 
d="M756 61l-62 72l477 348h-1071v99h1071l-477 346l62 73l624 -469z" />
    <glyph glyph-name="arrowdown" unicode="&#x2193;" horiz-adv-x="1126" 
d="M1032 600l-469 -625l-469 625l74 62l346 -478v1071h98v-1071l349 478z" />
    <glyph glyph-name="arrowboth" unicode="&#x2194;" horiz-adv-x="1697" 
d="M684 61l-596 469l596 469l59 -73l-452 -346h1116l-453 346l62 73l594 -469l-594 -469l-62 72l449 348h-1108l448 -348z" />
    <glyph glyph-name="arrowupdn" unicode="&#x2195;" horiz-adv-x="1142" 
d="M102 926l469 596l469 -596l-73 -60l-346 453v-1116l346 452l73 -61l-469 -594l-469 594l72 61l348 -448v1108l-348 -449z" />
    <glyph glyph-name="uni2196" unicode="&#x2196;" horiz-adv-x="1085" 
d="M201 182l-109 774l772 -110l-8 -96l-584 94l758 -758l-67 -70l-760 760l92 -586z" />
    <glyph glyph-name="uni2197" unicode="&#x2197;" horiz-adv-x="1085" 
d="M883 182l-95 8l91 584l-758 -758l-70 70l760 758l-584 -94l-8 96l772 110z" />
    <glyph glyph-name="uni2198" unicode="&#x2198;" horiz-adv-x="1089" 
d="M887 807l110 -774l-774 110l10 97l582 -93l-758 756l70 70l758 -758l-92 584z" />
    <glyph glyph-name="uni2199" unicode="&#x2199;" horiz-adv-x="1089" 
d="M203 803l94 -6l-92 -584l758 758l69 -70l-760 -760l584 95l8 -97l-772 -108z" />
    <glyph glyph-name="partialdiff" unicode="&#x2202;" horiz-adv-x="1306" 
d="M578 -35q-220 0 -346 128t-126 347q0 167 73.5 296t194.5 196t265 67q140 0 243.5 -65.5t149.5 -181.5q-2 145 -43.5 265t-123 212.5t-211.5 148t-300 64.5l29 127q175 -8 315.5 -58.5t232.5 -128.5t154 -183.5t88.5 -218t26.5 -235.5q0 -120 -23.5 -232t-73.5 -212
t-121.5 -174.5t-175.5 -118t-228 -43.5zM283 438q0 -165 83 -254.5t226 -89.5q91 0 165 34.5t124.5 95.5t83 137.5t49.5 168.5q3 164 -91 257.5t-243 93.5q-173 0 -285 -122.5t-112 -320.5z" />
    <glyph glyph-name="uni2206" unicode="&#x2206;" horiz-adv-x="1259" 
d="M18 0v123l523 1427h170l530 -1427v-123h-1223zM186 133h887l-440 1247z" />
    <glyph glyph-name="product" unicode="&#x220f;" horiz-adv-x="1536" 
d="M350 1415h-289v135h1414v-135h-289v-1755h-168v1755h-500v-1755h-168v1755z" />
    <glyph glyph-name="summation" unicode="&#x2211;" horiz-adv-x="1193" 
d="M47 -211v156l615 762l-588 708v135h1056v-133q-184 6 -456 6l-426 -2l567 -686v-55l-616 -760h938v-131h-1090z" />
    <glyph glyph-name="minus" unicode="&#x2212;" horiz-adv-x="1173" 
d="M127 465v129h920v-129h-920z" />
    <glyph glyph-name="uni2219" unicode="&#x2219;" horiz-adv-x="1183" 
d="M594 594q-84 0 -141.5 57.5t-57.5 141.5q0 82 57.5 139t141.5 57q82 0 139.5 -57t57.5 -139q0 -83 -57.5 -141t-139.5 -58z" />
    <glyph glyph-name="radical" unicode="&#x221a;" horiz-adv-x="1267" 
d="M571 -340l-319 971h-217v106h313l285 -903l624 1905h117l-694 -2079h-109z" />
    <glyph glyph-name="infinity" unicode="&#x221e;" horiz-adv-x="2013" 
d="M1518 115q-129 0 -238.5 70t-271.5 249q-164 -180 -273 -249.5t-239 -69.5q-54 0 -103.5 13.5t-95.5 45t-80 78.5t-54 118t-20 160q0 109 30 192t82 130.5t113 70.5t130 23q87 0 164.5 -34t154 -99.5t191.5 -189.5q170 183 276 253t232 70q70 0 131 -23t112 -70.5
t81 -130.5t30 -192q0 -89 -20 -160t-53 -118t-79 -78.5t-95.5 -45t-104.5 -13.5zM268 530q0 -84 20.5 -144t56 -91t75 -45t86.5 -14q93 0 173 55.5t208 197.5l37 41l-37 41q-126 142 -206.5 198t-172.5 56q-47 0 -87 -14t-76 -45.5t-56.5 -91.5t-20.5 -144zM1090 528l36 -39
q128 -142 208 -197.5t173 -55.5q47 0 87 14t75.5 45t55.5 91t20 144t-20 144t-56 91.5t-76 45.5t-88 14q-92 0 -172.5 -56t-206.5 -198z" />
    <glyph glyph-name="integral" unicode="&#x222b;" horiz-adv-x="788" 
d="M-82 -393v123h100q136 0 194.5 66t70.5 233l94 1241q15 223 103 321.5t276 98.5h114v-123h-79q-136 0 -194.5 -65t-70.5 -232l-92 -1241q-17 -224 -105 -323t-276 -99h-135z" />
    <glyph glyph-name="approxequal" unicode="&#x2248;" horiz-adv-x="1198" 
d="M92 559q0 155 73 240.5t202 85.5q58 0 110 -20t91.5 -48.5t78.5 -56.5t87.5 -48t101.5 -20q145 0 145 193h127q0 -156 -73.5 -241t-203.5 -85q-60 0 -113 20t-93 48.5t-79 56.5t-86 48t-98 20q-143 0 -143 -193h-127zM92 139q0 155 73 240.5t202 85.5q58 0 110 -20
t91.5 -48.5t78.5 -56.5t87.5 -48t101.5 -20q145 0 145 193h127q0 -156 -73.5 -241t-203.5 -85q-60 0 -113 20t-93 48.5t-79 56.5t-86 48t-98 20q-143 0 -143 -193h-127z" />
    <glyph glyph-name="notequal" unicode="&#x2260;" horiz-adv-x="1173" 
d="M266 -47l-57 29l180 307h-262v127h336l135 231h-471v125h545l198 340l58 -31l-183 -309h302v-125h-373l-137 -231h510v-127h-584z" />
    <glyph glyph-name="lessequal" unicode="&#x2264;" horiz-adv-x="1175" 
d="M1036 182l-921 324v96l921 326v-127l-737 -246l737 -248v-125zM115 0v115h921v-115h-921z" />
    <glyph glyph-name="greaterequal" unicode="&#x2265;" horiz-adv-x="1175" 
d="M139 182v125l738 248l-738 246v127l922 -326v-96zM139 0v115h922v-115h-922z" />
    <glyph glyph-name="uni2460" unicode="&#x2460;" horiz-adv-x="1898" 
d="M950 -20q-246 0 -437 101t-296.5 285t-105.5 422q0 236 105.5 419.5t296.5 284.5t437 101q184 0 340.5 -59t265.5 -164t170.5 -255t61.5 -327q0 -178 -61.5 -328.5t-170.5 -256t-265 -164.5t-341 -59zM197 788q0 -160 55.5 -296t153.5 -231t238.5 -148.5t305.5 -53.5
t305 53.5t238.5 148.5t153.5 231t55 296q0 213 -94.5 378.5t-266 257.5t-391.5 92t-392 -92t-266.5 -257.5t-94.5 -378.5zM659 868v109q109 6 192 80t93 188h92v-645v-260h-131v260v401q-33 -55 -97.5 -91t-148.5 -42z" />
    <glyph glyph-name="uni2461" unicode="&#x2461;" horiz-adv-x="1898" 
d="M950 -20q-246 0 -437 101t-296.5 285t-105.5 422q0 236 105.5 419.5t296.5 284.5t437 101q184 0 340.5 -59t265.5 -164t170.5 -255t61.5 -327q0 -178 -61.5 -328.5t-170.5 -256t-265 -164.5t-341 -59zM197 788q0 -160 55.5 -296t153.5 -231t238.5 -148.5t305.5 -53.5
t305 53.5t238.5 148.5t153.5 231t55 296q0 213 -94.5 378.5t-266 257.5t-391.5 92t-392 -92t-266.5 -257.5t-94.5 -378.5zM582 911q5 152 105.5 254.5t281.5 102.5q144 0 229.5 -67t85.5 -189q0 -104 -68.5 -173t-207.5 -141q-56 -30 -84.5 -46.5t-70.5 -43.5t-62.5 -48
t-38.5 -50t-21 -59h584v-105h-729v23q0 72 26 133.5t74.5 109.5t99 82.5t117.5 69.5q136 72 193 124.5t57 119.5q0 78 -51 118.5t-139 40.5q-120 0 -186 -72.5t-66 -183.5h-129z" />
    <glyph glyph-name="uni2462" unicode="&#x2462;" horiz-adv-x="1898" 
d="M950 -20q-246 0 -437 101t-296.5 285t-105.5 422q0 236 105.5 419.5t296.5 284.5t437 101q184 0 340.5 -59t265.5 -164t170.5 -255t61.5 -327q0 -178 -61.5 -328.5t-170.5 -256t-265 -164.5t-341 -59zM197 788q0 -160 55.5 -296t153.5 -231t238.5 -148.5t305.5 -53.5
t305 53.5t238.5 148.5t153.5 231t55 296q0 213 -94.5 378.5t-266 257.5t-391.5 92t-392 -92t-266.5 -257.5t-94.5 -378.5zM569 641h127q9 -107 77 -164t177 -57q115 0 175.5 53t60.5 129q0 174 -254 174h-82v88h82q108 0 166.5 44t58.5 112q0 64 -48 105.5t-155 41.5
q-104 0 -171.5 -48t-82.5 -138h-127q19 131 123.5 207t270.5 76q154 0 239.5 -63t85.5 -167q0 -78 -58 -133.5t-159 -75.5q115 -14 182.5 -71t67.5 -162q0 -116 -102.5 -193t-270.5 -77q-167 0 -268.5 84t-114.5 235z" />
    <glyph glyph-name="uni2463" unicode="&#x2463;" horiz-adv-x="1898" 
d="M950 -20q-246 0 -437 101t-296.5 285t-105.5 422q0 236 105.5 419.5t296.5 284.5t437 101q184 0 340.5 -59t265.5 -164t170.5 -255t61.5 -327q0 -178 -61.5 -328.5t-170.5 -256t-265 -164.5t-341 -59zM197 788q0 -160 55.5 -296t153.5 -231t238.5 -148.5t305.5 -53.5
t305 53.5t238.5 148.5t153.5 231t55 296q0 213 -94.5 378.5t-266 257.5t-391.5 92t-392 -92t-266.5 -257.5t-94.5 -378.5zM504 541v86l534 618h121v-606h174v-98h-174v-13v-186v-10h-131v10v186v13h-524zM641 639h387v457z" />
    <glyph glyph-name="uni2464" unicode="&#x2464;" horiz-adv-x="1898" 
d="M950 -20q-246 0 -437 101t-296.5 285t-105.5 422q0 236 105.5 419.5t296.5 284.5t437 101q184 0 340.5 -59t265.5 -164t170.5 -255t61.5 -327q0 -178 -61.5 -328.5t-170.5 -256t-265 -164.5t-341 -59zM197 788q0 -160 55.5 -296t153.5 -231t238.5 -148.5t305.5 -53.5
t305 53.5t238.5 148.5t153.5 231t55 296q0 213 -94.5 378.5t-266 257.5t-391.5 92t-392 -92t-266.5 -257.5t-94.5 -378.5zM563 637h121q10 -106 80.5 -161.5t187.5 -55.5q116 0 176 63t60 160q0 108 -61.5 165.5t-159.5 57.5q-169 0 -254 -123l-105 39l78 463h596v-100h-508
l-51 -307q99 116 283 116q142 0 228.5 -83t86.5 -232q0 -139 -97.5 -228t-269.5 -89q-168 0 -273 84t-118 231z" />
    <glyph glyph-name="uni2465" unicode="&#x2465;" horiz-adv-x="1898" 
d="M950 -20q-246 0 -437 101t-296.5 285t-105.5 422q0 236 105.5 419.5t296.5 284.5t437 101q184 0 340.5 -59t265.5 -164t170.5 -255t61.5 -327q0 -178 -61.5 -328.5t-170.5 -256t-265 -164.5t-341 -59zM197 788q0 -160 55.5 -296t153.5 -231t238.5 -148.5t305.5 -53.5
t305 53.5t238.5 148.5t153.5 231t55 296q0 213 -94.5 378.5t-266 257.5t-391.5 92t-392 -92t-266.5 -257.5t-94.5 -378.5zM559 784q0 213 106.5 347.5t301.5 134.5q143 0 238 -78t112 -211h-119q-9 93 -71.5 146t-159.5 53q-135 0 -206.5 -101.5t-76.5 -273.5q0 -53 8 -94
q25 100 113 161.5t205 61.5q132 0 219.5 -81.5t87.5 -215.5q0 -138 -100.5 -223.5t-264.5 -85.5q-191 0 -292 125.5t-101 334.5zM707 608q55 -194 243 -194q103 0 169.5 58.5t66.5 158.5q0 101 -63 159t-156 58q-99 0 -174.5 -67t-85.5 -173z" />
    <glyph glyph-name="uni2466" unicode="&#x2466;" horiz-adv-x="1898" 
d="M950 -20q-246 0 -437 101t-296.5 285t-105.5 422q0 236 105.5 419.5t296.5 284.5t437 101q184 0 340.5 -59t265.5 -164t170.5 -255t61.5 -327q0 -178 -61.5 -328.5t-170.5 -256t-265 -164.5t-341 -59zM197 788q0 -160 55.5 -296t153.5 -231t238.5 -148.5t305.5 -53.5
t305 53.5t238.5 148.5t153.5 231t55 296q0 213 -94.5 378.5t-266 257.5t-391.5 92t-392 -92t-266.5 -257.5t-94.5 -378.5zM604 1100v108h707l2 -69l-498 -834h-141l495 795h-565z" />
    <glyph glyph-name="uni2467" unicode="&#x2467;" horiz-adv-x="1898" 
d="M950 -20q-246 0 -437 101t-296.5 285t-105.5 422q0 236 105.5 419.5t296.5 284.5t437 101q184 0 340.5 -59t265.5 -164t170.5 -255t61.5 -327q0 -178 -61.5 -328.5t-170.5 -256t-265 -164.5t-341 -59zM197 788q0 -160 55.5 -296t153.5 -231t238.5 -148.5t305.5 -53.5
t305 53.5t238.5 148.5t153.5 231t55 296q0 213 -94.5 378.5t-266 257.5t-391.5 92t-392 -92t-266.5 -257.5t-94.5 -378.5zM551 590q0 94 73.5 160.5t182.5 78.5q-107 17 -163 70.5t-56 138.5q0 104 93.5 165t266.5 61q175 0 270 -61t95 -165q0 -85 -56 -138.5t-163 -70.5
q109 -12 182.5 -77.5t73.5 -161.5q0 -128 -103 -197t-297 -69t-296.5 69t-102.5 197zM682 600q0 -186 268 -186q269 0 269 186q0 84 -72.5 133t-196.5 49q-123 0 -195.5 -49t-72.5 -133zM713 1028q0 -71 63 -115.5t174 -44.5q112 0 174 44.5t62 115.5q0 68 -62.5 109
t-173.5 41q-109 0 -173 -41t-64 -109z" />
    <glyph glyph-name="uni2468" unicode="&#x2468;" horiz-adv-x="1898" 
d="M950 -20q-246 0 -437 101t-296.5 285t-105.5 422q0 236 105.5 419.5t296.5 284.5t437 101q184 0 340.5 -59t265.5 -164t170.5 -255t61.5 -327q0 -178 -61.5 -328.5t-170.5 -256t-265 -164.5t-341 -59zM197 788q0 -160 55.5 -296t153.5 -231t238.5 -148.5t305.5 -53.5
t305 53.5t238.5 148.5t153.5 231t55 296q0 213 -94.5 378.5t-266 257.5t-391.5 92t-392 -92t-266.5 -257.5t-94.5 -378.5zM571 606h119q9 -93 71.5 -145.5t158.5 -52.5q136 0 207.5 101t74.5 273q0 52 -6 95q-26 -100 -114 -162t-203 -62q-132 0 -220 81.5t-88 215.5
q0 140 100.5 225t264.5 85q191 0 292 -126t101 -335q0 -139 -45 -246.5t-138.5 -171.5t-223.5 -64q-144 0 -240 78t-111 211zM702 952q0 -100 63 -157.5t157 -57.5q100 0 175 66.5t85 173.5q-55 192 -244 192q-103 0 -169.5 -58t-66.5 -159z" />
    <glyph glyph-name="uni24EA" unicode="&#x24ea;" horiz-adv-x="1898" 
d="M950 -20q-246 0 -437 101t-296.5 285t-105.5 422q0 236 105.5 419.5t296.5 284.5t437 101q184 0 340.5 -59t265.5 -164t170.5 -255t61.5 -327q0 -178 -61.5 -328.5t-170.5 -256t-265 -164.5t-341 -59zM197 788q0 -160 55.5 -296t153.5 -231t238.5 -148.5t305.5 -53.5
t305 53.5t238.5 148.5t153.5 231t55 296q0 213 -94.5 378.5t-266 257.5t-391.5 92t-392 -92t-266.5 -257.5t-94.5 -378.5zM539 791q0 222 108.5 347.5t302.5 125.5t303 -125.5t109 -347.5q0 -219 -109 -344t-303 -125t-302.5 125t-108.5 344zM668 791q0 -177 74.5 -272
t207.5 -95t208 95t75 272q0 178 -74.5 273t-208.5 95q-133 0 -207.5 -95t-74.5 -273z" />
    <glyph glyph-name="uni24FF" unicode="&#x24ff;" horiz-adv-x="1898" 
d="M950 -20q185 0 341 59t265 164.5t170.5 256t61.5 328.5q0 177 -61.5 327t-170.5 255t-265.5 164t-340.5 59q-246 0 -437 -101t-296.5 -284.5t-105.5 -419.5q0 -238 105.5 -422t296.5 -285t437 -101zM539 795q0 222 108.5 347.5t302.5 125.5t303 -125.5t109 -347.5
q0 -219 -109 -344t-303 -125t-302.5 125t-108.5 344zM668 795q0 -177 74.5 -272t207.5 -95t208 95t75 272q0 178 -74.5 273t-208.5 95q-133 0 -207.5 -95t-74.5 -273z" />
    <glyph glyph-name="lozenge" unicode="&#x25ca;" horiz-adv-x="1153" 
d="M547 0l-445 776l445 774h59l445 -774l-445 -776h-59zM211 776l364 -643l367 643l-364 641z" />
    <glyph glyph-name="circle" unicode="&#x25cb;" horiz-adv-x="1898" 
d="M950 -20q-246 0 -437 101t-296.5 285t-105.5 422q0 236 105.5 419.5t296.5 284.5t437 101q184 0 340.5 -59t265.5 -164t170.5 -255t61.5 -327q0 -178 -61.5 -328.5t-170.5 -256t-265 -164.5t-341 -59zM197 788q0 -160 55.5 -296t153.5 -231t238.5 -148.5t305.5 -53.5
t305 53.5t238.5 148.5t153.5 231t55 296q0 213 -94.5 378.5t-266 257.5t-391.5 92t-392 -92t-266.5 -257.5t-94.5 -378.5z" />
    <glyph glyph-name="uni25CF" unicode="&#x25cf;" horiz-adv-x="1898" 
d="M950 -20q185 0 341 59t265 164.5t170.5 256t61.5 328.5q0 177 -61.5 327t-170.5 255t-265.5 164t-340.5 59q-246 0 -437 -101t-296.5 -284.5t-105.5 -419.5q0 -238 105.5 -422t296.5 -285t437 -101z" />
    <glyph glyph-name="uni2733" unicode="&#x2733;" horiz-adv-x="1593" 
d="M346 223l-104 103l479 419l-633 -43v148l633 -43l-479 418l104 102l420 -479l-43 637h147l-45 -637l420 479l105 -102l-478 -418l633 43v-148l-633 43l478 -419l-105 -103l-420 479l45 -634h-147l43 634z" />
    <glyph glyph-name="uni2776" unicode="&#x2776;" horiz-adv-x="1898" 
d="M950 -20q185 0 341 59t265 164.5t170.5 256t61.5 328.5q0 177 -61.5 327t-170.5 255t-265.5 164t-340.5 59q-246 0 -437 -101t-296.5 -284.5t-105.5 -419.5q0 -238 105.5 -422t296.5 -285t437 -101zM655 872v109q109 6 192 80t93 188h92v-645v-260h-131v260v402
q-33 -56 -97.5 -92t-148.5 -42z" />
    <glyph glyph-name="uni2777" unicode="&#x2777;" horiz-adv-x="1898" 
d="M950 -20q185 0 341 59t265 164.5t170.5 256t61.5 328.5q0 177 -61.5 327t-170.5 255t-265.5 164t-340.5 59q-246 0 -437 -101t-296.5 -284.5t-105.5 -419.5q0 -238 105.5 -422t296.5 -285t437 -101zM584 909q5 152 105.5 254.5t281.5 102.5q144 0 229.5 -67t85.5 -189
q0 -104 -68.5 -173t-207.5 -141q-56 -30 -84.5 -46.5t-70.5 -43.5t-62.5 -48t-38.5 -50t-21 -59h584v-105h-729v23q0 72 26 133.5t74.5 109.5t99 82.5t117.5 69.5q136 72 193 124.5t57 119.5q0 78 -51 118.5t-139 40.5q-120 0 -186 -72.5t-66 -183.5h-129z" />
    <glyph glyph-name="uni2778" unicode="&#x2778;" horiz-adv-x="1898" 
d="M950 -20q185 0 341 59t265 164.5t170.5 256t61.5 328.5q0 177 -61.5 327t-170.5 255t-265.5 164t-340.5 59q-246 0 -437 -101t-296.5 -284.5t-105.5 -419.5q0 -238 105.5 -422t296.5 -285t437 -101zM569 637h127q9 -107 77 -164t177 -57q115 0 175.5 53t60.5 129
q0 174 -254 174h-82v88h82q108 0 166.5 44t58.5 112q0 64 -48 105.5t-155 41.5q-104 0 -171.5 -48t-82.5 -138h-127q19 131 123.5 207t270.5 76q154 0 239.5 -63t85.5 -167q0 -78 -58 -133.5t-159 -75.5q115 -14 182.5 -71t67.5 -162q0 -117 -102.5 -194t-270.5 -77
q-167 0 -268 84.5t-115 235.5z" />
    <glyph glyph-name="uni2779" unicode="&#x2779;" horiz-adv-x="1898" 
d="M950 -20q185 0 341 59t265 164.5t170.5 256t61.5 328.5q0 177 -61.5 327t-170.5 255t-265.5 164t-340.5 59q-246 0 -437 -101t-296.5 -284.5t-105.5 -419.5q0 -238 105.5 -422t296.5 -285t437 -101zM485 559v86l535 619h121v-607h174v-98h-174v-12v-187v-10h-131v10v187
v12h-525zM623 657h387v457z" />
    <glyph glyph-name="uni277A" unicode="&#x277a;" horiz-adv-x="1898" 
d="M950 -20q185 0 341 59t265 164.5t170.5 256t61.5 328.5q0 177 -61.5 327t-170.5 255t-265.5 164t-340.5 59q-246 0 -437 -101t-296.5 -284.5t-105.5 -419.5q0 -238 105.5 -422t296.5 -285t437 -101zM569 639h121q10 -106 80.5 -161.5t187.5 -55.5q116 0 176 63t60 160
q0 108 -61.5 165.5t-159.5 57.5q-169 0 -254 -123l-105 39l78 463h596v-100h-508l-51 -307q99 116 283 116q142 0 228.5 -83t86.5 -232q0 -140 -97 -228.5t-269 -88.5q-168 0 -273.5 84t-118.5 231z" />
    <glyph glyph-name="uni277B" unicode="&#x277b;" horiz-adv-x="1898" 
d="M950 -20q185 0 341 59t265 164.5t170.5 256t61.5 328.5q0 177 -61.5 327t-170.5 255t-265.5 164t-340.5 59q-246 0 -437 -101t-296.5 -284.5t-105.5 -419.5q0 -238 105.5 -422t296.5 -285t437 -101zM561 782q0 213 106.5 347.5t301.5 134.5q143 0 238 -78t112 -211h-119
q-9 93 -71.5 146t-159.5 53q-135 0 -206.5 -101.5t-76.5 -273.5q0 -53 8 -94q25 100 113 161.5t205 61.5q132 0 219.5 -81.5t87.5 -215.5q0 -138 -100.5 -223.5t-264.5 -85.5q-191 0 -292 125.5t-101 334.5zM709 606q55 -194 243 -194q103 0 169.5 58.5t66.5 158.5
q0 101 -63 159t-156 58q-99 0 -174.5 -67t-85.5 -173z" />
    <glyph glyph-name="uni277C" unicode="&#x277c;" horiz-adv-x="1898" 
d="M950 -20q185 0 341 59t265 164.5t170.5 256t61.5 328.5q0 177 -61.5 327t-170.5 255t-265.5 164t-340.5 59q-246 0 -437 -101t-296.5 -284.5t-105.5 -419.5q0 -238 105.5 -422t296.5 -285t437 -101zM604 1100v108h707l2 -69l-498 -834h-141l495 795h-565z" />
    <glyph glyph-name="uni277D" unicode="&#x277d;" horiz-adv-x="1898" 
d="M950 -20q185 0 341 59t265 164.5t170.5 256t61.5 328.5q0 177 -61.5 327t-170.5 255t-265.5 164t-340.5 59q-246 0 -437 -101t-296.5 -284.5t-105.5 -419.5q0 -238 105.5 -422t296.5 -285t437 -101zM551 565q0 95 73.5 161.5t182.5 78.5q-107 17 -163 70.5t-56 138.5
q0 104 93.5 164.5t266.5 60.5q175 0 270 -61t95 -164q0 -85 -56 -138.5t-163 -70.5q109 -12 182.5 -78t73.5 -162q0 -128 -103 -197t-297 -69t-296.5 69t-102.5 197zM682 575q0 -186 268 -186q269 0 269 186q0 84 -73 133.5t-196 49.5t-195.5 -49t-72.5 -134zM713 1004
q0 -71 63 -115.5t174 -44.5q112 0 174 44.5t62 115.5q0 68 -62.5 108.5t-173.5 40.5q-110 0 -173.5 -40.5t-63.5 -108.5z" />
    <glyph glyph-name="uni277E" unicode="&#x277e;" horiz-adv-x="1898" 
d="M950 -20q185 0 341 59t265 164.5t170.5 256t61.5 328.5q0 177 -61.5 327t-170.5 255t-265.5 164t-340.5 59q-246 0 -437 -101t-296.5 -284.5t-105.5 -419.5q0 -238 105.5 -422t296.5 -285t437 -101zM575 600h119q9 -93 71.5 -146t158.5 -53q136 0 207.5 101.5t74.5 273.5
q0 50 -6 94q-26 -100 -113.5 -161.5t-203.5 -61.5q-132 0 -220 81.5t-88 215.5q0 139 100.5 224t264.5 85q191 0 292 -125.5t101 -334.5q0 -139 -45 -246.5t-138.5 -171.5t-223.5 -64q-144 0 -240 78t-111 211zM707 946q0 -100 63 -157.5t156 -57.5q100 0 175 66.5t85 173.5
q-55 192 -244 192q-103 0 -169 -58t-66 -159z" />
    <glyph glyph-name="uni3010" unicode="&#x3010;" horiz-adv-x="796" 
d="M168 -276v1945h520q-225 -179 -334.5 -416.5t-109.5 -550.5t109.5 -554t334.5 -424h-520z" />
    <glyph glyph-name="uni3011" unicode="&#x3011;" horiz-adv-x="796" 
d="M629 1669v-1945h-520q225 179 334.5 416.5t109.5 549.5q0 313 -109.5 554.5t-334.5 424.5h520z" />
    <glyph glyph-name="uni3016" unicode="&#x3016;" horiz-adv-x="927" 
d="M168 -279v1948h651q-218 -179 -324 -416.5t-106 -550.5q0 -319 106 -561.5t324 -419.5h-651zM229 -227h457q-183 176 -270.5 404t-87.5 525q0 292 87.5 517t270.5 397h-457v-1843z" />
    <glyph glyph-name="uni3017" unicode="&#x3017;" horiz-adv-x="927" 
d="M109 -279q218 177 324 419.5t106 561.5q0 313 -106 550.5t-324 416.5h651v-1948h-651zM242 -227h456v1843h-456q183 -172 270.5 -397t87.5 -517q0 -297 -87.5 -525t-270.5 -404z" />
    <glyph glyph-name="fi" unicode="&#xfb01;" horiz-adv-x="1196" 
d="M240 0v260v619h-215v118h215v133q0 105 20.5 188t57 138t87.5 91.5t110 52.5t128 16q175 0 277 -102.5t122 -262.5h-151q-16 111 -76 177.5t-168 66.5q-241 0 -241 -328v-170h647v-737v-260h-166v260v619h-481v-619v-260h-166z" />
    <glyph glyph-name="u1F150" unicode="&#x1f150;" horiz-adv-x="1179" 
d="M590 707q-184 0 -310 125t-126 311q0 185 126 309.5t310 124.5q183 0 308.5 -124.5t125.5 -309.5q0 -186 -125.5 -311t-308.5 -125z" />
    <glyph glyph-name="u1F446" unicode="&#x1f446;" horiz-adv-x="1894" 
d="M205 565q-7 82 39 133q25 28 57.5 46t44.5 30q4 12 -1 43t-3 51q10 72 71.5 117t127.5 6q-14 68 28 129.5t109 71.5q68 11 124 -35.5t93 -120.5q3 84 3.5 170.5t-0.5 205t-1 167.5q0 125 4 186q0 50 29 97q1 16 5 31.5t14 34t31.5 29t51.5 9.5q21 -1 35.5 -7.5t25 -22
t14 -24t11.5 -30.5q40 -40 49 -135q4 -50 13 -215q10 -206 49 -606q29 113 96 180q63 63 178 86q71 13 117 0q12 19 27.5 28.5t28 4t14.5 -28.5q3 -51 -30 -128t-71 -138q-30 -47 -45 -78q-18 -48 -31 -125q-23 -128 -28 -227q-11 -148 -36.5 -244t-84.5 -195
q-23 -39 -58 -84.5t-59 -83t-37 -79.5q-33 -112 -43 -162q55 -1 70.5 -33t9.5 -117q-4 -38 -6 -80.5t-3.5 -94.5t-2.5 -81q-28 -27 -65 -46t-81 -29t-75.5 -14.5t-75.5 -8.5q-224 -15 -346 10q-33 7 -55 12.5t-55 16.5t-56 23t-46.5 31.5t-37.5 43.5q-10 16 -14 31t-4 22.5
t2.5 29t3.5 30.5l8 108q2 33 12 74l8 33q3 6 8.5 18.5t11 22t11.5 14.5q10 13 25 17q-8 43 -20 84t-33.5 103.5t-28.5 84.5q-57 172 -70 319q-2 21 -3 75t-7 81q-4 25 -24.5 67t-22.5 66zM240 590q0 -55 39 -127q79 -159 196 -172q-3 19 28 56t60 40q0 6 -4 10
q-89 93 -119 172q-5 14 -15.5 44t-17.5 48t-20 41.5t-29 40.5q-52 -31 -59 -38q-59 -59 -59 -115zM287 387q3 -107 18 -188q6 -30 51 -217q10 -43 39 -119t45.5 -141.5t12.5 -127.5q164 -58 356 -65q204 -8 340 57q-1 20 -1.5 34.5t0 30t0.5 23.5t3 24t3.5 21t6 25t7.5 25.5
t10.5 32.5t11.5 38q14 45 38.5 84.5t57 80t43.5 58.5q36 55 64 134q50 143 59 319q5 82 27 207q15 110 47 176q4 7 18 29t17 33q-20 25 -14 64.5t22 73.5t37 62q-31 4 -70 0q-86 -8 -154 -53t-100 -117q-34 -73 -63 -178q-4 -15 -15.5 -83t-27.5 -101l-37 -99h-11
q3 27 19 67.5t20 55.5q9 35 9 68q0 20 4 41.5t11.5 52t10.5 43.5q-6 109 -23 296.5t-22 260.5q-18 238 -18 240q-2 118 -23.5 167t-79.5 50q-53 2 -80.5 -38t-27.5 -122v-428q0 -257 -6 -342q0 -10 -2 -39.5t-2 -43t2 -36t8 -41.5q6 -21 31.5 -62t33.5 -67
q10 -32 15.5 -66.5t2.5 -69t-18 -48.5q-27 -27 -76.5 -21t-70.5 37q-23 -62 -34.5 -99.5t-21.5 -94.5t-6 -107q5 -75 35 -138.5t86 -92.5v-12q-63 29 -98 94t-43 143q-11 129 47 318l-37 22q5 -76 -49 -127t-127 -18q9 -42 -16 -78q-32 -29 -79.5 -35t-82.5 10
q-75 33 -133 117zM373 846q0 -11 5 -36t3 -40q34 -37 64 -119.5t51 -111.5q5 -7 18.5 -27.5t21.5 -31.5t20.5 -27t25.5 -27t26 -18q-7 20 4 38q15 23 101 48q22 7 26 2q7 39 -6 57q-47 62 -84 182t-63 164q-50 82 -115 76q-42 -6 -70 -40t-28 -89zM575 1067q-4 -12 -6 -23
t0.5 -23.5t3.5 -19t9 -21.5t9.5 -18t12.5 -21t12 -19q23 -36 39.5 -88.5t25.5 -94t31 -89.5t56 -81q38 -38 66 -45q-7 12 -3 29.5t17 24.5l63 36q38 21 58 19q-13 33 -25 45q-54 64 -70 131q-15 56 -22 152h16q11 -58 17 -84q0 27 10 135q-124 204 -248 139q-49 -25 -72 -84
z" />
    <glyph glyph-name="u1F447" unicode="&#x1f447;" horiz-adv-x="1894" 
d="M205 541q2 24 22.5 66t24.5 67q6 27 7 80.5t3 74.5q13 149 70 320q7 22 28.5 84.5t33.5 103.5t20 84q-15 4 -25 17q-6 5 -11.5 14.5t-11 22t-8.5 18.5l-8 33q-10 42 -12 73l-8 109q-1 10 -3 25.5t-2.5 23t0.5 19t5 22t12 23.5q14 24 37.5 43.5t46.5 31.5t56 23t55 16.5
t55 12.5q122 25 346 10q44 -4 75.5 -8.5t75.5 -14.5t81 -29t65 -46q1 -29 2.5 -81t3.5 -94.5t6 -80.5q6 -85 -9.5 -117t-70.5 -33q10 -50 43 -162q17 -56 76.5 -137t77.5 -111q59 -99 84.5 -195t36.5 -243q5 -99 28 -227q13 -77 31 -125q15 -31 45 -78q38 -61 71 -138
t30 -128q-2 -23 -14.5 -28.5t-28 4t-27.5 28.5q-46 -13 -117 0q-115 23 -178 86q-67 67 -96 180q-39 -400 -49 -606q-9 -165 -13 -215q-9 -95 -49 -135q-8 -22 -11.5 -30.5t-14 -24t-25 -22t-35.5 -7.5q-30 -1 -51.5 9.5t-31.5 29t-14 34t-5 31.5q-29 47 -29 97
q-4 61 -4 186q0 49 1 167.5t0.5 205t-3.5 170.5q-37 -74 -93 -120.5t-124 -35.5q-67 10 -109 71.5t-28 129.5q-66 -39 -127.5 6t-71.5 117q-2 20 3 51t1 43q-12 12 -44.5 30t-57.5 46q-46 51 -39 133zM240 516q0 -56 59 -115q9 -9 59 -39q16 17 29 41t20 42t17 48t16 44
q30 79 119 172q4 4 4 10q-29 3 -60 40t-28 56q-117 -13 -196 -172q-39 -72 -39 -127zM287 719q58 84 133 117q35 16 82.5 10t79.5 -35q25 -36 16 -78q73 33 127 -18t49 -127l37 22q-58 189 -47 318q8 78 43 143t98 94v-12q-56 -29 -86 -92.5t-35 -138.5q-4 -50 6 -107
t21.5 -94.5t34.5 -99.5q21 31 70.5 37t76.5 -21q15 -14 18 -48.5t-2.5 -69t-15.5 -66.5q-8 -26 -33.5 -67t-31.5 -62q-6 -19 -8 -41.5t-2 -36t2 -43t2 -39.5q6 -85 6 -342v-428q0 -82 27.5 -122t80.5 -38q58 1 79.5 50t23.5 167q0 2 18 240q5 73 22 260.5t23 296.5
q-3 13 -10.5 43.5t-11.5 52t-4 41.5q0 33 -9 68q-4 15 -20 55.5t-19 66.5h11l37 -98q16 -33 27.5 -101t15.5 -83q29 -105 63 -178q32 -72 100 -117t154 -53q39 -4 70 0q-21 28 -37 62t-22 73.5t14 64.5q-3 11 -17 33t-18 29q-32 66 -47 176q-22 125 -27 207q-9 176 -59 319
q-27 77 -64 133q-11 18 -43.5 58.5t-57 80.5t-38.5 85q-3 11 -11.5 38t-10.5 32.5t-7.5 25.5t-6 25t-3.5 21t-3 24t-0.5 23.5t0 30t1.5 34.5q-136 65 -340 57q-189 -7 -356 -66q4 -62 -12.5 -127t-45.5 -141t-39 -119q-45 -187 -51 -217q-15 -81 -18 -188zM373 260
q0 -55 28 -89t70 -40q65 -6 115 76q26 44 63 164t84 182q13 18 6 57q-4 -5 -26 2q-1 0 -18 5t-25 7.5t-21.5 8t-22.5 12t-14 14.5q-11 19 -4 39q-13 -7 -26 -18t-25.5 -27t-20.5 -27t-21.5 -31.5t-18.5 -27.5q-21 -29 -51 -111.5t-64 -119.5q2 -15 -3 -40t-5 -36zM575 39
q23 -59 72 -84q124 -65 248 139q-10 107 -10 135q-6 -26 -17 -84h-16q7 96 22 152q16 67 70 131q12 12 25 45q-20 -2 -58 19l-63 36q-13 7 -17 24.5t3 29.5q-28 -7 -66 -45q-34 -33 -56 -81t-31 -89.5t-25.5 -94t-39.5 -88.5q-2 -4 -10.5 -17t-11 -17.5t-9 -16.5t-8.5 -18
t-5 -17t-3 -19t1 -19t5 -21z" />
    <glyph glyph-name="u1F448" unicode="&#x1f448;" horiz-adv-x="3233" 
d="M1606 55q-82 -7 -133 39q-28 25 -46 58t-30 45q-12 4 -43 -1t-51 -3q-72 10 -117 71t-6 127q-68 -14 -129.5 28t-71.5 109q-11 68 35.5 124t120.5 93q-93 3 -543 3q-125 0 -186 4q-52 0 -97 28q-16 1 -31.5 5t-34 14.5t-29 32t-9.5 51.5q1 21 7.5 35.5t22 25t24 14
t30.5 11.5q40 40 135 49q14 1 215 12q206 10 606 49q-112 29 -180 97q-63 63 -86 178q-13 71 0 116q-19 12 -28.5 27.5t-4 28t28.5 14.5q52 3 129 -30t137 -70q47 -30 78 -45q48 -18 125 -31q135 -24 227 -29q147 -11 243 -36.5t195 -84.5q29 -17 110.5 -76.5t137.5 -76.5
q112 -33 162 -43q1 55 33 70.5t117 9.5q23 -2 256 -13q27 -28 46 -65t29 -81t14.5 -75.5t8.5 -75.5q15 -224 -10 -346q-9 -41 -16.5 -70t-22 -67t-37 -66.5t-51.5 -45.5q-13 -8 -23.5 -12t-22 -5t-18.5 -1t-23.5 2t-25.5 3l-109 8q-26 2 -73 13l-33 8q-6 3 -18.5 8.5t-22 11
t-14.5 11.5q-14 10 -17 24q-43 -8 -84 -20t-103.5 -33.5t-84.5 -28.5q-167 -55 -320 -69q-20 -2 -74 -3.5t-81 -7.5q-25 -4 -67 -24.5t-66 -22.5zM299 887q-2 -53 38 -81t122 -28h428q257 0 342 -6q10 0 39.5 -2t43 -2t36 2t41.5 8q21 6 62 32t67 34q32 10 66.5 15.5t69 2.5
t48.5 -18q27 -27 21 -77t-37 -71q61 -22 99.5 -34t95 -21.5t106.5 -5.5q75 5 138.5 35t92.5 86h12q-29 -63 -94.5 -98.5t-142.5 -43.5q-127 -11 -318 48l-22 -37q76 5 127 -49t18 -127q41 9 78 -17q29 -32 35 -79.5t-10 -82.5q-33 -75 -117 -133q100 3 188 19q30 6 217 51
q43 10 119 39t141 45t127 12q59 167 66 356q8 204 -57 340q-20 -1 -34.5 -1.5t-30 0t-23.5 0.5t-24 3t-21 3.5t-25 6t-25.5 7.5t-32.5 10.5t-38 11.5q-45 14 -85 39t-80.5 57t-58.5 44q-53 35 -133 63q-146 51 -319 60q-91 6 -207 26q-110 15 -176 47q-7 4 -29 18t-33 17
q-25 -20 -64.5 -14t-73.5 22t-62 37q-4 -31 0 -70q7 -86 52.5 -153.5t117.5 -99.5q78 -37 178 -64q15 -4 83 -15.5t101 -27.5l98 -37v-10q-26 3 -66.5 19t-55.5 20q-31 8 -68 8q-20 0 -42 4t-51.5 12t-43.5 11q-109 -6 -296.5 -23t-260.5 -22q-33 -3 -117 -10.5t-123 -8.5
q-118 -2 -167 -23t-50 -79zM1020 498q25 -49 84 -72q12 -4 23 -6t23.5 0.5t19 3.5t21.5 9t18 9.5t21 12.5t19 12q36 23 88.5 39t94 25t89.5 31t81 56q38 38 45 66q-12 -7 -29.5 -3t-24.5 17l-37 64q-20 36 -18 57q-35 -14 -45 -24q-64 -54 -131 -70q-62 -16 -152 -23v17
q8 2 38 7.5t46 8.5q-28 0 -135 10q-203 -124 -139 -247zM1196 322q6 -42 40.5 -70.5t88.5 -28.5q11 0 36 5t40 3q37 34 119.5 64t111.5 51q6 4 27.5 18.5t31.5 22t26.5 20.5t27.5 26t18 26q-20 -7 -39 4q-6 4 -12 12t-10 15.5t-8.5 19.5t-6.5 18.5t-5.5 19t-4.5 15.5
q-8 23 -2 27q-39 7 -57 -6q-62 -47 -182 -84.5t-164 -63.5q-82 -50 -76 -114zM1427 209q30 -50 39 -59q60 -60 115 -60t127 39q159 79 172 197q-19 -3 -56 28t-40 60q-6 0 -10 -4q-93 -89 -172 -119q-14 -6 -44 -16t-48 -17t-42 -20t-41 -29z" />
    <glyph glyph-name="u1F449" unicode="&#x1f449;" horiz-adv-x="3233" 
d="M1628 55q-24 2 -66 22.5t-67 24.5q-27 6 -81.5 7.5t-74.5 3.5q-151 14 -319 69q-22 7 -84.5 28.5t-103.5 33.5t-84 20q-3 -14 -17 -24q-5 -6 -14.5 -11.5t-22 -11t-18.5 -8.5l-33 -8q-47 -11 -74 -13l-108 -8q-9 -1 -25.5 -3t-23.5 -2t-18.5 1t-22 5t-23.5 12
q-29 17 -51.5 45.5t-37 66.5t-22 67t-16.5 70q-25 122 -10 346q4 44 8.5 75.5t14.5 75.5t29 81t46 65q233 11 256 13q85 6 117 -9.5t33 -70.5q50 10 162 43q56 17 136.5 76t110.5 77q99 59 195 84.5t244 36.5q92 5 227 29q77 13 125 31q31 15 78 45q60 37 137 70t129 30
q23 -2 28.5 -14.5t-4 -28t-28.5 -27.5q13 -45 0 -116q-23 -115 -86 -178q-68 -68 -180 -97q400 -39 606 -49q201 -11 215 -12q95 -9 135 -49q22 -8 30.5 -11.5t24 -14t22 -25t7.5 -35.5q1 -30 -9.5 -51.5t-29 -32t-34 -14.5t-31.5 -5q-45 -28 -97 -28q-61 -4 -186 -4
q-450 0 -543 -3q74 -37 120.5 -93t35.5 -124q-10 -67 -71.5 -109t-129.5 -28q39 -66 -6 -127t-117 -71q-20 -2 -51 3t-43 1q-12 -12 -30 -45t-46 -58q-51 -46 -133 -39zM592 659q7 -192 65 -356q62 4 127 -12t141 -45t119 -39q184 -45 218 -51q88 -16 188 -19
q-84 58 -117 133q-16 35 -10 82.5t35 79.5q37 26 78 17q-33 73 18 127t127 49l-22 37q-191 -59 -318 -48q-77 8 -142.5 43.5t-94.5 98.5h12q29 -56 92.5 -86t138.5 -35q50 -4 106.5 5.5t95 21.5t99.5 34q-31 21 -37 71t21 77q14 15 48.5 18t69 -2.5t66.5 -15.5q26 -8 67 -34
t62 -32q19 -6 41.5 -8t36 -2t43 2t39.5 2q85 6 342 6h428q82 0 122 28t38 81q-1 58 -50 79t-167 23q-39 1 -123 8.5t-117 10.5q-73 5 -260.5 22t-296.5 23q-14 -3 -43.5 -11t-51.5 -12t-42 -4q-37 0 -68 -8q-15 -4 -55.5 -20t-67.5 -19v10l99 37q33 16 101 27.5t83 15.5
q100 27 178 64q72 32 117.5 99.5t52.5 153.5q4 39 0 70q-28 -21 -62 -37t-74 -22t-65 14q-11 -3 -32 -17t-29 -18q-66 -32 -176 -47q-116 -20 -207 -26q-173 -9 -319 -60q-82 -29 -134 -63q-18 -12 -58.5 -44t-80 -57t-84.5 -39q-11 -3 -38 -11.5t-32.5 -10.5t-25.5 -7.5
t-25 -6t-21 -3.5t-24 -3t-23.5 -0.5t-30 0t-34.5 1.5q-65 -136 -57 -340zM1354 326q13 -118 172 -197q72 -39 127 -39q54 0 114 60q9 9 39 59q-17 16 -40.5 29t-41.5 20t-48 17.5t-44 15.5q-79 30 -172 119q-4 4 -10 4q-3 -29 -40 -60t-56 -28zM1470 459q7 -13 18 -26
t27 -26t27 -21t32 -21.5t28 -18.5q29 -21 111.5 -51t119.5 -64q15 2 40 -3t36 -5q54 0 88.5 28.5t40.5 70.5q6 64 -76 114q-44 26 -164 63.5t-182 84.5q-18 13 -57 6q5 -4 -3 -27q-1 -3 -4.5 -15.5t-5.5 -19t-6.5 -18.5t-8.5 -19.5t-10 -15.5t-12 -12q-19 -11 -39 -4z
M1587 684q7 -28 45 -66q33 -34 81 -56t89.5 -31t94 -25t88.5 -39q4 -2 17 -10.5t17.5 -11t16.5 -9t18 -8.5t17 -5t19 -3t19 1t21 5q59 23 84 72q64 123 -139 247q-107 -10 -136 -10q16 -3 46 -9t38 -7v-17q-89 6 -151 23q-67 16 -131 70q-10 10 -45 24q2 -19 -19 -57
l-37 -64q-7 -13 -24 -17t-29 3z" />
    <glyph glyph-name="uni004A0301" horiz-adv-x="620" 
d="M-20 -141q153 15 214.5 109.5t61.5 310.5v1011v260h180v-260v-1011q0 -278 -112 -412.5t-344 -149.5v142zM279 1688l196 286h172l-256 -286h-112z" />
    <glyph glyph-name="L.ss01" horiz-adv-x="1589" 
d="M184 0v260v1030v260h181v-260v-1157h350q48 0 142 2.5t288.5 7.5t413.5 9v-152h-1375z" />
    <glyph glyph-name="Q.ss01" horiz-adv-x="1822" 
d="M1958 -285q-89 0 -163.5 18.5t-132 51t-108 84t-89 110t-76.5 136.5q-206 -148 -494 -148q-237 0 -421 101.5t-286 285.5t-102 420q0 235 102 417t286 282t421 100q238 0 422.5 -100.5t286.5 -283t102 -419.5q0 -180 -60 -329.5t-171 -256.5q40 -79 81 -132.5t97.5 -95
t131.5 -61.5t173 -20v-160zM270 770q0 -260 140 -436h10q2 71 19.5 139t53.5 133.5t86.5 115t126.5 79.5t166 30q64 0 120 -15t99 -37t83.5 -61.5t68.5 -75t59 -91t50 -95t47 -102.5q123 175 123 420q0 292 -173 474t-454 182q-280 0 -452.5 -182.5t-172.5 -477.5zM477 260
q168 -149 418 -149q255 0 426 157q-21 49 -32 74t-32 69t-36 68.5t-39 60t-45.5 55t-51.5 43.5t-61 35.5t-70 20t-82 8.5q-97 0 -170.5 -34t-119.5 -95.5t-71.5 -139t-33.5 -173.5z" />
    <glyph glyph-name="R.ss01" horiz-adv-x="1378" 
d="M1225 -6q-264 118 -488.5 316t-371.5 429v-479v-260h-181v260v1030v260h494q80 0 151 -10t142.5 -37t122 -69.5t82.5 -113.5t32 -163q0 -83 -26 -150.5t-70 -112.5t-103.5 -76t-123.5 -44.5t-133 -13.5q-202 0 -342 96v-12q166 -226 385.5 -408t470.5 -276v-166h-41z
M365 989q138 -102 356 -102q143 0 228 64t85 202q0 137 -96.5 201.5t-294.5 64.5h-278v-430z" />
    <glyph glyph-name="Q.ss02" horiz-adv-x="1808" 
d="M1765 -223q-514 173 -891 192q-367 17 -577.5 233.5t-210.5 571.5q0 235 102 417t286 282t421 100q238 0 422.5 -100.5t286.5 -283t102 -419.5q0 -272 -135 -468.5t-361 -266.5q201 -15 555 -82v-176zM270 770q0 -193 78 -343t220.5 -233t326.5 -83q281 0 454 184
t173 479q0 292 -173 474t-454 182q-280 0 -452.5 -182.5t-172.5 -477.5z" />
    <glyph glyph-name="R.ss02" horiz-adv-x="1370" 
d="M1395 -10q-91 0 -160 15.5t-121 42.5t-99 78t-83 108t-84 147q-40 77 -70.5 127.5t-65 91.5t-66.5 64.5t-75.5 39t-90.5 20.5t-113 5h-7v-469v-260h-176v260v1030v260h449q532 0 532 -395q0 -177 -122 -277t-328 -112q69 -26 131 -94t133 -203q41 -75 69 -120t66 -91.5
t76 -70.5t89.5 -39t115.5 -15v-143zM360 856h228q197 0 299 71.5t102 209.5q0 148 -90.5 215t-288.5 67h-250v-563z" />
    <glyph glyph-name="C_O" horiz-adv-x="2729" 
d="M879 -33q-184 0 -335 64t-250.5 174.5t-153.5 257.5t-54 315q0 235 99 416.5t281.5 282t420.5 100.5q185 0 337.5 -60.5t264.5 -191t156 -319.5h-187q-56 207 -207 316.5t-366 109.5q-139 0 -255 -49.5t-194.5 -136.5t-122 -206.5t-43.5 -257.5q0 -132 40 -251.5
t114.5 -213t192.5 -149t264 -55.5q238 0 395 139.5t201 370.5h184q-55 -311 -262.5 -483.5t-519.5 -172.5zM1747 1118q0 203 126 329t331 126q209 0 335.5 -125.5t126.5 -329.5q0 -203 -127 -328.5t-335 -125.5q-205 0 -331 125.5t-126 328.5zM1896 1118q0 -146 85.5 -236.5
t222.5 -90.5q139 0 225 90t86 237q0 148 -86 238t-225 90q-137 0 -222.5 -90.5t-85.5 -237.5zM2116 0v217h180v-217h-180z" />
    <glyph glyph-name="L_T_D" horiz-adv-x="2406" 
d="M184 0v260v1030v260h181v-260v-1157h350q48 0 142 2.5t288.5 7.5t413.5 9v-152h-1375zM641 1425v125h739l-2 -125q-139 5 -284 5h-9v-490v-260h-149v260v490h-10q-146 0 -285 -5zM1563 680v260v350v260h286q223 0 357.5 -119.5t134.5 -314.5q0 -196 -134.5 -316
t-357.5 -120h-286zM1712 795h146q151 0 242 87t91 234q0 146 -90.5 233t-242.5 87h-146v-641zM1800 0v217h180v-217h-180z" />
    <glyph glyph-name="O_e" horiz-adv-x="2693" 
d="M895 -33q-237 0 -421 101.5t-286 285.5t-102 420q0 235 102 417t286 282t421 100q235 0 417.5 -97t285.5 -275t108 -410q63 114 174.5 176.5t249.5 62.5q215 0 347 -134t132 -357h-819q-2 -12 -2 -37q0 -180 92.5 -295t255.5 -115q71 0 129 23t96 61.5t61 83.5t32 94h157
q-14 -75 -49.5 -142.5t-93 -124t-144.5 -89.5t-192 -33q-203 0 -338 121.5t-156 335.5q-92 -212 -287 -333.5t-456 -121.5zM270 770q0 -193 78 -343t220.5 -233t326.5 -83q281 0 454 184t173 479q0 292 -173 474t-454 182q-280 0 -452.5 -182.5t-172.5 -477.5zM1806 651h639
q-23 113 -103.5 184.5t-207.5 71.5q-124 0 -209 -68.5t-119 -187.5z" />
    <glyph glyph-name="S_T" horiz-adv-x="1910" 
d="M639 -35q-249 0 -403.5 142t-180.5 395h172q21 -185 126 -292.5t284 -107.5q148 0 233.5 71t85.5 194q0 35 -8 65t-20.5 55.5t-40 52t-55 48t-77 51t-94 53.5t-118.5 62q-86 42 -144 75t-115 76t-90 85.5t-53 97t-20 118.5q0 166 126.5 265.5t338.5 99.5
q226 0 362 -122.5t160 -332.5h-166q-16 143 -107 232.5t-249 89.5q-143 0 -216 -61t-73 -163q0 -40 9 -72.5t33 -62.5t49 -52.5t75.5 -53t92 -52t118.5 -59.5q83 -43 136 -72.5t110.5 -67.5t91.5 -72t63.5 -76.5t42 -90.5t12.5 -106q0 -190 -134 -301t-357 -111zM1169 1425
v125h740l-2 -125q-139 5 -285 5h-8v-490v-260h-150v260v490h-10q-146 0 -285 -5zM1452 0v217h180v-217h-180z" />
    <glyph glyph-name="i.loclTRK" horiz-adv-x="468" 
d="M152 0v260v475v262h165v-737v-260h-165zM143 1257v218h185v-218h-185z" />
    <glyph glyph-name="uni006A0301" horiz-adv-x="501" 
d="M-4 -387q101 0 144.5 61.5t43.5 190.5v870v262h166v-1112q0 -185 -80.5 -284t-273.5 -99v111zM229 1188l193 360h158l-271 -360h-80z" />
    <glyph glyph-name="g.ss01" horiz-adv-x="1165" 
d="M145 -358q52 -7 125 -7q289 0 436.5 125.5t147.5 356.5v139q-49 -118 -142 -186t-223 -68t-223.5 69.5t-138.5 184t-45 258.5q0 107 28 199t81 161.5t137 110t190 41.5q107 0 192.5 -44t143.5 -118v133h164v-262v-561q0 -104 -19.5 -192t-61.5 -165.5t-111 -137
t-164 -102.5t-225.5 -65t-291.5 -22v152zM250 512q0 -81 17 -150t51 -124.5t91.5 -87t131.5 -31.5q102 0 174 57.5t105.5 148.5t33.5 205v203q-49 81 -122 130.5t-161 49.5q-156 0 -238.5 -107.5t-82.5 -293.5z" />
    <glyph glyph-name="y.ss01" horiz-adv-x="1150" 
d="M139 -365q67 -6 127 -6q268 0 421 129.5t153 358.5v155q-47 -120 -146 -201t-237 -81q-316 0 -316 389v356v262h166v-262v-336q0 -280 217 -280q118 0 202.5 89t113.5 222v305v262h164v-262v-567q0 -675 -865 -678v145z" />
    <glyph glyph-name="f.ss02" horiz-adv-x="759" 
d="M143 0v260v320q0 143 39 229.5t127 116.5q-136 21 -224.5 105t-88.5 231q0 165 112.5 260.5t290.5 95.5q200 0 319.5 -105.5t143.5 -281.5h-151q-15 124 -95 192t-213 68q-120 0 -188 -61.5t-68 -176.5q0 -130 96.5 -193t301.5 -63h194v-118h-194q-63 0 -106.5 -15
t-68.5 -39t-39 -67t-18 -86.5t-4 -110.5v-301v-260h-166z" />
    <glyph glyph-name="t.ss02" horiz-adv-x="839" 
d="M494 -14q-56 0 -102 15.5t-84 50t-59.5 97t-21.5 148.5v582h-217v118h154q73 0 94 68.5t21 267.5h114v-336h363v-118h-363v-592q0 -88 28 -129t91 -41q80 0 123.5 87.5t48.5 233.5h129q-3 -96 -22.5 -175t-56.5 -142.5t-98.5 -99t-141.5 -35.5z" />
    <glyph glyph-name="c_t" horiz-adv-x="1937" 
d="M598 -35q-220 0 -359 144.5t-139 390.5q0 245 140 387.5t366 142.5q95 0 180 -29q-43 92 -43 191q0 84 29 151t78.5 108.5t112.5 63t133 21.5q175 0 278 -120.5t103 -360.5v-58h348v-118h-348v-553q0 -120 45.5 -167.5t122.5 -47.5q118 0 192 100l29 -109
q-37 -49 -107 -83.5t-162 -34.5q-286 0 -286 338v768q0 177 -63 259.5t-171 82.5q-102 0 -163.5 -66t-61.5 -182q0 -137 68 -254q138 -104 163 -275h-155q-10 47 -33 88.5t-60.5 78.5t-96.5 59t-132 22q-166 0 -254 -112.5t-88 -290.5q0 -176 88.5 -292t253.5 -116
q78 0 139.5 25.5t99 69.5t59.5 95t30 111h156q-10 -86 -46 -162t-95.5 -136t-150 -95t-200.5 -35z" />
    <glyph glyph-name="f_b" horiz-adv-x="1937" 
d="M242 0v260v619h-219v118h219v189q0 112 29 196t81 133.5t118.5 74t147.5 24.5q194 0 304 -154l127 156h14v-309v-519q55 111 152 175.5t227 64.5t225 -70t141.5 -186t46.5 -264q0 -150 -50 -268t-150.5 -188t-237.5 -70q-113 0 -205.5 50.5t-148.5 139.5v-172h-166v260
v619h-489v-619v-260h-166zM408 997h489v326q-83 176 -262 176q-227 0 -227 -293v-209zM1063 309q49 -98 132 -156.5t187 -58.5q142 0 223 113.5t81 298.5q0 113 -31 202t-100.5 145t-170.5 56q-102 0 -176 -61t-109.5 -157.5t-35.5 -213.5v-168z" />
    <glyph glyph-name="f_h" horiz-adv-x="1906" 
d="M242 0v260v619h-219v118h219v189q0 112 29 196t81 133.5t118.5 74t147.5 24.5q194 0 304 -154l127 156h14v-309v-519q50 106 147.5 174t237.5 68q317 0 317 -379v-391v-260h-163v260v365q0 141 -56 208.5t-170 67.5q-127 0 -209 -82.5t-104 -204.5v-315v-299h-166v260
v619h-489v-619v-260h-166zM408 997h489v326q-83 176 -262 176q-227 0 -227 -293v-209z" />
    <glyph glyph-name="f_t" horiz-adv-x="1413" 
d="M197 0v260v619h-220v118h220v150q0 112 30 195t82.5 130.5t115.5 70t138 22.5q124 0 214 -57.5t138 -155.5l89 67h6v-422h331v-118h-331v-553q0 -215 168 -215q120 0 194 100l27 -109q-35 -49 -105 -83.5t-164 -34.5q-286 0 -286 338v557h-482v-619v-260h-165zM362 997
h482v287q-33 80 -99 126t-159 46q-101 0 -162.5 -68.5t-61.5 -222.5v-168z" />
    <glyph glyph-name="s_s" horiz-adv-x="2052" 
d="M524 -35q-189 0 -312 97.5t-142 269.5h149q17 -120 96.5 -185t206.5 -65q101 0 165.5 41t64.5 115q0 28 -8 51t-28 42.5t-41 34.5t-59.5 32t-69.5 28.5t-85 30.5q-56 21 -90 35t-79.5 36t-72.5 43.5t-53 50t-37.5 64.5t-11.5 78q0 126 103.5 196t266.5 70
q101 0 185.5 -32.5t145.5 -87.5t113.5 -126t95.5 -149.5t85.5 -157t89.5 -149.5t100.5 -126t126.5 -87.5t160 -32.5q101 0 165.5 41t64.5 115q0 33 -13.5 59.5t-33.5 46t-62 40.5t-78 35t-102 38q-57 21 -89 34t-79 35t-73 43t-52.5 50t-38.5 65.5t-12 79.5q0 126 100 196
t258 70q174 0 284 -85.5t136 -237.5h-147q-23 102 -87.5 155t-183.5 53q-100 0 -155.5 -35.5t-55.5 -103.5q0 -25 6.5 -45.5t26.5 -39t38.5 -31.5t61.5 -31.5t75.5 -31t98.5 -36.5q177 -63 254.5 -129t77.5 -178q0 -139 -106.5 -214t-274.5 -75q-102 0 -186.5 32.5
t-145 87.5t-112 126t-94 150t-84 158t-88.5 150t-101.5 126t-129.5 87.5t-165 32.5q-104 0 -162.5 -35.5t-58.5 -103.5q0 -19 4 -35.5t16.5 -32t22.5 -26.5t35.5 -25t41 -22.5t54.5 -23.5t60.5 -23t72.5 -27q178 -63 255 -128.5t77 -178.5q0 -94 -51 -160t-135.5 -97.5
t-194.5 -31.5z" />
    <glyph glyph-name="s_t" horiz-adv-x="1691" 
d="M1407 -16q-285 0 -285 338v768q0 342 -223 342q-99 0 -160 -65.5t-61 -178.5q0 -125 84 -227q126 -82 151 -246h-159q-15 91 -83.5 143.5t-183.5 52.5q-100 0 -157.5 -37t-57.5 -108q0 -20 6.5 -38t15.5 -31.5t30.5 -28t38.5 -24.5t53.5 -25.5t62 -25l76.5 -28.5
q80 -30 130.5 -51.5t100 -50t76 -58t42.5 -69t16 -88.5q0 -137 -107.5 -210t-275.5 -73q-196 0 -322 97t-145 268h159q17 -117 96 -180.5t214 -63.5q96 0 158.5 35.5t62.5 107.5q0 27 -8.5 49.5t-29.5 42.5t-42 35.5t-61.5 34.5t-71.5 31.5t-88 34.5q-42 16 -63.5 24.5
t-58 23.5t-55 25.5t-46.5 27t-42.5 31t-32 34.5t-26 41t-14.5 47t-6 55q0 127 99 196.5t269 69.5q78 0 135 -14q-49 81 -49 180q0 106 49.5 184t128.5 116t175 38q168 0 266 -120t98 -361v-58h348v-118h-348v-553q0 -215 168 -215q121 0 195 100l26 -109
q-37 -49 -106.5 -83.5t-161.5 -34.5z" />
    <glyph glyph-name="w_w_w" horiz-adv-x="3966" 
d="M88 858q-7 23 -25 72t-24 67h166q15 -51 45 -139l217 -649l217 749h119l219 -749l215 649q44 129 47 139h166q15 -50 45 -139l217 -649l217 749h119l219 -749l215 649q44 129 47 139h168q15 -51 45 -139l217 -649l217 749h119l219 -749l215 649q2 5 21.5 60t26.5 79h151
q-6 -23 -23.5 -71.5t-23.5 -67.5l-262 -749q-32 -86 -35 -109h-137l-215 750l-178 -619q-23 -71 -35 -131h-137l-275 782l-235 -673q-32 -86 -35 -109h-137l-215 750l-179 -619q-21 -64 -34 -131h-138l-272 778l-236 -669q-31 -82 -34 -109h-138l-215 750l-178 -619
q-23 -71 -35 -131h-137z" />
    <glyph glyph-name="g_t.ss01" horiz-adv-x="1814" 
d="M1530 -16q-285 0 -285 338v774q0 307 -213 307q-99 0 -159 -57t-60 -158q0 -150 98 -266q129 -107 129 -291q0 -181 -120.5 -286t-313.5 -105q-140 0 -248 57q-139 -66 -139 -158q0 -48 38 -72.5t128 -23.5q82 1 284.5 39.5t291.5 38.5q114 0 177.5 -50t63.5 -147
q0 -96 -63.5 -181t-165 -141.5t-228.5 -89t-256 -32.5q-108 0 -188.5 21.5t-131 73t-50.5 128.5q0 146 192 217q-104 3 -168.5 53t-64.5 136q0 142 201 243q-115 109 -115 281q0 180 122.5 285.5t315.5 105.5q82 0 162 -23q-53 92 -53 191q0 77 28.5 137.5t78 97t110 55.5
t129.5 19q91 0 160 -33t111 -93t62.5 -137.5t20.5 -172.5v-68h348v-118h-348v-553q0 -120 45 -167.5t121 -47.5q125 0 195 100l26 -109q-35 -49 -104.5 -83.5t-163.5 -34.5zM258 -264q0 -131 240 -131q126 0 252 36.5t212.5 105t86.5 147.5q0 52 -34 74t-114 22
q-159 0 -405 -70q-121 -37 -179.5 -80t-58.5 -104zM322 633q0 -122 75.5 -195t204.5 -73t205 73t76 195q0 119 -77 192.5t-204 73.5q-128 0 -204 -73.5t-76 -192.5z" />
    <glyph glyph-name="zero.osf" horiz-adv-x="1232" 
d="M616 -31q-235 0 -383.5 150.5t-148.5 386.5q0 237 147.5 386.5t384.5 149.5t385 -149.5t148 -386.5q0 -236 -149 -386.5t-384 -150.5zM236 506q0 -182 106 -298t274 -116q169 0 275 116t106 298t-106 298t-275 116q-168 0 -274 -116t-106 -298z" />
    <glyph glyph-name="one.osf" horiz-adv-x="692" 
d="M383 0v260v492q-27 -58 -107 -113.5t-188 -60.5v122q132 9 226 98.5t102 198.5h133v-737v-260h-166z" />
    <glyph glyph-name="two.osf" horiz-adv-x="1007" 
d="M72 31q0 38 13.5 75t32 66.5t55 64t64 57.5t79.5 57t81.5 52t87.5 52q51 30 73.5 44.5t61 40.5t56.5 44.5t39 45t29 53.5t8 58q0 84 -61 133.5t-167 49.5q-133 0 -215 -80t-82 -209h-147q0 173 122.5 290t334.5 117q168 0 267 -76t99 -214q0 -57 -18.5 -106.5
t-45.5 -85.5t-74.5 -73.5t-86 -61.5t-100.5 -58q-143 -80 -219 -132.5t-109 -109.5h686v-125h-864v31z" />
    <glyph glyph-name="three.osf" horiz-adv-x="1099" 
d="M553 -348q-207 0 -337 121t-142 333h143q9 -155 95.5 -246t234.5 -91t224.5 80t76.5 202q0 132 -89 203.5t-270 71.5h-108v112h102q155 0 243.5 73.5t88.5 190.5q0 94 -65.5 158t-198.5 64q-138 0 -227.5 -72t-102.5 -199h-143q13 178 149 283.5t340 105.5
q187 0 296.5 -92t109.5 -231q0 -129 -78.5 -216t-214.5 -118q147 -22 237.5 -105.5t90.5 -232.5q0 -173 -123.5 -284t-331.5 -111z" />
    <glyph glyph-name="four.osf" horiz-adv-x="1239" 
d="M795 -326v353h-721v104l745 891h133v-870h244v-125h-244v-353h-157zM240 152h555v665z" />
    <glyph glyph-name="five.osf" horiz-adv-x="1071" 
d="M530 -348q-209 0 -336 120t-141 328h150q9 -154 91 -243.5t228 -89.5q80 0 143.5 28t102.5 76t59.5 109t20.5 131q0 158 -87.5 245.5t-228.5 87.5q-87 0 -168 -37.5t-135 -117.5l-123 53l87 670h749v-123h-627l-63 -459q60 60 148 93.5t182 33.5q191 0 309.5 -119
t118.5 -323q0 -200 -129 -331.5t-351 -131.5z" />
    <glyph glyph-name="six.osf" horiz-adv-x="1191" 
d="M592 -35q-107 0 -193 34.5t-144 95.5t-97 146.5t-56.5 184t-17.5 211.5q0 97 13.5 191.5t41.5 187.5t74.5 171t107.5 138.5t146.5 94.5t185.5 34q186 0 306 -105t145 -290h-143q-19 133 -99 207.5t-205 74.5q-78 0 -142 -30t-107.5 -83.5t-75.5 -121t-50 -149t-26 -160
t-8 -160.5v-2q45 127 160 202.5t258 75.5q186 0 303.5 -125.5t117.5 -324.5q0 -102 -33.5 -192t-95 -158.5t-156 -108t-210.5 -39.5zM258 465q53 -375 334 -375q154 0 242 105.5t88 267.5q0 154 -86.5 245t-219.5 91q-129 0 -232 -91t-126 -243z" />
    <glyph glyph-name="seven.osf" horiz-adv-x="966" 
d="M102 -336l662 1213h-723v135h893v-76l-658 -1272h-174z" />
    <glyph glyph-name="eight.osf" horiz-adv-x="1243" 
d="M623 -31q-233 0 -383 112t-150 304q0 156 100 259.5t267 131.5q-149 27 -228 116.5t-79 205.5q0 70 30.5 133t87.5 113t149 80t206 30t206 -30t148.5 -80t86.5 -113t30 -133q0 -115 -80 -205t-228 -117q168 -28 267.5 -131.5t99.5 -259.5q0 -128 -70 -223.5t-189.5 -144
t-270.5 -48.5zM254 399q0 -149 103 -231t266 -82q162 0 265 82t103 231q0 141 -102 225.5t-266 84.5q-166 0 -267.5 -84.5t-101.5 -225.5zM305 1081q0 -111 83 -187.5t235 -76.5t233.5 76t81.5 188q0 113 -83 190t-232 77q-150 0 -234 -77t-84 -190z" />
    <glyph glyph-name="nine.osf" horiz-adv-x="1210" 
d="M588 1042q129 0 227.5 -51t160 -144t92 -217.5t30.5 -277.5q0 -113 -21.5 -216.5t-66 -193t-108 -155.5t-154 -103.5t-197.5 -37.5q-181 0 -301 102t-154 275h144q24 -121 102.5 -192t204.5 -71q99 0 175.5 48t121.5 132t67.5 188.5t22.5 227.5v31q-48 -126 -162.5 -199
t-249.5 -73q-182 0 -300 124t-118 332q0 213 135.5 342t348.5 129zM268 573q0 -163 85.5 -252.5t211.5 -89.5q130 0 233 87t124 229q-53 371 -334 371q-138 0 -229 -91.5t-91 -253.5z" />
    <glyph glyph-name="zero.slashed" horiz-adv-x="1368" 
d="M684 -33q-273 0 -422 206.5t-149 596.5t148.5 594.5t422.5 204.5t422.5 -205.5t148.5 -595.5t-148.5 -595.5t-422.5 -205.5zM283 768q0 -445 176 -592l329 1249q-50 13 -104 13q-401 0 -401 -670zM518 135q75 -35 166 -35q399 0 399 668q0 512 -229 631z" />
    <glyph glyph-name="zero.tf" horiz-adv-x="1372" 
d="M686 -33q-274 0 -424.5 208t-150.5 599q0 392 150.5 598.5t424.5 206.5t424 -208t150 -599q0 -392 -150 -598.5t-424 -206.5zM293 772q0 -672 393 -672q391 0 391 672q0 674 -391 674q-393 0 -393 -674z" />
    <glyph glyph-name="one.tf" horiz-adv-x="1374" 
d="M231 0v131h424v1149q-17 -36 -50.5 -70t-85 -66.5t-127.5 -54.5t-165 -26v135q111 7 202.5 42.5t149.5 87t91.5 108.5t40.5 114h127v-1419h422v-131h-1029z" />
    <glyph glyph-name="two.tf" horiz-adv-x="1374" 
d="M168 31q0 80 28.5 141t118 151.5t277.5 243.5q212 172 278 237q118 116 148 226q14 51 14 111q0 148 -80 224.5t-229 76.5q-97 0 -171.5 -33.5t-119 -92.5t-67.5 -132t-25 -160h-170q12 254 160.5 405.5t412.5 151.5q216 0 346 -113.5t130 -316.5q0 -155 -90.5 -290
t-311.5 -310q-165 -130 -273.5 -228.5t-166.5 -179.5h858v-143h-1067v31z" />
    <glyph glyph-name="three.tf" horiz-adv-x="1374" 
d="M731 -35q-266 0 -430 149t-184 408h170q15 -200 131.5 -308t312.5 -108q186 0 284.5 90.5t98.5 231.5q-2 154 -122.5 241t-332.5 87h-127v131h160q175 0 278 84.5t103 210.5q0 51 -17 96t-53.5 84t-103 61.5t-156.5 22.5q-186 0 -300 -89t-140 -251h-168
q30 218 192 346.5t425 128.5q235 0 364 -107.5t129 -275.5q0 -141 -92 -238t-246 -133q80 -14 147.5 -46.5t121 -82t84 -121t30.5 -157.5q0 -93 -38.5 -175t-108.5 -144.5t-176.5 -99t-235.5 -36.5z" />
    <glyph glyph-name="four.tf" horiz-adv-x="1374" 
d="M864 -6v262v127h-833v115l887 1056h120v-1032h308v-139h-308v-127v-262h-174zM213 522h651l2 781z" />
    <glyph glyph-name="five.tf" horiz-adv-x="1374" 
d="M690 -35q-249 0 -402.5 138t-168.5 380h160q13 -181 119.5 -279t283.5 -98q200 0 304 110t104 282q0 186 -103 282.5t-278 96.5q-114 0 -215 -42t-170 -135l-142 62l101 788h923v-143h-796l-76 -569q71 81 183.5 123.5t236.5 42.5q237 0 375.5 -131.5t138.5 -370.5
q0 -114 -38 -211t-109 -170t-182 -114.5t-249 -41.5z" />
    <glyph glyph-name="six.tf" horiz-adv-x="1374" 
d="M705 -35q-123 0 -223.5 34.5t-171.5 98t-119.5 153.5t-71.5 199t-23 236q0 132 23 256.5t75.5 241t129.5 203t192 138.5t256 52q222 0 359.5 -123t166.5 -346h-170q-19 155 -111.5 242.5t-250.5 87.5q-107 0 -193 -44t-141 -116t-91.5 -170t-51.5 -201t-15 -215v-16
q52 150 188 234.5t302 84.5q222 0 368 -136t146 -367q0 -240 -158 -383.5t-415 -143.5zM295 469q36 -175 136.5 -270t266.5 -95q175 0 286.5 102t111.5 288q0 179 -104.5 275.5t-262.5 96.5q-169 0 -294 -108t-140 -289z" />
    <glyph glyph-name="seven.tf" horiz-adv-x="1374" 
d="M256 0l766 1407h-870v143h1069v-84l-772 -1466h-193z" />
    <glyph glyph-name="eight.tf" horiz-adv-x="1374" 
d="M686 -35q-184 0 -326.5 53t-224.5 156.5t-82 243.5q0 169 116 276t314 140q-162 33 -249 127.5t-87 228.5q0 171 140 279t397 108q258 0 398.5 -106.5t140.5 -274.5q0 -137 -87 -233t-249 -129q197 -33 313.5 -141t116.5 -275q0 -140 -81.5 -243.5t-223.5 -156.5
t-326 -53zM244 436q0 -156 125 -245t317 -89q190 0 316 89t126 245q0 147 -119.5 235.5t-322.5 88.5t-322.5 -88.5t-119.5 -235.5zM322 1182q0 -124 96.5 -208.5t267.5 -84.5q170 0 266.5 85t96.5 208q0 121 -98 197.5t-265 76.5t-265.5 -76.5t-98.5 -197.5z" />
    <glyph glyph-name="nine.tf" horiz-adv-x="1374" 
d="M682 1579q155 0 273 -55t191.5 -156t110.5 -238t37 -307q0 -127 -19 -244t-66.5 -231t-118.5 -197t-184.5 -134.5t-256.5 -51.5q-224 0 -363 123t-173 348h170q24 -155 117.5 -243.5t250.5 -88.5q93 0 167.5 30.5t124 85.5t84.5 123t54 152t27 162.5t8 163.5v45
q-53 -148 -188.5 -231.5t-304.5 -83.5q-222 0 -366 135t-144 363q0 242 157 386t412 144zM295 1051q0 -90 29.5 -162t80.5 -117t116.5 -68.5t140.5 -23.5q168 0 291.5 107t140.5 288q-72 363 -402 363q-175 0 -286 -101.5t-111 -285.5z" />
    <glyph glyph-name="zero.dnom" horiz-adv-x="966" 
d="M483 -20q-194 0 -302.5 125t-108.5 344q0 222 108.5 347.5t302.5 125.5t303 -125.5t109 -347.5q0 -219 -109 -344t-303 -125zM201 449q0 -177 74.5 -272t207.5 -95t208 95t75 272q0 178 -74.5 273t-208.5 95q-133 0 -207.5 -95t-74.5 -273z" />
    <glyph glyph-name="one.dnom" horiz-adv-x="571" 
d="M258 0v260v402q-33 -56 -97.5 -92t-148.5 -42v109q109 6 192 80t93 188h92v-645v-260h-131z" />
    <glyph glyph-name="two.dnom" horiz-adv-x="856" 
d="M72 23q0 72 26 133.5t74.5 109.5t99 82.5t117.5 69.5q136 72 193 124.5t57 119.5q0 78 -51 118.5t-139 40.5q-120 0 -186 -72.5t-66 -183.5h-129q5 152 105.5 254.5t281.5 102.5q144 0 229.5 -67t85.5 -189q0 -104 -68.5 -173t-207.5 -141q-69 -37 -105 -58.5t-80.5 -54
t-66 -65.5t-25.5 -70h584v-104h-729v23z" />
    <glyph glyph-name="three.dnom" horiz-adv-x="862" 
d="M442 -20q-167 0 -268.5 84t-114.5 235h127q9 -107 77 -164t177 -57q115 0 175.5 53t60.5 129q0 174 -254 174h-82v88h82q108 0 166.5 44t58.5 112q0 64 -48 105.5t-155 41.5q-104 0 -171.5 -48t-82.5 -138h-127q19 131 123.5 207t270.5 76q154 0 239.5 -63t85.5 -167
q0 -78 -58 -133.5t-159 -75.5q115 -14 182.5 -71t67.5 -162q0 -116 -102.5 -193t-270.5 -77z" />
    <glyph glyph-name="four.dnom" horiz-adv-x="856" 
d="M522 0v186v13h-524v86l534 618h121v-606h174v-98h-174v-13v-186v-10h-131v10zM135 297h387v457z" />
    <glyph glyph-name="five.dnom" horiz-adv-x="878" 
d="M449 -20q-168 0 -273.5 84t-118.5 231h121q10 -106 80.5 -161.5t187.5 -55.5q116 0 176 63t60 160q0 108 -61.5 165.5t-159.5 57.5q-169 0 -254 -123l-105 39l78 463h596v-100h-508l-51 -307q99 116 283 116q142 0 228.5 -83t86.5 -232q0 -140 -97 -228.5t-269 -88.5z
" />
    <glyph glyph-name="six.dnom" horiz-adv-x="907" 
d="M467 -20q-191 0 -292 125.5t-101 334.5q0 139 45 246.5t138.5 171.5t223.5 64q143 0 238 -78t112 -211h-118q-9 93 -71.5 145.5t-160.5 52.5q-135 0 -206 -101t-76 -273q0 -54 8 -95q25 100 112.5 162t204.5 62q132 0 219.5 -81.5t87.5 -215.5q0 -138 -100 -223.5
t-264 -85.5zM221 264q55 -194 244 -194q103 0 169 58.5t66 158.5q0 101 -63 159t-156 58q-99 0 -174.5 -67t-85.5 -173z" />
    <glyph glyph-name="seven.dnom" horiz-adv-x="737" 
d="M90 0l496 795h-566v108h707l2 -69l-498 -834h-141z" />
    <glyph glyph-name="eight.dnom" horiz-adv-x="942" 
d="M471 -20q-194 0 -296.5 69t-102.5 197q0 94 73.5 160.5t182.5 78.5q-107 17 -163 70.5t-56 138.5q0 104 93.5 165t266.5 61q175 0 270 -61t95 -165q0 -85 -56.5 -138.5t-163.5 -70.5q109 -12 182.5 -77.5t73.5 -161.5q0 -128 -102.5 -197t-296.5 -69zM203 256
q0 -186 268 -186t268 186q0 84 -72.5 133t-195.5 49t-195.5 -49t-72.5 -133zM233 684q0 -71 63.5 -115.5t174.5 -44.5q112 0 174 44.5t62 115.5q0 68 -62.5 109t-173.5 41q-109 0 -173.5 -41t-64.5 -109z" />
    <glyph glyph-name="nine.dnom" horiz-adv-x="907" 
d="M440 922q191 0 292.5 -126t101.5 -335q0 -213 -106.5 -347t-301.5 -134q-144 0 -239.5 78t-110.5 210h119q9 -93 71 -145.5t158 -52.5q137 0 208.5 101t74.5 273q0 44 -7 95q-26 -100 -114 -162t-203 -62q-132 0 -219.5 81.5t-87.5 215.5q0 140 100 225t264 85zM207 614
q0 -100 63 -157.5t156 -57.5q100 0 175 66.5t85 173.5q-55 192 -244 192q-103 0 -169 -58t-66 -159z" />
    <glyph glyph-name="zero.numr" horiz-adv-x="966" 
d="M483 633q-194 0 -302.5 125t-108.5 344q0 222 108.5 347.5t302.5 125.5t303 -125.5t109 -347.5q0 -219 -109 -344t-303 -125zM201 1102q0 -177 74.5 -272t207.5 -95t208 95t75 272q0 178 -74.5 273t-208.5 95q-133 0 -207.5 -95t-74.5 -273z" />
    <glyph glyph-name="one.numr" horiz-adv-x="571" 
d="M258 653v260v402q-33 -55 -97.5 -91t-148.5 -42v108q109 6 192 80.5t93 188.5h92v-646v-260h-131z" />
    <glyph glyph-name="two.numr" horiz-adv-x="856" 
d="M72 676q0 72 26 133.5t74.5 109.5t99 82.5t117.5 69.5q136 72 193 124.5t57 119.5q0 78 -51 119t-139 41q-120 0 -186 -72.5t-66 -183.5h-129q5 152 105.5 254t281.5 102q144 0 229.5 -67t85.5 -189q0 -54 -19 -99t-59.5 -83t-85 -67t-112.5 -64q-69 -37 -105 -58.5
t-80.5 -54t-66 -65.5t-25.5 -70h584v-105h-729v23z" />
    <glyph glyph-name="three.numr" horiz-adv-x="862" 
d="M442 633q-167 0 -268.5 84t-114.5 235h127q9 -107 77 -164t177 -57q115 0 175.5 53t60.5 129q0 174 -254 174h-82v89h82q108 0 166.5 43.5t58.5 111.5q0 64 -48 106t-155 42q-104 0 -171.5 -48.5t-82.5 -138.5h-127q19 131 123.5 207t270.5 76q154 0 239.5 -62.5
t85.5 -166.5q0 -78 -58 -133.5t-159 -75.5q115 -14 182.5 -71.5t67.5 -162.5q0 -116 -102.5 -193t-270.5 -77z" />
    <glyph glyph-name="four.numr" horiz-adv-x="856" 
d="M522 655v187v12h-524v86l534 619h121v-607h174v-98h-174v-12v-187v-10h-131v10zM135 952h387v457z" />
    <glyph glyph-name="five.numr" horiz-adv-x="878" 
d="M449 635q-168 0 -273.5 84t-118.5 231h121q10 -106 80.5 -161.5t187.5 -55.5q116 0 176 63t60 160q0 108 -61.5 166t-159.5 58q-169 0 -254 -123l-105 39l78 463h596v-101h-508l-51 -307q99 117 283 117q141 0 228 -83.5t87 -232.5q0 -140 -97 -228.5t-269 -88.5z" />
    <glyph glyph-name="six.numr" horiz-adv-x="907" 
d="M467 633q-191 0 -292 125.5t-101 335.5q0 213 106 347t301 134q143 0 238 -78t112 -211h-118q-9 93 -71.5 146t-160.5 53q-135 0 -206 -101t-76 -274q0 -53 8 -94q25 100 112.5 161.5t204.5 61.5q132 0 219.5 -81.5t87.5 -215.5q0 -138 -100 -223.5t-264 -85.5zM221 918
q55 -195 244 -195q103 0 169 58.5t66 158.5q0 101 -63 159t-156 58q-99 0 -174.5 -66.5t-85.5 -172.5z" />
    <glyph glyph-name="seven.numr" horiz-adv-x="737" 
d="M90 655l496 795h-566v109h707l2 -70l-498 -834h-141z" />
    <glyph glyph-name="eight.numr" horiz-adv-x="942" 
d="M471 633q-194 0 -296.5 69t-102.5 197q0 95 73.5 161.5t182.5 78.5q-107 17 -163 70.5t-56 138.5q0 104 93.5 164.5t266.5 60.5q175 0 270 -61t95 -164q0 -85 -56.5 -138.5t-163.5 -70.5q109 -12 182.5 -78t73.5 -162q0 -128 -102.5 -197t-296.5 -69zM203 909
q0 -186 268 -186t268 186q0 85 -72.5 134t-195.5 49t-195.5 -49t-72.5 -134zM233 1337q0 -71 63.5 -115t174.5 -44q112 0 174 44t62 115q0 68 -62.5 109t-173.5 41q-109 0 -173.5 -41t-64.5 -109z" />
    <glyph glyph-name="nine.numr" horiz-adv-x="907" 
d="M440 1575q191 0 292.5 -126t101.5 -335q0 -213 -106.5 -347t-301.5 -134q-144 0 -239.5 78t-110.5 211h119q9 -93 71 -146t158 -53q137 0 208.5 101.5t74.5 273.5q0 43 -7 94q-26 -100 -113.5 -161.5t-203.5 -61.5q-132 0 -219.5 81.5t-87.5 215.5q0 139 100 224t264 85z
M207 1268q0 -100 63 -157.5t156 -57.5q100 0 175 66t85 173q-55 193 -244 193q-103 0 -169 -58t-66 -159z" />
    <glyph glyph-name="exclamdown.case" horiz-adv-x="579" 
d="M221 1114h137l23 -1114h-182zM201 1333v217h178v-217h-178z" />
    <glyph glyph-name="questiondown.case" horiz-adv-x="1040" 
d="M674 1106q28 -83 28 -154q0 -57 -25.5 -109t-66.5 -92.5t-90.5 -78.5t-99 -76.5t-90.5 -78t-66.5 -90t-25.5 -105.5q0 -91 64.5 -152t184.5 -61q147 0 228.5 89t89.5 244h162q-12 -220 -147 -342.5t-347 -122.5q-186 0 -295.5 93t-109.5 245q0 73 26.5 135t69 106.5
t94 84t103.5 75t94.5 71.5t69 81.5t26.5 96.5q0 67 -27 141h150zM483 1333v217h181v-217h-181z" />
    <glyph glyph-name="periodcentered.case" horiz-adv-x="417" 
d="M119 696v217h180v-217h-180z" />
    <glyph glyph-name="bullet.case" horiz-adv-x="444" 
d="M98 694v246h248v-246h-248z" />
    <glyph glyph-name="hyphen.case" horiz-adv-x="976" 
d="M102 856h770v-100h-770v100z" />
    <glyph glyph-name="endash.case" horiz-adv-x="1894" 
d="M104 760v96h1686v-96h-1686z" />
    <glyph glyph-name="emdash.case" horiz-adv-x="2551" 
d="M104 760v96h2343v-96h-2343z" />
    <glyph glyph-name="parenleft.case" horiz-adv-x="884" 
d="M776 -209q-143 37 -268.5 120.5t-223.5 206.5t-155 292.5t-57 363.5q0 156 37 297t102.5 251.5t154.5 199t193 147t217 86.5v-145q-108 -34 -203.5 -105t-171.5 -175t-120.5 -248t-44.5 -308t44.5 -308.5t120.5 -248t171.5 -175t203.5 -105.5v-146z" />
    <glyph glyph-name="parenright.case" horiz-adv-x="884" 
d="M109 1755q143 -37 268.5 -120.5t223.5 -206.5t155 -292.5t57 -363.5q0 -156 -37 -297t-102.5 -251.5t-154.5 -199t-193 -147t-217 -86.5v146q108 34 203.5 105t171.5 174.5t120.5 247.5t44.5 308t-44.5 308.5t-120.5 248.5t-171.5 175.5t-203.5 105.5v145z" />
    <glyph glyph-name="braceleft.case" horiz-adv-x="772" 
d="M664 -209q-252 0 -350 125.5t-48 380.5q17 88 19 156t-11.5 112.5t-34.5 75t-54.5 46.5t-67 22t-76.5 6v112q43 0 76.5 6t67 22t54.5 46.5t34.5 75.5t11.5 114t-19 158q-50 254 48.5 380t349.5 126v-127q-126 0 -187.5 -41t-71 -127.5t16.5 -220.5q81 -435 -215 -465
q298 -30 215 -469q-27 -134 -17 -220t71 -126.5t188 -40.5v-127z" />
    <glyph glyph-name="braceright.case" horiz-adv-x="772" 
d="M109 1755q251 0 349 -125t48 -381q-17 -88 -19 -156t11.5 -112.5t34.5 -75t54.5 -46.5t67 -22t76.5 -6v-112q-43 0 -76.5 -6t-67 -22t-54.5 -46.5t-34.5 -75.5t-11.5 -114t19 -158q50 -254 -48 -380t-349 -126v127q126 0 187.5 41t70.5 127.5t-17 220.5q-81 435 215 465
q-298 30 -215 469q27 134 17.5 220t-70.5 126.5t-188 40.5v127z" />
    <glyph glyph-name="bracketleft.case" horiz-adv-x="757" 
d="M168 -203v1944h483v-133h-317v-1678h317v-133h-483z" />
    <glyph glyph-name="bracketright.case" horiz-adv-x="757" 
d="M590 1739v-1944h-484v133h318v1678h-318v133h484z" />
    <glyph glyph-name="uni3010.case" horiz-adv-x="796" 
d="M168 -203v1946h520q-225 -179 -334.5 -416.5t-109.5 -550.5t109.5 -554.5t334.5 -424.5h-520z" />
    <glyph glyph-name="uni3011.case" horiz-adv-x="796" 
d="M629 1743v-1946h-520q225 179 334.5 416.5t109.5 550.5t-109.5 554.5t-334.5 424.5h520z" />
    <glyph glyph-name="uni3016.case" horiz-adv-x="927" 
d="M168 -205v1948h651q-218 -179 -324 -416.5t-106 -550.5q0 -319 106 -561.5t324 -419.5h-651zM229 -154h457q-183 176 -270.5 404.5t-87.5 525.5q0 292 87.5 517t270.5 397h-457v-1844z" />
    <glyph glyph-name="uni3017.case" horiz-adv-x="927" 
d="M109 -205q218 177 324 419.5t106 561.5q0 313 -106 550.5t-324 416.5h651v-1948h-651zM242 -154h456v1844h-456q183 -172 270.5 -397t87.5 -517q0 -297 -87.5 -525.5t-270.5 -404.5z" />
    <glyph glyph-name="guillemotleft.case" horiz-adv-x="1011" 
d="M541 389l-461 369v69l461 371v-139l-328 -264v-2l328 -267v-137zM434 758v69l461 371v-139l-328 -264v-2l328 -267v-137z" />
    <glyph glyph-name="guillemotright.case" horiz-adv-x="1011" 
d="M471 1196l461 -369v-69l-461 -371v139l328 265v2l-328 266v137zM115 387v139l327 265v2l-327 266v137l460 -369v-69z" />
    <glyph glyph-name="guilsinglleft.case" horiz-adv-x="655" 
d="M541 391l-461 369v69l461 371v-139l-328 -264v-2l328 -267v-137z" />
    <glyph glyph-name="guilsinglright.case" horiz-adv-x="655" 
d="M115 1196l460 -369v-69l-460 -371v139l327 265v2l-327 266v137z" />
    <glyph glyph-name="at.case" horiz-adv-x="2074" 
d="M922 -188q-397 0 -615.5 213t-218.5 593q0 177 49 341.5t145.5 302.5t229.5 241t310.5 161t379.5 58q375 0 584 -199t209 -534q0 -104 -23 -207.5t-69 -197t-110 -165.5t-152.5 -114.5t-188.5 -42.5q-134 0 -202.5 74.5t-65.5 204.5q-71 -128 -170.5 -203.5t-218.5 -75.5
q-133 0 -201 90.5t-68 231.5q0 111 40 233t108 225.5t169 170.5t212 67q112 0 176 -65.5t78 -172.5l65 209l152 33l-183 -575q-42 -129 -34 -209.5t52 -117t122 -36.5q123 0 223 98.5t151.5 246t51.5 304.5q0 301 -183.5 477.5t-525.5 176.5q-195 0 -363 -57.5t-288 -156.5
t-206 -231t-127.5 -282t-41.5 -308q0 -341 195 -533t561 -192q168 0 317.5 46t306.5 153l-8 -86q-276 -190 -624 -190zM688 596q0 -101 42 -164t126 -63q62 0 122.5 37t107.5 97.5t82 130t57 140.5l16 57q45 147 -2 243.5t-156 96.5q-83 0 -159 -57.5t-126.5 -144.5
t-80 -186.5t-29.5 -186.5z" />
    <glyph glyph-name="ampersand.ss01" horiz-adv-x="1677" 
d="M614 807l-14 14q-131 -62 -202.5 -162.5t-71.5 -226.5q0 -155 100.5 -246.5t261.5 -91.5q251 0 397 228zM164 406q0 165 98 287.5t270 201.5q-90 103 -130 182t-40 164q0 151 101 242.5t260 91.5q169 0 269 -114t108 -302h-142q-8 131 -66 215t-169 84q-94 0 -152.5 -59
t-58.5 -154q0 -84 52.5 -160.5t195.5 -224.5l393 -403q60 151 70 329h157v-32q-70 -237 -147 -379l344 -355l2 -20h-180l-244 250q-200 -275 -514 -275q-216 0 -346.5 119.5t-130.5 311.5z" />
    <glyph glyph-name="registered.ss01" horiz-adv-x="1714" 
d="M858 -18q-337 0 -537 212.5t-200 579.5t200.5 581t536.5 214q335 0 535 -214t200 -581t-200 -579.5t-535 -212.5zM203 774q0 -333 178 -528t477 -195q297 0 475 195t178 528t-178.5 529t-474.5 196q-299 0 -477 -196t-178 -529zM637 387v129v537v129h213q278 0 278 -199
q0 -89 -56 -138.5t-159 -58.5l252 -391l-6 -8h-104l-232 383h-90v-254v-129h-96zM733 842h101q104 0 151 32.5t47 100.5t-44.5 100.5t-139.5 32.5h-115v-266z" />
    <glyph glyph-name="uni2117.ss01" horiz-adv-x="1714" 
d="M643 387v129v537v129h234q284 0 284 -205q0 -102 -74.5 -154.5t-214.5 -52.5h-131v-254v-129h-98zM121 774q0 367 200.5 581t536.5 214q335 0 535 -214t200 -581t-200 -579.5t-535 -212.5q-337 0 -537 212.5t-200 579.5zM203 774q0 -333 178 -528t477 -195q297 0 475 195
t178 528t-178.5 529t-474.5 196q-299 0 -477 -196t-178 -529zM741 842h125q103 0 151 32.5t48 100.5t-45.5 100.5t-140.5 32.5h-138v-266z" />
    </font>
</defs>
</svg>
