<?xml version="1.0" standalone="no"?>
<!DOCTYPE svg PUBLIC "-//W3C//DTD SVG 1.1//EN" "http://www.w3.org/Graphics/SVG/1.1/DTD/svg11.dtd" >
<svg xmlns="http://www.w3.org/2000/svg" xmlns:xlink="http://www.w3.org/1999/xlink" version="1.1">
<metadata>
Created by FontForge 20201107 at Wed Sep 11 11:37:26 2024
 By 
(c) 2015-2022 Pangram Pangram All rights reserved.
</metadata>
<defs>
<font id="PPFragment-GlareRegular" horiz-adv-x="0" >
  <font-face 
    font-family="PP Fragment Glare"
    font-weight="400"
    font-stretch="normal"
    units-per-em="2048"
    panose-1="0 0 0 0 0 0 0 0 0 0"
    ascent="1638"
    descent="-410"
    x-height="1001"
    cap-height="1550"
    bbox="-483 -860.087 4106 2048"
    underline-thickness="122"
    underline-position="-224"
    unicode-range="U+0021-1F449"
  />
<missing-glyph horiz-adv-x="1044" 
d="M856 1597v-2089h-661v2089h661zM348 -348h348v69h-213l146 99h67v69h-348v-69h148l-148 -99v-69zM348 -63h348v235h-348v-235zM348 299h348v236h-209v-117h70v47h70v-98h-209v168h-70v-236zM348 580h348v208h-69v-137h-279v-71zM348 698h209v148h139v67h-348v-67h139v-78
h-139v-70zM348 971h348v71h-139v146h-209v-217zM348 1243h348v68h-139v78h139v69h-346v-69h137v-78h-139v-68zM418 6v98h209v-98h-209zM418 1042v74h69v-74h-69z" />
    <glyph glyph-name="fl" unicode="fl" horiz-adv-x="1284" 
d="M821 0v8q54 35 70 91.5t16 174.5v631h-461v-626q0 -118 17.5 -177t73.5 -94v-8h-383v8q52 35 68 91.5t16 174.5v631h-218v96h218v162q0 117 31 206t87 142.5t127 80t156 26.5q201 0 313 -150l144 146l26 -4q-6 -92 -6 -314v-1022q0 -118 16 -174.5t68 -91.5v-8h-379z
M438 1229q0 -111 6 -228h463v299q-30 105 -93.5 164.5t-158.5 59.5q-217 0 -217 -295z" />
    <glyph glyph-name="T_h" unicode="Th" horiz-adv-x="2414" 
d="M1264 0v8q53 35 69.5 92.5t16.5 173.5v1119q-308 61 -508 61h-47v-1180q0 -118 16.5 -174.5t71.5 -91.5v-8h-406v8q55 35 72.5 92t17.5 174v1180h-47q-60 0 -140 -13t-143.5 -27.5t-201.5 -49.5v186h1532l14 -6q-11 -41 -14.5 -58t-7 -65t-3.5 -125v-520q50 114 149 187
t239 73q317 0 317 -374v-388q0 -117 15 -174t65 -92v-8h-365v8q47 35 61.5 92t14.5 174v371q0 266 -205 266q-110 0 -184.5 -73.5t-106.5 -188.5v-375q0 -118 16 -174.5t68 -91.5v-8h-376z" />
    <glyph glyph-name="f_f" unicode="ff" horiz-adv-x="1454" 
d="M111 0v8q52 35 68 91.5t16 174.5v631h-218v96h218v123q0 116 31.5 204.5t86 139.5t121 76t144.5 25q215 0 329 -166q48 109 137.5 162t206.5 53q119 0 209 -54t139 -145l-131 -110q-68 211 -221 211q-186 0 -186 -269q0 -82 8 -250h383v-96h-379v-626q0 -119 19.5 -177.5
t81.5 -93.5v-8h-392v8q51 35 66.5 91.5t15.5 174.5v631h-461v-626q0 -118 17.5 -177t73.5 -94v-8h-383zM391 1192q0 -51 8 -191h465v158q0 26 4 76q-30 117 -97.5 180.5t-170.5 63.5q-209 0 -209 -287z" />
    <glyph glyph-name="f_f_i" unicode="ffi" horiz-adv-x="1886" 
d="M111 0v8q52 35 68 91.5t16 174.5v631h-218v96h218v123q0 116 31.5 204.5t86 139.5t121 76t144.5 25q220 0 335 -174q52 112 149 165.5t224 53.5q179 0 292.5 -99t141.5 -266h-192q-16 123 -79 197t-167 74q-225 0 -225 -316q0 -106 10 -203h670v-727q0 -119 15.5 -175.5
t66.5 -92.5v-6h-371v8q50 35 65 91.5t15 174.5l2 631h-459v-626q0 -119 17.5 -177.5t72.5 -93.5v-8h-381v8q51 35 66.5 91.5t15.5 174.5v631h-459v-626q0 -118 17.5 -177t73.5 -94v-8h-383zM391 1192q0 -51 8 -191h463v121q0 60 6 109q-28 119 -96 183.5t-172 64.5
q-209 0 -209 -287z" />
    <glyph glyph-name="f_f_l" unicode="ffl" horiz-adv-x="1912" 
d="M111 0v8q52 35 68 91.5t16 174.5v631h-218v96h218v123q0 116 31.5 204.5t86 139.5t121 76t144.5 25q217 0 331 -170q49 111 143 165t216 54q200 0 313 -150l143 146l27 -4q-6 -92 -6 -314v-1022q0 -118 16 -174.5t68 -91.5v-8h-379v8q54 35 70 91.5t16 174.5v631h-461
v-626q0 -119 17.5 -177.5t72.5 -93.5v-8h-383v8q52 35 68 91.5t16 174.5v631h-463v-626q0 -118 17.5 -177t73.5 -94v-8h-383zM391 1192q0 -51 8 -191h467v162q0 46 2 66q-28 120 -96 185t-172 65q-209 0 -209 -287zM1067 1229q0 -111 6 -228h463v299q-30 105 -93.5 164.5
t-158.5 59.5q-217 0 -217 -295z" />
    <glyph glyph-name="f_i" unicode="fi" horiz-adv-x="1257" 
d="M152 0v8q51 35 66 91.5t15 174.5v631h-215v96h215v121q0 129 33 226t92 154t134 84.5t165 27.5q179 0 293 -99t142 -266h-193q-16 123 -79 197t-167 74q-225 0 -225 -316q0 -106 10 -203h670v-727q0 -119 15.5 -175.5t66.5 -92.5v-6h-371v8q50 35 65 91.5t15 174.5l2 631
h-459v-626q0 -119 17.5 -177.5t72.5 -93.5v-8h-380z" />
    <glyph glyph-name="g_t" unicode="gt" horiz-adv-x="1959" 
d="M1634 -18q-293 0 -293 342v954l203 149h6v-426h328v-98h-328v-573q0 -119 42 -167t118 -48q142 0 217 147l27 -74q-48 -97 -131.5 -151.5t-188.5 -54.5zM80 100q0 77 58.5 140.5t162.5 109.5q-141 109 -141 293q0 179 131.5 284t329.5 105q241 0 370 -141
q26 76 93.5 124.5t164.5 51.5v-164q-154 0 -209 -84q43 -73 43 -176q0 -181 -129.5 -285t-330.5 -104q-147 0 -254 55q-133 -62 -133 -151q0 -48 37.5 -72t125.5 -23q84 1 296 36.5t296 35.5q119 0 185.5 -50.5t66.5 -147.5q0 -99 -66.5 -186t-173.5 -145t-240 -91t-267 -33
q-109 0 -190.5 20.5t-133 68t-51.5 118.5q0 143 231 215h-4q-122 0 -195 52t-73 144zM274 -283q0 -137 242 -137q128 0 253.5 36.5t210.5 105t85 149.5q0 53 -33.5 75.5t-111.5 22.5q-152 0 -394 -65q-129 -33 -190.5 -77t-61.5 -110zM367 643q0 -137 68 -217t186 -80
q121 0 189.5 80t68.5 217t-69 216t-189 79q-118 0 -186 -79t-68 -216z" />
    <glyph glyph-name=".notdef" horiz-adv-x="1044" 
d="M856 1597v-2089h-661v2089h661zM348 -348h348v69h-213l146 99h67v69h-348v-69h148l-148 -99v-69zM348 -63h348v235h-348v-235zM348 299h348v236h-209v-117h70v47h70v-98h-209v168h-70v-236zM348 580h348v208h-69v-137h-279v-71zM348 698h209v148h139v67h-348v-67h139v-78
h-139v-70zM348 971h348v71h-139v146h-209v-217zM348 1243h348v68h-139v78h139v69h-346v-69h137v-78h-139v-68zM418 6v98h209v-98h-209zM418 1042v74h69v-74h-69z" />
    <glyph glyph-name=".null" 
 />
    <glyph glyph-name="nonmarkingreturn" horiz-adv-x="682" 
 />
    <glyph glyph-name="space" unicode="&#xa0;" horiz-adv-x="548" 
 />
    <glyph glyph-name="space" unicode=" " horiz-adv-x="548" 
 />
    <glyph glyph-name="exclam" unicode="!" horiz-adv-x="567" 
d="M231 446l-65 1104h237l-65 -1104h-107zM180 0v242h207v-242h-207z" />
    <glyph glyph-name="quotedbl" unicode="&#x22;" horiz-adv-x="692" 
d="M147 999l-53 551h191l-54 -551h-84zM408 1550h190l-53 -551h-84z" />
    <glyph glyph-name="numbersign" unicode="#" horiz-adv-x="1296" 
d="M248 -20l131 591h-301v82h319l56 252h-330v82h348l129 586h94l-129 -586h260l129 586h97l-129 -586h297v-82h-316l-55 -252h328v-82h-347l-131 -591h-96l131 591h-260l-131 -591h-94zM492 653h260l55 252h-260z" />
    <glyph glyph-name="dollar" unicode="$" horiz-adv-x="1372" 
d="M670 -348v332q-223 18 -366 154t-167 368h209q20 -172 100.5 -284t223.5 -134v621l-37 20q-84 45 -139.5 78.5t-114 78.5t-92 88t-55 99.5t-21.5 120.5q0 173 127.5 273.5t331.5 103.5v307h78v-309q195 -19 321 -133t156 -308h-207q-16 139 -84 228.5t-186 109.5v-561
q12 -8 36 -20q67 -36 109.5 -60t95 -57.5t84.5 -61t66 -64t52 -73t30 -82t12 -96.5q0 -187 -133.5 -296.5t-351.5 -112.5v-330h-78zM410 1249q0 -94 62 -160.5t202 -144.5v529q-124 0 -193 -61.5t-71 -162.5zM743 84q132 2 210 69.5t79 186.5q0 102 -65 171.5t-224 158.5
v-586z" />
    <glyph glyph-name="percent" unicode="%" horiz-adv-x="1540" 
d="M119 0l1184 1550h124l-1183 -1550h-125zM68 1245q0 146 96 238t248 92t248 -92t96 -238q0 -145 -96 -237.5t-248 -92.5t-248 92.5t-96 237.5zM219 1245q0 -118 51 -184t142 -66q89 0 139.5 66t50.5 184q0 119 -50 184.5t-140 65.5q-91 0 -142 -65.5t-51 -184.5zM786 305
q0 146 96 238t248 92t248.5 -92t96.5 -238q0 -145 -96.5 -237.5t-248.5 -92.5t-248 92.5t-96 237.5zM938 305q0 -118 50.5 -184t141.5 -66q90 0 140.5 66t50.5 184q0 119 -50.5 184.5t-140.5 65.5q-91 0 -141.5 -65t-50.5 -185z" />
    <glyph glyph-name="ampersand" unicode="&#x26;" horiz-adv-x="1720" 
d="M670 -27q-223 0 -364.5 110t-141.5 304q0 151 92 259t281 208q-123 129 -172.5 214t-49.5 181q0 152 114.5 242t295.5 90q168 0 277.5 -86t109.5 -233q0 -124 -89.5 -220.5t-258.5 -175.5l410 -417q52 112 77 241l201 -2q-84 -201 -174 -344l317 -324v-20h-229l-195 201
q-205 -228 -501 -228zM377 420q0 -141 94.5 -227.5t255.5 -86.5q211 0 356 187l-479 493q-118 -86 -172.5 -172t-54.5 -194zM508 1268q0 -81 42.5 -153t145.5 -179q118 70 174 150t56 178q0 108 -55.5 164.5t-145.5 56.5q-97 0 -157 -57.5t-60 -159.5z" />
    <glyph glyph-name="quotesingle" unicode="'" horiz-adv-x="376" 
d="M147 999l-53 551h191l-54 -551h-84z" />
    <glyph glyph-name="parenleft" unicode="(" horiz-adv-x="841" 
d="M768 -293q-197 61 -352.5 198.5t-247.5 343t-92 445.5q0 179 54.5 339.5t150 282.5t221 210.5t270.5 134.5v-109q-218 -102 -351.5 -332.5t-133.5 -525.5q0 -300 131.5 -540t349.5 -340v-107z" />
    <glyph glyph-name="parenright" unicode=")" horiz-adv-x="841" 
d="M74 -186q218 100 349.5 340t131.5 540q0 295 -133.5 525.5t-351.5 332.5v109q145 -46 270.5 -134.5t221 -210.5t150 -282.5t54.5 -339.5q0 -240 -92 -445.5t-247.5 -343t-352.5 -198.5v107z" />
    <glyph glyph-name="asterisk" unicode="*" horiz-adv-x="1110" 
d="M487 639l45 399l-247 -315l-97 94l314 252l-400 -43v135l400 -43l-314 254l97 94l247 -315l-45 399h136l-45 -399l249 315l95 -94l-314 -254l400 43v-135l-400 43l314 -252l-95 -94l-249 315l45 -399h-136z" />
    <glyph glyph-name="plus" unicode="+" horiz-adv-x="1175" 
d="M530 39v438h-405v107h407v440h113v-440h406v-105h-408v-440h-113z" />
    <glyph glyph-name="comma" unicode="," horiz-adv-x="438" 
d="M59 -201q182 31 199 203h-139v240h207v-209q0 -140 -67.5 -228.5t-199.5 -119.5v114z" />
    <glyph glyph-name="hyphen" unicode="-" horiz-adv-x="954" 
d="M90 590q388 -19 774 0v-117q-386 19 -774 0v117z" />
    <glyph glyph-name="period" unicode="." horiz-adv-x="434" 
d="M115 0v242h207v-242h-207z" />
    <glyph glyph-name="slash" unicode="/" horiz-adv-x="1036" 
d="M16 -244l889 1997h117l-889 -1997h-117z" />
    <glyph glyph-name="zero" unicode="0" horiz-adv-x="1384" 
d="M692 -33q-279 0 -435.5 211.5t-156.5 595.5t156 594.5t436 210.5t436 -211t156 -596q0 -384 -156 -594.5t-436 -210.5zM330 772q0 -704 362 -704q363 0 363 704q0 357 -93 533t-270 176q-362 0 -362 -709z" />
    <glyph glyph-name="one" unicode="1" horiz-adv-x="862" 
d="M305 0v8q65 35 86 94t21 177v976q-42 -82 -135 -148.5t-211 -74.5v150q171 22 290 131.5t150 236.5h135v-1276q0 -119 17.5 -175t78.5 -91v-8h-432z" />
    <glyph glyph-name="two" unicode="2" horiz-adv-x="1304" 
d="M98 31q0 77 32 139.5t118 148.5t270 238q208 172 272 237q122 121 155 236q16 57 16 125q0 154 -76.5 236t-214.5 82q-176 0 -270.5 -126t-96.5 -333h-207q15 263 175.5 415t428.5 152q224 0 357 -110.5t133 -315.5q0 -74 -20 -140t-53.5 -121.5t-92 -114.5
t-121.5 -109.5t-155 -116.5q-347 -241 -459 -373h911l2 -180h-1104v31z" />
    <glyph glyph-name="three" unicode="3" horiz-adv-x="1349" 
d="M692 -35q-269 0 -432 154t-178 422h125q12 -211 131.5 -329t312.5 -118q182 0 278.5 93.5t96.5 246.5q0 159 -111 247.5t-319 88.5h-143v102h161q177 0 278 88t101 236q0 57 -17.5 106t-53 89t-96 63t-140.5 23q-168 0 -269.5 -98t-121.5 -279h-201q30 219 196 350
t423 131q233 0 365 -106t132 -275q0 -147 -102.5 -244t-276.5 -125q193 -26 308.5 -130t115.5 -279q0 -95 -39.5 -178.5t-111 -145.5t-178 -97.5t-234.5 -35.5z" />
    <glyph glyph-name="four" unicode="4" horiz-adv-x="1427" 
d="M782 0v8q57 35 73.5 91t16.5 175v111h-831v117l893 1052h158v-1003h292v-166h-292v-111q0 -118 16.5 -174.5t71.5 -91.5v-8h-398zM209 551h663l2 786z" />
    <glyph glyph-name="five" unicode="5" horiz-adv-x="1312" 
d="M649 -35q-252 0 -407 141.5t-168 387.5h119q12 -189 125.5 -294.5t285.5 -105.5q186 0 288.5 109.5t102.5 294.5q0 193 -103.5 292t-277.5 99q-108 0 -205 -40t-161 -122l-107 45l107 778h919v-174h-831l-72 -536q77 80 192 123t244 43q245 0 386 -133t141 -371
q0 -244 -156.5 -390.5t-421.5 -146.5z" />
    <glyph glyph-name="six" unicode="6" horiz-adv-x="1413" 
d="M719 -35q-154 0 -273 52.5t-195 150t-114.5 231t-38.5 299.5q0 181 45 339t129 279t216 191t296 70q224 0 367 -126.5t172 -356.5h-125q-21 165 -122.5 262.5t-262.5 97.5q-103 0 -186 -42t-138 -113.5t-92 -170.5t-53 -207t-16 -229v-59q42 163 174.5 260.5t302.5 97.5
q139 0 251 -58t179.5 -172.5t67.5 -266.5q0 -124 -45.5 -225.5t-125 -167t-185.5 -101t-228 -35.5zM350 434q71 -360 365 -360q160 0 259 109t99 298q0 187 -96 288t-244 101q-166 0 -276 -123t-107 -313z" />
    <glyph glyph-name="seven" unicode="7" horiz-adv-x="1124" 
d="M158 0l755 1372h-888v178h1067v-65l-693 -1485h-241z" />
    <glyph glyph-name="eight" unicode="8" horiz-adv-x="1470" 
d="M737 -35q-187 0 -333.5 52t-233 156t-86.5 245q0 119 62.5 210t164.5 142.5t236 69.5q-175 27 -272 123.5t-97 234.5q0 170 146.5 275.5t410.5 105.5q265 0 412 -105t147 -274q0 -139 -97.5 -235.5t-270.5 -124.5q204 -26 332 -135t128 -287q0 -141 -86 -245t-231.5 -156
t-331.5 -52zM326 428q0 -164 114.5 -261t296.5 -97q180 0 295 97.5t115 260.5q0 161 -110.5 258.5t-299.5 97.5q-190 0 -300.5 -97.5t-110.5 -258.5zM397 1194q0 -130 86.5 -221.5t253.5 -91.5q84 0 150.5 26.5t106.5 71t60.5 99.5t20.5 116q0 126 -88 210.5t-250 84.5
q-164 0 -252 -84.5t-88 -210.5z" />
    <glyph glyph-name="nine" unicode="9" horiz-adv-x="1413" 
d="M696 1581q204 0 344.5 -95t207.5 -262t67 -397q0 -141 -25 -267t-78 -235t-130 -187.5t-186.5 -123.5t-242.5 -45q-224 0 -367 126.5t-175 357.5h127q22 -165 123 -263t262 -98q105 0 187 43t133 113.5t84.5 169.5t46.5 203t13 223q0 48 -2 71q-41 -162 -173 -259
t-308 -97q-138 0 -249 57.5t-177.5 171.5t-66.5 265q0 166 79 287.5t210 181t296 59.5zM340 1065q0 -186 96 -286.5t244 -100.5q167 0 276.5 125t106.5 317q-73 355 -358 355q-164 0 -264.5 -110.5t-100.5 -299.5z" />
    <glyph glyph-name="colon" unicode=":" horiz-adv-x="475" 
d="M135 616v242h207v-242h-207zM135 0v242h207v-242h-207z" />
    <glyph glyph-name="semicolon" unicode=";" horiz-adv-x="479" 
d="M135 616v242h207v-242h-207zM80 -315v114q182 31 199 203h-140v240h207v-209q0 -140 -67.5 -228.5t-198.5 -119.5z" />
    <glyph glyph-name="less" unicode="&#x3c;" horiz-adv-x="1175" 
d="M1036 154l-923 333v88l923 332v-110l-768 -265l768 -266v-112z" />
    <glyph glyph-name="equal" unicode="=" horiz-adv-x="1175" 
d="M125 655v105h926v-103zM125 301v105h926v-103z" />
    <glyph glyph-name="greater" unicode="&#x3e;" horiz-adv-x="1175" 
d="M139 154v112l768 266l-768 265v110l924 -332v-88z" />
    <glyph glyph-name="question" unicode="?" horiz-adv-x="1058" 
d="M365 446q-41 96 -41 168q0 57 26 107.5t67 89.5t91 76t100.5 74.5t91.5 77.5t67 92.5t26 111.5q0 97 -60 160t-170 63q-143 0 -223 -100t-86 -279h-197q13 231 157.5 359.5t371.5 128.5q196 0 311 -92t115 -242q0 -73 -30.5 -134t-79 -102.5t-107 -78t-117.5 -69
t-107.5 -66t-79 -78.5t-30.5 -97q0 -64 71 -170h-167zM362 0v242h207v-242h-207z" />
    <glyph glyph-name="at" unicode="@" horiz-adv-x="2121" 
d="M952 -336q-267 0 -460 92.5t-298.5 276t-105.5 442.5q0 177 48 341t143.5 303t228.5 243t313.5 162.5t388.5 58.5q199 0 356 -55.5t257.5 -155.5t152.5 -235t52 -297q0 -139 -40 -269t-110.5 -231t-177.5 -162t-232 -61q-144 0 -216.5 77t-67.5 209
q-70 -131 -168.5 -208.5t-218.5 -77.5q-130 0 -199.5 91t-69.5 243q0 120 42 244t111.5 223t169 162t206.5 63q117 0 181.5 -72.5t72.5 -185.5l69 225l195 41l-191 -598q-116 -365 129 -365q96 0 180.5 55.5t141.5 147t90 209.5t33 242q0 310 -192.5 495t-555.5 185
q-199 0 -370.5 -57t-295 -156t-212 -232.5t-131.5 -287t-43 -318.5q0 -240 98 -408t276 -251.5t424 -83.5q363 0 648 209l-9 -72q-276 -201 -643 -201zM729 457q0 -103 38 -165.5t116 -62.5q57 0 113 36t99.5 95.5t77.5 128t56 140.5l18 59q24 90 22.5 165.5t-42.5 125.5
t-113 53q-77 3 -149.5 -51.5t-123 -139.5t-81.5 -187.5t-31 -196.5z" />
    <glyph glyph-name="A" unicode="A" horiz-adv-x="1503" 
d="M4 6q57 36 98.5 89.5t73.5 142.5l438 1175q25 76 4 137h234l496 -1321q32 -88 66 -139t85 -82v-8h-446v6q58 33 68 86t-21 135l-86 250h-613l-88 -246q-33 -90 -26 -141.5t59 -83.5v-6h-342v6zM438 580h539l-266 766z" />
    <glyph glyph-name="B" unicode="B" horiz-adv-x="1390" 
d="M119 0v8q57 35 73.5 91.5t16.5 174.5v1002q0 123 -16.5 177.5t-73.5 90.5v6h538q178 0 306 -35.5t203 -115.5t75 -201q0 -149 -113.5 -237t-314.5 -109v-8q109 -9 199.5 -38.5t160 -78.5t108 -123.5t38.5 -167.5q0 -111 -46.5 -195t-132.5 -136.5t-204 -78.5t-266 -26
h-551zM432 100h223q428 0 428 342q0 172 -116.5 261.5t-327.5 89.5h-207v-693zM432 891h203q174 0 278.5 76t104.5 217q0 266 -379 266h-207v-559z" />
    <glyph glyph-name="C" unicode="C" horiz-adv-x="1710" 
d="M870 -29q-146 0 -272 40t-220 113t-161 172t-101 219.5t-34 254.5q0 237 102.5 420.5t286 283t418.5 99.5q185 0 336 -61t259.5 -189t151.5 -311h-225q-48 210 -184.5 331t-337.5 121q-128 0 -235.5 -52t-179 -141.5t-111 -211t-39.5 -260.5q0 -142 37.5 -263.5
t109.5 -214t185.5 -145.5t256.5 -53q246 0 404.5 144t200.5 390h133q-48 -318 -254 -502t-527 -184z" />
    <glyph glyph-name="D" unicode="D" horiz-adv-x="1695" 
d="M119 0v8q57 35 73.5 91.5t16.5 174.5v1002q0 123 -16.5 177.5t-73.5 90.5v6h590q275 0 478.5 -91t315 -266.5t111.5 -416.5q0 -360 -243 -568t-660 -208h-592zM438 102h258q308 0 493 179.5t185 492.5q0 161 -48.5 289t-137.5 212t-214 128.5t-278 44.5h-258v-1346z" />
    <glyph glyph-name="E" unicode="E" horiz-adv-x="1212" 
d="M119 0v8q57 35 73.5 91.5t16.5 174.5v1002q0 123 -16.5 177.5t-73.5 90.5v6h1001v-184q-180 45 -288 64.5t-195 19.5h-199v-590h123q119 0 455 12v-122q-252 12 -455 12h-123v-660h236q180 3 485 95v-197h-1040z" />
    <glyph glyph-name="F" unicode="F" horiz-adv-x="1183" 
d="M1143 1366q-316 84 -525 84h-180v-555h142q108 0 448 12v-123q-276 13 -448 13h-142v-523q0 -118 17 -174.5t75 -91.5v-8h-411v8q57 35 73.5 91.5t16.5 174.5v1002q0 123 -16.5 177.5t-73.5 90.5v6h1024v-184z" />
    <glyph glyph-name="G" unicode="G" horiz-adv-x="1798" 
d="M840 -29q-175 0 -319.5 61.5t-239.5 168t-147 250.5t-52 309q0 245 106.5 431.5t295 286t429.5 99.5q280 0 478 -134.5t258 -369.5h-224q-47 188 -182 292.5t-334 104.5q-177 0 -312.5 -88t-206.5 -241.5t-71 -347.5q0 -142 37.5 -264t109 -213.5t183.5 -144t252 -52.5
q244 0 391.5 153t175.5 416h-710l-2 103h915v-803h-98l-76 444q-66 -212 -237 -336.5t-420 -124.5z" />
    <glyph glyph-name="H" unicode="H" horiz-adv-x="1619" 
d="M119 0v8q57 35 73.5 91.5t16.5 174.5v1002q0 123 -16.5 177.5t-73.5 90.5v6h409v-6q-57 -36 -73.5 -90.5t-16.5 -177.5v-418h746v418q0 123 -16.5 177.5t-73.5 90.5v6h407v-6q-56 -37 -73 -91.5t-17 -176.5v-1002q0 -117 17.5 -174t72.5 -92v-8h-407v8q57 35 73.5 91.5
t16.5 174.5v480h-746v-480q0 -118 16.5 -174.5t73.5 -91.5v-8h-409z" />
    <glyph glyph-name="I" unicode="I" horiz-adv-x="647" 
d="M119 0v8q57 35 73.5 91.5t16.5 174.5v1002q0 123 -16.5 177.5t-73.5 90.5v6h409v-6q-57 -36 -73.5 -90.5t-16.5 -177.5v-1002q0 -118 16.5 -174.5t73.5 -91.5v-8h-409z" />
    <glyph glyph-name="J" unicode="J" horiz-adv-x="673" 
d="M14 -201q132 26 181 117t49 303v1057q0 123 -16.5 177.5t-73.5 90.5v6h405v-6q-56 -36 -72 -90.5t-16 -177.5v-1053q0 -250 -114.5 -376.5t-342.5 -145.5v98z" />
    <glyph glyph-name="K" unicode="K" horiz-adv-x="1406" 
d="M119 0v8q57 35 73.5 91.5t16.5 174.5v1002q0 123 -16.5 177.5t-73.5 90.5v6h409v-6q-57 -36 -73.5 -90.5t-16.5 -177.5v-488l545 570q77 81 154 192h258v-18q-68 -23 -116.5 -53t-98.5 -80l-478 -484l719 -901v-14h-266l-584 780l-133 -135v-371q0 -118 16.5 -174.5
t73.5 -91.5v-8h-409z" />
    <glyph glyph-name="L" unicode="L" horiz-adv-x="1187" 
d="M119 0v8q57 35 73.5 91.5t16.5 174.5v1002q0 123 -16.5 177.5t-73.5 90.5v6h407v-6q-56 -36 -72 -90.5t-16 -177.5v-1170h211q179 0 504 95v-201h-1034z" />
    <glyph glyph-name="M" unicode="M" horiz-adv-x="1947" 
d="M899 -18l-559 1339v-1047q0 -119 17.5 -175t78.5 -91v-8h-319v8q58 35 76 92t18 174v1002q0 122 -17 176.5t-73 91.5v6h346l512 -1245l502 1245h346v-6q-56 -36 -72 -90.5t-16 -177.5v-1002q0 -118 16.5 -174.5t73.5 -91.5v-8h-406v8q58 35 76.5 92t18.5 174v1072
l-555 -1364h-64z" />
    <glyph glyph-name="N" unicode="N" horiz-adv-x="1548" 
d="M1143 0l-809 1282v-997q0 -124 17.5 -182.5t78.5 -94.5v-8h-311v8q51 36 66.5 95t15.5 182v991q0 120 -11.5 175.5t-48.5 92.5v6h265l811 -1282v998q0 122 -18 181t-77 95v8h310v-8q-51 -36 -66.5 -94.5t-15.5 -181.5v-1266h-207z" />
    <glyph glyph-name="O" unicode="O" horiz-adv-x="1822" 
d="M913 -33q-244 0 -433.5 101t-293.5 284t-104 420t104 419.5t293.5 283t433.5 100.5q242 0 430.5 -100.5t293 -284t104.5 -420.5q0 -177 -61 -327t-169.5 -254.5t-262.5 -163t-335 -58.5zM324 770q0 -310 159.5 -503t429.5 -193q178 0 312 89t205 247t71 362
q0 203 -71 360t-205 245.5t-312 88.5q-179 0 -313.5 -88.5t-205 -245.5t-70.5 -362z" />
    <glyph glyph-name="P" unicode="P" horiz-adv-x="1308" 
d="M119 0v8q57 35 73.5 91.5t16.5 174.5v1002q0 123 -16.5 177.5t-73.5 90.5v6h532q613 0 613 -401q0 -109 -47.5 -191t-136 -132t-206.5 -74.5t-266 -24.5h-170v-453q0 -118 17 -174.5t75 -91.5v-8h-411zM438 827h158q206 0 321 78.5t115 243.5q0 301 -397 301h-197v-623z
" />
    <glyph glyph-name="Q" unicode="Q" horiz-adv-x="1822" 
d="M913 -33q-244 0 -433.5 101t-293.5 284t-104 420t104 419.5t293.5 283t433.5 100.5q242 0 430.5 -100.5t293 -284t104.5 -420.5q0 -214 -91 -385t-253 -276l278 -357v-22h-194l-215 307q-162 -70 -353 -70zM324 770q0 -310 159.5 -503t429.5 -193q160 0 281 65l-401 574
h129l385 -492q194 188 194 551q0 203 -71 360t-205 245.5t-312 88.5q-179 0 -313.5 -88.5t-205 -245.5t-70.5 -362z" />
    <glyph glyph-name="R" unicode="R" horiz-adv-x="1376" 
d="M1106 0l-504 752h-164v-478q0 -118 17 -174.5t75 -91.5v-8h-411v8q57 35 73.5 91.5t16.5 174.5v1002q0 123 -16.5 177.5t-73.5 90.5v6h555q275 0 429 -92.5t154 -288.5q0 -177 -122 -278t-330 -121l567 -756v-14h-266zM438 852h166q426 0 426 313q0 285 -395 285h-197
v-598z" />
    <glyph glyph-name="S" unicode="S" horiz-adv-x="1249" 
d="M659 -33q-254 0 -418 139.5t-190 391.5h213q22 -194 121 -311t277 -117q138 0 220 69t83 191q0 36 -9 68t-22 57.5t-43 54t-55.5 49t-77 51.5t-90 52.5t-111.5 60.5q-71 38 -120 66.5t-103 65t-88.5 71t-64 76.5t-43 89.5t-13.5 102.5q0 177 133 279t346 102
q225 0 373.5 -117.5t183.5 -331.5h-211q-20 160 -107.5 254.5t-238.5 94.5q-130 1 -202 -60.5t-74 -165.5q0 -34 9 -65t22.5 -55.5t42 -51.5t53.5 -46.5t72.5 -48t83 -48t100.5 -53.5q68 -36 111.5 -60.5t97.5 -58.5t86.5 -62t67 -65t53 -74t30.5 -83t12 -97
q0 -192 -141 -303t-369 -111z" />
    <glyph glyph-name="T" unicode="T" horiz-adv-x="1277" 
d="M35 1364v186h1210v-186q-137 35 -198 49.5t-139 27.5t-136 13h-18v-1180q0 -118 16.5 -174.5t71.5 -91.5v-8h-406v8q55 35 72.5 92t17.5 174v1180h-16q-59 0 -136.5 -13t-141 -28t-197.5 -49z" />
    <glyph glyph-name="U" unicode="U" horiz-adv-x="1533" 
d="M776 -33q-138 0 -242.5 34.5t-184.5 112t-121.5 211.5t-41.5 322v629q0 122 -17 176.5t-73 91.5v6h406v-6q-56 -36 -72 -90.5t-16 -177.5v-635q0 -290 94 -420.5t299 -130.5q206 0 306.5 130.5t100.5 420.5v635q0 123 -16.5 177.5t-73.5 90.5v6h314v-6q-56 -37 -73 -91.5
t-17 -176.5v-629q0 -356 -143.5 -518t-428.5 -162z" />
    <glyph glyph-name="V" unicode="V" horiz-adv-x="1386" 
d="M119 1339q-32 88 -59.5 132.5t-69.5 72.5v6h418v-6q-58 -26 -64.5 -75.5t23.5 -125.5l376 -1128l385 1128q30 86 24.5 130.5t-54.5 70.5v6h301v-6q-44 -26 -70 -69.5t-59 -133.5l-441 -1230q-20 -54 -20 -111h-207z" />
    <glyph glyph-name="W" unicode="W" horiz-adv-x="2066" 
d="M127 1339q-27 84 -55 131t-70 74v6h410v-6q-50 -25 -56.5 -74.5t19.5 -126.5l307 -1021l336 1159h129l346 -1168l307 1030q26 82 20.5 130.5t-51.5 70.5v6h297v-6q-41 -22 -70 -69.5t-54 -131.5l-381 -1226q-17 -63 -21 -117h-154l-348 1157l-309 -1044q-20 -72 -20 -113
h-154z" />
    <glyph glyph-name="X" unicode="X" horiz-adv-x="1347" 
d="M928 8q37 26 35.5 78t-37.5 109l-301 485l-303 -479q-38 -62 -39 -113.5t39 -79.5v-8h-336v8q91 47 194 197l381 579l-368 594q-69 118 -166 166v6h430l2 -8q-41 -22 -44 -64t31 -96l287 -462l297 458q77 123 6 166v6h312v-6q-93 -44 -172 -164l-379 -565l385 -622
q84 -134 182 -185v-8h-436v8z" />
    <glyph glyph-name="Y" unicode="Y" horiz-adv-x="1310" 
d="M162 1384q-38 68 -68.5 103t-77.5 57v6h410v-6q-75 -40 -14 -166l305 -559l295 559q20 40 28 69t-0.5 55.5t-38.5 41.5v6h295v-6q-82 -46 -145 -162l-369 -682v-426q0 -117 17.5 -174t72.5 -92v-8h-409v8q57 35 73.5 91.5t16.5 174.5v431z" />
    <glyph glyph-name="Z" unicode="Z" horiz-adv-x="1222" 
d="M53 0v96l842 1354h-326q-120 0 -229.5 -20t-288.5 -72v192h1106v-90l-846 -1358h322q208 0 547 99v-201h-1127z" />
    <glyph glyph-name="bracketleft" unicode="[" horiz-adv-x="792" 
d="M170 -272v1939h520v-100h-311v-1739h311v-100h-520z" />
    <glyph glyph-name="backslash" unicode="\" horiz-adv-x="1040" 
d="M1022 -244h-117l-889 1997h117z" />
    <glyph glyph-name="bracketright" unicode="]" horiz-adv-x="792" 
d="M623 -272h-521v100h312v1739h-312v100h521v-1939z" />
    <glyph glyph-name="asciicircum" unicode="^" horiz-adv-x="1175" 
d="M227 780l308 822h108l307 -822h-125l-237 701l-238 -701h-123z" />
    <glyph glyph-name="underscore" unicode="_" horiz-adv-x="1443" 
d="M0 -178v102h1444v-102h-1444z" />
    <glyph glyph-name="grave" unicode="`" horiz-adv-x="587" 
d="M424 1186l-322 362h185l198 -362h-61z" />
    <glyph glyph-name="a" unicode="a" horiz-adv-x="1136" 
d="M371 -27q-135 0 -217 68.5t-82 196.5q0 56 18.5 100.5t49.5 76.5t85 60t109.5 48t138.5 44q40 12 54 16t47 14.5t44.5 15.5t36 15t33 17t25 18.5t22 22.5t14 25.5t11 31t2.5 35.5q2 78 -49 122t-146 44q-54 0 -100.5 -15.5t-84.5 -47t-60 -84.5t-23 -123h-190
q12 171 148 267.5t329 96.5q82 0 148.5 -18.5t119.5 -57t82 -105.5t29 -157v-444q0 -160 96 -160q39 0 74 27v-76q-66 -63 -166 -63q-93 0 -151 63t-58 191v24q-44 -129 -143 -209t-246 -80zM274 264q0 -80 45.5 -120t116.5 -40q143 0 233.5 117t90.5 301v94
q-7 -16 -17.5 -29.5t-31 -26t-33 -20t-47 -20t-48 -17.5t-59.5 -20q-68 -22 -109.5 -40t-76 -43.5t-49.5 -58t-15 -77.5z" />
    <glyph glyph-name="b" unicode="b" horiz-adv-x="1251" 
d="M82 0v8q54 35 70 91.5t16 174.5v1049q0 101 -14 153.5t-56 86.5v6l279 35l12 -7q-12 -73 -12 -274v-553q50 123 146 193.5t237 70.5q193 0 304.5 -145.5t111.5 -374.5q0 -233 -121.5 -382.5t-321.5 -149.5q-114 0 -207 51.5t-147 144.5q0 -96 12 -178h-309zM377 287
q43 -94 119.5 -148.5t169.5 -54.5q137 0 214.5 115.5t77.5 312.5q0 117 -28.5 208t-92 147.5t-155.5 56.5q-144 0 -224.5 -123.5t-80.5 -319.5v-186v-8z" />
    <glyph glyph-name="c" unicode="c" horiz-adv-x="1142" 
d="M584 -35q-224 0 -365 145t-141 390q0 166 69 289t186 185t267 62q200 0 327 -108t150 -273h-186q-9 56 -28 103t-51 90t-85.5 67.5t-122.5 24.5q-153 0 -235 -112.5t-82 -297.5q0 -124 35.5 -220.5t114.5 -157t194 -60.5q142 0 227 86.5t115 231.5h112
q-29 -198 -158.5 -321.5t-342.5 -123.5z" />
    <glyph glyph-name="d" unicode="d" horiz-adv-x="1245" 
d="M866 0q13 143 13 264q-48 -130 -144.5 -206t-236.5 -76q-131 0 -227.5 69.5t-144.5 185.5t-48 263q0 235 121 384.5t323 149.5q117 0 209.5 -52t147.5 -144v487q0 100 -14 152t-56 86v6l278 35l13 -7q-13 -79 -13 -272v-1051q0 -117 15 -174t65 -92v-8h-301zM297 500
q0 -87 16 -159t48.5 -129t86.5 -88.5t125 -31.5q144 0 224 123t80 315h2v197q-39 92 -118 148.5t-173 56.5q-137 0 -214 -116.5t-77 -315.5z" />
    <glyph glyph-name="e" unicode="e" horiz-adv-x="1157" 
d="M586 -35q-226 0 -367 143t-141 390q0 161 68.5 284.5t184.5 188.5t261 65q218 0 351 -130t136 -341h-798v-35q0 -194 89 -314t259 -120q139 0 224 79t118 210h112q-38 -187 -164.5 -303.5t-332.5 -116.5zM291 653h586q-13 129 -87 209t-198 80q-119 0 -197.5 -77
t-103.5 -212z" />
    <glyph glyph-name="f" unicode="f" horiz-adv-x="825" 
d="M154 0v8q51 35 66.5 91.5t15.5 174.5v631h-218v96h218v158q0 231 107.5 345t279.5 114q119 0 209 -54t139 -145l-131 -110q-68 211 -222 211q-186 0 -186 -269q0 -82 8 -250h383v-96h-379v-626q0 -119 19.5 -177.5t81.5 -93.5v-8h-391z" />
    <glyph glyph-name="g" unicode="g" horiz-adv-x="1253" 
d="M496 -518q-109 0 -190.5 20.5t-133 68t-51.5 118.5q0 143 231 215h-4q-122 0 -195 52t-73 144q0 77 58.5 140.5t162.5 109.5q-141 109 -141 293q0 179 131.5 284t329.5 105q212 0 340 -110q14 121 87.5 197t184.5 77v-176q-196 0 -221 -152q71 -96 71 -225
q0 -181 -129.5 -285t-330.5 -104q-147 0 -254 55q-133 -62 -133 -151q0 -48 37.5 -72t125.5 -23q84 1 296 36.5t296 35.5q119 0 185.5 -50.5t66.5 -147.5q0 -99 -66.5 -186t-173.5 -145t-240 -91t-267 -33zM274 -283q0 -137 242 -137q128 0 253.5 36.5t210.5 105t85 149.5
q0 53 -33.5 75.5t-111.5 22.5q-152 0 -394 -65q-129 -33 -190.5 -77t-61.5 -110zM367 643q0 -137 68 -217t186 -80q121 0 189.5 80t68.5 217t-69 216t-189 79q-118 0 -186 -79t-68 -216z" />
    <glyph glyph-name="h" unicode="h" horiz-adv-x="1232" 
d="M80 0v8q54 35 70 91.5t16 174.5v1051q0 96 -16 149t-60 87v8l285 35l14 -9q-14 -85 -14 -270v-545q51 114 150 185t239 71q317 0 317 -374v-388q0 -117 15 -174t65 -92v-8h-364v8q47 35 61 91.5t14 174.5v371q0 138 -50.5 202t-153.5 64q-113 0 -190.5 -76.5
t-102.5 -191.5v-369q0 -118 15.5 -174.5t66.5 -91.5v-8h-377z" />
    <glyph glyph-name="i" unicode="i" horiz-adv-x="518" 
d="M72 0v8q52 35 68 92t16 174v457q0 122 -15 176.5t-67 89.5v9l137 2l154 6v-740q0 -118 15 -174.5t66 -91.5v-8h-374zM150 1253v232h217v-232h-217z" />
    <glyph glyph-name="j" unicode="j" horiz-adv-x="526" 
d="M-35 -420q117 12 162 81.5t45 219.5v850q0 122 -15 176.5t-67 89.5v9l137 2l154 6v-1094q0 -195 -104 -305.5t-312 -114.5v80zM156 1253v232h217v-232h-217z" />
    <glyph glyph-name="k" unicode="k" horiz-adv-x="1093" 
d="M846 0l-471 530v-256q0 -118 16 -174.5t68 -91.5v-8h-379v8q54 35 70 91.5t16 174.5v1051q0 100 -14 151t-56 85v8l279 35l14 -7q-14 -85 -14 -272v-725l301 250q50 41 73.5 82.5t16.5 64.5v4h274v-14q-102 -42 -209 -129l-307 -254l563 -590v-14h-241z" />
    <glyph glyph-name="l" unicode="l" horiz-adv-x="538" 
d="M80 0v8q54 35 70 91.5t16 174.5v1051q0 96 -16 149t-60 87v8l285 35l14 -9q-14 -85 -14 -270v-1051q0 -118 15.5 -174.5t66.5 -91.5v-8h-377z" />
    <glyph glyph-name="m" unicode="m" horiz-adv-x="1902" 
d="M84 0v8q51 35 66.5 91.5t15.5 174.5v453q0 122 -15 176.5t-67 91.5v6h315q-25 -59 -28 -219q49 113 146.5 183.5t234.5 70.5q262 0 303 -268q48 119 147 193.5t240 74.5q311 0 311 -374v-388q0 -117 15 -174t63 -92v-8h-358v8q47 35 61 91.5t14 174.5v371
q0 137 -50 201.5t-150 64.5q-109 0 -184 -73t-101 -185v-379q0 -117 15 -174t63 -92v-8h-359v8q47 35 61.5 92t14.5 174v371q0 137 -50.5 201.5t-150.5 64.5q-112 0 -187.5 -76.5t-98.5 -191.5v-369q0 -117 15 -174t63 -92v-8h-365z" />
    <glyph glyph-name="n" unicode="n" horiz-adv-x="1234" 
d="M86 0v8q51 35 66.5 91.5t15.5 174.5v453q0 122 -15 176.5t-67 91.5v6h322q-17 -34 -23 -82t-8 -139q51 114 150 185t239 71q317 0 317 -374v-388q0 -117 15 -174t65 -92v-8h-364v8q47 35 61 91.5t14 174.5v371q0 138 -50.5 202t-153.5 64q-113 0 -190.5 -76.5
t-102.5 -191.5v-369q0 -117 15 -174t65 -92v-8h-371z" />
    <glyph glyph-name="o" unicode="o" horiz-adv-x="1216" 
d="M608 -35q-240 0 -385 148t-145 389q0 242 144.5 388t385.5 146q242 0 386.5 -146t144.5 -388q0 -241 -145 -389t-386 -148zM289 502q0 -208 84.5 -324.5t236.5 -116.5q149 0 233.5 117t84.5 324q0 208 -84 323t-234 115q-153 0 -237 -114.5t-84 -323.5z" />
    <glyph glyph-name="p" unicode="p" horiz-adv-x="1236" 
d="M70 -492v9q51 31 66.5 81t15.5 156v1002q0 109 -15 158t-67 81v6h321q-18 -33 -24.5 -84t-6.5 -151q48 123 145.5 195.5t239.5 72.5q193 0 304.5 -145.5t111.5 -374.5q0 -233 -121 -382.5t-321 -149.5q-116 0 -210.5 53t-148.5 149v-430q0 -105 16.5 -155.5t67.5 -81.5
v-9h-374zM360 291q43 -95 120 -151t171 -56q137 0 215 115.5t78 312.5q0 117 -28.5 208t-92 147.5t-155.5 56.5q-144 0 -225 -123.5t-81 -319.5l-2 2v-192z" />
    <glyph glyph-name="q" unicode="q" horiz-adv-x="1247" 
d="M795 -492v9q51 31 67.5 81.5t16.5 155.5v510q-48 -130 -144.5 -206t-236.5 -76q-131 0 -227.5 69.5t-144.5 185.5t-48 263q0 235 121 384.5t323 149.5q117 0 208.5 -51t146.5 -143q-3 102 -25 161h315v-6q-52 -32 -67 -81t-15 -158v-1002q0 -106 15.5 -156t66.5 -81v-9
h-372zM297 500q0 -87 16 -159t48.5 -129t86.5 -88.5t125 -31.5q144 0 224 123t80 315h2v197q-39 92 -118 148.5t-173 56.5q-137 0 -214 -116.5t-77 -315.5z" />
    <glyph glyph-name="r" unicode="r" horiz-adv-x="821" 
d="M84 0v8q51 35 67.5 92.5t16.5 173.5v453q0 121 -16 176t-68 92v6h322q-18 -38 -23.5 -95t-5.5 -179v-35q13 56 45 110.5t82 103t125 78t162 30.5v-178q-210 7 -312 -81t-102 -239v-250q0 -116 16.5 -170.5t73.5 -89.5v-6h-383z" />
    <glyph glyph-name="s" unicode="s" horiz-adv-x="1015" 
d="M543 -35q-200 0 -329 100t-151 271h193q12 -130 86.5 -204.5t202.5 -74.5q95 0 153 40t58 112q0 31 -13 57t-36 46.5t-59 40.5t-78.5 38.5t-97.5 41.5q-9 3 -13 5q-51 20 -80 32.5t-71 33t-66 37t-52 41t-42.5 50t-24.5 59t-10 71.5q0 130 105.5 203t277.5 73
q182 0 296 -84t140 -233h-191q-14 105 -77 165t-172 60q-90 0 -142.5 -37.5t-52.5 -101.5q0 -70 63.5 -114.5t221.5 -104.5q91 -35 149 -63t111 -67.5t77.5 -89t24.5 -112.5q0 -139 -113 -215t-288 -76z" />
    <glyph glyph-name="t" unicode="t" horiz-adv-x="829" 
d="M512 -18q-293 0 -293 342v581h-211v96h211v277l201 149h6v-426h332v-96h-332v-577q0 -120 42 -167.5t120 -47.5q138 0 213 147l22 -76q-43 -95 -125 -148.5t-186 -53.5z" />
    <glyph glyph-name="u" unicode="u" horiz-adv-x="1234" 
d="M473 -31q-319 0 -319 375v383q0 119 -15.5 175.5t-66.5 92.5v6h364v-6q-45 -37 -59.5 -94t-14.5 -174v-365q0 -138 50 -202t153 -64q114 0 189.5 81.5t103.5 213.5v336q0 118 -15 175t-63 93v6h369v-6q-51 -36 -66.5 -92.5t-15.5 -175.5v-453q0 -122 15 -176.5t67 -89.5
v-8h-318q27 69 27 244q-48 -120 -147.5 -197.5t-237.5 -77.5z" />
    <glyph glyph-name="v" unicode="v" horiz-adv-x="1073" 
d="M160 756q-42 108 -69.5 159.5t-67.5 79.5v6h344v-6q-27 -19 -32.5 -51.5t4 -71.5t34.5 -110l205 -578l208 578q25 66 35 108t4 74.5t-32 50.5v6h260v-6q-39 -25 -72 -80t-72 -153l-225 -584q-53 -127 -53 -178h-176z" />
    <glyph glyph-name="w" unicode="w" horiz-adv-x="1576" 
d="M145 805q-33 86 -58.5 128.5t-63.5 61.5v6h356v-6q-44 -18 -48 -61.5t23 -116.5l197 -579l225 723h119l231 -725l193 577q28 74 24.5 119t-47.5 63v6h258v-6q-37 -25 -63.5 -66.5t-52.5 -115.5l-250 -709q-26 -81 -29 -104h-137l-231 723l-191 -608q-26 -70 -31 -115
h-139z" />
    <glyph glyph-name="x" unicode="x" horiz-adv-x="1069" 
d="M698 8q49 49 -39 172l-167 230l-162 -230q-90 -124 -45 -172v-8h-271v8q97 54 191 178l227 306l-239 325q-52 73 -90 112t-85 66v6h353v-6q-46 -52 39 -172l157 -215l154 213q89 123 47 174v6h266v-6q-104 -66 -188 -178l-217 -291l250 -340q48 -68 88 -110t88 -68v-8
h-357v8z" />
    <glyph glyph-name="y" unicode="y" horiz-adv-x="1064" 
d="M154 -498q-83 0 -136 29v166q64 -35 150 -35q110 0 192 78t158 260h-63l-293 756q-42 106 -71 157.5t-71 81.5v6h347v-6q-28 -19 -33 -52t4 -71t35 -110l209 -590l211 590q24 67 33.5 108t3 74t-34.5 51v6h260v-6q-70 -46 -142 -233l-292 -760q-106 -270 -211.5 -385
t-255.5 -115z" />
    <glyph glyph-name="z" unicode="z" horiz-adv-x="970" 
d="M61 0v74l607 835h-222q-148 0 -385 -63v155h838v-73l-602 -834h238q176 0 376 70v-164h-850z" />
    <glyph glyph-name="braceleft" unicode="{" horiz-adv-x="757" 
d="M680 -287q-277 0 -383 123.5t-61 382.5q14 77 17.5 138.5t-1.5 105.5t-19.5 76.5t-34 52.5t-47 32t-55.5 16.5t-63 4.5v88q42 0 73.5 6.5t62 23t49 47.5t29.5 77t8 115t-19 159q-45 258 61 382t383 124v-96q-133 0 -194.5 -43.5t-67 -133.5t19.5 -229q80 -455 -252 -473
q34 -2 63.5 -8t62 -21.5t57 -38t45 -59.5t30.5 -85t9.5 -115.5t-15.5 -149.5q-25 -139 -19.5 -229t67 -133t194.5 -43v-97z" />
    <glyph glyph-name="bar" unicode="|" horiz-adv-x="471" 
d="M186 -244v1997h99v-1997h-99z" />
    <glyph glyph-name="braceright" unicode="}" horiz-adv-x="757" 
d="M80 -190q133 0 194.5 43t67 133t-19.5 229q-82 459 251 477q-331 18 -251 473q25 139 19.5 229t-67 133.5t-194.5 43.5v96q277 0 383 -124t61 -382q-16 -90 -19 -159t8 -115t29.5 -77t49 -47.5t62 -23t73.5 -6.5v-88q-35 0 -63 -4.5t-55.5 -16.5t-47 -32t-34 -52.5
t-19.5 -76.5t-1.5 -105.5t17.5 -138.5q45 -259 -61 -382.5t-383 -123.5v97z" />
    <glyph glyph-name="asciitilde" unicode="~" horiz-adv-x="1191" 
d="M106 379q0 149 69.5 228t189.5 79q58 0 110 -20.5t91.5 -49t77.5 -57.5t85.5 -49.5t99.5 -20.5q152 0 152 197h106q0 -149 -70 -228t-190 -79q-60 0 -112.5 20t-92 48.5t-77 57t-84.5 48.5t-99 20q-149 0 -149 -194h-107z" />
    <glyph glyph-name="exclamdown" unicode="&#xa1;" horiz-adv-x="567" 
d="M231 575h107l65 -1103h-237zM180 780v242h207v-242h-207z" />
    <glyph glyph-name="cent" unicode="&#xa2;" horiz-adv-x="1204" 
d="M403 -332l68 318q-168 42 -267.5 178.5t-99.5 339.5q0 125 40 227t110 169t165.5 103.5t207.5 36.5q23 0 63 -4l68 320h67l-69 -330q147 -31 238 -131t110 -236h-186q-35 212 -183 267l-172 -817q47 -13 94 -13q142 0 227 86.5t115 231.5h113q-29 -198 -159 -321.5
t-343 -123.5q-25 0 -75 4l-64 -305h-68zM313 535q0 -139 47.5 -246t141.5 -156l170 809q-14 2 -41 2q-154 0 -236 -112t-82 -297z" />
    <glyph glyph-name="sterling" unicode="&#xa3;" horiz-adv-x="1472" 
d="M287 -31q-110 0 -172 53.5t-62 141.5q0 84 57.5 137t157.5 53q72 0 129 -24t127 -74q21 68 21 152q0 126 -62 268h-356v67h324q-8 17 -40 77t-44 86.5t-31.5 76.5t-27 94t-7.5 92q0 188 129.5 297t347.5 109q224 0 368.5 -124.5t174.5 -354.5h-199q-15 184 -96.5 285.5
t-228.5 101.5q-132 0 -202.5 -71t-70.5 -204q0 -71 19 -143.5t57 -171.5t53 -150h740v-67h-719q24 -108 24 -209q0 -166 -65 -287q138 -84 266 -84q297 0 297 416h197q0 -267 -123.5 -403t-333.5 -136q-178 0 -354 131q-116 -135 -295 -135zM133 162q0 -56 37.5 -85.5
t103.5 -29.5q142 0 215 127q-65 49 -115.5 72.5t-109.5 23.5q-131 0 -131 -108z" />
    <glyph glyph-name="currency" unicode="&#xa4;" horiz-adv-x="1146" 
d="M573 315q-141 0 -249 78l-166 -166l-58 56l164 166q-88 106 -88 253q0 148 90 252l-166 166l58 56l166 -166q107 77 249 77q143 0 250 -77l166 166l60 -56l-166 -166q88 -106 88 -252q0 -147 -88 -253l166 -166l-60 -56l-166 166q-108 -78 -250 -78zM274 702
q0 -129 84.5 -214t214.5 -85t214.5 85t84.5 214t-84.5 213t-214.5 84t-214.5 -84t-84.5 -213z" />
    <glyph glyph-name="yen" unicode="&#xa5;" horiz-adv-x="1429" 
d="M113 686v70h467l-363 628q-38 69 -68 103.5t-77 56.5v6h409v-6q-75 -40 -14 -166l305 -559l295 559q20 40 28 69t0 55.5t-38 41.5v6h295v-6q-83 -47 -146 -162l-340 -626h471v-70h-499v-151h499v-70h-499v-191q0 -117 17.5 -174t72.5 -92v-8h-410v8q57 35 73.5 91.5
t16.5 174.5v191h-495v70h495v151h-495z" />
    <glyph glyph-name="brokenbar" unicode="&#xa6;" horiz-adv-x="471" 
d="M186 -244v791h99v-791h-99zM186 969v784h99v-784h-99z" />
    <glyph glyph-name="section" unicode="&#xa7;" horiz-adv-x="1263" 
d="M614 -356q-195 0 -329 106.5t-170 310.5h176q16 -144 100.5 -237.5t229.5 -93.5q104 0 164.5 54t60.5 144q0 28 -8 54.5t-19.5 49t-37.5 49.5t-48.5 47t-67 52t-78 55t-95.5 64q-115 77 -183 130t-121.5 110t-75.5 110.5t-22 116.5q0 109 65 183t175 110q-74 92 -74 207
q0 143 103 225t274 82q177 0 299.5 -100t161.5 -291h-172q-20 135 -94 220t-201 85q-104 0 -160.5 -50t-56.5 -134q0 -40 17 -78t42 -70t76 -74t97.5 -75t127.5 -88q91 -61 148.5 -103t111 -89.5t82 -88t45.5 -87.5t17 -99q0 -110 -65 -183.5t-175 -109.5q65 -89 65 -193
q0 -148 -105.5 -234.5t-279.5 -86.5zM250 807q0 -32 8 -60.5t30 -58.5t46.5 -55t71 -61.5t90 -67t116.5 -80.5q185 -126 260 -197q142 47 142 183q0 39 -14.5 74.5t-37 65.5t-73 71.5t-99 76t-137.5 95.5q-180 122 -262 198q-141 -50 -141 -184z" />
    <glyph glyph-name="dieresis" unicode="&#xa8;" horiz-adv-x="724" 
d="M442 1249v221h183v-221h-183zM102 1249v221h183v-221h-183z" />
    <glyph glyph-name="copyright" unicode="&#xa9;" horiz-adv-x="1714" 
d="M858 -25q-340 0 -542.5 215t-202.5 584q0 370 202.5 585.5t542.5 215.5q339 0 541.5 -215.5t202.5 -585.5q0 -368 -202.5 -583.5t-541.5 -215.5zM186 774q0 -340 183 -538.5t489 -198.5q304 0 487 199t183 538q0 341 -183 540t-487 199q-306 0 -489 -199t-183 -540z
M530 778q0 188 93.5 300t244.5 112q115 0 198.5 -72t107.5 -213h-115q-13 103 -64 161t-125 58q-98 0 -155.5 -91.5t-57.5 -239.5t58.5 -241t169.5 -93q94 0 155 71t78 197h68q-20 -168 -107.5 -265t-222.5 -97q-152 0 -239 114.5t-87 298.5z" />
    <glyph glyph-name="ordfeminine" unicode="&#xaa;" horiz-adv-x="913" 
d="M307 901q-90 0 -145.5 44t-55.5 122q0 37 14.5 65.5t36 48t61 36.5t74 27.5t91.5 25.5q104 27 144 51t40 78q1 50 -31 76t-90 26q-71 0 -119 -42.5t-48 -127.5h-144q3 76 49 131.5t117 82t158 26.5q118 0 189 -52t71 -167v-262q0 -111 61 -111q27 0 49 16v-47
q-47 -41 -114 -41q-62 0 -104.5 40.5t-43.5 127.5q-35 -78 -100.5 -126t-159.5 -48zM131 727v70h664v-70h-664zM254 1087q0 -45 32 -67.5t81 -22.5q89 0 144.5 73.5t55.5 184.5v43q-16 -25 -50.5 -42t-100.5 -37q-87 -27 -124.5 -53.5t-37.5 -78.5z" />
    <glyph glyph-name="guillemotleft" unicode="&#xab;" horiz-adv-x="1040" 
d="M559 84l-475 369v79l475 369v-102l-321 -303v-7l321 -301v-104zM455 453v79l475 369v-102l-322 -303v-7l322 -301v-104z" />
    <glyph glyph-name="logicalnot" unicode="&#xac;" horiz-adv-x="1169" 
d="M920 145v437h-811v106h925v-543h-114z" />
    <glyph glyph-name="registered" unicode="&#xae;" horiz-adv-x="819" 
d="M508 1075l-109 146h-34v-84q0 -27 6 -38.5t28 -17.5v-6h-125v6q19 6 25 18t6 38v192q0 32 -5.5 46t-25.5 24v6h142q67 0 101 -21.5t34 -72.5q0 -73 -94 -86l129 -146v-4h-78zM90 1239q0 139 90 227t230 88t229.5 -88t89.5 -227t-89.5 -227t-229.5 -88t-230 88t-90 227z
M143 1239q0 -121 72 -195.5t195 -74.5q122 0 194 74.5t72 195.5q0 120 -72 195t-194 75q-123 0 -195 -75t-72 -195zM360 1249h50q82 0 82 64q0 59 -82 59h-50v-123z" />
    <glyph glyph-name="macron" unicode="&#xaf;" horiz-adv-x="858" 
d="M102 1249v92h654v-92h-654z" />
    <glyph glyph-name="degree" unicode="&#xb0;" horiz-adv-x="811" 
d="M408 924q-152 0 -248.5 92t-96.5 237q0 146 96.5 238t248.5 92t248 -92t96 -238q0 -145 -96 -237t-248 -92zM215 1253q0 -118 51 -183.5t142 -65.5q90 0 140 65.5t50 183.5q0 119 -50 184.5t-140 65.5q-91 0 -142 -65.5t-51 -184.5z" />
    <glyph glyph-name="plusminus" unicode="&#xb1;" horiz-adv-x="1189" 
d="M133 0v98h406v387h-406v105h408v434h112v-434h406v-103h-408v-389h406v-98h-924z" />
    <glyph glyph-name="uni00B2" unicode="&#xb2;" horiz-adv-x="882" 
d="M72 944q0 67 24 124t70 103t91.5 78.5t109.5 69.5q141 78 201.5 136.5t60.5 143.5q0 80 -47.5 125t-130.5 45q-113 0 -173.5 -77t-60.5 -205h-151q6 155 112 257.5t287 102.5q149 0 239.5 -66.5t90.5 -187.5q0 -59 -23.5 -106t-82 -89.5t-96.5 -63t-128 -62.5l-12 -6
q-114 -54 -180.5 -104.5t-77.5 -112.5h628v-127h-751v22z" />
    <glyph glyph-name="uni00B3" unicode="&#xb3;" horiz-adv-x="882" 
d="M446 901q-175 0 -275.5 88t-111.5 242h93q7 -116 79 -179t187 -63t177 56.5t62 140.5q0 180 -251 180h-80v66h80q110 0 168.5 51t58.5 131q0 69 -47 112t-142 43q-99 0 -160.5 -54.5t-70.5 -153.5h-150q15 133 124 209.5t278 76.5q154 0 243 -63t89 -166
q0 -87 -69.5 -143t-190.5 -70q140 -11 217 -68t77 -161q0 -118 -106 -196.5t-279 -78.5z" />
    <glyph glyph-name="acute" unicode="&#xb4;" horiz-adv-x="587" 
d="M102 1186l199 362h184l-319 -362h-64z" />
    <glyph glyph-name="uni00B5" unicode="&#xb5;" horiz-adv-x="1236" 
d="M283 -412q-142 155 -142 400v739q0 118 -15 175t-65 93v6h361v-6q-45 -37 -59.5 -94t-14.5 -174v-365q0 -139 50.5 -203.5t154.5 -64.5q113 0 190 91.5t103 232.5v309q0 118 -15 175t-65 93v6h364v-6q-49 -36 -63 -91.5t-14 -176.5v-463q0 -93 25 -132.5t73 -39.5
q43 0 82 31l2 -70q-81 -67 -180 -67q-91 0 -149 65t-58 191v26q-40 -128 -130.5 -214.5t-215.5 -86.5q-108 0 -176 62v-86q0 -121 14.5 -201.5t48.5 -153.5h-106z" />
    <glyph glyph-name="paragraph" unicode="&#xb6;" horiz-adv-x="1394" 
d="M561 668q-85 0 -158.5 14t-139.5 46.5t-113 82.5t-74 125.5t-27 171.5t27 172.5t74 126t113 82.5t139.5 47t158.5 14h787v-88h-242v-1745h-94v1745h-238v-1745h-96v951h-117z" />
    <glyph glyph-name="periodcentered" unicode="&#xb7;" horiz-adv-x="444" 
d="M119 406v241h207v-241h-207z" />
    <glyph glyph-name="cedilla" unicode="&#xb8;" horiz-adv-x="733" 
d="M381 -500q-90 0 -163 33t-114 94l50 51q28 -46 79.5 -74t120.5 -28q65 0 104.5 24.5t39.5 75.5q0 50 -37.5 77.5t-102.5 27.5q-55 0 -94 -19l-39 41l152 199h88l-107 -137q36 4 58 4q97 0 157 -48t60 -130q0 -64 -39 -109t-94.5 -63.5t-118.5 -18.5z" />
    <glyph glyph-name="uni00B9" unicode="&#xb9;" horiz-adv-x="624" 
d="M174 922v6q54 29 71 75.5t17 143.5v457q-29 -47 -92 -88t-143 -46v109q113 6 197 80.5t98 175.5h108v-688q0 -99 14.5 -144.5t65.5 -74.5v-6h-336z" />
    <glyph glyph-name="ordmasculine" unicode="&#xba;" horiz-adv-x="884" 
d="M442 895q-157 0 -252.5 91.5t-95.5 246.5t95.5 246.5t252.5 91.5q158 0 253.5 -92t95.5 -246t-95.5 -246t-253.5 -92zM135 727v70h617v-70h-617zM242 1233q0 -123 53 -193.5t147 -70.5q95 0 148 71t53 193t-53 193t-148 71q-94 0 -147 -70.5t-53 -193.5z" />
    <glyph glyph-name="guillemotright" unicode="&#xbb;" horiz-adv-x="1040" 
d="M481 84v104l322 301v7l-322 303v102l475 -369v-79zM111 84v104l321 301v7l-321 303v102l475 -369v-79z" />
    <glyph glyph-name="onequarter" unicode="&#xbc;" horiz-adv-x="1773" 
d="M174 653v6q54 29 71 76t17 144v456q-29 -47 -92 -87.5t-143 -45.5v109q113 6 197 80.5t98 175.5h108v-688q0 -99 14.5 -145t65.5 -75v-6h-336zM141 0l1186 1550h123l-1184 -1550h-125zM874 211v84l543 614h135v-587h187v-111h-187v-47q0 -61 14 -96t52 -60v-10h-297v10
q38 25 50.5 59.5t12.5 96.5v47h-510zM997 322h387v444z" />
    <glyph glyph-name="onehalf" unicode="&#xbd;" horiz-adv-x="1849" 
d="M174 653v6q54 29 71 76t17 144v456q-29 -47 -92 -87.5t-143 -45.5v109q113 6 197 80.5t98 175.5h108v-688q0 -99 14.5 -145t65.5 -75v-6h-336zM141 0l1186 1550h123l-1184 -1550h-125zM1032 565q6 155 112.5 258t287.5 103q149 0 239 -66.5t90 -187.5q0 -28 -7 -54
t-15.5 -46.5t-28.5 -42.5t-33.5 -36.5t-44 -34.5t-46.5 -30t-54.5 -29.5t-54 -27t-58.5 -27.5q-114 -54 -180.5 -104.5t-77.5 -112.5h629v-127h-752v23q0 67 24 124t70 103t91 78t110 69q141 78 201.5 137t60.5 144q0 80 -47.5 125t-130.5 45q-112 0 -172.5 -77.5
t-60.5 -205.5h-152z" />
    <glyph glyph-name="threequarters" unicode="&#xbe;" horiz-adv-x="2031" 
d="M446 633q-175 0 -275.5 88t-111.5 242h93q7 -116 79 -179t187 -63t177 56.5t62 140.5q0 180 -251 180h-80v65h80q110 0 168.5 51.5t58.5 131.5q0 69 -47 112t-142 43q-99 0 -160.5 -55t-70.5 -154h-150q15 133 124.5 210t277.5 77q154 0 243 -63t89 -166
q0 -87 -69.5 -143t-190.5 -70q139 -11 216.5 -68.5t77.5 -161.5q0 -118 -105.5 -196t-279.5 -78zM399 0l1186 1550h123l-1184 -1550h-125zM1133 211v84l542 614h135v-587h187v-111h-187v-47q0 -61 14 -96t52 -60v-10h-297v10q38 25 50.5 59.5t12.5 96.5v47h-509zM1255 322
h387v444z" />
    <glyph glyph-name="questiondown" unicode="&#xbf;" horiz-adv-x="1058" 
d="M694 575q41 -96 41 -167q0 -57 -26 -107.5t-67 -89.5t-91 -76t-100.5 -74.5t-91.5 -77.5t-67 -92.5t-26 -111.5q0 -97 60 -160t170 -63q143 0 223 99.5t86 278.5h196q-13 -231 -157 -359t-371 -128q-196 0 -311 92t-115 242q0 73 30.5 134t79 102.5t107 78t117.5 69
t107.5 66t79 78.5t30.5 97q0 62 -72 169h168zM489 780v242h207v-242h-207z" />
    <glyph glyph-name="Agrave" unicode="&#xc0;" horiz-adv-x="1503" 
d="M4 6q57 36 98.5 89.5t73.5 142.5l438 1175q25 76 4 137h234l496 -1321q32 -88 66 -139t85 -82v-8h-446v6q58 33 68 86t-21 135l-86 250h-613l-88 -246q-33 -90 -26 -141.5t59 -83.5v-6h-342v6zM385 1980h205l190 -290h-86zM438 580h539l-266 766z" />
    <glyph glyph-name="Aacute" unicode="&#xc1;" horiz-adv-x="1503" 
d="M4 6q57 36 98.5 89.5t73.5 142.5l438 1175q25 76 4 137h234l496 -1321q32 -88 66 -139t85 -82v-8h-446v6q58 33 68 86t-21 135l-86 250h-613l-88 -246q-33 -90 -26 -141.5t59 -83.5v-6h-342v6zM438 580h539l-266 766zM694 1690l191 290h205l-308 -290h-88z" />
    <glyph glyph-name="Acircumflex" unicode="&#xc2;" horiz-adv-x="1503" 
d="M4 6q57 36 98.5 89.5t73.5 142.5l438 1175q25 76 4 137h234l496 -1321q32 -88 66 -139t85 -82v-8h-446v6q58 33 68 86t-21 135l-86 250h-613l-88 -246q-33 -90 -26 -141.5t59 -83.5v-6h-342v6zM414 1690l272 290h107l272 -290h-113l-213 184l-213 -184h-112zM438 580h539
l-266 766z" />
    <glyph glyph-name="Atilde" unicode="&#xc3;" horiz-adv-x="1503" 
d="M4 6q57 36 98.5 89.5t73.5 142.5l438 1175q25 76 4 137h234l496 -1321q32 -88 66 -139t85 -82v-8h-446v6q58 33 68 86t-21 135l-86 250h-613l-88 -246q-33 -90 -26 -141.5t59 -83.5v-6h-342v6zM420 1704q0 140 47 211.5t135 71.5q45 0 80.5 -18t58 -43.5t43.5 -51.5
t48 -44t61 -18q51 0 70.5 37.5t21.5 124.5h74q-1 -150 -46 -217t-132 -67q-46 0 -82.5 18t-59.5 44t-44.5 52t-48.5 44t-60 18q-51 0 -70.5 -40.5t-21.5 -121.5h-74zM438 580h539l-266 766z" />
    <glyph glyph-name="Adieresis" unicode="&#xc4;" horiz-adv-x="1503" 
d="M4 6q57 36 98.5 89.5t73.5 142.5l438 1175q25 76 4 137h234l496 -1321q32 -88 66 -139t85 -82v-8h-446v6q58 33 68 86t-21 135l-86 250h-613l-88 -246q-33 -90 -26 -141.5t59 -83.5v-6h-342v6zM438 580h539l-266 766zM461 1724v218h176v-218h-176zM842 1724v218h174v-218
h-174z" />
    <glyph glyph-name="Aring" unicode="&#xc5;" horiz-adv-x="1503" 
d="M4 6q57 36 98.5 89.5t73.5 142.5l438 1175q25 76 4 137h234l496 -1321q32 -88 66 -139t85 -82v-8h-446v6q58 33 68 86t-21 135l-86 250h-613l-88 -246q-33 -90 -26 -141.5t59 -83.5v-6h-342v6zM438 580h539l-266 766zM524 1858q0 86 59 138t156 52t157 -52t60 -138
q0 -87 -60 -140t-157 -53t-156 52.5t-59 140.5zM598 1858q0 -60 39 -97t102 -37t102.5 37t39.5 97t-39.5 96.5t-102.5 36.5t-102 -36.5t-39 -96.5z" />
    <glyph glyph-name="AE" unicode="&#xc6;" horiz-adv-x="1937" 
d="M-86 8q57 36 104 97.5t105 166.5l713 1278h1011v-184q-180 45 -288 64.5t-195 19.5h-199v-590h123q119 0 455 12v-122q-252 12 -455 12h-123v-660h236q180 3 485 95v-197h-1040v8q57 35 73.5 91.5t16.5 174.5v230h-535l-125 -232q-56 -103 -66.5 -164.5t23.5 -99.5v-8
h-319v8zM457 606h479v670q0 107 -10 156h-25z" />
    <glyph glyph-name="Ccedilla" unicode="&#xc7;" horiz-adv-x="1710" 
d="M874 -502q-90 0 -162.5 33t-113.5 94l49 51q27 -46 79.5 -74t121.5 -28q64 0 103.5 24.5t39.5 75.5q0 50 -37 77.5t-102 27.5q-55 0 -94 -19l-39 41l129 170q-234 5 -410 113t-266 286.5t-90 399.5q0 237 102.5 420.5t286 283t418.5 99.5q185 0 336 -61t259.5 -189
t151.5 -311h-225q-48 210 -184.5 331t-337.5 121q-128 0 -235.5 -52t-179 -141.5t-111 -211t-39.5 -260.5q0 -142 37.5 -263.5t109.5 -214t185.5 -145.5t256.5 -53q246 0 404.5 144t200.5 390h133q-45 -300 -232.5 -482t-480.5 -202l-86 -110q36 4 57 4q97 0 157 -48
t60 -130q0 -64 -39 -109t-94.5 -63.5t-118.5 -18.5z" />
    <glyph glyph-name="Egrave" unicode="&#xc8;" horiz-adv-x="1212" 
d="M119 0v8q57 35 73.5 91.5t16.5 174.5v1002q0 123 -16.5 177.5t-73.5 90.5v6h1001v-184q-180 45 -288 64.5t-195 19.5h-199v-590h123q119 0 455 12v-122q-252 12 -455 12h-123v-660h236q180 3 485 95v-197h-1040zM287 1980h205l190 -290h-86z" />
    <glyph glyph-name="Eacute" unicode="&#xc9;" horiz-adv-x="1212" 
d="M119 0v8q57 35 73.5 91.5t16.5 174.5v1002q0 123 -16.5 177.5t-73.5 90.5v6h1001v-184q-180 45 -288 64.5t-195 19.5h-199v-590h123q119 0 455 12v-122q-252 12 -455 12h-123v-660h236q180 3 485 95v-197h-1040zM594 1690l190 290h205l-307 -290h-88z" />
    <glyph glyph-name="Ecircumflex" unicode="&#xca;" horiz-adv-x="1212" 
d="M119 0v8q57 35 73.5 91.5t16.5 174.5v1002q0 123 -16.5 177.5t-73.5 90.5v6h1001v-184q-180 45 -288 64.5t-195 19.5h-199v-590h123q119 0 455 12v-122q-252 12 -455 12h-123v-660h236q180 3 485 95v-197h-1040zM315 1690l273 290h106l273 -290h-113l-213 184l-213 -184
h-113z" />
    <glyph glyph-name="Edieresis" unicode="&#xcb;" horiz-adv-x="1212" 
d="M119 0v8q57 35 73.5 91.5t16.5 174.5v1002q0 123 -16.5 177.5t-73.5 90.5v6h1001v-184q-180 45 -288 64.5t-195 19.5h-199v-590h123q119 0 455 12v-122q-252 12 -455 12h-123v-660h236q180 3 485 95v-197h-1040zM362 1724v218h177v-218h-177zM743 1724v218h175v-218h-175
z" />
    <glyph glyph-name="Igrave" unicode="&#xcc;" horiz-adv-x="647" 
d="M119 0v8q57 35 73.5 91.5t16.5 174.5v1002q0 123 -16.5 177.5t-73.5 90.5v6h409v-6q-57 -36 -73.5 -90.5t-16.5 -177.5v-1002q0 -118 16.5 -174.5t73.5 -91.5v-8h-409zM-31 1972h205l191 -291h-86z" />
    <glyph glyph-name="Iacute" unicode="&#xcd;" horiz-adv-x="647" 
d="M119 0v8q57 35 73.5 91.5t16.5 174.5v1002q0 123 -16.5 177.5t-73.5 90.5v6h409v-6q-57 -36 -73.5 -90.5t-16.5 -177.5v-1002q0 -118 16.5 -174.5t73.5 -91.5v-8h-409zM279 1681l190 291h205l-307 -291h-88z" />
    <glyph glyph-name="Icircumflex" unicode="&#xce;" horiz-adv-x="647" 
d="M119 0v8q57 35 73.5 91.5t16.5 174.5v1002q0 123 -16.5 177.5t-73.5 90.5v6h409v-6q-57 -36 -73.5 -90.5t-16.5 -177.5v-1002q0 -118 16.5 -174.5t73.5 -91.5v-8h-409zM-2 1681l272 291h107l272 -291h-112l-213 185l-213 -185h-113z" />
    <glyph glyph-name="Idieresis" unicode="&#xcf;" horiz-adv-x="647" 
d="M119 0v8q57 35 73.5 91.5t16.5 174.5v1002q0 123 -16.5 177.5t-73.5 90.5v6h409v-6q-57 -36 -73.5 -90.5t-16.5 -177.5v-1002q0 -118 16.5 -174.5t73.5 -91.5v-8h-409zM45 1716v217h176v-217h-176zM426 1716v217h174v-217h-174z" />
    <glyph glyph-name="Eth" unicode="&#xd0;" horiz-adv-x="1695" 
d="M119 0v8q57 35 73.5 91.5t16.5 174.5v484h-178v92h178v426q0 123 -16.5 177.5t-73.5 90.5v6h590q275 0 478.5 -91t315 -266.5t111.5 -416.5q0 -360 -243 -568t-660 -208h-592zM438 102h258q308 0 493 179.5t185 492.5q0 161 -48.5 289t-137.5 212t-214 128.5t-278 44.5
h-258v-598h488v-92h-488v-656z" />
    <glyph glyph-name="Ntilde" unicode="&#xd1;" horiz-adv-x="1548" 
d="M1143 0l-809 1282v-997q0 -124 17.5 -182.5t78.5 -94.5v-8h-311v8q51 36 66.5 95t15.5 182v991q0 120 -11.5 175.5t-48.5 92.5v6h265l811 -1282v998q0 122 -18 181t-77 95v8h310v-8q-51 -36 -66.5 -94.5t-15.5 -181.5v-1266h-207zM465 1704q0 140 47 211.5t135 71.5
q45 0 80.5 -18t58 -43.5t43.5 -51.5t48 -44t61 -18q51 0 70.5 37.5t21.5 124.5h74q-1 -150 -46 -217t-132 -67q-46 0 -82.5 18t-59.5 44t-44.5 52t-48.5 44t-60 18q-51 0 -70.5 -40.5t-21.5 -121.5h-74z" />
    <glyph glyph-name="Ograve" unicode="&#xd2;" horiz-adv-x="1822" 
d="M913 -33q-244 0 -433.5 101t-293.5 284t-104 420t104 419.5t293.5 283t433.5 100.5q242 0 430.5 -100.5t293 -284t104.5 -420.5q0 -177 -61 -327t-169.5 -254.5t-262.5 -163t-335 -58.5zM324 770q0 -310 159.5 -503t429.5 -193q178 0 312 89t205 247t71 362
q0 203 -71 360t-205 245.5t-312 88.5q-179 0 -313.5 -88.5t-205 -245.5t-70.5 -362zM559 1980h205l190 -290h-86z" />
    <glyph glyph-name="Oacute" unicode="&#xd3;" horiz-adv-x="1822" 
d="M913 -33q-244 0 -433.5 101t-293.5 284t-104 420t104 419.5t293.5 283t433.5 100.5q242 0 430.5 -100.5t293 -284t104.5 -420.5q0 -177 -61 -327t-169.5 -254.5t-262.5 -163t-335 -58.5zM324 770q0 -310 159.5 -503t429.5 -193q178 0 312 89t205 247t71 362
q0 203 -71 360t-205 245.5t-312 88.5q-179 0 -313.5 -88.5t-205 -245.5t-70.5 -362zM866 1690l191 290h205l-308 -290h-88z" />
    <glyph glyph-name="Ocircumflex" unicode="&#xd4;" horiz-adv-x="1822" 
d="M913 -33q-244 0 -433.5 101t-293.5 284t-104 420t104 419.5t293.5 283t433.5 100.5q242 0 430.5 -100.5t293 -284t104.5 -420.5q0 -177 -61 -327t-169.5 -254.5t-262.5 -163t-335 -58.5zM324 770q0 -310 159.5 -503t429.5 -193q178 0 312 89t205 247t71 362
q0 203 -71 360t-205 245.5t-312 88.5q-179 0 -313.5 -88.5t-205 -245.5t-70.5 -362zM588 1690l272 290h107l272 -290h-113l-213 184l-213 -184h-112z" />
    <glyph glyph-name="Otilde" unicode="&#xd5;" horiz-adv-x="1822" 
d="M913 -33q-244 0 -433.5 101t-293.5 284t-104 420t104 419.5t293.5 283t433.5 100.5q242 0 430.5 -100.5t293 -284t104.5 -420.5q0 -177 -61 -327t-169.5 -254.5t-262.5 -163t-335 -58.5zM324 770q0 -310 159.5 -503t429.5 -193q178 0 312 89t205 247t71 362
q0 203 -71 360t-205 245.5t-312 88.5q-179 0 -313.5 -88.5t-205 -245.5t-70.5 -362zM594 1704q0 140 47 211.5t135 71.5q45 0 80.5 -18t58 -43.5t43.5 -51.5t48 -44t61 -18q51 0 70.5 37.5t21.5 124.5h74q-1 -150 -46 -217t-132 -67q-46 0 -82.5 18t-59.5 44t-44.5 52
t-48.5 44t-60 18q-51 0 -70.5 -40.5t-21.5 -121.5h-74z" />
    <glyph glyph-name="Odieresis" unicode="&#xd6;" horiz-adv-x="1822" 
d="M913 -33q-244 0 -433.5 101t-293.5 284t-104 420t104 419.5t293.5 283t433.5 100.5q242 0 430.5 -100.5t293 -284t104.5 -420.5q0 -177 -61 -327t-169.5 -254.5t-262.5 -163t-335 -58.5zM324 770q0 -310 159.5 -503t429.5 -193q178 0 312 89t205 247t71 362
q0 203 -71 360t-205 245.5t-312 88.5q-179 0 -313.5 -88.5t-205 -245.5t-70.5 -362zM635 1724v218h176v-218h-176zM1016 1724v218h174v-218h-174z" />
    <glyph glyph-name="multiply" unicode="&#xd7;" horiz-adv-x="1175" 
d="M285 162l-76 76l305 303l-305 303l76 76l305 -304l303 304l74 -76l-303 -303l303 -303l-74 -76l-303 305z" />
    <glyph glyph-name="Oslash" unicode="&#xd8;" horiz-adv-x="1822" 
d="M514 -342l-86 27l141 346q-227 87 -357 283t-130 460q0 237 104 419.5t293.5 283t433.5 100.5q149 0 273 -37l137 336l88 -27l-139 -340q219 -90 344 -283t125 -454q0 -177 -61 -327t-169.5 -254.5t-262.5 -163t-335 -58.5q-126 0 -258 33zM324 772q0 -212 77 -373.5
t217 -244.5l521 1271q-101 43 -226 43q-179 0 -313.5 -88.5t-205 -245.5t-70.5 -362zM700 113q93 -37 213 -37q178 0 312 89t205 247t71 362q0 205 -73 364t-207 244z" />
    <glyph glyph-name="Ugrave" unicode="&#xd9;" horiz-adv-x="1533" 
d="M776 -33q-138 0 -242.5 34.5t-184.5 112t-121.5 211.5t-41.5 322v629q0 122 -17 176.5t-73 91.5v6h406v-6q-56 -36 -72 -90.5t-16 -177.5v-635q0 -290 94 -420.5t299 -130.5q206 0 306.5 130.5t100.5 420.5v635q0 123 -16.5 177.5t-73.5 90.5v6h314v-6q-56 -37 -73 -91.5
t-17 -176.5v-629q0 -356 -143.5 -518t-428.5 -162zM459 1980h205l190 -290h-86z" />
    <glyph glyph-name="Uacute" unicode="&#xda;" horiz-adv-x="1533" 
d="M776 -33q-138 0 -242.5 34.5t-184.5 112t-121.5 211.5t-41.5 322v629q0 122 -17 176.5t-73 91.5v6h406v-6q-56 -36 -72 -90.5t-16 -177.5v-635q0 -290 94 -420.5t299 -130.5q206 0 306.5 130.5t100.5 420.5v635q0 123 -16.5 177.5t-73.5 90.5v6h314v-6q-56 -37 -73 -91.5
t-17 -176.5v-629q0 -356 -143.5 -518t-428.5 -162zM766 1690l190 290h205l-307 -290h-88z" />
    <glyph glyph-name="Ucircumflex" unicode="&#xdb;" horiz-adv-x="1533" 
d="M776 -33q-138 0 -242.5 34.5t-184.5 112t-121.5 211.5t-41.5 322v629q0 122 -17 176.5t-73 91.5v6h406v-6q-56 -36 -72 -90.5t-16 -177.5v-635q0 -290 94 -420.5t299 -130.5q206 0 306.5 130.5t100.5 420.5v635q0 123 -16.5 177.5t-73.5 90.5v6h314v-6q-56 -37 -73 -91.5
t-17 -176.5v-629q0 -356 -143.5 -518t-428.5 -162zM487 1690l273 290h106l273 -290h-113l-213 184l-213 -184h-113z" />
    <glyph glyph-name="Udieresis" unicode="&#xdc;" horiz-adv-x="1533" 
d="M776 -33q-138 0 -242.5 34.5t-184.5 112t-121.5 211.5t-41.5 322v629q0 122 -17 176.5t-73 91.5v6h406v-6q-56 -36 -72 -90.5t-16 -177.5v-635q0 -290 94 -420.5t299 -130.5q206 0 306.5 130.5t100.5 420.5v635q0 123 -16.5 177.5t-73.5 90.5v6h314v-6q-56 -37 -73 -91.5
t-17 -176.5v-629q0 -356 -143.5 -518t-428.5 -162zM535 1724v218h176v-218h-176zM915 1724v218h175v-218h-175z" />
    <glyph glyph-name="Yacute" unicode="&#xdd;" horiz-adv-x="1310" 
d="M162 1384q-38 68 -68.5 103t-77.5 57v6h410v-6q-75 -40 -14 -166l305 -559l295 559q20 40 28 69t-0.5 55.5t-38.5 41.5v6h295v-6q-82 -46 -145 -162l-369 -682v-426q0 -117 17.5 -174t72.5 -92v-8h-409v8q57 35 73.5 91.5t16.5 174.5v431zM655 1690l191 290h205
l-308 -290h-88z" />
    <glyph glyph-name="Thorn" unicode="&#xde;" horiz-adv-x="1314" 
d="M121 0v8q57 35 73.5 91.5t16.5 174.5v1002q0 123 -16.5 177.5t-73.5 90.5v6h407v-6q-56 -37 -73 -91.5t-17 -176.5v-55h199q612 0 612 -402q0 -145 -84 -241t-227 -138.5t-342 -42.5h-158v-123q0 -117 17.5 -174t72.5 -92v-8h-407zM438 498h146q206 0 321 78t115 243
q0 301 -397 301h-185v-622z" />
    <glyph glyph-name="germandbls" unicode="&#xdf;" horiz-adv-x="1275" 
d="M797 -23q-180 0 -277 111v117q87 -125 248 -125q102 0 159.5 48t57.5 134q0 71 -45 134t-154 163q-110 101 -157 162t-47 123q0 33 9.5 60.5t34.5 56t44.5 46t62.5 52.5q42 35 55 46.5t43 42.5t40.5 51t21 51.5t10.5 66.5q0 89 -60 145t-171 56q-153 0 -229 -108.5
t-76 -303.5v-832q0 -117 12.5 -174t52.5 -92v-8h-346v8q47 35 61.5 92t14.5 174v785q0 254 135.5 404.5t386.5 150.5q180 0 289.5 -79.5t109.5 -209.5q0 -43 -14.5 -81t-31.5 -61.5t-53.5 -51.5t-55 -39.5t-62.5 -36.5q-72 -40 -104.5 -72t-32.5 -74q0 -28 14.5 -56.5
t49 -62t56 -51.5t71.5 -57q63 -49 104.5 -87t80.5 -86t58 -100t19 -110q0 -142 -108 -232t-277 -90z" />
    <glyph glyph-name="agrave" unicode="&#xe0;" horiz-adv-x="1136" 
d="M371 -27q-135 0 -217 68.5t-82 196.5q0 56 18.5 100.5t49.5 76.5t85 60t109.5 48t138.5 44q40 12 54 16t47 14.5t44.5 15.5t36 15t33 17t25 18.5t22 22.5t14 25.5t11 31t2.5 35.5q2 78 -49 122t-146 44q-54 0 -100.5 -15.5t-84.5 -47t-60 -84.5t-23 -123h-190
q12 171 148 267.5t329 96.5q82 0 148.5 -18.5t119.5 -57t82 -105.5t29 -157v-444q0 -160 96 -160q39 0 74 27v-76q-66 -63 -166 -63q-93 0 -151 63t-58 191v24q-44 -129 -143 -209t-246 -80zM225 1548h185l198 -362h-61zM274 264q0 -80 45.5 -120t116.5 -40q143 0 233.5 117
t90.5 301v94q-7 -16 -17.5 -29.5t-31 -26t-33 -20t-47 -20t-48 -17.5t-59.5 -20q-68 -22 -109.5 -40t-76 -43.5t-49.5 -58t-15 -77.5z" />
    <glyph glyph-name="aacute" unicode="&#xe1;" horiz-adv-x="1136" 
d="M371 -27q-135 0 -217 68.5t-82 196.5q0 56 18.5 100.5t49.5 76.5t85 60t109.5 48t138.5 44q40 12 54 16t47 14.5t44.5 15.5t36 15t33 17t25 18.5t22 22.5t14 25.5t11 31t2.5 35.5q2 78 -49 122t-146 44q-54 0 -100.5 -15.5t-84.5 -47t-60 -84.5t-23 -123h-190
q12 171 148 267.5t329 96.5q82 0 148.5 -18.5t119.5 -57t82 -105.5t29 -157v-444q0 -160 96 -160q39 0 74 27v-76q-66 -63 -166 -63q-93 0 -151 63t-58 191v24q-44 -129 -143 -209t-246 -80zM274 264q0 -80 45.5 -120t116.5 -40q143 0 233.5 117t90.5 301v94
q-7 -16 -17.5 -29.5t-31 -26t-33 -20t-47 -20t-48 -17.5t-59.5 -20q-68 -22 -109.5 -40t-76 -43.5t-49.5 -58t-15 -77.5zM539 1186l198 362h185l-320 -362h-63z" />
    <glyph glyph-name="acircumflex" unicode="&#xe2;" horiz-adv-x="1136" 
d="M371 -27q-135 0 -217 68.5t-82 196.5q0 56 18.5 100.5t49.5 76.5t85 60t109.5 48t138.5 44q40 12 54 16t47 14.5t44.5 15.5t36 15t33 17t25 18.5t22 22.5t14 25.5t11 31t2.5 35.5q2 78 -49 122t-146 44q-54 0 -100.5 -15.5t-84.5 -47t-60 -84.5t-23 -123h-190
q12 171 148 267.5t329 96.5q82 0 148.5 -18.5t119.5 -57t82 -105.5t29 -157v-444q0 -160 96 -160q39 0 74 27v-76q-66 -63 -166 -63q-93 0 -151 63t-58 191v24q-44 -129 -143 -209t-246 -80zM274 264q0 -80 45.5 -120t116.5 -40q143 0 233.5 117t90.5 301v94
q-7 -16 -17.5 -29.5t-31 -26t-33 -20t-47 -20t-48 -17.5t-59.5 -20q-68 -22 -109.5 -40t-76 -43.5t-49.5 -58t-15 -77.5zM274 1186l252 338h99l249 -338h-100l-199 217l-198 -217h-103z" />
    <glyph glyph-name="atilde" unicode="&#xe3;" horiz-adv-x="1136" 
d="M371 -27q-135 0 -217 68.5t-82 196.5q0 56 18.5 100.5t49.5 76.5t85 60t109.5 48t138.5 44q40 12 54 16t47 14.5t44.5 15.5t36 15t33 17t25 18.5t22 22.5t14 25.5t11 31t2.5 35.5q2 78 -49 122t-146 44q-54 0 -100.5 -15.5t-84.5 -47t-60 -84.5t-23 -123h-190
q12 171 148 267.5t329 96.5q82 0 148.5 -18.5t119.5 -57t82 -105.5t29 -157v-444q0 -160 96 -160q39 0 74 27v-76q-66 -63 -166 -63q-93 0 -151 63t-58 191v24q-44 -129 -143 -209t-246 -80zM256 1196q-4 160 43 243t133 83q46 0 82 -21.5t59 -52t44.5 -60.5t50.5 -51.5
t65 -21.5q97 0 88 196h66q8 -327 -170 -327q-40 0 -73 15t-53.5 37t-41.5 48t-38 48t-42 37t-55 15q-52 0 -74.5 -51t-17.5 -137h-66zM274 264q0 -80 45.5 -120t116.5 -40q143 0 233.5 117t90.5 301v94q-7 -16 -17.5 -29.5t-31 -26t-33 -20t-47 -20t-48 -17.5t-59.5 -20
q-68 -22 -109.5 -40t-76 -43.5t-49.5 -58t-15 -77.5z" />
    <glyph glyph-name="adieresis" unicode="&#xe4;" horiz-adv-x="1136" 
d="M371 -27q-135 0 -217 68.5t-82 196.5q0 56 18.5 100.5t49.5 76.5t85 60t109.5 48t138.5 44q40 12 54 16t47 14.5t44.5 15.5t36 15t33 17t25 18.5t22 22.5t14 25.5t11 31t2.5 35.5q2 78 -49 122t-146 44q-54 0 -100.5 -15.5t-84.5 -47t-60 -84.5t-23 -123h-190
q12 171 148 267.5t329 96.5q82 0 148.5 -18.5t119.5 -57t82 -105.5t29 -157v-444q0 -160 96 -160q39 0 74 27v-76q-66 -63 -166 -63q-93 0 -151 63t-58 191v24q-44 -129 -143 -209t-246 -80zM274 264q0 -80 45.5 -120t116.5 -40q143 0 233.5 117t90.5 301v94
q-7 -16 -17.5 -29.5t-31 -26t-33 -20t-47 -20t-48 -17.5t-59.5 -20q-68 -22 -109.5 -40t-76 -43.5t-49.5 -58t-15 -77.5zM313 1249v221h183v-221h-183zM653 1249v221h183v-221h-183z" />
    <glyph glyph-name="aring" unicode="&#xe5;" horiz-adv-x="1136" 
d="M371 -27q-135 0 -217 68.5t-82 196.5q0 56 18.5 100.5t49.5 76.5t85 60t109.5 48t138.5 44q40 12 54 16t47 14.5t44.5 15.5t36 15t33 17t25 18.5t22 22.5t14 25.5t11 31t2.5 35.5q2 78 -49 122t-146 44q-54 0 -100.5 -15.5t-84.5 -47t-60 -84.5t-23 -123h-190
q12 171 148 267.5t329 96.5q82 0 148.5 -18.5t119.5 -57t82 -105.5t29 -157v-444q0 -160 96 -160q39 0 74 27v-76q-66 -63 -166 -63q-93 0 -151 63t-58 191v24q-44 -129 -143 -209t-246 -80zM274 264q0 -80 45.5 -120t116.5 -40q143 0 233.5 117t90.5 301v94
q-7 -16 -17.5 -29.5t-31 -26t-33 -20t-47 -20t-48 -17.5t-59.5 -20q-68 -22 -109.5 -40t-76 -43.5t-49.5 -58t-15 -77.5zM358 1386q0 91 60 147t157 56t158.5 -56.5t61.5 -146.5q0 -88 -61.5 -144t-158.5 -56q-96 0 -156.5 56t-60.5 144zM434 1386q0 -63 39 -101t102 -38
t102.5 38t39.5 101q0 64 -39.5 103t-102.5 39t-102 -39t-39 -103z" />
    <glyph glyph-name="ae" unicode="&#xe6;" horiz-adv-x="1828" 
d="M1280 -35q-174 0 -296.5 100.5t-160.5 280.5q-32 -164 -151 -268.5t-295 -104.5q-137 -2 -221 66.5t-84 193.5q0 56 18.5 100.5t49.5 77t83.5 61t109 48.5t138.5 43q52 14 77 21.5t63 20.5t55.5 23t40 25.5t32.5 32.5t17.5 39.5t7.5 50.5q0 79 -52 123.5t-149 44.5
q-112 0 -188 -68t-76 -202h-190q6 87 47 157.5t105.5 114.5t143.5 67.5t166 24.5q257 0 340 -182q66 88 161.5 134t211.5 46q214 0 339 -129.5t128 -341.5h-766v-39q0 -191 86.5 -310.5t251.5 -119.5q135 0 218 79t114 210h102q-16 -89 -54 -164t-96.5 -133t-142 -90.5
t-184.5 -32.5zM270 262q0 -79 48 -118.5t122 -39.5q143 0 234.5 116.5t91.5 301.5v96q-20 -47 -74 -75t-168 -64q-136 -43 -195 -87.5t-59 -129.5zM995 649h559q-13 131 -83 212t-187 81q-115 0 -190 -78.5t-99 -214.5z" />
    <glyph glyph-name="ccedilla" unicode="&#xe7;" horiz-adv-x="1142" 
d="M573 -502q-90 0 -162.5 33t-113.5 94l49 51q27 -46 79.5 -74t121.5 -28q64 0 103.5 24.5t39.5 75.5q0 50 -37 77.5t-102 27.5q-55 0 -94 -19l-39 41l127 166q-208 12 -337.5 155.5t-129.5 377.5q0 166 69 289t186 185t267 62q200 0 327 -108t150 -273h-186q-9 56 -28 103
t-51 90t-85.5 67.5t-122.5 24.5q-153 0 -235 -112.5t-82 -297.5q0 -124 35.5 -220.5t114.5 -157t194 -60.5q142 0 227 86.5t115 231.5h112q-18 -122 -73.5 -216.5t-153.5 -155.5t-227 -71l-80 -104q36 4 57 4q97 0 157 -48t60 -130q0 -64 -39 -109t-94.5 -63.5t-118.5 -18.5
z" />
    <glyph glyph-name="egrave" unicode="&#xe8;" horiz-adv-x="1157" 
d="M586 -35q-226 0 -367 143t-141 390q0 161 68.5 284.5t184.5 188.5t261 65q218 0 351 -130t136 -341h-798v-35q0 -194 89 -314t259 -120q139 0 224 79t118 210h112q-38 -187 -164.5 -303.5t-332.5 -116.5zM231 1548h185l198 -362h-61zM291 653h586q-13 129 -87 209
t-198 80q-119 0 -197.5 -77t-103.5 -212z" />
    <glyph glyph-name="eacute" unicode="&#xe9;" horiz-adv-x="1157" 
d="M586 -35q-226 0 -367 143t-141 390q0 161 68.5 284.5t184.5 188.5t261 65q218 0 351 -130t136 -341h-798v-35q0 -194 89 -314t259 -120q139 0 224 79t118 210h112q-38 -187 -164.5 -303.5t-332.5 -116.5zM291 653h586q-13 129 -87 209t-198 80q-119 0 -197.5 -77
t-103.5 -212zM545 1186l198 362h185l-320 -362h-63z" />
    <glyph glyph-name="ecircumflex" unicode="&#xea;" horiz-adv-x="1157" 
d="M586 -35q-226 0 -367 143t-141 390q0 161 68.5 284.5t184.5 188.5t261 65q218 0 351 -130t136 -341h-798v-35q0 -194 89 -314t259 -120q139 0 224 79t118 210h112q-38 -187 -164.5 -303.5t-332.5 -116.5zM283 1186l252 338h98l250 -338h-101l-198 217l-199 -217h-102z
M291 653h586q-13 129 -87 209t-198 80q-119 0 -197.5 -77t-103.5 -212z" />
    <glyph glyph-name="edieresis" unicode="&#xeb;" horiz-adv-x="1157" 
d="M586 -35q-226 0 -367 143t-141 390q0 161 68.5 284.5t184.5 188.5t261 65q218 0 351 -130t136 -341h-798v-35q0 -194 89 -314t259 -120q139 0 224 79t118 210h112q-38 -187 -164.5 -303.5t-332.5 -116.5zM291 653h586q-13 129 -87 209t-198 80q-119 0 -197.5 -77
t-103.5 -212zM319 1249v221h183v-221h-183zM659 1249v221h183v-221h-183z" />
    <glyph glyph-name="igrave" unicode="&#xec;" horiz-adv-x="518" 
d="M72 0v8q52 35 68 92t16 174v457q0 122 -15 176.5t-67 89.5v9l137 2l154 6v-740q0 -118 15 -174.5t66 -91.5v-8h-374zM-92 1548h184l199 -362h-62z" />
    <glyph glyph-name="iacute" unicode="&#xed;" horiz-adv-x="518" 
d="M72 0v8q52 35 68 92t16 174v457q0 122 -15 176.5t-67 89.5v9l137 2l154 6v-740q0 -118 15 -174.5t66 -91.5v-8h-374zM221 1186l199 362h184l-319 -362h-64z" />
    <glyph glyph-name="icircumflex" unicode="&#xee;" horiz-adv-x="518" 
d="M72 0v8q52 35 68 92t16 174v457q0 122 -15 176.5t-67 89.5v9l137 2l154 6v-740q0 -118 15 -174.5t66 -91.5v-8h-374zM-43 1186l252 338h98l250 -338h-100l-199 217l-199 -217h-102z" />
    <glyph glyph-name="idieresis" unicode="&#xef;" horiz-adv-x="518" 
d="M72 0v8q52 35 68 92t16 174v457q0 122 -15 176.5t-67 89.5v9l137 2l154 6v-740q0 -118 15 -174.5t66 -91.5v-8h-374zM-4 1249v221h182v-221h-182zM336 1249v221h182v-221h-182z" />
    <glyph glyph-name="eth" unicode="&#xf0;" horiz-adv-x="1198" 
d="M594 -35q-227 0 -372.5 149t-145.5 386q0 229 143 374.5t354 145.5q118 0 205 -54.5t137 -154.5q-51 347 -247 543l-449 -260v88l389 225q-159 126 -401 174l76 37q230 -27 422 -156l344 199v-88l-279 -162q162 -133 254 -333t92 -455q0 -317 -141.5 -487.5
t-380.5 -170.5zM285 502q0 -203 83.5 -323t225.5 -120q149 0 233 125.5t84 329.5q0 202 -84.5 310t-226.5 108q-149 0 -232 -114.5t-83 -315.5z" />
    <glyph glyph-name="ntilde" unicode="&#xf1;" horiz-adv-x="1234" 
d="M86 0v8q51 35 66.5 91.5t15.5 174.5v453q0 122 -15 176.5t-67 91.5v6h322q-17 -34 -23 -82t-8 -139q51 114 150 185t239 71q317 0 317 -374v-388q0 -117 15 -174t65 -92v-8h-364v8q47 35 61 91.5t14 174.5v371q0 138 -50.5 202t-153.5 64q-113 0 -190.5 -76.5
t-102.5 -191.5v-369q0 -117 15 -174t65 -92v-8h-371zM313 1196q-4 160 43 243t133 83q46 0 82 -21.5t59 -52t45 -60.5t51 -51.5t65 -21.5q97 0 88 196h65q8 -327 -170 -327q-40 0 -73 15t-53.5 37t-41.5 48t-38 48t-42 37t-55 15q-52 0 -74.5 -51t-17.5 -137h-66z" />
    <glyph glyph-name="ograve" unicode="&#xf2;" horiz-adv-x="1216" 
d="M608 -35q-240 0 -385 148t-145 389q0 242 144.5 388t385.5 146q242 0 386.5 -146t144.5 -388q0 -241 -145 -389t-386 -148zM258 1548h184l199 -362h-61zM289 502q0 -208 84.5 -324.5t236.5 -116.5q149 0 233.5 117t84.5 324q0 208 -84 323t-234 115q-153 0 -237 -114.5
t-84 -323.5z" />
    <glyph glyph-name="oacute" unicode="&#xf3;" horiz-adv-x="1216" 
d="M608 -35q-240 0 -385 148t-145 389q0 242 144.5 388t385.5 146q242 0 386.5 -146t144.5 -388q0 -241 -145 -389t-386 -148zM289 502q0 -208 84.5 -324.5t236.5 -116.5q149 0 233.5 117t84.5 324q0 208 -84 323t-234 115q-153 0 -237 -114.5t-84 -323.5zM571 1186l199 362
h184l-319 -362h-64z" />
    <glyph glyph-name="ocircumflex" unicode="&#xf4;" horiz-adv-x="1216" 
d="M608 -35q-240 0 -385 148t-145 389q0 242 144.5 388t385.5 146q242 0 386.5 -146t144.5 -388q0 -241 -145 -389t-386 -148zM289 502q0 -208 84.5 -324.5t236.5 -116.5q149 0 233.5 117t84.5 324q0 208 -84 323t-234 115q-153 0 -237 -114.5t-84 -323.5zM309 1186l252 338
h98l250 -338h-100l-199 217l-198 -217h-103z" />
    <glyph glyph-name="otilde" unicode="&#xf5;" horiz-adv-x="1216" 
d="M608 -35q-240 0 -385 148t-145 389q0 242 144.5 388t385.5 146q242 0 386.5 -146t144.5 -388q0 -241 -145 -389t-386 -148zM289 502q0 -208 84.5 -324.5t236.5 -116.5q149 0 233.5 117t84.5 324q0 208 -84 323t-234 115q-153 0 -237 -114.5t-84 -323.5zM291 1196
q-4 160 43 243t133 83q46 0 82 -21.5t59 -52t44.5 -60.5t50.5 -51.5t65 -21.5q97 0 88 196h66q8 -327 -170 -327q-40 0 -73 15t-53.5 37t-41.5 48t-38 48t-42 37t-55 15q-52 0 -75 -51t-18 -137h-65z" />
    <glyph glyph-name="odieresis" unicode="&#xf6;" horiz-adv-x="1216" 
d="M608 -35q-240 0 -385 148t-145 389q0 242 144.5 388t385.5 146q242 0 386.5 -146t144.5 -388q0 -241 -145 -389t-386 -148zM289 502q0 -208 84.5 -324.5t236.5 -116.5q149 0 233.5 117t84.5 324q0 208 -84 323t-234 115q-153 0 -237 -114.5t-84 -323.5zM346 1249v221h182
v-221h-182zM686 1249v221h182v-221h-182z" />
    <glyph glyph-name="divide" unicode="&#xf7;" horiz-adv-x="1175" 
d="M125 479v105h926v-103zM512 70v190h152v-190h-152zM512 803v190h152v-190h-152z" />
    <glyph glyph-name="oslash" unicode="&#xf8;" horiz-adv-x="1216" 
d="M352 -250l-73 25l94 237q-139 60 -217 189t-78 303q0 242 144.5 388t385.5 146q90 0 160 -20l94 237l74 -26l-92 -236q139 -59 217 -186.5t78 -302.5q0 -241 -145 -389t-386 -148q-88 0 -162 21zM289 504q0 -260 129 -373l311 789q-55 22 -119 22q-153 0 -237 -114.5
t-84 -323.5zM485 88q58 -25 125 -25q149 0 233.5 117t84.5 324q0 264 -131 373z" />
    <glyph glyph-name="ugrave" unicode="&#xf9;" horiz-adv-x="1234" 
d="M473 -31q-319 0 -319 375v383q0 119 -15.5 175.5t-66.5 92.5v6h364v-6q-45 -37 -59.5 -94t-14.5 -174v-365q0 -138 50 -202t153 -64q114 0 189.5 81.5t103.5 213.5v336q0 118 -15 175t-63 93v6h369v-6q-51 -36 -66.5 -92.5t-15.5 -175.5v-453q0 -122 15 -176.5t67 -89.5
v-8h-318q27 69 27 244q-48 -120 -147.5 -197.5t-237.5 -77.5zM268 1548h185l198 -362h-61z" />
    <glyph glyph-name="uacute" unicode="&#xfa;" horiz-adv-x="1234" 
d="M473 -31q-319 0 -319 375v383q0 119 -15.5 175.5t-66.5 92.5v6h364v-6q-45 -37 -59.5 -94t-14.5 -174v-365q0 -138 50 -202t153 -64q114 0 189.5 81.5t103.5 213.5v336q0 118 -15 175t-63 93v6h369v-6q-51 -36 -66.5 -92.5t-15.5 -175.5v-453q0 -122 15 -176.5t67 -89.5
v-8h-318q27 69 27 244q-48 -120 -147.5 -197.5t-237.5 -77.5zM582 1186l198 362h185l-320 -362h-63z" />
    <glyph glyph-name="ucircumflex" unicode="&#xfb;" horiz-adv-x="1234" 
d="M473 -31q-319 0 -319 375v383q0 119 -15.5 175.5t-66.5 92.5v6h364v-6q-45 -37 -59.5 -94t-14.5 -174v-365q0 -138 50 -202t153 -64q114 0 189.5 81.5t103.5 213.5v336q0 118 -15 175t-63 93v6h369v-6q-51 -36 -66.5 -92.5t-15.5 -175.5v-453q0 -122 15 -176.5t67 -89.5
v-8h-318q27 69 27 244q-48 -120 -147.5 -197.5t-237.5 -77.5zM317 1186l252 338h99l250 -338h-101l-199 217l-198 -217h-103z" />
    <glyph glyph-name="udieresis" unicode="&#xfc;" horiz-adv-x="1234" 
d="M473 -31q-319 0 -319 375v383q0 119 -15.5 175.5t-66.5 92.5v6h364v-6q-45 -37 -59.5 -94t-14.5 -174v-365q0 -138 50 -202t153 -64q114 0 189.5 81.5t103.5 213.5v336q0 118 -15 175t-63 93v6h369v-6q-51 -36 -66.5 -92.5t-15.5 -175.5v-453q0 -122 15 -176.5t67 -89.5
v-8h-318q27 69 27 244q-48 -120 -147.5 -197.5t-237.5 -77.5zM356 1249v221h183v-221h-183zM696 1249v221h183v-221h-183z" />
    <glyph glyph-name="yacute" unicode="&#xfd;" horiz-adv-x="1064" 
d="M154 -498q-83 0 -136 29v166q64 -35 150 -35q110 0 192 78t158 260h-63l-293 756q-42 106 -71 157.5t-71 81.5v6h347v-6q-28 -19 -33 -52t4 -71t35 -110l209 -590l211 590q24 67 33.5 108t3 74t-34.5 51v6h260v-6q-70 -46 -142 -233l-292 -760q-106 -270 -211.5 -385
t-255.5 -115zM539 1186l198 362h185l-320 -362h-63z" />
    <glyph glyph-name="thorn" unicode="&#xfe;" horiz-adv-x="1222" 
d="M61 -492v7q51 32 66.5 82.5t15.5 156.5v1569q0 107 -12.5 155.5t-56.5 82.5v8l278 35l15 -7q-15 -83 -15 -274v-565q48 128 144 202t237 74q191 0 301.5 -146t110.5 -374q0 -234 -119 -383t-315 -149q-116 0 -209.5 50.5t-149.5 141.5v-420q0 -106 16 -156.5t70 -82.5v-7
h-377zM352 281q42 -90 116.5 -143.5t164.5 -53.5q139 0 216 114.5t77 313.5q0 117 -27.5 208t-90 147.5t-153.5 56.5q-144 0 -223.5 -123t-79.5 -320v-200z" />
    <glyph glyph-name="ydieresis" unicode="&#xff;" horiz-adv-x="1064" 
d="M154 -498q-83 0 -136 29v166q64 -35 150 -35q110 0 192 78t158 260h-63l-293 756q-42 106 -71 157.5t-71 81.5v6h347v-6q-28 -19 -33 -52t4 -71t35 -110l209 -590l211 590q24 67 33.5 108t3 74t-34.5 51v6h260v-6q-70 -46 -142 -233l-292 -760q-106 -270 -211.5 -385
t-255.5 -115zM313 1249v221h183v-221h-183zM653 1249v221h183v-221h-183z" />
    <glyph glyph-name="Amacron" unicode="&#x100;" horiz-adv-x="1503" 
d="M4 6q57 36 98.5 89.5t73.5 142.5l438 1175q25 76 4 137h234l496 -1321q32 -88 66 -139t85 -82v-8h-446v6q58 33 68 86t-21 135l-86 250h-613l-88 -246q-33 -90 -26 -141.5t59 -83.5v-6h-342v6zM389 1778v90h703v-90h-703zM438 580h539l-266 766z" />
    <glyph glyph-name="amacron" unicode="&#x101;" horiz-adv-x="1136" 
d="M371 -27q-135 0 -217 68.5t-82 196.5q0 56 18.5 100.5t49.5 76.5t85 60t109.5 48t138.5 44q40 12 54 16t47 14.5t44.5 15.5t36 15t33 17t25 18.5t22 22.5t14 25.5t11 31t2.5 35.5q2 78 -49 122t-146 44q-54 0 -100.5 -15.5t-84.5 -47t-60 -84.5t-23 -123h-190
q12 171 148 267.5t329 96.5q82 0 148.5 -18.5t119.5 -57t82 -105.5t29 -157v-444q0 -160 96 -160q39 0 74 27v-76q-66 -63 -166 -63q-93 0 -151 63t-58 191v24q-44 -129 -143 -209t-246 -80zM248 1249v92h653v-92h-653zM274 264q0 -80 45.5 -120t116.5 -40q143 0 233.5 117
t90.5 301v94q-7 -16 -17.5 -29.5t-31 -26t-33 -20t-47 -20t-48 -17.5t-59.5 -20q-68 -22 -109.5 -40t-76 -43.5t-49.5 -58t-15 -77.5z" />
    <glyph glyph-name="Abreve" unicode="&#x102;" horiz-adv-x="1503" 
d="M4 6q57 36 98.5 89.5t73.5 142.5l438 1175q25 76 4 137h234l496 -1321q32 -88 66 -139t85 -82v-8h-446v6q58 33 68 86t-21 135l-86 250h-613l-88 -246q-33 -90 -26 -141.5t59 -83.5v-6h-342v6zM428 1980h94q0 -86 55 -135t164 -49t164.5 49t55.5 135h92
q0 -146 -82.5 -223.5t-229.5 -77.5t-230 77.5t-83 223.5zM438 580h539l-266 766z" />
    <glyph glyph-name="abreve" unicode="&#x103;" horiz-adv-x="1136" 
d="M371 -27q-135 0 -217 68.5t-82 196.5q0 56 18.5 100.5t49.5 76.5t85 60t109.5 48t138.5 44q40 12 54 16t47 14.5t44.5 15.5t36 15t33 17t25 18.5t22 22.5t14 25.5t11 31t2.5 35.5q2 78 -49 122t-146 44q-54 0 -100.5 -15.5t-84.5 -47t-60 -84.5t-23 -123h-190
q12 171 148 267.5t329 96.5q82 0 148.5 -18.5t119.5 -57t82 -105.5t29 -157v-444q0 -160 96 -160q39 0 74 27v-76q-66 -63 -166 -63q-93 0 -151 63t-58 191v24q-44 -129 -143 -209t-246 -80zM274 264q0 -80 45.5 -120t116.5 -40q143 0 233.5 117t90.5 301v94
q-7 -16 -17.5 -29.5t-31 -26t-33 -20t-47 -20t-48 -17.5t-59.5 -20q-68 -22 -109.5 -40t-76 -43.5t-49.5 -58t-15 -77.5zM289 1516h90q0 -107 48.5 -164.5t147.5 -57.5q195 0 195 222h90q0 -155 -76.5 -242.5t-208.5 -87.5q-133 0 -209.5 87.5t-76.5 242.5z" />
    <glyph glyph-name="Aogonek" unicode="&#x104;" horiz-adv-x="1503" 
d="M4 6q57 36 98.5 89.5t73.5 142.5l438 1175q25 76 4 137h234l496 -1321q32 -88 66 -139t85 -82v-8h-153q-172 -117 -172 -272q0 -57 30.5 -89t81.5 -32q78 0 129 80v-72q-65 -98 -180 -98q-78 0 -133 47t-55 137q0 98 61.5 173t151.5 126h-207v6q58 33 68 86t-21 135
l-86 250h-613l-88 -246q-33 -90 -26 -141.5t59 -83.5v-6h-342v6zM438 580h539l-266 766z" />
    <glyph glyph-name="aogonek" unicode="&#x105;" horiz-adv-x="1136" 
d="M371 -27q-135 0 -217 68.5t-82 196.5q0 56 18.5 100.5t49.5 76.5t85 60t109.5 48t138.5 44q40 12 54 16t47 14.5t44.5 15.5t36 15t33 17t25 18.5t22 22.5t14 25.5t11 31t2.5 35.5q2 78 -49 122t-146 44q-54 0 -100.5 -15.5t-84.5 -47t-60 -84.5t-23 -123h-190
q12 171 148 267.5t329 96.5q82 0 148.5 -18.5t119.5 -57t82 -105.5t29 -157v-444q0 -160 96 -160q39 0 74 27v-76q-18 -18 -41 -31l2 -2q-172 -117 -172 -272q0 -57 30.5 -89t81.5 -32q78 0 129 80v-72q-65 -98 -180 -98q-78 0 -133 47t-55 137q0 156 164 269
q-90 3 -145.5 66t-55.5 188v24q-44 -129 -143 -209t-246 -80zM274 264q0 -80 45.5 -120t116.5 -40q143 0 233.5 117t90.5 301v94q-7 -16 -17.5 -29.5t-31 -26t-33 -20t-47 -20t-48 -17.5t-59.5 -20q-68 -22 -109.5 -40t-76 -43.5t-49.5 -58t-15 -77.5z" />
    <glyph glyph-name="Cacute" unicode="&#x106;" horiz-adv-x="1710" 
d="M870 -29q-146 0 -272 40t-220 113t-161 172t-101 219.5t-34 254.5q0 237 102.5 420.5t286 283t418.5 99.5q185 0 336 -61t259.5 -189t151.5 -311h-225q-48 210 -184.5 331t-337.5 121q-128 0 -235.5 -52t-179 -141.5t-111 -211t-39.5 -260.5q0 -142 37.5 -263.5
t109.5 -214t185.5 -145.5t256.5 -53q246 0 404.5 144t200.5 390h133q-48 -318 -254 -502t-527 -184zM825 1688l191 290h205l-308 -290h-88z" />
    <glyph glyph-name="cacute" unicode="&#x107;" horiz-adv-x="1142" 
d="M584 -35q-224 0 -365 145t-141 390q0 166 69 289t186 185t267 62q200 0 327 -108t150 -273h-186q-9 56 -28 103t-51 90t-85.5 67.5t-122.5 24.5q-153 0 -235 -112.5t-82 -297.5q0 -124 35.5 -220.5t114.5 -157t194 -60.5q142 0 227 86.5t115 231.5h112
q-29 -198 -158.5 -321.5t-342.5 -123.5zM547 1186l198 362h185l-320 -362h-63z" />
    <glyph glyph-name="Ccircumflex" unicode="&#x108;" horiz-adv-x="1710" 
d="M870 -29q-146 0 -272 40t-220 113t-161 172t-101 219.5t-34 254.5q0 237 102.5 420.5t286 283t418.5 99.5q185 0 336 -61t259.5 -189t151.5 -311h-225q-48 210 -184.5 331t-337.5 121q-128 0 -235.5 -52t-179 -141.5t-111 -211t-39.5 -260.5q0 -142 37.5 -263.5
t109.5 -214t185.5 -145.5t256.5 -53q246 0 404.5 144t200.5 390h133q-48 -318 -254 -502t-527 -184zM545 1688l272 290h107l272 -290h-113l-213 184l-213 -184h-112z" />
    <glyph glyph-name="ccircumflex" unicode="&#x109;" horiz-adv-x="1142" 
d="M584 -35q-224 0 -365 145t-141 390q0 166 69 289t186 185t267 62q200 0 327 -108t150 -273h-186q-9 56 -28 103t-51 90t-85.5 67.5t-122.5 24.5q-153 0 -235 -112.5t-82 -297.5q0 -124 35.5 -220.5t114.5 -157t194 -60.5q142 0 227 86.5t115 231.5h112
q-29 -198 -158.5 -321.5t-342.5 -123.5zM285 1186l252 338h98l250 -338h-101l-198 217l-199 -217h-102z" />
    <glyph glyph-name="Cdotaccent" unicode="&#x10a;" horiz-adv-x="1710" 
d="M870 -29q-146 0 -272 40t-220 113t-161 172t-101 219.5t-34 254.5q0 237 102.5 420.5t286 283t418.5 99.5q185 0 336 -61t259.5 -189t151.5 -311h-225q-48 210 -184.5 331t-337.5 121q-128 0 -235.5 -52t-179 -141.5t-111 -211t-39.5 -260.5q0 -142 37.5 -263.5
t109.5 -214t185.5 -145.5t256.5 -53q246 0 404.5 144t200.5 390h133q-48 -318 -254 -502t-527 -184zM782 1722v217h176v-217h-176z" />
    <glyph glyph-name="cdotaccent" unicode="&#x10b;" horiz-adv-x="1142" 
d="M584 -35q-224 0 -365 145t-141 390q0 166 69 289t186 185t267 62q200 0 327 -108t150 -273h-186q-9 56 -28 103t-51 90t-85.5 67.5t-122.5 24.5q-153 0 -235 -112.5t-82 -297.5q0 -124 35.5 -220.5t114.5 -157t194 -60.5q142 0 227 86.5t115 231.5h112
q-29 -198 -158.5 -321.5t-342.5 -123.5zM487 1253v215h195v-215h-195z" />
    <glyph glyph-name="Ccaron" unicode="&#x10c;" horiz-adv-x="1710" 
d="M870 -29q-146 0 -272 40t-220 113t-161 172t-101 219.5t-34 254.5q0 237 102.5 420.5t286 283t418.5 99.5q185 0 336 -61t259.5 -189t151.5 -311h-225q-48 210 -184.5 331t-337.5 121q-128 0 -235.5 -52t-179 -141.5t-111 -211t-39.5 -260.5q0 -142 37.5 -263.5
t109.5 -214t185.5 -145.5t256.5 -53q246 0 404.5 144t200.5 390h133q-48 -318 -254 -502t-527 -184zM537 1978h112l223 -182l224 182h112l-284 -290h-105z" />
    <glyph glyph-name="ccaron" unicode="&#x10d;" horiz-adv-x="1142" 
d="M584 -35q-224 0 -365 145t-141 390q0 166 69 289t186 185t267 62q200 0 327 -108t150 -273h-186q-9 56 -28 103t-51 90t-85.5 67.5t-122.5 24.5q-153 0 -235 -112.5t-82 -297.5q0 -124 35.5 -220.5t114.5 -157t194 -60.5q142 0 227 86.5t115 231.5h112
q-29 -198 -158.5 -321.5t-342.5 -123.5zM268 1542h103l213 -233l211 233h102l-262 -356h-105z" />
    <glyph glyph-name="Dcaron" unicode="&#x10e;" horiz-adv-x="1695" 
d="M119 0v8q57 35 73.5 91.5t16.5 174.5v1002q0 123 -16.5 177.5t-73.5 90.5v6h590q275 0 478.5 -91t315 -266.5t111.5 -416.5q0 -360 -243 -568t-660 -208h-592zM438 102h258q308 0 493 179.5t185 492.5q0 161 -48.5 289t-137.5 212t-214 128.5t-278 44.5h-258v-1346z
M438 1980h113l223 -182l223 182h113l-285 -290h-104z" />
    <glyph glyph-name="dcaron" unicode="&#x10f;" horiz-adv-x="1245" 
d="M866 0q13 143 13 264q-48 -130 -144.5 -206t-236.5 -76q-131 0 -227.5 69.5t-144.5 185.5t-48 263q0 235 121 384.5t323 149.5q117 0 209.5 -52t147.5 -144v487q0 100 -14 152t-56 86v6l278 35l13 -7q-13 -79 -13 -272v-1051q0 -117 15 -174t65 -92v-8h-301zM297 500
q0 -87 16 -159t48.5 -129t86.5 -88.5t125 -31.5q144 0 224 123t80 315h2v197q-39 92 -118 148.5t-173 56.5q-137 0 -214 -116.5t-77 -315.5zM1231 1116l80 481h166l-179 -481h-67z" />
    <glyph glyph-name="Dcroat" unicode="&#x110;" horiz-adv-x="1695" 
d="M119 0v8q57 35 73.5 91.5t16.5 174.5v484h-178v92h178v426q0 123 -16.5 177.5t-73.5 90.5v6h590q275 0 478.5 -91t315 -266.5t111.5 -416.5q0 -360 -243 -568t-660 -208h-592zM438 102h258q308 0 493 179.5t185 492.5q0 161 -48.5 289t-137.5 212t-214 128.5t-278 44.5
h-258v-598h488v-92h-488v-656z" />
    <glyph glyph-name="dcroat" unicode="&#x111;" horiz-adv-x="1245" 
d="M866 0q13 143 13 264q-48 -130 -144.5 -206t-236.5 -76q-131 0 -227.5 69.5t-144.5 185.5t-48 263q0 235 121 384.5t323 149.5q117 0 209.5 -52t147.5 -144v383h-445v73h445v31q0 100 -14 152t-56 86v6l278 35l13 -7q-13 -79 -13 -272v-31h205v-73h-205v-947
q0 -117 15 -174t65 -92v-8h-301zM297 500q0 -87 16 -159t48.5 -129t86.5 -88.5t125 -31.5q144 0 224 123t80 315h2v197q-39 92 -118 148.5t-173 56.5q-137 0 -214 -116.5t-77 -315.5z" />
    <glyph glyph-name="Emacron" unicode="&#x112;" horiz-adv-x="1212" 
d="M119 0v8q57 35 73.5 91.5t16.5 174.5v1002q0 123 -16.5 177.5t-73.5 90.5v6h1001v-184q-180 45 -288 64.5t-195 19.5h-199v-590h123q119 0 455 12v-122q-252 12 -455 12h-123v-660h236q180 3 485 95v-197h-1040zM291 1778v90h702v-90h-702z" />
    <glyph glyph-name="emacron" unicode="&#x113;" horiz-adv-x="1157" 
d="M586 -35q-226 0 -367 143t-141 390q0 161 68.5 284.5t184.5 188.5t261 65q218 0 351 -130t136 -341h-798v-35q0 -194 89 -314t259 -120q139 0 224 79t118 210h112q-38 -187 -164.5 -303.5t-332.5 -116.5zM254 1249v92h653v-92h-653zM291 653h586q-13 129 -87 209t-198 80
q-119 0 -197.5 -77t-103.5 -212z" />
    <glyph glyph-name="Edotaccent" unicode="&#x116;" horiz-adv-x="1212" 
d="M119 0v8q57 35 73.5 91.5t16.5 174.5v1002q0 123 -16.5 177.5t-73.5 90.5v6h1001v-184q-180 45 -288 64.5t-195 19.5h-199v-590h123q119 0 455 12v-122q-252 12 -455 12h-123v-660h236q180 3 485 95v-197h-1040zM551 1724v218h176v-218h-176z" />
    <glyph glyph-name="edotaccent" unicode="&#x117;" horiz-adv-x="1157" 
d="M586 -35q-226 0 -367 143t-141 390q0 161 68.5 284.5t184.5 188.5t261 65q218 0 351 -130t136 -341h-798v-35q0 -194 89 -314t259 -120q139 0 224 79t118 210h112q-38 -187 -164.5 -303.5t-332.5 -116.5zM291 653h586q-13 129 -87 209t-198 80q-119 0 -197.5 -77
t-103.5 -212zM485 1253v215h195v-215h-195z" />
    <glyph glyph-name="Eogonek" unicode="&#x118;" horiz-adv-x="1212" 
d="M119 0v8q57 35 73.5 91.5t16.5 174.5v1002q0 123 -16.5 177.5t-73.5 90.5v6h1001v-184q-180 45 -288 64.5t-195 19.5h-199v-590h123q119 0 455 12v-122q-252 12 -455 12h-123v-660h236q180 3 485 95v-197h-41q-172 -117 -172 -272q0 -57 31 -89t82 -32q78 0 129 80v-72
q-65 -98 -180 -98q-79 0 -134 47t-55 137q0 98 61.5 173t151.5 126h-913z" />
    <glyph glyph-name="eogonek" unicode="&#x119;" horiz-adv-x="1157" 
d="M586 -35q-226 0 -367 143t-141 390q0 161 68.5 284.5t184.5 188.5t261 65q218 0 351 -130t136 -341h-798v-35q0 -194 89 -314t259 -120q139 0 224 79t118 210h112q-26 -131 -97.5 -230.5t-184.5 -148.5q-148 -109 -148 -254q0 -57 31 -89t82 -32q78 0 129 80v-71
q-65 -99 -180 -99q-78 0 -133.5 47.5t-55.5 137.5q0 136 131 243q-46 -4 -71 -4zM291 653h586q-13 129 -87 209t-198 80q-119 0 -197.5 -77t-103.5 -212z" />
    <glyph glyph-name="Ecaron" unicode="&#x11a;" horiz-adv-x="1212" 
d="M119 0v8q57 35 73.5 91.5t16.5 174.5v1002q0 123 -16.5 177.5t-73.5 90.5v6h1001v-184q-180 45 -288 64.5t-195 19.5h-199v-590h123q119 0 455 12v-122q-252 12 -455 12h-123v-660h236q180 3 485 95v-197h-1040zM305 1980h113l223 -182l223 182h113l-285 -290h-104z" />
    <glyph glyph-name="ecaron" unicode="&#x11b;" horiz-adv-x="1157" 
d="M586 -35q-226 0 -367 143t-141 390q0 161 68.5 284.5t184.5 188.5t261 65q218 0 351 -130t136 -341h-798v-35q0 -194 89 -314t259 -120q139 0 224 79t118 210h112q-38 -187 -164.5 -303.5t-332.5 -116.5zM266 1542h103l213 -233l211 233h102l-262 -356h-105zM291 653h586
q-13 129 -87 209t-198 80q-119 0 -197.5 -77t-103.5 -212z" />
    <glyph glyph-name="Gcircumflex" unicode="&#x11c;" horiz-adv-x="1798" 
d="M840 -29q-175 0 -319.5 61.5t-239.5 168t-147 250.5t-52 309q0 245 106.5 431.5t295 286t429.5 99.5q280 0 478 -134.5t258 -369.5h-224q-47 188 -182 292.5t-334 104.5q-177 0 -312.5 -88t-206.5 -241.5t-71 -347.5q0 -142 37.5 -264t109 -213.5t183.5 -144t252 -52.5
q244 0 391.5 153t175.5 416h-710l-2 103h915v-803h-98l-76 444q-66 -212 -237 -336.5t-420 -124.5zM590 1688l272 290h107l272 -290h-113l-213 184l-213 -184h-112z" />
    <glyph glyph-name="gcircumflex" unicode="&#x11d;" horiz-adv-x="1253" 
d="M496 -518q-109 0 -190.5 20.5t-133 68t-51.5 118.5q0 143 231 215h-4q-122 0 -195 52t-73 144q0 77 58.5 140.5t162.5 109.5q-141 109 -141 293q0 179 131.5 284t329.5 105q212 0 340 -110q14 121 87.5 197t184.5 77v-176q-196 0 -221 -152q71 -96 71 -225
q0 -181 -129.5 -285t-330.5 -104q-147 0 -254 55q-133 -62 -133 -151q0 -48 37.5 -72t125.5 -23q84 1 296 36.5t296 35.5q119 0 185.5 -50.5t66.5 -147.5q0 -99 -66.5 -186t-173.5 -145t-240 -91t-267 -33zM274 -283q0 -137 242 -137q128 0 253.5 36.5t210.5 105t85 149.5
q0 53 -33.5 75.5t-111.5 22.5q-152 0 -394 -65q-129 -33 -190.5 -77t-61.5 -110zM322 1186l251 338h99l250 -338h-101l-198 217l-199 -217h-102zM367 643q0 -137 68 -217t186 -80q121 0 189.5 80t68.5 217t-69 216t-189 79q-118 0 -186 -79t-68 -216z" />
    <glyph glyph-name="Gbreve" unicode="&#x11e;" horiz-adv-x="1798" 
d="M840 -29q-175 0 -319.5 61.5t-239.5 168t-147 250.5t-52 309q0 245 106.5 431.5t295 286t429.5 99.5q280 0 478 -134.5t258 -369.5h-224q-47 188 -182 292.5t-334 104.5q-177 0 -312.5 -88t-206.5 -241.5t-71 -347.5q0 -142 37.5 -264t109 -213.5t183.5 -144t252 -52.5
q244 0 391.5 153t175.5 416h-710l-2 103h915v-803h-98l-76 444q-66 -212 -237 -336.5t-420 -124.5zM602 1978h94q0 -86 55 -135t164 -49t164.5 49t55.5 135h92q0 -146 -82.5 -223.5t-229.5 -77.5t-230 77.5t-83 223.5z" />
    <glyph glyph-name="gbreve" unicode="&#x11f;" horiz-adv-x="1253" 
d="M496 -518q-109 0 -190.5 20.5t-133 68t-51.5 118.5q0 143 231 215h-4q-122 0 -195 52t-73 144q0 77 58.5 140.5t162.5 109.5q-141 109 -141 293q0 179 131.5 284t329.5 105q212 0 340 -110q14 121 87.5 197t184.5 77v-176q-196 0 -221 -152q71 -96 71 -225
q0 -181 -129.5 -285t-330.5 -104q-147 0 -254 55q-133 -62 -133 -151q0 -48 37.5 -72t125.5 -23q84 1 296 36.5t296 35.5q119 0 185.5 -50.5t66.5 -147.5q0 -99 -66.5 -186t-173.5 -145t-240 -91t-267 -33zM274 -283q0 -137 242 -137q128 0 253.5 36.5t210.5 105t85 149.5
q0 53 -33.5 75.5t-111.5 22.5q-152 0 -394 -65q-129 -33 -190.5 -77t-61.5 -110zM336 1516h90q0 -107 49 -164.5t148 -57.5q194 0 194 222h90q0 -156 -76 -243t-208 -87q-133 0 -210 88t-77 242zM367 643q0 -137 68 -217t186 -80q121 0 189.5 80t68.5 217t-69 216t-189 79
q-118 0 -186 -79t-68 -216z" />
    <glyph glyph-name="Gdotaccent" unicode="&#x120;" horiz-adv-x="1798" 
d="M840 -29q-175 0 -319.5 61.5t-239.5 168t-147 250.5t-52 309q0 245 106.5 431.5t295 286t429.5 99.5q280 0 478 -134.5t258 -369.5h-224q-47 188 -182 292.5t-334 104.5q-177 0 -312.5 -88t-206.5 -241.5t-71 -347.5q0 -142 37.5 -264t109 -213.5t183.5 -144t252 -52.5
q244 0 391.5 153t175.5 416h-710l-2 103h915v-803h-98l-76 444q-66 -212 -237 -336.5t-420 -124.5zM825 1722v217h176v-217h-176z" />
    <glyph glyph-name="gdotaccent" unicode="&#x121;" horiz-adv-x="1253" 
d="M496 -518q-109 0 -190.5 20.5t-133 68t-51.5 118.5q0 143 231 215h-4q-122 0 -195 52t-73 144q0 77 58.5 140.5t162.5 109.5q-141 109 -141 293q0 179 131.5 284t329.5 105q212 0 340 -110q14 121 87.5 197t184.5 77v-176q-196 0 -221 -152q71 -96 71 -225
q0 -181 -129.5 -285t-330.5 -104q-147 0 -254 55q-133 -62 -133 -151q0 -48 37.5 -72t125.5 -23q84 1 296 36.5t296 35.5q119 0 185.5 -50.5t66.5 -147.5q0 -99 -66.5 -186t-173.5 -145t-240 -91t-267 -33zM274 -283q0 -137 242 -137q128 0 253.5 36.5t210.5 105t85 149.5
q0 53 -33.5 75.5t-111.5 22.5q-152 0 -394 -65q-129 -33 -190.5 -77t-61.5 -110zM367 643q0 -137 68 -217t186 -80q121 0 189.5 80t68.5 217t-69 216t-189 79q-118 0 -186 -79t-68 -216zM524 1253v215h195v-215h-195z" />
    <glyph glyph-name="uni0122" unicode="&#x122;" horiz-adv-x="1798" 
d="M840 -29q-175 0 -319.5 61.5t-239.5 168t-147 250.5t-52 309q0 245 106.5 431.5t295 286t429.5 99.5q280 0 478 -134.5t258 -369.5h-224q-47 188 -182 292.5t-334 104.5q-177 0 -312.5 -88t-206.5 -241.5t-71 -347.5q0 -142 37.5 -264t109 -213.5t183.5 -144t252 -52.5
q244 0 391.5 153t175.5 416h-710l-2 103h915v-803h-98l-76 444q-66 -212 -237 -336.5t-420 -124.5zM635 -481l127 356h178l-256 -379z" />
    <glyph glyph-name="uni0123" unicode="&#x123;" horiz-adv-x="1253" 
d="M496 -518q-109 0 -190.5 20.5t-133 68t-51.5 118.5q0 143 231 215h-4q-122 0 -195 52t-73 144q0 77 58.5 140.5t162.5 109.5q-141 109 -141 293q0 179 131.5 284t329.5 105q212 0 340 -110q14 121 87.5 197t184.5 77v-176q-196 0 -221 -152q71 -96 71 -225
q0 -181 -129.5 -285t-330.5 -104q-147 0 -254 55q-133 -62 -133 -151q0 -48 37.5 -72t125.5 -23q84 1 296 36.5t296 35.5q119 0 185.5 -50.5t66.5 -147.5q0 -99 -66.5 -186t-173.5 -145t-240 -91t-267 -33zM274 -283q0 -137 242 -137q128 0 253.5 36.5t210.5 105t85 149.5
q0 53 -33.5 75.5t-111.5 22.5q-152 0 -394 -65q-129 -33 -190.5 -77t-61.5 -110zM367 643q0 -137 68 -217t186 -80q121 0 189.5 80t68.5 217t-69 216t-189 79q-118 0 -186 -79t-68 -216zM545 1190l207 371h57l-94 -371h-170z" />
    <glyph glyph-name="Hcircumflex" unicode="&#x124;" horiz-adv-x="1619" 
d="M119 0v8q57 35 73.5 91.5t16.5 174.5v1002q0 123 -16.5 177.5t-73.5 90.5v6h409v-6q-57 -36 -73.5 -90.5t-16.5 -177.5v-418h746v418q0 123 -16.5 177.5t-73.5 90.5v6h407v-6q-56 -37 -73 -91.5t-17 -176.5v-1002q0 -117 17.5 -174t72.5 -92v-8h-407v8q57 35 73.5 91.5
t16.5 174.5v480h-746v-480q0 -118 16.5 -174.5t73.5 -91.5v-8h-409zM485 1690l273 290h106l273 -290h-113l-213 184l-213 -184h-113z" />
    <glyph glyph-name="hcircumflex" unicode="&#x125;" horiz-adv-x="1232" 
d="M80 0v8q54 35 70 91.5t16 174.5v1051q0 96 -16 149t-60 87v8l285 35l14 -9q-14 -85 -14 -270v-545q51 114 150 185t239 71q317 0 317 -374v-388q0 -117 15 -174t65 -92v-8h-364v8q47 35 61 91.5t14 174.5v371q0 138 -50.5 202t-153.5 64q-113 0 -190.5 -76.5
t-102.5 -191.5v-369q0 -118 15.5 -174.5t66.5 -91.5v-8h-377zM125 1737l272 291h107l272 -291h-112l-213 184l-213 -184h-113z" />
    <glyph glyph-name="Hbar" unicode="&#x126;" horiz-adv-x="1619" 
d="M-2 1196v90h211q0 115 -17 169t-73 89v6h409v-6q-56 -35 -73 -89t-17 -169l746 2q0 115 -17 168t-73 88v6h407v-6q-55 -35 -72.5 -88.5t-17.5 -167.5h213v-92h-213v-922q0 -117 17.5 -174t72.5 -92v-8h-407v8q57 35 73.5 91.5t16.5 174.5v480h-746v-480
q0 -118 16.5 -174.5t73.5 -91.5v-8h-409v8q57 35 73.5 91.5t16.5 174.5v922h-211zM438 858h746v338h-746v-338z" />
    <glyph glyph-name="hbar" unicode="&#x127;" horiz-adv-x="1232" 
d="M80 0v8q54 35 70 91.5t16 174.5v947h-229v73h229v31q0 96 -16 149t-60 87v8l285 35l14 -9q-14 -85 -14 -270v-31h420v-73h-420v-441q51 114 150 185t239 71q317 0 317 -374v-388q0 -117 15 -174t65 -92v-8h-364v8q47 35 61 91.5t14 174.5v371q0 138 -50.5 202t-153.5 64
q-113 0 -190.5 -76.5t-102.5 -191.5v-369q0 -118 15.5 -174.5t66.5 -91.5v-8h-377z" />
    <glyph glyph-name="Itilde" unicode="&#x128;" horiz-adv-x="647" 
d="M119 0v8q57 35 73.5 91.5t16.5 174.5v1002q0 123 -16.5 177.5t-73.5 90.5v6h409v-6q-57 -36 -73.5 -90.5t-16.5 -177.5v-1002q0 -118 16.5 -174.5t73.5 -91.5v-8h-409zM4 1696q0 140 47 211t135 71q45 0 80.5 -18t58 -43.5t43.5 -51t48 -43.5t61 -18q51 0 70.5 37.5
t21.5 124.5h74q-1 -150 -46.5 -217.5t-131.5 -67.5q-46 0 -82.5 18t-59.5 44.5t-44.5 52.5t-48.5 44t-60 18q-51 0 -70.5 -40.5t-21.5 -121.5h-74z" />
    <glyph glyph-name="itilde" unicode="&#x129;" horiz-adv-x="518" 
d="M72 0v8q52 35 68 92t16 174v457q0 122 -15 176.5t-67 89.5v9l137 2l154 6v-740q0 -118 15 -174.5t66 -91.5v-8h-374zM-61 1196q-4 160 43 243t133 83q46 0 82 -21.5t59 -52t44.5 -60.5t50.5 -51.5t65 -21.5q97 0 88 196h65q8 -327 -170 -327q-40 0 -73 15t-53.5 37
t-41.5 48t-38 48t-42 37t-55 15q-52 0 -74.5 -51t-17.5 -137h-65z" />
    <glyph glyph-name="Imacron" unicode="&#x12a;" horiz-adv-x="647" 
d="M119 0v8q57 35 73.5 91.5t16.5 174.5v1002q0 123 -16.5 177.5t-73.5 90.5v6h409v-6q-57 -36 -73.5 -90.5t-16.5 -177.5v-1002q0 -118 16.5 -174.5t73.5 -91.5v-8h-409zM-27 1769v91h703v-91h-703z" />
    <glyph glyph-name="imacron" unicode="&#x12b;" horiz-adv-x="518" 
d="M72 0v8q52 35 68 92t16 174v457q0 122 -15 176.5t-67 89.5v9l137 2l154 6v-740q0 -118 15 -174.5t66 -91.5v-8h-374zM-70 1249v92h654v-92h-654z" />
    <glyph glyph-name="Iogonek" unicode="&#x12e;" horiz-adv-x="647" 
d="M119 0v8q57 35 73.5 91.5t16.5 174.5v1002q0 123 -16.5 177.5t-73.5 90.5v6h409v-6q-57 -36 -73.5 -90.5t-16.5 -177.5v-1002q0 -118 16.5 -174.5t73.5 -91.5v-8h-100q-172 -117 -172 -272q0 -57 31 -89t82 -32q78 0 129 80v-72q-65 -98 -181 -98q-78 0 -133 47t-55 137
q0 98 61.5 173t151.5 126h-223z" />
    <glyph glyph-name="iogonek" unicode="&#x12f;" horiz-adv-x="518" 
d="M72 0v8q52 35 68 92t16 174v457q0 122 -15 176.5t-67 89.5v9l137 2l154 6v-740q0 -118 15 -174.5t66 -91.5v-8h-65q-172 -117 -172 -272q0 -57 31 -89t82 -32q78 0 129 80v-72q-65 -98 -181 -98q-78 0 -133 47t-55 137q0 98 61.5 173t151.5 126h-223zM150 1253v232h217
v-232h-217z" />
    <glyph glyph-name="Idotaccent" unicode="&#x130;" horiz-adv-x="647" 
d="M119 0v8q57 35 73.5 91.5t16.5 174.5v1002q0 123 -16.5 177.5t-73.5 90.5v6h409v-6q-57 -36 -73.5 -90.5t-16.5 -177.5v-1002q0 -118 16.5 -174.5t73.5 -91.5v-8h-409zM207 1716v217h235v-217h-235z" />
    <glyph glyph-name="dotlessi" unicode="&#x131;" horiz-adv-x="518" 
d="M72 0v8q52 35 68 92t16 174v457q0 122 -15 176.5t-67 89.5v9l137 2l154 6v-740q0 -118 15 -174.5t66 -91.5v-8h-374z" />
    <glyph glyph-name="IJ" unicode="&#x132;" horiz-adv-x="1318" 
d="M119 0v8q57 35 73.5 91.5t16.5 174.5v1002q0 123 -16.5 177.5t-73.5 90.5v6h409v-6q-57 -36 -73.5 -90.5t-16.5 -177.5v-1002q0 -118 16.5 -174.5t73.5 -91.5v-8h-409zM662 -299v98q132 26 180.5 117t48.5 303v1057q0 123 -16.5 177.5t-73.5 90.5v6h405v-6
q-56 -36 -72 -90.5t-16 -177.5v-1053q0 -250 -114 -376.5t-342 -145.5z" />
    <glyph glyph-name="ij" unicode="&#x133;" horiz-adv-x="1034" 
d="M72 0v8q52 35 68 92t16 174v457q0 122 -15 176.5t-67 89.5v9l137 2l154 6v-740q0 -118 15 -174.5t66 -91.5v-8h-374zM150 1253v232h217v-232h-217zM473 -500v80q117 12 162 81.5t45 219.5v850q0 122 -15 176.5t-67 89.5v9l137 2l154 6v-1094q0 -195 -104 -305.5
t-312 -114.5zM664 1253v232h217v-232h-217z" />
    <glyph glyph-name="Jcircumflex" unicode="&#x134;" horiz-adv-x="673" 
d="M14 -201q132 26 181 117t49 303v1057q0 123 -16.5 177.5t-73.5 90.5v6h405v-6q-56 -36 -72 -90.5t-16 -177.5v-1053q0 -250 -114.5 -376.5t-342.5 -145.5v98zM27 1690l272 290h107l272 -290h-113l-213 184l-213 -184h-112z" />
    <glyph glyph-name="jcircumflex" unicode="&#x135;" horiz-adv-x="526" 
d="M-35 -420q117 12 162 81.5t45 219.5v850q0 122 -15 176.5t-67 89.5v9l137 2l154 6v-1094q0 -195 -104 -305.5t-312 -114.5v80zM-37 1186l252 338h98l250 -338h-100l-199 217l-198 -217h-103z" />
    <glyph glyph-name="uni0136" unicode="&#x136;" horiz-adv-x="1406" 
d="M119 0v8q57 35 73.5 91.5t16.5 174.5v1002q0 123 -16.5 177.5t-73.5 90.5v6h409v-6q-57 -36 -73.5 -90.5t-16.5 -177.5v-488l545 570q77 81 154 192h258v-18q-68 -23 -116.5 -53t-98.5 -80l-478 -484l719 -901v-14h-266l-584 780l-133 -135v-371q0 -118 16.5 -174.5
t73.5 -91.5v-8h-409zM567 -479l127 356h178l-256 -379z" />
    <glyph glyph-name="uni0137" unicode="&#x137;" horiz-adv-x="1093" 
d="M846 0l-471 530v-256q0 -118 16 -174.5t68 -91.5v-8h-379v8q54 35 70 91.5t16 174.5v1051q0 100 -14 151t-56 85v8l279 35l14 -7q-14 -85 -14 -272v-725l301 250q50 41 73.5 82.5t16.5 64.5v4h274v-14q-102 -42 -209 -129l-307 -254l563 -590v-14h-241zM389 -479l127 356
h178l-256 -379z" />
    <glyph glyph-name="Lacute" unicode="&#x139;" horiz-adv-x="1187" 
d="M119 0v8q57 35 73.5 91.5t16.5 174.5v1002q0 123 -16.5 177.5t-73.5 90.5v6h407v-6q-56 -36 -72 -90.5t-16 -177.5v-1170h211q179 0 504 95v-201h-1034zM264 1690l191 290h204l-307 -290h-88z" />
    <glyph glyph-name="lacute" unicode="&#x13a;" horiz-adv-x="538" 
d="M80 0v8q54 35 70 91.5t16 174.5v1051q0 96 -16 149t-60 87v8l285 35l14 -9q-14 -85 -14 -270v-1051q0 -118 15.5 -174.5t66.5 -91.5v-8h-377zM225 1737l191 291h205l-308 -291h-88z" />
    <glyph glyph-name="uni013B" unicode="&#x13b;" horiz-adv-x="1187" 
d="M119 0v8q57 35 73.5 91.5t16.5 174.5v1002q0 123 -16.5 177.5t-73.5 90.5v6h407v-6q-56 -36 -72 -90.5t-16 -177.5v-1170h211q179 0 504 95v-201h-1034zM434 -479l127 356h178l-256 -379z" />
    <glyph glyph-name="uni013C" unicode="&#x13c;" horiz-adv-x="538" 
d="M80 0v8q54 35 70 91.5t16 174.5v1051q0 96 -16 149t-60 87v8l285 35l14 -9q-14 -85 -14 -270v-1051q0 -118 15.5 -174.5t66.5 -91.5v-8h-377zM51 -479l127 356h178l-256 -379z" />
    <glyph glyph-name="Lcaron" unicode="&#x13d;" horiz-adv-x="1187" 
d="M119 0v8q57 35 73.5 91.5t16.5 174.5v1002q0 123 -16.5 177.5t-73.5 90.5v6h407v-6q-56 -36 -72 -90.5t-16 -177.5v-1170h211q179 0 504 95v-201h-1034zM702 1069l80 481h166l-178 -481h-68z" />
    <glyph glyph-name="lcaron" unicode="&#x13e;" horiz-adv-x="538" 
d="M80 0v8q54 35 70 91.5t16 174.5v1051q0 96 -16 149t-60 87v8l285 35l14 -9q-14 -85 -14 -270v-1051q0 -118 15.5 -174.5t66.5 -91.5v-8h-377zM500 1116l80 481h165l-178 -481h-67z" />
    <glyph glyph-name="Ldot" unicode="&#x13f;" horiz-adv-x="1187" 
d="M119 0v8q57 35 73.5 91.5t16.5 174.5v1002q0 123 -16.5 177.5t-73.5 90.5v6h407v-6q-56 -36 -72 -90.5t-16 -177.5v-1170h211q179 0 504 95v-201h-1034zM797 680v217h176v-217h-176z" />
    <glyph glyph-name="ldot" unicode="&#x140;" horiz-adv-x="735" 
d="M80 0v8q54 35 70 91.5t16 174.5v1051q0 96 -16 149t-60 87v8l285 35l14 -9q-14 -85 -14 -270v-1051q0 -118 15.5 -174.5t66.5 -91.5v-8h-377zM535 707v241h206v-241h-206z" />
    <glyph glyph-name="Lslash" unicode="&#x141;" horiz-adv-x="1187" 
d="M119 0v8q57 35 73.5 91.5t16.5 174.5v359l-250 -137v94l250 137v549q0 123 -16.5 177.5t-73.5 90.5v6h407v-6q-56 -36 -72 -90.5t-16 -177.5v-422l402 221v-94l-402 -221v-654h211q179 0 504 95v-201h-1034z" />
    <glyph glyph-name="lslash" unicode="&#x142;" horiz-adv-x="538" 
d="M80 0v8q54 35 70 91.5t16 174.5v449l-178 -96v82l178 94v522q0 96 -16 149t-60 87v8l285 35l14 -9q-14 -85 -14 -270v-410l188 101v-80l-188 -100v-562q0 -118 15.5 -174.5t66.5 -91.5v-8h-377z" />
    <glyph glyph-name="Nacute" unicode="&#x143;" horiz-adv-x="1548" 
d="M1143 0l-809 1282v-997q0 -124 17.5 -182.5t78.5 -94.5v-8h-311v8q51 36 66.5 95t15.5 182v991q0 120 -11.5 175.5t-48.5 92.5v6h265l811 -1282v998q0 122 -18 181t-77 95v8h310v-8q-51 -36 -66.5 -94.5t-15.5 -181.5v-1266h-207zM737 1690l191 290h205l-308 -290h-88z
" />
    <glyph glyph-name="nacute" unicode="&#x144;" horiz-adv-x="1234" 
d="M86 0v8q51 35 66.5 91.5t15.5 174.5v453q0 122 -15 176.5t-67 91.5v6h322q-17 -34 -23 -82t-8 -139q51 114 150 185t239 71q317 0 317 -374v-388q0 -117 15 -174t65 -92v-8h-364v8q47 35 61 91.5t14 174.5v371q0 138 -50.5 202t-153.5 64q-113 0 -190.5 -76.5
t-102.5 -191.5v-369q0 -117 15 -174t65 -92v-8h-371zM596 1186l199 362h184l-320 -362h-63z" />
    <glyph glyph-name="uni0145" unicode="&#x145;" horiz-adv-x="1548" 
d="M1143 0l-809 1282v-997q0 -124 17.5 -182.5t78.5 -94.5v-8h-311v8q51 36 66.5 95t15.5 182v991q0 120 -11.5 175.5t-48.5 92.5v6h265l811 -1282v998q0 122 -18 181t-77 95v8h310v-8q-51 -36 -66.5 -94.5t-15.5 -181.5v-1266h-207zM549 -479l127 356h178l-256 -379z" />
    <glyph glyph-name="uni0146" unicode="&#x146;" horiz-adv-x="1234" 
d="M86 0v8q51 35 66.5 91.5t15.5 174.5v453q0 122 -15 176.5t-67 91.5v6h322q-17 -34 -23 -82t-8 -139q51 114 150 185t239 71q317 0 317 -374v-388q0 -117 15 -174t65 -92v-8h-364v8q47 35 61 91.5t14 174.5v371q0 138 -50.5 202t-153.5 64q-113 0 -190.5 -76.5
t-102.5 -191.5v-369q0 -117 15 -174t65 -92v-8h-371zM406 -479l126 356h179l-256 -379z" />
    <glyph glyph-name="Ncaron" unicode="&#x147;" horiz-adv-x="1548" 
d="M1143 0l-809 1282v-997q0 -124 17.5 -182.5t78.5 -94.5v-8h-311v8q51 36 66.5 95t15.5 182v991q0 120 -11.5 175.5t-48.5 92.5v6h265l811 -1282v998q0 122 -18 181t-77 95v8h310v-8q-51 -36 -66.5 -94.5t-15.5 -181.5v-1266h-207zM449 1980h112l223 -182l224 182h112
l-284 -290h-105z" />
    <glyph glyph-name="ncaron" unicode="&#x148;" horiz-adv-x="1234" 
d="M86 0v8q51 35 66.5 91.5t15.5 174.5v453q0 122 -15 176.5t-67 91.5v6h322q-17 -34 -23 -82t-8 -139q51 114 150 185t239 71q317 0 317 -374v-388q0 -117 15 -174t65 -92v-8h-364v8q47 35 61 91.5t14 174.5v371q0 138 -50.5 202t-153.5 64q-113 0 -190.5 -76.5
t-102.5 -191.5v-369q0 -117 15 -174t65 -92v-8h-371zM317 1542h103l213 -233l211 233h102l-262 -356h-104z" />
    <glyph glyph-name="Eng" unicode="&#x14a;" horiz-adv-x="1540" 
d="M1145 0l-823 1282v-997q0 -123 18.5 -182t79.5 -95v-8h-301v8q51 36 66.5 95t15.5 182v991q0 120 -11.5 175.5t-48.5 92.5v6h254l824 -1284v1000q0 122 -18 181t-77 95v8h299v-8q-51 -36 -66.5 -94.5t-15.5 -181.5v-1225q0 -229 -104 -339t-313 -128v90q153 20 226 101
t73 235h-78z" />
    <glyph glyph-name="eng" unicode="&#x14b;" horiz-adv-x="1222" 
d="M694 -377q102 51 140 123t38 211v688q0 138 -51 202t-155 64q-111 0 -184.5 -73.5t-104.5 -192.5v-371q0 -119 14.5 -175t65.5 -91v-8h-373v8q51 35 67.5 92.5t16.5 173.5v453q0 121 -16 176t-68 92v6h324q-18 -36 -24.5 -86t-6.5 -147q49 118 149 193t238 75
q317 0 317 -374v-705q0 -84 -26.5 -150t-78 -113t-112 -79.5t-143.5 -60.5z" />
    <glyph glyph-name="Omacron" unicode="&#x14c;" horiz-adv-x="1822" 
d="M913 -33q-244 0 -433.5 101t-293.5 284t-104 420t104 419.5t293.5 283t433.5 100.5q242 0 430.5 -100.5t293 -284t104.5 -420.5q0 -177 -61 -327t-169.5 -254.5t-262.5 -163t-335 -58.5zM324 770q0 -310 159.5 -503t429.5 -193q178 0 312 89t205 247t71 362
q0 203 -71 360t-205 245.5t-312 88.5q-179 0 -313.5 -88.5t-205 -245.5t-70.5 -362zM563 1778v90h703v-90h-703z" />
    <glyph glyph-name="omacron" unicode="&#x14d;" horiz-adv-x="1216" 
d="M608 -35q-240 0 -385 148t-145 389q0 242 144.5 388t385.5 146q242 0 386.5 -146t144.5 -388q0 -241 -145 -389t-386 -148zM281 1249v92h653v-92h-653zM289 502q0 -208 84.5 -324.5t236.5 -116.5q149 0 233.5 117t84.5 324q0 208 -84 323t-234 115q-153 0 -237 -114.5
t-84 -323.5z" />
    <glyph glyph-name="Ohungarumlaut" unicode="&#x150;" horiz-adv-x="1822" 
d="M913 -33q-244 0 -433.5 101t-293.5 284t-104 420t104 419.5t293.5 283t433.5 100.5q242 0 430.5 -100.5t293 -284t104.5 -420.5q0 -177 -61 -327t-169.5 -254.5t-262.5 -163t-335 -58.5zM324 770q0 -310 159.5 -503t429.5 -193q178 0 312 89t205 247t71 362
q0 203 -71 360t-205 245.5t-312 88.5q-179 0 -313.5 -88.5t-205 -245.5t-70.5 -362zM739 1690l176 290h164l-268 -290h-72zM1016 1690l201 290h165l-292 -290h-74z" />
    <glyph glyph-name="ohungarumlaut" unicode="&#x151;" horiz-adv-x="1216" 
d="M608 -35q-240 0 -385 148t-145 389q0 242 144.5 388t385.5 146q242 0 386.5 -146t144.5 -388q0 -241 -145 -389t-386 -148zM289 502q0 -208 84.5 -324.5t236.5 -116.5q149 0 233.5 117t84.5 324q0 208 -84 323t-234 115q-153 0 -237 -114.5t-84 -323.5zM428 1186l172 362
h166l-266 -362h-72zM715 1186l182 362h168l-277 -362h-73z" />
    <glyph glyph-name="OE" unicode="&#x152;" horiz-adv-x="2177" 
d="M969 0q-262 0 -462.5 94t-312.5 270.5t-112 411.5q0 237 112 413t312.5 268.5t462.5 92.5h1116v-176q-275 76 -483 76h-199v-592h147q268 0 432 6v-108q-164 6 -432 6h-147v-662h219q134 0 248 15.5t254 66.5v-182h-1155zM324 776q0 -314 177.5 -494t485.5 -182h189v1350
h-189q-310 0 -486.5 -179t-176.5 -495z" />
    <glyph glyph-name="oe" unicode="&#x153;" horiz-adv-x="1947" 
d="M582 -35q-228 0 -366 148.5t-138 388.5q0 242 137.5 388t366.5 146q141 0 249.5 -57.5t172.5 -161.5q66 105 171 162t232 57q208 0 334 -130t129 -341h-758v-35q0 -193 84.5 -313.5t245.5 -120.5q131 0 212.5 79t112.5 210h107q-36 -186 -156.5 -303t-316.5 -117
q-131 0 -235 55t-167 158q-66 -101 -173 -157t-244 -56zM279 502q0 -208 80.5 -324.5t224.5 -116.5q141 0 221 117t80 324q0 208 -79.5 323t-221.5 115q-145 0 -225 -114.5t-80 -323.5zM1122 653h557q-14 129 -84 209t-188 80q-113 0 -187 -77t-98 -212z" />
    <glyph glyph-name="Racute" unicode="&#x154;" horiz-adv-x="1376" 
d="M1106 0l-504 752h-164v-478q0 -118 17 -174.5t75 -91.5v-8h-411v8q57 35 73.5 91.5t16.5 174.5v1002q0 123 -16.5 177.5t-73.5 90.5v6h555q275 0 429 -92.5t154 -288.5q0 -177 -122 -278t-330 -121l567 -756v-14h-266zM438 852h166q426 0 426 313q0 285 -395 285h-197
v-598zM641 1690l190 290h205l-307 -290h-88z" />
    <glyph glyph-name="racute" unicode="&#x155;" horiz-adv-x="821" 
d="M84 0v8q51 35 67.5 92.5t16.5 173.5v453q0 121 -16 176t-68 92v6h322q-18 -38 -23.5 -95t-5.5 -179v-35q13 56 45 110.5t82 103t125 78t162 30.5v-178q-210 7 -312 -81t-102 -239v-250q0 -116 16.5 -170.5t73.5 -89.5v-6h-383zM418 1186l198 362h185l-320 -362h-63z" />
    <glyph glyph-name="uni0156" unicode="&#x156;" horiz-adv-x="1376" 
d="M1106 0l-504 752h-164v-478q0 -118 17 -174.5t75 -91.5v-8h-411v8q57 35 73.5 91.5t16.5 174.5v1002q0 123 -16.5 177.5t-73.5 90.5v6h555q275 0 429 -92.5t154 -288.5q0 -177 -122 -278t-330 -121l567 -756v-14h-266zM438 852h166q426 0 426 313q0 285 -395 285h-197
v-598zM571 -479l127 356h179l-256 -379z" />
    <glyph glyph-name="uni0157" unicode="&#x157;" horiz-adv-x="821" 
d="M84 0v8q51 35 67.5 92.5t16.5 173.5v453q0 121 -16 176t-68 92v6h322q-18 -38 -23.5 -95t-5.5 -179v-35q13 56 45 110.5t82 103t125 78t162 30.5v-178q-210 7 -312 -81t-102 -239v-250q0 -116 16.5 -170.5t73.5 -89.5v-6h-383zM57 -479l127 356h178l-256 -379z" />
    <glyph glyph-name="Rcaron" unicode="&#x158;" horiz-adv-x="1376" 
d="M1106 0l-504 752h-164v-478q0 -118 17 -174.5t75 -91.5v-8h-411v8q57 35 73.5 91.5t16.5 174.5v1002q0 123 -16.5 177.5t-73.5 90.5v6h555q275 0 429 -92.5t154 -288.5q0 -177 -122 -278t-330 -121l567 -756v-14h-266zM352 1980h113l223 -182l223 182h113l-285 -290h-104
zM438 852h166q426 0 426 313q0 285 -395 285h-197v-598z" />
    <glyph glyph-name="rcaron" unicode="&#x159;" horiz-adv-x="821" 
d="M84 0v8q51 35 67.5 92.5t16.5 173.5v453q0 121 -16 176t-68 92v6h322q-18 -38 -23.5 -95t-5.5 -179v-35q13 56 45 110.5t82 103t125 78t162 30.5v-178q-210 7 -312 -81t-102 -239v-250q0 -116 16.5 -170.5t73.5 -89.5v-6h-383zM139 1542h103l213 -233l211 233h102
l-262 -356h-105z" />
    <glyph glyph-name="Sacute" unicode="&#x15a;" horiz-adv-x="1249" 
d="M659 -33q-254 0 -418 139.5t-190 391.5h213q22 -194 121 -311t277 -117q138 0 220 69t83 191q0 36 -9 68t-22 57.5t-43 54t-55.5 49t-77 51.5t-90 52.5t-111.5 60.5q-71 38 -120 66.5t-103 65t-88.5 71t-64 76.5t-43 89.5t-13.5 102.5q0 177 133 279t346 102
q225 0 373.5 -117.5t183.5 -331.5h-211q-20 160 -107.5 254.5t-238.5 94.5q-130 1 -202 -60.5t-74 -165.5q0 -34 9 -65t22.5 -55.5t42 -51.5t53.5 -46.5t72.5 -48t83 -48t100.5 -53.5q68 -36 111.5 -60.5t97.5 -58.5t86.5 -62t67 -65t53 -74t30.5 -83t12 -97
q0 -192 -141 -303t-369 -111zM557 1686l191 290h204l-307 -290h-88z" />
    <glyph glyph-name="sacute" unicode="&#x15b;" horiz-adv-x="1015" 
d="M543 -35q-200 0 -329 100t-151 271h193q12 -130 86.5 -204.5t202.5 -74.5q95 0 153 40t58 112q0 31 -13 57t-36 46.5t-59 40.5t-78.5 38.5t-97.5 41.5q-9 3 -13 5q-51 20 -80 32.5t-71 33t-66 37t-52 41t-42.5 50t-24.5 59t-10 71.5q0 130 105.5 203t277.5 73
q182 0 296 -84t140 -233h-191q-14 105 -77 165t-172 60q-90 0 -142.5 -37.5t-52.5 -101.5q0 -70 63.5 -114.5t221.5 -104.5q91 -35 149 -63t111 -67.5t77.5 -89t24.5 -112.5q0 -139 -113 -215t-288 -76zM465 1186l199 362h184l-320 -362h-63z" />
    <glyph glyph-name="Scircumflex" unicode="&#x15c;" horiz-adv-x="1249" 
d="M659 -33q-254 0 -418 139.5t-190 391.5h213q22 -194 121 -311t277 -117q138 0 220 69t83 191q0 36 -9 68t-22 57.5t-43 54t-55.5 49t-77 51.5t-90 52.5t-111.5 60.5q-71 38 -120 66.5t-103 65t-88.5 71t-64 76.5t-43 89.5t-13.5 102.5q0 177 133 279t346 102
q225 0 373.5 -117.5t183.5 -331.5h-211q-20 160 -107.5 254.5t-238.5 94.5q-130 1 -202 -60.5t-74 -165.5q0 -34 9 -65t22.5 -55.5t42 -51.5t53.5 -46.5t72.5 -48t83 -48t100.5 -53.5q68 -36 111.5 -60.5t97.5 -58.5t86.5 -62t67 -65t53 -74t30.5 -83t12 -97
q0 -192 -141 -303t-369 -111zM279 1686l272 290h106l273 -290h-113l-213 184l-213 -184h-112z" />
    <glyph glyph-name="scircumflex" unicode="&#x15d;" horiz-adv-x="1015" 
d="M543 -35q-200 0 -329 100t-151 271h193q12 -130 86.5 -204.5t202.5 -74.5q95 0 153 40t58 112q0 31 -13 57t-36 46.5t-59 40.5t-78.5 38.5t-97.5 41.5q-9 3 -13 5q-51 20 -80 32.5t-71 33t-66 37t-52 41t-42.5 50t-24.5 59t-10 71.5q0 130 105.5 203t277.5 73
q182 0 296 -84t140 -233h-191q-14 105 -77 165t-172 60q-90 0 -142.5 -37.5t-52.5 -101.5q0 -70 63.5 -114.5t221.5 -104.5q91 -35 149 -63t111 -67.5t77.5 -89t24.5 -112.5q0 -139 -113 -215t-288 -76zM201 1186l252 338h98l250 -338h-101l-198 217l-199 -217h-102z" />
    <glyph glyph-name="Scedilla" unicode="&#x15e;" horiz-adv-x="1249" 
d="M645 -506q-90 0 -162.5 33t-113.5 94l49 51q28 -46 79.5 -74t120.5 -28q65 0 104.5 24.5t39.5 75.5q0 50 -37 77.5t-102 27.5q-56 0 -95 -19l-39 41l132 170q-238 12 -392 151t-178 380h213q22 -194 121 -311t277 -117q138 0 220 69t83 191q0 36 -9 68t-22 57.5t-43 54
t-55.5 49t-77 51.5t-90 52.5t-111.5 60.5q-71 38 -120 66.5t-103 65t-88.5 71t-64 76.5t-43 89.5t-13.5 102.5q0 177 133 279t346 102q225 0 373.5 -117.5t183.5 -331.5h-211q-20 160 -107.5 254.5t-238.5 94.5q-130 1 -202 -60.5t-74 -165.5q0 -34 9 -65t22.5 -55.5
t42 -51.5t53.5 -46.5t72.5 -48t83 -48t100.5 -53.5q68 -36 111.5 -60.5t97.5 -58.5t86.5 -62t67 -65t53 -74t30.5 -83t12 -97q0 -182 -126 -291.5t-334 -120.5l-86 -110q36 4 57 4q97 0 157 -48t60 -130q0 -64 -39 -109t-94.5 -63.5t-118.5 -18.5z" />
    <glyph glyph-name="scedilla" unicode="&#x15f;" horiz-adv-x="1015" 
d="M512 -504q-90 0 -162.5 33t-113.5 94l49 51q28 -46 79.5 -74t120.5 -28q65 0 104.5 24.5t39.5 75.5q0 50 -37.5 77.5t-102.5 27.5q-55 0 -94 -19l-39 41l129 168q-178 15 -290 113t-132 256h193q12 -130 86.5 -204.5t202.5 -74.5q95 0 153 40t58 112q0 31 -13 57
t-36 46.5t-59 40.5t-78.5 38.5t-97.5 41.5q-9 3 -13 5q-51 20 -80 32.5t-71 33t-66 37t-52 41t-42.5 50t-24.5 59t-10 71.5q0 130 105.5 203t277.5 73q182 0 296 -84t140 -233h-191q-14 105 -77 165t-172 60q-90 0 -142.5 -37.5t-52.5 -101.5q0 -70 63.5 -114.5
t221.5 -104.5q91 -35 149 -63t111 -67.5t77.5 -89t24.5 -112.5q0 -133 -104.5 -209t-268.5 -82l-82 -104q36 4 58 4q97 0 157 -48t60 -130q0 -64 -39 -109t-94.5 -63.5t-118.5 -18.5z" />
    <glyph glyph-name="Scaron" unicode="&#x160;" horiz-adv-x="1249" 
d="M659 -33q-254 0 -418 139.5t-190 391.5h213q22 -194 121 -311t277 -117q138 0 220 69t83 191q0 36 -9 68t-22 57.5t-43 54t-55.5 49t-77 51.5t-90 52.5t-111.5 60.5q-71 38 -120 66.5t-103 65t-88.5 71t-64 76.5t-43 89.5t-13.5 102.5q0 177 133 279t346 102
q225 0 373.5 -117.5t183.5 -331.5h-211q-20 160 -107.5 254.5t-238.5 94.5q-130 1 -202 -60.5t-74 -165.5q0 -34 9 -65t22.5 -55.5t42 -51.5t53.5 -46.5t72.5 -48t83 -48t100.5 -53.5q68 -36 111.5 -60.5t97.5 -58.5t86.5 -62t67 -65t53 -74t30.5 -83t12 -97
q0 -192 -141 -303t-369 -111zM268 1976h113l223 -182l223 182h113l-285 -290h-104z" />
    <glyph glyph-name="scaron" unicode="&#x161;" horiz-adv-x="1015" 
d="M543 -35q-200 0 -329 100t-151 271h193q12 -130 86.5 -204.5t202.5 -74.5q95 0 153 40t58 112q0 31 -13 57t-36 46.5t-59 40.5t-78.5 38.5t-97.5 41.5q-9 3 -13 5q-51 20 -80 32.5t-71 33t-66 37t-52 41t-42.5 50t-24.5 59t-10 71.5q0 130 105.5 203t277.5 73
q182 0 296 -84t140 -233h-191q-14 105 -77 165t-172 60q-90 0 -142.5 -37.5t-52.5 -101.5q0 -70 63.5 -114.5t221.5 -104.5q91 -35 149 -63t111 -67.5t77.5 -89t24.5 -112.5q0 -139 -113 -215t-288 -76zM186 1542h103l213 -233l211 233h102l-262 -356h-104z" />
    <glyph glyph-name="uni0162" unicode="&#x162;" horiz-adv-x="1277" 
d="M35 1364v186h1210v-186q-137 35 -198 49.5t-139 27.5t-136 13h-18v-1180q0 -118 16.5 -174.5t71.5 -91.5v-8h-152l-102 -133q36 4 57 4q97 0 157 -48t60 -130q0 -64 -39 -109t-94.5 -63.5t-118.5 -18.5q-90 0 -162.5 33t-113.5 94l49 52q28 -46 80 -74.5t121 -28.5
q64 0 103.5 24.5t39.5 75.5q0 50 -37 77.5t-102 27.5q-55 0 -94 -19l-39 41l147 195h-166v8q55 35 72.5 92t17.5 174v1180h-16q-59 0 -136.5 -13t-141 -28t-197.5 -49z" />
    <glyph glyph-name="uni0163" unicode="&#x163;" horiz-adv-x="829" 
d="M8 905v96h211v277l201 149h6v-426h332v-96h-332v-577q0 -120 42 -167.5t120 -47.5q138 0 213 147l22 -76q-40 -89 -113.5 -141.5t-168.5 -58.5l-90 -117q36 4 57 4q97 0 157 -48t60 -130q0 -64 -39 -109t-94.5 -63.5t-118.5 -18.5q-90 0 -162.5 33t-113.5 94l49 52
q28 -47 79.5 -75t120.5 -28q65 0 104.5 24.5t39.5 75.5q0 50 -37 77.5t-102 27.5q-56 0 -95 -19l-39 41l138 181q-236 31 -236 338v581h-211z" />
    <glyph glyph-name="Tcaron" unicode="&#x164;" horiz-adv-x="1277" 
d="M35 1364v186h1210v-186q-137 35 -198 49.5t-139 27.5t-136 13h-18v-1180q0 -118 16.5 -174.5t71.5 -91.5v-8h-406v8q55 35 72.5 92t17.5 174v1180h-16q-59 0 -136.5 -13t-141 -28t-197.5 -49zM305 1980h113l223 -182l223 182h113l-285 -290h-104z" />
    <glyph glyph-name="tcaron" unicode="&#x165;" horiz-adv-x="833" 
d="M512 -18q-293 0 -293 342v581h-211v96h211v277l201 149h6v-426h332v-96h-332v-577q0 -120 42 -167.5t120 -47.5q138 0 213 147l22 -76q-43 -95 -125 -148.5t-186 -53.5zM575 1204l74 402h166l-172 -402h-68z" />
    <glyph glyph-name="Tbar" unicode="&#x166;" horiz-adv-x="1277" 
d="M35 1364v186h1210v-186q-137 35 -198 49.5t-139 27.5t-136 13h-18v-620h333v-93h-333v-467q0 -118 16.5 -174.5t71.5 -91.5v-8h-406v8q55 35 72.5 92t17.5 174v467h-333v93h333v620h-16q-59 0 -136.5 -13t-141 -28t-197.5 -49z" />
    <glyph glyph-name="tbar" unicode="&#x167;" horiz-adv-x="833" 
d="M12 596v76h211v233h-211v96h211v277l201 149h6v-426h332v-96h-332v-233h346v-76h-346v-268q0 -120 42 -167.5t120 -47.5q138 0 213 147l22 -76q-43 -95 -125 -148.5t-186 -53.5q-293 0 -293 342v272h-211z" />
    <glyph glyph-name="Utilde" unicode="&#x168;" horiz-adv-x="1533" 
d="M776 -33q-138 0 -242.5 34.5t-184.5 112t-121.5 211.5t-41.5 322v629q0 122 -17 176.5t-73 91.5v6h406v-6q-56 -36 -72 -90.5t-16 -177.5v-635q0 -290 94 -420.5t299 -130.5q206 0 306.5 130.5t100.5 420.5v635q0 123 -16.5 177.5t-73.5 90.5v6h314v-6q-56 -37 -73 -91.5
t-17 -176.5v-629q0 -356 -143.5 -518t-428.5 -162zM494 1704q0 140 47 211.5t135 71.5q45 0 80.5 -18t58 -43.5t43.5 -51.5t48 -44t61 -18q51 0 70.5 37.5t21.5 124.5h74q-1 -150 -46.5 -217t-132.5 -67q-46 0 -82.5 18t-59.5 44t-44.5 52t-48.5 44t-60 18
q-51 0 -70.5 -40.5t-21.5 -121.5h-73z" />
    <glyph glyph-name="utilde" unicode="&#x169;" horiz-adv-x="1234" 
d="M473 -31q-319 0 -319 375v383q0 119 -15.5 175.5t-66.5 92.5v6h364v-6q-45 -37 -59.5 -94t-14.5 -174v-365q0 -138 50 -202t153 -64q114 0 189.5 81.5t103.5 213.5v336q0 118 -15 175t-63 93v6h369v-6q-51 -36 -66.5 -92.5t-15.5 -175.5v-453q0 -122 15 -176.5t67 -89.5
v-8h-318q27 69 27 244q-48 -120 -147.5 -197.5t-237.5 -77.5zM299 1196q-4 160 43 243t133 83q46 0 82 -21.5t59 -52t44.5 -60.5t50.5 -51.5t65 -21.5q97 0 88 196h66q8 -327 -170 -327q-40 0 -73 15t-53.5 37t-41.5 48t-38 48t-42 37t-55 15q-52 0 -74.5 -51t-17.5 -137
h-66z" />
    <glyph glyph-name="Umacron" unicode="&#x16a;" horiz-adv-x="1533" 
d="M776 -33q-138 0 -242.5 34.5t-184.5 112t-121.5 211.5t-41.5 322v629q0 122 -17 176.5t-73 91.5v6h406v-6q-56 -36 -72 -90.5t-16 -177.5v-635q0 -290 94 -420.5t299 -130.5q206 0 306.5 130.5t100.5 420.5v635q0 123 -16.5 177.5t-73.5 90.5v6h314v-6q-56 -37 -73 -91.5
t-17 -176.5v-629q0 -356 -143.5 -518t-428.5 -162zM463 1778v90h702v-90h-702z" />
    <glyph glyph-name="umacron" unicode="&#x16b;" horiz-adv-x="1234" 
d="M473 -31q-319 0 -319 375v383q0 119 -15.5 175.5t-66.5 92.5v6h364v-6q-45 -37 -59.5 -94t-14.5 -174v-365q0 -138 50 -202t153 -64q114 0 189.5 81.5t103.5 213.5v336q0 118 -15 175t-63 93v6h369v-6q-51 -36 -66.5 -92.5t-15.5 -175.5v-453q0 -122 15 -176.5t67 -89.5
v-8h-318q27 69 27 244q-48 -120 -147.5 -197.5t-237.5 -77.5zM291 1249v92h653v-92h-653z" />
    <glyph glyph-name="Ubreve" unicode="&#x16c;" horiz-adv-x="1533" 
d="M776 -33q-138 0 -242.5 34.5t-184.5 112t-121.5 211.5t-41.5 322v629q0 122 -17 176.5t-73 91.5v6h406v-6q-56 -36 -72 -90.5t-16 -177.5v-635q0 -290 94 -420.5t299 -130.5q206 0 306.5 130.5t100.5 420.5v635q0 123 -16.5 177.5t-73.5 90.5v6h314v-6q-56 -37 -73 -91.5
t-17 -176.5v-629q0 -356 -143.5 -518t-428.5 -162zM500 1980h94q0 -86 55 -135t164 -49t164 49t55 135h92q0 -146 -82 -223.5t-229 -77.5t-230 77.5t-83 223.5z" />
    <glyph glyph-name="ubreve" unicode="&#x16d;" horiz-adv-x="1234" 
d="M473 -31q-319 0 -319 375v383q0 119 -15.5 175.5t-66.5 92.5v6h364v-6q-45 -37 -59.5 -94t-14.5 -174v-365q0 -138 50 -202t153 -64q114 0 189.5 81.5t103.5 213.5v336q0 118 -15 175t-63 93v6h369v-6q-51 -36 -66.5 -92.5t-15.5 -175.5v-453q0 -122 15 -176.5t67 -89.5
v-8h-318q27 69 27 244q-48 -120 -147.5 -197.5t-237.5 -77.5zM332 1516h90q0 -107 48.5 -164.5t147.5 -57.5q195 0 195 222h90q0 -155 -76.5 -242.5t-208.5 -87.5q-133 0 -209.5 87.5t-76.5 242.5z" />
    <glyph glyph-name="Uring" unicode="&#x16e;" horiz-adv-x="1533" 
d="M776 -33q-138 0 -242.5 34.5t-184.5 112t-121.5 211.5t-41.5 322v629q0 122 -17 176.5t-73 91.5v6h406v-6q-56 -36 -72 -90.5t-16 -177.5v-635q0 -290 94 -420.5t299 -130.5q206 0 306.5 130.5t100.5 420.5v635q0 123 -16.5 177.5t-73.5 90.5v6h314v-6q-56 -37 -73 -91.5
t-17 -176.5v-629q0 -356 -143.5 -518t-428.5 -162zM598 1858q0 86 59 138t156 52t157 -52t60 -138q0 -87 -60 -140t-157 -53t-156 52.5t-59 140.5zM672 1858q0 -60 39 -97t102 -37t102 37t39 97t-39 96.5t-102 36.5t-102 -36.5t-39 -96.5z" />
    <glyph glyph-name="uring" unicode="&#x16f;" horiz-adv-x="1234" 
d="M473 -31q-319 0 -319 375v383q0 119 -15.5 175.5t-66.5 92.5v6h364v-6q-45 -37 -59.5 -94t-14.5 -174v-365q0 -138 50 -202t153 -64q114 0 189.5 81.5t103.5 213.5v336q0 118 -15 175t-63 93v6h369v-6q-51 -36 -66.5 -92.5t-15.5 -175.5v-453q0 -122 15 -176.5t67 -89.5
v-8h-318q27 69 27 244q-48 -120 -147.5 -197.5t-237.5 -77.5zM401 1386q0 91 60 147t157 56t158.5 -56.5t61.5 -146.5q0 -88 -61.5 -144t-158.5 -56q-96 0 -156.5 56t-60.5 144zM477 1386q0 -63 39 -101t102 -38t102.5 38t39.5 101q0 64 -39.5 103t-102.5 39t-102 -39
t-39 -103z" />
    <glyph glyph-name="Uhungarumlaut" unicode="&#x170;" horiz-adv-x="1533" 
d="M776 -33q-138 0 -242.5 34.5t-184.5 112t-121.5 211.5t-41.5 322v629q0 122 -17 176.5t-73 91.5v6h406v-6q-56 -36 -72 -90.5t-16 -177.5v-635q0 -290 94 -420.5t299 -130.5q206 0 306.5 130.5t100.5 420.5v635q0 123 -16.5 177.5t-73.5 90.5v6h314v-6q-56 -37 -73 -91.5
t-17 -176.5v-629q0 -356 -143.5 -518t-428.5 -162zM639 1690l176 290h164l-268 -290h-72zM915 1690l201 290h166l-293 -290h-74z" />
    <glyph glyph-name="uhungarumlaut" unicode="&#x171;" horiz-adv-x="1234" 
d="M473 -31q-319 0 -319 375v383q0 119 -15.5 175.5t-66.5 92.5v6h364v-6q-45 -37 -59.5 -94t-14.5 -174v-365q0 -138 50 -202t153 -64q114 0 189.5 81.5t103.5 213.5v336q0 118 -15 175t-63 93v6h369v-6q-51 -36 -66.5 -92.5t-15.5 -175.5v-453q0 -122 15 -176.5t67 -89.5
v-8h-318q27 69 27 244q-48 -120 -147.5 -197.5t-237.5 -77.5zM438 1186l172 362h166l-266 -362h-72zM725 1186l182 362h168l-276 -362h-74z" />
    <glyph glyph-name="Uogonek" unicode="&#x172;" horiz-adv-x="1533" 
d="M776 -33q-138 0 -242.5 34.5t-184.5 112t-121.5 211.5t-41.5 322v629q0 122 -17 176.5t-73 91.5v6h406v-6q-56 -36 -72 -90.5t-16 -177.5v-635q0 -290 94 -420.5t299 -130.5q206 0 306.5 130.5t100.5 420.5v635q0 123 -16.5 177.5t-73.5 90.5v6h314v-6q-56 -37 -73 -91.5
t-17 -176.5v-629q0 -274 -85 -432.5t-253 -214.5q-146 -107 -146 -252q0 -57 31 -89t82 -32q78 0 129 80v-72q-65 -98 -180 -98q-79 0 -134 47t-55 137q0 143 140 252q-47 -6 -101 -6z" />
    <glyph glyph-name="uogonek" unicode="&#x173;" horiz-adv-x="1234" 
d="M473 -31q-319 0 -319 375v383q0 119 -15.5 175.5t-66.5 92.5v6h364v-6q-45 -37 -59.5 -94t-14.5 -174v-365q0 -138 50 -202t153 -64q114 0 189.5 81.5t103.5 213.5v336q0 118 -15 175t-63 93v6h369v-6q-51 -36 -66.5 -92.5t-15.5 -175.5v-453q0 -122 15 -176.5t67 -89.5
v-8h-164q-172 -117 -172 -272q0 -57 31 -89t82 -32q78 0 129 80v-72q-65 -98 -181 -98q-78 0 -133 47t-55 137q0 98 61.5 173t151.5 126h-68q27 69 27 244q-48 -120 -147.5 -197.5t-237.5 -77.5z" />
    <glyph glyph-name="Wcircumflex" unicode="&#x174;" horiz-adv-x="2066" 
d="M127 1339q-27 84 -55 131t-70 74v6h410v-6q-50 -25 -56.5 -74.5t19.5 -126.5l307 -1021l336 1159h129l346 -1168l307 1030q26 82 20.5 130.5t-51.5 70.5v6h297v-6q-41 -22 -70 -69.5t-54 -131.5l-381 -1226q-17 -63 -21 -117h-154l-348 1157l-309 -1044q-20 -72 -20 -113
h-154zM760 1690l272 290h107l272 -290h-113l-213 184l-213 -184h-112z" />
    <glyph glyph-name="wcircumflex" unicode="&#x175;" horiz-adv-x="1576" 
d="M145 805q-33 86 -58.5 128.5t-63.5 61.5v6h356v-6q-44 -18 -48 -61.5t23 -116.5l197 -579l225 723h119l231 -725l193 577q28 74 24.5 119t-47.5 63v6h258v-6q-37 -25 -63.5 -66.5t-52.5 -115.5l-250 -709q-26 -81 -29 -104h-137l-231 723l-191 -608q-26 -70 -31 -115
h-139zM535 1186l251 338h99l250 -338h-101l-198 217l-199 -217h-102z" />
    <glyph glyph-name="Ycircumflex" unicode="&#x176;" horiz-adv-x="1310" 
d="M162 1384q-38 68 -68.5 103t-77.5 57v6h410v-6q-75 -40 -14 -166l305 -559l295 559q20 40 28 69t-0.5 55.5t-38.5 41.5v6h295v-6q-82 -46 -145 -162l-369 -682v-426q0 -117 17.5 -174t72.5 -92v-8h-409v8q57 35 73.5 91.5t16.5 174.5v431zM377 1690l272 290h107l272 -290
h-113l-213 184l-213 -184h-112z" />
    <glyph glyph-name="ycircumflex" unicode="&#x177;" horiz-adv-x="1064" 
d="M154 -498q-83 0 -136 29v166q64 -35 150 -35q110 0 192 78t158 260h-63l-293 756q-42 106 -71 157.5t-71 81.5v6h347v-6q-28 -19 -33 -52t4 -71t35 -110l209 -590l211 590q24 67 33.5 108t3 74t-34.5 51v6h260v-6q-70 -46 -142 -233l-292 -760q-106 -270 -211.5 -385
t-255.5 -115zM274 1186l252 338h99l249 -338h-100l-199 217l-198 -217h-103z" />
    <glyph glyph-name="Ydieresis" unicode="&#x178;" horiz-adv-x="1310" 
d="M162 1384q-38 68 -68.5 103t-77.5 57v6h410v-6q-75 -40 -14 -166l305 -559l295 559q20 40 28 69t-0.5 55.5t-38.5 41.5v6h295v-6q-82 -46 -145 -162l-369 -682v-426q0 -117 17.5 -174t72.5 -92v-8h-409v8q57 35 73.5 91.5t16.5 174.5v431zM424 1724v218h176v-218h-176z
M805 1724v218h174v-218h-174z" />
    <glyph glyph-name="Zacute" unicode="&#x179;" horiz-adv-x="1222" 
d="M53 0v96l842 1354h-326q-120 0 -229.5 -20t-288.5 -72v192h1106v-90l-846 -1358h322q208 0 547 99v-201h-1127zM569 1690l191 290h205l-308 -290h-88z" />
    <glyph glyph-name="zacute" unicode="&#x17a;" horiz-adv-x="970" 
d="M61 0v74l607 835h-222q-148 0 -385 -63v155h838v-73l-602 -834h238q176 0 376 70v-164h-850zM451 1186l198 362h185l-320 -362h-63z" />
    <glyph glyph-name="Zdotaccent" unicode="&#x17b;" horiz-adv-x="1222" 
d="M53 0v96l842 1354h-326q-120 0 -229.5 -20t-288.5 -72v192h1106v-90l-846 -1358h322q208 0 547 99v-201h-1127zM526 1724v218h176v-218h-176z" />
    <glyph glyph-name="zdotaccent" unicode="&#x17c;" horiz-adv-x="970" 
d="M61 0v74l607 835h-222q-148 0 -385 -63v155h838v-73l-602 -834h238q176 0 376 70v-164h-850zM389 1253v215h195v-215h-195z" />
    <glyph glyph-name="Zcaron" unicode="&#x17d;" horiz-adv-x="1222" 
d="M53 0v96l842 1354h-326q-120 0 -229.5 -20t-288.5 -72v192h1106v-90l-846 -1358h322q208 0 547 99v-201h-1127zM281 1980h112l223 -182l224 182h112l-284 -290h-105z" />
    <glyph glyph-name="zcaron" unicode="&#x17e;" horiz-adv-x="970" 
d="M61 0v74l607 835h-222q-148 0 -385 -63v155h838v-73l-602 -834h238q176 0 376 70v-164h-850zM172 1542h102l213 -233l211 233h103l-262 -356h-105z" />
    <glyph glyph-name="uni018F" unicode="&#x18f;" horiz-adv-x="1652" 
d="M807 -33q-167 0 -304.5 53.5t-228 146.5t-140.5 216t-52 264h1251q4 70 4 111q0 146 -35 267t-103 211.5t-175 140.5t-244 50q-115 0 -213 -37t-168.5 -102.5t-118.5 -150t-71 -183.5h-127q27 132 89.5 243.5t155 194.5t219.5 130t275 47q339 0 544.5 -218.5
t205.5 -578.5q0 -243 -95.5 -426t-268.5 -281t-400 -98zM322 549q18 -207 146.5 -338t342.5 -131q202 0 333 125t175 344h-997z" />
    <glyph glyph-name="florin" unicode="&#x192;" horiz-adv-x="1376" 
d="M61 -231q93 0 161 23t114 63.5t77.5 110t49 148t31.5 191.5l59 461h-492v68h502l33 258q29 231 143.5 350t304.5 119q173 0 267 -113l-82 -139q-31 75 -71.5 112t-110.5 37q-115 0 -179 -90.5t-88 -275.5l-32 -258h557v-68h-568l-61 -475q-15 -115 -41.5 -206.5
t-74 -172.5t-114 -134.5t-164 -84.5t-221.5 -31v107z" />
    <glyph glyph-name="Gcaron" unicode="&#x1e6;" horiz-adv-x="1798" 
d="M840 -29q-175 0 -319.5 61.5t-239.5 168t-147 250.5t-52 309q0 245 106.5 431.5t295 286t429.5 99.5q280 0 478 -134.5t258 -369.5h-224q-47 188 -182 292.5t-334 104.5q-177 0 -312.5 -88t-206.5 -241.5t-71 -347.5q0 -142 37.5 -264t109 -213.5t183.5 -144t252 -52.5
q244 0 391.5 153t175.5 416h-710l-2 103h915v-803h-98l-76 444q-66 -212 -237 -336.5t-420 -124.5zM580 1978h112l223 -182l224 182h112l-284 -290h-105z" />
    <glyph glyph-name="gcaron" unicode="&#x1e7;" horiz-adv-x="1253" 
d="M496 -518q-109 0 -190.5 20.5t-133 68t-51.5 118.5q0 143 231 215h-4q-122 0 -195 52t-73 144q0 77 58.5 140.5t162.5 109.5q-141 109 -141 293q0 179 131.5 284t329.5 105q212 0 340 -110q14 121 87.5 197t184.5 77v-176q-196 0 -221 -152q71 -96 71 -225
q0 -181 -129.5 -285t-330.5 -104q-147 0 -254 55q-133 -62 -133 -151q0 -48 37.5 -72t125.5 -23q84 1 296 36.5t296 35.5q119 0 185.5 -50.5t66.5 -147.5q0 -99 -66.5 -186t-173.5 -145t-240 -91t-267 -33zM274 -283q0 -137 242 -137q128 0 253.5 36.5t210.5 105t85 149.5
q0 53 -33.5 75.5t-111.5 22.5q-152 0 -394 -65q-129 -33 -190.5 -77t-61.5 -110zM305 1542h103l213 -233l210 233h103l-262 -356h-105zM367 643q0 -137 68 -217t186 -80q121 0 189.5 80t68.5 217t-69 216t-189 79q-118 0 -186 -79t-68 -216z" />
    <glyph glyph-name="AEacute" unicode="&#x1fc;" horiz-adv-x="1937" 
d="M-86 8q57 36 104 97.5t105 166.5l713 1278h1011v-184q-180 45 -288 64.5t-195 19.5h-199v-590h123q119 0 455 12v-122q-252 12 -455 12h-123v-660h236q180 3 485 95v-197h-1040v8q57 35 73.5 91.5t16.5 174.5v230h-535l-125 -232q-56 -103 -66.5 -164.5t23.5 -99.5v-8
h-319v8zM457 606h479v670q0 107 -10 156h-25zM967 1690l190 290h205l-307 -290h-88z" />
    <glyph glyph-name="aeacute" unicode="&#x1fd;" horiz-adv-x="1828" 
d="M1280 -35q-174 0 -296.5 100.5t-160.5 280.5q-32 -164 -151 -268.5t-295 -104.5q-137 -2 -221 66.5t-84 193.5q0 56 18.5 100.5t49.5 77t83.5 61t109 48.5t138.5 43q52 14 77 21.5t63 20.5t55.5 23t40 25.5t32.5 32.5t17.5 39.5t7.5 50.5q0 79 -52 123.5t-149 44.5
q-112 0 -188 -68t-76 -202h-190q6 87 47 157.5t105.5 114.5t143.5 67.5t166 24.5q257 0 340 -182q66 88 161.5 134t211.5 46q214 0 339 -129.5t128 -341.5h-766v-39q0 -191 86.5 -310.5t251.5 -119.5q135 0 218 79t114 210h102q-16 -89 -54 -164t-96.5 -133t-142 -90.5
t-184.5 -32.5zM270 262q0 -79 48 -118.5t122 -39.5q143 0 234.5 116.5t91.5 301.5v96q-20 -47 -74 -75t-168 -64q-136 -43 -195 -87.5t-59 -129.5zM885 1186l198 362h185l-320 -362h-63zM995 649h559q-13 131 -83 212t-187 81q-115 0 -190 -78.5t-99 -214.5z" />
    <glyph glyph-name="Oslashacute" unicode="&#x1fe;" horiz-adv-x="1822" 
d="M514 -342l-86 27l141 346q-227 87 -357 283t-130 460q0 237 104 419.5t293.5 283t433.5 100.5q149 0 273 -37l137 336l88 -27l-139 -340q219 -90 344 -283t125 -454q0 -177 -61 -327t-169.5 -254.5t-262.5 -163t-335 -58.5q-126 0 -258 33zM324 772q0 -212 77 -373.5
t217 -244.5l521 1271q-101 43 -226 43q-179 0 -313.5 -88.5t-205 -245.5t-70.5 -362zM700 113q93 -37 213 -37q178 0 312 89t205 247t71 362q0 205 -73 364t-207 244zM866 1692l191 290h205l-308 -290h-88z" />
    <glyph glyph-name="oslashacute" unicode="&#x1ff;" horiz-adv-x="1216" 
d="M352 -250l-73 25l94 237q-139 60 -217 189t-78 303q0 242 144.5 388t385.5 146q90 0 160 -20l94 237l74 -26l-92 -236q139 -59 217 -186.5t78 -302.5q0 -241 -145 -389t-386 -148q-88 0 -162 21zM289 504q0 -260 129 -373l311 789q-55 22 -119 22q-153 0 -237 -114.5
t-84 -323.5zM485 88q58 -25 125 -25q149 0 233.5 117t84.5 324q0 264 -131 373zM571 1188l199 362h184l-319 -362h-64z" />
    <glyph glyph-name="uni0218" unicode="&#x218;" horiz-adv-x="1249" 
d="M659 -33q-254 0 -418 139.5t-190 391.5h213q22 -194 121 -311t277 -117q138 0 220 69t83 191q0 36 -9 68t-22 57.5t-43 54t-55.5 49t-77 51.5t-90 52.5t-111.5 60.5q-71 38 -120 66.5t-103 65t-88.5 71t-64 76.5t-43 89.5t-13.5 102.5q0 177 133 279t346 102
q225 0 373.5 -117.5t183.5 -331.5h-211q-20 160 -107.5 254.5t-238.5 94.5q-130 1 -202 -60.5t-74 -165.5q0 -34 9 -65t22.5 -55.5t42 -51.5t53.5 -46.5t72.5 -48t83 -48t100.5 -53.5q68 -36 111.5 -60.5t97.5 -58.5t86.5 -62t67 -65t53 -74t30.5 -83t12 -97
q0 -192 -141 -303t-369 -111zM455 -487l127 356h178l-256 -379z" />
    <glyph glyph-name="uni0219" unicode="&#x219;" horiz-adv-x="1015" 
d="M543 -35q-200 0 -329 100t-151 271h193q12 -130 86.5 -204.5t202.5 -74.5q95 0 153 40t58 112q0 31 -13 57t-36 46.5t-59 40.5t-78.5 38.5t-97.5 41.5q-9 3 -13 5q-51 20 -80 32.5t-71 33t-66 37t-52 41t-42.5 50t-24.5 59t-10 71.5q0 130 105.5 203t277.5 73
q182 0 296 -84t140 -233h-191q-14 105 -77 165t-172 60q-90 0 -142.5 -37.5t-52.5 -101.5q0 -70 63.5 -114.5t221.5 -104.5q91 -35 149 -63t111 -67.5t77.5 -89t24.5 -112.5q0 -139 -113 -215t-288 -76zM322 -483l127 356h178l-256 -379z" />
    <glyph glyph-name="uni021A" unicode="&#x21a;" horiz-adv-x="1277" 
d="M35 1364v186h1210v-186q-137 35 -198 49.5t-139 27.5t-136 13h-18v-1180q0 -118 16.5 -174.5t71.5 -91.5v-8h-406v8q55 35 72.5 92t17.5 174v1180h-16q-59 0 -136.5 -13t-141 -28t-197.5 -49zM420 -477l127 356h178l-256 -379z" />
    <glyph glyph-name="uni021B" unicode="&#x21b;" horiz-adv-x="829" 
d="M512 -18q-293 0 -293 342v581h-211v96h211v277l201 149h6v-426h332v-96h-332v-577q0 -120 42 -167.5t120 -47.5q138 0 213 147l22 -76q-43 -95 -125 -148.5t-186 -53.5zM283 -479l127 356h178l-256 -379z" />
    <glyph glyph-name="uni0237" unicode="&#x237;" horiz-adv-x="526" 
d="M-35 -420q117 12 162 81.5t45 219.5v850q0 122 -15 176.5t-67 89.5v9l137 2l154 6v-1094q0 -195 -104 -305.5t-312 -114.5v80z" />
    <glyph glyph-name="uni0259" unicode="&#x259;" horiz-adv-x="1157" 
d="M571 1036q226 0 367 -142.5t141 -389.5q0 -243 -146.5 -391t-367.5 -148q-218 0 -351 130t-136 341h799v35q0 193 -89.5 313.5t-259.5 120.5q-139 0 -224 -79t-118 -210h-112q38 187 164.5 303.5t332.5 116.5zM281 348q13 -129 86.5 -209t197.5 -80q119 0 197.5 77
t103.5 212h-585z" />
    <glyph glyph-name="circumflex" unicode="&#x2c6;" horiz-adv-x="804" 
d="M102 1186l252 338h99l249 -338h-100l-199 217l-198 -217h-103z" />
    <glyph glyph-name="caron" unicode="&#x2c7;" horiz-adv-x="833" 
d="M365 1186l-263 356h103l213 -233l211 233h102l-262 -356h-104z" />
    <glyph glyph-name="breve" unicode="&#x2d8;" horiz-adv-x="776" 
d="M389 1186q-133 0 -210 88t-77 242h91q0 -107 48.5 -164.5t147.5 -57.5q195 0 195 222h90q0 -155 -76.5 -242.5t-208.5 -87.5z" />
    <glyph glyph-name="dotaccent" unicode="&#x2d9;" horiz-adv-x="421" 
d="M104 1253v232h218v-232h-218z" />
    <glyph glyph-name="ring" unicode="&#x2da;" horiz-adv-x="638" 
d="M319 1186q-96 0 -156.5 56t-60.5 144q0 91 60 147t157 56t158.5 -56.5t61.5 -146.5q0 -88 -61.5 -144t-158.5 -56zM178 1386q0 -63 39 -101t102 -38t102.5 38t39.5 101q0 64 -39.5 103t-102.5 39t-102 -39t-39 -103z" />
    <glyph glyph-name="ogonek" unicode="&#x2db;" horiz-adv-x="573" 
d="M291 -483q-79 0 -134 47t-55 137q0 60 25 114.5t68 95t85.5 68.5t90.5 50l30 -29q-172 -117 -172 -272q0 -57 31 -89t82 -32q78 0 129 80v-72q-65 -98 -180 -98z" />
    <glyph glyph-name="tilde" unicode="&#x2dc;" horiz-adv-x="837" 
d="M104 1196q-4 160 43.5 243t133.5 83q46 0 82 -21.5t59 -52t44.5 -60.5t50.5 -51.5t65 -21.5q97 0 88 196h65q8 -327 -170 -327q-40 0 -73 15t-53.5 37t-41.5 48t-38 48t-42 37t-55 15q-52 0 -74.5 -51t-17.5 -137h-66z" />
    <glyph glyph-name="hungarumlaut" unicode="&#x2dd;" horiz-adv-x="841" 
d="M391 1186l182 362h168l-276 -362h-74zM104 1186l172 362h166l-266 -362h-72z" />
    <glyph glyph-name="gravecomb" unicode="&#x300;" 
d="M426 1186l-322 362h185l198 -362h-61z" />
    <glyph glyph-name="acutecomb" unicode="&#x301;" 
d="M102 1186l199 362h184l-319 -362h-64z" />
    <glyph glyph-name="uni0302" unicode="&#x302;" 
d="M100 1186l252 338h99l249 -338h-100l-199 217l-198 -217h-103z" />
    <glyph glyph-name="tildecomb" unicode="&#x303;" 
d="M115 1196q-4 160 43 243t133 83q46 0 82 -21.5t59 -52t44.5 -60.5t50.5 -51.5t65 -21.5q97 0 88 196h65q8 -327 -170 -327q-40 0 -73 15t-53.5 37t-41.5 48t-38 48t-42 37t-55 15q-52 0 -74.5 -51t-17.5 -137h-65z" />
    <glyph glyph-name="uni0304" unicode="&#x304;" 
d="M102 1249v92h654v-92h-654z" />
    <glyph glyph-name="uni0306" unicode="&#x306;" 
d="M408 1186q-133 0 -210 88t-77 242h90q0 -107 49 -164.5t148 -57.5q194 0 194 222h90q0 -156 -76 -243t-208 -87z" />
    <glyph glyph-name="uni0307" unicode="&#x307;" 
d="M102 1253v232h217v-232h-217z" />
    <glyph glyph-name="uni0308" unicode="&#x308;" 
d="M440 1249v221h183v-221h-183zM100 1249v221h183v-221h-183z" />
    <glyph glyph-name="uni030A" unicode="&#x30a;" 
d="M319 1186q-96 0 -156.5 56t-60.5 144q0 91 60 147t157 56t158.5 -56.5t61.5 -146.5q0 -88 -61.5 -144t-158.5 -56zM178 1386q0 -63 39 -101t102 -38t102.5 38t39.5 101q0 64 -39.5 103t-102.5 39t-102 -39t-39 -103z" />
    <glyph glyph-name="uni030B" unicode="&#x30b;" 
d="M381 1186l182 362h168l-276 -362h-74zM94 1186l172 362h166l-266 -362h-72z" />
    <glyph glyph-name="uni030C" unicode="&#x30c;" 
d="M375 1186l-262 356h102l213 -233l211 233h102l-262 -356h-104z" />
    <glyph glyph-name="uni0312" unicode="&#x312;" 
d="M102 1190l207 371h58l-95 -371h-170z" />
    <glyph glyph-name="uni0326" unicode="&#x326;" 
d="M127 -502l-49 23l127 356h178z" />
    <glyph glyph-name="uni0327" unicode="&#x327;" 
d="M414 -500q-90 0 -163 33t-114 94l49 51q27 -46 79.5 -74t121.5 -28q64 0 103.5 24.5t39.5 75.5q0 50 -37 77.5t-102 27.5q-55 0 -94 -19l-39 41l152 199h88l-107 -137q36 4 58 4q97 0 157 -48t60 -130q0 -64 -39 -109t-94.5 -63.5t-118.5 -18.5z" />
    <glyph glyph-name="uni0328" unicode="&#x328;" 
d="M360 -483q-78 0 -133 47t-55 137q0 60 25 114.5t67.5 95t85 69t90.5 49.5l31 -29q-172 -117 -172 -272q0 -57 31 -89t82 -32q78 0 129 80v-72q-65 -98 -181 -98z" />
    <glyph glyph-name="uni0394" unicode="&#x394;" horiz-adv-x="1308" 
d="M4 0v76l547 1474h197l557 -1474v-76h-1301zM147 104h910l-449 1280z" />
    <glyph glyph-name="uni03A9" unicode="&#x3a9;" horiz-adv-x="1712" 
d="M100 0v168h543v45q-174 41 -305 131t-208 231.5t-77 315.5q0 203 101 359t283.5 241.5t418.5 85.5q359 0 581 -189.5t222 -496.5q0 -261 -161.5 -438.5t-426.5 -239.5v-45h543v-168h-647v268q215 62 334.5 211.5t119.5 388.5q0 264 -157 429t-408 165t-408 -165
t-157 -429q0 -239 120 -388t334 -212v-268h-645z" />
    <glyph glyph-name="uni03BC" unicode="&#x3bc;" horiz-adv-x="1236" 
d="M283 -412q-142 155 -142 400v739q0 118 -15 175t-65 93v6h361v-6q-45 -37 -59.5 -94t-14.5 -174v-365q0 -139 50.5 -203.5t154.5 -64.5q113 0 190 91.5t103 232.5v309q0 118 -15 175t-65 93v6h364v-6q-49 -36 -63 -91.5t-14 -176.5v-463q0 -93 25 -132.5t73 -39.5
q43 0 82 31l2 -70q-81 -67 -180 -67q-91 0 -149 65t-58 191v26q-40 -128 -130.5 -214.5t-215.5 -86.5q-108 0 -176 62v-86q0 -121 14.5 -201.5t48.5 -153.5h-106z" />
    <glyph glyph-name="pi" unicode="&#x3c0;" horiz-adv-x="1392" 
d="M1100 -14q-258 0 -258 327v592h-355l-18 -905h-201l19 905h-279v96h1319v-96h-285v-573q0 -121 37.5 -171t104.5 -50q111 0 176 127l26 -64q-44 -89 -117 -138.5t-169 -49.5z" />
    <glyph glyph-name="Wgrave" unicode="&#x1e80;" horiz-adv-x="2066" 
d="M127 1339q-27 84 -55 131t-70 74v6h410v-6q-50 -25 -56.5 -74.5t19.5 -126.5l307 -1021l336 1159h129l346 -1168l307 1030q26 82 20.5 130.5t-51.5 70.5v6h297v-6q-41 -22 -70 -69.5t-54 -131.5l-381 -1226q-17 -63 -21 -117h-154l-348 1157l-309 -1044q-20 -72 -20 -113
h-154zM731 1980h205l190 -290h-86z" />
    <glyph glyph-name="wgrave" unicode="&#x1e81;" horiz-adv-x="1576" 
d="M145 805q-33 86 -58.5 128.5t-63.5 61.5v6h356v-6q-44 -18 -48 -61.5t23 -116.5l197 -579l225 723h119l231 -725l193 577q28 74 24.5 119t-47.5 63v6h258v-6q-37 -25 -63.5 -66.5t-52.5 -115.5l-250 -709q-26 -81 -29 -104h-137l-231 723l-191 -608q-26 -70 -31 -115
h-139zM483 1548h185l198 -362h-61z" />
    <glyph glyph-name="Wacute" unicode="&#x1e82;" horiz-adv-x="2066" 
d="M127 1339q-27 84 -55 131t-70 74v6h410v-6q-50 -25 -56.5 -74.5t19.5 -126.5l307 -1021l336 1159h129l346 -1168l307 1030q26 82 20.5 130.5t-51.5 70.5v6h297v-6q-41 -22 -70 -69.5t-54 -131.5l-381 -1226q-17 -63 -21 -117h-154l-348 1157l-309 -1044q-20 -72 -20 -113
h-154zM1040 1690l191 290h205l-308 -290h-88z" />
    <glyph glyph-name="wacute" unicode="&#x1e83;" horiz-adv-x="1576" 
d="M145 805q-33 86 -58.5 128.5t-63.5 61.5v6h356v-6q-44 -18 -48 -61.5t23 -116.5l197 -579l225 723h119l231 -725l193 577q28 74 24.5 119t-47.5 63v6h258v-6q-37 -25 -63.5 -66.5t-52.5 -115.5l-250 -709q-26 -81 -29 -104h-137l-231 723l-191 -608q-26 -70 -31 -115
h-139zM797 1186l198 362h185l-320 -362h-63z" />
    <glyph glyph-name="Wdieresis" unicode="&#x1e84;" horiz-adv-x="2066" 
d="M127 1339q-27 84 -55 131t-70 74v6h410v-6q-50 -25 -56.5 -74.5t19.5 -126.5l307 -1021l336 1159h129l346 -1168l307 1030q26 82 20.5 130.5t-51.5 70.5v6h297v-6q-41 -22 -70 -69.5t-54 -131.5l-381 -1226q-17 -63 -21 -117h-154l-348 1157l-309 -1044q-20 -72 -20 -113
h-154zM807 1724v218h176v-218h-176zM1188 1724v218h174v-218h-174z" />
    <glyph glyph-name="wdieresis" unicode="&#x1e85;" horiz-adv-x="1576" 
d="M145 805q-33 86 -58.5 128.5t-63.5 61.5v6h356v-6q-44 -18 -48 -61.5t23 -116.5l197 -579l225 723h119l231 -725l193 577q28 74 24.5 119t-47.5 63v6h258v-6q-37 -25 -63.5 -66.5t-52.5 -115.5l-250 -709q-26 -81 -29 -104h-137l-231 723l-191 -608q-26 -70 -31 -115
h-139zM571 1249v221h183v-221h-183zM911 1249v221h183v-221h-183z" />
    <glyph glyph-name="uni1E9E" unicode="&#x1e9e;" horiz-adv-x="1511" 
d="M967 -29q-222 0 -351 129l5 174q47 -82 130 -134t197 -52q136 0 211.5 71.5t75.5 196.5q0 111 -49.5 185t-177.5 164q-48 33 -79 57.5t-67 60.5t-57 70.5t-35 81t-14 98.5q0 130 75.5 226.5t210.5 142.5h-157q-232 0 -354.5 -133t-122.5 -420v-615q0 -118 15 -174.5
t66 -91.5v-8h-393v8q55 35 72.5 92t17.5 174v590q0 686 658 686h532v-135q-52 12 -100 12q-144 0 -241 -80.5t-97 -213.5q0 -39 11 -73t26.5 -59t48.5 -55.5t61.5 -51.5t81.5 -58q67 -48 111.5 -90.5t81.5 -96t54.5 -117t17.5 -141.5q0 -192 -125 -306.5t-340 -113.5z" />
    <glyph glyph-name="uni1EBC" unicode="&#x1ebc;" horiz-adv-x="1212" 
d="M119 0v8q57 35 73.5 91.5t16.5 174.5v1002q0 123 -16.5 177.5t-73.5 90.5v6h1001v-184q-180 45 -288 64.5t-195 19.5h-199v-590h123q119 0 455 12v-122q-252 12 -455 12h-123v-660h236q180 3 485 95v-197h-1040zM322 1704q0 140 47 211.5t135 71.5q45 0 80.5 -18
t58 -43.5t43.5 -51.5t48 -44t61 -18q51 0 70.5 37.5t21.5 124.5h74q-1 -150 -46.5 -217t-132.5 -67q-46 0 -82.5 18t-59.5 44t-44.5 52t-48.5 44t-60 18q-51 0 -70.5 -40.5t-21.5 -121.5h-73z" />
    <glyph glyph-name="uni1EBD" unicode="&#x1ebd;" horiz-adv-x="1157" 
d="M586 -35q-226 0 -367 143t-141 390q0 161 68.5 284.5t184.5 188.5t261 65q218 0 351 -130t136 -341h-798v-35q0 -194 89 -314t259 -120q139 0 224 79t118 210h112q-38 -187 -164.5 -303.5t-332.5 -116.5zM264 1196q-4 160 43 243t133 83q46 0 82 -21.5t59 -52t44.5 -60.5
t50.5 -51.5t65 -21.5q97 0 88 196h66q8 -327 -170 -327q-40 0 -73 15t-53.5 37t-41.5 48t-38 48t-42 37t-55 15q-52 0 -74.5 -51t-17.5 -137h-66zM291 653h586q-13 129 -87 209t-198 80q-119 0 -197.5 -77t-103.5 -212z" />
    <glyph glyph-name="Ygrave" unicode="&#x1ef2;" horiz-adv-x="1310" 
d="M162 1384q-38 68 -68.5 103t-77.5 57v6h410v-6q-75 -40 -14 -166l305 -559l295 559q20 40 28 69t-0.5 55.5t-38.5 41.5v6h295v-6q-82 -46 -145 -162l-369 -682v-426q0 -117 17.5 -174t72.5 -92v-8h-409v8q57 35 73.5 91.5t16.5 174.5v431zM348 1980h205l190 -290h-86z
" />
    <glyph glyph-name="ygrave" unicode="&#x1ef3;" horiz-adv-x="1064" 
d="M154 -498q-83 0 -136 29v166q64 -35 150 -35q110 0 192 78t158 260h-63l-293 756q-42 106 -71 157.5t-71 81.5v6h347v-6q-28 -19 -33 -52t4 -71t35 -110l209 -590l211 590q24 67 33.5 108t3 74t-34.5 51v6h260v-6q-70 -46 -142 -233l-292 -760q-106 -270 -211.5 -385
t-255.5 -115zM225 1548h185l198 -362h-61z" />
    <glyph glyph-name="uni1EF8" unicode="&#x1ef8;" horiz-adv-x="1310" 
d="M162 1384q-38 68 -68.5 103t-77.5 57v6h410v-6q-75 -40 -14 -166l305 -559l295 559q20 40 28 69t-0.5 55.5t-38.5 41.5v6h295v-6q-82 -46 -145 -162l-369 -682v-426q0 -117 17.5 -174t72.5 -92v-8h-409v8q57 35 73.5 91.5t16.5 174.5v431zM383 1704q0 140 47 211.5
t135 71.5q45 0 80.5 -18t58 -43.5t43.5 -51.5t48 -44t61 -18q51 0 70.5 37.5t21.5 124.5h74q-1 -150 -46 -217t-132 -67q-46 0 -82.5 18t-59.5 44t-44.5 52t-48.5 44t-60 18q-51 0 -70.5 -40.5t-21.5 -121.5h-74z" />
    <glyph glyph-name="uni1EF9" unicode="&#x1ef9;" horiz-adv-x="1064" 
d="M154 -498q-83 0 -136 29v166q64 -35 150 -35q110 0 192 78t158 260h-63l-293 756q-42 106 -71 157.5t-71 81.5v6h347v-6q-28 -19 -33 -52t4 -71t35 -110l209 -590l211 590q24 67 33.5 108t3 74t-34.5 51v6h260v-6q-70 -46 -142 -233l-292 -760q-106 -270 -211.5 -385
t-255.5 -115zM256 1196q-4 160 43 243t133 83q46 0 82 -21.5t59 -52t44.5 -60.5t50.5 -51.5t65 -21.5q97 0 88 196h66q8 -327 -170 -327q-40 0 -73 15t-53.5 37t-41.5 48t-38 48t-42 37t-55 15q-52 0 -74.5 -51t-17.5 -137h-66z" />
    <glyph glyph-name="endash" unicode="&#x2013;" horiz-adv-x="1886" 
d="M90 479v103h1706v-103h-1706z" />
    <glyph glyph-name="emdash" unicode="&#x2014;" horiz-adv-x="2557" 
d="M90 479v103h2380v-103h-2380z" />
    <glyph glyph-name="quoteleft" unicode="&#x2018;" horiz-adv-x="428" 
d="M362 1458q-90 -18 -139.5 -68t-58.5 -141h139v-239h-207v213q0 141 67 230t199 120v-115z" />
    <glyph glyph-name="quoteright" unicode="&#x2019;" horiz-adv-x="428" 
d="M66 1112q90 18 139.5 68t58.5 141h-139v240h207v-213q0 -142 -67.5 -231t-198.5 -120v115z" />
    <glyph glyph-name="quotesinglbase" unicode="&#x201a;" horiz-adv-x="438" 
d="M59 -201q182 31 199 203h-139v240h207v-209q0 -140 -67.5 -228.5t-199.5 -119.5v114z" />
    <glyph glyph-name="quotedblleft" unicode="&#x201c;" horiz-adv-x="763" 
d="M362 1458q-90 -18 -139.5 -68t-58.5 -141h139v-239h-207v213q0 141 67 230t199 120v-115zM432 1010v213q0 141 67 230t199 120v-115q-90 -18 -139.5 -68t-58.5 -141h139v-239h-207z" />
    <glyph glyph-name="quotedblright" unicode="&#x201d;" horiz-adv-x="763" 
d="M401 1112q91 18 140.5 68t58.5 141h-139v240h207v-213q0 -141 -67.5 -230.5t-199.5 -120.5v115zM66 997v115q90 18 139.5 68t58.5 141h-139v240h207v-213q0 -142 -67.5 -231t-198.5 -120z" />
    <glyph glyph-name="quotedblbase" unicode="&#x201e;" horiz-adv-x="774" 
d="M395 -201q182 31 199 203h-139v240h207v-209q0 -140 -67.5 -228.5t-199.5 -119.5v114zM59 -315v114q182 31 199 203h-139v240h207v-209q0 -140 -67.5 -228.5t-199.5 -119.5z" />
    <glyph glyph-name="dagger" unicode="&#x2020;" horiz-adv-x="997" 
d="M414 82l24 942l-399 -20v153l399 -29l-26 469h174l-29 -469l401 29v-153l-401 20l25 -942h-168z" />
    <glyph glyph-name="daggerdbl" unicode="&#x2021;" horiz-adv-x="997" 
d="M412 82l26 467l-399 -29v154l397 -21l-18 191l18 184l-397 -20v153l399 -28l-26 464h174l-29 -464l401 28v-153l-397 20l19 -184l-19 -191l397 21v-154l-399 29l27 -467h-174z" />
    <glyph glyph-name="bullet" unicode="&#x2022;" horiz-adv-x="681" 
d="M205 397v269h272v-269h-272z" />
    <glyph glyph-name="ellipsis" unicode="&#x2026;" horiz-adv-x="1376" 
d="M1044 0v242h207v-242h-207zM127 0v242h207v-242h-207zM586 0v242h207v-242h-207z" />
    <glyph glyph-name="perthousand" unicode="&#x2030;" horiz-adv-x="2330" 
d="M119 0l1184 1550h124l-1183 -1550h-125zM68 1245q0 146 96 238t248 92t248 -92t96 -238q0 -145 -96 -237.5t-248 -92.5t-248 92.5t-96 237.5zM219 1245q0 -118 51 -184t142 -66q89 0 139.5 66t50.5 184q0 119 -50 184.5t-140 65.5q-91 0 -142 -65.5t-51 -184.5zM786 305
q0 146 96 238t248 92t248.5 -92t96.5 -238q0 -145 -96.5 -237.5t-248.5 -92.5t-248 92.5t-96 237.5zM938 305q0 -118 50.5 -184t141.5 -66q90 0 140.5 66t50.5 184q0 119 -50.5 184.5t-140.5 65.5q-91 0 -141.5 -65t-50.5 -185zM1577 305q0 146 96 238t248 92t248 -92
t96 -238q0 -145 -96 -237.5t-248 -92.5t-248 92.5t-96 237.5zM1729 305q0 -118 50.5 -184t141.5 -66q89 0 139.5 66t50.5 184q0 119 -50 184.5t-140 65.5q-91 0 -141.5 -65t-50.5 -185z" />
    <glyph glyph-name="minute" unicode="&#x2032;" horiz-adv-x="403" 
d="M45 940l98 610h174l-198 -610h-74z" />
    <glyph glyph-name="second" unicode="&#x2033;" horiz-adv-x="743" 
d="M45 940l98 610h174l-198 -610h-74zM385 940l98 610h174l-198 -610h-74z" />
    <glyph glyph-name="guilsinglleft" unicode="&#x2039;" horiz-adv-x="669" 
d="M559 86l-475 369v80l475 368v-102l-321 -303v-6l321 -302v-104z" />
    <glyph glyph-name="guilsinglright" unicode="&#x203a;" horiz-adv-x="669" 
d="M111 86v104l321 302v6l-321 303v102l475 -368v-80z" />
    <glyph glyph-name="uni203D" unicode="&#x203d;" horiz-adv-x="1103" 
d="M438 0v242h207v-242h-207zM57 1085q13 231 163 360.5t384 129.5q209 0 331 -95.5t122 -248.5q0 -72 -22.5 -132t-59.5 -102.5t-81.5 -80t-92 -71t-88 -67.5t-71 -78t-40.5 -94l-8 -160h-109l-34 779h178l-21 -457q24 36 74.5 91t87 97t66.5 109.5t30 142.5q0 114 -77 187
t-214 73q-159 0 -249.5 -101t-98.5 -282h-170z" />
    <glyph glyph-name="fraction" unicode="&#x2044;" horiz-adv-x="342" 
d="M-483 0l1185 1550h123l-1183 -1550h-125z" />
    <glyph glyph-name="uni2070" unicode="&#x2070;" horiz-adv-x="991" 
d="M496 901q-198 0 -313 128.5t-115 342.5q0 216 115 345.5t313 129.5q199 0 314.5 -129.5t115.5 -345.5q0 -214 -115.5 -342.5t-314.5 -128.5zM233 1372q0 -186 69.5 -289.5t193.5 -103.5q126 0 195 103.5t69 289.5q0 189 -69 293t-195 104q-125 0 -194 -104t-69 -293z" />
    <glyph glyph-name="uni2074" unicode="&#x2074;" horiz-adv-x="899" 
d="M446 930q38 25 51 59t13 96v48h-510v84l543 614h135v-588h186v-110h-186v-48q0 -61 13.5 -95.5t51.5 -59.5v-10h-297v10zM123 1243h387v445z" />
    <glyph glyph-name="uni2075" unicode="&#x2075;" horiz-adv-x="882" 
d="M446 899q-170 0 -273.5 84.5t-117.5 233.5h88q10 -113 81.5 -173.5t187.5 -60.5q113 0 176 62.5t63 166.5q0 110 -63.5 168t-167.5 58q-162 0 -246 -109l-74 29l78 469h598v-119h-538l-50 -309q52 61 132.5 92t173.5 31q151 0 239 -81.5t88 -226.5q0 -144 -102 -229.5
t-273 -85.5z" />
    <glyph glyph-name="uni2076" unicode="&#x2076;" horiz-adv-x="927" 
d="M481 901q-196 0 -303.5 123.5t-107.5 331.5q0 219 114 355t312 136q146 0 242 -78t116 -210h-88q-13 95 -79.5 150.5t-166.5 55.5q-135 0 -208 -102t-76 -283q-2 -46 8 -104q23 103 110 165t199 62q130 0 217.5 -79t87.5 -210q0 -143 -104.5 -228t-272.5 -85zM252 1192
q47 -221 227 -221q95 0 155 61.5t60 169.5q0 106 -56.5 164.5t-145.5 58.5q-94 0 -163.5 -63t-76.5 -170z" />
    <glyph glyph-name="uni2077" unicode="&#x2077;" horiz-adv-x="761" 
d="M80 922l536 774h-585v131h721l2 -53l-488 -852h-186z" />
    <glyph glyph-name="uni2078" unicode="&#x2078;" horiz-adv-x="958" 
d="M481 901q-198 0 -305.5 69t-107.5 197q0 98 77.5 163t196.5 79q-114 17 -175 70.5t-61 140.5q0 106 98.5 166.5t274.5 60.5q177 0 275 -60.5t98 -166.5q0 -176 -231 -211q119 -14 195.5 -79t76.5 -163q0 -127 -107.5 -196.5t-304.5 -69.5zM236 1174q0 -97 61.5 -151
t183.5 -54q121 0 182.5 54t61.5 151q0 92 -64 145t-180 53q-117 0 -181 -53t-64 -145zM266 1616q0 -176 215 -176q213 0 213 176q0 76 -55 121t-158 45q-106 0 -160.5 -45t-54.5 -121z" />
    <glyph glyph-name="uni2079" unicode="&#x2079;" horiz-adv-x="929" 
d="M449 1849q196 0 303.5 -123.5t107.5 -332.5q0 -217 -114 -353.5t-312 -136.5q-146 0 -242 78.5t-116 210.5h88q14 -95 80 -151t166 -56q135 0 208 102t76 283q3 47 -8 105q-23 -103 -110.5 -165.5t-198.5 -62.5q-130 0 -217.5 79t-87.5 210q0 143 104.5 228t272.5 85z
M236 1548q0 -106 56.5 -164.5t145.5 -58.5q94 0 163.5 63.5t76.5 170.5q-47 221 -227 221q-95 0 -155 -62t-60 -170z" />
    <glyph glyph-name="uni2080" unicode="&#x2080;" horiz-adv-x="991" 
d="M496 -225q-198 0 -313 128.5t-115 342.5q0 216 115 345.5t313 129.5q199 0 314.5 -129.5t115.5 -345.5q0 -214 -115.5 -342.5t-314.5 -128.5zM233 246q0 -186 69.5 -289.5t193.5 -103.5q126 0 195 103.5t69 289.5q0 189 -69 293t-195 104q-125 0 -194 -104t-69 -293z" />
    <glyph glyph-name="uni2081" unicode="&#x2081;" horiz-adv-x="624" 
d="M174 -205v6q54 29 71 75.5t17 143.5v457q-29 -47 -92 -87.5t-143 -45.5v109q113 6 197 80.5t98 175.5h108v-689q0 -99 14.5 -144.5t65.5 -74.5v-6h-336z" />
    <glyph glyph-name="uni2082" unicode="&#x2082;" horiz-adv-x="882" 
d="M72 -182q0 67 24 124t70 103t91.5 78.5t109.5 69.5q141 78 201.5 136.5t60.5 143.5q0 80 -47.5 125t-130.5 45q-113 0 -173.5 -77.5t-60.5 -205.5h-151q6 155 112 258t287 103q149 0 239.5 -66.5t90.5 -187.5q0 -28 -7 -54t-15.5 -46.5t-28.5 -42.5t-33.5 -36.5
t-44 -34.5t-46.5 -30t-54.5 -29.5t-54 -27t-58.5 -27.5q-114 -54 -180.5 -104.5t-77.5 -112.5h628v-127h-751v23z" />
    <glyph glyph-name="uni2083" unicode="&#x2083;" horiz-adv-x="882" 
d="M446 -225q-175 0 -275.5 87.5t-111.5 241.5h93q7 -116 79 -178.5t187 -62.5t177 56t62 140q0 181 -251 181h-80v65h80q110 0 168.5 51t58.5 131q0 69 -47 112.5t-142 43.5q-99 0 -160.5 -55t-70.5 -154h-150q15 133 124.5 210t277.5 77q154 0 243 -63t89 -166
q0 -87 -69.5 -143t-190.5 -70q139 -11 216.5 -68.5t77.5 -161.5q0 -118 -105.5 -196t-279.5 -78z" />
    <glyph glyph-name="uni2084" unicode="&#x2084;" horiz-adv-x="899" 
d="M446 -197q38 25 51 59.5t13 96.5v47h-510v84l543 615h135v-588h186v-111h-186v-47q0 -61 13.5 -96t51.5 -60v-10h-297v10zM123 117h387v444z" />
    <glyph glyph-name="uni2085" unicode="&#x2085;" horiz-adv-x="882" 
d="M446 -227q-170 0 -274 84t-117 233h88q10 -112 81.5 -172.5t187.5 -60.5q113 0 176 62.5t63 166.5q0 110 -63.5 167.5t-167.5 57.5q-163 0 -246 -108l-74 28l78 469h598v-118h-538l-50 -310q52 61 132.5 92t173.5 31q151 0 239 -81t88 -226q0 -144 -102 -229.5
t-273 -85.5z" />
    <glyph glyph-name="uni2086" unicode="&#x2086;" horiz-adv-x="927" 
d="M481 -225q-196 0 -303.5 123t-107.5 331q0 219 114 355.5t312 136.5q146 0 242 -78.5t116 -210.5h-88q-14 95 -80 151t-166 56q-135 0 -208 -102t-76 -283q-2 -46 8 -104q23 103 110 165t199 62q130 0 217.5 -79t87.5 -210q0 -143 -104.5 -228t-272.5 -85zM252 66
q47 -222 227 -222q95 0 155 62t60 170q0 106 -56.5 164.5t-145.5 58.5q-94 0 -163.5 -63t-76.5 -170z" />
    <glyph glyph-name="uni2087" unicode="&#x2087;" horiz-adv-x="761" 
d="M80 -205l536 774h-585v131h721l2 -53l-488 -852h-186z" />
    <glyph glyph-name="uni2088" unicode="&#x2088;" horiz-adv-x="958" 
d="M481 -225q-198 0 -305.5 69t-107.5 197q0 98 77.5 163t196.5 79q-114 17 -175 70.5t-61 140.5q0 106 98.5 166.5t274.5 60.5q177 0 275 -60.5t98 -166.5q0 -176 -231 -211q119 -14 195.5 -79t76.5 -163q0 -127 -107.5 -196.5t-304.5 -69.5zM236 47q0 -97 61.5 -151
t183.5 -54q121 0 182.5 54t61.5 151q0 92 -64 145.5t-180 53.5q-117 0 -181 -53.5t-64 -145.5zM266 489q0 -176 215 -176q213 0 213 176q0 76 -55 121t-158 45q-106 0 -160.5 -45t-54.5 -121z" />
    <glyph glyph-name="uni2089" unicode="&#x2089;" horiz-adv-x="929" 
d="M449 723q196 0 303.5 -123.5t107.5 -333.5q0 -217 -114 -353t-312 -136q-146 0 -242 78.5t-116 210.5h88q14 -95 80 -151t166 -56q135 0 208 102t76 283q2 46 -8 104q-23 -103 -110 -165t-199 -62q-130 0 -217.5 79t-87.5 210q0 143 104.5 228t272.5 85zM236 422
q0 -106 56.5 -164.5t145.5 -58.5q94 0 163.5 63t76.5 170q-47 221 -227 221q-95 0 -155 -61.5t-60 -169.5z" />
    <glyph glyph-name="Euro" unicode="&#x20ac;" horiz-adv-x="1785" 
d="M82 840v69h201q40 303 234 483.5t482 180.5q166 0 302.5 -61t234.5 -189t137 -311h-203q-43 210 -166 331t-305 121q-138 0 -247 -73t-172.5 -197.5t-81.5 -284.5h710v-69h-716v-41q0 -59 6 -115h710v-70h-700q38 -222 170 -356.5t344 -134.5q222 0 364 144t179 390h121
q-43 -318 -228.5 -502t-474.5 -184q-144 0 -266.5 48t-210 134.5t-144 203.5t-77.5 257h-203v70h197q-5 72 -5 86q0 47 2 70h-194z" />
    <glyph glyph-name="uni20B9" unicode="&#x20b9;" horiz-adv-x="1335" 
d="M795 0l-695 809v84h240q390 0 412 252h-652v69h652q-22 250 -392 250h-260v86h1207l-13 -67h-542q95 -35 151.5 -102.5t63.5 -166.5h268l-12 -69h-256q-17 -160 -162 -242t-367 -82h-141l760 -807v-14h-262z" />
    <glyph glyph-name="uni20BA" unicode="&#x20ba;" horiz-adv-x="1527" 
d="M225 0v8q57 35 73.5 91.5t16.5 174.5v226l-229 -103v76l229 102v158l-229 -104v76l229 104v467q0 123 -16.5 177.5t-73.5 90.5v6h408v-6q-56 -37 -73 -91.5t-17 -176.5v-365l567 256v-75l-567 -256v-158l567 256v-76l-567 -256v-498l245 -2q253 0 368.5 132t115.5 401
h203q0 -312 -180 -473.5t-507 -161.5h-563z" />
    <glyph glyph-name="uni20BF" unicode="&#x20bf;" horiz-adv-x="1353" 
d="M471 -348v348h-346v8q54 35 70 91.5t16 174.5v1002q0 123 -16 177t-70 91v6h346v348h70v-348h94q39 0 57 -2v350h72v-354q200 -20 312 -105.5t112 -240.5q0 -149 -107.5 -237t-298.5 -109v-8q214 -18 347 -122t133 -286q0 -195 -131.5 -303t-366.5 -129v-352h-72v348h-45
h-106v-348h-70zM422 100h211q405 0 405 342q0 172 -110 261.5t-310 89.5h-196v-693zM422 891h192q165 0 264 76t99 217q0 266 -359 266h-196v-559z" />
    <glyph glyph-name="uni2113" unicode="&#x2113;" horiz-adv-x="1021" 
d="M623 1583q111 0 168 -72t57 -196q0 -162 -90 -322.5t-262 -298.5v-391q0 -229 98 -229q72 0 131.5 116t95.5 340l78 -16q-47 -280 -131.5 -410.5t-216.5 -130.5q-67 0 -115.5 26.5t-74.5 74t-38 103t-12 122.5v270q-108 -65 -237 -120l-33 73q148 65 270 142v477
q0 113 25.5 200t69.5 138.5t99 77.5t118 26zM496 809q228 222 231 500q4 190 -102 190q-61 0 -95 -85.5t-34 -256.5v-348z" />
    <glyph glyph-name="uni2116" unicode="&#x2116;" horiz-adv-x="1945" 
d="M999 0l-696 1282v-997q0 -125 15 -183t69 -94v-8h-268v8q43 36 56 95t13 182v991q0 123 -9.5 177t-41.5 91v6h228l698 -1282v998q0 123 -15.5 181.5t-66.5 94.5v8h266v-8q-43 -36 -56 -94.5t-13 -181.5v-1266h-179zM1343 1305q0 117 77.5 190.5t199.5 73.5
q121 0 197.5 -73.5t76.5 -190.5q0 -116 -76.5 -190.5t-197.5 -74.5t-199 74.5t-78 190.5zM1466 1305q0 -95 41 -148t113 -53q71 0 111.5 53t40.5 148q0 94 -40.5 146t-111.5 52q-73 0 -113.5 -51.5t-40.5 -146.5z" />
    <glyph glyph-name="uni2117" unicode="&#x2117;" horiz-adv-x="819" 
d="M281 1079q20 7 25 19.5t5 40.5v190q0 35 -4.5 47.5t-25.5 22.5v6h139q69 0 104 -21.5t35 -72.5q0 -94 -143 -94h-43v-78q0 -27 6.5 -40t28.5 -20v-4h-127v4zM90 1239q0 139 90 227t230 88t229.5 -88t89.5 -227t-89.5 -227t-229.5 -88t-230 88t-90 227zM143 1239
q0 -121 72 -195.5t195 -74.5q122 0 194 74.5t72 195.5q0 120 -72 195t-194 75q-123 0 -195 -75t-72 -195zM373 1247h43q82 0 82 64q0 61 -82 61h-43v-125z" />
    <glyph glyph-name="trademark" unicode="&#x2122;" horiz-adv-x="1525" 
d="M1001 952l-208 478v-267q0 -86 10 -127.5t45 -70.5v-7h-178v7q35 29 45 71t10 127v183q0 91 -10 130.5t-45 67.5v8h182l192 -438l185 438h182v-10q-34 -27 -43.5 -66t-9.5 -130v-183q0 -86 10 -127.5t45 -70.5v-7h-229v7q35 29 45 70.5t10 127.5v262l-203 -473h-35z
M55 1458v94h539v-94q-120 35 -199 35h-8v-330q0 -85 10 -127t45 -71v-7h-233v7q35 29 45 71t10 127v330h-10q-76 0 -199 -35z" />
    <glyph glyph-name="estimated" unicode="&#x212e;" horiz-adv-x="1656" 
d="M854 -33q-157 0 -298 53t-246 147t-166.5 231t-61.5 296q0 157 62 292t167 226.5t245.5 143t295.5 51.5q201 0 362 -87.5t257 -250.5t104 -375h-1213v-506q207 -182 492 -182q369 0 588 295h57q-106 -158 -275 -246t-370 -88zM362 737h930v465q-184 170 -440 170
q-291 0 -490 -180v-455z" />
    <glyph glyph-name="oneeighth" unicode="&#x215b;" horiz-adv-x="1925" 
d="M174 653v6q54 29 71 76t17 144v456q-29 -47 -92 -87.5t-143 -45.5v109q113 6 197 80.5t98 175.5h108v-688q0 -99 14.5 -145t65.5 -75v-6h-336zM141 0l1186 1550h123l-1184 -1550h-125zM1034 246q0 98 78 162.5t197 78.5q-114 17 -175 70.5t-61 140.5q0 106 98.5 167
t274.5 61q177 0 275 -60.5t98 -167.5q0 -176 -232 -211q120 -14 196.5 -78.5t76.5 -162.5q0 -127 -107.5 -196.5t-304.5 -69.5q-198 0 -306 69.5t-108 196.5zM1202 252q0 -97 62 -151t184 -54q121 0 182.5 54t61.5 151q0 92 -64 145.5t-180 53.5q-117 0 -181.5 -53.5
t-64.5 -145.5zM1233 694q0 -176 215 -176q213 0 213 176q0 76 -55 121t-158 45q-106 0 -160.5 -45t-54.5 -121z" />
    <glyph glyph-name="threeeighths" unicode="&#x215c;" horiz-adv-x="2183" 
d="M446 633q-175 0 -275.5 88t-111.5 242h93q7 -116 79 -179t187 -63t177 56.5t62 140.5q0 180 -251 180h-80v65h80q110 0 168.5 51.5t58.5 131.5q0 69 -47 112t-142 43q-99 0 -160.5 -55t-70.5 -154h-150q15 133 124.5 210t277.5 77q154 0 243 -63t89 -166
q0 -87 -69.5 -143t-190.5 -70q139 -11 216.5 -68.5t77.5 -161.5q0 -118 -105.5 -196t-279.5 -78zM399 0l1186 1550h123l-1184 -1550h-125zM1292 246q0 98 78 162.5t197 78.5q-114 17 -175 70.5t-61 140.5q0 106 98.5 167t274.5 61q177 0 275 -60.5t98 -167.5
q0 -176 -232 -211q120 -14 196.5 -78.5t76.5 -162.5q0 -127 -107.5 -196.5t-304.5 -69.5q-198 0 -306 69.5t-108 196.5zM1460 252q0 -97 62 -151t184 -54q121 0 182.5 54t61.5 151q0 92 -64 145.5t-180 53.5q-117 0 -181.5 -53.5t-64.5 -145.5zM1491 694q0 -176 215 -176
q213 0 213 176q0 76 -55 121t-158 45q-106 0 -160.5 -45t-54.5 -121z" />
    <glyph glyph-name="fiveeighths" unicode="&#x215d;" horiz-adv-x="2183" 
d="M446 633q-170 0 -274 84t-117 233h88q10 -112 81.5 -172.5t187.5 -60.5q113 0 176 62.5t63 166.5q0 110 -63.5 167.5t-167.5 57.5q-163 0 -246 -108l-74 29l78 469h598v-119h-538l-50 -309q105 122 306 122q151 0 239 -81t88 -226q0 -144 -102 -229.5t-273 -85.5zM399 0
l1186 1550h123l-1184 -1550h-125zM1292 246q0 98 78 162.5t197 78.5q-114 17 -175 70.5t-61 140.5q0 106 98.5 167t274.5 61q177 0 275 -60.5t98 -167.5q0 -176 -232 -211q120 -14 196.5 -78.5t76.5 -162.5q0 -127 -107.5 -196.5t-304.5 -69.5q-198 0 -306 69.5t-108 196.5z
M1460 252q0 -97 62 -151t184 -54q121 0 182.5 54t61.5 151q0 92 -64 145.5t-180 53.5q-117 0 -181.5 -53.5t-64.5 -145.5zM1491 694q0 -176 215 -176q213 0 213 176q0 76 -55 121t-158 45q-106 0 -160.5 -45t-54.5 -121z" />
    <glyph glyph-name="seveneighths" unicode="&#x215e;" horiz-adv-x="1970" 
d="M80 655l536 775h-585v131h721l2 -54l-488 -852h-186zM186 0l1186 1550h123l-1184 -1550h-125zM1079 246q0 98 78 162.5t197 78.5q-114 17 -175 70.5t-61 140.5q0 106 98.5 167t274.5 61q177 0 275 -60.5t98 -167.5q0 -176 -232 -211q120 -14 196.5 -78.5t76.5 -162.5
q0 -127 -107.5 -196.5t-304.5 -69.5q-198 0 -306 69.5t-108 196.5zM1247 252q0 -97 62 -151t184 -54q121 0 182.5 54t61.5 151q0 92 -64 145.5t-180 53.5q-117 0 -181.5 -53.5t-64.5 -145.5zM1278 694q0 -176 215 -176q213 0 213 176q0 76 -55 121t-158 45
q-106 0 -160.5 -45t-54.5 -121z" />
    <glyph glyph-name="arrowleft" unicode="&#x2190;" horiz-adv-x="1474" 
d="M721 63l-631 469l631 467l61 -81l-534 -349l1130 17v-109l-1128 17l532 -349z" />
    <glyph glyph-name="arrowup" unicode="&#x2191;" horiz-adv-x="1112" 
d="M1024 635l-82 -62l-348 533l16 -1129h-108l16 1131l-348 -535l-82 62l467 631z" />
    <glyph glyph-name="arrowright" unicode="&#x2192;" horiz-adv-x="1474" 
d="M756 63l-62 82l533 349l-1129 -17v109l1131 -17l-535 349l62 81l630 -467z" />
    <glyph glyph-name="arrowdown" unicode="&#x2193;" horiz-adv-x="1107" 
d="M1022 604l-469 -631l-467 631l82 62l348 -535l-16 1131h108l-16 -1129l348 533z" />
    <glyph glyph-name="arrowboth" unicode="&#x2194;" horiz-adv-x="1683" 
d="M688 63l-602 469l602 467l57 -84l-497 -342h1188l-498 342l57 84l602 -467l-602 -469l-57 84l496 342h-1184l495 -342z" />
    <glyph glyph-name="arrowupdn" unicode="&#x2195;" horiz-adv-x="1132" 
d="M100 905l469 602l467 -602l-84 -57l-342 498v-1188l342 497l84 -57l-467 -602l-469 602l84 57l342 -495v1183l-342 -495z" />
    <glyph glyph-name="uni2196" unicode="&#x2196;" horiz-adv-x="1077" 
d="M195 188l-113 779l776 -117l-14 -102l-625 131l811 -787l-78 -76l-784 809l129 -622z" />
    <glyph glyph-name="uni2197" unicode="&#x2197;" horiz-adv-x="1075" 
d="M877 188l-101 15l129 622l-786 -809l-76 76l809 787l-623 -131l-14 102l776 117z" />
    <glyph glyph-name="uni2198" unicode="&#x2198;" horiz-adv-x="1079" 
d="M885 801l112 -778l-776 116l15 101l628 -134l-815 789l78 78l784 -809l-129 622z" />
    <glyph glyph-name="uni2199" unicode="&#x2199;" horiz-adv-x="1079" 
d="M197 797l100 -15l-129 -622l786 809l76 -76l-809 -787l623 132l14 -103l-776 -117z" />
    <glyph glyph-name="partialdiff" unicode="&#x2202;" horiz-adv-x="1329" 
d="M592 -31q-224 0 -358 127.5t-134 347.5q0 128 42 233.5t114.5 174.5t167 107t201.5 38q142 0 243.5 -69.5t145.5 -190.5q-8 325 -173.5 518.5t-490.5 223.5l23 94q170 -10 310.5 -58t241 -126t169.5 -182.5t102 -226.5t33 -259q0 -120 -25.5 -230t-78 -205.5
t-127.5 -165.5t-179 -110.5t-227 -40.5zM317 420q0 -162 73.5 -256t209.5 -94q161 0 262.5 123.5t134.5 322.5q9 163 -77.5 265t-227.5 102q-166 0 -270.5 -127t-104.5 -336z" />
    <glyph glyph-name="uni2206" unicode="&#x2206;" horiz-adv-x="1308" 
d="M4 0v76l547 1474h197l557 -1474v-76h-1301zM147 104h910l-449 1280z" />
    <glyph glyph-name="product" unicode="&#x220f;" horiz-adv-x="1525" 
d="M334 1335q-33 65 -88.5 86t-184.5 29v100h1405v-100q-127 -8 -181 -29t-89 -86v-1673h-203v1774h-456v-1774h-203v1673z" />
    <glyph glyph-name="summation" unicode="&#x2211;" horiz-adv-x="1222" 
d="M51 -211v131l637 764l-604 735v131h1069v-180q-159 48 -266.5 66t-214.5 18h-404l578 -709v-51l-617 -733h942v-172h-1120z" />
    <glyph glyph-name="minus" unicode="&#x2212;" horiz-adv-x="1175" 
d="M125 477v107h926v-105z" />
    <glyph glyph-name="uni2219" unicode="&#x2219;" horiz-adv-x="1198" 
d="M600 582q-89 0 -150 61t-61 150q0 88 61 148t150 60q88 0 148.5 -60t60.5 -148q0 -89 -60.5 -150t-148.5 -61z" />
    <glyph glyph-name="radical" unicode="&#x221a;" horiz-adv-x="1216" 
d="M551 -340l-328 979h-200v102h319l291 -913l631 1911h100l-700 -2079h-113z" />
    <glyph glyph-name="infinity" unicode="&#x221e;" horiz-adv-x="2052" 
d="M1554 117q-132 0 -246 73t-282 259q-168 -186 -282 -259t-246 -73q-72 0 -134.5 24t-112.5 73t-79 131t-29 190q0 107 29 188.5t79.5 130t113 72.5t135.5 24q130 0 241.5 -73.5t284.5 -262.5q174 189 285.5 262.5t242.5 73.5q72 0 134.5 -24t112.5 -72.5t79 -130
t29 -188.5q0 -108 -29 -190t-79 -131t-112.5 -73t-134.5 -24zM250 535q0 -86 21 -150t58 -99t80 -51t93 -16q98 0 188 60.5t232 218.5l30 34l-32 37q-139 158 -228.5 218.5t-187.5 60.5q-51 0 -94.5 -15.5t-80.5 -50t-58 -98t-21 -149.5zM1100 532l33 -34
q139 -156 228.5 -217.5t188.5 -61.5q50 0 93.5 16t80.5 51t58.5 99t21.5 150t-21.5 149.5t-58.5 97.5t-80 50t-94 16q-99 0 -188.5 -61.5t-228.5 -217.5z" />
    <glyph glyph-name="integral" unicode="&#x222b;" horiz-adv-x="786" 
d="M-82 -385v106h107q135 0 197.5 70t74.5 248l86 1210q15 222 103 323t272 101h110v-106h-90q-135 0 -197.5 -69.5t-74.5 -248.5l-86 -1210q-15 -223 -102.5 -323.5t-268.5 -100.5h-131z" />
    <glyph glyph-name="approxequal" unicode="&#x2248;" horiz-adv-x="1191" 
d="M106 553q0 149 69.5 228t189.5 79q58 0 110 -20t91.5 -49t77.5 -58t85.5 -49t99.5 -20q152 0 152 196h106q0 -149 -70 -228t-190 -79q-60 0 -112.5 20t-92 48.5t-77 57.5t-84.5 49t-99 20q-149 0 -149 -195h-107zM106 156q0 149 69.5 228t189.5 79q58 0 110 -20.5
t91.5 -49.5t77.5 -57.5t85.5 -49t99.5 -20.5q152 0 152 197h106q0 -149 -70 -228t-190 -79q-60 0 -112.5 20t-92 48.5t-77 57t-84.5 48.5t-99 20q-149 0 -149 -194h-107z" />
    <glyph glyph-name="notequal" unicode="&#x2260;" horiz-adv-x="1175" 
d="M266 -45l-51 27l186 319h-276v105h338l145 251l-483 -2v105h545l202 348l52 -27l-189 -321h316v-103h-375l-148 -251h523v-103l-582 -2z" />
    <glyph glyph-name="lessequal" unicode="&#x2264;" horiz-adv-x="1175" 
d="M1036 199l-923 327v82l923 328v-107l-772 -262l772 -262v-106zM113 0v98l923 -2v-96h-923z" />
    <glyph glyph-name="greaterequal" unicode="&#x2265;" horiz-adv-x="1175" 
d="M139 199v106l772 262l-772 262v107l924 -328v-82zM139 0v96l924 2v-98h-924z" />
    <glyph glyph-name="uni2460" unicode="&#x2460;" horiz-adv-x="1888" 
d="M944 -20q-245 0 -436 102.5t-296.5 287t-105.5 421.5q0 236 105.5 419.5t296.5 285t436 101.5t436 -101.5t296.5 -285t105.5 -419.5q0 -237 -105.5 -421.5t-296.5 -287t-436 -102.5zM180 791q0 -162 56 -300.5t155.5 -236t242 -152.5t310.5 -55t310.5 55t242 152.5
t155.5 236t56 300.5q0 327 -212.5 533t-551.5 206t-551.5 -206t-212.5 -533zM651 891v108q113 6 197 80.5t98 175.5h109v-688q0 -99 14.5 -144.5t65.5 -74.5v-6h-336v6q54 29 71 75.5t17 143.5v457q-29 -47 -92.5 -87.5t-143.5 -45.5z" />
    <glyph glyph-name="uni2461" unicode="&#x2461;" horiz-adv-x="1888" 
d="M944 -20q-245 0 -436 102.5t-296.5 287t-105.5 421.5q0 236 105.5 419.5t296.5 285t436 101.5t436 -101.5t296.5 -285t105.5 -419.5q0 -237 -105.5 -421.5t-296.5 -287t-436 -102.5zM180 791q0 -162 56 -300.5t155.5 -236t242 -152.5t310.5 -55t310.5 55t242 152.5
t155.5 236t56 300.5q0 327 -212.5 533t-551.5 206t-551.5 -206t-212.5 -533zM565 911q6 155 112.5 258t287.5 103q149 0 239 -66.5t90 -187.5q0 -28 -7 -54t-15.5 -46.5t-28.5 -42.5t-33.5 -36.5t-44 -34.5t-46.5 -30t-54.5 -29.5t-54 -27t-58.5 -27.5
q-114 -54 -180.5 -104.5t-77.5 -112.5h629v-127h-752v23q0 67 24 124t70 103t91 78t110 69q141 78 201.5 137t60.5 144q0 80 -47.5 125t-130.5 45q-112 0 -172.5 -77.5t-60.5 -205.5h-152z" />
    <glyph glyph-name="uni2462" unicode="&#x2462;" horiz-adv-x="1888" 
d="M944 -20q-245 0 -436 102.5t-296.5 287t-105.5 421.5q0 236 105.5 419.5t296.5 285t436 101.5t436 -101.5t296.5 -285t105.5 -419.5q0 -237 -105.5 -421.5t-296.5 -287t-436 -102.5zM180 791q0 -162 56 -300.5t155.5 -236t242 -152.5t310.5 -55t310.5 55t242 152.5
t155.5 236t56 300.5q0 327 -212.5 533t-551.5 206t-551.5 -206t-212.5 -533zM557 651h92q7 -116 79 -178.5t187 -62.5t177.5 56t62.5 140q0 180 -252 180h-80v66h80q110 0 168.5 51t58.5 131q0 69 -46.5 112.5t-141.5 43.5q-99 0 -160.5 -55t-70.5 -154h-150
q15 133 124.5 210t277.5 77q154 0 242.5 -63.5t88.5 -166.5q0 -87 -69.5 -143t-190.5 -70q140 -11 217.5 -68t77.5 -161q0 -118 -105.5 -196t-279.5 -78q-175 0 -275.5 87.5t-111.5 241.5z" />
    <glyph glyph-name="uni2463" unicode="&#x2463;" horiz-adv-x="1888" 
d="M944 -20q-245 0 -436 102.5t-296.5 287t-105.5 421.5q0 236 105.5 419.5t296.5 285t436 101.5t436 -101.5t296.5 -285t105.5 -419.5q0 -237 -105.5 -421.5t-296.5 -287t-436 -102.5zM180 791q0 -162 56 -300.5t155.5 -236t242 -152.5t310.5 -55t310.5 55t242 152.5
t155.5 236t56 300.5q0 327 -212.5 533t-551.5 206t-551.5 -206t-212.5 -533zM471 561v84l543 615h135v-588h186v-111h-186v-47q0 -61 13.5 -96t51.5 -60v-10h-296v10q38 25 50.5 59.5t12.5 96.5v47h-510zM594 672h387v444z" />
    <glyph glyph-name="uni2464" unicode="&#x2464;" horiz-adv-x="1888" 
d="M944 -20q-245 0 -436 102.5t-296.5 287t-105.5 421.5q0 236 105.5 419.5t296.5 285t436 101.5t436 -101.5t296.5 -285t105.5 -419.5q0 -237 -105.5 -421.5t-296.5 -287t-436 -102.5zM180 791q0 -162 56 -300.5t155.5 -236t242 -152.5t310.5 -55t310.5 55t242 152.5
t155.5 236t56 300.5q0 327 -212.5 533t-551.5 206t-551.5 -206t-212.5 -533zM555 639h88q10 -112 81 -172.5t187 -60.5q113 0 176.5 63t63.5 166q0 110 -63.5 167.5t-167.5 57.5q-163 0 -246 -108l-74 28l78 469h598v-119h-539l-49 -309q52 61 132 92t173 31
q151 0 239.5 -81t88.5 -226q0 -144 -102 -229.5t-273 -85.5q-170 0 -274 84t-117 233z" />
    <glyph glyph-name="uni2465" unicode="&#x2465;" horiz-adv-x="1888" 
d="M944 -20q-245 0 -436 102.5t-296.5 287t-105.5 421.5q0 236 105.5 419.5t296.5 285t436 101.5t436 -101.5t296.5 -285t105.5 -419.5q0 -237 -105.5 -421.5t-296.5 -287t-436 -102.5zM180 791q0 -162 56 -300.5t155.5 -236t242 -152.5t310.5 -55t310.5 55t242 152.5
t155.5 236t56 300.5q0 327 -212.5 533t-551.5 206t-551.5 -206t-212.5 -533zM543 778q0 219 114 355.5t312 136.5q146 0 242 -78.5t116 -210.5h-88q-14 95 -80 151t-166 56q-135 0 -208 -102t-76 -283q-3 -47 8 -105q23 103 110.5 165.5t198.5 62.5q130 0 217.5 -79
t87.5 -210q0 -143 -104.5 -228t-272.5 -85q-196 0 -303.5 123t-107.5 331zM725 614q47 -221 227 -221q95 0 155 62t60 170q0 106 -56.5 164.5t-145.5 58.5q-94 0 -163.5 -63.5t-76.5 -170.5z" />
    <glyph glyph-name="uni2466" unicode="&#x2466;" horiz-adv-x="1888" 
d="M944 -20q-245 0 -436 102.5t-296.5 287t-105.5 421.5q0 236 105.5 419.5t296.5 285t436 101.5t436 -101.5t296.5 -285t105.5 -419.5q0 -237 -105.5 -421.5t-296.5 -287t-436 -102.5zM180 791q0 -162 56 -300.5t155.5 -236t242 -152.5t310.5 -55t310.5 55t242 152.5
t155.5 236t56 300.5q0 327 -212.5 533t-551.5 206t-551.5 -206t-212.5 -533zM600 1092v131h721l2 -54l-487 -852h-187l537 775h-586z" />
    <glyph glyph-name="uni2467" unicode="&#x2467;" horiz-adv-x="1888" 
d="M944 -20q-245 0 -436 102.5t-296.5 287t-105.5 421.5q0 236 105.5 419.5t296.5 285t436 101.5t436 -101.5t296.5 -285t105.5 -419.5q0 -237 -105.5 -421.5t-296.5 -287t-436 -102.5zM180 791q0 -162 56 -300.5t155.5 -236t242 -152.5t310.5 -55t310.5 55t242 152.5
t155.5 236t56 300.5q0 327 -212.5 533t-551.5 206t-551.5 -206t-212.5 -533zM528 588q0 98 78 162.5t197 78.5q-114 17 -175 70.5t-61 140.5q0 106 98.5 167t274.5 61q177 0 275 -60.5t98 -167.5q0 -176 -232 -211q120 -14 196.5 -78.5t76.5 -162.5q0 -127 -107.5 -196.5
t-304.5 -69.5q-198 0 -306 69.5t-108 196.5zM696 594q0 -97 62 -151t184 -54q121 0 182.5 54t61.5 151q0 92 -64 145.5t-180 53.5q-117 0 -181.5 -53.5t-64.5 -145.5zM727 1036q0 -176 215 -176q213 0 213 176q0 76 -55 121t-158 45q-106 0 -160.5 -45t-54.5 -121z" />
    <glyph glyph-name="uni2468" unicode="&#x2468;" horiz-adv-x="1888" 
d="M944 -20q-245 0 -436 102.5t-296.5 287t-105.5 421.5q0 236 105.5 419.5t296.5 285t436 101.5t436 -101.5t296.5 -285t105.5 -419.5q0 -237 -105.5 -421.5t-296.5 -287t-436 -102.5zM180 791q0 -162 56 -300.5t155.5 -236t242 -152.5t310.5 -55t310.5 55t242 152.5
t155.5 236t56 300.5q0 327 -212.5 533t-551.5 206t-551.5 -206t-212.5 -533zM553 950q0 143 104.5 228.5t272.5 85.5q196 0 303.5 -123.5t107.5 -333.5q0 -217 -114 -353.5t-312 -136.5q-146 0 -242 78.5t-116 210.5h88q14 -95 80 -151t166 -56q135 0 208.5 102t76.5 283
q2 43 -9 105q-23 -103 -110 -165t-199 -62q-130 0 -217.5 78.5t-87.5 209.5zM717 963q0 -106 57 -165t146 -59q94 0 163 63.5t76 170.5q-47 221 -227 221q-95 0 -155 -61.5t-60 -169.5z" />
    <glyph glyph-name="uni24EA" unicode="&#x24ea;" horiz-adv-x="1888" 
d="M944 -20q-245 0 -436 102.5t-296.5 287t-105.5 421.5q0 236 105.5 419.5t296.5 285t436 101.5t436 -101.5t296.5 -285t105.5 -419.5q0 -237 -105.5 -421.5t-296.5 -287t-436 -102.5zM180 791q0 -162 56 -300.5t155.5 -236t242 -152.5t310.5 -55t310.5 55t242 152.5
t155.5 236t56 300.5q0 327 -212.5 533t-551.5 206t-551.5 -206t-212.5 -533zM516 795q0 216 115 345.5t313 129.5q199 0 314.5 -129.5t115.5 -345.5q0 -214 -115.5 -342.5t-314.5 -128.5q-198 0 -313 128.5t-115 342.5zM682 795q0 -186 69 -290t193 -104q126 0 195 103.5
t69 290.5q0 189 -69 293t-195 104q-125 0 -193.5 -104t-68.5 -293z" />
    <glyph glyph-name="uni24FF" unicode="&#x24ff;" horiz-adv-x="1888" 
d="M944 -20q245 0 436 102.5t296.5 287t105.5 421.5q0 236 -105.5 419.5t-296.5 285t-436 101.5t-436 -101.5t-296.5 -285t-105.5 -419.5q0 -237 105.5 -421.5t296.5 -287t436 -102.5zM516 797q0 216 115 345.5t313 129.5q199 0 314.5 -129.5t115.5 -345.5
q0 -214 -115.5 -342.5t-314.5 -128.5q-198 0 -313 128.5t-115 342.5zM682 797q0 -186 69 -290t193 -104q126 0 195 103.5t69 290.5q0 189 -69 293t-195 104q-125 0 -193.5 -104t-68.5 -293z" />
    <glyph glyph-name="lozenge" unicode="&#x25ca;" horiz-adv-x="1148" 
d="M549 0l-447 776l447 776h51l447 -776l-447 -776h-51zM209 813l387 -678l346 606l-389 676z" />
    <glyph glyph-name="circle" unicode="&#x25cb;" horiz-adv-x="1888" 
d="M944 -20q-245 0 -436 102.5t-296.5 287t-105.5 421.5q0 236 105.5 419.5t296.5 285t436 101.5t436 -101.5t296.5 -285t105.5 -419.5q0 -237 -105.5 -421.5t-296.5 -287t-436 -102.5zM180 791q0 -162 56 -300.5t155.5 -236t242 -152.5t310.5 -55t310.5 55t242 152.5
t155.5 236t56 300.5q0 327 -212.5 533t-551.5 206t-551.5 -206t-212.5 -533z" />
    <glyph glyph-name="uni25CF" unicode="&#x25cf;" horiz-adv-x="1888" 
d="M944 -20q245 0 436 102.5t296.5 287t105.5 421.5q0 236 -105.5 419.5t-296.5 285t-436 101.5t-436 -101.5t-296.5 -285t-105.5 -419.5q0 -237 105.5 -421.5t296.5 -287t436 -102.5z" />
    <glyph glyph-name="uni2733" unicode="&#x2733;" horiz-adv-x="1581" 
d="M356 209l-137 135l500 404l-637 -70v194l637 -67l-500 403l137 135l408 -505l-70 647h195l-72 -647l408 505l137 -135l-500 -403l637 67v-194l-637 70l500 -404l-137 -135l-408 506l72 -647h-195l70 647z" />
    <glyph glyph-name="uni2776" unicode="&#x2776;" horiz-adv-x="1888" 
d="M944 -20q245 0 436 102.5t296.5 287t105.5 421.5q0 236 -105.5 419.5t-296.5 285t-436 101.5t-436 -101.5t-296.5 -285t-105.5 -419.5q0 -237 105.5 -421.5t296.5 -287t436 -102.5zM649 893v108q113 6 197 80.5t98 175.5h109v-688q0 -99 14.5 -144.5t65.5 -74.5v-6h-336
v6q54 29 71 75.5t17 143.5v457q-29 -47 -92.5 -87.5t-143.5 -45.5z" />
    <glyph glyph-name="uni2777" unicode="&#x2777;" horiz-adv-x="1888" 
d="M944 -20q245 0 436 102.5t296.5 287t105.5 421.5q0 236 -105.5 419.5t-296.5 285t-436 101.5t-436 -101.5t-296.5 -285t-105.5 -419.5q0 -237 105.5 -421.5t296.5 -287t436 -102.5zM573 909q6 155 112.5 258t287.5 103q149 0 239.5 -66.5t90.5 -187.5q0 -28 -7 -54
t-15.5 -46.5t-28.5 -42.5t-33.5 -36.5t-44 -34.5t-46.5 -30t-54.5 -29.5t-54 -27t-58.5 -27.5q-74 -35 -123 -64t-88.5 -69.5t-47.5 -83.5h629v-127h-751v23q0 54 17 102.5t43 85t67.5 72.5t78.5 60.5t88 53.5q141 78 202 137t61 144q0 79 -48 124.5t-131 45.5
q-112 0 -172.5 -77.5t-60.5 -205.5h-152z" />
    <glyph glyph-name="uni2778" unicode="&#x2778;" horiz-adv-x="1888" 
d="M944 -20q245 0 436 102.5t296.5 287t105.5 421.5q0 236 -105.5 419.5t-296.5 285t-436 101.5t-436 -101.5t-296.5 -285t-105.5 -419.5q0 -237 105.5 -421.5t296.5 -287t436 -102.5zM557 645h92q7 -116 79 -179t187 -63t177.5 56.5t62.5 140.5q0 180 -252 180h-80v66h80
q110 0 168.5 51t58.5 131q0 69 -46.5 112.5t-141.5 43.5q-99 0 -160.5 -55t-70.5 -154h-150q15 133 124.5 210t277.5 77q154 0 242.5 -63.5t88.5 -166.5q0 -87 -69.5 -143t-190.5 -70q140 -11 217.5 -68t77.5 -161q0 -118 -106 -196.5t-279 -78.5q-175 0 -275.5 88
t-111.5 242z" />
    <glyph glyph-name="uni2779" unicode="&#x2779;" horiz-adv-x="1888" 
d="M944 -20q245 0 436 102.5t296.5 287t105.5 421.5q0 236 -105.5 419.5t-296.5 285t-436 101.5t-436 -101.5t-296.5 -285t-105.5 -419.5q0 -237 105.5 -421.5t296.5 -287t436 -102.5zM457 565v84l542 615h136v-588h186v-111h-186v-47q0 -61 13.5 -96t51.5 -60v-10h-297v10
q38 25 51 59.5t13 96.5v47h-510zM580 676h387v444z" />
    <glyph glyph-name="uni277A" unicode="&#x277a;" horiz-adv-x="1888" 
d="M944 -20q245 0 436 102.5t296.5 287t105.5 421.5q0 236 -105.5 419.5t-296.5 285t-436 101.5t-436 -101.5t-296.5 -285t-105.5 -419.5q0 -237 105.5 -421.5t296.5 -287t436 -102.5zM561 639h88q10 -112 81.5 -172.5t187.5 -60.5q113 0 176 62.5t63 166.5
q0 110 -63.5 167.5t-167.5 57.5q-163 0 -246 -108l-74 28l78 469h598v-119h-539l-49 -309q52 61 132 92t173 31q151 0 239.5 -81t88.5 -226q0 -144 -102 -229.5t-273 -85.5q-170 0 -274 84t-117 233z" />
    <glyph glyph-name="uni277B" unicode="&#x277b;" horiz-adv-x="1888" 
d="M944 -20q245 0 436 102.5t296.5 287t105.5 421.5q0 236 -105.5 419.5t-296.5 285t-436 101.5t-436 -101.5t-296.5 -285t-105.5 -419.5q0 -237 105.5 -421.5t296.5 -287t436 -102.5zM547 772q0 219 114 355.5t312 136.5q146 0 242 -78.5t116 -210.5h-88q-14 95 -80 151
t-166 56q-135 0 -208 -102t-76 -283q-3 -47 8 -105q23 103 110.5 165.5t198.5 62.5q130 0 217.5 -79t87.5 -210q0 -143 -104.5 -228.5t-272.5 -85.5q-196 0 -303.5 123.5t-107.5 331.5zM729 608q47 -221 227 -221q95 0 155 61.5t60 169.5q0 106 -57 165t-145 59
q-94 0 -163.5 -63.5t-76.5 -170.5z" />
    <glyph glyph-name="uni277C" unicode="&#x277c;" horiz-adv-x="1888" 
d="M944 -20q245 0 436 102.5t296.5 287t105.5 421.5q0 236 -105.5 419.5t-296.5 285t-436 101.5t-436 -101.5t-296.5 -285t-105.5 -419.5q0 -237 105.5 -421.5t296.5 -287t436 -102.5zM602 1090v131h721l2 -54l-487 -852h-187l537 775h-586z" />
    <glyph glyph-name="uni277D" unicode="&#x277d;" horiz-adv-x="1888" 
d="M944 -20q245 0 436 102.5t296.5 287t105.5 421.5q0 236 -105.5 419.5t-296.5 285t-436 101.5t-436 -101.5t-296.5 -285t-105.5 -419.5q0 -237 105.5 -421.5t296.5 -287t436 -102.5zM532 573q0 98 78 163t197 79q-114 17 -175 70.5t-61 140.5q0 106 98.5 166.5t274.5 60.5
q177 0 275 -60.5t98 -166.5q0 -176 -232 -211q119 -14 196 -79t77 -163q0 -127 -107.5 -196.5t-304.5 -69.5q-198 0 -306 69.5t-108 196.5zM700 580q0 -97 62 -151t184 -54q121 0 182.5 54t61.5 151q0 92 -64 145t-180 53q-117 0 -181.5 -53t-64.5 -145zM731 1022
q0 -176 215 -176q213 0 213 176q0 76 -55 121t-158 45q-106 0 -160.5 -45t-54.5 -121z" />
    <glyph glyph-name="uni277E" unicode="&#x277e;" horiz-adv-x="1888" 
d="M944 -20q245 0 436 102.5t296.5 287t105.5 421.5q0 236 -105.5 419.5t-296.5 285t-436 101.5t-436 -101.5t-296.5 -285t-105.5 -419.5q0 -237 105.5 -421.5t296.5 -287t436 -102.5zM559 944q0 143 104.5 228t272.5 85q196 0 304 -123.5t108 -332.5q0 -217 -114 -353.5
t-312 -136.5q-146 0 -242.5 78.5t-116.5 210.5h88q14 -95 80 -151t166 -56q135 0 208.5 102t76.5 283q3 47 -8 105q-23 -103 -110.5 -165.5t-199.5 -62.5q-130 0 -217.5 79t-87.5 210zM723 956q0 -106 57 -164.5t146 -58.5q94 0 163 63.5t76 170.5q-47 221 -227 221
q-95 0 -155 -62t-60 -170z" />
    <glyph glyph-name="uni3010" unicode="&#x3010;" horiz-adv-x="792" 
d="M170 -272v1939h553q-469 -351 -469 -967q0 -618 469 -972h-553z" />
    <glyph glyph-name="uni3011" unicode="&#x3011;" horiz-adv-x="792" 
d="M623 1665v-1939h-553q469 351 469 966q0 619 -469 973h553z" />
    <glyph glyph-name="uni3016" unicode="&#x3016;" horiz-adv-x="933" 
d="M170 -272v1939h694q-229 -177 -340.5 -416t-111.5 -551q0 -627 452 -972h-694zM240 -215h469q-367 339 -367 915q0 571 365 908h-467v-1823z" />
    <glyph glyph-name="uni3017" unicode="&#x3017;" horiz-adv-x="933" 
d="M70 -272q452 345 452 972q0 312 -111.5 551t-340.5 416h694v-1939h-694zM225 -215h469v1823h-467q365 -337 365 -908q0 -576 -367 -915z" />
    <glyph glyph-name="fi" unicode="&#xfb01;" horiz-adv-x="1257" 
d="M152 0v8q51 35 66 91.5t15 174.5v631h-215v96h215v121q0 129 33 226t92 154t134 84.5t165 27.5q179 0 293 -99t142 -266h-193q-16 123 -79 197t-167 74q-225 0 -225 -316q0 -106 10 -203h670v-727q0 -119 15.5 -175.5t66.5 -92.5v-6h-371v8q50 35 65 91.5t15 174.5l2 631
h-459v-626q0 -119 17.5 -177.5t72.5 -93.5v-8h-380z" />
    <glyph glyph-name="u1F150" unicode="&#x1f150;" horiz-adv-x="1171" 
d="M586 717q-181 0 -306.5 123.5t-125.5 308.5q0 183 125.5 306.5t306.5 123.5t306.5 -123.5t125.5 -306.5q0 -185 -125.5 -308.5t-306.5 -123.5z" />
    <glyph glyph-name="u1F446" unicode="&#x1f446;" horiz-adv-x="1894" 
d="M205 565q-7 82 39 133q25 28 57.5 46t44.5 30q4 12 -1 43t-3 51q10 72 71.5 117t127.5 6q-14 68 28 129.5t109 71.5q68 11 124 -35.5t93 -120.5q3 84 3.5 170.5t-0.5 205t-1 167.5q0 125 4 186q0 50 29 97q1 16 5 31.5t14 34t31.5 29t51.5 9.5q21 -1 35.5 -7.5t25 -22
t14 -24t11.5 -30.5q40 -40 49 -135q4 -50 13 -215q10 -206 49 -606q29 113 96 180q63 63 178 86q71 13 117 0q12 19 27.5 28.5t28 4t14.5 -28.5q3 -51 -30 -128t-71 -138q-30 -47 -45 -78q-18 -48 -31 -125q-23 -128 -28 -227q-11 -148 -36.5 -244t-84.5 -195
q-23 -39 -58 -84.5t-59 -83t-37 -79.5q-33 -112 -43 -162q55 -1 70.5 -33t9.5 -117q-4 -38 -6 -80.5t-3.5 -94.5t-2.5 -81q-28 -27 -65 -46t-81 -29t-75.5 -14.5t-75.5 -8.5q-224 -15 -346 10q-33 7 -55 12.5t-55 16.5t-56 23t-46.5 31.5t-37.5 43.5q-10 16 -14 31t-4 22.5
t2.5 29t3.5 30.5l8 108q2 33 12 74l8 33q3 6 8.5 18.5t11 22t11.5 14.5q10 13 25 17q-8 43 -20 84t-33.5 103.5t-28.5 84.5q-57 172 -70 319q-2 21 -3 75t-7 81q-4 25 -24.5 67t-22.5 66zM240 590q0 -55 39 -127q79 -159 196 -172q-3 19 28 56t60 40q0 6 -4 10
q-89 93 -119 172q-5 14 -15.5 44t-17.5 48t-20 41.5t-29 40.5q-52 -31 -59 -38q-59 -59 -59 -115zM287 387q3 -107 18 -188q6 -30 51 -217q10 -43 39 -119t45.5 -141.5t12.5 -127.5q164 -58 356 -65q204 -8 340 57q-1 20 -1.5 34.5t0 30t0.5 23.5t3 24t3.5 21t6 25t7.5 25.5
t10.5 32.5t11.5 38q14 45 38.5 84.5t57 80t43.5 58.5q36 55 64 134q50 143 59 319q5 82 27 207q15 110 47 176q4 7 18 29t17 33q-20 25 -14 64.5t22 73.5t37 62q-31 4 -70 0q-86 -8 -154 -53t-100 -117q-34 -73 -63 -178q-4 -15 -15.5 -83t-27.5 -101l-37 -99h-11
q3 27 19 67.5t20 55.5q9 35 9 68q0 20 4 41.5t11.5 52t10.5 43.5q-6 109 -23 296.5t-22 260.5q-18 238 -18 240q-2 118 -23.5 167t-79.5 50q-53 2 -80.5 -38t-27.5 -122v-428q0 -257 -6 -342q0 -10 -2 -39.5t-2 -43t2 -36t8 -41.5q6 -21 31.5 -62t33.5 -67
q10 -32 15.5 -66.5t2.5 -69t-18 -48.5q-27 -27 -76.5 -21t-70.5 37q-23 -62 -34.5 -99.5t-21.5 -94.5t-6 -107q5 -75 35 -138.5t86 -92.5v-12q-63 29 -98 94t-43 143q-11 129 47 318l-37 22q5 -76 -49 -127t-127 -18q9 -42 -16 -78q-32 -29 -79.5 -35t-82.5 10
q-75 33 -133 117zM373 846q0 -11 5 -36t3 -40q34 -37 64 -119.5t51 -111.5q5 -7 18.5 -27.5t21.5 -31.5t20.5 -27t25.5 -27t26 -18q-7 20 4 38q15 23 101 48q22 7 26 2q7 39 -6 57q-47 62 -84 182t-63 164q-50 82 -115 76q-42 -6 -70 -40t-28 -89zM575 1067q-4 -12 -6 -23
t0.5 -23.5t3.5 -19t9 -21.5t9.5 -18t12.5 -21t12 -19q23 -36 39.5 -88.5t25.5 -94t31 -89.5t56 -81q38 -38 66 -45q-7 12 -3 29.5t17 24.5l63 36q38 21 58 19q-13 33 -25 45q-54 64 -70 131q-15 56 -22 152h16q11 -58 17 -84q0 27 10 135q-124 204 -248 139q-49 -25 -72 -84
z" />
    <glyph glyph-name="u1F447" unicode="&#x1f447;" horiz-adv-x="1894" 
d="M205 541q2 24 22.5 66t24.5 67q6 27 7 80.5t3 74.5q13 149 70 320q7 22 28.5 84.5t33.5 103.5t20 84q-15 4 -25 17q-6 5 -11.5 14.5t-11 22t-8.5 18.5l-8 33q-10 42 -12 73l-8 109q-1 10 -3 25.5t-2.5 23t0.5 19t5 22t12 23.5q14 24 37.5 43.5t46.5 31.5t56 23t55 16.5
t55 12.5q122 25 346 10q44 -4 75.5 -8.5t75.5 -14.5t81 -29t65 -46q1 -29 2.5 -81t3.5 -94.5t6 -80.5q6 -85 -9.5 -117t-70.5 -33q10 -50 43 -162q17 -56 76.5 -137t77.5 -111q59 -99 84.5 -195t36.5 -243q5 -99 28 -227q13 -77 31 -125q15 -31 45 -78q38 -61 71 -138
t30 -128q-2 -23 -14.5 -28.5t-28 4t-27.5 28.5q-46 -13 -117 0q-115 23 -178 86q-67 67 -96 180q-39 -400 -49 -606q-9 -165 -13 -215q-9 -95 -49 -135q-8 -22 -11.5 -30.5t-14 -24t-25 -22t-35.5 -7.5q-30 -1 -51.5 9.5t-31.5 29t-14 34t-5 31.5q-29 47 -29 97
q-4 61 -4 186q0 49 1 167.5t0.5 205t-3.5 170.5q-37 -74 -93 -120.5t-124 -35.5q-67 10 -109 71.5t-28 129.5q-66 -39 -127.5 6t-71.5 117q-2 20 3 51t1 43q-12 12 -44.5 30t-57.5 46q-46 51 -39 133zM240 516q0 -56 59 -115q9 -9 59 -39q16 17 29 41t20 42t17 48t16 44
q30 79 119 172q4 4 4 10q-29 3 -60 40t-28 56q-117 -13 -196 -172q-39 -72 -39 -127zM287 719q58 84 133 117q35 16 82.5 10t79.5 -35q25 -36 16 -78q73 33 127 -18t49 -127l37 22q-58 189 -47 318q8 78 43 143t98 94v-12q-56 -29 -86 -92.5t-35 -138.5q-4 -50 6 -107
t21.5 -94.5t34.5 -99.5q21 31 70.5 37t76.5 -21q15 -14 18 -48.5t-2.5 -69t-15.5 -66.5q-8 -26 -33.5 -67t-31.5 -62q-6 -19 -8 -41.5t-2 -36t2 -43t2 -39.5q6 -85 6 -342v-428q0 -82 27.5 -122t80.5 -38q58 1 79.5 50t23.5 167q0 2 18 240q5 73 22 260.5t23 296.5
q-3 13 -10.5 43.5t-11.5 52t-4 41.5q0 33 -9 68q-4 15 -20 55.5t-19 66.5h11l37 -98q16 -33 27.5 -101t15.5 -83q29 -105 63 -178q32 -72 100 -117t154 -53q39 -4 70 0q-21 28 -37 62t-22 73.5t14 64.5q-3 11 -17 33t-18 29q-32 66 -47 176q-22 125 -27 207q-9 176 -59 319
q-27 77 -64 133q-11 18 -43.5 58.5t-57 80.5t-38.5 85q-3 11 -11.5 38t-10.5 32.5t-7.5 25.5t-6 25t-3.5 21t-3 24t-0.5 23.5t0 30t1.5 34.5q-136 65 -340 57q-189 -7 -356 -66q4 -62 -12.5 -127t-45.5 -141t-39 -119q-45 -187 -51 -217q-15 -81 -18 -188zM373 260
q0 -55 28 -89t70 -40q65 -6 115 76q26 44 63 164t84 182q13 18 6 57q-4 -5 -26 2q-1 0 -18 5t-25 7.5t-21.5 8t-22.5 12t-14 14.5q-11 19 -4 39q-13 -7 -26 -18t-25.5 -27t-20.5 -27t-21.5 -31.5t-18.5 -27.5q-21 -29 -51 -111.5t-64 -119.5q2 -15 -3 -40t-5 -36zM575 39
q23 -59 72 -84q124 -65 248 139q-10 107 -10 135q-6 -26 -17 -84h-16q7 96 22 152q16 67 70 131q12 12 25 45q-20 -2 -58 19l-63 36q-13 7 -17 24.5t3 29.5q-28 -7 -66 -45q-34 -33 -56 -81t-31 -89.5t-25.5 -94t-39.5 -88.5q-2 -4 -10.5 -17t-11 -17.5t-9 -16.5t-8.5 -18
t-5 -17t-3 -19t1 -19t5 -21z" />
    <glyph glyph-name="u1F448" unicode="&#x1f448;" horiz-adv-x="3233" 
d="M1606 55q-82 -7 -133 39q-28 25 -46 58t-30 45q-12 4 -43 -1t-51 -3q-72 10 -117 71t-6 127q-68 -14 -129.5 28t-71.5 109q-11 68 35.5 124t120.5 93q-93 3 -543 3q-125 0 -186 4q-52 0 -97 28q-16 1 -31.5 5t-34 14.5t-29 32t-9.5 51.5q1 21 7.5 35.5t22 25t24 14
t30.5 11.5q40 40 135 49q14 1 215 12q206 10 606 49q-112 29 -180 97q-63 63 -86 178q-13 71 0 116q-19 12 -28.5 27.5t-4 28t28.5 14.5q52 3 129 -30t137 -70q47 -30 78 -45q48 -18 125 -31q135 -24 227 -29q147 -11 243 -36.5t195 -84.5q29 -17 110.5 -76.5t137.5 -76.5
q112 -33 162 -43q1 55 33 70.5t117 9.5q23 -2 256 -13q27 -28 46 -65t29 -81t14.5 -75.5t8.5 -75.5q15 -224 -10 -346q-9 -41 -16.5 -70t-22 -67t-37 -66.5t-51.5 -45.5q-13 -8 -23.5 -12t-22 -5t-18.5 -1t-23.5 2t-25.5 3l-109 8q-26 2 -73 13l-33 8q-6 3 -18.5 8.5t-22 11
t-14.5 11.5q-14 10 -17 24q-43 -8 -84 -20t-103.5 -33.5t-84.5 -28.5q-167 -55 -320 -69q-20 -2 -74 -3.5t-81 -7.5q-25 -4 -67 -24.5t-66 -22.5zM299 887q-2 -53 38 -81t122 -28h428q257 0 342 -6q10 0 39.5 -2t43 -2t36 2t41.5 8q21 6 62 32t67 34q32 10 66.5 15.5t69 2.5
t48.5 -18q27 -27 21 -77t-37 -71q61 -22 99.5 -34t95 -21.5t106.5 -5.5q75 5 138.5 35t92.5 86h12q-29 -63 -94.5 -98.5t-142.5 -43.5q-127 -11 -318 48l-22 -37q76 5 127 -49t18 -127q41 9 78 -17q29 -32 35 -79.5t-10 -82.5q-33 -75 -117 -133q100 3 188 19q30 6 217 51
q43 10 119 39t141 45t127 12q59 167 66 356q8 204 -57 340q-20 -1 -34.5 -1.5t-30 0t-23.5 0.5t-24 3t-21 3.5t-25 6t-25.5 7.5t-32.5 10.5t-38 11.5q-45 14 -85 39t-80.5 57t-58.5 44q-53 35 -133 63q-146 51 -319 60q-91 6 -207 26q-110 15 -176 47q-7 4 -29 18t-33 17
q-25 -20 -64.5 -14t-73.5 22t-62 37q-4 -31 0 -70q7 -86 52.5 -153.5t117.5 -99.5q78 -37 178 -64q15 -4 83 -15.5t101 -27.5l98 -37v-10q-26 3 -66.5 19t-55.5 20q-31 8 -68 8q-20 0 -42 4t-51.5 12t-43.5 11q-109 -6 -296.5 -23t-260.5 -22q-33 -3 -117 -10.5t-123 -8.5
q-118 -2 -167 -23t-50 -79zM1020 498q25 -49 84 -72q12 -4 23 -6t23.5 0.5t19 3.5t21.5 9t18 9.5t21 12.5t19 12q36 23 88.5 39t94 25t89.5 31t81 56q38 38 45 66q-12 -7 -29.5 -3t-24.5 17l-37 64q-20 36 -18 57q-35 -14 -45 -24q-64 -54 -131 -70q-62 -16 -152 -23v17
q8 2 38 7.5t46 8.5q-28 0 -135 10q-203 -124 -139 -247zM1196 322q6 -42 40.5 -70.5t88.5 -28.5q11 0 36 5t40 3q37 34 119.5 64t111.5 51q6 4 27.5 18.5t31.5 22t26.5 20.5t27.5 26t18 26q-20 -7 -39 4q-6 4 -12 12t-10 15.5t-8.5 19.5t-6.5 18.5t-5.5 19t-4.5 15.5
q-8 23 -2 27q-39 7 -57 -6q-62 -47 -182 -84.5t-164 -63.5q-82 -50 -76 -114zM1427 209q30 -50 39 -59q60 -60 115 -60t127 39q159 79 172 197q-19 -3 -56 28t-40 60q-6 0 -10 -4q-93 -89 -172 -119q-14 -6 -44 -16t-48 -17t-42 -20t-41 -29z" />
    <glyph glyph-name="u1F449" unicode="&#x1f449;" horiz-adv-x="3233" 
d="M1628 55q-24 2 -66 22.5t-67 24.5q-27 6 -81.5 7.5t-74.5 3.5q-151 14 -319 69q-22 7 -84.5 28.5t-103.5 33.5t-84 20q-3 -14 -17 -24q-5 -6 -14.5 -11.5t-22 -11t-18.5 -8.5l-33 -8q-47 -11 -74 -13l-108 -8q-9 -1 -25.5 -3t-23.5 -2t-18.5 1t-22 5t-23.5 12
q-29 17 -51.5 45.5t-37 66.5t-22 67t-16.5 70q-25 122 -10 346q4 44 8.5 75.5t14.5 75.5t29 81t46 65q233 11 256 13q85 6 117 -9.5t33 -70.5q50 10 162 43q56 17 136.5 76t110.5 77q99 59 195 84.5t244 36.5q92 5 227 29q77 13 125 31q31 15 78 45q60 37 137 70t129 30
q23 -2 28.5 -14.5t-4 -28t-28.5 -27.5q13 -45 0 -116q-23 -115 -86 -178q-68 -68 -180 -97q400 -39 606 -49q201 -11 215 -12q95 -9 135 -49q22 -8 30.5 -11.5t24 -14t22 -25t7.5 -35.5q1 -30 -9.5 -51.5t-29 -32t-34 -14.5t-31.5 -5q-45 -28 -97 -28q-61 -4 -186 -4
q-450 0 -543 -3q74 -37 120.5 -93t35.5 -124q-10 -67 -71.5 -109t-129.5 -28q39 -66 -6 -127t-117 -71q-20 -2 -51 3t-43 1q-12 -12 -30 -45t-46 -58q-51 -46 -133 -39zM592 659q7 -192 65 -356q62 4 127 -12t141 -45t119 -39q184 -45 218 -51q88 -16 188 -19
q-84 58 -117 133q-16 35 -10 82.5t35 79.5q37 26 78 17q-33 73 18 127t127 49l-22 37q-191 -59 -318 -48q-77 8 -142.5 43.5t-94.5 98.5h12q29 -56 92.5 -86t138.5 -35q50 -4 106.5 5.5t95 21.5t99.5 34q-31 21 -37 71t21 77q14 15 48.5 18t69 -2.5t66.5 -15.5q26 -8 67 -34
t62 -32q19 -6 41.5 -8t36 -2t43 2t39.5 2q85 6 342 6h428q82 0 122 28t38 81q-1 58 -50 79t-167 23q-39 1 -123 8.5t-117 10.5q-73 5 -260.5 22t-296.5 23q-14 -3 -43.5 -11t-51.5 -12t-42 -4q-37 0 -68 -8q-15 -4 -55.5 -20t-67.5 -19v10l99 37q33 16 101 27.5t83 15.5
q100 27 178 64q72 32 117.5 99.5t52.5 153.5q4 39 0 70q-28 -21 -62 -37t-74 -22t-65 14q-11 -3 -32 -17t-29 -18q-66 -32 -176 -47q-116 -20 -207 -26q-173 -9 -319 -60q-82 -29 -134 -63q-18 -12 -58.5 -44t-80 -57t-84.5 -39q-11 -3 -38 -11.5t-32.5 -10.5t-25.5 -7.5
t-25 -6t-21 -3.5t-24 -3t-23.5 -0.5t-30 0t-34.5 1.5q-65 -136 -57 -340zM1354 326q13 -118 172 -197q72 -39 127 -39q54 0 114 60q9 9 39 59q-17 16 -40.5 29t-41.5 20t-48 17.5t-44 15.5q-79 30 -172 119q-4 4 -10 4q-3 -29 -40 -60t-56 -28zM1470 459q7 -13 18 -26
t27 -26t27 -21t32 -21.5t28 -18.5q29 -21 111.5 -51t119.5 -64q15 2 40 -3t36 -5q54 0 88.5 28.5t40.5 70.5q6 64 -76 114q-44 26 -164 63.5t-182 84.5q-18 13 -57 6q5 -4 -3 -27q-1 -3 -4.5 -15.5t-5.5 -19t-6.5 -18.5t-8.5 -19.5t-10 -15.5t-12 -12q-19 -11 -39 -4z
M1587 684q7 -28 45 -66q33 -34 81 -56t89.5 -31t94 -25t88.5 -39q4 -2 17 -10.5t17.5 -11t16.5 -9t18 -8.5t17 -5t19 -3t19 1t21 5q59 23 84 72q64 123 -139 247q-107 -10 -136 -10q16 -3 46 -9t38 -7v-17q-89 6 -151 23q-67 16 -131 70q-10 10 -45 24q2 -19 -19 -57
l-37 -64q-7 -13 -24 -17t-29 3z" />
    <glyph glyph-name="uni004A0301" horiz-adv-x="673" 
d="M14 -201q132 26 181 117t49 303v1057q0 123 -16.5 177.5t-73.5 90.5v6h405v-6q-56 -36 -72 -90.5t-16 -177.5v-1053q0 -250 -114.5 -376.5t-342.5 -145.5v98zM305 1690l191 290h204l-307 -290h-88z" />
    <glyph glyph-name="L.ss01" horiz-adv-x="1730" 
d="M119 0v8q57 35 73.5 91.5t16.5 174.5v1002q0 123 -16.5 177.5t-73.5 90.5v6h407v-6q-56 -36 -72 -90.5t-16 -177.5v-1172h320q166 0 424 32.5t514 88.5v-225h-1577z" />
    <glyph glyph-name="Q.ss01" horiz-adv-x="1847" 
d="M1991 -307q-90 0 -165.5 19.5t-133 54t-108 89t-88.5 115t-77 142.5q-217 -146 -506 -146q-244 0 -433.5 101t-293.5 284t-104 420t104 419.5t293.5 283t433.5 100.5q242 0 430.5 -100.5t293 -284t104.5 -420.5q0 -186 -66 -340.5t-188 -261.5q52 -90 114.5 -148
t160.5 -93.5t229 -35.5v-198zM324 770q0 -250 104 -426h8q8 137 61.5 246t154.5 176.5t235 67.5q60 0 114 -14.5t95 -37t80.5 -61.5t67 -75t58.5 -92t51 -97t48 -105q100 171 100 420q0 203 -71 360t-205 245.5t-312 88.5q-179 0 -313.5 -88.5t-205 -245.5t-70.5 -362z
M481 270q160 -196 432 -196q135 0 246 51.5t187 146.5q-30 65 -52 108.5t-54.5 97.5t-66 88t-76.5 65t-96.5 46t-115.5 15q-176 0 -282.5 -111.5t-121.5 -310.5z" />
    <glyph glyph-name="R.ss01" horiz-adv-x="1396" 
d="M1280 -10q-143 65 -274 156.5t-235.5 195.5t-184.5 205t-148 209v-482q0 -118 17 -174.5t75 -91.5v-8h-411v8q57 35 73.5 91.5t16.5 174.5v1002q0 123 -16.5 177.5t-73.5 90.5v6h577q95 0 175 -10.5t155 -38t127 -70t83.5 -110.5t31.5 -156q0 -98 -36.5 -175t-100 -124
t-145 -71.5t-175.5 -24.5q-186 0 -342 92v-12q133 -192 370 -375t482 -268v-217h-41zM438 967q120 -86 291 -86q146 0 232 71.5t86 212.5q0 148 -96.5 216.5t-295.5 68.5h-217v-483z" />
    <glyph glyph-name="Q.ss02" horiz-adv-x="1835" 
d="M1784 -260q-236 94 -454 154.5t-441 72.5q-373 22 -590 237.5t-217 567.5q0 237 104 419.5t293.5 283t433.5 100.5q242 0 430.5 -100.5t293 -284t104.5 -420.5q0 -284 -147.5 -485t-397.5 -269q218 -11 588 -71v-205zM324 770q0 -310 159.5 -503t429.5 -193q178 0 312 89
t205 247t71 362q0 203 -71 360t-205 245.5t-312 88.5q-179 0 -313.5 -88.5t-205 -245.5t-70.5 -362z" />
    <glyph glyph-name="R.ss02" horiz-adv-x="1468" 
d="M1513 -4q-173 0 -280.5 36.5t-179 113t-148.5 225.5q-47 93 -81.5 151t-73 106.5t-79 73t-90.5 37.5t-116 13h-29v-478q0 -118 17 -174.5t75 -91.5v-8h-409v8q57 35 73.5 91.5t16.5 174.5v1002q0 123 -16.5 177.5t-73.5 90.5v6h557q573 0 573 -385q0 -178 -130.5 -275.5
t-348.5 -111.5q93 -24 173 -101.5t163 -236.5q103 -194 187.5 -268t219.5 -74v-102zM436 850h166q126 0 218 30t147 100t55 175q0 295 -377 295h-209v-600z" />
    <glyph glyph-name="C_O" horiz-adv-x="2760" 
d="M870 -29q-146 0 -272 40t-220 113t-161 172t-101 219.5t-34 254.5q0 237 102.5 420.5t286 283t418.5 99.5q185 0 336 -61t259.5 -189t151.5 -311h-225q-48 210 -184.5 331t-337.5 121q-128 0 -235.5 -52t-179 -141.5t-111 -211t-39.5 -260.5q0 -142 37.5 -263.5
t109.5 -214t185.5 -145.5t256.5 -53q246 0 404.5 144t200.5 390h133q-48 -318 -254 -502t-527 -184zM1765 1116q0 206 131 332.5t342 126.5q213 0 345.5 -126.5t132.5 -332.5q0 -205 -132.5 -331t-345.5 -126q-212 0 -342.5 126t-130.5 331zM1952 1116q0 -160 76.5 -261
t209.5 -101q135 0 213 101.5t78 260.5q0 161 -78 263t-213 102q-133 0 -209.5 -102.5t-76.5 -262.5zM2138 0v242h207v-242h-207z" />
    <glyph glyph-name="L_T_D" horiz-adv-x="2617" 
d="M119 0v8q57 35 73.5 91.5t16.5 174.5v1002q0 123 -16.5 177.5t-73.5 90.5v6h407v-6q-56 -36 -72 -90.5t-16 -177.5v-1172h320q166 0 424 32.5t514 88.5v-225h-1577zM762 1397v153h776l-2 -151q-17 4 -55.5 14t-56 14t-48 11t-49.5 10t-42.5 5.5t-43.5 2.5h-2v-514
q0 -113 16 -168.5t66 -89.5v-8h-344v8q52 33 68 88t16 170v514h-4q-36 0 -91.5 -10t-86 -18t-117.5 -31zM1690 676v8q52 35 68 91.5t16 174.5v326q0 122 -15.5 176.5t-68.5 91.5v6h370q238 0 375 -115t137 -321q0 -204 -137 -321t-375 -117h-370zM1946 0v242h206v-242h-206z
M1954 764h100q152 0 243 92.5t91 257.5q0 169 -89.5 258.5t-244.5 89.5h-100v-698z" />
    <glyph glyph-name="O_e" horiz-adv-x="2719" 
d="M913 -33q-244 0 -433.5 101t-293.5 284t-104 420t104 419.5t293.5 283t433.5 100.5q232 0 415 -92.5t290.5 -261.5t120.5 -390q69 97 178 151t237 54q218 0 351.5 -130t136.5 -341h-799v-35q0 -194 89 -314t259 -120q139 0 224 79t118 210h113q-38 -186 -165 -303
t-333 -117q-196 0 -330 109t-167 303q-99 -192 -292 -301t-446 -109zM324 770q0 -310 159.5 -503t429.5 -193q178 0 312 89t205 247t71 362q0 203 -71 360t-205 245.5t-312 88.5q-179 0 -313.5 -88.5t-205 -245.5t-70.5 -362zM1853 653h586q-13 129 -87 209t-198 80
q-119 0 -197.5 -77t-103.5 -212z" />
    <glyph glyph-name="S_T" horiz-adv-x="2013" 
d="M659 -33q-254 0 -418 139.5t-190 391.5h213q22 -194 121 -311t277 -117q138 0 220 69t83 191q0 36 -9 68t-22 57.5t-43 54t-55.5 49t-77 51.5t-90 52.5t-111.5 60.5q-71 38 -120 66.5t-103 65t-88.5 71t-64 76.5t-43 89.5t-13.5 102.5q0 177 133 279t346 102
q225 0 373.5 -117.5t183.5 -331.5h-211q-20 160 -107.5 254.5t-238.5 94.5q-130 1 -202 -60.5t-74 -165.5q0 -34 9 -65t22.5 -55.5t42 -51.5t53.5 -46.5t72.5 -48t83 -48t100.5 -53.5q68 -36 111.5 -60.5t97.5 -58.5t86.5 -62t67 -65t53 -74t30.5 -83t12 -97
q0 -192 -141 -303t-369 -111zM1227 1397v153h776l-2 -151q-17 4 -55.5 14t-56 14t-48 11t-49.5 10t-42.5 5.5t-43.5 2.5h-2v-514q0 -113 16 -168.5t66 -89.5v-8h-344v8q52 33 68 88t16 170v514h-4q-36 0 -91.5 -10t-86 -18t-117.5 -31zM1513 0v242h207v-242h-207z" />
    <glyph glyph-name="i.loclTRK" horiz-adv-x="518" 
d="M72 0v8q52 35 68 92t16 174v457q0 122 -15 176.5t-67 89.5v9l137 2l154 6v-740q0 -118 15 -174.5t66 -91.5v-8h-374zM150 1253v232h217v-232h-217z" />
    <glyph glyph-name="uni006A0301" horiz-adv-x="526" 
d="M-35 -420q117 12 162 81.5t45 219.5v850q0 122 -15 176.5t-67 89.5v9l137 2l154 6v-1094q0 -195 -104 -305.5t-312 -114.5v80zM225 1186l199 362h184l-319 -362h-64z" />
    <glyph glyph-name="g.ss01" horiz-adv-x="1206" 
d="M133 -319q131 -25 225 -25q248 0 371 112.5t123 348.5v157q-46 -124 -138.5 -196t-226.5 -72q-128 0 -222 68t-140.5 182.5t-46.5 259.5q0 149 53.5 265t156.5 183t242 68q103 0 186 -41t136 -114v124h276v-6q-43 -36 -56 -92.5t-13 -175.5v-522q0 -343 -238.5 -529
t-687.5 -186v191zM297 514q0 -113 27 -199.5t88 -141t151 -54.5q137 0 213 117t76 303v233q-42 72 -110 115t-146 43q-143 0 -221 -110.5t-78 -305.5z" />
    <glyph glyph-name="y.ss01" horiz-adv-x="1216" 
d="M137 -324q126 -24 230 -24q235 0 362 115.5t127 349.5v170q-48 -131 -147.5 -214t-239.5 -83q-315 0 -315 379v358q0 119 -15.5 175.5t-66.5 92.5v6h362v-6q-45 -37 -59.5 -94t-14.5 -174v-340q0 -139 50.5 -204.5t152.5 -65.5q110 0 188.5 87.5t104.5 223.5v299
q0 118 -15 175t-65 93v6h361v-6q-45 -36 -58.5 -93t-13.5 -175v-524q-1 -341 -243 -526t-685 -187v186z" />
    <glyph glyph-name="f.ss02" horiz-adv-x="802" 
d="M72 0v8q51 35 67.5 92.5t16.5 173.5v349q0 141 38.5 222.5t129.5 106.5q-66 7 -124 29t-105.5 60t-75 98t-27.5 135q0 162 118 253t302 91q196 0 317.5 -100.5t144.5 -278.5h-186q-17 135 -84 207t-180 72t-176.5 -67t-63.5 -181q0 -136 91 -202.5t286 -66.5h217v-94
h-192q-59 0 -99 -13t-64 -35t-37 -63t-17 -84.5t-4 -111.5v-326q0 -118 19 -174.5t81 -91.5v-8h-393z" />
    <glyph glyph-name="t.ss02" horiz-adv-x="858" 
d="M492 -20q-271 0 -271 337v590h-219v94h154q98 0 130.5 74.5t32.5 292.5h111v-367h344v-94h-344v-596q0 -108 28 -153t91 -45q71 0 119.5 85t66.5 261h94q-21 -233 -105.5 -356t-231.5 -123z" />
    <glyph glyph-name="c_t" horiz-adv-x="1931" 
d="M594 -35q-224 0 -365 145t-141 390q0 166 69 289t186 185t267 62q82 0 152 -18q-39 82 -39 180q0 84 31 152t83 110t117 64t136 22q178 0 287.5 -120t109.5 -357v-68h346v-96h-346v-577q0 -219 160 -219q141 0 219 155l24 -76q-46 -99 -128.5 -152.5t-192.5 -53.5
q-63 0 -113 17.5t-91 55.5t-63 106.5t-22 162.5v763q0 189 -69.5 277t-178.5 88q-94 0 -152.5 -57.5t-58.5 -167.5q0 -146 97 -283q143 -105 169 -289h-186q-9 56 -28 103t-51 90t-85.5 67.5t-122.5 24.5q-153 0 -235 -112.5t-82 -297.5q0 -124 35.5 -220.5t114.5 -157
t194 -60.5q142 0 227 86.5t115 231.5h113q-29 -198 -159 -321.5t-343 -123.5z" />
    <glyph glyph-name="f_b" horiz-adv-x="1992" 
d="M154 0v8q52 35 68 91.5t16 174.5v631h-218v96h218v162q0 117 31 206t87 142.5t127 80t156 26.5q206 0 317 -154l156 148h10q-4 -92 -4 -314v-528q50 123 146 193.5t237 70.5q193 0 304.5 -145.5t111.5 -374.5q0 -233 -121 -382.5t-321 -149.5q-114 0 -207.5 51.5
t-147.5 144.5q0 -89 13 -178h-310v8q54 35 70 91.5t16 174.5v631h-463v-626q0 -118 17.5 -177t73.5 -94v-8h-383zM438 1229q0 -111 6 -228h465v293q-31 108 -94 169t-160 61q-217 0 -217 -295zM1118 287q43 -94 119.5 -148.5t169.5 -54.5q137 0 215 115.5t78 312.5
q0 117 -29 208t-92.5 147.5t-155.5 56.5q-144 0 -224.5 -123.5t-80.5 -319.5v-186v-8z" />
    <glyph glyph-name="f_h" horiz-adv-x="1974" 
d="M154 0v8q52 35 68 91.5t16 174.5v631h-218v96h218v162q0 117 31 206t87 142.5t127 80t156 26.5q206 0 317 -154l156 148h10q-4 -92 -4 -314v-514q51 112 149.5 182t237.5 70q318 0 318 -374v-388q0 -117 15 -174t65 -92v-8h-365v8q47 35 61.5 92t14.5 174v371
q0 137 -51 201.5t-154 64.5q-112 0 -188.5 -74t-102.5 -186v-356q0 -185 15 -295h-310v8q54 35 70 91.5t16 174.5v631h-463v-626q0 -118 17.5 -177t73.5 -94v-8h-383zM438 1229q0 -111 6 -228h465v293q-31 108 -94 169t-160 61q-217 0 -217 -295z" />
    <glyph glyph-name="f_t" horiz-adv-x="1468" 
d="M111 0v8q52 35 68 91.5t16 174.5v631h-218v96h218v123q0 116 31.5 204.5t86 139.5t121 76t144.5 25q128 0 221.5 -61t142.5 -167l117 86h6v-426h332v-96h-332v-577q0 -120 42 -167.5t120 -47.5q138 0 213 147l22 -76q-43 -95 -125 -148.5t-186 -53.5q-293 0 -293 342v581
h-455v-626q0 -118 17.5 -177t73.5 -94v-8h-383zM391 1192q0 -51 8 -191h459v269q-69 209 -258 209q-209 0 -209 -287z" />
    <glyph glyph-name="s_s" horiz-adv-x="1992" 
d="M530 -35q-196 0 -322 98t-145 267h179q12 -131 89 -203t204 -72q98 0 156.5 43t58.5 115q0 40 -15 69.5t-62 59t-78.5 44t-119.5 51.5q-11 5 -16 7q-68 27 -109.5 46t-91.5 49.5t-77.5 60.5t-46.5 73.5t-19 94.5q0 126 101.5 197t264.5 71q105 0 189.5 -33.5t142 -89.5
t104 -129t83 -153.5t72 -161.5t76.5 -154t90.5 -129t121.5 -89.5t162 -33.5q100 0 158.5 41.5t58.5 112.5q0 24 -7 44t-16.5 36t-32 33t-40 28t-54.5 28.5t-61 27.5t-74 30q-64 26 -104.5 44.5t-89.5 49t-76.5 61t-46.5 74t-19 95.5q0 128 101 198t262 70q173 0 288 -82.5
t146 -232.5h-178q-38 227 -256 227q-92 0 -145.5 -38t-53.5 -103q0 -73 66.5 -119t236.5 -113q70 -29 115 -50t91 -50.5t71.5 -59t42 -70t16.5 -89.5q0 -140 -106.5 -215.5t-276.5 -75.5q-101 0 -183 33.5t-137.5 90t-101 129.5t-81.5 154t-71.5 161.5t-78.5 153.5
t-94 129.5t-126 90t-169 33.5q-96 0 -149.5 -36t-53.5 -101q0 -26 8.5 -48t29 -42.5t41.5 -36t61 -35t71 -33t86 -35.5q67 -27 112.5 -48.5t89.5 -50t69.5 -59t41 -71.5t15.5 -90q0 -140 -107.5 -214.5t-280.5 -74.5z" />
    <glyph glyph-name="s_t" horiz-adv-x="1738" 
d="M1411 -18q-63 0 -113 17.5t-91 55.5t-63 106.5t-22 162.5v763q0 189 -66 277t-171 88q-92 0 -151.5 -57.5t-59.5 -165.5q0 -134 98 -262q133 -85 160 -244h-191q-14 104 -77 163.5t-172 59.5q-89 0 -142 -38.5t-53 -104.5q0 -30 12.5 -54.5t32 -43.5t59 -39.5t78 -36.5
t103.5 -41q91 -35 149 -63t111 -67.5t77.5 -89t24.5 -112.5q0 -139 -113 -215t-288 -76q-200 0 -329 100t-151 271h193q12 -130 86.5 -204.5t202.5 -74.5q94 0 152.5 40t58.5 110q0 23 -8 43.5t-18 36t-34 33.5t-41.5 29t-57 29.5t-63 28t-75.5 31.5q-51 20 -80 32.5t-71 33
t-66 37t-52 41t-42.5 50t-24.5 59t-10 71.5q0 130 104 203t277 73q66 0 127 -12q-43 82 -43 176q0 108 52.5 188t133.5 118t178 38q174 0 281.5 -120t107.5 -357v-68h344v-96h-344v-577q0 -219 160 -219q141 0 219 155l23 -76q-46 -99 -128.5 -152.5t-193.5 -53.5z" />
    <glyph glyph-name="w_w_w" horiz-adv-x="4128" 
d="M145 805q-33 86 -58.5 128.5t-63.5 61.5v6h356v-6q-44 -18 -48 -61.5t23 -116.5l197 -579l225 723h119l231 -725l193 577q28 74 24.5 119t-47.5 63v6h359v-6q-44 -18 -48 -61.5t23 -116.5l197 -579l225 723h119l231 -725l193 577q28 74 24.5 119t-47.5 63v6h359v-6
q-44 -18 -48 -61.5t23 -116.5l197 -579l225 723h119l231 -725l193 577q28 74 24.5 119t-47.5 63v6h258v-6q-37 -25 -63.5 -66.5t-52.5 -115.5l-250 -709q-26 -81 -29 -104h-137l-232 723l-190 -608q-26 -70 -31 -115h-139l-279 786l-239 -682q-26 -81 -29 -104h-137
l-232 723l-190 -608q-26 -70 -31 -115h-139l-279 786l-239 -682q-26 -81 -29 -104h-137l-231 723l-191 -608q-26 -70 -31 -115h-139z" />
    <glyph glyph-name="g_t.ss01" horiz-adv-x="1933" 
d="M1606 -18q-131 0 -210 80t-79 262v763q0 184 -62 268.5t-170 84.5q-101 0 -163 -60t-62 -166q0 -159 113 -294q121 -105 121 -277q0 -181 -129.5 -285t-329.5 -104q-147 0 -258 57q-141 -61 -141 -153q0 -48 38 -72t129 -23q83 1 293 36.5t293 35.5q119 0 185.5 -50.5
t66.5 -147.5q0 -99 -66 -186t-172.5 -145t-239 -91t-265.5 -33q-109 0 -190.5 20.5t-132 68t-50.5 118.5q0 143 229 215h-2q-125 0 -198.5 50.5t-73.5 141.5q0 156 227 260q-133 107 -133 287q0 179 130.5 284t328.5 105q95 0 174 -24q-43 82 -43 178q0 107 53.5 187
t139 119.5t188.5 39.5q186 0 283.5 -120t97.5 -333v-78h346v-96h-346v-577q0 -219 160 -219q142 0 219 155l22 -76q-45 -99 -127 -152.5t-194 -53.5zM279 -283q0 -137 239 -137q127 0 251.5 36.5t209 105t84.5 149.5q0 52 -33 75t-110 23q-154 0 -392 -65
q-128 -35 -188.5 -79t-60.5 -108zM379 643q0 -137 68 -217t186 -80q119 0 187.5 80t68.5 217t-69 216t-187 79t-186 -79t-68 -216z" />
    <glyph glyph-name="zero.osf" horiz-adv-x="1282" 
d="M643 -29q-243 0 -401 148.5t-158 390.5q0 243 157 391t402 148q242 0 399.5 -148.5t157.5 -390.5t-157.5 -390.5t-399.5 -148.5zM283 510q0 -202 97 -323t263 -121q165 0 261.5 121t96.5 323q0 203 -96.5 324.5t-261.5 121.5q-166 0 -263 -121t-97 -325z" />
    <glyph glyph-name="one.osf" horiz-adv-x="745" 
d="M264 0v8q58 35 76 92t18 174v492q-26 -52 -96 -104.5t-160 -57.5v125q66 4 125 31.5t99 68.5t66 89t34 96h141v-740q0 -118 16.5 -174.5t73.5 -91.5v-8h-393z" />
    <glyph glyph-name="two.osf" horiz-adv-x="1048" 
d="M74 41q0 39 13 76.5t30.5 67t53 63.5t61.5 56t77 55t79 49.5t85 50.5q56 33 88 53.5t71.5 51.5t59.5 58t34.5 64.5t14.5 79.5q0 87 -53.5 139.5t-152.5 52.5q-127 0 -202 -88.5t-73 -236.5h-180q2 85 34.5 160t92 132.5t151 90.5t203.5 33q173 0 275 -76t102 -207
q0 -57 -19.5 -105.5t-49.5 -84t-82.5 -71t-100.5 -59.5t-121 -57q-280 -125 -342 -233h754v-156h-903v41z" />
    <glyph glyph-name="three.osf" horiz-adv-x="1128" 
d="M567 -356q-219 0 -351 128t-144 355h108q7 -172 102 -269.5t246 -97.5q145 0 223 83.5t78 211.5q0 134 -89.5 209.5t-268.5 75.5h-98v90h94q161 0 248.5 77t87.5 206q0 104 -62.5 172.5t-183.5 68.5q-128 0 -214 -81t-93 -224h-176q19 181 160.5 290.5t351.5 109.5
q189 0 301 -92t112 -236q0 -131 -89 -217.5t-240 -116.5q166 -20 266 -105.5t100 -236.5q0 -172 -127.5 -286.5t-341.5 -114.5z" />
    <glyph glyph-name="four.osf" horiz-adv-x="1306" 
d="M788 -336v350h-720v99l780 925h143v-868h262v-156h-262v-350h-203zM231 170h557v668z" />
    <glyph glyph-name="five.osf" horiz-adv-x="1105" 
d="M551 -354q-212 0 -341 122t-142 338h110q9 -161 100 -253.5t232 -92.5q151 0 236 98.5t85 254.5q0 160 -85.5 246.5t-225.5 86.5q-92 0 -173 -38.5t-136 -116.5l-94 43l84 690h778v-154h-694l-58 -469q67 72 166.5 112t208.5 40q193 0 316.5 -117t123.5 -321
q0 -207 -134 -338t-357 -131z" />
    <glyph glyph-name="six.osf" horiz-adv-x="1239" 
d="M627 -33q-135 0 -239.5 51t-169 143t-97.5 214.5t-33 271.5q0 165 38.5 310t111.5 257.5t188 178t258 65.5q193 0 315 -108.5t152 -296.5h-109q-24 141 -109 223t-214 82q-87 0 -158 -38t-119 -105t-81 -160.5t-47.5 -201t-14.5 -230.5v-11q39 136 150.5 219.5
t265.5 83.5q184 0 305 -124.5t121 -327.5q0 -225 -144.5 -360.5t-369.5 -135.5zM309 449q23 -183 101 -285.5t217 -102.5t221 106.5t82 281.5q0 171 -80 263.5t-205 92.5q-139 0 -231.5 -98.5t-104.5 -257.5z" />
    <glyph glyph-name="seven.osf" horiz-adv-x="1005" 
d="M113 -328l700 1188h-762v164h912v-63l-627 -1289h-223z" />
    <glyph glyph-name="eight.osf" horiz-adv-x="1290" 
d="M647 -33q-154 0 -278.5 49t-199.5 147t-75 228q0 157 112.5 260t287.5 129q-158 23 -248 112t-90 212q0 152 131 253t360 101q227 0 358.5 -101t131.5 -253q0 -123 -90.5 -212t-249.5 -112q176 -26 288.5 -129t112.5 -260q0 -130 -75.5 -228t-199.5 -147t-276 -49z
M303 399q0 -157 95.5 -249.5t248.5 -92.5q152 0 247 92.5t95 249.5q0 146 -94.5 238t-247.5 92q-155 0 -249.5 -91.5t-94.5 -238.5zM350 1094q0 -55 17.5 -104t52 -89t93.5 -64t134 -24t133 24t92.5 64.5t52 90t17.5 104.5q0 117 -76 198.5t-219 81.5q-144 0 -220.5 -81.5
t-76.5 -200.5z" />
    </font>
</defs>
</svg>
