<?xml version="1.0" standalone="no"?>
<!DOCTYPE svg PUBLIC "-//W3C//DTD SVG 1.1//EN" "http://www.w3.org/Graphics/SVG/1.1/DTD/svg11.dtd" >
<svg xmlns="http://www.w3.org/2000/svg" xmlns:xlink="http://www.w3.org/1999/xlink" version="1.1">
<metadata>
Created by FontForge 20201107 at Wed Sep 11 11:37:27 2024
 By 
(c) 2015-2022 Pangram Pangram All rights reserved.
</metadata>
<defs>
<font id="PPFragment-SansExtraBold" horiz-adv-x="0" >
  <font-face 
    font-family="PP Fragment Sans ExtraBold"
    font-weight="800"
    font-stretch="normal"
    units-per-em="2048"
    panose-1="0 0 0 0 0 0 0 0 0 0"
    ascent="1638"
    descent="-410"
    x-height="1026"
    cap-height="1550"
    bbox="-539 -860.087 4514 2101"
    underline-thickness="153"
    underline-position="-238"
    unicode-range="U+0021-1F449"
  />
<missing-glyph horiz-adv-x="1044" 
d="M856 1597v-2089h-661v2089h661zM348 -348h348v69h-213l146 99h67v69h-348v-69h148l-148 -99v-69zM348 -63h348v235h-348v-235zM348 299h348v236h-209v-117h70v47h70v-98h-209v168h-70v-236zM348 580h348v208h-69v-137h-279v-71zM348 698h209v148h139v67h-348v-67h139v-78
h-139v-70zM348 971h348v71h-139v146h-209v-217zM348 1243h348v68h-139v78h139v69h-346v-69h137v-78h-139v-68zM418 6v98h209v-98h-209zM418 1042v74h69v-74h-69z" />
    <glyph glyph-name="fl" unicode="fl" horiz-adv-x="1550" 
d="M1016 0v342v391h-344v-391v-342h-426v342v391h-207v293h207v78q0 241 130 373.5t365 132.5q242 0 367 -166l285 172h47v-334v-940v-342h-424zM659 1153q0 -21 9 -127h348v207q-64 119 -187 119q-170 0 -170 -199z" />
    <glyph glyph-name="T_h" unicode="Th" horiz-adv-x="2674" 
d="M1389 0v342v885q-166 6 -392 6h-36v-891v-342h-465v342v891h-37q-248 0 -432 -6v323h1785v-272v-498q48 128 154 207.5t252 79.5q165 0 258.5 -105.5t93.5 -330.5v-289v-342h-424v342v199q0 196 -149 196q-76 0 -123.5 -47t-61.5 -123v-225v-342h-423z" />
    <glyph glyph-name="f_f" unicode="ff" horiz-adv-x="1722" 
d="M180 0v342v391h-207v293h207v12q0 239 135 368.5t357 129.5q217 0 352 -125q60 99 164.5 151t243.5 52q265 0 426 -178l-183 -222q-69 99 -164 99q-70 0 -106.5 -46.5t-36.5 -138.5v-102h340v-293h-334v-391v-342h-424v342v391h-344v-391v-342h-426zM586 1098
q0 -18 4 -72h360v84v18q-17 77 -68 117.5t-128 40.5q-80 0 -124 -47t-44 -141z" />
    <glyph glyph-name="f_f_i" unicode="ffi" horiz-adv-x="2222" 
d="M180 0v342v391h-207v293h207v12q0 239 135 368.5t357 129.5q229 0 370 -141q152 217 471 217q241 0 394.5 -124t183.5 -319h-360q-24 78 -69 124t-132 46q-178 0 -178 -223q0 -51 2 -90h760v-684v-342h-424v342v391h-332l2 -391q2 -106 2 -342h-424v342v391h-332v-391
v-342h-426zM586 1098q0 -18 4 -72h348q0 53 10 115q-41 145 -194 145q-80 0 -124 -47t-44 -141z" />
    <glyph glyph-name="f_f_l" unicode="ffl" horiz-adv-x="2252" 
d="M180 0v342v391h-207v293h207v12q0 239 135 368.5t357 129.5q212 0 354 -125q126 199 418 199q241 0 366 -166l285 172h47v-334v-940v-342h-424v342v391h-344v-391v-342h-426v342v391h-342v-391v-342h-426zM586 1098q0 -18 4 -72h358v78v33q-18 74 -68.5 111.5
t-125.5 37.5q-80 0 -124 -47t-44 -141zM1362 1153q0 -33 8 -127h348v207q-64 119 -186 119q-170 0 -170 -199z" />
    <glyph glyph-name="f_i" unicode="fi" horiz-adv-x="1519" 
d="M236 0v342v391h-197v293h197q6 284 159.5 435t415.5 151q241 0 394.5 -124t183.5 -319h-361q-24 78 -69 124t-132 46q-178 0 -178 -223q0 -51 2 -90h760v-684v-342h-424v342v391h-332l2 -391q2 -106 2 -342h-423z" />
    <glyph glyph-name="g_t" unicode="gt" horiz-adv-x="2361" 
d="M1939 -31q-209 0 -315 114t-106 359v764l419 277h7v-457h329v-293h-329v-280q0 -79 38.5 -122.5t112.5 -43.5q127 0 203 82l43 -265q-139 -135 -402 -135zM43 121q0 98 66 166.5t186 120.5q-152 104 -152 276q0 174 154.5 278.5t411.5 104.5q164 0 290 -44.5t197 -125.5
q31 68 98.5 101.5t153.5 33.5v-299q-114 0 -176 -12q2 -12 2 -37q0 -176 -149.5 -278.5t-415.5 -102.5q-153 0 -275 39q-76 -32 -76 -74q0 -34 42.5 -50.5t154.5 -12.5q82 2 285 25.5t282 23.5q154 0 223.5 -67.5t69.5 -180.5q0 -118 -74 -217.5t-197.5 -165.5t-283 -102.5
t-332.5 -36.5q-205 0 -317.5 52t-112.5 151q0 138 209 200q-124 19 -194 80t-70 154zM422 -221q0 -72 156 -72q105 0 207 21t169.5 59.5t67.5 83.5q0 28 -19.5 39.5t-66.5 11.5q-140 0 -320 -39q-194 -39 -194 -104zM518 684q0 -65 52 -101t139 -36q86 0 138 36t52 101
q0 66 -51.5 102.5t-138.5 36.5t-139 -36.5t-52 -102.5z" />
    <glyph glyph-name=".notdef" horiz-adv-x="1044" 
d="M856 1597v-2089h-661v2089h661zM348 -348h348v69h-213l146 99h67v69h-348v-69h148l-148 -99v-69zM348 -63h348v235h-348v-235zM348 299h348v236h-209v-117h70v47h70v-98h-209v168h-70v-236zM348 580h348v208h-69v-137h-279v-71zM348 698h209v148h139v67h-348v-67h139v-78
h-139v-70zM348 971h348v71h-139v146h-209v-217zM348 1243h348v68h-139v78h139v69h-346v-69h137v-78h-139v-68zM418 6v98h209v-98h-209zM418 1042v74h69v-74h-69z" />
    <glyph glyph-name=".null" 
 />
    <glyph glyph-name="nonmarkingreturn" horiz-adv-x="682" 
 />
    <glyph glyph-name="space" unicode="&#xa0;" horiz-adv-x="536" 
 />
    <glyph glyph-name="space" unicode=" " horiz-adv-x="536" 
 />
    <glyph glyph-name="exclam" unicode="!" horiz-adv-x="755" 
d="M203 496l-56 1054h461l-53 -1054h-352zM190 0v340h375v-340h-375z" />
    <glyph glyph-name="quotedbl" unicode="&#x22;" horiz-adv-x="1019" 
d="M133 924l-70 626h404l-72 -626h-262zM553 1550h403l-71 -626h-262z" />
    <glyph glyph-name="numbersign" unicode="#" horiz-adv-x="1411" 
d="M217 -20l105 493h-226v197h269l45 219h-273v196h316l104 492h211l-104 -492h213l104 492h213l-104 -492h225v-196h-268l-46 -219h273v-197h-316l-104 -493h-211l105 493h-216l-104 -493h-211zM575 670h213l48 219h-215z" />
    <glyph glyph-name="dollar" unicode="$" horiz-adv-x="1558" 
d="M723 -348v334q-266 22 -424.5 163t-183.5 375h415q26 -192 193 -233v330q-4 1 -43 17t-62 24q-243 96 -348.5 200.5t-105.5 259.5q0 104 43 188t119.5 139t177 86t219.5 36v307h135v-311q243 -23 395 -155.5t187 -354.5h-416q-9 78 -51.5 132.5t-114.5 74.5v-312
q59 -25 109 -43q96 -37 163.5 -69.5t128.5 -74t97 -86.5t57 -103.5t21 -129.5q0 -206 -159.5 -327.5t-416.5 -132.5v-334h-135zM608 1149q0 -49 33 -83t109 -69v275q-68 -4 -105 -37.5t-37 -85.5zM834 283q72 6 112.5 40.5t40.5 94.5q0 50 -32.5 82t-120.5 73v-290z" />
    <glyph glyph-name="percent" unicode="%" horiz-adv-x="1867" 
d="M174 0l1196 1550h328l-1196 -1550h-328zM55 1204q0 162 114.5 266.5t303.5 104.5t304.5 -104.5t115.5 -266.5q0 -163 -115 -268t-305 -105q-189 0 -303.5 104.5t-114.5 268.5zM324 1204q0 -66 41.5 -106.5t107.5 -40.5t108 40.5t42 106.5q0 64 -42 105t-108 41
t-107.5 -40.5t-41.5 -105.5zM973 346q0 162 114.5 266.5t303.5 104.5t304 -104.5t115 -266.5q0 -164 -115 -268.5t-304 -104.5t-303.5 104.5t-114.5 268.5zM1241 346q0 -66 42 -106.5t108 -40.5t107.5 40.5t41.5 106.5q0 65 -41.5 105.5t-107.5 40.5t-108 -41t-42 -105z" />
    <glyph glyph-name="ampersand" unicode="&#x26;" horiz-adv-x="1902" 
d="M737 -35q-268 0 -420.5 122.5t-152.5 326.5q0 154 86 256.5t260 179.5q-98 104 -142 183.5t-44 164.5q0 169 136 274t367 105q144 0 256 -41.5t178 -126t66 -201.5q0 -251 -338 -413l219 -217q33 67 66 155h381q-138 -246 -230 -371l353 -348v-14h-424l-133 135
q-204 -170 -484 -170zM573 463q0 -93 63.5 -149t176.5 -56q111 0 211 74l-332 334q-119 -83 -119 -203zM688 1186q0 -42 27 -89t102 -130q158 93 158 217q0 68 -37.5 101.5t-103.5 33.5q-69 0 -107.5 -33.5t-38.5 -99.5z" />
    <glyph glyph-name="quotesingle" unicode="'" horiz-adv-x="530" 
d="M133 924l-70 626h404l-72 -626h-262z" />
    <glyph glyph-name="parenleft" unicode="(" horiz-adv-x="1042" 
d="M940 -344q-201 21 -368 101t-286 211.5t-185 317t-66 408.5q0 221 66 406.5t185 317t286 212t368 101.5v-332q-151 -19 -269.5 -114t-184.5 -249t-66 -342q0 -189 66 -343.5t184.5 -249t269.5 -113.5v-332z" />
    <glyph glyph-name="parenright" unicode=")" horiz-adv-x="1042" 
d="M102 -12q151 19 269.5 113.5t185 249t66.5 343.5q0 188 -66.5 342t-185 249t-269.5 114v332q269 -28 472.5 -158.5t318.5 -357t115 -521.5q0 -223 -66 -408.5t-185.5 -316.5t-286.5 -211.5t-368 -101.5v332z" />
    <glyph glyph-name="asterisk" unicode="*" horiz-adv-x="1206" 
d="M481 541l66 364l-209 -307l-174 174l305 211l-367 -59v245l367 -63l-305 213l174 174l209 -307l-66 364h246l-68 -364l209 307l174 -174l-305 -213l367 63v-245l-367 59l305 -211l-174 -174l-209 307l68 -364h-246z" />
    <glyph glyph-name="plus" unicode="+" horiz-adv-x="1173" 
d="M428 16v359h-338v303h338v360h320v-360h335v-303h-335v-359h-320z" />
    <glyph glyph-name="comma" unicode="," horiz-adv-x="544" 
d="M39 -143q106 3 159.5 36t63.5 113h-176v334h373v-262q0 -194 -111 -298.5t-309 -109.5v187z" />
    <glyph glyph-name="hyphen" unicode="-" horiz-adv-x="995" 
d="M82 645h831v-233h-831v233z" />
    <glyph glyph-name="period" unicode="." horiz-adv-x="544" 
d="M86 0v340h373v-340h-373z" />
    <glyph glyph-name="slash" unicode="/" horiz-adv-x="1193" 
d="M-27 -244l908 1997h338l-906 -1997h-340z" />
    <glyph glyph-name="zero" unicode="0" horiz-adv-x="1568" 
d="M784 -39q-346 0 -525 207t-179 602q0 396 179 603.5t525 207.5q347 0 526 -208t179 -603t-179 -602t-526 -207zM549 770q0 -266 54 -374.5t181 -108.5q128 0 183 109t55 374t-55 375t-183 110q-127 0 -181 -109.5t-54 -375.5z" />
    <glyph glyph-name="one" unicode="1" horiz-adv-x="1056" 
d="M424 0v342v623q-106 -128 -330 -131v346q179 22 311 123t162 247h334v-1208v-342h-477z" />
    <glyph glyph-name="two" unicode="2" horiz-adv-x="1478" 
d="M72 84q0 111 35.5 187.5t122 156.5t274.5 215q36 26 92 65.5t82.5 58.5t67.5 49.5t59.5 47t45 41.5t37.5 42.5t23.5 41t16.5 46t4 48.5q0 84 -47 129t-140 45q-125 0 -188 -87t-65 -230h-424q8 297 198 469t522 172q282 0 441.5 -124.5t159.5 -348.5q0 -159 -95 -275
t-329 -260q-242 -151 -344 -221h759v-352h-1308v84z" />
    <glyph glyph-name="three" unicode="3" horiz-adv-x="1544" 
d="M799 -39q-312 0 -512.5 152t-229.5 428h414q15 -124 94 -187t207 -63q113 0 173.5 50.5t60.5 131.5q0 93 -71.5 145t-211.5 52h-150v268h160q128 0 194 53.5t66 130.5q0 74 -54.5 118t-160.5 44q-121 0 -203 -56.5t-100 -174.5h-412q36 253 238.5 391.5t523.5 138.5
q179 0 315 -47t214 -140.5t78 -221.5q0 -102 -50.5 -179t-131.5 -120t-187 -60q84 -13 154 -40.5t128 -72.5t90.5 -113.5t32.5 -154.5q0 -144 -89.5 -252.5t-240.5 -164.5t-339 -56z" />
    <glyph glyph-name="four" unicode="4" horiz-adv-x="1626" 
d="M897 0v285h-864v276l934 989h354v-929h246v-336h-246v-285h-424zM465 621h432v462z" />
    <glyph glyph-name="five" unicode="5" horiz-adv-x="1501" 
d="M748 -39q-295 0 -483.5 150t-217.5 421h420q29 -241 260 -241q120 0 183 62.5t63 160.5q0 101 -62 158t-168 57q-71 0 -132.5 -28.5t-98.5 -82.5l-379 166l96 766h1100v-333h-782l-43 -318q77 62 185 95.5t229 33.5q229 0 371.5 -126.5t142.5 -362.5q0 -259 -189 -418.5
t-495 -159.5z" />
    <glyph glyph-name="six" unicode="6" horiz-adv-x="1587" 
d="M825 -39q-187 0 -330.5 55.5t-233 157t-134.5 238.5t-45 305q0 140 29.5 266t91.5 235.5t152 189.5t218.5 125.5t282.5 45.5q126 0 231.5 -28t193 -86.5t146.5 -156t82 -229.5h-424q-18 84 -74 133.5t-147 49.5q-153 0 -234 -129.5t-89 -362.5q57 115 178.5 173t269.5 58
q228 0 370 -132t142 -357q0 -248 -178.5 -399.5t-497.5 -151.5zM563 504q55 -225 248 -225q105 0 166 58.5t61 162.5q0 107 -62.5 162t-154.5 55t-165.5 -55t-92.5 -158z" />
    <glyph glyph-name="seven" unicode="7" horiz-adv-x="1327" 
d="M98 0l678 1198h-737v352h1264v-176l-709 -1374h-496z" />
    <glyph glyph-name="eight" unicode="8" horiz-adv-x="1624" 
d="M813 -39q-354 0 -549.5 120t-195.5 343q0 149 95.5 249.5t274.5 141.5q-152 40 -227.5 133t-75.5 215q0 199 176 308.5t500 109.5q326 0 502 -109.5t176 -308.5q0 -121 -76 -215t-227 -133q179 -41 274.5 -141.5t95.5 -249.5q0 -223 -195 -343t-548 -120zM549 455
q0 -96 73.5 -149.5t190.5 -53.5q116 0 190 53.5t74 149.5q0 94 -72.5 148t-191.5 54q-120 0 -192 -54t-72 -148zM575 1143q0 -83 66.5 -131.5t171.5 -48.5q104 0 170 48.5t66 131.5q0 84 -66.5 131t-169.5 47q-105 0 -171.5 -47t-66.5 -131z" />
    <glyph glyph-name="nine" unicode="9" horiz-adv-x="1587" 
d="M762 1579q187 0 330.5 -56t233 -159t134.5 -242.5t45 -312.5q0 -138 -27 -261t-86.5 -232t-147 -187.5t-216 -124t-285.5 -45.5q-126 0 -232.5 29.5t-192.5 89.5t-144 157.5t-80 225.5h424q44 -182 223 -182q296 0 306 493q-57 -115 -180 -174t-271 -59
q-229 0 -370.5 131.5t-141.5 355.5q0 250 179.5 401.5t498.5 151.5zM547 1038q0 -104 63 -158.5t154 -54.5q93 0 166 55t92 160q-54 222 -246 222q-105 0 -167 -59.5t-62 -164.5z" />
    <glyph glyph-name="colon" unicode=":" horiz-adv-x="585" 
d="M106 551v340h373v-340h-373zM106 0v340h373v-340h-373z" />
    <glyph glyph-name="semicolon" unicode=";" horiz-adv-x="585" 
d="M106 551v340h373v-340h-373zM59 -330v187q106 3 160 36t64 113h-177v334h373v-262q0 -194 -111 -298.5t-309 -109.5z" />
    <glyph glyph-name="less" unicode="&#x3c;" horiz-adv-x="1175" 
d="M1079 41l-991 356v265l991 356v-311l-565 -177l565 -176v-313z" />
    <glyph glyph-name="equal" unicode="=" horiz-adv-x="1173" 
d="M90 604v279h993v-279h-993zM90 174v277h993v-277h-993z" />
    <glyph glyph-name="greater" unicode="&#x3e;" horiz-adv-x="1175" 
d="M96 41v313l566 176l-566 177v311l991 -356v-265z" />
    <glyph glyph-name="question" unicode="?" horiz-adv-x="1257" 
d="M414 496q-41 83 -41 157q0 55 29.5 106.5t73 89.5t95 78.5t95 74t73 75t29.5 82.5q0 51 -32.5 83t-96.5 32q-89 0 -142.5 -56t-60.5 -161h-387q12 135 67 237.5t143 164t196.5 92t236.5 30.5q241 0 378.5 -103.5t137.5 -285.5q0 -77 -25 -140t-64.5 -105t-87.5 -77.5
t-96 -65t-87.5 -58t-64.5 -65t-25 -79.5q0 -56 28 -106h-372zM422 0v340h375v-340h-375z" />
    <glyph glyph-name="at" unicode="@" horiz-adv-x="2240" 
d="M997 -367q-160 0 -300 32t-258 99.5t-202 166t-131 239t-47 311.5q0 238 89.5 447.5t248 362t388.5 241t499 88.5q207 0 374 -56.5t277 -158t169 -242t59 -309.5q0 -107 -25 -212.5t-75.5 -200t-120.5 -167t-167 -115t-208 -42.5q-166 0 -254 78t-105 198
q-66 -129 -165.5 -202.5t-227.5 -73.5q-156 0 -241 100t-85 270q0 96 26.5 193.5t76.5 182.5t115 152t149 105.5t172 38.5q124 0 199 -73.5t86 -204.5l65 233l373 62l-184 -609q-41 -141 -15.5 -204.5t117.5 -63.5q103 0 183 86t118.5 206.5t38.5 244.5q0 312 -192 482.5
t-541 170.5q-168 0 -317.5 -39.5t-264 -109.5t-206 -165.5t-150.5 -208t-90 -236t-31 -251.5q0 -342 209 -523t573 -181q185 0 353.5 50t349.5 169l-19 -158q-313 -203 -686 -203zM903 530q0 -73 27.5 -118t81.5 -45q73 0 137 78.5t88 175.5l16 59q25 94 -6.5 159.5
t-103.5 65.5q-66 0 -123 -60t-87 -145.5t-30 -169.5z" />
    <glyph glyph-name="A" unicode="A" horiz-adv-x="1658" 
d="M-8 0q24 68 84 217l475 1208l49 125h459l530 -1349q57 -142 78 -201h-493l-64 199l-29 90h-530l-29 -86q-11 -38 -35.5 -112.5t-29.5 -90.5h-465zM649 588h336l-166 516z" />
    <glyph glyph-name="B" unicode="B" horiz-adv-x="1505" 
d="M147 0v342v866v342h613q313 0 472 -99t159 -284q0 -137 -96 -226t-291 -112v-18q222 -17 332 -115.5t110 -251.5q0 -209 -178 -326.5t-525 -117.5h-596zM594 311h164q237 0 237 181q0 178 -243 178h-158v-359zM594 948h139q223 0 223 156q0 139 -217 139h-145v-295z" />
    <glyph glyph-name="C" unicode="C" horiz-adv-x="1855" 
d="M928 -31q-252 0 -448 98t-306.5 282.5t-110.5 428.5q0 248 111 430.5t307.5 276.5t454.5 94q164 0 307 -38.5t259 -114t195 -196t109 -276.5h-475q-36 126 -137.5 198.5t-249.5 72.5q-84 0 -157 -29.5t-128 -84.5t-86.5 -141t-31.5 -192q0 -214 113 -334t290 -120
q156 0 262 90t129 243h473q-14 -131 -66 -242.5t-133.5 -193t-188 -138.5t-231 -85.5t-261.5 -28.5z" />
    <glyph glyph-name="D" unicode="D" horiz-adv-x="1777" 
d="M147 0v342v866v342h621q221 0 400.5 -56.5t299 -158.5t184 -244.5t64.5 -312.5q0 -174 -64.5 -317.5t-184 -246t-298.5 -158.5t-401 -56h-621zM612 338h140q231 0 362 116t131 320q0 207 -129 322.5t-364 115.5h-140v-874z" />
    <glyph glyph-name="E" unicode="E" horiz-adv-x="1312" 
d="M147 0v342v866v342h1078v-327q-182 6 -424 6h-189v-287h17q282 0 495 4v-305q-213 4 -495 4h-17v-323h191h442v-322h-1098z" />
    <glyph glyph-name="F" unicode="F" horiz-adv-x="1296" 
d="M1241 1219q-300 4 -582 4h-47v-287h11q286 0 501 4v-324q-269 5 -501 5h-11v-279v-342h-465v342v866v342h1094v-331z" />
    <glyph glyph-name="G" unicode="G" horiz-adv-x="1921" 
d="M862 -27q-241 0 -422.5 99t-279 278.5t-97.5 415.5q0 196 69 353t190 257t281.5 152.5t348.5 52.5q211 0 387 -66.5t295 -193.5t160 -299h-459q-40 102 -139.5 159.5t-243.5 57.5q-197 0 -312.5 -123.5t-115.5 -339.5t113 -339.5t309 -123.5q166 0 273.5 67t154.5 191
l-538 -2l-5 275l969 2v-846h-307l-35 248q-90 -132 -243 -203.5t-353 -71.5z" />
    <glyph glyph-name="H" unicode="H" horiz-adv-x="1748" 
d="M147 0v342v866v342h465v-342v-260h525v260v342h462v-342v-866v-342h-462v342v262h-525v-262v-342h-465z" />
    <glyph glyph-name="I" unicode="I" horiz-adv-x="759" 
d="M147 0v342v866v342h465v-342v-866v-342h-465z" />
    <glyph glyph-name="J" unicode="J" horiz-adv-x="829" 
d="M0 31q114 5 166.5 76t52.5 239v862v342h463v-342v-848q0 -176 -45 -301.5t-134.5 -202t-213 -112t-289.5 -37.5v324z" />
    <glyph glyph-name="K" unicode="K" horiz-adv-x="1626" 
d="M147 0v342v866v342h457v-342v-225l402 391q118 114 180 176h454v-32q-32 -29 -84 -78t-69 -64l-492 -456l654 -900v-20h-523l-428 643l-94 -86v-215v-342h-457z" />
    <glyph glyph-name="L" unicode="L" horiz-adv-x="1271" 
d="M147 0v342v866v342h465v-342v-864h140q290 0 495 2v-346h-1100z" />
    <glyph glyph-name="M" unicode="M" horiz-adv-x="2158" 
d="M1006 -20l-420 1001v-639v-342h-439v342v866v342h564l366 -913l365 913h567v-342v-866v-342h-455v342v645l-419 -1007h-129z" />
    <glyph glyph-name="N" unicode="N" horiz-adv-x="1757" 
d="M1165 0l-577 913v-571v-342h-441v342v866v342h445l577 -907v565v342h441v-342v-1208h-445z" />
    <glyph glyph-name="O" unicode="O" horiz-adv-x="1902" 
d="M952 -35q-207 0 -375.5 60t-280.5 167.5t-172.5 256.5t-60.5 327t60.5 326t172.5 254t280 164.5t376 58.5q207 0 374.5 -59t280 -165.5t172.5 -256t60 -330.5q0 -177 -60.5 -325t-172.5 -254t-279.5 -165t-374.5 -59zM541 768q0 -205 109 -321.5t302 -116.5
q192 0 301 118t109 328q0 205 -109 321.5t-301 116.5q-194 0 -302.5 -117t-108.5 -329z" />
    <glyph glyph-name="P" unicode="P" horiz-adv-x="1478" 
d="M147 0v342v866v342h590q360 0 529.5 -122t169.5 -365q0 -230 -177.5 -355.5t-527.5 -125.5h-119v-240v-342h-465zM612 879h117q132 0 194 46t62 138q0 90 -60 133t-190 43h-123v-360z" />
    <glyph glyph-name="Q" unicode="Q" horiz-adv-x="1902" 
d="M952 -35q-207 0 -375.5 60t-280.5 167.5t-172.5 256.5t-60.5 327t60.5 326t172.5 254t280 164.5t376 58.5q207 0 374.5 -59t280 -165.5t172.5 -256t60 -330.5q0 -193 -89.5 -351.5t-258.5 -262.5l260 -387v-37h-395l-162 274q-119 -39 -242 -39zM541 768
q0 -214 109 -335.5t302 -121.5q40 0 58 2l-269 455h336l205 -305q84 119 84 313q0 205 -110 321.5t-304 116.5t-302.5 -117t-108.5 -329z" />
    <glyph glyph-name="R" unicode="R" horiz-adv-x="1570" 
d="M1057 0l-375 598h-76v-256v-342h-459v342v866v342h682q311 0 469 -115.5t158 -336.5q0 -174 -95 -282.5t-269 -147.5l479 -650v-18h-514zM606 893h148q252 0 252 180q0 88 -59 129t-189 41h-152v-350z" />
    <glyph glyph-name="S" unicode="S" horiz-adv-x="1458" 
d="M748 -39q-307 0 -492 146.5t-213 404.5h424q16 -115 84.5 -180.5t196.5 -65.5q87 0 135.5 34.5t48.5 102.5q0 70 -67.5 111.5t-304.5 136.5q-3 1 -5 2q-246 97 -353.5 204t-107.5 267q0 147 82.5 252t218 155t307.5 50q287 0 469 -138t220 -386h-422q-12 102 -76 161.5
t-176 59.5q-83 0 -127.5 -34.5t-44.5 -92.5q0 -26 8.5 -47.5t29.5 -41.5t47.5 -36.5t70.5 -36.5t90 -38l115 -45q2 -1 3 -1q98 -38 166.5 -71t130.5 -75t99 -88t58 -105.5t21 -131.5q0 -147 -83 -255.5t-225.5 -163t-327.5 -54.5z" />
    <glyph glyph-name="T" unicode="T" horiz-adv-x="1427" 
d="M27 1227v323h1374v-323q-186 6 -432 6h-23v-891v-342h-465v342v891h-22q-248 0 -432 -6z" />
    <glyph glyph-name="U" unicode="U" horiz-adv-x="1679" 
d="M840 -39q-126 0 -231.5 23t-195 74.5t-151.5 129.5t-96.5 194t-34.5 263v563v342h465v-342v-585q0 -155 59 -228t189 -73q129 0 187.5 73t58.5 228v585v342h458v-342v-563q0 -146 -34 -261.5t-95 -194t-150 -130.5t-195 -75t-234 -23z" />
    <glyph glyph-name="V" unicode="V" horiz-adv-x="1636" 
d="M70 1352q-68 179 -74 198h491q6 -24 15 -56t21 -71t18 -61l288 -907l281 907l57 188h475q-10 -31 -36 -103t-31 -85l-465 -1245q-26 -70 -35 -117h-506z" />
    <glyph glyph-name="W" unicode="W" horiz-adv-x="2230" 
d="M59 1358q-7 22 -30 92.5t-31 99.5h485q9 -30 31.5 -107.5t26.5 -90.5l194 -666l238 811h297l239 -813l197 680q7 30 28 101t25 85h473q-8 -29 -32 -103.5t-27 -82.5l-406 -1245q-23 -62 -30 -119h-351l-272 874l-235 -755q-26 -100 -27 -119h-350z" />
    <glyph glyph-name="X" unicode="X" horiz-adv-x="1556" 
d="M1065 0q-74 115 -133 197l-184 268l-158 -268l-117 -197h-498l142 211l399 594l-383 559q-6 8 -56 82.5t-71 103.5h514l4 -4q21 -29 69.5 -101t53.5 -79l154 -223l139 215l125 192h477q-104 -152 -129 -186l-385 -555l418 -610q109 -159 135 -199h-516z" />
    <glyph glyph-name="Y" unicode="Y" horiz-adv-x="1515" 
d="M109 1364l-111 186h491q24 -41 105 -200l184 -346l174 346q67 142 99 200h465q-59 -104 -109 -186l-406 -696v-326v-342h-464v342v322z" />
    <glyph glyph-name="Z" unicode="Z" horiz-adv-x="1415" 
d="M74 0v250l680 979h-138q-336 0 -557 -6v327h1276v-227l-686 -989h193q285 0 518 6v-340h-1286z" />
    <glyph glyph-name="bracketleft" unicode="[" horiz-adv-x="944" 
d="M145 -268v1931h697v-317h-303v-1299h303v-315h-697z" />
    <glyph glyph-name="backslash" unicode="\" horiz-adv-x="1183" 
d="M1214 -244h-340l-905 1997h338z" />
    <glyph glyph-name="bracketright" unicode="]" horiz-adv-x="944" 
d="M799 -268h-697v315h304v1299h-304v317h697v-1931z" />
    <glyph glyph-name="asciicircum" unicode="^" horiz-adv-x="1175" 
d="M82 780l328 822h358l328 -822h-353l-153 555l-156 -555h-352z" />
    <glyph glyph-name="underscore" unicode="_" horiz-adv-x="1456" 
d="M0 -272v209h1456v-209h-1456z" />
    <glyph glyph-name="grave" unicode="`" horiz-adv-x="727" 
d="M436 1178l-334 372h371l154 -372h-191z" />
    <glyph glyph-name="a" unicode="a" horiz-adv-x="1339" 
d="M373 -33q-156 0 -244 70.5t-88 200.5q0 62 23 110.5t58 80.5t99 61t121 46.5t150 41.5q165 41 219.5 66.5t54.5 72.5q0 84 -131 84q-85 0 -138 -40.5t-53 -109.5h-368q10 124 93 219.5t217 146t298 50.5q89 0 163 -13.5t138 -45.5t108.5 -80.5t69.5 -121.5t25 -167v-199
q0 -117 17.5 -159.5t72.5 -42.5q31 0 47 8v-215q-41 -19 -108 -32t-134 -13q-65 0 -123.5 19.5t-106.5 67t-65 117.5q-58 -100 -161.5 -161.5t-253.5 -61.5zM455 295q0 -37 27 -58.5t69 -21.5q87 0 153 67.5t66 166.5v63q-14 -27 -51 -46t-125 -48q-76 -27 -107.5 -54
t-31.5 -69z" />
    <glyph glyph-name="b" unicode="b" horiz-adv-x="1398" 
d="M109 0v342v936v319h426v-319v-451q57 105 153 166.5t227 61.5q204 0 318.5 -144.5t114.5 -378.5q0 -116 -30.5 -215t-89 -173t-150.5 -116t-208 -42q-209 0 -335 145v-131h-426zM535 338q77 -105 180 -105q87 0 138.5 73t51.5 214q0 117 -44 184.5t-132 67.5
q-87 0 -140.5 -73.5t-53.5 -217.5v-143z" />
    <glyph glyph-name="c" unicode="c" horiz-adv-x="1333" 
d="M666 -39q-126 0 -235 33.5t-194.5 99t-134.5 172.5t-49 244q0 134 49 241t134 174.5t195.5 103.5t236.5 36q263 0 429 -126.5t187 -322.5h-391q-15 65 -66 111.5t-149 46.5q-109 0 -169 -69.5t-60 -188.5t60.5 -191.5t168.5 -72.5q102 0 155.5 52.5t65.5 129.5h387
q-10 -100 -57 -186t-124.5 -150t-190.5 -100.5t-248 -36.5z" />
    <glyph glyph-name="d" unicode="d" horiz-adv-x="1398" 
d="M864 0v213q-55 -106 -151.5 -167.5t-227.5 -61.5q-208 0 -320 145.5t-112 384.5q0 115 29.5 213t86.5 172t146.5 116t202.5 42q227 0 346 -154v375v319h426v-319v-936v-342h-426zM494 514q0 -115 43.5 -182.5t128.5 -67.5q92 0 145 73.5t53 215.5v147q-78 103 -178 103
q-88 0 -140 -73t-52 -216z" />
    <glyph glyph-name="e" unicode="e" horiz-adv-x="1347" 
d="M672 -39q-177 0 -315.5 62t-221 188.5t-82.5 300.5t84 301.5t223.5 190.5t315.5 63q289 0 453.5 -154.5t164.5 -423.5h-858q9 -120 74.5 -180.5t167.5 -60.5q93 0 150.5 41t76.5 106h381q-14 -85 -58 -160.5t-117.5 -138t-186.5 -99t-252 -36.5zM461 662h434
q-53 139 -219 139q-160 0 -215 -139z" />
    <glyph glyph-name="f" unicode="f" horiz-adv-x="1019" 
d="M248 0v342v391h-209v293h209v84q0 239 127.5 371.5t353.5 132.5q265 0 426 -178l-182 -222q-69 99 -164 99q-70 0 -106.5 -46.5t-36.5 -138.5v-102h340v-293h-334v-391v-342h-424z" />
    <glyph glyph-name="g" unicode="g" horiz-adv-x="1435" 
d="M528 -516q-205 0 -317.5 52t-112.5 151q0 138 209 200q-124 19 -194 80t-70 154q0 98 66 166.5t186 120.5q-152 104 -152 276q0 174 154.5 278.5t411.5 104.5q229 0 376 -84q7 127 96 200.5t228 73.5v-307q-168 0 -215 -53q80 -89 80 -213q0 -176 -149.5 -278.5
t-415.5 -102.5q-153 0 -275 39q-76 -32 -76 -74q0 -34 42.5 -50.5t154.5 -12.5q82 2 285 25.5t282 23.5q154 0 223.5 -67.5t69.5 -180.5q0 -118 -74 -217.5t-197.5 -165.5t-283 -102.5t-332.5 -36.5zM422 -221q0 -72 156 -72q105 0 207 21t169.5 59.5t67.5 83.5
q0 28 -19.5 39.5t-66.5 11.5q-140 0 -320 -39q-194 -39 -194 -104zM518 684q0 -65 52 -101t139 -36q86 0 138 36t52 101q0 66 -51.5 102.5t-138.5 36.5t-139 -36.5t-52 -102.5z" />
    <glyph glyph-name="h" unicode="h" horiz-adv-x="1396" 
d="M111 0v342v936v319h424v-319v-498q48 129 154 208t251 79q166 0 259 -105t93 -331v-289v-342h-424v342v199q0 196 -149 196q-75 0 -123 -46.5t-61 -121.5v-227v-342h-424z" />
    <glyph glyph-name="i" unicode="i" horiz-adv-x="645" 
d="M111 0v342v342v342h424v-684v-342h-424zM109 1221v313h428v-313h-428z" />
    <glyph glyph-name="j" unicode="j" horiz-adv-x="659" 
d="M-61 -242q47 0 77.5 8t57 32.5t39 74t12.5 127.5v684v342h424v-965q0 -143 -30 -244t-99.5 -174.5t-188.5 -109t-292 -35.5v260zM123 1221v313h428v-313h-428z" />
    <glyph glyph-name="k" unicode="k" horiz-adv-x="1353" 
d="M891 0l-356 471v-129v-342h-424v342v936v311v8h424v-319v-610l221 196q59 52 178 162h420v-16q-56 -48 -178 -158l-297 -260l495 -576v-16h-483z" />
    <glyph glyph-name="l" unicode="l" horiz-adv-x="645" 
d="M111 0v342v936v319h424v-319v-936v-342h-424z" />
    <glyph glyph-name="m" unicode="m" horiz-adv-x="2113" 
d="M111 0v342v342v342h413v-250q44 129 149.5 210t248.5 81q289 0 338 -311q40 137 147.5 224t257.5 87q163 0 253.5 -105t90.5 -331v-289v-342h-416v342v199q0 196 -145 196q-73 0 -121 -46.5t-59 -119.5v-229v-342h-416v342v199q0 196 -145 196q-74 0 -122.5 -46.5
t-60.5 -121.5v-227v-342h-413z" />
    <glyph glyph-name="n" unicode="n" horiz-adv-x="1396" 
d="M111 0v342v342v342h424v-246q48 129 154 208t251 79q166 0 259 -105t93 -331v-289v-342h-424v342v199q0 196 -149 196q-75 0 -123 -46.5t-61 -121.5v-227v-342h-424z" />
    <glyph glyph-name="o" unicode="o" horiz-adv-x="1359" 
d="M680 -39q-295 0 -461 150t-166 401q0 253 166 403t461 150t461 -150t166 -403q0 -251 -166 -401t-461 -150zM457 512q0 -124 58.5 -191t164.5 -67q105 0 164 67t59 191q0 125 -59 193.5t-164 68.5q-106 0 -164.5 -68t-58.5 -194z" />
    <glyph glyph-name="p" unicode="p" horiz-adv-x="1398" 
d="M106 -492v316v887v315h426v-199q57 105 153.5 166.5t227.5 61.5q204 0 318.5 -144.5t114.5 -378.5q0 -116 -30.5 -215t-89 -173t-150.5 -116t-208 -42q-210 0 -336 145v-307v-316h-426zM532 338q77 -105 181 -105q87 0 138.5 73t51.5 214q0 117 -44 184.5t-132 67.5
q-87 0 -141 -74t-54 -217v-143z" />
    <glyph glyph-name="q" unicode="q" horiz-adv-x="1398" 
d="M864 -492v316v389q-55 -106 -151.5 -167.5t-227.5 -61.5q-208 0 -320 145.5t-112 384.5q0 115 29.5 213t86.5 172t146.5 116t202.5 42q227 0 346 -154v123h426v-315v-887v-316h-426zM494 514q0 -115 43.5 -182.5t128.5 -67.5q92 0 145 73.5t53 215.5v147
q-78 103 -178 103q-88 0 -140 -73t-52 -216z" />
    <glyph glyph-name="r" unicode="r" horiz-adv-x="978" 
d="M109 0v342v342v342h426v-342h2q10 64 40.5 125.5t80 113.5t124 83.5t162.5 31.5v-364q-122 0 -202.5 -15.5t-125.5 -49.5t-62.5 -79t-18.5 -112v-76v-342h-426z" />
    <glyph glyph-name="s" unicode="s" horiz-adv-x="1251" 
d="M647 -39q-262 0 -418.5 98.5t-185.5 282.5h389q7 -75 66.5 -113.5t150.5 -38.5q65 0 104.5 19.5t39.5 56.5q0 38 -56 63.5t-221 71.5q-48 14 -76.5 22.5t-72 23t-69.5 26t-60.5 29t-55.5 34.5t-44 40.5t-35.5 49t-20.5 57t-8 67.5q0 107 74.5 181t191 106t264.5 32
q246 0 396.5 -95.5t183.5 -264.5h-375q-8 61 -62.5 96t-144.5 35q-65 0 -99 -20t-34 -56q0 -20 11.5 -34t50.5 -31t99 -34t173 -47q107 -29 174 -55t121.5 -62t78 -83t23.5 -111q0 -89 -43.5 -156.5t-120.5 -108.5t-175 -61t-214 -20z" />
    <glyph glyph-name="t" unicode="t" horiz-adv-x="1058" 
d="M651 -29q-214 0 -324 121t-110 381v260h-203v293h203v180l420 277h6v-457h326v-293h-326v-284q0 -80 40 -124t116 -44q121 0 196 84l43 -261q-133 -133 -387 -133z" />
    <glyph glyph-name="u" unicode="u" horiz-adv-x="1394" 
d="M463 -35q-168 0 -263.5 108.5t-95.5 340.5v270v342h424v-342v-199q0 -196 146 -196q79 0 126.5 55.5t59.5 159.5v180v342h426v-342v-342v-342h-426v248q-45 -120 -152.5 -201.5t-244.5 -81.5z" />
    <glyph glyph-name="v" unicode="v" horiz-adv-x="1263" 
d="M84 807l-86 219h434q6 -22 29.5 -97.5t36.5 -121.5l139 -459l139 459l64 219h426l-90 -219l-279 -672q-35 -82 -43 -135h-438z" />
    <glyph glyph-name="w" unicode="w" horiz-adv-x="1771" 
d="M72 854q-2 5 -70 172h422l61 -172l138 -389l155 541h242l160 -531l133 379q44 119 61 172h393q-9 -24 -33.5 -86t-33.5 -86l-299 -764q-27 -69 -29 -90h-336l-145 518l-121 -414q-28 -91 -29 -104h-335z" />
    <glyph glyph-name="x" unicode="x" horiz-adv-x="1304" 
d="M842 0q-26 30 -77.5 94t-76.5 94l-53 68l-49 -63q-15 -20 -45 -61.5t-53.5 -73t-45.5 -58.5h-438q11 14 80.5 94.5t101.5 120.5l244 291l-252 309q-16 19 -78.5 94t-95.5 117h461q69 -82 151 -188l54 -64l47 62q19 25 68.5 90.5t76.5 99.5h428l-178 -211l-242 -287
l258 -315q32 -39 95 -115.5t80 -97.5h-461z" />
    <glyph glyph-name="y" unicode="y" horiz-adv-x="1253" 
d="M270 -502q-72 0 -132 14t-91 37v306q23 -14 79 -26.5t114 -12.5q199 0 280 184h-104l-332 807q-17 41 -46.5 116t-41.5 103h438q5 -22 15 -56t25 -83t24 -80l141 -465l139 465l66 219h424l-90 -219l-326 -789q-117 -282 -257.5 -401t-324.5 -119z" />
    <glyph glyph-name="z" unicode="z" horiz-adv-x="1134" 
d="M66 0v227l477 506h-123q-193 0 -359 -6v299h998v-221l-486 -510h185q184 0 315 8v-303h-1007z" />
    <glyph glyph-name="braceleft" unicode="{" horiz-adv-x="937" 
d="M836 -295q-156 0 -280.5 33t-212 98.5t-121.5 172t-3 243.5q19 82 21.5 138t-8.5 90.5t-41 53t-67.5 25t-98.5 6.5v271q50 0 83.5 4t63 16t44 33t22 56t2.5 85t-21 119q-26 112 -7.5 200t71 153.5t136 108.5t188.5 64t229 21v-320q-121 0 -174 -25t-59.5 -82.5
t13.5 -150.5q12 -62 14 -114.5t-3 -90.5t-19.5 -69.5t-30.5 -52t-40 -36.5t-44 -24.5t-48 -14t-45 -7.5t-42 -4v-7q27 -2 41 -4t44 -8t48 -14t44 -24t41 -36.5t30.5 -52t20.5 -70t3 -92t-14 -116.5q-21 -93 -13.5 -150t60.5 -81.5t173 -24.5v-320z" />
    <glyph glyph-name="bar" unicode="|" horiz-adv-x="563" 
d="M139 -244v1997h285v-1997h-285z" />
    <glyph glyph-name="braceright" unicode="}" horiz-adv-x="937" 
d="M102 25q120 0 173 24.5t60.5 81.5t-13.5 150q-12 63 -14 116.5t3 92t20.5 70t30.5 52t41 36.5t44 24t48 14t44 8t41 4v7q-25 2 -42 4t-45 7.5t-48 14t-44 24.5t-40 36.5t-30.5 52t-19.5 69.5t-3 90.5t14 114.5q20 93 13.5 150.5t-59.5 82.5t-174 25v320q124 0 229 -21
t188.5 -64t136 -108.5t71 -153.5t-7.5 -200q-16 -69 -21 -119t2.5 -85t22 -56t44 -33t63 -16t83.5 -4v-271q-61 0 -98.5 -6.5t-67.5 -25t-41 -53t-8.5 -90.5t21.5 -138q31 -137 -3 -243.5t-121.5 -172t-212 -98.5t-280.5 -33v320z" />
    <glyph glyph-name="asciitilde" unicode="~" horiz-adv-x="1251" 
d="M51 322q0 221 89 331.5t245 110.5q57 0 119.5 -24t109 -53t106 -53t111.5 -24q58 0 86.5 42.5t28.5 111.5h254q0 -220 -88.5 -331t-243.5 -111q-62 0 -127 24t-111.5 52.5t-103.5 52.5t-104 24q-60 0 -88.5 -42.5t-28.5 -110.5h-254z" />
    <glyph glyph-name="exclamdown" unicode="&#xa1;" horiz-adv-x="755" 
d="M203 537h352l53 -1055h-461zM190 692v340h375v-340h-375z" />
    <glyph glyph-name="cent" unicode="&#xa2;" horiz-adv-x="1398" 
d="M465 -362l74 350q-202 39 -324.5 174t-122.5 358q0 134 49 241t134 174.5t195.5 103.5t236.5 36q39 0 59 -2l72 344h129l-76 -360q187 -41 300.5 -156.5t131.5 -273.5h-391q-20 94 -103 135l-104 -500q98 3 149.5 55t63.5 127h387q-10 -100 -57 -186t-124.5 -150
t-190.5 -100.5t-248 -36.5h-41l-70 -333h-129zM487 526q0 -173 115 -235l103 493q-103 -4 -160.5 -73.5t-57.5 -184.5z" />
    <glyph glyph-name="sterling" unicode="&#xa3;" horiz-adv-x="1644" 
d="M365 -35q-83 0 -146 23t-100 63t-55.5 88.5t-18.5 104.5q0 51 18 97.5t53.5 85t95 61t134.5 22.5q67 0 115.5 -17t97.5 -51q-8 97 -67 197h-322v131h236q-64 94 -98 173t-34 177q0 219 159.5 340t428.5 121q126 0 235.5 -34.5t195 -100t140.5 -169t68 -233.5h-387
q-4 115 -59.5 180.5t-143.5 65.5q-168 0 -168 -170q0 -49 14.5 -102t43 -129t41.5 -119h733v-131h-705q9 -55 9 -115q0 -133 -54 -256q60 -24 140 -24q109 0 166 75.5t57 223.5h387q0 -265 -145.5 -419.5t-380.5 -154.5q-191 0 -351 121q-135 -125 -333 -125zM268 244
q0 -41 26.5 -64.5t72.5 -23.5q102 0 157 90q-85 71 -159 71q-46 0 -71.5 -19.5t-25.5 -53.5z" />
    <glyph glyph-name="currency" unicode="&#xa4;" horiz-adv-x="1228" 
d="M614 254q-142 0 -262 68l-164 -162l-120 116l157 156q-92 115 -92 266q0 150 92 269l-157 157l120 115l164 -164q118 70 262 70q146 0 263 -68l163 162l123 -115l-157 -157q90 -117 90 -267q0 -151 -90 -268l157 -156l-123 -116l-163 162q-117 -68 -263 -68zM420 698
q0 -80 55.5 -136t138.5 -56q84 0 139.5 56t55.5 138q0 81 -55.5 137t-139.5 56q-82 0 -138 -57.5t-56 -137.5z" />
    <glyph glyph-name="yen" unicode="&#xa5;" horiz-adv-x="1609" 
d="M123 618v136h409l-372 610l-111 186h492q16 -28 104 -200l184 -346l175 346q74 156 98 200h465q-59 -104 -109 -186l-354 -610h399v-136h-450v-108h450v-135h-450v-33v-342h-465v342v33h-465v135h465v108h-465z" />
    <glyph glyph-name="brokenbar" unicode="&#xa6;" horiz-adv-x="563" 
d="M139 -244v791h285v-791h-285zM139 969v784h285v-784h-285z" />
    <glyph glyph-name="section" unicode="&#xa7;" horiz-adv-x="1378" 
d="M621 -362q-215 0 -356 118t-167 334h342q3 -88 48.5 -141t127.5 -53q63 0 97.5 29t34.5 77q0 50 -72 117t-252 172q-105 60 -174 115.5t-105 109t-49.5 101t-13.5 104.5q0 222 260 317q-49 82 -49 183q0 155 120.5 254.5t336.5 99.5q212 0 349.5 -116t166.5 -329h-342
q-5 86 -48 136.5t-124 50.5q-61 0 -93 -27t-32 -71q0 -54 73.5 -123.5t253.5 -173.5q104 -59 172.5 -114.5t105 -108.5t50.5 -101t14 -106q0 -223 -260 -318q45 -82 45 -174q0 -158 -121.5 -260t-338.5 -102zM418 752q0 -60 49 -105.5t217 -158.5q11 -7 16 -11
q94 -61 179 -127q82 26 82 111q0 60 -47.5 104t-201.5 146q-22 14 -34 22q-96 63 -178 129q-82 -29 -82 -110z" />
    <glyph glyph-name="dieresis" unicode="&#xa8;" horiz-adv-x="950" 
d="M535 1221v301h313v-301h-313zM102 1221v301h316v-301h-316z" />
    <glyph glyph-name="copyright" unicode="&#xa9;" horiz-adv-x="1757" 
d="M879 -29q-358 0 -568.5 216.5t-210.5 586.5q0 371 210.5 588t568.5 217q357 0 566.5 -217t209.5 -588q0 -370 -209.5 -586.5t-566.5 -216.5zM274 774q0 -302 163.5 -479.5t441.5 -177.5q275 0 437.5 177.5t162.5 479.5t-162.5 481t-437.5 179q-278 0 -441.5 -178.5
t-163.5 -481.5zM502 768q0 196 105 306t276 110q146 0 250 -81.5t131 -240.5h-215q-14 55 -55 87t-101 32q-69 0 -112.5 -56t-43.5 -157q0 -99 42 -155t110 -56q64 0 108.5 40.5t53.5 111.5h215q-13 -166 -124.5 -261.5t-267.5 -95.5q-170 0 -271 113.5t-101 302.5z" />
    <glyph glyph-name="ordfeminine" unicode="&#xaa;" horiz-adv-x="999" 
d="M295 883q-101 0 -158 44.5t-57 125.5q0 31 9 56t30 44.5t43.5 33.5t60.5 27.5t69.5 22t82.5 20.5q106 25 141 41t35 45q0 52 -82 52q-48 0 -78 -24t-29 -64h-260q8 125 113.5 198.5t292.5 73.5q342 0 342 -283v-110q0 -75 9.5 -103t45.5 -28q17 0 23 6v-135
q-64 -33 -156 -33q-38 0 -72.5 8t-65.5 25.5t-52 50t-27 76.5q-32 -76 -97 -123t-163 -47zM88 678v121h797v-121h-797zM365 1106q0 -45 57 -45q50 0 90.5 44t40.5 107v29q-6 -22 -24.5 -33.5t-75.5 -31.5q-48 -15 -68 -30.5t-20 -39.5z" />
    <glyph glyph-name="guillemotleft" unicode="&#xab;" horiz-adv-x="1226" 
d="M625 16l-549 416v135l549 414v-311l-238 -164v-14l238 -164v-312zM588 432v135l549 414v-311l-238 -164v-14l238 -164v-312z" />
    <glyph glyph-name="logicalnot" unicode="&#xac;" horiz-adv-x="1206" 
d="M743 92v369h-669v305h991v-674h-322z" />
    <glyph glyph-name="registered" unicode="&#xae;" horiz-adv-x="890" 
d="M510 1051l-66 131h-18v-101v-26v-4h-109v4v26v219v86v11h152q68 0 102.5 -29.5t34.5 -83.5q0 -71 -69 -92l92 -139v-2h-119zM92 1214q0 156 95.5 249t256.5 93t258 -93.5t97 -248.5t-97 -247.5t-258 -92.5t-256.5 92.5t-95.5 247.5zM190 1214q0 -118 68 -187t186 -69
t187 69.5t69 186.5q0 118 -69 188.5t-187 70.5t-186 -70.5t-68 -188.5zM408 1243h47q47 0 47 39q0 35 -47 35h-47v-74z" />
    <glyph glyph-name="macron" unicode="&#xaf;" horiz-adv-x="1007" 
d="M102 1237v223h803v-223h-803z" />
    <glyph glyph-name="degree" unicode="&#xb0;" horiz-adv-x="835" 
d="M416 838q-189 0 -303.5 104t-114.5 268q0 162 114.5 266.5t303.5 104.5t304.5 -104.5t115.5 -266.5q0 -163 -115 -267.5t-305 -104.5zM266 1210q0 -66 42 -106.5t108 -40.5t107.5 40.5t41.5 106.5q0 65 -41.5 105.5t-107.5 40.5t-108 -41t-42 -105z" />
    <glyph glyph-name="plusminus" unicode="&#xb1;" horiz-adv-x="1243" 
d="M125 0v244h338v235h-338v287h338v340h319v-340h336v-287h-336v-235h334v-244h-991z" />
    <glyph glyph-name="uni00B2" unicode="&#xb2;" horiz-adv-x="1013" 
d="M76 948q0 71 17.5 131t44 102t70 80.5t83.5 63t96 53.5q147 73 183 101q48 38 48 86q0 40 -27.5 62t-76.5 22q-70 0 -107.5 -44.5t-37.5 -119.5h-314q6 76 37.5 142.5t87.5 121.5t146.5 87t205.5 32q116 0 206.5 -30t147 -95.5t56.5 -159.5q0 -49 -16.5 -90t-39.5 -68.5
t-66 -56t-76.5 -45t-90.5 -41.5q-96 -43 -140 -68t-60 -49h493v-243h-870v26z" />
    <glyph glyph-name="uni00B3" unicode="&#xb3;" horiz-adv-x="1003" 
d="M516 897q-204 0 -326.5 93.5t-144.5 271.5h297q19 -136 164 -136q63 0 95 26t32 73q0 41 -28.5 61.5t-92.5 20.5h-102v176h102q57 0 85 26t28 64q0 33 -30.5 53.5t-84.5 20.5q-66 0 -113 -26t-57 -85h-295q23 159 153.5 244.5t344.5 85.5q188 0 301.5 -64t113.5 -192
q0 -82 -69.5 -135t-175.5 -66q52 -5 96.5 -18.5t84 -38.5t62.5 -66.5t23 -95.5q0 -95 -66 -163t-168.5 -99t-228.5 -31z" />
    <glyph glyph-name="acute" unicode="&#xb4;" horiz-adv-x="727" 
d="M102 1178l154 372h369l-334 -372h-189z" />
    <glyph glyph-name="uni00B5" unicode="&#xb5;" horiz-adv-x="1441" 
d="M172 -412q-29 61 -44 153.5t-17 155.5t-2 173v614v342h423v-342v-199q0 -196 146 -196q85 0 133 73t53 205v117v342h426v-342v-242q0 -120 17 -164.5t71 -44.5q32 0 49 11v-213q-104 -45 -245 -45q-112 0 -198 70.5t-99 213.5q-39 -129 -125 -213t-189 -84q-72 0 -120 39
v-51q0 -127 14 -207.5t47 -165.5h-340z" />
    <glyph glyph-name="paragraph" unicode="&#xb6;" horiz-adv-x="1622" 
d="M569 606q-86 0 -161 14.5t-144.5 49t-118.5 87t-78.5 134.5t-29.5 186q0 105 29.5 187t78.5 135t118.5 87.5t144.5 49t161 14.5h996v-266h-209v-1567h-252v1567h-176v-1567h-252v889h-107z" />
    <glyph glyph-name="periodcentered" unicode="&#xb7;" horiz-adv-x="563" 
d="M94 350v340h373v-340h-373z" />
    <glyph glyph-name="cedilla" unicode="&#xb8;" horiz-adv-x="915" 
d="M485 -530q-120 0 -220.5 41.5t-162.5 107.5l109 113q33 -44 96.5 -80.5t126.5 -36.5q131 0 131 70q0 35 -32 55t-89 20q-68 0 -92 -18l-92 74l150 184h155l-86 -109q40 7 70 7q118 0 190 -53t72 -146q0 -59 -30 -105t-78.5 -72t-104 -39t-113.5 -13z" />
    <glyph glyph-name="uni00B9" unicode="&#xb9;" horiz-adv-x="747" 
d="M266 922v342v174q-73 -90 -250 -99v252q131 1 217 73t107 179h254v-579v-342h-328z" />
    <glyph glyph-name="ordmasculine" unicode="&#xba;" horiz-adv-x="974" 
d="M487 881q-193 0 -301 94.5t-108 255.5q0 160 108 254t301 94t301.5 -94t108.5 -254q0 -161 -108.5 -255.5t-301.5 -94.5zM109 678v121h757v-121h-757zM336 1231q0 -67 40 -105.5t111 -38.5t111.5 38.5t40.5 105.5t-40.5 105t-111.5 38q-72 0 -111.5 -37.5t-39.5 -105.5z
" />
    <glyph glyph-name="guillemotright" unicode="&#xbb;" horiz-adv-x="1226" 
d="M602 16v312l238 164v14l-238 164v311l549 -414v-135zM90 16v312l238 164v14l-238 164v311l549 -414v-135z" />
    <glyph glyph-name="onequarter" unicode="&#xbc;" horiz-adv-x="2148" 
d="M266 653v342v174q-72 -89 -250 -98v252q131 1 217 73t107 179h254v-580v-342h-328zM209 0l1196 1550h328l-1196 -1550h-328zM1102 160v182l553 578h293v-539h174v-221h-174v-19v-139v-4h-314v4v139v19h-532zM1374 381h260v278z" />
    <glyph glyph-name="onehalf" unicode="&#xbd;" horiz-adv-x="2207" 
d="M266 653v342v174q-72 -89 -250 -98v252q131 1 217 73t107 179h254v-580v-342h-328zM209 0l1196 1550h328l-1196 -1550h-328zM1249 563q6 76 37.5 142.5t87.5 121.5t146.5 87t205.5 32q116 0 206.5 -29.5t147 -95t56.5 -159.5q0 -49 -16.5 -90t-39.5 -69t-66 -56
t-76.5 -45t-90.5 -42q-98 -44 -141 -68t-59 -48h493v-244h-870v27q0 71 17.5 131t44 102t70 80.5t83.5 63t96 53.5q146 72 181 99q50 38 50 87q0 40 -27.5 62t-76.5 22q-70 0 -107.5 -44.5t-37.5 -119.5h-314z" />
    <glyph glyph-name="threequarters" unicode="&#xbe;" horiz-adv-x="2404" 
d="M516 629q-205 0 -327 93t-144 271h297q19 -135 164 -135q127 0 127 98q0 41 -28.5 61.5t-92.5 20.5h-102v176h102q57 0 85 26.5t28 64.5q0 33 -30.5 53t-84.5 20q-152 0 -170 -110h-295q23 159 153.5 244t344.5 85q188 0 301.5 -64t113.5 -192q0 -82 -69.5 -134.5
t-175.5 -65.5q52 -5 96.5 -18.5t84 -38.5t62.5 -66.5t23 -95.5q0 -95 -66 -163t-168.5 -99t-228.5 -31zM465 0l1196 1550h328l-1196 -1550h-328zM1358 160v182l553 578h293v-539h174v-221h-174v-19v-139v-4h-314v4v139v19h-532zM1630 381h260v278z" />
    <glyph glyph-name="questiondown" unicode="&#xbf;" horiz-adv-x="1257" 
d="M844 537q41 -83 41 -158q0 -47 -22 -91.5t-57 -80t-77 -69.5t-84 -65.5t-77 -62.5t-57 -66t-22 -71q0 -51 32.5 -83t96.5 -32q89 0 142.5 56t60.5 161h387q-12 -135 -67 -237.5t-143 -164t-196.5 -92t-236.5 -30.5q-241 0 -378.5 103.5t-137.5 285.5q0 77 25 140
t64.5 105t87.5 77.5t96.5 65t88 58t64.5 65t25 79.5q0 55 -29 107h373zM461 692v340h375v-340h-375z" />
    <glyph glyph-name="Agrave" unicode="&#xc0;" horiz-adv-x="1658" 
d="M-8 0q24 68 84 217l475 1208l49 125h459l530 -1349q57 -142 78 -201h-493l-64 199l-29 90h-530l-29 -86q-11 -38 -35.5 -112.5t-29.5 -90.5h-465zM354 2011h406l213 -317h-273zM649 588h336l-166 516z" />
    <glyph glyph-name="Aacute" unicode="&#xc1;" horiz-adv-x="1658" 
d="M-8 0q24 68 84 217l475 1208l49 125h459l530 -1349q57 -142 78 -201h-493l-64 199l-29 90h-530l-29 -86q-11 -38 -35.5 -112.5t-29.5 -90.5h-465zM649 588h336l-166 516zM686 1694l213 317h406l-349 -317h-270z" />
    <glyph glyph-name="Acircumflex" unicode="&#xc2;" horiz-adv-x="1658" 
d="M-8 0q24 68 84 217l475 1208l49 125h459l530 -1349q57 -142 78 -201h-493l-64 199l-29 90h-530l-29 -86q-11 -38 -35.5 -112.5t-29.5 -90.5h-465zM365 1694l344 317h243l346 -317h-311l-156 166l-157 -166h-309zM649 588h336l-166 516z" />
    <glyph glyph-name="Atilde" unicode="&#xc3;" horiz-adv-x="1658" 
d="M-8 0q24 68 84 217l475 1208l49 125h459l530 -1349q57 -142 78 -201h-493l-64 199l-29 90h-530l-29 -86q-11 -38 -35.5 -112.5t-29.5 -90.5h-465zM446 1683q0 330 236 330q49 0 86 -13t59 -31.5t40 -36.5t39.5 -31t47.5 -13q42 0 58 29.5t18 93.5h187q-3 -328 -236 -328
q-47 0 -83 13t-58.5 31.5t-41.5 36.5t-41.5 31t-49.5 13q-40 0 -57 -31t-17 -94h-187zM649 588h336l-166 516z" />
    <glyph glyph-name="Adieresis" unicode="&#xc4;" horiz-adv-x="1658" 
d="M-8 0q24 68 84 217l475 1208l49 125h459l530 -1349q57 -142 78 -201h-493l-64 199l-29 90h-530l-29 -86q-11 -38 -35.5 -112.5t-29.5 -90.5h-465zM432 1702v301h322v-301h-322zM649 588h336l-166 516zM905 1702v301h322v-301h-322z" />
    <glyph glyph-name="Aring" unicode="&#xc5;" horiz-adv-x="1658" 
d="M-8 0q24 68 84 217l475 1208l49 125h459l530 -1349q57 -142 78 -201h-493l-64 199l-29 90h-530l-29 -86q-11 -38 -35.5 -112.5t-29.5 -90.5h-465zM541 1880q0 107 76 164t212 57q138 0 215.5 -57t77.5 -164t-77 -163t-216 -56q-136 0 -212 56t-76 163zM649 588h336
l-166 516zM717 1880q0 -40 29.5 -62t80.5 -22q53 0 83 22t30 62q0 41 -30 63.5t-83 22.5q-51 0 -80.5 -22.5t-29.5 -63.5z" />
    <glyph glyph-name="AE" unicode="&#xc6;" horiz-adv-x="2256" 
d="M-72 0q60 105 209 358l699 1192h1333v-327q-182 6 -424 6h-189v-287h17q282 0 495 4v-305q-213 4 -495 4h-17v-323h191h442v-322h-1097v324h-494l-2 -2q-64 -127 -166 -322h-502zM754 625h338v583v4h-31z" />
    <glyph glyph-name="Ccedilla" unicode="&#xc7;" horiz-adv-x="1855" 
d="M932 -530q-120 0 -220.5 41.5t-162.5 107.5l108 113q32 -44 96.5 -80.5t127.5 -36.5q131 0 131 70q0 35 -32 55t-89 20q-68 0 -92 -18l-92 74l127 157q-170 14 -312.5 76.5t-244 165t-158 247t-56.5 316.5q0 248 111 430.5t307.5 276.5t454.5 94q164 0 307 -38.5
t259 -114t195 -196t109 -276.5h-475q-36 126 -137.5 198.5t-249.5 72.5q-84 0 -157 -29.5t-128 -84.5t-86.5 -141t-31.5 -192q0 -214 113 -334t290 -120q156 0 262 90t129 243h473q-16 -156 -86.5 -283.5t-180.5 -212.5t-250.5 -133.5t-301.5 -56.5l-63 -80q40 7 69 7
q118 0 190 -53t72 -146q0 -59 -29.5 -105t-78.5 -72t-104 -39t-113 -13z" />
    <glyph glyph-name="Egrave" unicode="&#xc8;" horiz-adv-x="1312" 
d="M147 0v342v866v342h1078v-327q-182 6 -424 6h-189v-287h17q282 0 495 4v-305q-213 4 -495 4h-17v-323h191h442v-322h-1098zM195 2011h405l213 -317h-272z" />
    <glyph glyph-name="Eacute" unicode="&#xc9;" horiz-adv-x="1312" 
d="M147 0v342v866v342h1078v-327q-182 6 -424 6h-189v-287h17q282 0 495 4v-305q-213 4 -495 4h-17v-323h191h442v-322h-1098zM526 1694l213 317h406l-348 -317h-271z" />
    <glyph glyph-name="Ecircumflex" unicode="&#xca;" horiz-adv-x="1312" 
d="M147 0v342v866v342h1078v-327q-182 6 -424 6h-189v-287h17q282 0 495 4v-305q-213 4 -495 4h-17v-323h191h442v-322h-1098zM205 1694l344 317h244l346 -317h-312l-155 166l-158 -166h-309z" />
    <glyph glyph-name="Edieresis" unicode="&#xcb;" horiz-adv-x="1312" 
d="M147 0v342v866v342h1078v-327q-182 6 -424 6h-189v-287h17q282 0 495 4v-305q-213 4 -495 4h-17v-323h191h442v-322h-1098zM272 1702v301h322v-301h-322zM745 1702v301h322v-301h-322z" />
    <glyph glyph-name="Igrave" unicode="&#xcc;" horiz-adv-x="759" 
d="M147 0v342v866v342h465v-342v-866v-342h-465zM-94 2011h405l213 -317h-272z" />
    <glyph glyph-name="Iacute" unicode="&#xcd;" horiz-adv-x="759" 
d="M147 0v342v866v342h465v-342v-866v-342h-465zM236 1694l213 317h405l-348 -317h-270z" />
    <glyph glyph-name="Icircumflex" unicode="&#xce;" horiz-adv-x="759" 
d="M147 0v342v866v342h465v-342v-866v-342h-465zM-86 1694l344 317h244l346 -317h-311l-156 166l-158 -166h-309z" />
    <glyph glyph-name="Idieresis" unicode="&#xcf;" horiz-adv-x="759" 
d="M147 0v342v866v342h465v-342v-866v-342h-465zM-16 1702v301h321v-301h-321zM457 1702v301h321v-301h-321z" />
    <glyph glyph-name="Eth" unicode="&#xd0;" horiz-adv-x="1777" 
d="M147 0v342v330h-163v235h163v301v342h621q221 0 400.5 -56.5t299 -158.5t184 -244.5t64.5 -312.5q0 -174 -64.5 -317.5t-184 -246t-298.5 -158.5t-401 -56h-621zM612 338h140q231 0 362 116t131 320q0 207 -129 322.5t-364 115.5h-140v-305h320v-235h-320v-334z" />
    <glyph glyph-name="Ntilde" unicode="&#xd1;" horiz-adv-x="1757" 
d="M1165 0l-577 913v-571v-342h-441v342v866v342h445l577 -907v565v342h441v-342v-1208h-445zM467 1683q0 330 235 330q49 0 86 -13t59 -31.5t40.5 -36.5t40 -31t47.5 -13q42 0 58 29.5t18 93.5h186q-3 -328 -236 -328q-47 0 -83 13t-58.5 31.5t-41.5 36.5t-41.5 31
t-49.5 13q-40 0 -57 -31t-17 -94h-186z" />
    <glyph glyph-name="Ograve" unicode="&#xd2;" horiz-adv-x="1902" 
d="M952 -35q-207 0 -375.5 60t-280.5 167.5t-172.5 256.5t-60.5 327t60.5 326t172.5 254t280 164.5t376 58.5q207 0 374.5 -59t280 -165.5t172.5 -256t60 -330.5q0 -177 -60.5 -325t-172.5 -254t-279.5 -165t-374.5 -59zM477 2011h406l213 -317h-273zM541 768
q0 -205 109 -321.5t302 -116.5q192 0 301 118t109 328q0 205 -109 321.5t-301 116.5q-194 0 -302.5 -117t-108.5 -329z" />
    <glyph glyph-name="Oacute" unicode="&#xd3;" horiz-adv-x="1902" 
d="M952 -35q-207 0 -375.5 60t-280.5 167.5t-172.5 256.5t-60.5 327t60.5 326t172.5 254t280 164.5t376 58.5q207 0 374.5 -59t280 -165.5t172.5 -256t60 -330.5q0 -177 -60.5 -325t-172.5 -254t-279.5 -165t-374.5 -59zM541 768q0 -205 109 -321.5t302 -116.5
q192 0 301 118t109 328q0 205 -109 321.5t-301 116.5q-194 0 -302.5 -117t-108.5 -329zM809 1694l213 317h405l-348 -317h-270z" />
    <glyph glyph-name="Ocircumflex" unicode="&#xd4;" horiz-adv-x="1902" 
d="M952 -35q-207 0 -375.5 60t-280.5 167.5t-172.5 256.5t-60.5 327t60.5 326t172.5 254t280 164.5t376 58.5q207 0 374.5 -59t280 -165.5t172.5 -256t60 -330.5q0 -177 -60.5 -325t-172.5 -254t-279.5 -165t-374.5 -59zM485 1694l344 317h244l346 -317h-311l-156 166
l-157 -166h-310zM541 768q0 -205 109 -321.5t302 -116.5q192 0 301 118t109 328q0 205 -109 321.5t-301 116.5q-194 0 -302.5 -117t-108.5 -329z" />
    <glyph glyph-name="Otilde" unicode="&#xd5;" horiz-adv-x="1902" 
d="M952 -35q-207 0 -375.5 60t-280.5 167.5t-172.5 256.5t-60.5 327t60.5 326t172.5 254t280 164.5t376 58.5q207 0 374.5 -59t280 -165.5t172.5 -256t60 -330.5q0 -177 -60.5 -325t-172.5 -254t-279.5 -165t-374.5 -59zM541 768q0 -205 109 -321.5t302 -116.5
q192 0 301 118t109 328q0 205 -109 321.5t-301 116.5q-194 0 -302.5 -117t-108.5 -329zM567 1683q0 330 236 330q49 0 86 -13t59 -31.5t40 -36.5t39.5 -31t47.5 -13q42 0 58 29.5t18 93.5h186q-1 -168 -60 -248t-175 -80q-47 0 -83 13t-58.5 31.5t-42 36.5t-42 31t-49.5 13
q-40 0 -56.5 -31t-16.5 -94h-187z" />
    <glyph glyph-name="Odieresis" unicode="&#xd6;" horiz-adv-x="1902" 
d="M952 -35q-207 0 -375.5 60t-280.5 167.5t-172.5 256.5t-60.5 327t60.5 326t172.5 254t280 164.5t376 58.5q207 0 374.5 -59t280 -165.5t172.5 -256t60 -330.5q0 -177 -60.5 -325t-172.5 -254t-279.5 -165t-374.5 -59zM541 768q0 -205 109 -321.5t302 -116.5
q192 0 301 118t109 328q0 205 -109 321.5t-301 116.5q-194 0 -302.5 -117t-108.5 -329zM555 1702v301h322v-301h-322zM1028 1702v301h322v-301h-322z" />
    <glyph glyph-name="multiply" unicode="&#xd7;" horiz-adv-x="1173" 
d="M330 55l-215 215l258 256l-258 258l215 215l258 -258l258 258l213 -215l-256 -258l256 -256l-213 -215l-258 258z" />
    <glyph glyph-name="Oslash" unicode="&#xd8;" horiz-adv-x="1902" 
d="M457 -330l-138 76l170 317q-205 98 -315.5 284.5t-110.5 430.5q0 178 60.5 326t172.5 254t280 164.5t376 58.5q182 0 334 -45l162 299l139 -74l-153 -284q196 -100 300.5 -282.5t104.5 -424.5q0 -177 -60.5 -325t-172.5 -254t-279.5 -165t-374.5 -59q-170 0 -313 41z
M541 770q0 -233 141 -352l420 776q-74 23 -150 23q-194 0 -302.5 -117.5t-108.5 -329.5zM823 348q62 -16 129 -16q192 0 301 118t109 328q0 221 -123 338z" />
    <glyph glyph-name="Ugrave" unicode="&#xd9;" horiz-adv-x="1679" 
d="M840 -39q-126 0 -231.5 23t-195 74.5t-151.5 129.5t-96.5 194t-34.5 263v563v342h465v-342v-585q0 -155 59 -228t189 -73q129 0 187.5 73t58.5 228v585v342h458v-342v-563q0 -146 -34 -261.5t-95 -194t-150 -130.5t-195 -75t-234 -23zM362 2011h406l213 -317h-272z" />
    <glyph glyph-name="Uacute" unicode="&#xda;" horiz-adv-x="1679" 
d="M840 -39q-126 0 -231.5 23t-195 74.5t-151.5 129.5t-96.5 194t-34.5 263v563v342h465v-342v-585q0 -155 59 -228t189 -73q129 0 187.5 73t58.5 228v585v342h458v-342v-563q0 -146 -34 -261.5t-95 -194t-150 -130.5t-195 -75t-234 -23zM694 1694l213 317h406l-348 -317
h-271z" />
    <glyph glyph-name="Ucircumflex" unicode="&#xdb;" horiz-adv-x="1679" 
d="M840 -39q-126 0 -231.5 23t-195 74.5t-151.5 129.5t-96.5 194t-34.5 263v563v342h465v-342v-585q0 -155 59 -228t189 -73q129 0 187.5 73t58.5 228v585v342h458v-342v-563q0 -146 -34 -261.5t-95 -194t-150 -130.5t-195 -75t-234 -23zM373 1694l344 317h244l346 -317
h-312l-155 166l-158 -166h-309z" />
    <glyph glyph-name="Udieresis" unicode="&#xdc;" horiz-adv-x="1679" 
d="M840 -39q-126 0 -231.5 23t-195 74.5t-151.5 129.5t-96.5 194t-34.5 263v563v342h465v-342v-585q0 -155 59 -228t189 -73q129 0 187.5 73t58.5 228v585v342h458v-342v-563q0 -146 -34 -261.5t-95 -194t-150 -130.5t-195 -75t-234 -23zM440 1702v301h322v-301h-322z
M913 1702v301h322v-301h-322z" />
    <glyph glyph-name="Yacute" unicode="&#xdd;" horiz-adv-x="1515" 
d="M109 1364l-111 186h491q24 -41 105 -200l184 -346l174 346q67 142 99 200h465q-59 -104 -109 -186l-406 -696v-326v-342h-464v342v322zM625 1694l213 317h405l-348 -317h-270z" />
    <glyph glyph-name="Thorn" unicode="&#xde;" horiz-adv-x="1478" 
d="M150 0v342v866v342h462v-268h119q361 0 530 -121t169 -366q0 -229 -178 -355.5t-527 -126.5h-113v-313h-462zM612 612h111q132 0 194 45.5t62 137.5q0 90 -60 133t-190 43h-117v-359z" />
    <glyph glyph-name="germandbls" unicode="&#xdf;" horiz-adv-x="1480" 
d="M938 -37q-94 0 -177 21t-130 57v332q34 -63 92.5 -95t122.5 -32q59 0 93 25.5t34 78.5q0 52 -32.5 93.5t-113.5 109.5q-92 80 -128.5 129t-36.5 111q0 49 23.5 85.5t82.5 92.5q48 48 67 69.5t35.5 55.5t16.5 71q0 67 -40 104.5t-116 37.5q-101 0 -156 -74.5t-55 -226.5
v-666v-342h-409v342v666q0 277 163.5 441.5t468.5 164.5q238 0 383.5 -99t145.5 -262q0 -30 -5 -56t-16.5 -48.5t-21.5 -38t-30.5 -34t-30.5 -27.5t-35 -27.5t-33 -24.5q-74 -53 -91 -73q-22 -26 -22 -56q0 -25 22 -52t45.5 -44t71.5 -49q66 -44 111.5 -81.5t86.5 -85.5
t61 -104t20 -120q0 -166 -128 -267.5t-339 -101.5z" />
    <glyph glyph-name="agrave" unicode="&#xe0;" horiz-adv-x="1339" 
d="M373 -33q-156 0 -244 70.5t-88 200.5q0 62 23 110.5t58 80.5t99 61t121 46.5t150 41.5q165 41 219.5 66.5t54.5 72.5q0 84 -131 84q-85 0 -138 -40.5t-53 -109.5h-368q10 124 93 219.5t217 146t298 50.5q89 0 163 -13.5t138 -45.5t108.5 -80.5t69.5 -121.5t25 -167v-199
q0 -117 17.5 -159.5t72.5 -42.5q31 0 47 8v-215q-41 -19 -108 -32t-134 -13q-65 0 -123.5 19.5t-106.5 67t-65 117.5q-58 -100 -161.5 -161.5t-253.5 -61.5zM215 1550h371l153 -372h-190zM455 295q0 -37 27 -58.5t69 -21.5q87 0 153 67.5t66 166.5v63q-14 -27 -51 -46
t-125 -48q-76 -27 -107.5 -54t-31.5 -69z" />
    <glyph glyph-name="aacute" unicode="&#xe1;" horiz-adv-x="1339" 
d="M373 -33q-156 0 -244 70.5t-88 200.5q0 62 23 110.5t58 80.5t99 61t121 46.5t150 41.5q165 41 219.5 66.5t54.5 72.5q0 84 -131 84q-85 0 -138 -40.5t-53 -109.5h-368q10 124 93 219.5t217 146t298 50.5q89 0 163 -13.5t138 -45.5t108.5 -80.5t69.5 -121.5t25 -167v-199
q0 -117 17.5 -159.5t72.5 -42.5q31 0 47 8v-215q-41 -19 -108 -32t-134 -13q-65 0 -123.5 19.5t-106.5 67t-65 117.5q-58 -100 -161.5 -161.5t-253.5 -61.5zM455 295q0 -37 27 -58.5t69 -21.5q87 0 153 67.5t66 166.5v63q-14 -27 -51 -46t-125 -48q-76 -27 -107.5 -54
t-31.5 -69zM569 1178l154 372h369l-334 -372h-189z" />
    <glyph glyph-name="acircumflex" unicode="&#xe2;" horiz-adv-x="1339" 
d="M373 -33q-156 0 -244 70.5t-88 200.5q0 62 23 110.5t58 80.5t99 61t121 46.5t150 41.5q165 41 219.5 66.5t54.5 72.5q0 84 -131 84q-85 0 -138 -40.5t-53 -109.5h-368q10 124 93 219.5t217 146t298 50.5q89 0 163 -13.5t138 -45.5t108.5 -80.5t69.5 -121.5t25 -167v-199
q0 -117 17.5 -159.5t72.5 -42.5q31 0 47 8v-215q-41 -19 -108 -32t-134 -13q-65 0 -123.5 19.5t-106.5 67t-65 117.5q-58 -100 -161.5 -161.5t-253.5 -61.5zM221 1178l307 368h244l309 -368h-288l-142 206l-141 -206h-289zM455 295q0 -37 27 -58.5t69 -21.5q87 0 153 67.5
t66 166.5v63q-14 -27 -51 -46t-125 -48q-76 -27 -107.5 -54t-31.5 -69z" />
    <glyph glyph-name="atilde" unicode="&#xe3;" horiz-adv-x="1339" 
d="M373 -33q-156 0 -244 70.5t-88 200.5q0 62 23 110.5t58 80.5t99 61t121 46.5t150 41.5q165 41 219.5 66.5t54.5 72.5q0 84 -131 84q-85 0 -138 -40.5t-53 -109.5h-368q10 124 93 219.5t217 146t298 50.5q89 0 163 -13.5t138 -45.5t108.5 -80.5t69.5 -121.5t25 -167v-199
q0 -117 17.5 -159.5t72.5 -42.5q31 0 47 8v-215q-41 -19 -108 -32t-134 -13q-65 0 -123.5 19.5t-106.5 67t-65 117.5q-58 -100 -161.5 -161.5t-253.5 -61.5zM254 1178q-6 389 235 389q47 0 85 -16t63 -39t46.5 -46t47 -39t53.5 -16q46 0 65 38.5t17 117.5h172
q1 -201 -56 -298.5t-175 -97.5q-50 0 -89.5 17t-64 41t-45.5 48t-46.5 41t-55.5 17q-85 0 -82 -157h-170zM455 295q0 -37 27 -58.5t69 -21.5q87 0 153 67.5t66 166.5v63q-14 -27 -51 -46t-125 -48q-76 -27 -107.5 -54t-31.5 -69z" />
    <glyph glyph-name="adieresis" unicode="&#xe4;" horiz-adv-x="1339" 
d="M373 -33q-156 0 -244 70.5t-88 200.5q0 62 23 110.5t58 80.5t99 61t121 46.5t150 41.5q165 41 219.5 66.5t54.5 72.5q0 84 -131 84q-85 0 -138 -40.5t-53 -109.5h-368q10 124 93 219.5t217 146t298 50.5q89 0 163 -13.5t138 -45.5t108.5 -80.5t69.5 -121.5t25 -167v-199
q0 -117 17.5 -159.5t72.5 -42.5q31 0 47 8v-215q-41 -19 -108 -32t-134 -13q-65 0 -123.5 19.5t-106.5 67t-65 117.5q-58 -100 -161.5 -161.5t-253.5 -61.5zM276 1221v301h316v-301h-316zM455 295q0 -37 27 -58.5t69 -21.5q87 0 153 67.5t66 166.5v63q-14 -27 -51 -46
t-125 -48q-76 -27 -107.5 -54t-31.5 -69zM709 1221v301h313v-301h-313z" />
    <glyph glyph-name="aring" unicode="&#xe5;" horiz-adv-x="1339" 
d="M373 -33q-156 0 -244 70.5t-88 200.5q0 62 23 110.5t58 80.5t99 61t121 46.5t150 41.5q165 41 219.5 66.5t54.5 72.5q0 84 -131 84q-85 0 -138 -40.5t-53 -109.5h-368q10 124 93 219.5t217 146t298 50.5q89 0 163 -13.5t138 -45.5t108.5 -80.5t69.5 -121.5t25 -167v-199
q0 -117 17.5 -159.5t72.5 -42.5q31 0 47 8v-215q-41 -19 -108 -32t-134 -13q-65 0 -123.5 19.5t-106.5 67t-65 117.5q-58 -100 -161.5 -161.5t-253.5 -61.5zM360 1419q0 107 78.5 174.5t210.5 67.5q135 0 215 -67.5t80 -174.5t-80 -174t-215 -67q-132 0 -210.5 67t-78.5 174
zM455 295q0 -37 27 -58.5t69 -21.5q87 0 153 67.5t66 166.5v63q-14 -27 -51 -46t-125 -48q-76 -27 -107.5 -54t-31.5 -69zM537 1419q0 -49 30 -76.5t82 -27.5t82.5 27.5t30.5 76.5t-30.5 77t-82.5 28q-51 0 -81.5 -28t-30.5 -77z" />
    <glyph glyph-name="ae" unicode="&#xe6;" horiz-adv-x="2043" 
d="M1403 -39q-173 0 -305.5 77.5t-196.5 221.5q-65 -143 -192.5 -218t-307.5 -75q-170 -2 -265 69t-95 200q0 44 12 81t31 65t53 53t66 42t83.5 35.5t93 30t105.5 28.5q166 44 222.5 71.5t56.5 72.5q0 86 -129 86q-88 0 -140.5 -40.5t-52.5 -109.5h-364q9 125 87 220.5
t202.5 145.5t275.5 50q247 0 365 -147q153 147 403 147q270 0 425 -151.5t155 -421.5h-820q7 -122 72 -186t168 -64q89 0 145 41.5t72 107.5h361q-15 -86 -57 -160.5t-111.5 -137t-177 -98.5t-240.5 -36zM455 295q0 -37 28.5 -58.5t73.5 -21.5q90 0 155.5 67.5t65.5 166.5
v63q-13 -27 -51 -47t-125 -49q-80 -25 -113.5 -52t-33.5 -69zM1190 651h428q-47 154 -209 154q-169 0 -219 -154z" />
    <glyph glyph-name="ccedilla" unicode="&#xe7;" horiz-adv-x="1333" 
d="M688 -530q-120 0 -220.5 41.5t-162.5 107.5l109 113q33 -44 96.5 -80.5t126.5 -36.5q131 0 131 70q0 35 -32 55t-89 20q-68 0 -92 -18l-92 74l121 149q-112 10 -207 48.5t-168 104t-114.5 166t-41.5 226.5q0 134 49 241t134 174.5t195.5 103.5t236.5 36q263 0 429 -126.5
t187 -322.5h-391q-15 65 -66 111.5t-149 46.5q-109 0 -169 -69.5t-60 -188.5t60.5 -191.5t168.5 -72.5q102 0 155.5 52.5t65.5 129.5h387q-19 -192 -164 -321.5t-383 -149.5l-57 -72q40 7 70 7q118 0 190 -53t72 -146q0 -59 -30 -105t-78.5 -72t-104 -39t-113.5 -13z" />
    <glyph glyph-name="egrave" unicode="&#xe8;" horiz-adv-x="1347" 
d="M672 -39q-177 0 -315.5 62t-221 188.5t-82.5 300.5t84 301.5t223.5 190.5t315.5 63q289 0 453.5 -154.5t164.5 -423.5h-858q9 -120 74.5 -180.5t167.5 -60.5q93 0 150.5 41t76.5 106h381q-14 -85 -58 -160.5t-117.5 -138t-186.5 -99t-252 -36.5zM238 1550h370l154 -372
h-191zM461 662h434q-53 139 -219 139q-160 0 -215 -139z" />
    <glyph glyph-name="eacute" unicode="&#xe9;" horiz-adv-x="1347" 
d="M672 -39q-177 0 -315.5 62t-221 188.5t-82.5 300.5t84 301.5t223.5 190.5t315.5 63q289 0 453.5 -154.5t164.5 -423.5h-858q9 -120 74.5 -180.5t167.5 -60.5q93 0 150.5 41t76.5 106h381q-14 -85 -58 -160.5t-117.5 -138t-186.5 -99t-252 -36.5zM461 662h434
q-53 139 -219 139q-160 0 -215 -139zM592 1178l153 372h369l-334 -372h-188z" />
    <glyph glyph-name="ecircumflex" unicode="&#xea;" horiz-adv-x="1347" 
d="M672 -39q-177 0 -315.5 62t-221 188.5t-82.5 300.5t84 301.5t223.5 190.5t315.5 63q289 0 453.5 -154.5t164.5 -423.5h-858q9 -120 74.5 -180.5t167.5 -60.5q93 0 150.5 41t76.5 106h381q-14 -85 -58 -160.5t-117.5 -138t-186.5 -99t-252 -36.5zM244 1178l307 368h244
l309 -368h-289l-141 206l-142 -206h-288zM461 662h434q-53 139 -219 139q-160 0 -215 -139z" />
    <glyph glyph-name="edieresis" unicode="&#xeb;" horiz-adv-x="1347" 
d="M672 -39q-177 0 -315.5 62t-221 188.5t-82.5 300.5t84 301.5t223.5 190.5t315.5 63q289 0 453.5 -154.5t164.5 -423.5h-858q9 -120 74.5 -180.5t167.5 -60.5q93 0 150.5 41t76.5 106h381q-14 -85 -58 -160.5t-117.5 -138t-186.5 -99t-252 -36.5zM299 1221v301h315v-301
h-315zM461 662h434q-53 139 -219 139q-160 0 -215 -139zM731 1221v301h313v-301h-313z" />
    <glyph glyph-name="igrave" unicode="&#xec;" horiz-adv-x="645" 
d="M111 0v342v342v342h424v-684v-342h-424zM-113 1550h371l154 -372h-191z" />
    <glyph glyph-name="iacute" unicode="&#xed;" horiz-adv-x="645" 
d="M111 0v342v342v342h424v-684v-342h-424zM242 1178l153 372h369l-334 -372h-188z" />
    <glyph glyph-name="icircumflex" unicode="&#xee;" horiz-adv-x="645" 
d="M111 0v342v342v342h424v-684v-342h-424zM-106 1178l307 368h243l310 -368h-289l-141 206l-142 -206h-288z" />
    <glyph glyph-name="idieresis" unicode="&#xef;" horiz-adv-x="645" 
d="M111 0v342v342v342h424v-684v-342h-424zM-53 1221v301h315v-301h-315zM379 1221v301h313v-301h-313z" />
    <glyph glyph-name="eth" unicode="&#xf0;" horiz-adv-x="1380" 
d="M674 -39q-128 0 -241 37.5t-197.5 106t-133.5 172t-49 227.5q0 120 47 218.5t125.5 162t179.5 97.5t211 34q178 0 295 -94q-55 192 -174 329l-561 -231v223l379 156q-169 101 -401 127l245 92q228 -20 412 -113l420 172v-223l-217 -90q148 -133 225.5 -317.5t77.5 -389.5
q0 -331 -177 -513.5t-466 -182.5zM455 514q0 -123 60 -191.5t167 -68.5q109 0 170 69.5t61 192.5t-61.5 188.5t-169.5 65.5q-107 0 -167 -67.5t-60 -188.5z" />
    <glyph glyph-name="ntilde" unicode="&#xf1;" horiz-adv-x="1396" 
d="M111 0v342v342v342h424v-246q48 129 154 208t251 79q166 0 259 -105t93 -331v-289v-342h-424v342v199q0 196 -149 196q-75 0 -123 -46.5t-61 -121.5v-227v-342h-424zM338 1178q-6 389 235 389q47 0 85 -16t63 -39t46.5 -46t47 -39t53.5 -16q46 0 65 38.5t17 117.5h172
q1 -201 -56 -298.5t-175 -97.5q-50 0 -89.5 17t-64 41t-45.5 48t-46.5 41t-55.5 17q-85 0 -82 -157h-170z" />
    <glyph glyph-name="ograve" unicode="&#xf2;" horiz-adv-x="1359" 
d="M680 -39q-295 0 -461 150t-166 401q0 253 166 403t461 150t461 -150t166 -403q0 -251 -166 -401t-461 -150zM250 1550h371l153 -372h-190zM457 512q0 -124 58.5 -191t164.5 -67q105 0 164 67t59 191q0 125 -59 193.5t-164 68.5q-106 0 -164.5 -68t-58.5 -194z" />
    <glyph glyph-name="oacute" unicode="&#xf3;" horiz-adv-x="1359" 
d="M680 -39q-295 0 -461 150t-166 401q0 253 166 403t461 150t461 -150t166 -403q0 -251 -166 -401t-461 -150zM457 512q0 -124 58.5 -191t164.5 -67q105 0 164 67t59 191q0 125 -59 193.5t-164 68.5q-106 0 -164.5 -68t-58.5 -194zM604 1178l154 372h368l-333 -372h-189z
" />
    <glyph glyph-name="ocircumflex" unicode="&#xf4;" horiz-adv-x="1359" 
d="M680 -39q-295 0 -461 150t-166 401q0 253 166 403t461 150t461 -150t166 -403q0 -251 -166 -401t-461 -150zM256 1178l307 368h244l309 -368h-289l-141 206l-141 -206h-289zM457 512q0 -124 58.5 -191t164.5 -67q105 0 164 67t59 191q0 125 -59 193.5t-164 68.5
q-106 0 -164.5 -68t-58.5 -194z" />
    <glyph glyph-name="otilde" unicode="&#xf5;" horiz-adv-x="1359" 
d="M680 -39q-295 0 -461 150t-166 401q0 253 166 403t461 150t461 -150t166 -403q0 -251 -166 -401t-461 -150zM289 1178q-6 389 235 389q47 0 85 -16t63 -39t46.5 -46t47 -39t53.5 -16q46 0 65 38.5t17 117.5h172q1 -201 -56 -298.5t-175 -97.5q-50 0 -89.5 17t-64 41
t-45.5 48t-46.5 41t-55.5 17q-85 0 -82 -157h-170zM457 512q0 -124 58.5 -191t164.5 -67q105 0 164 67t59 191q0 125 -59 193.5t-164 68.5q-106 0 -164.5 -68t-58.5 -194z" />
    <glyph glyph-name="odieresis" unicode="&#xf6;" horiz-adv-x="1359" 
d="M680 -39q-295 0 -461 150t-166 401q0 253 166 403t461 150t461 -150t166 -403q0 -251 -166 -401t-461 -150zM311 1221v301h316v-301h-316zM457 512q0 -124 58.5 -191t164.5 -67q105 0 164 67t59 191q0 125 -59 193.5t-164 68.5q-106 0 -164.5 -68t-58.5 -194zM743 1221
v301h314v-301h-314z" />
    <glyph glyph-name="divide" unicode="&#xf7;" horiz-adv-x="1173" 
d="M90 383v289h993v-289h-993zM434 16v260h305v-260h-305zM434 774v262h305v-262h-305z" />
    <glyph glyph-name="oslash" unicode="&#xf8;" horiz-adv-x="1359" 
d="M338 -262l-105 61l123 224q-147 66 -225 192.5t-78 296.5q0 253 166 403t461 150q120 0 233 -29l121 221l105 -57l-113 -207q136 -69 208.5 -193t72.5 -288q0 -251 -166 -401t-461 -150q-107 0 -207 23zM457 512q0 -131 61 -195l244 445q-37 12 -82 12q-106 0 -164.5 -68
t-58.5 -194zM623 260q27 -6 57 -6q105 0 164 67t59 191q0 106 -45 176z" />
    <glyph glyph-name="ugrave" unicode="&#xf9;" horiz-adv-x="1394" 
d="M463 -35q-168 0 -263.5 108.5t-95.5 340.5v270v342h424v-342v-199q0 -196 146 -196q79 0 126.5 55.5t59.5 159.5v180v342h426v-342v-342v-342h-426v248q-45 -120 -152.5 -201.5t-244.5 -81.5zM262 1550h371l153 -372h-190z" />
    <glyph glyph-name="uacute" unicode="&#xfa;" horiz-adv-x="1394" 
d="M463 -35q-168 0 -263.5 108.5t-95.5 340.5v270v342h424v-342v-199q0 -196 146 -196q79 0 126.5 55.5t59.5 159.5v180v342h426v-342v-342v-342h-426v248q-45 -120 -152.5 -201.5t-244.5 -81.5zM616 1178l154 372h369l-334 -372h-189z" />
    <glyph glyph-name="ucircumflex" unicode="&#xfb;" horiz-adv-x="1394" 
d="M463 -35q-168 0 -263.5 108.5t-95.5 340.5v270v342h424v-342v-199q0 -196 146 -196q79 0 126.5 55.5t59.5 159.5v180v342h426v-342v-342v-342h-426v248q-45 -120 -152.5 -201.5t-244.5 -81.5zM268 1178l307 368h244l309 -368h-288l-142 206l-141 -206h-289z" />
    <glyph glyph-name="udieresis" unicode="&#xfc;" horiz-adv-x="1394" 
d="M463 -35q-168 0 -263.5 108.5t-95.5 340.5v270v342h424v-342v-199q0 -196 146 -196q79 0 126.5 55.5t59.5 159.5v180v342h426v-342v-342v-342h-426v248q-45 -120 -152.5 -201.5t-244.5 -81.5zM322 1221v301h315v-301h-315zM754 1221v301h313v-301h-313z" />
    <glyph glyph-name="yacute" unicode="&#xfd;" horiz-adv-x="1253" 
d="M270 -502q-72 0 -132 14t-91 37v306q23 -14 79 -26.5t114 -12.5q199 0 280 184h-104l-332 807q-17 41 -46.5 116t-41.5 103h438q5 -22 15 -56t25 -83t24 -80l141 -465l139 465l66 219h424l-90 -219l-326 -789q-117 -282 -257.5 -401t-324.5 -119zM555 1178l154 372h368
l-334 -372h-188z" />
    <glyph glyph-name="thorn" unicode="&#xfe;" horiz-adv-x="1415" 
d="M125 -492v316v1431v334v8h426v-342v-430q55 106 151.5 168t229.5 62q202 0 316 -145.5t114 -377.5q0 -116 -30 -214t-88 -172t-149 -116t-206 -42q-213 0 -338 137v-301v-316h-426zM551 342q74 -102 176 -102q85 0 139 72.5t54 205.5q0 118 -44 186t-131 68
q-88 0 -141 -73.5t-53 -217.5v-139z" />
    <glyph glyph-name="ydieresis" unicode="&#xff;" horiz-adv-x="1253" 
d="M270 -502q-72 0 -132 14t-91 37v306q23 -14 79 -26.5t114 -12.5q199 0 280 184h-104l-332 807q-17 41 -46.5 116t-41.5 103h438q5 -22 15 -56t25 -83t24 -80l141 -465l139 465l66 219h424l-90 -219l-326 -789q-117 -282 -257.5 -401t-324.5 -119zM260 1221v301h315v-301
h-315zM692 1221v301h314v-301h-314z" />
    <glyph glyph-name="Amacron" unicode="&#x100;" horiz-adv-x="1658" 
d="M-8 0q24 68 84 217l475 1208l49 125h459l530 -1349q57 -142 78 -201h-493l-64 199l-29 90h-530l-29 -86q-11 -38 -35.5 -112.5t-29.5 -90.5h-465zM434 1751v217h795v-217h-795zM649 588h336l-166 516z" />
    <glyph glyph-name="amacron" unicode="&#x101;" horiz-adv-x="1339" 
d="M373 -33q-156 0 -244 70.5t-88 200.5q0 62 23 110.5t58 80.5t99 61t121 46.5t150 41.5q165 41 219.5 66.5t54.5 72.5q0 84 -131 84q-85 0 -138 -40.5t-53 -109.5h-368q10 124 93 219.5t217 146t298 50.5q89 0 163 -13.5t138 -45.5t108.5 -80.5t69.5 -121.5t25 -167v-199
q0 -117 17.5 -159.5t72.5 -42.5q31 0 47 8v-215q-41 -19 -108 -32t-134 -13q-65 0 -123.5 19.5t-106.5 67t-65 117.5q-58 -100 -161.5 -161.5t-253.5 -61.5zM250 1237v223h803v-223h-803zM455 295q0 -37 27 -58.5t69 -21.5q87 0 153 67.5t66 166.5v63q-14 -27 -51 -46
t-125 -48q-76 -27 -107.5 -54t-31.5 -69z" />
    <glyph glyph-name="Abreve" unicode="&#x102;" horiz-adv-x="1658" 
d="M-8 0q24 68 84 217l475 1208l49 125h459l530 -1349q57 -142 78 -201h-493l-64 199l-29 90h-530l-29 -86q-11 -38 -35.5 -112.5t-29.5 -90.5h-465zM410 2011h237q0 -82 45 -120t137 -38t137.5 38t45.5 120h237q0 -161 -107 -250.5t-313 -89.5t-312.5 89.5t-106.5 250.5z
M649 588h336l-166 516z" />
    <glyph glyph-name="abreve" unicode="&#x103;" horiz-adv-x="1339" 
d="M373 -33q-156 0 -244 70.5t-88 200.5q0 62 23 110.5t58 80.5t99 61t121 46.5t150 41.5q165 41 219.5 66.5t54.5 72.5q0 84 -131 84q-85 0 -138 -40.5t-53 -109.5h-368q10 124 93 219.5t217 146t298 50.5q89 0 163 -13.5t138 -45.5t108.5 -80.5t69.5 -121.5t25 -167v-199
q0 -117 17.5 -159.5t72.5 -42.5q31 0 47 8v-215q-41 -19 -108 -32t-134 -13q-65 0 -123.5 19.5t-106.5 67t-65 117.5q-58 -100 -161.5 -161.5t-253.5 -61.5zM252 1542h240q0 -88 39 -131t120 -43q160 0 160 174h240q0 -162 -103.5 -263t-296.5 -101t-296 101t-103 263z
M455 295q0 -37 27 -58.5t69 -21.5q87 0 153 67.5t66 166.5v63q-14 -27 -51 -46t-125 -48q-76 -27 -107.5 -54t-31.5 -69z" />
    <glyph glyph-name="Aogonek" unicode="&#x104;" horiz-adv-x="1658" 
d="M-8 0q24 68 84 217l475 1208l49 125h459l530 -1349q57 -142 78 -201h-147q-97 -35 -156 -92.5t-59 -136.5q0 -50 27.5 -73.5t70.5 -23.5q72 0 125 47v-157q-91 -72 -209 -72q-109 0 -178.5 55.5t-69.5 165.5q0 94 59 166.5t156 120.5h-112l-64 199l-29 90h-530l-29 -86
q-11 -38 -35.5 -112.5t-29.5 -90.5h-465zM649 588h336l-166 516z" />
    <glyph glyph-name="aogonek" unicode="&#x105;" horiz-adv-x="1339" 
d="M373 -33q-156 0 -244 70.5t-88 200.5q0 62 23 110.5t58 80.5t99 61t121 46.5t150 41.5q165 41 219.5 66.5t54.5 72.5q0 84 -131 84q-85 0 -138 -40.5t-53 -109.5h-368q10 124 93 219.5t217 146t298 50.5q89 0 163 -13.5t138 -45.5t108.5 -80.5t69.5 -121.5t25 -167v-199
q0 -117 17.5 -159.5t72.5 -42.5q31 0 47 8v-215l-35 -13q-182 -79 -182 -217q0 -50 27.5 -73t70.5 -23q72 0 125 47v-158q-90 -71 -209 -71q-109 0 -178.5 55.5t-69.5 165.5q0 148 148 246q-86 15 -150 64.5t-84 135.5q-58 -100 -161.5 -161.5t-253.5 -61.5zM455 295
q0 -37 27 -58.5t69 -21.5q87 0 153 67.5t66 166.5v63q-14 -27 -51 -46t-125 -48q-76 -27 -107.5 -54t-31.5 -69z" />
    <glyph glyph-name="Cacute" unicode="&#x106;" horiz-adv-x="1855" 
d="M928 -31q-252 0 -448 98t-306.5 282.5t-110.5 428.5q0 248 111 430.5t307.5 276.5t454.5 94q164 0 307 -38.5t259 -114t195 -196t109 -276.5h-475q-36 126 -137.5 198.5t-249.5 72.5q-84 0 -157 -29.5t-128 -84.5t-86.5 -141t-31.5 -192q0 -214 113 -334t290 -120
q156 0 262 90t129 243h473q-14 -131 -66 -242.5t-133.5 -193t-188 -138.5t-231 -85.5t-261.5 -28.5zM782 1694l213 317h406l-348 -317h-271z" />
    <glyph glyph-name="cacute" unicode="&#x107;" horiz-adv-x="1333" 
d="M666 -39q-126 0 -235 33.5t-194.5 99t-134.5 172.5t-49 244q0 134 49 241t134 174.5t195.5 103.5t236.5 36q263 0 429 -126.5t187 -322.5h-391q-15 65 -66 111.5t-149 46.5q-109 0 -169 -69.5t-60 -188.5t60.5 -191.5t168.5 -72.5q102 0 155.5 52.5t65.5 129.5h387
q-10 -100 -57 -186t-124.5 -150t-190.5 -100.5t-248 -36.5zM588 1178l153 372h369l-334 -372h-188z" />
    <glyph glyph-name="Ccircumflex" unicode="&#x108;" horiz-adv-x="1855" 
d="M928 -31q-252 0 -448 98t-306.5 282.5t-110.5 428.5q0 248 111 430.5t307.5 276.5t454.5 94q164 0 307 -38.5t259 -114t195 -196t109 -276.5h-475q-36 126 -137.5 198.5t-249.5 72.5q-84 0 -157 -29.5t-128 -84.5t-86.5 -141t-31.5 -192q0 -214 113 -334t290 -120
q156 0 262 90t129 243h473q-14 -131 -66 -242.5t-133.5 -193t-188 -138.5t-231 -85.5t-261.5 -28.5zM461 1694l344 317h244l346 -317h-312l-155 166l-158 -166h-309z" />
    <glyph glyph-name="ccircumflex" unicode="&#x109;" horiz-adv-x="1333" 
d="M666 -39q-126 0 -235 33.5t-194.5 99t-134.5 172.5t-49 244q0 134 49 241t134 174.5t195.5 103.5t236.5 36q263 0 429 -126.5t187 -322.5h-391q-15 65 -66 111.5t-149 46.5q-109 0 -169 -69.5t-60 -188.5t60.5 -191.5t168.5 -72.5q102 0 155.5 52.5t65.5 129.5h387
q-10 -100 -57 -186t-124.5 -150t-190.5 -100.5t-248 -36.5zM240 1178l307 368h244l309 -368h-289l-141 206l-142 -206h-288z" />
    <glyph glyph-name="Cdotaccent" unicode="&#x10a;" horiz-adv-x="1855" 
d="M928 -31q-252 0 -448 98t-306.5 282.5t-110.5 428.5q0 248 111 430.5t307.5 276.5t454.5 94q164 0 307 -38.5t259 -114t195 -196t109 -276.5h-475q-36 126 -137.5 198.5t-249.5 72.5q-84 0 -157 -29.5t-128 -84.5t-86.5 -141t-31.5 -192q0 -214 113 -334t290 -120
q156 0 262 90t129 243h473q-14 -131 -66 -242.5t-133.5 -193t-188 -138.5t-231 -85.5t-261.5 -28.5zM766 1702v301h321v-301h-321z" />
    <glyph glyph-name="cdotaccent" unicode="&#x10b;" horiz-adv-x="1333" 
d="M666 -39q-126 0 -235 33.5t-194.5 99t-134.5 172.5t-49 244q0 134 49 241t134 174.5t195.5 103.5t236.5 36q263 0 429 -126.5t187 -322.5h-391q-15 65 -66 111.5t-149 46.5q-109 0 -169 -69.5t-60 -188.5t60.5 -191.5t168.5 -72.5q102 0 155.5 52.5t65.5 129.5h387
q-10 -100 -57 -186t-124.5 -150t-190.5 -100.5t-248 -36.5zM483 1221v299h369v-299h-369z" />
    <glyph glyph-name="Ccaron" unicode="&#x10c;" horiz-adv-x="1855" 
d="M928 -31q-252 0 -448 98t-306.5 282.5t-110.5 428.5q0 248 111 430.5t307.5 276.5t454.5 94q164 0 307 -38.5t259 -114t195 -196t109 -276.5h-475q-36 126 -137.5 198.5t-249.5 72.5q-84 0 -157 -29.5t-128 -84.5t-86.5 -141t-31.5 -192q0 -214 113 -334t290 -120
q156 0 262 90t129 243h473q-14 -131 -66 -242.5t-133.5 -193t-188 -138.5t-231 -85.5t-261.5 -28.5zM451 2011h309l166 -160l166 160h311l-348 -319h-258z" />
    <glyph glyph-name="ccaron" unicode="&#x10d;" horiz-adv-x="1333" 
d="M666 -39q-126 0 -235 33.5t-194.5 99t-134.5 172.5t-49 244q0 134 49 241t134 174.5t195.5 103.5t236.5 36q263 0 429 -126.5t187 -322.5h-391q-15 65 -66 111.5t-149 46.5q-109 0 -169 -69.5t-60 -188.5t60.5 -191.5t168.5 -72.5q102 0 155.5 52.5t65.5 129.5h387
q-10 -100 -57 -186t-124.5 -150t-190.5 -100.5t-248 -36.5zM236 1546h288l142 -205l141 205h289l-310 -368h-241z" />
    <glyph glyph-name="Dcaron" unicode="&#x10e;" horiz-adv-x="1777" 
d="M147 0v342v866v342h621q221 0 400.5 -56.5t299 -158.5t184 -244.5t64.5 -312.5q0 -174 -64.5 -317.5t-184 -246t-298.5 -158.5t-401 -56h-621zM365 2011h309l166 -160l166 160h311l-348 -319h-258zM612 338h140q231 0 362 116t131 320q0 207 -129 322.5t-364 115.5h-140
v-874z" />
    <glyph glyph-name="dcaron" unicode="&#x10f;" horiz-adv-x="1398" 
d="M864 0v213q-55 -106 -151.5 -167.5t-227.5 -61.5q-208 0 -320 145.5t-112 384.5q0 115 29.5 213t86.5 172t146.5 116t202.5 42q227 0 346 -154v375v319h426v-319v-936v-342h-426zM494 514q0 -115 43.5 -182.5t128.5 -67.5q92 0 145 73.5t53 215.5v147q-78 103 -178 103
q-88 0 -140 -73t-52 -216zM1452 1116l53 481h316l-183 -481h-186z" />
    <glyph glyph-name="Dcroat" unicode="&#x110;" horiz-adv-x="1777" 
d="M147 0v342v330h-163v235h163v301v342h621q221 0 400.5 -56.5t299 -158.5t184 -244.5t64.5 -312.5q0 -174 -64.5 -317.5t-184 -246t-298.5 -158.5t-401 -56h-621zM612 338h140q231 0 362 116t131 320q0 207 -129 322.5t-364 115.5h-140v-305h320v-235h-320v-334z" />
    <glyph glyph-name="dcroat" unicode="&#x111;" horiz-adv-x="1398" 
d="M864 0v213q-55 -106 -151.5 -167.5t-227.5 -61.5q-208 0 -320 145.5t-112 384.5q0 115 29.5 213t86.5 172t146.5 116t202.5 42q227 0 346 -154v283h-286v207h286v204h426v-204h244v-207h-244v-844v-342h-426zM494 514q0 -115 43.5 -182.5t128.5 -67.5q92 0 145 73.5
t53 215.5v147q-78 103 -178 103q-88 0 -140 -73t-52 -216z" />
    <glyph glyph-name="Emacron" unicode="&#x112;" horiz-adv-x="1312" 
d="M147 0v342v866v342h1078v-327q-182 6 -424 6h-189v-287h17q282 0 495 4v-305q-213 4 -495 4h-17v-323h191h442v-322h-1098zM272 1751v217h795v-217h-795z" />
    <glyph glyph-name="emacron" unicode="&#x113;" horiz-adv-x="1347" 
d="M672 -39q-177 0 -315.5 62t-221 188.5t-82.5 300.5t84 301.5t223.5 190.5t315.5 63q289 0 453.5 -154.5t164.5 -423.5h-858q9 -120 74.5 -180.5t167.5 -60.5q93 0 150.5 41t76.5 106h381q-14 -85 -58 -160.5t-117.5 -138t-186.5 -99t-252 -36.5zM272 1237v223h803v-223
h-803zM461 662h434q-53 139 -219 139q-160 0 -215 -139z" />
    <glyph glyph-name="Edotaccent" unicode="&#x116;" horiz-adv-x="1312" 
d="M147 0v342v866v342h1078v-327q-182 6 -424 6h-189v-287h17q282 0 495 4v-305q-213 4 -495 4h-17v-323h191h442v-322h-1098zM510 1702v301h321v-301h-321z" />
    <glyph glyph-name="edotaccent" unicode="&#x117;" horiz-adv-x="1347" 
d="M672 -39q-177 0 -315.5 62t-221 188.5t-82.5 300.5t84 301.5t223.5 190.5t315.5 63q289 0 453.5 -154.5t164.5 -423.5h-858q9 -120 74.5 -180.5t167.5 -60.5q93 0 150.5 41t76.5 106h381q-14 -85 -58 -160.5t-117.5 -138t-186.5 -99t-252 -36.5zM461 662h434
q-53 139 -219 139q-160 0 -215 -139zM487 1221v299h369v-299h-369z" />
    <glyph glyph-name="Eogonek" unicode="&#x118;" horiz-adv-x="1312" 
d="M147 0v342v866v342h1078v-327q-182 6 -424 6h-189v-287h17q282 0 495 4v-305q-213 4 -495 4h-17v-323h191h442v-322h-2q-97 -35 -156 -92.5t-59 -136.5q0 -50 27.5 -73.5t70.5 -23.5q72 0 125 47v-157q-91 -72 -209 -72q-108 0 -177.5 55.5t-69.5 165.5q0 94 59 166.5
t156 120.5h-863z" />
    <glyph glyph-name="eogonek" unicode="&#x119;" horiz-adv-x="1347" 
d="M799 -479q-109 0 -178.5 55.5t-69.5 165.5q0 126 111 219q-131 2 -241.5 38.5t-192.5 105t-128.5 173t-46.5 234.5q0 174 84 301.5t223.5 190.5t315.5 63q289 0 453.5 -154.5t164.5 -423.5h-858q9 -120 74.5 -180.5t167.5 -60.5q93 0 150.5 41t76.5 106h381
q-22 -128 -109.5 -234t-236.5 -159q-156 -78 -156 -203q0 -50 28 -73t71 -23q72 0 125 47v-158q-90 -71 -209 -71zM461 662h434q-53 139 -219 139q-160 0 -215 -139z" />
    <glyph glyph-name="Ecaron" unicode="&#x11a;" horiz-adv-x="1312" 
d="M147 0v342v866v342h1078v-327q-182 6 -424 6h-189v-287h17q282 0 495 4v-305q-213 4 -495 4h-17v-323h191h442v-322h-1098zM195 2011h309l166 -160l166 160h311l-348 -319h-258z" />
    <glyph glyph-name="ecaron" unicode="&#x11b;" horiz-adv-x="1347" 
d="M672 -39q-177 0 -315.5 62t-221 188.5t-82.5 300.5t84 301.5t223.5 190.5t315.5 63q289 0 453.5 -154.5t164.5 -423.5h-858q9 -120 74.5 -180.5t167.5 -60.5q93 0 150.5 41t76.5 106h381q-14 -85 -58 -160.5t-117.5 -138t-186.5 -99t-252 -36.5zM240 1546h288l142 -205
l141 205h289l-309 -368h-242zM461 662h434q-53 139 -219 139q-160 0 -215 -139z" />
    <glyph glyph-name="Gcircumflex" unicode="&#x11c;" horiz-adv-x="1921" 
d="M862 -27q-241 0 -422.5 99t-279 278.5t-97.5 415.5q0 196 69 353t190 257t281.5 152.5t348.5 52.5q211 0 387 -66.5t295 -193.5t160 -299h-459q-40 102 -139.5 159.5t-243.5 57.5q-197 0 -312.5 -123.5t-115.5 -339.5t113 -339.5t309 -123.5q166 0 273.5 67t154.5 191
l-538 -2l-5 275l969 2v-846h-307l-35 248q-90 -132 -243 -203.5t-353 -71.5zM496 1694l344 317h243l347 -317h-312l-155 166l-158 -166h-309z" />
    <glyph glyph-name="gcircumflex" unicode="&#x11d;" horiz-adv-x="1435" 
d="M528 -516q-205 0 -317.5 52t-112.5 151q0 138 209 200q-124 19 -194 80t-70 154q0 98 66 166.5t186 120.5q-152 104 -152 276q0 174 154.5 278.5t411.5 104.5q229 0 376 -84q7 127 96 200.5t228 73.5v-307q-168 0 -215 -53q80 -89 80 -213q0 -176 -149.5 -278.5
t-415.5 -102.5q-153 0 -275 39q-76 -32 -76 -74q0 -34 42.5 -50.5t154.5 -12.5q82 2 285 25.5t282 23.5q154 0 223.5 -67.5t69.5 -180.5q0 -118 -74 -217.5t-197.5 -165.5t-283 -102.5t-332.5 -36.5zM289 1178l307 368h244l309 -368h-289l-141 206l-141 -206h-289zM422 -221
q0 -72 156 -72q105 0 207 21t169.5 59.5t67.5 83.5q0 28 -19.5 39.5t-66.5 11.5q-140 0 -320 -39q-194 -39 -194 -104zM518 684q0 -65 52 -101t139 -36q86 0 138 36t52 101q0 66 -51.5 102.5t-138.5 36.5t-139 -36.5t-52 -102.5z" />
    <glyph glyph-name="Gbreve" unicode="&#x11e;" horiz-adv-x="1921" 
d="M862 -27q-241 0 -422.5 99t-279 278.5t-97.5 415.5q0 196 69 353t190 257t281.5 152.5t348.5 52.5q211 0 387 -66.5t295 -193.5t160 -299h-459q-40 102 -139.5 159.5t-243.5 57.5q-197 0 -312.5 -123.5t-115.5 -339.5t113 -339.5t309 -123.5q166 0 273.5 67t154.5 191
l-538 -2l-5 275l969 2v-846h-307l-35 248q-90 -132 -243 -203.5t-353 -71.5zM543 2011h237q0 -82 45.5 -120t137.5 -38t137 38t45 120h237q0 -161 -106.5 -250.5t-312.5 -89.5t-313 89.5t-107 250.5z" />
    <glyph glyph-name="gbreve" unicode="&#x11f;" horiz-adv-x="1435" 
d="M528 -516q-205 0 -317.5 52t-112.5 151q0 138 209 200q-124 19 -194 80t-70 154q0 98 66 166.5t186 120.5q-152 104 -152 276q0 174 154.5 278.5t411.5 104.5q229 0 376 -84q7 127 96 200.5t228 73.5v-307q-168 0 -215 -53q80 -89 80 -213q0 -176 -149.5 -278.5
t-415.5 -102.5q-153 0 -275 39q-76 -32 -76 -74q0 -34 42.5 -50.5t154.5 -12.5q82 2 285 25.5t282 23.5q154 0 223.5 -67.5t69.5 -180.5q0 -118 -74 -217.5t-197.5 -165.5t-283 -102.5t-332.5 -36.5zM319 1542h240q0 -174 160 -174t160 174h239q0 -162 -103 -263t-296 -101
t-296.5 101t-103.5 263zM422 -221q0 -72 156 -72q105 0 207 21t169.5 59.5t67.5 83.5q0 28 -19.5 39.5t-66.5 11.5q-140 0 -320 -39q-194 -39 -194 -104zM518 684q0 -65 52 -101t139 -36q86 0 138 36t52 101q0 66 -51.5 102.5t-138.5 36.5t-139 -36.5t-52 -102.5z" />
    <glyph glyph-name="Gdotaccent" unicode="&#x120;" horiz-adv-x="1921" 
d="M862 -27q-241 0 -422.5 99t-279 278.5t-97.5 415.5q0 196 69 353t190 257t281.5 152.5t348.5 52.5q211 0 387 -66.5t295 -193.5t160 -299h-459q-40 102 -139.5 159.5t-243.5 57.5q-197 0 -312.5 -123.5t-115.5 -339.5t113 -339.5t309 -123.5q166 0 273.5 67t154.5 191
l-538 -2l-5 275l969 2v-846h-307l-35 248q-90 -132 -243 -203.5t-353 -71.5zM801 1702v301h321v-301h-321z" />
    <glyph glyph-name="gdotaccent" unicode="&#x121;" horiz-adv-x="1435" 
d="M528 -516q-205 0 -317.5 52t-112.5 151q0 138 209 200q-124 19 -194 80t-70 154q0 98 66 166.5t186 120.5q-152 104 -152 276q0 174 154.5 278.5t411.5 104.5q229 0 376 -84q7 127 96 200.5t228 73.5v-307q-168 0 -215 -53q80 -89 80 -213q0 -176 -149.5 -278.5
t-415.5 -102.5q-153 0 -275 39q-76 -32 -76 -74q0 -34 42.5 -50.5t154.5 -12.5q82 2 285 25.5t282 23.5q154 0 223.5 -67.5t69.5 -180.5q0 -118 -74 -217.5t-197.5 -165.5t-283 -102.5t-332.5 -36.5zM422 -221q0 -72 156 -72q105 0 207 21t169.5 59.5t67.5 83.5
q0 28 -19.5 39.5t-66.5 11.5q-140 0 -320 -39q-194 -39 -194 -104zM518 684q0 -65 52 -101t139 -36q86 0 138 36t52 101q0 66 -51.5 102.5t-138.5 36.5t-139 -36.5t-52 -102.5zM535 1221v299h368v-299h-368z" />
    <glyph glyph-name="uni0122" unicode="&#x122;" horiz-adv-x="1921" 
d="M862 -27q-241 0 -422.5 99t-279 278.5t-97.5 415.5q0 196 69 353t190 257t281.5 152.5t348.5 52.5q211 0 387 -66.5t295 -193.5t160 -299h-459q-40 102 -139.5 159.5t-243.5 57.5q-197 0 -312.5 -123.5t-115.5 -339.5t113 -339.5t309 -123.5q166 0 273.5 67t154.5 191
l-538 -2l-5 275l969 2v-846h-307l-35 248q-90 -132 -243 -203.5t-353 -71.5zM535 -440l153 317h328l-322 -397z" />
    <glyph glyph-name="uni0123" unicode="&#x123;" horiz-adv-x="1435" 
d="M528 -516q-205 0 -317.5 52t-112.5 151q0 138 209 200q-124 19 -194 80t-70 154q0 98 66 166.5t186 120.5q-152 104 -152 276q0 174 154.5 278.5t411.5 104.5q229 0 376 -84q7 127 96 200.5t228 73.5v-307q-168 0 -215 -53q80 -89 80 -213q0 -176 -149.5 -278.5
t-415.5 -102.5q-153 0 -275 39q-76 -32 -76 -74q0 -34 42.5 -50.5t154.5 -12.5q82 2 285 25.5t282 23.5q154 0 223.5 -67.5t69.5 -180.5q0 -118 -74 -217.5t-197.5 -165.5t-283 -102.5t-332.5 -36.5zM422 -221q0 -72 156 -72q105 0 207 21t169.5 59.5t67.5 83.5
q0 28 -19.5 39.5t-66.5 11.5q-140 0 -320 -39q-194 -39 -194 -104zM518 684q0 -65 52 -101t139 -36q86 0 138 36t52 101q0 66 -51.5 102.5t-138.5 36.5t-139 -36.5t-52 -102.5zM561 1188l311 409h177l-179 -409h-309z" />
    <glyph glyph-name="Hcircumflex" unicode="&#x124;" horiz-adv-x="1748" 
d="M147 0v342v866v342h465v-342v-260h525v260v342h462v-342v-866v-342h-462v342v262h-525v-262v-342h-465zM410 1694l344 317h243l346 -317h-311l-155 166l-158 -166h-309z" />
    <glyph glyph-name="hcircumflex" unicode="&#x125;" horiz-adv-x="1396" 
d="M111 0v342v936v319h424v-319v-498q48 129 154 208t251 79q166 0 259 -105t93 -331v-289v-342h-424v342v199q0 196 -149 196q-75 0 -123 -46.5t-61 -121.5v-227v-342h-424zM197 1741l344 317h243l346 -317h-311l-155 166l-158 -166h-309z" />
    <glyph glyph-name="Hbar" unicode="&#x126;" horiz-adv-x="1748" 
d="M-20 1159v213h167v178h465v-178h525v178h462v-178h168v-213h-168v-817v-342h-462v342v262h-525v-262v-342h-465v342v817h-167zM612 948h525v211h-525v-211z" />
    <glyph glyph-name="hbar" unicode="&#x127;" horiz-adv-x="1396" 
d="M111 0v342v844h-179v207h179v204h424v-204h354v-207h-354v-406q48 129 154 208t251 79q166 0 259 -105t93 -331v-289v-342h-424v342v199q0 196 -149 196q-75 0 -123 -46.5t-61 -121.5v-227v-342h-424z" />
    <glyph glyph-name="Itilde" unicode="&#x128;" horiz-adv-x="759" 
d="M147 0v342v866v342h465v-342v-866v-342h-465zM-4 1683q0 330 235 330q49 0 86 -13t59 -31.5t40.5 -36.5t40 -31t47.5 -13q42 0 58 29.5t18 93.5h186q-3 -328 -236 -328q-47 0 -83 13t-58.5 31.5t-41.5 36.5t-41.5 31t-49.5 13q-40 0 -57 -31t-17 -94h-186z" />
    <glyph glyph-name="itilde" unicode="&#x129;" horiz-adv-x="645" 
d="M111 0v342v342v342h424v-684v-342h-424zM-76 1178q-6 389 236 389q47 0 85 -16t63 -39t46.5 -46t47 -39t53.5 -16q46 0 65 38.5t17 117.5h172q3 -396 -232 -396q-50 0 -89.5 17t-64 41t-45.5 48t-46.5 41t-55.5 17q-85 0 -82 -157h-170z" />
    <glyph glyph-name="Imacron" unicode="&#x12a;" horiz-adv-x="759" 
d="M147 0v342v866v342h465v-342v-866v-342h-465zM-16 1751v217h794v-217h-794z" />
    <glyph glyph-name="imacron" unicode="&#x12b;" horiz-adv-x="645" 
d="M111 0v342v342v342h424v-684v-342h-424zM-78 1237v223h803v-223h-803z" />
    <glyph glyph-name="Iogonek" unicode="&#x12e;" horiz-adv-x="759" 
d="M147 0v342v866v342h465v-342v-866v-342h-69q-97 -35 -156 -92.5t-59 -136.5q0 -50 27.5 -73.5t70.5 -23.5q72 0 125 47v-157q-91 -72 -209 -72q-109 0 -178.5 55.5t-69.5 165.5q0 94 59 166.5t156 120.5h-162z" />
    <glyph glyph-name="iogonek" unicode="&#x12f;" horiz-adv-x="645" 
d="M111 0v342v342v342h424v-684v-342q-97 -35 -156.5 -93t-59.5 -136q0 -50 28 -73.5t71 -23.5q72 0 125 47v-157q-91 -72 -209 -72q-109 0 -178.5 55.5t-69.5 165.5q0 94 59 166.5t156 120.5h-190zM109 1221v313h428v-313h-428z" />
    <glyph glyph-name="Idotaccent" unicode="&#x130;" horiz-adv-x="759" 
d="M147 0v342v866v342h465v-342v-866v-342h-465zM147 1702v301h465v-301h-465z" />
    <glyph glyph-name="dotlessi" unicode="&#x131;" horiz-adv-x="645" 
d="M111 0v342v342v342h424v-684v-342h-424z" />
    <glyph glyph-name="IJ" unicode="&#x132;" horiz-adv-x="1591" 
d="M147 0v342v866v342h465v-342v-866v-342h-465zM760 -293v324q114 5 166.5 76t52.5 239v862v342h463v-342v-848q0 -176 -45 -301.5t-134.5 -202t-213 -112t-289.5 -37.5z" />
    <glyph glyph-name="ij" unicode="&#x133;" horiz-adv-x="1333" 
d="M111 0v342v342v342h424v-684v-342h-424zM109 1221v313h428v-313h-428zM614 -502v260q47 0 77.5 8t57.5 32.5t39.5 74t12.5 127.5v684v342h424v-965q0 -143 -30 -244t-100 -174.5t-189 -109t-292 -35.5zM799 1221v313h428v-313h-428z" />
    <glyph glyph-name="Jcircumflex" unicode="&#x134;" horiz-adv-x="829" 
d="M0 31q114 5 166.5 76t52.5 239v862v342h463v-342v-848q0 -176 -45 -301.5t-134.5 -202t-213 -112t-289.5 -37.5v324zM-31 1694l344 317h244l346 -317h-311l-156 166l-157 -166h-310z" />
    <glyph glyph-name="jcircumflex" unicode="&#x135;" horiz-adv-x="659" 
d="M-61 -242q47 0 77.5 8t57 32.5t39 74t12.5 127.5v684v342h424v-965q0 -143 -30 -244t-99.5 -174.5t-188.5 -109t-292 -35.5v260zM-92 1178l307 368h244l309 -368h-289l-141 206l-141 -206h-289z" />
    <glyph glyph-name="uni0136" unicode="&#x136;" horiz-adv-x="1626" 
d="M147 0v342v866v342h457v-342v-225l402 391q118 114 180 176h454v-32q-32 -29 -84 -78t-69 -64l-492 -456l654 -900v-20h-523l-428 643l-94 -86v-215v-342h-457zM524 -440l154 317h328l-322 -397z" />
    <glyph glyph-name="uni0137" unicode="&#x137;" horiz-adv-x="1353" 
d="M891 0l-356 471v-129v-342h-424v342v936v311v8h424v-319v-610l221 196q59 52 178 162h420v-16q-56 -48 -178 -158l-297 -260l495 -576v-16h-483zM389 -440l154 317h327l-321 -397z" />
    <glyph glyph-name="Lacute" unicode="&#x139;" horiz-adv-x="1271" 
d="M147 0v342v866v342h465v-342v-864h140q290 0 495 2v-346h-1100zM231 1694l213 317h406l-348 -317h-271z" />
    <glyph glyph-name="lacute" unicode="&#x13a;" horiz-adv-x="645" 
d="M111 0v342v936v319h424v-319v-936v-342h-424zM178 1741l213 317h406l-348 -317h-271z" />
    <glyph glyph-name="uni013B" unicode="&#x13b;" horiz-adv-x="1271" 
d="M147 0v342v866v342h465v-342v-864h140q290 0 495 2v-346h-1100zM342 -440l154 317h327l-321 -397z" />
    <glyph glyph-name="uni013C" unicode="&#x13c;" horiz-adv-x="645" 
d="M111 0v342v936v319h424v-319v-936v-342h-424zM-2 -440l154 317h327l-321 -397z" />
    <glyph glyph-name="Lcaron" unicode="&#x13d;" horiz-adv-x="1271" 
d="M147 0v342v866v342h465v-342v-864h140q290 0 495 2v-346h-1100zM788 1069l54 481h315l-182 -481h-187z" />
    <glyph glyph-name="lcaron" unicode="&#x13e;" horiz-adv-x="645" 
d="M111 0v342v936v319h424v-319v-936v-342h-424zM643 1116l53 481h316l-183 -481h-186z" />
    <glyph glyph-name="Ldot" unicode="&#x13f;" horiz-adv-x="1271" 
d="M147 0v342v866v342h465v-342v-864h140q290 0 495 2v-346h-1100zM850 674v301h321v-301h-321z" />
    <glyph glyph-name="ldot" unicode="&#x140;" horiz-adv-x="1048" 
d="M111 0v342v936v319h424v-319v-936v-342h-424zM676 657v340h373v-340h-373z" />
    <glyph glyph-name="Lslash" unicode="&#x141;" horiz-adv-x="1271" 
d="M147 0v342v225l-221 -118v235l221 119v405v342h465v-342v-153l330 178v-238l-330 -178v-473h140q290 0 495 2v-346h-1100z" />
    <glyph glyph-name="lslash" unicode="&#x142;" horiz-adv-x="645" 
d="M111 0v342v252l-138 -74v219l138 74v465v319h424v-319v-240l139 74v-219l-139 -74v-477v-342h-424z" />
    <glyph glyph-name="Nacute" unicode="&#x143;" horiz-adv-x="1757" 
d="M1165 0l-577 913v-571v-342h-441v342v866v342h445l577 -907v565v342h441v-342v-1208h-445zM709 1694l213 317h405l-348 -317h-270z" />
    <glyph glyph-name="nacute" unicode="&#x144;" horiz-adv-x="1396" 
d="M111 0v342v342v342h424v-246q48 129 154 208t251 79q166 0 259 -105t93 -331v-289v-342h-424v342v199q0 196 -149 196q-75 0 -123 -46.5t-61 -121.5v-227v-342h-424zM653 1178l154 372h369l-334 -372h-189z" />
    <glyph glyph-name="uni0145" unicode="&#x145;" horiz-adv-x="1757" 
d="M1165 0l-577 913v-571v-342h-441v342v866v342h445l577 -907v565v342h441v-342v-1208h-445zM553 -440l154 317h327l-321 -397z" />
    <glyph glyph-name="uni0146" unicode="&#x146;" horiz-adv-x="1396" 
d="M111 0v342v342v342h424v-246q48 129 154 208t251 79q166 0 259 -105t93 -331v-289v-342h-424v342v199q0 196 -149 196q-75 0 -123 -46.5t-61 -121.5v-227v-342h-424zM373 -440l153 317h328l-322 -397z" />
    <glyph glyph-name="Ncaron" unicode="&#x147;" horiz-adv-x="1757" 
d="M1165 0l-577 913v-571v-342h-441v342v866v342h445l577 -907v565v342h441v-342v-1208h-445zM377 2011h309l166 -160l166 160h311l-348 -319h-258z" />
    <glyph glyph-name="ncaron" unicode="&#x148;" horiz-adv-x="1396" 
d="M111 0v342v342v342h424v-246q48 129 154 208t251 79q166 0 259 -105t93 -331v-289v-342h-424v342v199q0 196 -149 196q-75 0 -123 -46.5t-61 -121.5v-227v-342h-424zM303 1546h289l141 -205l141 205h289l-309 -368h-242z" />
    <glyph glyph-name="Eng" unicode="&#x14a;" horiz-adv-x="1697" 
d="M1120 0l-569 901v-559v-342h-404v342v866v342h431l567 -901v559v342h403v-342v-1061q0 -317 -166.5 -470.5t-474.5 -153.5v258q138 1 206.5 61t68.5 158h-62z" />
    <glyph glyph-name="eng" unicode="&#x14b;" horiz-adv-x="1398" 
d="M672 -236q119 34 156.5 88.5t37.5 167.5v521q0 196 -147 196q-78 0 -124 -48t-60 -136v-211v-342h-426v342v342v342h426v-250q48 130 154.5 210.5t250.5 80.5q165 0 258.5 -105.5t93.5 -330.5v-611q0 -87 -31.5 -160t-83 -124.5t-124.5 -92.5t-148 -66.5t-162 -43.5z" />
    <glyph glyph-name="Omacron" unicode="&#x14c;" horiz-adv-x="1902" 
d="M952 -35q-207 0 -375.5 60t-280.5 167.5t-172.5 256.5t-60.5 327t60.5 326t172.5 254t280 164.5t376 58.5q207 0 374.5 -59t280 -165.5t172.5 -256t60 -330.5q0 -177 -60.5 -325t-172.5 -254t-279.5 -165t-374.5 -59zM541 768q0 -205 109 -321.5t302 -116.5
q192 0 301 118t109 328q0 205 -109 321.5t-301 116.5q-194 0 -302.5 -117t-108.5 -329zM555 1751v217h795v-217h-795z" />
    <glyph glyph-name="omacron" unicode="&#x14d;" horiz-adv-x="1359" 
d="M680 -39q-295 0 -461 150t-166 401q0 253 166 403t461 150t461 -150t166 -403q0 -251 -166 -401t-461 -150zM285 1237v223h802v-223h-802zM457 512q0 -124 58.5 -191t164.5 -67q105 0 164 67t59 191q0 125 -59 193.5t-164 68.5q-106 0 -164.5 -68t-58.5 -194z" />
    <glyph glyph-name="Ohungarumlaut" unicode="&#x150;" horiz-adv-x="1902" 
d="M952 -35q-207 0 -375.5 60t-280.5 167.5t-172.5 256.5t-60.5 327t60.5 326t172.5 254t280 164.5t376 58.5q207 0 374.5 -59t280 -165.5t172.5 -256t60 -330.5q0 -177 -60.5 -325t-172.5 -254t-279.5 -165t-374.5 -59zM541 768q0 -205 109 -321.5t302 -116.5
q192 0 301 118t109 328q0 205 -109 321.5t-301 116.5q-194 0 -302.5 -117t-108.5 -329zM662 1694l210 317h283l-274 -317h-219zM1026 1694l270 317h287l-340 -317h-217z" />
    <glyph glyph-name="ohungarumlaut" unicode="&#x151;" horiz-adv-x="1359" 
d="M680 -39q-295 0 -461 150t-166 401q0 253 166 403t461 150t461 -150t166 -403q0 -251 -166 -401t-461 -150zM379 1178l182 372h287l-238 -372h-231zM457 512q0 -124 58.5 -191t164.5 -67q105 0 164 67t59 191q0 125 -59 193.5t-164 68.5q-106 0 -164.5 -68t-58.5 -194z
M760 1178l231 372h297l-297 -372h-231z" />
    <glyph glyph-name="OE" unicode="&#x152;" horiz-adv-x="2301" 
d="M981 0q-430 0 -674 209.5t-244 562.5q0 176 62.5 320t178.5 245.5t289 157t388 55.5h1233v-327q-184 6 -424 6h-191v-287h50q252 0 465 4v-305q-213 4 -465 4h-50v-323h191q268 0 442 6v-328h-1251zM541 772q0 -221 115.5 -335.5t324.5 -114.5h156v907h-156
q-216 0 -328 -115.5t-112 -341.5z" />
    <glyph glyph-name="oe" unicode="&#x153;" horiz-adv-x="2140" 
d="M649 -39q-281 0 -438.5 149.5t-157.5 401.5q0 253 157 403t439 150q274 0 432 -145q167 147 426 147q276 0 432 -154.5t156 -423.5h-815q7 -120 69.5 -180.5t159.5 -60.5q89 0 144 41.5t71 105.5h363q-14 -85 -55.5 -160.5t-111 -138t-177.5 -99t-240 -36.5
q-265 0 -422 145q-161 -145 -432 -145zM436 512q0 -124 55.5 -191t157.5 -67q99 0 155 67.5t56 190.5q0 125 -56 193.5t-155 68.5q-102 0 -157.5 -68t-55.5 -194zM1303 662h413q-53 139 -209 139q-152 0 -204 -139z" />
    <glyph glyph-name="Racute" unicode="&#x154;" horiz-adv-x="1570" 
d="M1057 0l-375 598h-76v-256v-342h-459v342v866v342h682q311 0 469 -115.5t158 -336.5q0 -174 -95 -282.5t-269 -147.5l479 -650v-18h-514zM606 893h148q252 0 252 180q0 88 -59 129t-189 41h-152v-350zM625 1694l213 317h405l-348 -317h-270z" />
    <glyph glyph-name="racute" unicode="&#x155;" horiz-adv-x="978" 
d="M109 0v342v342v342h426v-342h2q10 64 40.5 125.5t80 113.5t124 83.5t162.5 31.5v-364q-122 0 -202.5 -15.5t-125.5 -49.5t-62.5 -79t-18.5 -112v-76v-342h-426zM451 1178l153 372h369l-334 -372h-188z" />
    <glyph glyph-name="uni0156" unicode="&#x156;" horiz-adv-x="1570" 
d="M1057 0l-375 598h-76v-256v-342h-459v342v866v342h682q311 0 469 -115.5t158 -336.5q0 -174 -95 -282.5t-269 -147.5l479 -650v-18h-514zM496 -440l153 317h328l-322 -397zM606 893h148q252 0 252 180q0 88 -59 129t-189 41h-152v-350z" />
    <glyph glyph-name="uni0157" unicode="&#x157;" horiz-adv-x="978" 
d="M109 0v342v342v342h426v-342h2q10 64 40.5 125.5t80 113.5t124 83.5t162.5 31.5v-364q-122 0 -202.5 -15.5t-125.5 -49.5t-62.5 -79t-18.5 -112v-76v-342h-426zM0 -440l154 317h327l-321 -397z" />
    <glyph glyph-name="Rcaron" unicode="&#x158;" horiz-adv-x="1570" 
d="M1057 0l-375 598h-76v-256v-342h-459v342v866v342h682q311 0 469 -115.5t158 -336.5q0 -174 -95 -282.5t-269 -147.5l479 -650v-18h-514zM293 2011h309l166 -160l166 160h311l-348 -319h-258zM606 893h148q252 0 252 180q0 88 -59 129t-189 41h-152v-350z" />
    <glyph glyph-name="rcaron" unicode="&#x159;" horiz-adv-x="978" 
d="M109 0v342v342v342h426v-342h2q10 64 40.5 125.5t80 113.5t124 83.5t162.5 31.5v-364q-122 0 -202.5 -15.5t-125.5 -49.5t-62.5 -79t-18.5 -112v-76v-342h-426zM100 1546h289l141 -205l142 205h289l-310 -368h-241z" />
    <glyph glyph-name="Sacute" unicode="&#x15a;" horiz-adv-x="1458" 
d="M748 -39q-307 0 -492 146.5t-213 404.5h424q16 -115 84.5 -180.5t196.5 -65.5q87 0 135.5 34.5t48.5 102.5q0 70 -67.5 111.5t-304.5 136.5q-3 1 -5 2q-246 97 -353.5 204t-107.5 267q0 147 82.5 252t218 155t307.5 50q287 0 469 -138t220 -386h-422q-12 102 -76 161.5
t-176 59.5q-83 0 -127.5 -34.5t-44.5 -92.5q0 -26 8.5 -47.5t29.5 -41.5t47.5 -36.5t70.5 -36.5t90 -38l115 -45q2 -1 3 -1q98 -38 166.5 -71t130.5 -75t99 -88t58 -105.5t21 -131.5q0 -147 -83 -255.5t-225.5 -163t-327.5 -54.5zM563 1692l213 317h406l-348 -317h-271z" />
    <glyph glyph-name="sacute" unicode="&#x15b;" horiz-adv-x="1251" 
d="M647 -39q-262 0 -418.5 98.5t-185.5 282.5h389q7 -75 66.5 -113.5t150.5 -38.5q65 0 104.5 19.5t39.5 56.5q0 38 -56 63.5t-221 71.5q-48 14 -76.5 22.5t-72 23t-69.5 26t-60.5 29t-55.5 34.5t-44 40.5t-35.5 49t-20.5 57t-8 67.5q0 107 74.5 181t191 106t264.5 32
q246 0 396.5 -95.5t183.5 -264.5h-375q-8 61 -62.5 96t-144.5 35q-65 0 -99 -20t-34 -56q0 -20 11.5 -34t50.5 -31t99 -34t173 -47q107 -29 174 -55t121.5 -62t78 -83t23.5 -111q0 -89 -43.5 -156.5t-120.5 -108.5t-175 -61t-214 -20zM528 1180l154 372h369l-334 -372h-189z
" />
    <glyph glyph-name="Scircumflex" unicode="&#x15c;" horiz-adv-x="1458" 
d="M748 -39q-307 0 -492 146.5t-213 404.5h424q16 -115 84.5 -180.5t196.5 -65.5q87 0 135.5 34.5t48.5 102.5q0 70 -67.5 111.5t-304.5 136.5q-3 1 -5 2q-246 97 -353.5 204t-107.5 267q0 147 82.5 252t218 155t307.5 50q287 0 469 -138t220 -386h-422q-12 102 -76 161.5
t-176 59.5q-83 0 -127.5 -34.5t-44.5 -92.5q0 -26 8.5 -47.5t29.5 -41.5t47.5 -36.5t70.5 -36.5t90 -38l115 -45q2 -1 3 -1q98 -38 166.5 -71t130.5 -75t99 -88t58 -105.5t21 -131.5q0 -147 -83 -255.5t-225.5 -163t-327.5 -54.5zM242 1692l344 317h243l347 -317h-312
l-155 166l-158 -166h-309z" />
    <glyph glyph-name="scircumflex" unicode="&#x15d;" horiz-adv-x="1251" 
d="M647 -39q-262 0 -418.5 98.5t-185.5 282.5h389q7 -75 66.5 -113.5t150.5 -38.5q65 0 104.5 19.5t39.5 56.5q0 38 -56 63.5t-221 71.5q-48 14 -76.5 22.5t-72 23t-69.5 26t-60.5 29t-55.5 34.5t-44 40.5t-35.5 49t-20.5 57t-8 67.5q0 107 74.5 181t191 106t264.5 32
q246 0 396.5 -95.5t183.5 -264.5h-375q-8 61 -62.5 96t-144.5 35q-65 0 -99 -20t-34 -56q0 -20 11.5 -34t50.5 -31t99 -34t173 -47q107 -29 174 -55t121.5 -62t78 -83t23.5 -111q0 -89 -43.5 -156.5t-120.5 -108.5t-175 -61t-214 -20zM180 1180l307 368h244l309 -368h-288
l-142 206l-141 -206h-289z" />
    <glyph glyph-name="Scedilla" unicode="&#x15e;" horiz-adv-x="1458" 
d="M760 -530q-120 0 -220.5 41.5t-162.5 107.5l108 113q32 -44 96.5 -80.5t127.5 -36.5q131 0 131 70q0 35 -32 55t-89 20q-68 0 -92 -18l-92 74l120 149q-267 22 -426.5 165.5t-185.5 381.5h424q16 -115 84.5 -180.5t196.5 -65.5q87 0 135.5 34.5t48.5 102.5
q0 70 -67.5 111.5t-304.5 136.5q-3 1 -5 2q-246 97 -353.5 204t-107.5 267q0 147 82.5 252t218 155t307.5 50q287 0 469 -138t220 -386h-422q-12 102 -76 161.5t-176 59.5q-83 0 -127.5 -34.5t-44.5 -92.5q0 -26 8.5 -47.5t29.5 -41.5t47.5 -36.5t70.5 -36.5t90 -38l115 -45
q2 -1 3 -1q98 -38 166.5 -71t130.5 -75t99 -88t58 -105.5t21 -131.5q0 -138 -74 -242.5t-202.5 -162t-296.5 -66.5l-57 -72q40 7 69 7q118 0 190 -53t72 -146q0 -59 -29.5 -105t-78.5 -72t-104 -39t-113 -13z" />
    <glyph glyph-name="scedilla" unicode="&#x15f;" horiz-adv-x="1251" 
d="M651 -530q-120 0 -220.5 41.5t-162.5 107.5l109 113q33 -44 96.5 -80.5t126.5 -36.5q131 0 131 70q0 35 -32 55t-89 20q-68 0 -92 -18l-92 74l121 149q-218 19 -348 115.5t-156 261.5h389q7 -75 66.5 -113.5t150.5 -38.5q65 0 104.5 19.5t39.5 56.5q0 38 -56 63.5
t-221 71.5q-48 14 -76.5 22.5t-72 23t-69.5 26t-60.5 29t-55.5 34.5t-44 40.5t-35.5 49t-20.5 57t-8 67.5q0 107 74.5 181t191 106t264.5 32q246 0 396.5 -95.5t183.5 -264.5h-375q-8 61 -62.5 96t-144.5 35q-65 0 -99 -20t-34 -56q0 -20 11.5 -34t50.5 -31t99 -34t173 -47
q107 -29 174 -55t121.5 -62t78 -83t23.5 -111q0 -83 -39 -148.5t-108 -106t-158 -63t-195 -26.5l-55 -72q40 7 70 7q118 0 190 -53t72 -146q0 -59 -30 -105t-78.5 -72t-104 -39t-113.5 -13z" />
    <glyph glyph-name="Scaron" unicode="&#x160;" horiz-adv-x="1458" 
d="M748 -39q-307 0 -492 146.5t-213 404.5h424q16 -115 84.5 -180.5t196.5 -65.5q87 0 135.5 34.5t48.5 102.5q0 70 -67.5 111.5t-304.5 136.5q-3 1 -5 2q-246 97 -353.5 204t-107.5 267q0 147 82.5 252t218 155t307.5 50q287 0 469 -138t220 -386h-422q-12 102 -76 161.5
t-176 59.5q-83 0 -127.5 -34.5t-44.5 -92.5q0 -26 8.5 -47.5t29.5 -41.5t47.5 -36.5t70.5 -36.5t90 -38l115 -45q2 -1 3 -1q98 -38 166.5 -71t130.5 -75t99 -88t58 -105.5t21 -131.5q0 -147 -83 -255.5t-225.5 -163t-327.5 -54.5zM231 2009h310l166 -160l165 160h312
l-348 -319h-258z" />
    <glyph glyph-name="scaron" unicode="&#x161;" horiz-adv-x="1251" 
d="M647 -39q-262 0 -418.5 98.5t-185.5 282.5h389q7 -75 66.5 -113.5t150.5 -38.5q65 0 104.5 19.5t39.5 56.5q0 38 -56 63.5t-221 71.5q-48 14 -76.5 22.5t-72 23t-69.5 26t-60.5 29t-55.5 34.5t-44 40.5t-35.5 49t-20.5 57t-8 67.5q0 107 74.5 181t191 106t264.5 32
q246 0 396.5 -95.5t183.5 -264.5h-375q-8 61 -62.5 96t-144.5 35q-65 0 -99 -20t-34 -56q0 -20 11.5 -34t50.5 -31t99 -34t173 -47q107 -29 174 -55t121.5 -62t78 -83t23.5 -111q0 -89 -43.5 -156.5t-120.5 -108.5t-175 -61t-214 -20zM176 1548h289l141 -205l142 205h288
l-309 -368h-242z" />
    <glyph glyph-name="uni0162" unicode="&#x162;" horiz-adv-x="1427" 
d="M27 1227v323h1374v-323q-186 6 -432 6h-23v-891v-342h-151l-86 -109q40 7 69 7q118 0 190 -53t72 -146q0 -59 -29.5 -105t-78.5 -72t-104 -39t-113 -13q-120 0 -220.5 41.5t-162.5 107.5l108 113q32 -44 96.5 -80.5t127.5 -36.5q131 0 131 70q0 35 -32 55t-89 20
q-68 0 -92 -18l-93 74l150 184h-158v342v891h-22q-248 0 -432 -6z" />
    <glyph glyph-name="uni0163" unicode="&#x163;" horiz-adv-x="1058" 
d="M14 733v293h203v180l420 277h6v-457h326v-293h-326v-284q0 -80 40 -124t116 -44q121 0 196 84l43 -261q-118 -118 -333 -131l-66 -82q40 7 70 7q118 0 190 -53t72 -146q0 -59 -30 -105t-78.5 -72t-104 -39t-113.5 -13q-120 0 -220.5 41.5t-162.5 107.5l109 113
q33 -44 96.5 -80.5t126.5 -36.5q131 0 131 70q0 35 -32 55t-89 20q-68 0 -92 -18l-92 74l131 161q-334 54 -334 496v260h-203z" />
    <glyph glyph-name="Tcaron" unicode="&#x164;" horiz-adv-x="1427" 
d="M27 1227v323h1374v-323q-186 6 -432 6h-23v-891v-342h-465v342v891h-22q-248 0 -432 -6zM238 2011h309l166 -160l166 160h311l-348 -319h-258z" />
    <glyph glyph-name="tcaron" unicode="&#x165;" horiz-adv-x="1073" 
d="M651 -29q-214 0 -324 121t-110 381v260h-203v293h203v180l420 277h6v-457h326v-293h-326v-284q0 -80 40 -124t116 -44q121 0 196 84l43 -261q-133 -133 -387 -133zM766 1217l35 399h313l-160 -399h-188z" />
    <glyph glyph-name="Tbar" unicode="&#x166;" horiz-adv-x="1427" 
d="M27 1227v323h1374v-323q-186 6 -432 6h-23v-389h242v-236h-242v-266v-342h-465v342v266h-241v236h241v389h-22q-248 0 -432 -6z" />
    <glyph glyph-name="tbar" unicode="&#x167;" horiz-adv-x="1058" 
d="M18 489v168h199v76h-203v293h203v180l420 277h6v-457h326v-293h-326v-76h332v-168h-332v-40q0 -80 40 -124t116 -44q121 0 196 84l43 -261q-133 -133 -387 -133q-214 0 -324 121t-110 381v16h-199z" />
    <glyph glyph-name="Utilde" unicode="&#x168;" horiz-adv-x="1679" 
d="M840 -39q-126 0 -231.5 23t-195 74.5t-151.5 129.5t-96.5 194t-34.5 263v563v342h465v-342v-585q0 -155 59 -228t189 -73q129 0 187.5 73t58.5 228v585v342h458v-342v-563q0 -146 -34 -261.5t-95 -194t-150 -130.5t-195 -75t-234 -23zM453 1683q0 330 235 330
q49 0 86 -13t59 -31.5t40.5 -36.5t40 -31t47.5 -13q42 0 57.5 29.5t17.5 93.5h187q-3 -328 -236 -328q-47 0 -83 13t-58.5 31.5t-41.5 36.5t-41.5 31t-49.5 13q-40 0 -57 -31t-17 -94h-186z" />
    <glyph glyph-name="utilde" unicode="&#x169;" horiz-adv-x="1394" 
d="M463 -35q-168 0 -263.5 108.5t-95.5 340.5v270v342h424v-342v-199q0 -196 146 -196q79 0 126.5 55.5t59.5 159.5v180v342h426v-342v-342v-342h-426v248q-45 -120 -152.5 -201.5t-244.5 -81.5zM299 1178q-6 389 236 389q47 0 85 -16t62.5 -39t46 -46t47 -39t53.5 -16
q46 0 65 38.5t17 117.5h172q1 -201 -56 -298.5t-175 -97.5q-50 0 -89.5 17t-64 41t-45.5 48t-46.5 41t-55.5 17q-85 0 -82 -157h-170z" />
    <glyph glyph-name="Umacron" unicode="&#x16a;" horiz-adv-x="1679" 
d="M840 -39q-126 0 -231.5 23t-195 74.5t-151.5 129.5t-96.5 194t-34.5 263v563v342h465v-342v-585q0 -155 59 -228t189 -73q129 0 187.5 73t58.5 228v585v342h458v-342v-563q0 -146 -34 -261.5t-95 -194t-150 -130.5t-195 -75t-234 -23zM440 1751v217h795v-217h-795z" />
    <glyph glyph-name="umacron" unicode="&#x16b;" horiz-adv-x="1394" 
d="M463 -35q-168 0 -263.5 108.5t-95.5 340.5v270v342h424v-342v-199q0 -196 146 -196q79 0 126.5 55.5t59.5 159.5v180v342h426v-342v-342v-342h-426v248q-45 -120 -152.5 -201.5t-244.5 -81.5zM297 1237v223h803v-223h-803z" />
    <glyph glyph-name="Ubreve" unicode="&#x16c;" horiz-adv-x="1679" 
d="M840 -39q-126 0 -231.5 23t-195 74.5t-151.5 129.5t-96.5 194t-34.5 263v563v342h465v-342v-585q0 -155 59 -228t189 -73q129 0 187.5 73t58.5 228v585v342h458v-342v-563q0 -146 -34 -261.5t-95 -194t-150 -130.5t-195 -75t-234 -23zM418 2011h237q0 -82 45.5 -120
t137.5 -38t137 38t45 120h237q0 -161 -106.5 -250.5t-312.5 -89.5t-313 89.5t-107 250.5z" />
    <glyph glyph-name="ubreve" unicode="&#x16d;" horiz-adv-x="1394" 
d="M463 -35q-168 0 -263.5 108.5t-95.5 340.5v270v342h424v-342v-199q0 -196 146 -196q79 0 126.5 55.5t59.5 159.5v180v342h426v-342v-342v-342h-426v248q-45 -120 -152.5 -201.5t-244.5 -81.5zM297 1542h240q0 -88 39 -131t120 -43q160 0 160 174h240q0 -162 -103.5 -263
t-296.5 -101t-296 101t-103 263z" />
    <glyph glyph-name="Uring" unicode="&#x16e;" horiz-adv-x="1679" 
d="M840 -39q-126 0 -231.5 23t-195 74.5t-151.5 129.5t-96.5 194t-34.5 263v563v342h465v-342v-585q0 -155 59 -228t189 -73q129 0 187.5 73t58.5 228v585v342h458v-342v-563q0 -146 -34 -261.5t-95 -194t-150 -130.5t-195 -75t-234 -23zM547 1880q0 107 76.5 164t212.5 57
q138 0 215 -57t77 -164t-76.5 -163t-215.5 -56q-136 0 -212.5 56t-76.5 163zM723 1880q0 -39 30 -61.5t81 -22.5q53 0 82.5 22t29.5 62q0 41 -29.5 63.5t-82.5 22.5q-52 0 -81.5 -22.5t-29.5 -63.5z" />
    <glyph glyph-name="uring" unicode="&#x16f;" horiz-adv-x="1394" 
d="M463 -35q-168 0 -263.5 108.5t-95.5 340.5v270v342h424v-342v-199q0 -196 146 -196q79 0 126.5 55.5t59.5 159.5v180v342h426v-342v-342v-342h-426v248q-45 -120 -152.5 -201.5t-244.5 -81.5zM406 1419q0 107 78 174.5t210 67.5q135 0 215 -67.5t80 -174.5t-80 -174
t-215 -67q-132 0 -210 67t-78 174zM582 1419q0 -49 30 -76.5t82 -27.5t82.5 27.5t30.5 76.5t-30.5 77t-82.5 28q-51 0 -81.5 -28t-30.5 -77z" />
    <glyph glyph-name="Uhungarumlaut" unicode="&#x170;" horiz-adv-x="1679" 
d="M840 -39q-126 0 -231.5 23t-195 74.5t-151.5 129.5t-96.5 194t-34.5 263v563v342h465v-342v-585q0 -155 59 -228t189 -73q129 0 187.5 73t58.5 228v585v342h458v-342v-563q0 -146 -34 -261.5t-95 -194t-150 -130.5t-195 -75t-234 -23zM547 1694l211 317h282l-274 -317
h-219zM911 1694l271 317h286l-340 -317h-217z" />
    <glyph glyph-name="uhungarumlaut" unicode="&#x171;" horiz-adv-x="1394" 
d="M463 -35q-168 0 -263.5 108.5t-95.5 340.5v270v342h424v-342v-199q0 -196 146 -196q79 0 126.5 55.5t59.5 159.5v180v342h426v-342v-342v-342h-426v248q-45 -120 -152.5 -201.5t-244.5 -81.5zM391 1178l182 372h287l-237 -372h-232zM772 1178l232 372h296l-296 -372h-232
z" />
    <glyph glyph-name="Uogonek" unicode="&#x172;" horiz-adv-x="1679" 
d="M971 -483q-109 0 -178.5 55.5t-69.5 165.5q0 127 115 223q-126 0 -230.5 23t-194 74.5t-151.5 129.5t-96.5 194t-34.5 263v563v342h465v-342v-585q0 -155 59 -228t189 -73q129 0 187.5 73t58.5 228v585v342h458v-342v-563q0 -540 -454 -655q-138 -78 -138 -195
q0 -50 28 -73t71 -23q72 0 125 47v-158q-90 -71 -209 -71z" />
    <glyph glyph-name="uogonek" unicode="&#x173;" horiz-adv-x="1394" 
d="M463 -35q-168 0 -263.5 108.5t-95.5 340.5v270v342h424v-342v-199q0 -196 146 -196q79 0 126.5 55.5t59.5 159.5v180v342h426v-342v-342v-342h-117q-97 -35 -156 -92.5t-59 -136.5q0 -50 28 -73.5t71 -23.5q72 0 125 47v-157q-91 -72 -209 -72q-109 0 -178.5 55.5
t-69.5 165.5q0 94 59 166.5t156 120.5h-76v248q-45 -120 -152.5 -201.5t-244.5 -81.5z" />
    <glyph glyph-name="Wcircumflex" unicode="&#x174;" horiz-adv-x="2230" 
d="M59 1358q-7 22 -30 92.5t-31 99.5h485q9 -30 31.5 -107.5t26.5 -90.5l194 -666l238 811h297l239 -813l197 680q7 30 28 101t25 85h473q-8 -29 -32 -103.5t-27 -82.5l-406 -1245q-23 -62 -30 -119h-351l-272 874l-235 -755q-26 -100 -27 -119h-350zM655 1694l344 317h244
l346 -317h-311l-156 166l-157 -166h-310z" />
    <glyph glyph-name="wcircumflex" unicode="&#x175;" horiz-adv-x="1771" 
d="M72 854q-2 5 -70 172h422l61 -172l138 -389l155 541h242l160 -531l133 379q44 119 61 172h393q-9 -24 -33.5 -86t-33.5 -86l-299 -764q-27 -69 -29 -90h-336l-145 518l-121 -414q-28 -91 -29 -104h-335zM457 1178l307 368h244l309 -368h-289l-141 206l-142 -206h-288z
" />
    <glyph glyph-name="Ycircumflex" unicode="&#x176;" horiz-adv-x="1515" 
d="M109 1364l-111 186h491q24 -41 105 -200l184 -346l174 346q67 142 99 200h465q-59 -104 -109 -186l-406 -696v-326v-342h-464v342v322zM303 1694l344 317h244l346 -317h-311l-156 166l-158 -166h-309z" />
    <glyph glyph-name="ycircumflex" unicode="&#x177;" horiz-adv-x="1253" 
d="M270 -502q-72 0 -132 14t-91 37v306q23 -14 79 -26.5t114 -12.5q199 0 280 184h-104l-332 807q-17 41 -46.5 116t-41.5 103h438q5 -22 15 -56t25 -83t24 -80l141 -465l139 465l66 219h424l-90 -219l-326 -789q-117 -282 -257.5 -401t-324.5 -119zM207 1178l307 368h244
l309 -368h-289l-141 206l-141 -206h-289z" />
    <glyph glyph-name="Ydieresis" unicode="&#x178;" horiz-adv-x="1515" 
d="M109 1364l-111 186h491q24 -41 105 -200l184 -346l174 346q67 142 99 200h465q-59 -104 -109 -186l-406 -696v-326v-342h-464v342v322zM373 1702v301h321v-301h-321zM846 1702v301h321v-301h-321z" />
    <glyph glyph-name="Zacute" unicode="&#x179;" horiz-adv-x="1415" 
d="M74 0v250l680 979h-138q-336 0 -557 -6v327h1276v-227l-686 -989h193q285 0 518 6v-340h-1286zM561 1694l213 317h406l-349 -317h-270z" />
    <glyph glyph-name="zacute" unicode="&#x17a;" horiz-adv-x="1134" 
d="M66 0v227l477 506h-123q-193 0 -359 -6v299h998v-221l-486 -510h185q184 0 315 8v-303h-1007zM483 1178l154 372h369l-334 -372h-189z" />
    <glyph glyph-name="Zdotaccent" unicode="&#x17b;" horiz-adv-x="1415" 
d="M74 0v250l680 979h-138q-336 0 -557 -6v327h1276v-227l-686 -989h193q285 0 518 6v-340h-1286zM545 1702v301h321v-301h-321z" />
    <glyph glyph-name="zdotaccent" unicode="&#x17c;" horiz-adv-x="1134" 
d="M66 0v227l477 506h-123q-193 0 -359 -6v299h998v-221l-486 -510h185q184 0 315 8v-303h-1007zM381 1221v299h369v-299h-369z" />
    <glyph glyph-name="Zcaron" unicode="&#x17d;" horiz-adv-x="1415" 
d="M74 0v250l680 979h-138q-336 0 -557 -6v327h1276v-227l-686 -989h193q285 0 518 6v-340h-1286zM229 2011h310l166 -160l165 160h312l-348 -319h-259z" />
    <glyph glyph-name="zcaron" unicode="&#x17e;" horiz-adv-x="1134" 
d="M66 0v227l477 506h-123q-193 0 -359 -6v299h998v-221l-486 -510h185q184 0 315 8v-303h-1007zM133 1546h289l141 -205l142 205h288l-309 -368h-242z" />
    <glyph glyph-name="uni018F" unicode="&#x18f;" horiz-adv-x="1822" 
d="M901 -27q-198 0 -358 61.5t-264 170t-159.5 254.5t-56.5 317l1250 2q-2 212 -108.5 330.5t-303.5 118.5q-150 0 -250.5 -73.5t-136.5 -205.5h-448q24 100 70 191t119.5 172t166.5 140t216.5 93.5t264.5 34.5q201 0 363 -58.5t270 -164t165.5 -252.5t57.5 -324
q0 -180 -58 -329t-166.5 -255t-270.5 -164.5t-363 -58.5zM555 547q37 -109 125 -168.5t221 -59.5t228 59.5t141 168.5h-715z" />
    <glyph glyph-name="florin" unicode="&#x192;" horiz-adv-x="1495" 
d="M61 -14q117 0 193.5 21.5t123.5 71.5t70 117t35 171l39 321h-461v123h476l20 162q73 604 530 604q127 0 216.5 -39t130.5 -96l-103 -252q-52 76 -162 76q-98 0 -154.5 -71t-76.5 -222l-20 -162h509v-123h-526l-45 -352q-86 -672 -795 -672v322z" />
    <glyph glyph-name="Gcaron" unicode="&#x1e6;" horiz-adv-x="1921" 
d="M862 -27q-241 0 -422.5 99t-279 278.5t-97.5 415.5q0 196 69 353t190 257t281.5 152.5t348.5 52.5q211 0 387 -66.5t295 -193.5t160 -299h-459q-40 102 -139.5 159.5t-243.5 57.5q-197 0 -312.5 -123.5t-115.5 -339.5t113 -339.5t309 -123.5q166 0 273.5 67t154.5 191
l-538 -2l-5 275l969 2v-846h-307l-35 248q-90 -132 -243 -203.5t-353 -71.5zM487 2011h310l166 -160l165 160h312l-348 -319h-258z" />
    <glyph glyph-name="gcaron" unicode="&#x1e7;" horiz-adv-x="1435" 
d="M528 -516q-205 0 -317.5 52t-112.5 151q0 138 209 200q-124 19 -194 80t-70 154q0 98 66 166.5t186 120.5q-152 104 -152 276q0 174 154.5 278.5t411.5 104.5q229 0 376 -84q7 127 96 200.5t228 73.5v-307q-168 0 -215 -53q80 -89 80 -213q0 -176 -149.5 -278.5
t-415.5 -102.5q-153 0 -275 39q-76 -32 -76 -74q0 -34 42.5 -50.5t154.5 -12.5q82 2 285 25.5t282 23.5q154 0 223.5 -67.5t69.5 -180.5q0 -118 -74 -217.5t-197.5 -165.5t-283 -102.5t-332.5 -36.5zM287 1546h288l142 -205l141 205h289l-309 -368h-242zM422 -221
q0 -72 156 -72q105 0 207 21t169.5 59.5t67.5 83.5q0 28 -19.5 39.5t-66.5 11.5q-140 0 -320 -39q-194 -39 -194 -104zM518 684q0 -65 52 -101t139 -36q86 0 138 36t52 101q0 66 -51.5 102.5t-138.5 36.5t-139 -36.5t-52 -102.5z" />
    <glyph glyph-name="AEacute" unicode="&#x1fc;" horiz-adv-x="2256" 
d="M-72 0q60 105 209 358l699 1192h1333v-327q-182 6 -424 6h-189v-287h17q282 0 495 4v-305q-213 4 -495 4h-17v-323h191h442v-322h-1097v324h-494l-2 -2q-64 -127 -166 -322h-502zM754 625h338v583v4h-31zM1014 1694l213 317h405l-348 -317h-270z" />
    <glyph glyph-name="aeacute" unicode="&#x1fd;" horiz-adv-x="2043" 
d="M1403 -39q-173 0 -305.5 77.5t-196.5 221.5q-65 -143 -192.5 -218t-307.5 -75q-170 -2 -265 69t-95 200q0 44 12 81t31 65t53 53t66 42t83.5 35.5t93 30t105.5 28.5q166 44 222.5 71.5t56.5 72.5q0 86 -129 86q-88 0 -140.5 -40.5t-52.5 -109.5h-364q9 125 87 220.5
t202.5 145.5t275.5 50q247 0 365 -147q153 147 403 147q270 0 425 -151.5t155 -421.5h-820q7 -122 72 -186t168 -64q89 0 145 41.5t72 107.5h361q-15 -86 -57 -160.5t-111.5 -137t-177 -98.5t-240.5 -36zM455 295q0 -37 28.5 -58.5t73.5 -21.5q90 0 155.5 67.5t65.5 166.5
v63q-13 -27 -51 -47t-125 -49q-80 -25 -113.5 -52t-33.5 -69zM944 1178l154 372h368l-333 -372h-189zM1190 651h428q-47 154 -209 154q-169 0 -219 -154z" />
    <glyph glyph-name="Oslashacute" unicode="&#x1fe;" horiz-adv-x="1902" 
d="M457 -330l-138 76l170 317q-205 98 -315.5 284.5t-110.5 430.5q0 178 60.5 326t172.5 254t280 164.5t376 58.5q182 0 334 -45l162 299l139 -74l-153 -284q196 -100 300.5 -282.5t104.5 -424.5q0 -177 -60.5 -325t-172.5 -254t-279.5 -165t-374.5 -59q-170 0 -313 41z
M541 770q0 -233 141 -352l420 776q-74 23 -150 23q-194 0 -302.5 -117.5t-108.5 -329.5zM809 1696l213 317h405l-348 -317h-270zM823 348q62 -16 129 -16q192 0 301 118t109 328q0 221 -123 338z" />
    <glyph glyph-name="oslashacute" unicode="&#x1ff;" horiz-adv-x="1359" 
d="M338 -262l-105 61l123 224q-147 66 -225 192.5t-78 296.5q0 253 166 403t461 150q120 0 233 -29l121 221l105 -57l-113 -207q136 -69 208.5 -193t72.5 -288q0 -251 -166 -401t-461 -150q-107 0 -207 23zM457 512q0 -131 61 -195l244 445q-37 12 -82 12q-106 0 -164.5 -68
t-58.5 -194zM604 1178l154 372h368l-333 -372h-189zM623 260q27 -6 57 -6q105 0 164 67t59 191q0 106 -45 176z" />
    <glyph glyph-name="uni0218" unicode="&#x218;" horiz-adv-x="1458" 
d="M748 -39q-307 0 -492 146.5t-213 404.5h424q16 -115 84.5 -180.5t196.5 -65.5q87 0 135.5 34.5t48.5 102.5q0 70 -67.5 111.5t-304.5 136.5q-3 1 -5 2q-246 97 -353.5 204t-107.5 267q0 147 82.5 252t218 155t307.5 50q287 0 469 -138t220 -386h-422q-12 102 -76 161.5
t-176 59.5q-83 0 -127.5 -34.5t-44.5 -92.5q0 -26 8.5 -47.5t29.5 -41.5t47.5 -36.5t70.5 -36.5t90 -38l115 -45q2 -1 3 -1q98 -38 166.5 -71t130.5 -75t99 -88t58 -105.5t21 -131.5q0 -147 -83 -255.5t-225.5 -163t-327.5 -54.5zM434 -440l154 317h327l-321 -397z" />
    <glyph glyph-name="uni0219" unicode="&#x219;" horiz-adv-x="1251" 
d="M647 -39q-262 0 -418.5 98.5t-185.5 282.5h389q7 -75 66.5 -113.5t150.5 -38.5q65 0 104.5 19.5t39.5 56.5q0 38 -56 63.5t-221 71.5q-48 14 -76.5 22.5t-72 23t-69.5 26t-60.5 29t-55.5 34.5t-44 40.5t-35.5 49t-20.5 57t-8 67.5q0 107 74.5 181t191 106t264.5 32
q246 0 396.5 -95.5t183.5 -264.5h-375q-8 61 -62.5 96t-144.5 35q-65 0 -99 -20t-34 -56q0 -20 11.5 -34t50.5 -31t99 -34t173 -47q107 -29 174 -55t121.5 -62t78 -83t23.5 -111q0 -89 -43.5 -156.5t-120.5 -108.5t-175 -61t-214 -20zM328 -440l153 317h328l-322 -397z" />
    <glyph glyph-name="uni021A" unicode="&#x21a;" horiz-adv-x="1427" 
d="M27 1227v323h1374v-323q-186 6 -432 6h-23v-891v-342h-465v342v891h-22q-248 0 -432 -6zM391 -440l154 317h327l-321 -397z" />
    <glyph glyph-name="uni021B" unicode="&#x21b;" horiz-adv-x="1058" 
d="M651 -29q-214 0 -324 121t-110 381v260h-203v293h203v180l420 277h6v-457h326v-293h-326v-284q0 -80 40 -124t116 -44q121 0 196 84l43 -261q-133 -133 -387 -133zM322 -440l153 317h328l-322 -397z" />
    <glyph glyph-name="uni0237" unicode="&#x237;" horiz-adv-x="659" 
d="M-61 -242q47 0 77.5 8t57 32.5t39 74t12.5 127.5v684v342h424v-965q0 -143 -30 -244t-99.5 -174.5t-188.5 -109t-292 -35.5v260z" />
    <glyph glyph-name="uni0259" unicode="&#x259;" horiz-adv-x="1347" 
d="M676 1065q177 0 315.5 -62t220.5 -188.5t82 -300.5t-83.5 -301.5t-223 -190.5t-315.5 -63q-290 0 -454.5 154.5t-164.5 423.5h858q-9 120 -74 180.5t-167 60.5q-93 0 -151 -41t-77 -106h-381q14 85 58.5 160.5t117.5 138t186.5 99t252.5 36.5zM453 365q53 -140 219 -140
q160 0 215 140h-434z" />
    <glyph glyph-name="circumflex" unicode="&#x2c6;" horiz-adv-x="1064" 
d="M102 1178l308 368h243l310 -368h-289l-142 206l-141 -206h-289z" />
    <glyph glyph-name="caron" unicode="&#x2c7;" horiz-adv-x="1064" 
d="M412 1178l-310 368h289l141 -205l142 205h289l-310 -368h-241z" />
    <glyph glyph-name="breve" unicode="&#x2d8;" horiz-adv-x="1001" 
d="M502 1178q-193 0 -296.5 101t-103.5 263h240q0 -174 160 -174t160 174h239q0 -162 -103 -263t-296 -101z" />
    <glyph glyph-name="dotaccent" unicode="&#x2d9;" horiz-adv-x="632" 
d="M102 1221v313h428v-313h-428z" />
    <glyph glyph-name="ring" unicode="&#x2da;" horiz-adv-x="788" 
d="M391 1178q-132 0 -210.5 67t-78.5 174t78.5 174.5t210.5 67.5q135 0 215 -67.5t80 -174.5t-80 -174t-215 -67zM279 1419q0 -49 30 -76.5t82 -27.5t82.5 27.5t30.5 76.5t-30.5 77t-82.5 28q-51 0 -81.5 -28t-30.5 -77z" />
    <glyph glyph-name="ogonek" unicode="&#x2db;" horiz-adv-x="661" 
d="M350 -508q-109 0 -178.5 55.5t-69.5 165.5q0 72 36.5 133.5t97.5 103.5t128.5 70t141.5 43l45 -63q-97 -35 -156 -92.5t-59 -136.5q0 -50 27.5 -73.5t70.5 -23.5q72 0 125 47v-157q-91 -72 -209 -72z" />
    <glyph glyph-name="tilde" unicode="&#x2dc;" horiz-adv-x="989" 
d="M104 1178q-6 389 236 389q47 0 85 -16t63 -39t46.5 -46t47 -39t53.5 -16q46 0 65 38.5t17 117.5h172q3 -396 -232 -396q-50 0 -89.5 17t-64 41t-45.5 48t-46.5 41t-55.5 17q-85 0 -82 -157h-170z" />
    <glyph glyph-name="hungarumlaut" unicode="&#x2dd;" horiz-adv-x="1112" 
d="M483 1178l232 372h297l-297 -372h-232zM102 1178l183 372h286l-237 -372h-232z" />
    <glyph glyph-name="gravecomb" unicode="&#x300;" 
d="M436 1178l-334 372h371l154 -372h-191z" />
    <glyph glyph-name="acutecomb" unicode="&#x301;" 
d="M102 1178l154 372h369l-334 -372h-189z" />
    <glyph glyph-name="uni0302" unicode="&#x302;" 
d="M102 1178l308 368h243l310 -368h-289l-142 206l-141 -206h-289z" />
    <glyph glyph-name="tildecomb" unicode="&#x303;" 
d="M113 1178q-6 389 235 389q47 0 85 -16t63 -39t46.5 -46t47 -39t53.5 -16q46 0 65 38.5t17 117.5h172q1 -201 -56 -298.5t-175 -97.5q-50 0 -89.5 17t-64 41t-45.5 48t-46.5 41t-55.5 17q-85 0 -82 -157h-170z" />
    <glyph glyph-name="uni0304" unicode="&#x304;" 
d="M102 1237v223h803v-223h-803z" />
    <glyph glyph-name="uni0306" unicode="&#x306;" 
d="M500 1178q-193 0 -296.5 101t-103.5 263h240q0 -174 160 -174q81 0 120 43t39 131h240q0 -162 -103 -263t-296 -101z" />
    <glyph glyph-name="uni0307" unicode="&#x307;" 
d="M102 1221v313h428v-313h-428z" />
    <glyph glyph-name="uni0308" unicode="&#x308;" 
d="M526 1221v301h314v-301h-314zM94 1221v301h316v-301h-316z" />
    <glyph glyph-name="uni030A" unicode="&#x30a;" 
d="M391 1178q-132 0 -210.5 67t-78.5 174t78.5 174.5t210.5 67.5q135 0 215 -67.5t80 -174.5t-80 -174t-215 -67zM279 1419q0 -49 30 -76.5t82 -27.5t82.5 27.5t30.5 76.5t-30.5 77t-82.5 28q-51 0 -81.5 -28t-30.5 -77z" />
    <glyph glyph-name="uni030B" unicode="&#x30b;" 
d="M465 1178l231 372h297l-297 -372h-231zM84 1178l182 372h287l-238 -372h-231z" />
    <glyph glyph-name="uni030C" unicode="&#x30c;" 
d="M446 1178l-309 368h289l141 -205l142 205h288l-309 -368h-242z" />
    <glyph glyph-name="uni0312" unicode="&#x312;" 
d="M102 1188l312 409h176l-178 -409h-310z" />
    <glyph glyph-name="uni0326" unicode="&#x326;" 
d="M172 -520l-160 80l154 317h328z" />
    <glyph glyph-name="uni0327" unicode="&#x327;" 
d="M494 -530q-120 0 -220.5 41.5t-162.5 107.5l108 113q33 -44 96.5 -80.5t126.5 -36.5q131 0 131 70q0 35 -31.5 55t-88.5 20q-69 0 -93 -18l-92 74l150 184h155l-86 -109q40 7 70 7q118 0 190 -53t72 -146q0 -59 -29.5 -105t-78.5 -72t-104 -39t-113 -13z" />
    <glyph glyph-name="uni0328" unicode="&#x328;" 
d="M358 -508q-108 0 -177.5 55.5t-69.5 165.5q0 72 36.5 133.5t97 103.5t128.5 70t141 43l45 -63q-97 -35 -156 -92.5t-59 -136.5q0 -50 27.5 -73.5t70.5 -23.5q72 0 125 47v-157q-91 -72 -209 -72z" />
    <glyph glyph-name="uni0394" unicode="&#x394;" horiz-adv-x="1437" 
d="M-8 0v297l500 1253h462l494 -1253v-297h-1456zM401 301h623l-307 875z" />
    <glyph glyph-name="uni03A9" unicode="&#x3a9;" horiz-adv-x="1910" 
d="M98 0v301h453v66q-230 52 -355.5 200t-125.5 355q0 144 60 265t172 209t280 137.5t374 49.5t374.5 -49.5t280 -137.5t172 -209t60.5 -265q0 -207 -126 -355t-357 -200v-66h452v-301h-794v389q173 39 268.5 148.5t95.5 310.5q0 198 -118.5 313t-309.5 115
q-189 0 -306.5 -115t-117.5 -313q0 -202 95.5 -311t269.5 -148v-389h-797z" />
    <glyph glyph-name="uni03BC" unicode="&#x3bc;" horiz-adv-x="1441" 
d="M172 -412q-29 61 -44 153.5t-17 155.5t-2 173v614v342h423v-342v-199q0 -196 146 -196q85 0 133 73t53 205v117v342h426v-342v-242q0 -120 17 -164.5t71 -44.5q32 0 49 11v-213q-104 -45 -245 -45q-112 0 -198 70.5t-99 213.5q-39 -129 -125 -213t-189 -84q-72 0 -120 39
v-51q0 -127 14 -207.5t47 -165.5h-340z" />
    <glyph glyph-name="pi" unicode="&#x3c0;" horiz-adv-x="1576" 
d="M1206 -16q-79 0 -138.5 19t-108 64t-74 127t-25.5 199v340h-201l-14 -733h-407l14 733h-238v293h1504v-293h-252v-303q0 -75 28 -116.5t80 -41.5q80 0 135 64l47 -221q-51 -55 -140.5 -93t-209.5 -38z" />
    <glyph glyph-name="Wgrave" unicode="&#x1e80;" horiz-adv-x="2230" 
d="M59 1358q-7 22 -30 92.5t-31 99.5h485q9 -30 31.5 -107.5t26.5 -90.5l194 -666l238 811h297l239 -813l197 680q7 30 28 101t25 85h473q-8 -29 -32 -103.5t-27 -82.5l-406 -1245q-23 -62 -30 -119h-351l-272 874l-235 -755q-26 -100 -27 -119h-350zM647 2011h406l213 -317
h-273z" />
    <glyph glyph-name="wgrave" unicode="&#x1e81;" horiz-adv-x="1771" 
d="M72 854q-2 5 -70 172h422l61 -172l138 -389l155 541h242l160 -531l133 379q44 119 61 172h393q-9 -24 -33.5 -86t-33.5 -86l-299 -764q-27 -69 -29 -90h-336l-145 518l-121 -414q-28 -91 -29 -104h-335zM451 1550h370l154 -372h-191z" />
    <glyph glyph-name="Wacute" unicode="&#x1e82;" horiz-adv-x="2230" 
d="M59 1358q-7 22 -30 92.5t-31 99.5h485q9 -30 31.5 -107.5t26.5 -90.5l194 -666l238 811h297l239 -813l197 680q7 30 28 101t25 85h473q-8 -29 -32 -103.5t-27 -82.5l-406 -1245q-23 -62 -30 -119h-351l-272 874l-235 -755q-26 -100 -27 -119h-350zM977 1694l213 317h405
l-348 -317h-270z" />
    <glyph glyph-name="wacute" unicode="&#x1e83;" horiz-adv-x="1771" 
d="M72 854q-2 5 -70 172h422l61 -172l138 -389l155 541h242l160 -531l133 379q44 119 61 172h393q-9 -24 -33.5 -86t-33.5 -86l-299 -764q-27 -69 -29 -90h-336l-145 518l-121 -414q-28 -91 -29 -104h-335zM805 1178l153 372h369l-334 -372h-188z" />
    <glyph glyph-name="Wdieresis" unicode="&#x1e84;" horiz-adv-x="2230" 
d="M59 1358q-7 22 -30 92.5t-31 99.5h485q9 -30 31.5 -107.5t26.5 -90.5l194 -666l238 811h297l239 -813l197 680q7 30 28 101t25 85h473q-8 -29 -32 -103.5t-27 -82.5l-406 -1245q-23 -62 -30 -119h-351l-272 874l-235 -755q-26 -100 -27 -119h-350zM725 1702v301h322v-301
h-322zM1198 1702v301h322v-301h-322z" />
    <glyph glyph-name="wdieresis" unicode="&#x1e85;" horiz-adv-x="1771" 
d="M72 854q-2 5 -70 172h422l61 -172l138 -389l155 541h242l160 -531l133 379q44 119 61 172h393q-9 -24 -33.5 -86t-33.5 -86l-299 -764q-27 -69 -29 -90h-336l-145 518l-121 -414q-28 -91 -29 -104h-335zM510 1221v301h315v-301h-315zM942 1221v301h313v-301h-313z" />
    <glyph glyph-name="uni1E9E" unicode="&#x1e9e;" horiz-adv-x="1652" 
d="M1042 -27q-98 0 -162.5 18t-119.5 56l2 318q73 -76 182 -76t158 44.5t49 115.5q0 41 -10.5 74.5t-33.5 63t-46 51t-62 52.5q-36 29 -56.5 46t-49 48t-43 58.5t-26 68t-11.5 86.5q0 186 168 269h-23q-386 0 -383 -404v-520q3 -159 3 -342h-447v342v489q0 175 54 313
t152 226t231 134t294 46h662v-336q-47 7 -74 7q-114 0 -178 -53t-64 -124q0 -63 38.5 -110.5t123.5 -116.5q51 -41 85 -76.5t68 -83t51 -105t17 -124.5q0 -96 -35 -178.5t-102 -144.5t-173 -97t-239 -35z" />
    <glyph glyph-name="uni1EBC" unicode="&#x1ebc;" horiz-adv-x="1312" 
d="M147 0v342v866v342h1078v-327q-182 6 -424 6h-189v-287h17q282 0 495 4v-305q-213 4 -495 4h-17v-323h191h442v-322h-1098zM285 1683q0 330 235 330q49 0 86 -13t59 -31.5t40.5 -36.5t40 -31t47.5 -13q42 0 57.5 29.5t17.5 93.5h187q-3 -328 -236 -328q-47 0 -83 13
t-58.5 31.5t-41.5 36.5t-41.5 31t-49.5 13q-40 0 -57 -31t-17 -94h-186z" />
    <glyph glyph-name="uni1EBD" unicode="&#x1ebd;" horiz-adv-x="1347" 
d="M672 -39q-177 0 -315.5 62t-221 188.5t-82.5 300.5t84 301.5t223.5 190.5t315.5 63q289 0 453.5 -154.5t164.5 -423.5h-858q9 -120 74.5 -180.5t167.5 -60.5q93 0 150.5 41t76.5 106h381q-14 -85 -58 -160.5t-117.5 -138t-186.5 -99t-252 -36.5zM274 1178q-6 389 236 389
q47 0 85 -16t63 -39t46.5 -46t47 -39t53.5 -16q46 0 65 38.5t17 117.5h172q3 -396 -232 -396q-50 0 -89.5 17t-64 41t-45.5 48t-46.5 41t-55.5 17q-85 0 -82 -157h-170zM461 662h434q-53 139 -219 139q-160 0 -215 -139z" />
    <glyph glyph-name="Ygrave" unicode="&#x1ef2;" horiz-adv-x="1515" 
d="M109 1364l-111 186h491q24 -41 105 -200l184 -346l174 346q67 142 99 200h465q-59 -104 -109 -186l-406 -696v-326v-342h-464v342v322zM293 2011h405l213 -317h-272z" />
    <glyph glyph-name="ygrave" unicode="&#x1ef3;" horiz-adv-x="1253" 
d="M270 -502q-72 0 -132 14t-91 37v306q23 -14 79 -26.5t114 -12.5q199 0 280 184h-104l-332 807q-17 41 -46.5 116t-41.5 103h438q5 -22 15 -56t25 -83t24 -80l141 -465l139 465l66 219h424l-90 -219l-326 -789q-117 -282 -257.5 -401t-324.5 -119zM201 1550h370l154 -372
h-190z" />
    <glyph glyph-name="uni1EF8" unicode="&#x1ef8;" horiz-adv-x="1515" 
d="M109 1364l-111 186h491q24 -41 105 -200l184 -346l174 346q67 142 99 200h465q-59 -104 -109 -186l-406 -696v-326v-342h-464v342v322zM385 1683q0 330 236 330q49 0 86 -13t59 -31.5t40 -36.5t39.5 -31t47.5 -13q42 0 58 29.5t18 93.5h186q-1 -168 -60 -248t-175 -80
q-47 0 -83 13t-58.5 31.5t-42 36.5t-42 31t-49.5 13q-40 0 -57 -31t-17 -94h-186z" />
    <glyph glyph-name="uni1EF9" unicode="&#x1ef9;" horiz-adv-x="1253" 
d="M270 -502q-72 0 -132 14t-91 37v306q23 -14 79 -26.5t114 -12.5q199 0 280 184h-104l-332 807q-17 41 -46.5 116t-41.5 103h438q5 -22 15 -56t25 -83t24 -80l141 -465l139 465l66 219h424l-90 -219l-326 -789q-117 -282 -257.5 -401t-324.5 -119zM238 1178
q-6 389 235 389q47 0 85 -16t63 -39t46.5 -46t47 -39t53.5 -16q46 0 65 38.5t17 117.5h172q1 -201 -56 -298.5t-175 -97.5q-50 0 -89.5 17t-64 41t-46 48t-47 41t-55.5 17q-45 0 -64 -40t-17 -117h-170z" />
    <glyph glyph-name="endash" unicode="&#x2013;" horiz-adv-x="1968" 
d="M84 408v215h1800v-215h-1800z" />
    <glyph glyph-name="emdash" unicode="&#x2014;" horiz-adv-x="2721" 
d="M84 408v215h2554v-215h-2554z" />
    <glyph glyph-name="quoteleft" unicode="&#x2018;" horiz-adv-x="544" 
d="M487 1356q-98 -5 -148.5 -39t-59.5 -115h178v-334h-375v279q0 195 107 299.5t298 109.5v-200z" />
    <glyph glyph-name="quoteright" unicode="&#x2019;" horiz-adv-x="544" 
d="M57 1065q98 5 149 39t60 115h-178v333h375v-278q0 -195 -107.5 -300t-298.5 -110v201z" />
    <glyph glyph-name="quotesinglbase" unicode="&#x201a;" horiz-adv-x="544" 
d="M39 -143q106 3 159.5 36t63.5 113h-176v334h373v-262q0 -194 -111 -298.5t-309 -109.5v187z" />
    <glyph glyph-name="quotedblleft" unicode="&#x201c;" horiz-adv-x="1030" 
d="M487 1356q-98 -5 -148.5 -39t-59.5 -115h178v-334h-375v279q0 195 107 299.5t298 109.5v-200zM567 868v279q0 195 107.5 299.5t298.5 109.5v-200q-98 -5 -149 -39t-60 -115h178v-334h-375z" />
    <glyph glyph-name="quotedblright" unicode="&#x201d;" horiz-adv-x="1030" 
d="M545 1065q98 5 149 39t60 115h-179v333h375v-278q0 -195 -107 -300t-298 -110v201zM57 864v201q98 5 149 39t60 115h-178v333h375v-278q0 -195 -107.5 -300t-298.5 -110z" />
    <glyph glyph-name="quotedblbase" unicode="&#x201e;" horiz-adv-x="1032" 
d="M526 -143q106 3 160 36t64 113h-177v334h373v-262q0 -194 -111 -298.5t-309 -109.5v187zM39 -330v187q106 3 159.5 36t63.5 113h-176v334h373v-262q0 -194 -111 -298.5t-309 -109.5z" />
    <glyph glyph-name="dagger" unicode="&#x2020;" horiz-adv-x="1161" 
d="M410 68v858h-377v297h377v374h340v-374h376v-297h-376v-858h-340z" />
    <glyph glyph-name="daggerdbl" unicode="&#x2021;" horiz-adv-x="1167" 
d="M414 66v372h-381v299h381v191h-381v297h381v372h338v-372h381v-297h-381v-191h381v-299h-381v-372h-338z" />
    <glyph glyph-name="bullet" unicode="&#x2022;" horiz-adv-x="849" 
d="M205 330v393h440v-393h-440z" />
    <glyph glyph-name="ellipsis" unicode="&#x2026;" horiz-adv-x="1695" 
d="M1225 0v340h372v-340h-372zM98 0v340h373v-340h-373zM662 0v340h372v-340h-372z" />
    <glyph glyph-name="perthousand" unicode="&#x2030;" horiz-adv-x="2768" 
d="M174 0l1196 1550h328l-1196 -1550h-328zM55 1204q0 162 114.5 266.5t303.5 104.5t304.5 -104.5t115.5 -266.5q0 -163 -115 -268t-305 -105q-189 0 -303.5 104.5t-114.5 268.5zM324 1204q0 -66 41.5 -106.5t107.5 -40.5t108 40.5t42 106.5q0 64 -42 105t-108 41
t-107.5 -40.5t-41.5 -105.5zM973 346q0 162 114.5 266.5t303.5 104.5t304 -104.5t115 -266.5q0 -164 -115 -268.5t-304 -104.5t-303.5 104.5t-114.5 268.5zM1241 346q0 -66 42 -106.5t108 -40.5t107.5 40.5t41.5 106.5q0 65 -41.5 105.5t-107.5 40.5t-108 -41t-42 -105z
M1876 334q0 162 114.5 266.5t303.5 104.5t304.5 -104.5t115.5 -266.5q0 -163 -115 -268t-305 -105q-189 0 -303.5 104.5t-114.5 268.5zM2144 334q0 -66 42 -107t108 -41t107.5 41t41.5 107q0 64 -41.5 104.5t-107.5 40.5t-108 -40.5t-42 -104.5z" />
    <glyph glyph-name="minute" unicode="&#x2032;" horiz-adv-x="509" 
d="M18 887l97 663h334l-220 -663h-211z" />
    <glyph glyph-name="second" unicode="&#x2033;" horiz-adv-x="966" 
d="M18 887l97 663h334l-220 -663h-211zM475 887l96 663h334l-219 -663h-211z" />
    <glyph glyph-name="guilsinglleft" unicode="&#x2039;" horiz-adv-x="714" 
d="M625 20l-549 416v135l549 414v-311l-238 -164v-14l238 -164v-312z" />
    <glyph glyph-name="guilsinglright" unicode="&#x203a;" horiz-adv-x="714" 
d="M90 20v312l238 164v14l-238 164v311l549 -414v-135z" />
    <glyph glyph-name="uni203D" unicode="&#x203d;" horiz-adv-x="1349" 
d="M455 0v340h374v-340h-374zM49 1040q12 135 71 240.5t152 170t209.5 97.5t251.5 33q266 0 416.5 -114.5t150.5 -305.5q0 -79 -26 -144t-67.5 -108.5t-92.5 -80t-103 -67.5t-96 -61.5t-74.5 -71t-35.5 -87.5l-2 -45h-324l-16 612h356l-8 -274q31 43 48.5 72t33.5 74.5
t16 90.5q0 90 -69.5 144.5t-182.5 54.5q-120 0 -200.5 -60.5t-89.5 -169.5h-318z" />
    <glyph glyph-name="fraction" unicode="&#x2044;" horiz-adv-x="446" 
d="M-539 0l1196 1550h328l-1196 -1550h-328z" />
    <glyph glyph-name="uni2070" unicode="&#x2070;" horiz-adv-x="1114" 
d="M557 895q-239 0 -372.5 132.5t-133.5 352.5t133.5 353t372.5 133t372.5 -133t133.5 -353t-133.5 -352.5t-372.5 -132.5zM369 1380q0 -117 48.5 -183.5t139.5 -66.5t139.5 66.5t48.5 183.5q0 116 -48.5 182t-139.5 66t-139.5 -66t-48.5 -182z" />
    <glyph glyph-name="uni2074" unicode="&#x2074;" horiz-adv-x="1046" 
d="M532 924v139v18h-532v183l553 577h293v-538h174v-222h-174v-18v-139v-4h-314v4zM272 1303h260v278z" />
    <glyph glyph-name="uni2075" unicode="&#x2075;" horiz-adv-x="1048" 
d="M537 897q-203 0 -330.5 90.5t-149.5 257.5h291q25 -143 178 -143q74 0 108 34t34 87q0 61 -37.5 93t-110.5 32q-95 0 -151 -56l-256 82l82 467h739v-233h-526l-29 -164q112 76 278 76q154 0 246 -77t92 -214q0 -156 -127.5 -244t-330.5 -88z" />
    <glyph glyph-name="uni2076" unicode="&#x2076;" horiz-adv-x="1054" 
d="M545 897q-229 0 -356.5 130t-127.5 345q0 140 55.5 250.5t170.5 177t274 66.5q174 0 288.5 -80t143.5 -225h-286q-8 44 -46 73t-98 29q-178 0 -194 -240q-3 -31 0 -63q37 77 123 119.5t190 42.5q142 0 227.5 -78t85.5 -211q0 -150 -116.5 -243t-333.5 -93zM393 1217
q38 -113 148 -113q63 0 98 33t35 92q0 55 -35 84.5t-94 29.5q-56 0 -99.5 -34.5t-52.5 -91.5z" />
    <glyph glyph-name="uni2077" unicode="&#x2077;" horiz-adv-x="907" 
d="M82 922l438 661h-479v258h846l2 -170l-451 -749h-356z" />
    <glyph glyph-name="uni2078" unicode="&#x2078;" horiz-adv-x="1097" 
d="M549 897q-238 0 -368 72t-130 209q0 96 77.5 159t215.5 82q-122 11 -187 68t-65 133q0 119 118.5 181.5t336.5 62.5q220 0 338.5 -62.5t118.5 -181.5q0 -76 -64 -133t-186 -68q138 -19 215.5 -81.5t77.5 -159.5q0 -137 -129.5 -209t-368.5 -72zM377 1206q0 -104 172 -104
t172 104q0 56 -46.5 82.5t-125.5 26.5t-125.5 -26.5t-46.5 -82.5zM399 1589q0 -45 41.5 -67.5t108.5 -22.5t108 22.5t41 67.5t-42 66.5t-107 21.5t-107.5 -21.5t-42.5 -66.5z" />
    <glyph glyph-name="uni2079" unicode="&#x2079;" horiz-adv-x="1054" 
d="M510 1870q229 0 357 -130t128 -345q0 -104 -32.5 -193t-93.5 -156.5t-157 -106t-216 -38.5q-176 0 -290 79.5t-143 225.5h287q8 -44 45 -72t99 -28q176 0 194 237v66q-37 -78 -123.5 -120t-191.5 -42q-142 0 -228 77.5t-86 209.5q0 150 117 243t334 93zM381 1538
q0 -55 35.5 -85t93.5 -30q56 0 100.5 35t53.5 92q-38 113 -150 113q-63 0 -98 -33t-35 -92z" />
    <glyph glyph-name="uni2080" unicode="&#x2080;" horiz-adv-x="1114" 
d="M557 -231q-239 0 -372.5 132.5t-133.5 352.5t133.5 352.5t372.5 132.5t372.5 -132.5t133.5 -352.5t-133.5 -352.5t-372.5 -132.5zM369 254q0 -117 48.5 -183.5t139.5 -66.5t139.5 66.5t48.5 183.5q0 116 -48.5 182t-139.5 66t-139.5 -66t-48.5 -182z" />
    <glyph glyph-name="uni2081" unicode="&#x2081;" horiz-adv-x="747" 
d="M266 -205v342v174q-72 -89 -250 -98v252q131 1 217 73t107 179h254v-580v-342h-328z" />
    <glyph glyph-name="uni2082" unicode="&#x2082;" horiz-adv-x="1013" 
d="M76 -178q0 71 17.5 131t44 102t70 80.5t83.5 63t96 53.5q146 72 181 99q50 38 50 87q0 40 -27.5 62t-76.5 22q-70 0 -107.5 -44.5t-37.5 -119.5h-314q6 76 37.5 142.5t87.5 121.5t146.5 87t205.5 32q116 0 206.5 -29.5t147 -95t56.5 -159.5q0 -49 -16.5 -90t-39.5 -68.5
t-66 -56t-76.5 -45t-90.5 -41.5q-96 -43 -140 -68t-60 -49h493v-244h-870v27z" />
    <glyph glyph-name="uni2083" unicode="&#x2083;" horiz-adv-x="1003" 
d="M516 -229q-205 0 -327 93t-144 271h297q19 -135 164 -135q127 0 127 98q0 41 -28.5 61.5t-92.5 20.5h-102v176h102q57 0 85 26t28 64q0 33 -30.5 53.5t-84.5 20.5q-152 0 -170 -110h-295q23 159 153.5 244t344.5 85q188 0 301.5 -64t113.5 -192q0 -82 -69.5 -134.5
t-175.5 -65.5q71 -7 127.5 -28.5t97.5 -71t41 -120.5q0 -95 -66 -162.5t-168.5 -98.5t-228.5 -31z" />
    <glyph glyph-name="uni2084" unicode="&#x2084;" horiz-adv-x="1046" 
d="M532 -203v140v18h-532v182l553 578h293v-539h174v-221h-174v-18v-140v-4h-314v4zM272 176h260v279z" />
    <glyph glyph-name="uni2085" unicode="&#x2085;" horiz-adv-x="1048" 
d="M537 -229q-203 0 -330.5 90.5t-149.5 257.5h291q25 -144 178 -144q74 0 108 34t34 87q0 61 -37.5 93t-110.5 32q-96 0 -151 -55l-256 82l82 467h739v-234h-526l-29 -164q112 76 278 76q154 0 246 -77t92 -214q0 -156 -127 -243.5t-331 -87.5z" />
    <glyph glyph-name="uni2086" unicode="&#x2086;" horiz-adv-x="1054" 
d="M545 -229q-229 0 -356.5 130t-127.5 345q0 140 55.5 250t170.5 176.5t274 66.5q174 0 288.5 -80t143.5 -225h-286q-8 44 -46 73.5t-98 29.5q-178 0 -194 -240q-3 -32 0 -64q37 77 123 119.5t190 42.5q142 0 227.5 -78t85.5 -211q0 -150 -116.5 -242.5t-333.5 -92.5z
M393 90q38 -113 148 -113q63 0 98 33t35 92q0 56 -35 85.5t-94 29.5q-56 0 -99.5 -35t-52.5 -92z" />
    <glyph glyph-name="uni2087" unicode="&#x2087;" horiz-adv-x="907" 
d="M82 -205l438 662h-479v258h846l2 -170l-451 -750h-356z" />
    <glyph glyph-name="uni2088" unicode="&#x2088;" horiz-adv-x="1097" 
d="M549 -229q-239 0 -368.5 71.5t-129.5 208.5q0 96 78 159.5t215 82.5q-122 11 -187 68t-65 133q0 119 118 181t337 62q220 0 338.5 -62t118.5 -181q0 -76 -64 -133t-186 -68q138 -19 215.5 -82t77.5 -160q0 -137 -129 -208.5t-369 -71.5zM377 80q0 -105 172 -105t172 105
q0 108 -172 108t-172 -108zM399 463q0 -45 41.5 -67.5t108.5 -22.5t108 22.5t41 67.5t-42 66.5t-107 21.5t-107.5 -21.5t-42.5 -66.5z" />
    <glyph glyph-name="uni2089" unicode="&#x2089;" horiz-adv-x="1054" 
d="M510 743q229 0 357 -130t128 -345q0 -104 -32.5 -193t-93.5 -156t-157 -105.5t-216 -38.5q-176 0 -290 79.5t-143 225.5h287q8 -44 45 -72t99 -28q176 0 194 237v66q-37 -78 -123.5 -120t-191.5 -42q-142 0 -228 77.5t-86 209.5q0 150 117 242.5t334 92.5zM381 412
q0 -55 35.5 -85t93.5 -30q56 0 100.5 35t53.5 92q-38 113 -150 113q-63 0 -98 -33t-35 -92z" />
    <glyph glyph-name="Euro" unicode="&#x20ac;" horiz-adv-x="1916" 
d="M82 821v125h188q49 298 256.5 465.5t517.5 167.5q148 0 276.5 -38.5t232.5 -114t175.5 -196t98.5 -276.5h-428q-31 126 -122.5 198.5t-225.5 72.5q-121 0 -212.5 -72.5t-129.5 -206.5h479v-125h-498q-2 -14 -2 -43q0 -39 2 -57h498v-125h-475q38 -131 127.5 -201.5
t210.5 -70.5q140 0 236 90t116 243h426q-16 -163 -84.5 -295t-175 -217t-242.5 -130.5t-291 -45.5q-298 0 -504 168.5t-258 458.5h-192v125h178q-2 18 -2 57v43h-176z" />
    <glyph glyph-name="uni20B9" unicode="&#x20b9;" horiz-adv-x="1425" 
d="M678 0l-565 674v246h280q233 0 277 129h-557v125h557q-40 126 -269 126h-288v250h1286l-27 -125h-487q187 -72 205 -251h225l-25 -125h-207q-31 -162 -173 -245t-343 -83h-47l656 -703v-18h-498z" />
    <glyph glyph-name="uni20BA" unicode="&#x20ba;" horiz-adv-x="1712" 
d="M295 0v342v158l-203 -88v137l203 88v108l-203 -88v138l203 88v325v342h463v-342v-125l450 197v-137l-450 -197v-108l450 196v-137l-450 -197v-401h110q206 0 300 102t94 304h387q0 -329 -209 -517t-572 -188h-573z" />
    <glyph glyph-name="uni20BF" unicode="&#x20bf;" horiz-adv-x="1517" 
d="M518 -348v348h-350v342v866v342h350v348h129v-348h119h29v348h129v-356q228 -25 343 -120t115 -255q0 -137 -93 -226.5t-283 -111.5v-18q217 -17 324.5 -116t107.5 -251q0 -180 -129.5 -293t-384.5 -143v-356h-129v348h-45h-103v-348h-129zM604 311h160q233 0 233 181
q0 178 -239 178h-154v-359zM604 948h137q217 0 217 156q0 139 -210 139h-144v-295z" />
    <glyph glyph-name="uni2113" unicode="&#x2113;" horiz-adv-x="1124" 
d="M662 1583q132 0 204 -78t72 -219q0 -161 -94 -321.5t-277 -298.5v-326q0 -152 78 -152q55 0 98 89t80 274l178 -35q-56 -275 -154.5 -412t-246.5 -137q-142 0 -215.5 89.5t-73.5 265.5v186q-103 -52 -198 -88l-72 164q140 55 270 131v432q0 111 28.5 197t78 137
t111.5 76.5t133 25.5zM567 911q178 184 178 373q0 129 -77 129q-47 0 -74 -55.5t-27 -167.5v-279z" />
    <glyph glyph-name="uni2116" unicode="&#x2116;" horiz-adv-x="2211" 
d="M1024 0l-498 915v-573v-342h-379v342v866v342h383l498 -907v565v342h377v-342v-1208h-381zM1497 1284q0 130 92 213.5t244 83.5t244 -83.5t92 -213.5q0 -131 -92 -215t-244 -84t-244 84t-92 215zM1712 1284q0 -54 33.5 -86.5t87.5 -32.5q53 0 86 32.5t33 86.5
q0 51 -33.5 84t-85.5 33q-54 0 -87.5 -33t-33.5 -84z" />
    <glyph glyph-name="uni2117" unicode="&#x2117;" horiz-adv-x="890" 
d="M311 1053v37v210v89v4h158q137 0 137 -109q0 -113 -151 -113h-37v-81v-37v-2h-107v2zM92 1214q0 156 95.5 249t256.5 93t258 -93.5t97 -248.5t-97 -247.5t-258 -92.5t-256.5 92.5t-95.5 247.5zM190 1214q0 -118 68 -187t186 -69t187 69.5t69 186.5q0 118 -69 188.5
t-187 70.5t-186 -70.5t-68 -188.5zM418 1241h35q49 0 49 41q0 35 -49 35h-35v-76z" />
    <glyph glyph-name="trademark" unicode="&#x2122;" horiz-adv-x="1675" 
d="M1114 905l-153 330v-180v-131v-9h-209v9v133v381v102v10h239l166 -372l164 372h240v-12v-102v-381v-131v-9h-218v9v131v176l-147 -326h-82zM43 1366v184h629v-184q-80 2 -183 2h-14v-311v-133v-9h-235v9v133v311h-15q-104 0 -182 -2z" />
    <glyph glyph-name="estimated" unicode="&#x212e;" horiz-adv-x="1656" 
d="M854 -33q-157 0 -298 53t-246 146.5t-166.5 230.5t-61.5 297q0 157 62 292t167 226.5t246 143t297 51.5q199 0 360 -87.5t257 -251t104 -374.5h-1213v-495q203 -187 492 -187q364 0 580 295h69q-106 -161 -276 -250.5t-373 -89.5zM362 743h928v453q-183 168 -436 168
q-293 0 -492 -186v-435z" />
    <glyph glyph-name="oneeighth" unicode="&#x215b;" horiz-adv-x="2291" 
d="M266 653v342v174q-72 -89 -250 -98v252q131 1 217 73t107 179h254v-580v-342h-328zM209 0l1196 1550h328l-1196 -1550h-328zM1245 256q0 96 78 159.5t215 82.5q-123 11 -187.5 67.5t-64.5 132.5q0 119 118.5 181.5t336.5 62.5q220 0 338.5 -62.5t118.5 -181.5
q0 -76 -64 -132.5t-186 -67.5q138 -19 215.5 -82t77.5 -160q0 -137 -129.5 -209t-368.5 -72q-238 0 -368 72t-130 209zM1571 285q0 -105 172 -105t172 105q0 108 -172 108t-172 -108zM1593 668q0 -45 41.5 -67.5t108.5 -22.5t108 22.5t41 67.5t-42 66.5t-107 21.5
t-107.5 -21.5t-42.5 -66.5z" />
    <glyph glyph-name="threeeighths" unicode="&#x215c;" horiz-adv-x="2547" 
d="M516 629q-205 0 -327 93t-144 271h297q19 -135 164 -135q127 0 127 98q0 41 -28.5 61.5t-92.5 20.5h-102v176h102q57 0 85 26.5t28 64.5q0 33 -30.5 53t-84.5 20q-152 0 -170 -110h-295q23 159 153.5 244t344.5 85q188 0 301.5 -64t113.5 -192q0 -82 -69.5 -134.5
t-175.5 -65.5q52 -5 96.5 -18.5t84 -38.5t62.5 -66.5t23 -95.5q0 -95 -66 -163t-168.5 -99t-228.5 -31zM465 0l1196 1550h328l-1196 -1550h-328zM1501 256q0 96 78 159.5t215 82.5q-123 11 -187.5 67.5t-64.5 132.5q0 119 118.5 181.5t336.5 62.5q220 0 338.5 -62.5
t118.5 -181.5q0 -76 -64 -132.5t-186 -67.5q138 -19 215.5 -82t77.5 -160q0 -137 -129.5 -209t-368.5 -72q-238 0 -368 72t-130 209zM1827 285q0 -105 172 -105t172 105q0 108 -172 108t-172 -108zM1849 668q0 -45 41.5 -67.5t108.5 -22.5t108 22.5t41 67.5t-42 66.5
t-107 21.5t-107.5 -21.5t-42.5 -66.5z" />
    <glyph glyph-name="fiveeighths" unicode="&#x215d;" horiz-adv-x="2592" 
d="M537 631q-203 0 -330.5 90.5t-149.5 257.5h291q25 -143 178 -143q74 0 108 33.5t34 86.5q0 61 -37.5 93t-110.5 32q-96 0 -151 -55l-256 82l82 467h739v-234h-526l-29 -163q110 75 278 75q154 0 246 -76.5t92 -213.5q0 -156 -127.5 -244t-330.5 -88zM510 0l1196 1550h328
l-1196 -1550h-328zM1546 256q0 96 78 159.5t215 82.5q-123 11 -187.5 67.5t-64.5 132.5q0 119 118.5 181.5t336.5 62.5q220 0 338.5 -62.5t118.5 -181.5q0 -76 -64 -132.5t-186 -67.5q138 -19 215.5 -82t77.5 -160q0 -137 -129.5 -209t-368.5 -72q-238 0 -368 72t-130 209z
M1872 285q0 -105 172 -105t172 105q0 108 -172 108t-172 -108zM1894 668q0 -45 41.5 -67.5t108.5 -22.5t108 22.5t41 67.5t-42 66.5t-107 21.5t-107.5 -21.5t-42.5 -66.5z" />
    <glyph glyph-name="seveneighths" unicode="&#x215e;" horiz-adv-x="2312" 
d="M82 655l438 662h-479v258h846l2 -170l-451 -750h-356zM229 0l1196 1550h328l-1196 -1550h-328zM1266 256q0 96 78 159.5t215 82.5q-123 11 -187.5 67.5t-64.5 132.5q0 119 118 181.5t336 62.5q220 0 338.5 -62.5t118.5 -181.5q0 -76 -64 -132.5t-186 -67.5
q138 -19 215.5 -82t77.5 -160q0 -137 -129.5 -209t-368.5 -72q-238 0 -367.5 72t-129.5 209zM1591 285q0 -105 172 -105t172 105q0 108 -172 108t-172 -108zM1614 668q0 -45 41 -67.5t108 -22.5t108.5 22.5t41.5 67.5t-42.5 66.5t-107.5 21.5t-107 -21.5t-42 -66.5z" />
    <glyph glyph-name="arrowleft" unicode="&#x2190;" horiz-adv-x="1466" 
d="M723 12l-649 516l649 516l123 -145l-357 -268h887v-205h-884l354 -266z" />
    <glyph glyph-name="arrowup" unicode="&#x2191;" horiz-adv-x="1193" 
d="M1114 608l-147 -123l-267 355v-885h-204v887l-269 -357l-145 123l516 649z" />
    <glyph glyph-name="arrowright" unicode="&#x2192;" horiz-adv-x="1466" 
d="M743 12l-122 148l354 266h-885v205h887l-356 268l122 145l650 -516z" />
    <glyph glyph-name="arrowdown" unicode="&#x2193;" horiz-adv-x="1193" 
d="M1114 625l-516 -650l-516 650l145 123l269 -357v887h204v-885l267 355z" />
    <glyph glyph-name="arrowboth" unicode="&#x2194;" horiz-adv-x="1812" 
d="M711 12l-641 516l641 516l123 -145l-351 -268h846l-352 268l123 145l643 -516l-643 -516l-123 148l350 266h-842l349 -266z" />
    <glyph glyph-name="arrowupdn" unicode="&#x2195;" horiz-adv-x="1210" 
d="M90 981l516 641l516 -641l-145 -123l-268 350v-846l268 353l145 -123l-516 -643l-516 643l148 123l266 -350v841l-266 -348z" />
    <glyph glyph-name="uni2196" unicode="&#x2196;" horiz-adv-x="1118" 
d="M176 162l-94 823l823 -94l-16 -189l-443 62l629 -627l-145 -145l-627 629l64 -441z" />
    <glyph glyph-name="uni2197" unicode="&#x2197;" horiz-adv-x="1118" 
d="M934 162l-191 18l62 438l-625 -626l-145 145l627 627l-441 -62l-16 189l823 94z" />
    <glyph glyph-name="uni2198" unicode="&#x2198;" horiz-adv-x="1118" 
d="M944 838l94 -824l-825 95l16 190l443 -61l-627 626l143 144l627 -627l-63 440z" />
    <glyph glyph-name="uni2199" unicode="&#x2199;" horiz-adv-x="1118" 
d="M176 834l191 -19l-64 -440l627 626l145 -143l-629 -627l443 62l16 -191l-823 -94z" />
    <glyph glyph-name="partialdiff" unicode="&#x2202;" horiz-adv-x="1501" 
d="M670 -39q-282 0 -436 137.5t-154 368.5q0 243 150 388.5t388 145.5q235 0 359 -167q-72 415 -635 421l78 316q204 -2 370.5 -46t282 -120.5t194.5 -182t115.5 -228t36.5 -261.5q0 -128 -28 -241.5t-87.5 -211.5t-146.5 -168.5t-211.5 -110.5t-275.5 -40zM522 465
q0 -88 47.5 -139.5t130.5 -51.5q234 0 277 287q-21 78 -80 118t-135 40q-105 0 -172.5 -69t-67.5 -185z" />
    <glyph glyph-name="uni2206" unicode="&#x2206;" horiz-adv-x="1437" 
d="M-8 0v297l500 1253h462l494 -1253v-297h-1456zM401 301h623l-307 875z" />
    <glyph glyph-name="product" unicode="&#x220f;" horiz-adv-x="1839" 
d="M332 1206h-271v344h1717v-344h-273v-1546h-428v1546h-315v-1546h-430v1546z" />
    <glyph glyph-name="summation" unicode="&#x2211;" horiz-adv-x="1325" 
d="M59 -223v346l514 557l-475 530v340h1157v-323q-230 15 -436 12l-332 -2l439 -502v-98l-518 -545l847 -2v-313h-1196z" />
    <glyph glyph-name="minus" unicode="&#x2212;" horiz-adv-x="1173" 
d="M90 375v303h993v-303h-993z" />
    <glyph glyph-name="uni2219" unicode="&#x2219;" horiz-adv-x="1226" 
d="M614 520q-115 0 -193.5 78.5t-78.5 194.5q0 114 78.5 192t193.5 78q114 0 192.5 -78t78.5 -192q0 -115 -78.5 -194t-192.5 -79z" />
    <glyph glyph-name="radical" unicode="&#x221a;" horiz-adv-x="1464" 
d="M526 -340l-280 829h-248v277l545 2l200 -670l543 1641h316l-701 -2079h-375z" />
    <glyph glyph-name="infinity" unicode="&#x221e;" horiz-adv-x="2314" 
d="M1718 18q-151 0 -279 68t-288 231q-164 -163 -286.5 -231t-268.5 -68q-96 0 -176.5 30.5t-143 91t-98 159.5t-35.5 227t35.5 227.5t98 160t143 91.5t176.5 31q146 0 268.5 -68.5t286.5 -232.5q160 163 288 232t277 69q96 0 177.5 -31t144 -91.5t98 -160t35.5 -227.5
t-35.5 -227t-98 -159.5t-143 -91t-176.5 -30.5zM438 526q0 -66 16 -113.5t43 -72.5t57 -36t64 -11q77 0 143 41.5t157 142.5l45 51l-45 50q-89 101 -155 142.5t-142 41.5q-35 0 -65.5 -11t-58 -36.5t-43.5 -73.5t-16 -115zM1350 526l47 -49q94 -102 158.5 -143t138.5 -41
q34 0 64 11t57 36t43 72.5t16 113.5q0 67 -16 115t-43 73t-57 36.5t-64 11.5q-74 0 -138.5 -41t-158.5 -143z" />
    <glyph glyph-name="integral" unicode="&#x222b;" horiz-adv-x="835" 
d="M-82 -430v262h90q91 0 132 43.5t48 151.5l78 1253q15 235 133.5 345t345.5 110h173v-262h-99q-83 0 -119.5 -44.5t-44.5 -150.5l-77 -1253q-17 -235 -140 -345t-356 -110h-164z" />
    <glyph glyph-name="approxequal" unicode="&#x2248;" horiz-adv-x="1251" 
d="M51 561q0 221 89 332t245 111q57 0 119.5 -24t109 -53t106 -53t111.5 -24q58 0 86.5 42.5t28.5 111.5h254q0 -221 -88.5 -332t-243.5 -111q-62 0 -127 24t-111.5 53t-103.5 53t-104 24q-60 0 -88.5 -43t-28.5 -111h-254zM51 29q0 221 89 331.5t245 110.5q57 0 119.5 -24
t109 -53t106 -53t111.5 -24q58 0 86.5 42.5t28.5 111.5h254q0 -220 -88.5 -331t-243.5 -111q-62 0 -127 24t-111.5 52.5t-103.5 52.5t-104 24q-60 0 -88.5 -42.5t-28.5 -110.5h-254z" />
    <glyph glyph-name="notequal" unicode="&#x2260;" horiz-adv-x="1173" 
d="M328 -63l-117 59l104 178h-225v277h387l90 153h-477v279h641l141 241l119 -61l-106 -180h198v-279h-362l-90 -153h452v-277h-616z" />
    <glyph glyph-name="lessequal" unicode="&#x2264;" horiz-adv-x="1177" 
d="M1081 0h-993v244h778l-776 258v239l991 330v-285l-569 -163l569 -164v-459z" />
    <glyph glyph-name="greaterequal" unicode="&#x2265;" horiz-adv-x="1177" 
d="M96 459l570 164l-570 163v285l991 -330v-239l-776 -258h779v-244h-994v459z" />
    <glyph glyph-name="uni2460" unicode="&#x2460;" horiz-adv-x="1929" 
d="M965 -23q-260 0 -456.5 99.5t-303.5 285t-107 431.5q0 245 107 429.5t303.5 284t456.5 99.5t456 -99.5t303 -284t107 -429.5q0 -246 -107 -431.5t-303 -285t-456 -99.5zM272 793q0 -299 189 -478.5t504 -179.5t503.5 179.5t188.5 478.5t-188 476t-504 177t-504.5 -177
t-188.5 -476zM592 745v252q131 1 216.5 73t106.5 179h254v-579v-342h-327v342v174q-73 -90 -250 -99z" />
    <glyph glyph-name="uni2461" unicode="&#x2461;" horiz-adv-x="1929" 
d="M965 -23q-260 0 -456.5 99.5t-303.5 285t-107 431.5q0 245 107 429.5t303.5 284t456.5 99.5t456 -99.5t303 -284t107 -429.5q0 -246 -107 -431.5t-303 -285t-456 -99.5zM272 793q0 -299 189 -478.5t504 -179.5t503.5 179.5t188.5 478.5t-188 476t-504 177t-504.5 -177
t-188.5 -476zM510 913q6 76 37.5 142.5t87.5 121.5t146.5 87t205.5 32q116 0 206.5 -29.5t147 -95t56.5 -159.5q0 -49 -16.5 -90t-39.5 -68.5t-66 -56t-76.5 -45t-90.5 -41.5q-97 -44 -141 -68.5t-60 -48.5h494v-244h-871v27q0 71 17.5 131t44 102t70.5 80.5t83.5 63
t96.5 53.5q146 72 181 99q50 38 50 87q0 40 -27.5 62t-76.5 22q-70 0 -108 -44.5t-38 -119.5h-313z" />
    <glyph glyph-name="uni2462" unicode="&#x2462;" horiz-adv-x="1929" 
d="M965 -23q-260 0 -456.5 99.5t-303.5 285t-107 431.5q0 245 107 429.5t303.5 284t456.5 99.5t456 -99.5t303 -284t107 -429.5q0 -246 -107 -431.5t-303 -285t-456 -99.5zM272 793q0 -299 189 -478.5t504 -179.5t503.5 179.5t188.5 478.5t-188 476t-504 177t-504.5 -177
t-188.5 -476zM489 670h297q19 -135 164 -135q127 0 127 98q0 41 -28.5 61.5t-92.5 20.5h-102v176h102q57 0 85 26t28 64q0 33 -30.5 53.5t-84.5 20.5q-66 0 -113 -26t-57 -85h-295q23 159 153.5 244.5t344.5 85.5q188 0 302 -64t114 -192q0 -82 -70 -135t-176 -66
q52 -5 96.5 -18.5t84 -38.5t62.5 -66.5t23 -95.5q0 -95 -65.5 -162.5t-168 -99t-228.5 -31.5q-205 0 -327.5 93.5t-144.5 271.5z" />
    <glyph glyph-name="uni2463" unicode="&#x2463;" horiz-adv-x="1929" 
d="M965 -23q-260 0 -456.5 99.5t-303.5 285t-107 431.5q0 245 107 429.5t303.5 284t456.5 99.5t456 -99.5t303 -284t107 -429.5q0 -246 -107 -431.5t-303 -285t-456 -99.5zM272 793q0 -299 189 -478.5t504 -179.5t503.5 179.5t188.5 478.5t-188 476t-504 177t-504.5 -177
t-188.5 -476zM444 504v182l553 578h293v-539h174v-221h-174v-19v-139v-4h-313v4v139v19h-533zM717 725h260v279z" />
    <glyph glyph-name="uni2464" unicode="&#x2464;" horiz-adv-x="1929" 
d="M965 -23q-260 0 -456.5 99.5t-303.5 285t-107 431.5q0 245 107 429.5t303.5 284t456.5 99.5t456 -99.5t303 -284t107 -429.5q0 -246 -107 -431.5t-303 -285t-456 -99.5zM272 793q0 -299 189 -478.5t504 -179.5t503.5 179.5t188.5 478.5t-188 476t-504 177t-504.5 -177
t-188.5 -476zM473 651h291q25 -143 178 -143q74 0 107.5 34t33.5 87q0 125 -147 125q-96 0 -152 -56l-256 82l82 467h740v-233h-527l-28 -164q112 76 278 76q154 0 246 -77t92 -214q0 -156 -127.5 -244t-331.5 -88q-203 0 -330 90.5t-149 257.5z" />
    <glyph glyph-name="uni2465" unicode="&#x2465;" horiz-adv-x="1929" 
d="M965 -23q-260 0 -456.5 99.5t-303.5 285t-107 431.5q0 245 107 429.5t303.5 284t456.5 99.5t456 -99.5t303 -284t107 -429.5q0 -246 -107 -431.5t-303 -285t-456 -99.5zM272 793q0 -299 189 -478.5t504 -179.5t503.5 179.5t188.5 478.5t-188 476t-504 177t-504.5 -177
t-188.5 -476zM487 788q0 140 55.5 250.5t170.5 177t274 66.5q174 0 288.5 -80t143.5 -225h-286q-8 44 -46 73t-98 29q-178 0 -194 -239q-3 -32 0 -64q37 77 123 119.5t190 42.5q142 0 227.5 -78t85.5 -211q0 -150 -116.5 -243t-333.5 -93q-229 0 -356.5 130t-127.5 345z
M819 633q38 -113 148 -113q63 0 98 33t35 92q0 56 -35 85.5t-94 29.5q-56 0 -99.5 -35t-52.5 -92z" />
    <glyph glyph-name="uni2466" unicode="&#x2466;" horiz-adv-x="1929" 
d="M965 -23q-260 0 -456.5 99.5t-303.5 285t-107 431.5q0 245 107 429.5t303.5 284t456.5 99.5t456 -99.5t303 -284t107 -429.5q0 -246 -107 -431.5t-303 -285t-456 -99.5zM272 793q0 -299 189 -478.5t504 -179.5t503.5 179.5t188.5 478.5t-188 476t-504 177t-504.5 -177
t-188.5 -476zM571 973v258h846l2 -170l-450 -750h-357l439 662h-480z" />
    <glyph glyph-name="uni2467" unicode="&#x2467;" horiz-adv-x="1929" 
d="M965 -23q-260 0 -456.5 99.5t-303.5 285t-107 431.5q0 245 107 429.5t303.5 284t456.5 99.5t456 -99.5t303 -284t107 -429.5q0 -246 -107 -431.5t-303 -285t-456 -99.5zM272 793q0 -299 189 -478.5t504 -179.5t503.5 179.5t188.5 478.5t-188 476t-504 177t-504.5 -177
t-188.5 -476zM467 596q0 96 78 159.5t215 82.5q-123 11 -187.5 67.5t-64.5 132.5q0 119 118.5 181.5t336.5 62.5q220 0 338 -62.5t118 -181.5q0 -76 -64 -132.5t-186 -67.5q138 -19 215.5 -82t77.5 -160q0 -137 -129 -209t-368 -72q-238 0 -368 72t-130 209zM793 625
q0 -105 172 -105t172 105q0 108 -172 108t-172 -108zM815 1008q0 -45 41.5 -67.5t108.5 -22.5t108 22.5t41 67.5t-42 66.5t-107 21.5t-107.5 -21.5t-42.5 -66.5z" />
    <glyph glyph-name="uni2468" unicode="&#x2468;" horiz-adv-x="1929" 
d="M965 -23q-260 0 -456.5 99.5t-303.5 285t-107 431.5q0 245 107 429.5t303.5 284t456.5 99.5t456 -99.5t303 -284t107 -429.5q0 -246 -107 -431.5t-303 -285t-456 -99.5zM272 793q0 -299 189 -478.5t504 -179.5t503.5 179.5t188.5 478.5t-188 476t-504 177t-504.5 -177
t-188.5 -476zM498 940q0 150 116.5 243t333.5 93q229 0 357.5 -130t128.5 -345q0 -139 -55.5 -249.5t-170.5 -177.5t-274 -67q-176 0 -289.5 79.5t-142.5 225.5h286q8 -44 45 -72t99 -28q175 0 194 238v65q-37 -78 -123.5 -120t-191.5 -42q-142 0 -227.5 77.5t-85.5 209.5z
M819 944q0 -55 35.5 -85t93.5 -30q56 0 100.5 35t53.5 92q-38 113 -150 113q-63 0 -98 -33t-35 -92z" />
    <glyph glyph-name="uni24EA" unicode="&#x24ea;" horiz-adv-x="1929" 
d="M965 -23q-260 0 -456.5 99.5t-303.5 285t-107 431.5q0 245 107 429.5t303.5 284t456.5 99.5t456 -99.5t303 -284t107 -429.5q0 -246 -107 -431.5t-303 -285t-456 -99.5zM272 793q0 -299 189 -478.5t504 -179.5t503.5 179.5t188.5 478.5t-188 476t-504 177t-504.5 -177
t-188.5 -476zM461 788q0 220 133.5 353t372.5 133t372.5 -133t133.5 -353t-133.5 -352.5t-372.5 -132.5t-372.5 132.5t-133.5 352.5zM778 788q0 -117 49 -183t140 -66t139.5 66t48.5 183q0 116 -48.5 182t-139.5 66t-140 -66t-49 -182z" />
    <glyph glyph-name="uni24FF" unicode="&#x24ff;" horiz-adv-x="1929" 
d="M965 -23q260 0 456 99.5t303 285t107 431.5q0 245 -107 429.5t-303 284t-456 99.5t-456.5 -99.5t-303.5 -284t-107 -429.5q0 -246 107 -431.5t303.5 -285t456.5 -99.5zM459 805q0 220 133.5 352.5t372.5 132.5t372 -132.5t133 -352.5t-133.5 -353t-371.5 -133
q-239 0 -372.5 133t-133.5 353zM776 805q0 -117 49 -183.5t140 -66.5t139.5 66.5t48.5 183.5q0 116 -48.5 182t-139.5 66t-140 -66t-49 -182z" />
    <glyph glyph-name="lozenge" unicode="&#x25ca;" horiz-adv-x="1232" 
d="M571 -4l-469 778l469 778h91l468 -778l-468 -778h-91zM328 774l288 -479l289 479l-289 479z" />
    <glyph glyph-name="circle" unicode="&#x25cb;" horiz-adv-x="1929" 
d="M965 -23q-260 0 -456.5 99.5t-303.5 285t-107 431.5q0 245 107 429.5t303.5 284t456.5 99.5t456 -99.5t303 -284t107 -429.5q0 -246 -107 -431.5t-303 -285t-456 -99.5zM272 793q0 -299 189 -478.5t504 -179.5t503.5 179.5t188.5 478.5t-188 476t-504 177t-504.5 -177
t-188.5 -476z" />
    <glyph glyph-name="uni25CF" unicode="&#x25cf;" horiz-adv-x="1929" 
d="M965 -23q260 0 456 99.5t303 285t107 431.5q0 245 -107 429.5t-303 284t-456 99.5t-456.5 -99.5t-303.5 -284t-107 -429.5q0 -246 107 -431.5t303.5 -285t456.5 -99.5z" />
    <glyph glyph-name="uni2733" unicode="&#x2733;" horiz-adv-x="1550" 
d="M389 160l-231 229l508 342l-600 -119v326l602 -121l-510 342l231 232l342 -510l-119 602h326l-119 -602l342 510l232 -232l-510 -340l600 119v-326l-596 117l506 -340l-232 -229l-342 512l119 -606h-326l119 606z" />
    <glyph glyph-name="uni2776" unicode="&#x2776;" horiz-adv-x="1929" 
d="M965 -23q260 0 456 99.5t303 285t107 431.5q0 245 -107 429.5t-303 284t-456 99.5t-456.5 -99.5t-303.5 -284t-107 -429.5q0 -246 107 -431.5t303.5 -285t456.5 -99.5zM582 762v252q131 1 216.5 73t106.5 179h254v-580v-342h-328v342v174q-72 -89 -249 -98z" />
    <glyph glyph-name="uni2777" unicode="&#x2777;" horiz-adv-x="1929" 
d="M965 -23q260 0 456 99.5t303 285t107 431.5q0 245 -107 429.5t-303 284t-456 99.5t-456.5 -99.5t-303.5 -284t-107 -429.5q0 -246 107 -431.5t303.5 -285t456.5 -99.5zM520 907q6 76 37.5 142.5t87.5 121.5t146.5 87t205.5 32q116 0 206.5 -29.5t147 -95t56.5 -159.5
q0 -49 -16.5 -90t-39.5 -68.5t-66 -56t-76.5 -45t-90.5 -41.5q-96 -43 -140 -68t-60 -49h493v-244h-870v27q0 71 17.5 131t44 102t70 80.5t83.5 63t96 53.5q146 72 181 99q50 38 50 87q0 40 -27.5 62t-76.5 22q-70 0 -107.5 -44.5t-37.5 -119.5h-314z" />
    <glyph glyph-name="uni2778" unicode="&#x2778;" horiz-adv-x="1929" 
d="M965 -23q260 0 456 99.5t303 285t107 431.5q0 245 -107 429.5t-303 284t-456 99.5t-456.5 -99.5t-303.5 -284t-107 -429.5q0 -246 107 -431.5t303.5 -285t456.5 -99.5zM489 672h297q19 -135 164 -135q127 0 127 98q0 41 -28.5 61.5t-92.5 20.5h-102v176h102q57 0 85 26
t28 64q0 33 -30.5 53.5t-84.5 20.5q-66 0 -113 -26t-57 -85h-295q23 159 153.5 244.5t344.5 85.5q188 0 302 -64t114 -192q0 -82 -70 -135t-176 -66q52 -5 96.5 -18.5t84 -38.5t62.5 -66.5t23 -95.5q0 -95 -65.5 -162.5t-168 -99t-228.5 -31.5q-205 0 -327.5 93.5
t-144.5 271.5z" />
    <glyph glyph-name="uni2779" unicode="&#x2779;" horiz-adv-x="1929" 
d="M965 -23q260 0 456 99.5t303 285t107 431.5q0 245 -107 429.5t-303 284t-456 99.5t-456.5 -99.5t-303.5 -284t-107 -429.5q0 -246 107 -431.5t303.5 -285t456.5 -99.5zM373 514v182l553 578h293v-539h174v-221h-174v-18v-140v-4h-314v4v140v18h-532zM645 735h260v279z
" />
    <glyph glyph-name="uni277A" unicode="&#x277a;" horiz-adv-x="1929" 
d="M965 -23q260 0 456 99.5t303 285t107 431.5q0 245 -107 429.5t-303 284t-456 99.5t-456.5 -99.5t-303.5 -284t-107 -429.5q0 -246 107 -431.5t303.5 -285t456.5 -99.5zM487 655h291q25 -143 178 -143q74 0 108 34t34 87q0 61 -37.5 93t-110.5 32q-95 0 -151 -56l-256 82
l82 467h739v-233h-526l-29 -164q112 76 278 76q154 0 246 -77t92 -214q0 -156 -127.5 -244t-330.5 -88t-330.5 90.5t-149.5 257.5z" />
    <glyph glyph-name="uni277B" unicode="&#x277b;" horiz-adv-x="1929" 
d="M965 -23q260 0 456 99.5t303 285t107 431.5q0 245 -107 429.5t-303 284t-456 99.5t-456.5 -99.5t-303.5 -284t-107 -429.5q0 -246 107 -431.5t303.5 -285t456.5 -99.5zM498 782q0 216 131 355t368 139q175 0 289.5 -80t143.5 -225h-287q-8 44 -46 73t-98 29
q-178 0 -194 -239q-3 -32 0 -64q37 77 123 119.5t190 42.5q142 0 228 -78t86 -211q0 -150 -117 -243t-334 -93q-229 0 -356 130t-127 345zM829 627q38 -113 148 -113q63 0 98 33t35 92q0 56 -35 85.5t-94 29.5q-56 0 -99.5 -35t-52.5 -92z" />
    <glyph glyph-name="uni277C" unicode="&#x277c;" horiz-adv-x="1929" 
d="M965 -23q260 0 456 99.5t303 285t107 431.5q0 245 -107 429.5t-303 284t-456 99.5t-456.5 -99.5t-303.5 -284t-107 -429.5q0 -246 107 -431.5t303.5 -285t456.5 -99.5zM571 973v258h846l2 -170l-450 -750h-357l439 662h-480z" />
    <glyph glyph-name="uni277D" unicode="&#x277d;" horiz-adv-x="1929" 
d="M965 -23q260 0 456 99.5t303 285t107 431.5q0 245 -107 429.5t-303 284t-456 99.5t-456.5 -99.5t-303.5 -284t-107 -429.5q0 -246 107 -431.5t303.5 -285t456.5 -99.5zM467 575q0 96 78 159.5t215 82.5q-122 11 -187 68t-65 133q0 119 118.5 181.5t336.5 62.5
q220 0 338 -62.5t118 -181.5q0 -76 -64 -133t-186 -68q138 -19 215.5 -82t77.5 -160q0 -137 -128.5 -208.5t-368.5 -71.5q-239 0 -368.5 71.5t-129.5 208.5zM793 604q0 -104 172 -104t172 104q0 56 -46.5 82.5t-125.5 26.5t-125.5 -26.5t-46.5 -82.5zM815 987
q0 -45 41.5 -67.5t108.5 -22.5t108 22.5t41 67.5t-42 66.5t-107 21.5t-107.5 -21.5t-42.5 -66.5z" />
    <glyph glyph-name="uni277E" unicode="&#x277e;" horiz-adv-x="1929" 
d="M965 -23q260 0 456 99.5t303 285t107 431.5q0 245 -107 429.5t-303 284t-456 99.5t-456.5 -99.5t-303.5 -284t-107 -429.5q0 -246 107 -431.5t303.5 -285t456.5 -99.5zM508 928q0 150 116.5 243t333.5 93q229 0 357.5 -130.5t128.5 -345.5q0 -104 -32.5 -193t-94 -156
t-157.5 -105.5t-216 -38.5q-176 0 -289.5 79.5t-142.5 225.5h287q8 -44 44.5 -72t98.5 -28q177 0 195 237v66q-37 -78 -124 -120t-192 -42q-142 0 -227.5 77.5t-85.5 209.5zM829 932q0 -55 35.5 -85t93.5 -30q56 0 100.5 35t53.5 92q-38 113 -149 113q-63 0 -98.5 -33
t-35.5 -92z" />
    <glyph glyph-name="uni3010" unicode="&#x3010;" horiz-adv-x="962" 
d="M145 -270v1933h715q-282 -163 -426.5 -413t-144.5 -554t144.5 -553.5t426.5 -412.5h-715z" />
    <glyph glyph-name="uni3011" unicode="&#x3011;" horiz-adv-x="962" 
d="M817 1663v-1933h-715q282 164 427 413t145 553t-145 554t-427 413h715z" />
    <glyph glyph-name="uni3016" unicode="&#x3016;" horiz-adv-x="1157" 
d="M145 -270v1933h910q-280 -163 -424 -413t-144 -554t144 -554t424 -412h-910zM256 -184h528q-204 164 -305.5 389t-101.5 491t102 491.5t305 389.5h-528v-1761z" />
    <glyph glyph-name="uni3017" unicode="&#x3017;" horiz-adv-x="1157" 
d="M102 -270q280 162 424 412t144 554t-144 554t-424 413h910v-1933h-910zM373 -184h528v1761h-528q203 -164 305 -389.5t102 -491.5t-101.5 -491t-305.5 -389z" />
    <glyph glyph-name="fi" unicode="&#xfb01;" horiz-adv-x="1519" 
d="M236 0v342v391h-197v293h197q6 284 159.5 435t415.5 151q241 0 394.5 -124t183.5 -319h-361q-24 78 -69 124t-132 46q-178 0 -178 -223q0 -51 2 -90h760v-684v-342h-424v342v391h-332l2 -391q2 -106 2 -342h-423z" />
    <glyph glyph-name="u1F150" unicode="&#x1f150;" horiz-adv-x="1259" 
d="M631 578q-138 0 -253.5 64.5t-183 179.5t-67.5 257t67.5 257.5t183 180t253.5 64.5t253 -64.5t182 -180t67 -257.5t-67 -257t-182 -179.5t-253 -64.5z" />
    <glyph glyph-name="u1F446" unicode="&#x1f446;" horiz-adv-x="1894" 
d="M205 565q-7 82 39 133q25 28 57.5 46t44.5 30q4 12 -1 43t-3 51q10 72 71.5 117t127.5 6q-14 68 28 129.5t109 71.5q68 11 124 -35.5t93 -120.5q3 84 3.5 170.5t-0.5 205t-1 167.5q0 125 4 186q0 50 29 97q1 16 5 31.5t14 34t31.5 29t51.5 9.5q21 -1 35.5 -7.5t25 -22
t14 -24t11.5 -30.5q40 -40 49 -135q4 -50 13 -215q10 -206 49 -606q29 113 96 180q63 63 178 86q71 13 117 0q12 19 27.5 28.5t28 4t14.5 -28.5q3 -51 -30 -128t-71 -138q-30 -47 -45 -78q-18 -48 -31 -125q-23 -128 -28 -227q-11 -148 -36.5 -244t-84.5 -195
q-23 -39 -58 -84.5t-59 -83t-37 -79.5q-33 -112 -43 -162q55 -1 70.5 -33t9.5 -117q-4 -38 -6 -80.5t-3.5 -94.5t-2.5 -81q-28 -27 -65 -46t-81 -29t-75.5 -14.5t-75.5 -8.5q-224 -15 -346 10q-33 7 -55 12.5t-55 16.5t-56 23t-46.5 31.5t-37.5 43.5q-10 16 -14 31t-4 22.5
t2.5 29t3.5 30.5l8 108q2 33 12 74l8 33q3 6 8.5 18.5t11 22t11.5 14.5q10 13 25 17q-8 43 -20 84t-33.5 103.5t-28.5 84.5q-57 172 -70 319q-2 21 -3 75t-7 81q-4 25 -24.5 67t-22.5 66zM240 590q0 -55 39 -127q79 -159 196 -172q-3 19 28 56t60 40q0 6 -4 10
q-89 93 -119 172q-5 14 -15.5 44t-17.5 48t-20 41.5t-29 40.5q-52 -31 -59 -38q-59 -59 -59 -115zM287 387q3 -107 18 -188q6 -30 51 -217q10 -43 39 -119t45.5 -141.5t12.5 -127.5q164 -58 356 -65q204 -8 340 57q-1 20 -1.5 34.5t0 30t0.5 23.5t3 24t3.5 21t6 25t7.5 25.5
t10.5 32.5t11.5 38q14 45 38.5 84.5t57 80t43.5 58.5q36 55 64 134q50 143 59 319q5 82 27 207q15 110 47 176q4 7 18 29t17 33q-20 25 -14 64.5t22 73.5t37 62q-31 4 -70 0q-86 -8 -154 -53t-100 -117q-34 -73 -63 -178q-4 -15 -15.5 -83t-27.5 -101l-37 -99h-11
q3 27 19 67.5t20 55.5q9 35 9 68q0 20 4 41.5t11.5 52t10.5 43.5q-6 109 -23 296.5t-22 260.5q-18 238 -18 240q-2 118 -23.5 167t-79.5 50q-53 2 -80.5 -38t-27.5 -122v-428q0 -257 -6 -342q0 -10 -2 -39.5t-2 -43t2 -36t8 -41.5q6 -21 31.5 -62t33.5 -67
q10 -32 15.5 -66.5t2.5 -69t-18 -48.5q-27 -27 -76.5 -21t-70.5 37q-23 -62 -34.5 -99.5t-21.5 -94.5t-6 -107q5 -75 35 -138.5t86 -92.5v-12q-63 29 -98 94t-43 143q-11 129 47 318l-37 22q5 -76 -49 -127t-127 -18q9 -42 -16 -78q-32 -29 -79.5 -35t-82.5 10
q-75 33 -133 117zM373 846q0 -11 5 -36t3 -40q34 -37 64 -119.5t51 -111.5q5 -7 18.5 -27.5t21.5 -31.5t20.5 -27t25.5 -27t26 -18q-7 20 4 38q15 23 101 48q22 7 26 2q7 39 -6 57q-47 62 -84 182t-63 164q-50 82 -115 76q-42 -6 -70 -40t-28 -89zM575 1067q-4 -12 -6 -23
t0.5 -23.5t3.5 -19t9 -21.5t9.5 -18t12.5 -21t12 -19q23 -36 39.5 -88.5t25.5 -94t31 -89.5t56 -81q38 -38 66 -45q-7 12 -3 29.5t17 24.5l63 36q38 21 58 19q-13 33 -25 45q-54 64 -70 131q-15 56 -22 152h16q11 -58 17 -84q0 27 10 135q-124 204 -248 139q-49 -25 -72 -84
z" />
    <glyph glyph-name="u1F447" unicode="&#x1f447;" horiz-adv-x="1894" 
d="M205 541q2 24 22.5 66t24.5 67q6 27 7 80.5t3 74.5q13 149 70 320q7 22 28.5 84.5t33.5 103.5t20 84q-15 4 -25 17q-6 5 -11.5 14.5t-11 22t-8.5 18.5l-8 33q-10 42 -12 73l-8 109q-1 10 -3 25.5t-2.5 23t0.5 19t5 22t12 23.5q14 24 37.5 43.5t46.5 31.5t56 23t55 16.5
t55 12.5q122 25 346 10q44 -4 75.5 -8.5t75.5 -14.5t81 -29t65 -46q1 -29 2.5 -81t3.5 -94.5t6 -80.5q6 -85 -9.5 -117t-70.5 -33q10 -50 43 -162q17 -56 76.5 -137t77.5 -111q59 -99 84.5 -195t36.5 -243q5 -99 28 -227q13 -77 31 -125q15 -31 45 -78q38 -61 71 -138
t30 -128q-2 -23 -14.5 -28.5t-28 4t-27.5 28.5q-46 -13 -117 0q-115 23 -178 86q-67 67 -96 180q-39 -400 -49 -606q-9 -165 -13 -215q-9 -95 -49 -135q-8 -22 -11.5 -30.5t-14 -24t-25 -22t-35.5 -7.5q-30 -1 -51.5 9.5t-31.5 29t-14 34t-5 31.5q-29 47 -29 97
q-4 61 -4 186q0 49 1 167.5t0.5 205t-3.5 170.5q-37 -74 -93 -120.5t-124 -35.5q-67 10 -109 71.5t-28 129.5q-66 -39 -127.5 6t-71.5 117q-2 20 3 51t1 43q-12 12 -44.5 30t-57.5 46q-46 51 -39 133zM240 516q0 -56 59 -115q9 -9 59 -39q16 17 29 41t20 42t17 48t16 44
q30 79 119 172q4 4 4 10q-29 3 -60 40t-28 56q-117 -13 -196 -172q-39 -72 -39 -127zM287 719q58 84 133 117q35 16 82.5 10t79.5 -35q25 -36 16 -78q73 33 127 -18t49 -127l37 22q-58 189 -47 318q8 78 43 143t98 94v-12q-56 -29 -86 -92.5t-35 -138.5q-4 -50 6 -107
t21.5 -94.5t34.5 -99.5q21 31 70.5 37t76.5 -21q15 -14 18 -48.5t-2.5 -69t-15.5 -66.5q-8 -26 -33.5 -67t-31.5 -62q-6 -19 -8 -41.5t-2 -36t2 -43t2 -39.5q6 -85 6 -342v-428q0 -82 27.5 -122t80.5 -38q58 1 79.5 50t23.5 167q0 2 18 240q5 73 22 260.5t23 296.5
q-3 13 -10.5 43.5t-11.5 52t-4 41.5q0 33 -9 68q-4 15 -20 55.5t-19 66.5h11l37 -98q16 -33 27.5 -101t15.5 -83q29 -105 63 -178q32 -72 100 -117t154 -53q39 -4 70 0q-21 28 -37 62t-22 73.5t14 64.5q-3 11 -17 33t-18 29q-32 66 -47 176q-22 125 -27 207q-9 176 -59 319
q-27 77 -64 133q-11 18 -43.5 58.5t-57 80.5t-38.5 85q-3 11 -11.5 38t-10.5 32.5t-7.5 25.5t-6 25t-3.5 21t-3 24t-0.5 23.5t0 30t1.5 34.5q-136 65 -340 57q-189 -7 -356 -66q4 -62 -12.5 -127t-45.5 -141t-39 -119q-45 -187 -51 -217q-15 -81 -18 -188zM373 260
q0 -55 28 -89t70 -40q65 -6 115 76q26 44 63 164t84 182q13 18 6 57q-4 -5 -26 2q-1 0 -18 5t-25 7.5t-21.5 8t-22.5 12t-14 14.5q-11 19 -4 39q-13 -7 -26 -18t-25.5 -27t-20.5 -27t-21.5 -31.5t-18.5 -27.5q-21 -29 -51 -111.5t-64 -119.5q2 -15 -3 -40t-5 -36zM575 39
q23 -59 72 -84q124 -65 248 139q-10 107 -10 135q-6 -26 -17 -84h-16q7 96 22 152q16 67 70 131q12 12 25 45q-20 -2 -58 19l-63 36q-13 7 -17 24.5t3 29.5q-28 -7 -66 -45q-34 -33 -56 -81t-31 -89.5t-25.5 -94t-39.5 -88.5q-2 -4 -10.5 -17t-11 -17.5t-9 -16.5t-8.5 -18
t-5 -17t-3 -19t1 -19t5 -21z" />
    <glyph glyph-name="u1F448" unicode="&#x1f448;" horiz-adv-x="3233" 
d="M1606 55q-82 -7 -133 39q-28 25 -46 58t-30 45q-12 4 -43 -1t-51 -3q-72 10 -117 71t-6 127q-68 -14 -129.5 28t-71.5 109q-11 68 35.5 124t120.5 93q-93 3 -543 3q-125 0 -186 4q-52 0 -97 28q-16 1 -31.5 5t-34 14.5t-29 32t-9.5 51.5q1 21 7.5 35.5t22 25t24 14
t30.5 11.5q40 40 135 49q14 1 215 12q206 10 606 49q-112 29 -180 97q-63 63 -86 178q-13 71 0 116q-19 12 -28.5 27.5t-4 28t28.5 14.5q52 3 129 -30t137 -70q47 -30 78 -45q48 -18 125 -31q135 -24 227 -29q147 -11 243 -36.5t195 -84.5q29 -17 110.5 -76.5t137.5 -76.5
q112 -33 162 -43q1 55 33 70.5t117 9.5q23 -2 256 -13q27 -28 46 -65t29 -81t14.5 -75.5t8.5 -75.5q15 -224 -10 -346q-9 -41 -16.5 -70t-22 -67t-37 -66.5t-51.5 -45.5q-13 -8 -23.5 -12t-22 -5t-18.5 -1t-23.5 2t-25.5 3l-109 8q-26 2 -73 13l-33 8q-6 3 -18.5 8.5t-22 11
t-14.5 11.5q-14 10 -17 24q-43 -8 -84 -20t-103.5 -33.5t-84.5 -28.5q-167 -55 -320 -69q-20 -2 -74 -3.5t-81 -7.5q-25 -4 -67 -24.5t-66 -22.5zM299 887q-2 -53 38 -81t122 -28h428q257 0 342 -6q10 0 39.5 -2t43 -2t36 2t41.5 8q21 6 62 32t67 34q32 10 66.5 15.5t69 2.5
t48.5 -18q27 -27 21 -77t-37 -71q61 -22 99.5 -34t95 -21.5t106.5 -5.5q75 5 138.5 35t92.5 86h12q-29 -63 -94.5 -98.5t-142.5 -43.5q-127 -11 -318 48l-22 -37q76 5 127 -49t18 -127q41 9 78 -17q29 -32 35 -79.5t-10 -82.5q-33 -75 -117 -133q100 3 188 19q30 6 217 51
q43 10 119 39t141 45t127 12q59 167 66 356q8 204 -57 340q-20 -1 -34.5 -1.5t-30 0t-23.5 0.5t-24 3t-21 3.5t-25 6t-25.5 7.5t-32.5 10.5t-38 11.5q-45 14 -85 39t-80.5 57t-58.5 44q-53 35 -133 63q-146 51 -319 60q-91 6 -207 26q-110 15 -176 47q-7 4 -29 18t-33 17
q-25 -20 -64.5 -14t-73.5 22t-62 37q-4 -31 0 -70q7 -86 52.5 -153.5t117.5 -99.5q78 -37 178 -64q15 -4 83 -15.5t101 -27.5l98 -37v-10q-26 3 -66.5 19t-55.5 20q-31 8 -68 8q-20 0 -42 4t-51.5 12t-43.5 11q-109 -6 -296.5 -23t-260.5 -22q-33 -3 -117 -10.5t-123 -8.5
q-118 -2 -167 -23t-50 -79zM1020 498q25 -49 84 -72q12 -4 23 -6t23.5 0.5t19 3.5t21.5 9t18 9.5t21 12.5t19 12q36 23 88.5 39t94 25t89.5 31t81 56q38 38 45 66q-12 -7 -29.5 -3t-24.5 17l-37 64q-20 36 -18 57q-35 -14 -45 -24q-64 -54 -131 -70q-62 -16 -152 -23v17
q8 2 38 7.5t46 8.5q-28 0 -135 10q-203 -124 -139 -247zM1196 322q6 -42 40.5 -70.5t88.5 -28.5q11 0 36 5t40 3q37 34 119.5 64t111.5 51q6 4 27.5 18.5t31.5 22t26.5 20.5t27.5 26t18 26q-20 -7 -39 4q-6 4 -12 12t-10 15.5t-8.5 19.5t-6.5 18.5t-5.5 19t-4.5 15.5
q-8 23 -2 27q-39 7 -57 -6q-62 -47 -182 -84.5t-164 -63.5q-82 -50 -76 -114zM1427 209q30 -50 39 -59q60 -60 115 -60t127 39q159 79 172 197q-19 -3 -56 28t-40 60q-6 0 -10 -4q-93 -89 -172 -119q-14 -6 -44 -16t-48 -17t-42 -20t-41 -29z" />
    <glyph glyph-name="u1F449" unicode="&#x1f449;" horiz-adv-x="3233" 
d="M1628 55q-24 2 -66 22.5t-67 24.5q-27 6 -81.5 7.5t-74.5 3.5q-151 14 -319 69q-22 7 -84.5 28.5t-103.5 33.5t-84 20q-3 -14 -17 -24q-5 -6 -14.5 -11.5t-22 -11t-18.5 -8.5l-33 -8q-47 -11 -74 -13l-108 -8q-9 -1 -25.5 -3t-23.5 -2t-18.5 1t-22 5t-23.5 12
q-29 17 -51.5 45.5t-37 66.5t-22 67t-16.5 70q-25 122 -10 346q4 44 8.5 75.5t14.5 75.5t29 81t46 65q233 11 256 13q85 6 117 -9.5t33 -70.5q50 10 162 43q56 17 136.5 76t110.5 77q99 59 195 84.5t244 36.5q92 5 227 29q77 13 125 31q31 15 78 45q60 37 137 70t129 30
q23 -2 28.5 -14.5t-4 -28t-28.5 -27.5q13 -45 0 -116q-23 -115 -86 -178q-68 -68 -180 -97q400 -39 606 -49q201 -11 215 -12q95 -9 135 -49q22 -8 30.5 -11.5t24 -14t22 -25t7.5 -35.5q1 -30 -9.5 -51.5t-29 -32t-34 -14.5t-31.5 -5q-45 -28 -97 -28q-61 -4 -186 -4
q-450 0 -543 -3q74 -37 120.5 -93t35.5 -124q-10 -67 -71.5 -109t-129.5 -28q39 -66 -6 -127t-117 -71q-20 -2 -51 3t-43 1q-12 -12 -30 -45t-46 -58q-51 -46 -133 -39zM592 659q7 -192 65 -356q62 4 127 -12t141 -45t119 -39q184 -45 218 -51q88 -16 188 -19
q-84 58 -117 133q-16 35 -10 82.5t35 79.5q37 26 78 17q-33 73 18 127t127 49l-22 37q-191 -59 -318 -48q-77 8 -142.5 43.5t-94.5 98.5h12q29 -56 92.5 -86t138.5 -35q50 -4 106.5 5.5t95 21.5t99.5 34q-31 21 -37 71t21 77q14 15 48.5 18t69 -2.5t66.5 -15.5q26 -8 67 -34
t62 -32q19 -6 41.5 -8t36 -2t43 2t39.5 2q85 6 342 6h428q82 0 122 28t38 81q-1 58 -50 79t-167 23q-39 1 -123 8.5t-117 10.5q-73 5 -260.5 22t-296.5 23q-14 -3 -43.5 -11t-51.5 -12t-42 -4q-37 0 -68 -8q-15 -4 -55.5 -20t-67.5 -19v10l99 37q33 16 101 27.5t83 15.5
q100 27 178 64q72 32 117.5 99.5t52.5 153.5q4 39 0 70q-28 -21 -62 -37t-74 -22t-65 14q-11 -3 -32 -17t-29 -18q-66 -32 -176 -47q-116 -20 -207 -26q-173 -9 -319 -60q-82 -29 -134 -63q-18 -12 -58.5 -44t-80 -57t-84.5 -39q-11 -3 -38 -11.5t-32.5 -10.5t-25.5 -7.5
t-25 -6t-21 -3.5t-24 -3t-23.5 -0.5t-30 0t-34.5 1.5q-65 -136 -57 -340zM1354 326q13 -118 172 -197q72 -39 127 -39q54 0 114 60q9 9 39 59q-17 16 -40.5 29t-41.5 20t-48 17.5t-44 15.5q-79 30 -172 119q-4 4 -10 4q-3 -29 -40 -60t-56 -28zM1470 459q7 -13 18 -26
t27 -26t27 -21t32 -21.5t28 -18.5q29 -21 111.5 -51t119.5 -64q15 2 40 -3t36 -5q54 0 88.5 28.5t40.5 70.5q6 64 -76 114q-44 26 -164 63.5t-182 84.5q-18 13 -57 6q5 -4 -3 -27q-1 -3 -4.5 -15.5t-5.5 -19t-6.5 -18.5t-8.5 -19.5t-10 -15.5t-12 -12q-19 -11 -39 -4z
M1587 684q7 -28 45 -66q33 -34 81 -56t89.5 -31t94 -25t88.5 -39q4 -2 17 -10.5t17.5 -11t16.5 -9t18 -8.5t17 -5t19 -3t19 1t21 5q59 23 84 72q64 123 -139 247q-107 -10 -136 -10q16 -3 46 -9t38 -7v-17q-89 6 -151 23q-67 16 -131 70q-10 10 -45 24q2 -19 -19 -57
l-37 -64q-7 -13 -24 -17t-29 3z" />
    <glyph glyph-name="uni004A0301" horiz-adv-x="829" 
d="M0 31q114 5 166.5 76t52.5 239v862v342h463v-342v-848q0 -176 -45 -301.5t-134.5 -202t-213 -112t-289.5 -37.5v324zM291 1694l213 317h405l-348 -317h-270z" />
    <glyph glyph-name="L.ss01" horiz-adv-x="1822" 
d="M147 0v342v866v342h465v-342v-872h435q318 0 751 43v-379h-1651z" />
    <glyph glyph-name="Q.ss01" horiz-adv-x="1966" 
d="M1954 -344q-87 0 -163.5 22t-133.5 57t-108 88t-87 105.5t-73 120.5q-188 -84 -437 -84q-207 0 -375.5 60t-280.5 167.5t-172.5 256.5t-60.5 327t60.5 326t172.5 254t280 164.5t376 58.5q207 0 374.5 -59t280 -165.5t172.5 -256t60 -330.5q0 -187 -66 -341t-192 -261
q137 -105 373 -105v-405zM541 768q0 -138 49 -236h20q1 93 36.5 174t111 135t178.5 54q60 0 112 -19t89.5 -47t73.5 -75t60 -88.5t54 -102.5q37 87 37 213q0 205 -109 321.5t-301 116.5q-194 0 -302.5 -117t-108.5 -329zM688 412q105 -82 264 -82q154 0 258 80
q-55 96 -120 147t-158 51q-96 0 -158 -52t-86 -144z" />
    <glyph glyph-name="R.ss01" horiz-adv-x="1558" 
d="M1382 -18q-486 139 -770 483v-123v-342h-465v342v866v342h693q296 0 457 -103t161 -321q0 -90 -30 -164.5t-80 -124.5t-117.5 -84t-141 -49.5t-151.5 -15.5q-136 0 -274 62v-13q324 -261 813 -338v-417h-95zM612 969q79 -35 187 -35q101 0 158 48t57 136q0 92 -65 135
t-197 43h-140v-327z" />
    <glyph glyph-name="Q.ss02" horiz-adv-x="1939" 
d="M1880 -297q-260 117 -483.5 184.5t-485.5 83.5q-416 24 -632 237.5t-216 567.5q0 178 60.5 326t172.5 254t280 164.5t376 58.5q207 0 374.5 -59t280 -165.5t172.5 -256t60 -330.5q0 -202 -78 -364t-223 -265q127 -8 342 -49v-387zM541 768q0 -205 109 -321.5t302 -116.5
q192 0 301 118t109 328q0 205 -109 321.5t-301 116.5q-194 0 -302.5 -117t-108.5 -329z" />
    <glyph glyph-name="R.ss02" horiz-adv-x="1589" 
d="M1552 -14q-202 0 -329 31t-216.5 100t-181.5 202q-69 104 -117.5 159.5t-103.5 84.5v-221v-342h-457v342v866v342h682q313 0 469 -111t156 -325q0 -197 -125 -301.5t-354 -122.5q96 -32 184 -139q45 -48 76.5 -75.5t79.5 -58.5t106.5 -45t130.5 -14v-372zM604 891h150
q250 0 250 178q0 90 -59 132t-187 42h-154v-352z" />
    <glyph glyph-name="C_O" horiz-adv-x="3041" 
d="M928 -31q-252 0 -448 98t-306.5 282.5t-110.5 428.5q0 248 111 430.5t307.5 276.5t454.5 94q164 0 307 -38.5t259 -114t195 -196t109 -276.5h-475q-36 126 -137.5 198.5t-249.5 72.5q-84 0 -157 -29.5t-128 -84.5t-86.5 -141t-31.5 -192q0 -214 113 -334t290 -120
q156 0 262 90t129 243h473q-14 -131 -66 -242.5t-133.5 -193t-188 -138.5t-231 -85.5t-261.5 -28.5zM1878 1112q0 208 152 337.5t407 129.5q256 0 408.5 -130.5t152.5 -342.5q0 -208 -152.5 -336.5t-408.5 -128.5q-255 0 -407 131.5t-152 339.5zM2228 1106q0 -93 56 -149
t153 -56t154 59.5t57 151.5q0 91 -56.5 149t-154.5 58q-96 0 -152.5 -59.5t-56.5 -153.5zM2253 0v340h373v-340h-373z" />
    <glyph glyph-name="L_T_D" horiz-adv-x="2906" 
d="M147 0v342v866v342h465v-342v-872h435q318 0 751 43v-379h-1651zM848 1251v299h874v-299q-108 9 -256 9v-259v-342h-362v342v259q-148 0 -256 -9zM1882 659v342v207v342h420q265 0 413 -121.5t148 -322.5q0 -202 -148.5 -324.5t-412.5 -122.5h-420zM2064 0v340h373v-340
h-373zM2228 915h68q97 0 156 47.5t59 143.5t-57.5 143t-157.5 47h-68v-381z" />
    <glyph glyph-name="O_e" horiz-adv-x="2996" 
d="M952 -35q-207 0 -375.5 60t-280.5 167.5t-172.5 256.5t-60.5 327t60.5 326t172.5 254t280 164.5t376 58.5q386 0 618 -192.5t265 -518.5q84 97 213 148t285 51q289 0 453.5 -154.5t164.5 -423.5h-858q9 -120 74.5 -180.5t167.5 -60.5q93 0 150.5 41t76.5 106h381
q-14 -85 -58 -160.5t-117.5 -138t-186.5 -99t-252 -36.5q-224 0 -384.5 100t-211.5 285q-106 -181 -306 -281t-475 -100zM541 768q0 -205 109 -321.5t302 -116.5q192 0 301 118t109 328q0 205 -109 321.5t-301 116.5q-194 0 -302.5 -117t-108.5 -329zM2118 662h434
q-53 139 -219 139q-160 0 -215 -139z" />
    <glyph glyph-name="S_T" horiz-adv-x="2256" 
d="M748 -39q-307 0 -492 146.5t-213 404.5h424q16 -115 84.5 -180.5t196.5 -65.5q87 0 135.5 34.5t48.5 102.5q0 70 -67.5 111.5t-304.5 136.5q-3 1 -5 2q-246 97 -353.5 204t-107.5 267q0 147 82.5 252t218 155t307.5 50q287 0 469 -138t220 -386h-422q-12 102 -76 161.5
t-176 59.5q-83 0 -127.5 -34.5t-44.5 -92.5q0 -26 8.5 -47.5t29.5 -41.5t47.5 -36.5t70.5 -36.5t90 -38l115 -45q2 -1 3 -1q98 -38 166.5 -71t130.5 -75t99 -88t58 -105.5t21 -131.5q0 -147 -83 -255.5t-225.5 -163t-327.5 -54.5zM1384 1251v299h875v-299q-108 9 -256 9
v-259v-342h-363v342v259q-148 0 -256 -9zM1640 0v340h373v-340h-373z" />
    <glyph glyph-name="i.loclTRK" horiz-adv-x="645" 
d="M111 0v342v342v342h424v-684v-342h-424zM109 1221v313h428v-313h-428z" />
    <glyph glyph-name="uni006A0301" horiz-adv-x="659" 
d="M-61 -242q47 0 77.5 8t57 32.5t39 74t12.5 127.5v684v342h424v-965q0 -143 -30 -244t-99.5 -174.5t-188.5 -109t-292 -35.5v260zM254 1178l154 372h368l-334 -372h-188z" />
    <glyph glyph-name="g.ss01" horiz-adv-x="1384" 
d="M125 -160q100 -14 151 -14q162 0 275 25t178.5 74.5t94 115t28.5 154.5v24q-55 -106 -150 -166.5t-227 -60.5q-102 0 -183 41.5t-133 114.5t-79 169t-27 209q0 111 30 206t86.5 168t147 115t203.5 42q209 0 332 -139v108h424v-342v-362q0 -104 -15 -193t-52 -175.5
t-95.5 -156t-148.5 -129t-208 -99.5t-278 -62.5t-354 -22.5v356zM494 518q0 -101 41 -165t118 -64q92 0 145.5 71t53.5 209v148q-72 86 -162 86q-91 0 -143.5 -71.5t-52.5 -213.5z" />
    <glyph glyph-name="y.ss01" horiz-adv-x="1396" 
d="M119 -178q99 -12 172 -12q256 0 414.5 104t158.5 281v57q-55 -113 -161 -183.5t-240 -70.5q-169 0 -263 110t-94 345v231v342h426v-342v-162q0 -196 142 -196q70 0 125 58.5t65 176.5v123v342h424v-342v-381q0 -140 -37 -258.5t-124 -222.5t-219.5 -177t-333 -116
t-455.5 -45v338z" />
    <glyph glyph-name="f.ss02" horiz-adv-x="1011" 
d="M127 0v342v213q0 120 52.5 201.5t152.5 111.5q-69 10 -128.5 34.5t-108 65.5t-76 103t-27.5 139q0 185 150 296.5t393 111.5q135 0 246 -36t186.5 -99t122 -146.5t61.5 -181.5h-381q-8 81 -65 127.5t-154 46.5q-88 0 -132 -40t-44 -105q0 -158 295 -158h291v-276h-183
q-122 0 -173.5 -60t-51.5 -198v-150v-342h-426z" />
    <glyph glyph-name="t.ss02" horiz-adv-x="1122" 
d="M659 -20q-218 0 -331 116t-113 348v289h-199v293h125q52 0 87 13t56.5 36t33 68.5t15 96.5t3.5 134h305v-348h352v-293h-352v-289q0 -77 21 -111t73 -34q50 0 80.5 50.5t34.5 148.5h276q-12 -247 -136 -382.5t-331 -135.5z" />
    <glyph glyph-name="c_t" horiz-adv-x="2291" 
d="M670 -39q-126 0 -235 33.5t-194.5 99t-134.5 172.5t-49 244q0 134 49 241t134 174.5t195.5 103.5t236.5 36q60 0 112 -6q-92 89 -92 196q0 83 43.5 148.5t116.5 104.5t161.5 59t186.5 20q266 0 420.5 -143t191.5 -418h342v-293h-331v-280q0 -168 159 -168q118 0 193 84
l43 -265q-56 -58 -156 -96.5t-237 -38.5q-214 0 -321 113t-107 360v598q0 158 -61.5 237t-178.5 79q-94 0 -146.5 -49.5t-52.5 -132.5q0 -108 78 -195q110 -60 175 -154t77 -209h-391q-15 65 -66 111.5t-149 46.5q-109 0 -169 -69.5t-60 -188.5t60.5 -191.5t168.5 -72.5
q102 0 155.5 52.5t65.5 129.5h387q-10 -100 -57 -186t-124.5 -150t-190.5 -100.5t-248 -36.5z" />
    <glyph glyph-name="f_b" horiz-adv-x="2306" 
d="M246 0v342v391h-207v293h207v78q0 241 130 373.5t365 132.5q250 0 375 -178l318 186h8v-336v-451q57 103 153 163.5t226 60.5q204 0 318 -144.5t114 -378.5q0 -157 -52 -278t-161.5 -194.5t-263.5 -73.5q-210 0 -334 143v-129h-426v342v391h-344v-391v-342h-426z
M659 1153q0 -21 9 -127h348v207q-64 119 -187 119q-170 0 -170 -199zM1442 336q75 -103 178 -103q87 0 138.5 73t51.5 214q0 117 -44 184.5t-132 67.5q-78 0 -130 -60.5t-62 -179.5v-196z" />
    <glyph glyph-name="f_h" horiz-adv-x="2304" 
d="M246 0v342v391h-207v293h207v78q0 241 130 373.5t365 132.5q250 0 375 -178l318 186h8v-336v-502q48 129 154 208t251 79q167 0 260 -105.5t93 -330.5v-289v-342h-424v342v199q0 196 -150 196q-75 0 -123.5 -46.5t-60.5 -121.5v-258v-311h-426v342v391h-344v-391v-342
h-426zM659 1153q0 -21 9 -127h348v207q-64 119 -187 119q-170 0 -170 -199z" />
    <glyph glyph-name="f_t" horiz-adv-x="1765" 
d="M180 0v342v391h-207v293h207v12q0 239 135 368.5t357 129.5q282 0 430 -213l241 160h7v-457h325v-293h-325v-284q0 -80 39.5 -124t115.5 -44q122 0 197 84l43 -261q-133 -133 -387 -133q-214 0 -324 121t-110 381v260h-318v-391v-342h-426zM586 1098q0 -18 4 -72h334v174
q-53 86 -170 86q-80 0 -124 -47t-44 -141z" />
    <glyph glyph-name="s_s" horiz-adv-x="2443" 
d="M641 -39q-255 0 -412.5 100t-185.5 279h379q10 -75 68.5 -113.5t144.5 -38.5q65 0 105 21.5t40 56.5q0 44 -50.5 68t-205.5 67q-51 14 -78 22t-73 23t-71.5 26.5t-62.5 29.5t-58 35t-46 41.5t-37.5 50t-21 58t-8.5 69.5q0 100 56 171.5t148 105.5t211 34
q113 0 212.5 -30.5t175 -82.5t144 -119t127 -141.5t115.5 -148.5t118 -141t126 -119t148.5 -82.5t177.5 -30.5q160 0 160 86q0 41 -53 69t-224 74q-60 17 -93.5 27.5t-85.5 29.5t-81.5 35.5t-65.5 43t-55 54.5t-32 66.5t-13 83.5q0 109 72 184.5t183 108.5t251 33
q245 0 397 -94t187 -264h-373q-9 62 -62 96.5t-143 34.5q-135 0 -135 -74q0 -38 59 -62t287 -86q203 -55 294 -128t91 -201q0 -87 -33.5 -151.5t-93.5 -102.5t-135.5 -56t-167.5 -18q-110 0 -206.5 30.5t-170.5 82.5t-141.5 119.5t-126 142t-116.5 148.5t-121.5 141.5
t-132 119.5t-157 82.5t-188.5 30.5q-153 0 -153 -80q0 -48 64 -78t257 -79q204 -54 299.5 -122.5t95.5 -193.5q0 -112 -70.5 -191t-186.5 -116t-267 -37z" />
    <glyph glyph-name="s_t" horiz-adv-x="2142" 
d="M1731 -31q-215 0 -321.5 113t-106.5 360v598q0 157 -61 236.5t-173 79.5q-95 0 -146 -48.5t-51 -131.5q0 -99 86 -185q182 -90 220 -278h-377q-8 58 -61.5 92.5t-141.5 34.5q-135 0 -135 -78q0 -37 58 -59.5t282 -81.5q105 -29 172.5 -55.5t120 -63t75.5 -84t23 -111.5
q0 -89 -43.5 -156.5t-120 -108.5t-174 -61t-213.5 -20q-260 0 -415.5 98.5t-184.5 284.5h389q7 -76 65 -115t146 -39q66 0 104.5 19.5t38.5 56.5q0 38 -55.5 64t-218.5 71q-194 55 -269 92q-148 74 -171 197q-4 24 -4 51q0 83 41.5 146.5t114.5 102t166 58t202 19.5
q36 0 102 -4q-88 85 -88 197q0 149 137 238t351 89q276 0 431 -142.5t191 -418.5h342v-293h-332v-280q0 -168 160 -168q118 0 193 84l43 -265q-56 -58 -155.5 -96.5t-235.5 -38.5z" />
    <glyph glyph-name="w_w_w" horiz-adv-x="4517" 
d="M72 854q-2 5 -70 172h422l61 -172l138 -389l155 541h242l160 -531l133 379q44 119 61 172h424l62 -172l137 -389l155 541h242l160 -531l133 379q44 119 61 172h422l62 -172l137 -389l156 541h241l160 -531l133 379q53 143 62 172h393q-9 -24 -34 -85.5t-34 -86.5
l-299 -764q-26 -65 -28 -90h-336l-146 518l-121 -414q-27 -87 -28 -104h-336l-207 526l-170 -436q-27 -69 -29 -90h-336l-145 518l-121 -414q-27 -87 -28 -104h-336l-207 528l-172 -438q-27 -69 -29 -90h-336l-145 518l-121 -414q-28 -91 -29 -104h-335z" />
    <glyph glyph-name="g_t.ss01" horiz-adv-x="2246" 
d="M1835 -31q-214 0 -321 113t-107 360v617q0 291 -190 291q-82 0 -131.5 -51.5t-49.5 -129.5q0 -127 90 -211q148 -104 148 -274q0 -176 -149.5 -278.5t-415.5 -102.5q-153 0 -275 39q-76 -32 -76 -74q0 -34 42.5 -50.5t154.5 -12.5q82 2 285 25.5t282 23.5
q154 0 223.5 -67.5t69.5 -180.5q0 -118 -74 -217.5t-197.5 -165.5t-283 -102.5t-332.5 -36.5q-205 0 -317.5 52t-112.5 151q0 140 244 196q-138 12 -218.5 75.5t-80.5 162.5t63 170t177 125q-140 105 -140 268q0 174 154.5 278.5t411.5 104.5q82 0 178 -14q-92 86 -92 202
q0 107 68.5 182.5t176 109.5t242.5 34q246 0 386 -149.5t159 -405.5h336v-293h-332v-280q0 -168 160 -168q120 0 192 84l43 -265q-56 -58 -155.5 -96.5t-235.5 -38.5zM422 -221q0 -72 156 -72q105 0 207 21t169.5 59.5t67.5 83.5q0 28 -19.5 39.5t-66.5 11.5
q-140 0 -320 -39q-194 -39 -194 -104zM518 684q0 -65 52 -101t139 -36q86 0 138 36t52 101q0 66 -51.5 102.5t-138.5 36.5t-139 -36.5t-52 -102.5z" />
    <glyph glyph-name="zero.osf" horiz-adv-x="1366" 
d="M684 -27q-290 0 -458.5 155t-168.5 400q0 121 42.5 223t121.5 176t198 116t265 42q290 0 457.5 -155t167.5 -402q0 -160 -73.5 -285t-216.5 -197.5t-335 -72.5zM434 528q0 -115 67.5 -184.5t182.5 -69.5t181.5 69.5t66.5 184.5q0 118 -66.5 187t-181.5 69t-182.5 -69.5
t-67.5 -186.5z" />
    <glyph glyph-name="one.osf" horiz-adv-x="931" 
d="M381 0v342v244q-40 -52 -112 -82.5t-169 -30.5v287q142 7 246 90.5t127 191.5h332v-700v-342h-424z" />
    <glyph glyph-name="two.osf" horiz-adv-x="1218" 
d="M70 49q0 41 8.5 79t22 69.5t37 63t45 55t56 50t60 44t67 41.5t66.5 37.5t68 35.5q130 67 180.5 107t50.5 96q0 45 -32.5 71.5t-92.5 26.5q-86 0 -137 -54t-51 -148h-365q0 69 21.5 134t68 125t114 105t167 71.5t219.5 26.5q217 0 346 -85.5t129 -249.5q0 -34 -6.5 -64
t-16.5 -54.5t-28.5 -48t-35.5 -41t-45.5 -36t-51 -31.5t-59.5 -30t-62.5 -28t-67.5 -28q-156 -61 -223 -104h619v-285h-1071v49z" />
    <glyph glyph-name="three.osf" horiz-adv-x="1318" 
d="M641 -383q-257 0 -422 134.5t-182 381.5h366q3 -108 62.5 -170.5t155.5 -62.5q91 0 137.5 46.5t46.5 112.5q0 80 -55.5 131.5t-163.5 51.5h-142v260h123q110 0 164.5 44.5t54.5 117.5q0 63 -42.5 100t-122.5 37q-85 0 -149 -42t-77 -130h-352q25 210 196 333t429 123
q233 0 373.5 -100.5t140.5 -273.5q0 -139 -78 -221.5t-207 -112.5q67 -12 122.5 -37t101 -65t71 -101t25.5 -137q0 -130 -79 -227t-208 -145t-289 -48z" />
    <glyph glyph-name="four.osf" horiz-adv-x="1490" 
d="M797 -350v356h-729v246l786 807h342v-748h242v-305h-242v-356h-399zM453 311h344v353z" />
    <glyph glyph-name="five.osf" horiz-adv-x="1273" 
d="M641 -385q-265 0 -433 140.5t-181 387.5h376q2 -114 56 -177.5t151 -63.5q98 0 149.5 55t51.5 141q0 96 -55.5 150.5t-147.5 54.5q-52 0 -98.5 -21.5t-73.5 -60.5l-344 158l101 678h942v-303h-633l-45 -262q132 86 297 86q201 0 334 -124t133 -335q0 -228 -160 -366
t-420 -138z" />
    <glyph glyph-name="six.osf" horiz-adv-x="1411" 
d="M713 -39q-164 0 -289.5 53t-203 149t-116 222t-38.5 279q0 131 27.5 251t84.5 222.5t138.5 178t196 118.5t249.5 43q230 0 383.5 -118t202.5 -341h-369q-13 87 -68.5 132.5t-142.5 45.5q-268 0 -285 -467q53 100 161 152.5t235 52.5q199 0 321.5 -124t122.5 -327
q0 -230 -162.5 -376t-447.5 -146zM494 514q18 -124 68.5 -185t142.5 -61q91 0 141.5 56.5t50.5 148.5q0 93 -52.5 142t-129.5 49q-69 0 -132.5 -39t-88.5 -111z" />
    <glyph glyph-name="seven.osf" horiz-adv-x="1159" 
d="M125 -362l573 1079h-659v340h1091v-176l-571 -1243h-434z" />
    <glyph glyph-name="eight.osf" horiz-adv-x="1447" 
d="M723 -39q-187 0 -331.5 49t-230 149t-85.5 240q0 155 104.5 258t284.5 131q-164 24 -251 111.5t-87 202.5q0 164 162.5 269.5t433.5 105.5q272 0 435 -105.5t163 -269.5q0 -115 -87 -202.5t-251 -111.5q180 -28 284.5 -131t104.5 -258q0 -140 -85.5 -240t-230.5 -149
t-333 -49zM500 436q0 -95 61 -142.5t162 -47.5t162 47.5t61 142.5q0 93 -62 140t-161 47q-98 0 -160.5 -47.5t-62.5 -139.5zM526 1055q0 -76 55.5 -122t141.5 -46q87 0 142 46t55 122t-55 121t-142 45t-142 -45t-55 -121z" />
    <glyph glyph-name="nine.osf" horiz-adv-x="1449" 
d="M696 1085q165 0 292.5 -53.5t207.5 -150t121 -225.5t41 -285q0 -162 -45.5 -299.5t-131 -239t-218 -158.5t-297.5 -57q-231 0 -385.5 114t-204.5 330h368q15 -81 70 -123t141 -42q134 0 203.5 115.5t77.5 322.5q-54 -95 -161 -144t-230 -49q-199 0 -322 121t-123 322
q0 222 158.5 361.5t437.5 139.5zM524 594q0 -92 52.5 -138t128.5 -46q67 0 131 35t90 100q-17 118 -68.5 175.5t-142.5 57.5q-87 0 -139 -50t-52 -134z" />
    <glyph glyph-name="zero.slashed" horiz-adv-x="1517" 
d="M760 -39q-347 0 -526 207t-179 602t179 602t526 207q346 0 524 -207t178 -602t-178 -602t-524 -207zM487 770q0 -305 86 -410l256 887q-35 6 -69 6q-148 0 -210.5 -108.5t-62.5 -374.5zM686 295q31 -8 74 -8q146 0 208 108.5t62 374.5q0 310 -88 414z" />
    <glyph glyph-name="zero.tf" horiz-adv-x="1519" 
d="M760 -39q-346 0 -525.5 207.5t-179.5 601.5q0 396 179.5 603.5t525.5 207.5q347 0 525.5 -208t178.5 -603t-178.5 -602t-525.5 -207zM524 770q0 -266 54.5 -374.5t181.5 -108.5q128 0 182.5 109t54.5 374q0 266 -55 375.5t-182 109.5t-181.5 -109.5t-54.5 -375.5z" />
    <glyph glyph-name="one.tf" horiz-adv-x="1519" 
d="M244 0v326h313v673q-91 -130 -328 -133v332q194 17 320.5 109.5t155.5 242.5h329v-1224h301v-326h-1091z" />
    <glyph glyph-name="two.tf" horiz-adv-x="1519" 
d="M102 84q0 84 16 141.5t67.5 123t129 129t220.5 165.5q36 26 92 65.5t82.5 58.5t67.5 49.5t59.5 47t45 41.5t37.5 42.5t23.5 41t16.5 46t4 48.5q0 84 -47 129t-140 45q-125 0 -188.5 -87t-65.5 -230h-424q8 297 198.5 469t522.5 172q282 0 441 -124.5t159 -348.5
q0 -159 -95 -275t-329 -260q-242 -151 -344 -221h760v-352h-1309v84z" />
    <glyph glyph-name="three.tf" horiz-adv-x="1519" 
d="M809 -39q-312 0 -512 152t-229 428h413q15 -124 94 -187t207 -63q113 0 173.5 50.5t60.5 131.5q0 93 -71.5 145t-211.5 52h-149v268h159q128 0 194.5 53.5t66.5 130.5q0 74 -55 118t-161 44q-121 0 -203 -56.5t-100 -174.5h-411q36 253 238.5 391.5t523.5 138.5
q179 0 315 -47t213.5 -140.5t77.5 -221.5q0 -102 -50.5 -179t-131.5 -120t-187 -60q84 -13 154 -40.5t128 -72.5t91 -113.5t33 -154.5q0 -144 -89.5 -252.5t-241 -164.5t-339.5 -56z" />
    <glyph glyph-name="four.tf" horiz-adv-x="1519" 
d="M858 0v285h-864v276l934 989h354v-929h246v-336h-246v-285h-424zM426 621h432v462z" />
    <glyph glyph-name="five.tf" horiz-adv-x="1519" 
d="M776 -39q-295 0 -483 150t-217 421h420q29 -241 260 -241q120 0 182.5 62.5t62.5 160.5q0 101 -61.5 158t-167.5 57q-71 0 -132.5 -28.5t-98.5 -82.5l-379 166l96 766h1100v-333h-783l-43 -318q77 62 185 95.5t229 33.5q229 0 371.5 -126.5t142.5 -362.5
q0 -259 -189 -418.5t-495 -159.5z" />
    <glyph glyph-name="six.tf" horiz-adv-x="1519" 
d="M797 -39q-187 0 -330.5 55.5t-233.5 157t-135 238.5t-45 305q0 140 29.5 266t91.5 235.5t152 189.5t218.5 125.5t282.5 45.5q126 0 231.5 -28t193.5 -86.5t147 -156t82 -229.5h-424q-18 84 -74 133.5t-147 49.5q-153 0 -234.5 -129.5t-89.5 -362.5q57 115 179 173t270 58
q228 0 370 -132t142 -357q0 -248 -178.5 -399.5t-497.5 -151.5zM535 504q55 -225 247 -225q105 0 166.5 59t61.5 162q0 107 -62.5 162t-154.5 55t-165.5 -55t-92.5 -158z" />
    <glyph glyph-name="seven.tf" horiz-adv-x="1519" 
d="M186 0l678 1198h-737v352h1264v-176l-709 -1374h-496z" />
    <glyph glyph-name="eight.tf" horiz-adv-x="1519" 
d="M760 -39q-354 0 -550 120t-196 343q0 149 96 249.5t275 141.5q-152 40 -227.5 133t-75.5 215q0 199 176 308.5t500 109.5q326 0 502 -109.5t176 -308.5q0 -121 -76 -215t-227 -133q179 -41 274.5 -141.5t95.5 -249.5q0 -223 -195 -343t-548 -120zM496 455
q0 -96 73.5 -149.5t190.5 -53.5q116 0 190 53.5t74 149.5q0 94 -72.5 148t-191.5 54q-120 0 -192 -54t-72 -148zM522 1143q0 -83 66.5 -131.5t171.5 -48.5q104 0 169.5 48.5t65.5 131.5q0 84 -66 131t-169 47q-105 0 -171.5 -47t-66.5 -131z" />
    <glyph glyph-name="nine.tf" horiz-adv-x="1519" 
d="M731 1579q187 0 330.5 -56t233.5 -159t135 -242.5t45 -312.5q0 -138 -27 -261t-86.5 -232t-147 -187.5t-216 -124t-285.5 -45.5q-126 0 -232.5 29.5t-193 89.5t-144.5 157.5t-80 225.5h424q44 -182 224 -182q295 0 305 493q-57 -115 -180 -174t-271 -59
q-229 0 -370.5 131.5t-141.5 355.5q0 250 179.5 401.5t498.5 151.5zM516 1038q0 -104 63 -158.5t154 -54.5q93 0 166 55t92 160q-54 222 -246 222q-105 0 -167 -59.5t-62 -164.5z" />
    <glyph glyph-name="zero.dnom" horiz-adv-x="1114" 
d="M557 -27q-239 0 -372.5 133t-133.5 353t133.5 352.5t372.5 132.5t372.5 -132.5t133.5 -352.5t-133.5 -353t-372.5 -133zM369 459q0 -117 48.5 -183.5t139.5 -66.5t139.5 66.5t48.5 183.5q0 116 -48.5 182t-139.5 66t-139.5 -66t-48.5 -182z" />
    <glyph glyph-name="one.dnom" horiz-adv-x="747" 
d="M266 0v342v174q-72 -89 -250 -98v252q131 1 217 73t107 179h254v-580v-342h-328z" />
    <glyph glyph-name="two.dnom" horiz-adv-x="1013" 
d="M76 27q0 71 17.5 131t44 102t70 80.5t83.5 63t96 53.5q146 72 181 99q50 38 50 87q0 40 -27.5 62t-76.5 22q-70 0 -107.5 -44.5t-37.5 -119.5h-314q6 76 37.5 142.5t87.5 121.5t146.5 87t205.5 32q116 0 206.5 -29.5t147 -95t56.5 -159.5q0 -49 -16.5 -90t-39.5 -69
t-66 -56t-76.5 -45t-90.5 -42q-98 -44 -141 -68t-59 -48h493v-244h-870v27z" />
    <glyph glyph-name="three.dnom" horiz-adv-x="1003" 
d="M516 -25q-204 0 -326.5 93.5t-144.5 271.5h297q19 -135 164 -135q127 0 127 98q0 41 -28.5 61.5t-92.5 20.5h-102v176h102q57 0 85 26t28 64q0 33 -30.5 53.5t-84.5 20.5q-66 0 -113 -26t-57 -85h-295q23 159 153.5 244.5t344.5 85.5q188 0 301.5 -64t113.5 -192
q0 -82 -69.5 -135t-175.5 -66q52 -5 96.5 -18.5t84 -38.5t62.5 -66.5t23 -95.5q0 -95 -66 -163t-168.5 -99t-228.5 -31z" />
    <glyph glyph-name="four.dnom" horiz-adv-x="1046" 
d="M532 2v139v19h-532v182l553 578h293v-539h174v-221h-174v-19v-139v-4h-314v4zM272 381h260v278z" />
    <glyph glyph-name="five.dnom" horiz-adv-x="1048" 
d="M537 -25q-203 0 -330.5 91t-149.5 258h291q25 -144 178 -144q74 0 108 34t34 87q0 61 -37.5 93t-110.5 32q-96 0 -151 -55l-256 82l82 467h739v-234h-526l-29 -164q112 76 278 76q154 0 246 -77t92 -214q0 -156 -127.5 -244t-330.5 -88z" />
    <glyph glyph-name="six.dnom" horiz-adv-x="1054" 
d="M545 -25q-229 0 -356.5 130.5t-127.5 345.5q0 140 55.5 250t170.5 176.5t274 66.5q174 0 288.5 -80t143.5 -225h-286q-8 44 -46 73t-98 29q-178 0 -194 -239q-3 -32 0 -64q37 77 123 119.5t190 42.5q142 0 227.5 -78t85.5 -211q0 -150 -116.5 -243t-333.5 -93zM393 295
q38 -113 148 -113q63 0 98 33t35 92q0 56 -35 85.5t-94 29.5q-56 0 -99.5 -35t-52.5 -92z" />
    <glyph glyph-name="seven.dnom" horiz-adv-x="907" 
d="M82 0l438 662h-479v258h846l2 -170l-451 -750h-356z" />
    <glyph glyph-name="eight.dnom" horiz-adv-x="1097" 
d="M549 -25q-238 0 -368 72t-130 209q0 96 78 159.5t215 82.5q-123 11 -187.5 67.5t-64.5 132.5q0 119 118.5 181.5t336.5 62.5q220 0 338.5 -62.5t118.5 -181.5q0 -76 -64 -132.5t-186 -67.5q138 -19 215.5 -82t77.5 -160q0 -137 -129.5 -209t-368.5 -72zM377 285
q0 -105 172 -105t172 105q0 108 -172 108t-172 -108zM399 668q0 -45 41.5 -67.5t108.5 -22.5t108 22.5t41 67.5t-42 66.5t-107 21.5t-107.5 -21.5t-42.5 -66.5z" />
    <glyph glyph-name="nine.dnom" horiz-adv-x="1054" 
d="M510 948q229 0 357 -130t128 -345q0 -104 -32.5 -193t-93.5 -156t-157 -105.5t-216 -38.5q-176 0 -290 79.5t-143 225.5h287q8 -44 45.5 -72.5t98.5 -28.5q175 0 194 238v65q-37 -78 -123.5 -119.5t-191.5 -41.5q-142 0 -228 77t-86 209q0 150 117 243t334 93zM381 616
q0 -55 35.5 -84.5t93.5 -29.5q56 0 100.5 35t53.5 92q-38 112 -150 112q-63 0 -98 -33t-35 -92z" />
    <glyph glyph-name="zero.numr" horiz-adv-x="1114" 
d="M557 627q-239 0 -372.5 132.5t-133.5 352.5t133.5 352.5t372.5 132.5t372.5 -132.5t133.5 -352.5t-133.5 -352.5t-372.5 -132.5zM369 1112q0 -117 48.5 -183.5t139.5 -66.5t139.5 66.5t48.5 183.5q0 116 -48.5 182t-139.5 66t-139.5 -66t-48.5 -182z" />
    <glyph glyph-name="one.numr" horiz-adv-x="747" 
d="M266 653v342v174q-72 -89 -250 -98v252q131 1 217 73t107 179h254v-580v-342h-328z" />
    <glyph glyph-name="two.numr" horiz-adv-x="1013" 
d="M76 680q0 71 17.5 131t44 102t70 80.5t83.5 63t96 53.5q146 72 181 99q50 38 50 87q0 40 -27.5 62t-76.5 22q-70 0 -107.5 -44t-37.5 -119h-314q6 76 37.5 142.5t87.5 121t146.5 86.5t205.5 32q116 0 206.5 -29.5t147 -95t56.5 -159.5q0 -49 -16.5 -90t-39.5 -68.5
t-66 -56t-76.5 -45t-90.5 -41.5q-96 -43 -140 -68t-60 -49h493v-244h-870v27z" />
    <glyph glyph-name="three.numr" horiz-adv-x="1003" 
d="M516 629q-205 0 -327 93t-144 271h297q19 -135 164 -135q127 0 127 98q0 41 -28.5 61.5t-92.5 20.5h-102v176h102q57 0 85 26.5t28 64.5q0 33 -30.5 53t-84.5 20q-152 0 -170 -110h-295q23 159 153.5 244t344.5 85q188 0 301.5 -64t113.5 -192q0 -82 -69.5 -134.5
t-175.5 -65.5q52 -5 96.5 -18.5t84 -38.5t62.5 -66.5t23 -95.5q0 -95 -66 -163t-168.5 -99t-228.5 -31z" />
    <glyph glyph-name="four.numr" horiz-adv-x="1046" 
d="M532 657v140v18h-532v182l553 578h293v-539h174v-221h-174v-18v-140v-4h-314v4zM272 1036h260v279z" />
    <glyph glyph-name="five.numr" horiz-adv-x="1048" 
d="M537 631q-203 0 -330.5 90.5t-149.5 257.5h291q25 -143 178 -143q74 0 108 33.5t34 86.5q0 61 -37.5 93t-110.5 32q-96 0 -151 -55l-256 82l82 467h739v-234h-526l-29 -163q110 75 278 75q154 0 246 -76.5t92 -213.5q0 -156 -127.5 -244t-330.5 -88z" />
    <glyph glyph-name="six.numr" horiz-adv-x="1054" 
d="M545 629q-229 0 -356.5 130t-127.5 345q0 140 55.5 250t170.5 176.5t274 66.5q174 0 288.5 -80t143.5 -225h-286q-8 44 -46 73.5t-98 29.5q-178 0 -194 -240q-3 -32 0 -63q37 77 123 119t190 42q142 0 227.5 -77.5t85.5 -210.5q0 -150 -116.5 -243t-333.5 -93zM393 948
q38 -112 148 -112q63 0 98 33t35 92q0 55 -35 84.5t-94 29.5q-56 0 -99.5 -35t-52.5 -92z" />
    <glyph glyph-name="seven.numr" horiz-adv-x="907" 
d="M82 655l438 662h-479v258h846l2 -170l-451 -750h-356z" />
    <glyph glyph-name="eight.numr" horiz-adv-x="1097" 
d="M549 629q-239 0 -368.5 71.5t-129.5 208.5q0 96 78 159.5t215 82.5q-122 11 -187 68t-65 133q0 119 118 181t337 62q220 0 338.5 -62t118.5 -181q0 -76 -64 -133t-186 -68q138 -19 215.5 -82t77.5 -160q0 -137 -129 -208.5t-369 -71.5zM377 938q0 -104 172 -104t172 104
q0 56 -46.5 82.5t-125.5 26.5t-125.5 -26.5t-46.5 -82.5zM399 1321q0 -45 41.5 -67.5t108.5 -22.5t108 22.5t41 67.5t-42 66.5t-107 21.5t-107.5 -21.5t-42.5 -66.5z" />
    <glyph glyph-name="nine.numr" horiz-adv-x="1054" 
d="M510 1602q229 0 357 -130.5t128 -345.5q0 -104 -32.5 -193t-93.5 -156t-157 -105.5t-216 -38.5q-176 0 -290 79.5t-143 225.5h287q8 -44 45 -72t99 -28q176 0 194 237v66q-37 -78 -123.5 -120t-191.5 -42q-142 0 -228 77.5t-86 209.5q0 150 117 243t334 93zM381 1270
q0 -55 35.5 -85t93.5 -30q56 0 100.5 35t53.5 92q-38 113 -150 113q-63 0 -98 -33t-35 -92z" />
    <glyph glyph-name="exclamdown.case" horiz-adv-x="755" 
d="M203 1055h352l53 -1055h-461zM190 1210v340h375v-340h-375z" />
    <glyph glyph-name="questiondown.case" horiz-adv-x="1257" 
d="M844 1055q41 -83 41 -158q0 -47 -22 -91.5t-57 -80t-77 -69.5t-84 -65.5t-77 -62.5t-57 -66t-22 -71q0 -51 32.5 -83t96.5 -32q89 0 142.5 56.5t60.5 161.5h387q-10 -109 -48 -197t-97 -148.5t-138 -101.5t-168.5 -59.5t-191.5 -18.5q-241 0 -378.5 103.5t-137.5 285.5
q0 77 25 140t64.5 105t87.5 77.5t96.5 65t88 58t64.5 65t25 79.5q0 55 -29 107h373zM461 1210v340h375v-340h-375z" />
    <glyph glyph-name="periodcentered.case" horiz-adv-x="559" 
d="M94 627v340h373v-340h-373z" />
    <glyph glyph-name="bullet.case" horiz-adv-x="636" 
d="M98 616v394h441v-394h-441z" />
    <glyph glyph-name="hyphen.case" horiz-adv-x="1011" 
d="M90 913h832v-233h-832v233z" />
    <glyph glyph-name="endash.case" horiz-adv-x="1986" 
d="M92 690v215h1800v-215h-1800z" />
    <glyph glyph-name="emdash.case" horiz-adv-x="2738" 
d="M92 690v215h2554v-215h-2554z" />
    <glyph glyph-name="parenleft.case" horiz-adv-x="1042" 
d="M940 -252q-201 21 -368 101t-286 211.5t-185 317t-66 408.5q0 221 66 406.5t185 317t286 212t368 101.5v-332q-151 -19 -269.5 -114t-184.5 -249t-66 -342q0 -189 66 -343.5t184.5 -249t269.5 -113.5v-332z" />
    <glyph glyph-name="parenright.case" horiz-adv-x="1042" 
d="M102 1823q201 -21 368 -101.5t286.5 -211.5t185.5 -317t66 -409q0 -221 -66 -406.5t-185.5 -316.5t-286.5 -211.5t-368 -101.5v332q151 19 269.5 113.5t185 248.5t66.5 342q0 189 -66.5 343.5t-185 249.5t-269.5 114v332z" />
    <glyph glyph-name="braceleft.case" horiz-adv-x="937" 
d="M836 -219q-156 0 -280.5 33t-212 98.5t-121.5 172t-3 243.5q19 82 21.5 138t-8.5 90.5t-41 53t-67.5 25t-98.5 6.5v270q50 0 83.5 4t63 16t44 33.5t22 56.5t2.5 85t-21 119q-26 112 -7.5 200t71 153.5t136 108.5t188.5 64t229 21v-320q-121 0 -174 -25t-59.5 -82.5
t13.5 -150.5q13 -69 15 -126.5t-8.5 -98t-25 -71.5t-40 -51t-47.5 -33t-53.5 -20t-51 -9.5t-47.5 -4.5v-6q110 -10 164 -42q150 -88 94 -376q-21 -93 -13.5 -150t60.5 -81.5t173 -24.5v-319z" />
    <glyph glyph-name="braceright.case" horiz-adv-x="937" 
d="M102 1772q156 0 280.5 -33t212 -98.5t121.5 -172t3 -243.5q-19 -82 -21.5 -138t8.5 -91t41 -53.5t68 -25t98 -6.5v-270q-50 0 -83.5 -4t-63 -16t-44 -33t-22 -56t-2.5 -85t21 -119q26 -112 7.5 -200t-71 -153.5t-136 -108.5t-188.5 -64t-229 -21v319q121 0 174 25
t59.5 82.5t-13.5 150.5q-13 69 -15 126.5t8.5 98t25 71.5t40 51t47.5 33t53.5 20t51 9.5t47.5 4.5v6q-110 10 -164 42q-150 88 -94 376q21 93 13.5 150t-60.5 81.5t-173 24.5v320z" />
    <glyph glyph-name="bracketleft.case" horiz-adv-x="944" 
d="M145 -197v1932h697v-318h-303v-1298h303v-316h-697z" />
    <glyph glyph-name="bracketright.case" horiz-adv-x="944" 
d="M799 1733v-1932h-697v318h304v1298h-304v316h697z" />
    <glyph glyph-name="uni3010.case" horiz-adv-x="962" 
d="M145 -197v1934h715q-282 -163 -426.5 -413t-144.5 -554t144.5 -554t426.5 -413h-715z" />
    <glyph glyph-name="uni3011.case" horiz-adv-x="962" 
d="M817 1737v-1934h-715q282 163 427 413t145 554t-145 554t-427 413h715z" />
    <glyph glyph-name="uni3016.case" horiz-adv-x="1157" 
d="M145 -197v1934h910q-280 -163 -424 -413t-144 -554t144 -554.5t424 -412.5h-910zM256 -111h528q-203 164 -305 389.5t-102 491.5t102 491.5t305 389.5h-528v-1762z" />
    <glyph glyph-name="uni3017.case" horiz-adv-x="1157" 
d="M102 -197q280 162 424 412.5t144 554.5t-144 554t-424 413h910v-1934h-910zM373 -111h528v1762h-528q203 -164 305 -389.5t102 -491.5t-102 -491.5t-305 -389.5z" />
    <glyph glyph-name="guillemotleft.case" horiz-adv-x="1226" 
d="M625 313l-549 416v135l549 414v-311l-238 -164v-15l238 -163v-312zM588 729v135l549 414v-311l-238 -164v-15l238 -163v-312z" />
    <glyph glyph-name="guillemotright.case" horiz-adv-x="1226" 
d="M602 1278l549 -416v-135l-549 -414v312l238 163v15l-238 164v311zM90 313v312l238 163v15l-238 164v311l549 -416v-135z" />
    <glyph glyph-name="guilsinglleft.case" horiz-adv-x="714" 
d="M625 313l-549 416v135l549 414v-311l-238 -164v-15l238 -163v-312z" />
    <glyph glyph-name="guilsinglright.case" horiz-adv-x="714" 
d="M90 1278l549 -416v-135l-549 -414v312l238 163v15l-238 164v311z" />
    <glyph glyph-name="at.case" horiz-adv-x="2226" 
d="M997 -223q-160 0 -300 32t-258 99.5t-202 166t-131 239t-47 311.5q0 238 89.5 447t248 361.5t388.5 241t499 88.5q207 0 374 -56.5t277 -158t169 -242t59 -309.5q0 -107 -25 -212.5t-75.5 -200t-120.5 -167t-167 -115t-208 -42.5q-165 0 -253.5 78.5t-105.5 198.5
q-66 -129 -165.5 -203t-227.5 -74q-156 0 -241 100.5t-85 270.5q0 96 26.5 193.5t76.5 182.5t115 152t149 105.5t172 38.5q124 0 199 -74t86 -205l65 233l373 62l-184 -608q-41 -141 -15.5 -205t117.5 -64q103 0 183 86t118.5 206.5t38.5 244.5q0 312 -192 482.5t-541 170.5
q-201 0 -374.5 -56t-297.5 -153t-212.5 -225.5t-131.5 -274.5t-43 -300q0 -342 209 -523.5t573 -181.5q185 0 353.5 50t349.5 169l-19 -157q-313 -203 -686 -203zM903 674q0 -73 27.5 -118.5t81.5 -45.5q73 0 137 78.5t88 175.5l16 59q25 94 -6.5 160t-103.5 66
q-66 0 -123 -60t-87 -145.5t-30 -169.5z" />
    <glyph glyph-name="ampersand.ss01" horiz-adv-x="1900" 
d="M711 -35q-249 0 -398 125.5t-149 327.5q0 162 91 281t249 188q-129 153 -129 299q0 171 135 281t350 110q141 0 251 -58t174 -169t65 -258h-334q-2 89 -43 147.5t-111 58.5q-57 0 -87 -30t-30 -74q0 -51 42 -107t186 -200l287 -287q27 99 30 205h383v-90
q-129 -214 -209 -318l367 -366v-31h-469l-139 141q-221 -176 -512 -176zM569 512q0 -114 84 -185t207 -71q113 0 201 53l-399 410q-93 -75 -93 -207z" />
    <glyph glyph-name="registered.ss01" horiz-adv-x="1757" 
d="M879 -29q-358 0 -568.5 216.5t-210.5 586.5q0 371 210.5 588t568.5 217q357 0 566.5 -217t209.5 -588q0 -370 -209.5 -586.5t-566.5 -216.5zM274 774q0 -302 163.5 -479.5t441.5 -177.5q275 0 437.5 177.5t162.5 479.5t-162.5 481t-437.5 179q-278 0 -441.5 -178.5
t-163.5 -481.5zM586 387v170v461v170h303q313 0 313 -225q0 -161 -166 -205l221 -361l-16 -10h-235l-164 315h-35v-145v-170h-221zM807 854h65q115 0 115 88t-113 88h-67v-176z" />
    <glyph glyph-name="uni2117.ss01" horiz-adv-x="1757" 
d="M606 387v170v461v170h291q332 0 332 -240q0 -121 -84 -184.5t-248 -63.5h-70v-143v-170h-221zM100 774q0 371 210.5 588t568.5 217q357 0 566.5 -217t209.5 -588q0 -370 -209.5 -586.5t-566.5 -216.5q-358 0 -568.5 216.5t-210.5 586.5zM274 774q0 -302 163.5 -479.5
t441.5 -177.5q275 0 437.5 177.5t162.5 479.5t-162.5 481t-437.5 179q-278 0 -441.5 -178.5t-163.5 -481.5zM827 854h72q115 0 115 88t-113 88h-74v-176z" />
    <glyph glyph-name="arrowup.case" horiz-adv-x="1193" 
d="M1114 797l-147 -123l-267 354v-885h-204v887l-269 -356l-145 123l516 649z" />
    <glyph glyph-name="uni2197.case" horiz-adv-x="1118" 
d="M934 446l-191 17l62 438l-625 -625l-145 146l624 625l-438 -62l-16 191l823 94z" />
    <glyph glyph-name="arrowright.case" horiz-adv-x="1466" 
d="M743 276l-122 146l356 268h-887v203h889l-358 268l122 148l650 -516z" />
    <glyph glyph-name="uni2198.case" horiz-adv-x="1118" 
d="M944 1118l94 -825l-825 94l16 191l445 -64l-629 629l143 145l627 -629l-63 441z" />
    <glyph glyph-name="arrowdown.case" horiz-adv-x="1193" 
d="M1114 791l-516 -650l-516 650l145 122l269 -356v887h204v-885l267 354z" />
    <glyph glyph-name="uni2199.case" horiz-adv-x="1118" 
d="M176 1114l191 -18l-64 -441l627 629l145 -145l-629 -627l443 61l16 -188l-823 -94z" />
    <glyph glyph-name="arrowleft.case" horiz-adv-x="1466" 
d="M723 272l-649 516l649 517l123 -146l-357 -268h887v-205h-884l354 -266z" />
    <glyph glyph-name="uni2196.case" horiz-adv-x="1118" 
d="M176 467l-94 825l823 -94l-16 -190l-443 61l629 -627l-145 -145l-627 629l64 -441z" />
    <glyph glyph-name="arrowboth.case" horiz-adv-x="1812" 
d="M711 276l-641 519l641 516l123 -148l-351 -268h846l-352 268l123 148l643 -516l-643 -519l-123 148l350 266h-842l349 -266z" />
    <glyph glyph-name="arrowupdn.case" horiz-adv-x="1210" 
d="M90 989l516 641l516 -641l-145 -123l-268 351v-846l268 352l145 -123l-516 -643l-516 643l148 123l266 -350v841l-266 -348z" />
    <glyph glyph-name="uni030C.alt" 
d="M98 1116l54 481h315l-182 -481h-187z" />
    <glyph glyph-name="uni0307.alt" 
d="M102 1221v299h369v-299h-369z" />
    <glyph glyph-name="uni0308.case" 
d="M102 1702v301h322v-301h-322zM575 1702v301h322v-301h-322z" />
    <glyph glyph-name="uni0307.case" 
d="M102 1702v301h322v-301h-322z" />
    <glyph glyph-name="gravecomb.case" 
d="M449 1694l-347 317h406l213 -317h-272z" />
    <glyph glyph-name="acutecomb.case" 
d="M102 1694l213 317h406l-348 -317h-271z" />
    <glyph glyph-name="uni030B.case" 
d="M457 1694l270 317h287l-340 -317h-217zM92 1694l211 317h283l-275 -317h-219z" />
    <glyph glyph-name="uni0302.case" 
d="M100 1694l344 317h244l346 -317h-311l-156 166l-157 -166h-310z" />
    <glyph glyph-name="uni030C.case" 
d="M449 1692l-347 319h310l166 -160l165 160h312l-348 -319h-258z" />
    <glyph glyph-name="uni0306.case" 
d="M522 1671q-206 0 -313 89.5t-107 250.5h238q0 -82 45 -120t137 -38t137.5 38t45.5 120h237q0 -161 -107 -250.5t-313 -89.5z" />
    <glyph glyph-name="uni030A.case" 
d="M391 1661q-136 0 -212.5 56t-76.5 163t76.5 164t212.5 57q138 0 215.5 -57t77.5 -164t-77 -163t-216 -56zM279 1880q0 -40 29.5 -62t80.5 -22q53 0 83 22t30 62q0 41 -30 63.5t-83 22.5q-51 0 -80.5 -22.5t-29.5 -63.5z" />
    <glyph glyph-name="tildecomb.case" 
d="M113 1683q0 330 235 330q49 0 86 -13t59 -31.5t40.5 -36.5t40 -31t47.5 -13q42 0 57.5 29.5t17.5 93.5h187q-3 -328 -236 -328q-47 0 -83 13t-58.5 31.5t-41.5 36.5t-41.5 31t-49.5 13q-40 0 -57 -31t-17 -94h-186z" />
    <glyph glyph-name="uni0304.case" 
d="M102 1751v217h795v-217h-795z" />
    <glyph glyph-name="_D_small" horiz-adv-x="2738" 
d="M1761 659v342v207v342h420q265 0 413 -121.5t148 -322.5q0 -202 -148.5 -324.5t-412.5 -122.5h-420zM2107 915h68q97 0 156 47.5t59 143.5t-57.5 143t-157.5 47h-68v-381z" />
    <glyph glyph-name="_T_small" horiz-adv-x="2256" 
d="M1645 659v342v259q-148 0 -256 -9v299h874v-299q-108 9 -256 9v-259v-342h-362z" />
    <glyph glyph-name="strokecomb" horiz-adv-x="997" 
d="M20 713v207h957v-207h-957z" />
    <glyph glyph-name="symbol" horiz-adv-x="1228" 
 />
    <glyph glyph-name="_percent.zero" horiz-adv-x="944" 
d="M471 -39q-189 0 -303.5 104.5t-114.5 268.5q0 162 114.5 266.5t303.5 104.5t304.5 -104.5t115.5 -266.5q0 -163 -115 -268t-305 -105zM322 334q0 -66 41.5 -107t107.5 -41t108 41t42 107q0 64 -42 104.5t-108 40.5t-107.5 -40.5t-41.5 -104.5z" />
    <glyph glyph-name="strokecomb.case" horiz-adv-x="952" 
d="M2 659v236h948v-236h-948z" />
    </font>
</defs>
</svg>
